<?xml version="1.0" encoding="UTF-8" standalone="no"?>
<svg
   xmlns:dc="http://purl.org/dc/elements/1.1/"
   xmlns:cc="http://creativecommons.org/ns#"
   xmlns:rdf="http://www.w3.org/1999/02/22-rdf-syntax-ns#"
   xmlns:svg="http://www.w3.org/2000/svg"
   xmlns="http://www.w3.org/2000/svg"
   xmlns:sodipodi="http://sodipodi.sourceforge.net/DTD/sodipodi-0.dtd"
   xmlns:inkscape="http://www.inkscape.org/namespaces/inkscape"
   inkscape:version="1.0 (4035a4fb49, 2020-05-01)"
   sodipodi:docname="Israel_road_sign_409.svg"
   xml:space="preserve"
   enable-background="new 0 0 610 600"
   viewBox="0 0 592.1582 592.1582"
   height="592.1582"
   width="592.1582"
   y="0px"
   x="0px"
   id="Layer_1"
   version="1.1"><metadata
   id="metadata8642"><rdf:RDF><cc:Work
       rdf:about=""><dc:format>image/svg+xml</dc:format><dc:type
         rdf:resource="http://purl.org/dc/dcmitype/StillImage" /><dc:title /></cc:Work></rdf:RDF></metadata><defs
   id="defs8640"><path
     id="Oct"
     d="M 500,-207.10678 V 207.10678 L 207.10678,500 H -207.10678 L -500,207.10678 V -207.10678 L -207.10678,-500 h 414.21356 z" /><pattern
     id="EMFhbasepattern"
     patternUnits="userSpaceOnUse"
     width="6"
     height="6"
     x="0"
     y="0" /><pattern
     id="EMFhbasepattern-0"
     patternUnits="userSpaceOnUse"
     width="6"
     height="6"
     x="0"
     y="0" /><pattern
     id="EMFhbasepattern-8"
     patternUnits="userSpaceOnUse"
     width="6"
     height="6"
     x="0"
     y="0" /><pattern
     id="EMFhbasepattern-3"
     patternUnits="userSpaceOnUse"
     width="6"
     height="6"
     x="0"
     y="0" /><pattern
     y="0"
     x="0"
     height="6"
     width="6"
     patternUnits="userSpaceOnUse"
     id="EMFhbasepattern-9" /></defs><sodipodi:namedview
   inkscape:document-rotation="0"
   inkscape:current-layer="Layer_1"
   inkscape:window-maximized="1"
   inkscape:window-y="-9"
   inkscape:window-x="-9"
   inkscape:cy="226.26526"
   inkscape:cx="-153.72461"
   inkscape:zoom="0.55625734"
   showgrid="false"
   id="namedview8638"
   inkscape:window-height="1001"
   inkscape:window-width="1920"
   inkscape:pageshadow="2"
   inkscape:pageopacity="0"
   guidetolerance="10"
   gridtolerance="10"
   objecttolerance="10"
   borderopacity="1"
   bordercolor="#666666"
   pagecolor="#ffffff"><sodipodi:guide
     inkscape:locked="false"
     id="guide8644"
     orientation="0,610"
     position="-5.3896699,-7.8417958" /><sodipodi:guide
     inkscape:color="rgb(117,80,123)"
     inkscape:label=""
     inkscape:locked="false"
     id="guide8646"
     orientation="-1,0"
     position="604.61033,-7.8417958" /><sodipodi:guide
     inkscape:locked="false"
     id="guide8648"
     orientation="0,-610"
     position="604.61033,592.1582" /><sodipodi:guide
     inkscape:locked="false"
     id="guide8650"
     orientation="600,0"
     position="-11.440678,592.1582" /><inkscape:grid
     originy="3.457"
     originx="1.12931"
     id="grid56807"
     type="xygrid" /></sodipodi:namedview>


<circle
   cx="296.078"
   cy="296.07901"
   r="292.48499"
   id="circle8633"
   style="fill:#ffffff;stroke:#000000;stroke-opacity:0.815686" /><path
   style="color:#000000;font-style:normal;font-variant:normal;font-weight:normal;font-stretch:normal;font-size:medium;line-height:normal;font-family:sans-serif;font-variant-ligatures:normal;font-variant-position:normal;font-variant-caps:normal;font-variant-numeric:normal;font-variant-alternates:normal;font-variant-east-asian:normal;font-feature-settings:normal;font-variation-settings:normal;text-indent:0;text-align:start;text-decoration:none;text-decoration-line:none;text-decoration-style:solid;text-decoration-color:#000000;letter-spacing:normal;word-spacing:normal;text-transform:none;writing-mode:lr-tb;direction:ltr;text-orientation:mixed;dominant-baseline:auto;baseline-shift:baseline;text-anchor:start;white-space:normal;shape-padding:0;shape-margin:0;inline-size:0;clip-rule:nonzero;display:inline;overflow:visible;visibility:visible;opacity:1;isolation:auto;mix-blend-mode:normal;color-interpolation:sRGB;color-interpolation-filters:linearRGB;solid-color:#000000;solid-opacity:1;vector-effect:none;fill:#c0111e;fill-opacity:1;fill-rule:nonzero;stroke:none;stroke-width:70;stroke-linecap:butt;stroke-linejoin:miter;stroke-miterlimit:4;stroke-dasharray:none;stroke-dashoffset:0;stroke-opacity:1;color-rendering:auto;image-rendering:auto;shape-rendering:auto;text-rendering:auto;enable-background:accumulate;stop-color:#000000;stop-opacity:1"
   d="M 296.07812,0 C 132.97277,0 0,132.97277 0,296.07812 0,459.18348 132.97277,592.1582 296.07812,592.1582 459.18348,592.1582 592.1582,459.18348 592.1582,296.07812 592.1582,132.97277 459.18348,0 296.07812,0 Z m 0,70 C 421.35268,70 522.1582,170.80357 522.1582,296.07812 522.1582,421.35268 421.35268,522.1582 296.07812,522.1582 170.80357,522.1582 70,421.35268 70,296.07812 70,170.80357 170.80357,70 296.07812,70 Z"
   id="path56784" /><g
   aria-label="6"
   id="text2114"
   style="font-size:388.387px;line-height:109.02%;font-family:'Heb Tamrurim';-inkscape-font-specification:'Heb Tamrurim';text-align:center;text-anchor:middle;stroke-width:1" /><g
   aria-label="y"
   id="text2118"
   style="font-size:95.3628px;line-height:109.02%;font-family:'Heb Tamrurim';-inkscape-font-specification:'Heb Tamrurim';text-align:center;text-anchor:middle;stroke-width:1" /><g
   aria-label="t"
   id="text2122"
   style="font-size:117.724px;line-height:109.02%;font-family:'Heb Tamrurim';-inkscape-font-specification:'Heb Tamrurim';text-align:center;text-anchor:middle;stroke-width:1" /><path
   style="fill:#000000;fill-opacity:1;stroke-width:1.53643"
   inkscape:connector-curvature="0"
   id="path1449"
   d="m 474.77805,316.43254 5.08418,-4.18441 c 0,0 -22.21226,-29.13484 -40.24205,-29.8243 -18.05158,-0.7003 -37.46248,5.53948 -37.46248,5.53948 l 4.16276,-20.81153 c 0,0 11.08552,-1.37892 13.17979,-13.1755 2.06835,-11.79443 -11.79648,-22.90158 -11.79648,-22.90158 0,0 -16.65103,-1.38324 -27.06668,-1.38324 -10.39593,0 -23.57366,11.7966 -23.57366,11.7966 0,0 -18.0495,4.85002 -31.92302,-2.78384 -13.87585,-7.63168 -31.21835,-15.95717 -33.29749,-36.77086 -2.07927,-20.81153 0.69158,-22.89292 0.69158,-22.89292 0,0 20.8115,-9.71523 20.8115,-22.20128 0,-12.48822 -11.09618,-33.9957 -25.6659,-33.9957 -14.56743,0 -30.52666,6.23978 -30.52666,18.0342 0,11.79659 4.85427,26.36619 4.85427,26.36619 0,0 -27.75806,9.71306 -38.85443,31.22056 -11.09622,21.50966 -17.33818,56.88644 -17.33818,56.88644 h -56.20344 v 23.59537 c 0,0 -24.98294,2.78165 -40.93144,14.5674 -15.95076,11.7901 -20.81377,47.86934 -20.81377,47.86934 h 20.66842 c -1.45697,5.30966 -2.30253,10.87515 -2.30253,16.64879 0,34.65914 28.11153,62.801 62.79015,62.801 27.99456,0 51.65485,-18.32039 59.78954,-43.583 10.66272,2.2071 23.79493,4.41205 37.37583,4.41205 15.41948,-0.0194 31.86231,-2.83803 45.37166,-13.04542 19.49333,-14.82758 27.45248,-33.18267 27.37874,-48.7951 0,-1.68894 -0.24935,-3.2825 -0.42288,-4.89339 l 21.99972,-21.41643 17.01519,-17.00218 7.98065,21.16491 c 0,0 -16.67032,11.09848 -23.5953,29.13701 -6.9422,18.04072 -4.16275,40.23332 -4.16275,40.23332 l 7.71201,-1.76266 c 3.60976,31.24439 30.1364,55.54873 62.37823,55.54873 34.67862,0 62.76404,-28.1397 62.7814,-62.80099 0,-15.97018 -6.02298,-30.50941 -15.84648,-41.59706 z m -225.95235,27.0253 v 17.24284 c -5.98612,-0.78701 -11.74887,-1.78218 -16.9957,-2.87705 -0.017,-4.9476 -0.66125,-9.74342 -1.76476,-14.36579 z M 125.94911,357.2881 c 0.41191,-21.77417 16.85897,-39.38125 38.02833,-41.90058 l -3.86577,22.89074 c -7.79857,2.43694 -13.56145,9.28161 -14.4156,17.64828 -7.87237,0.49866 -14.74085,0.97996 -19.74696,1.36156 z m 60.73696,-3.08737 c -0.91934,-4.9129 -3.58608,-9.12984 -7.2979,-12.17817 l 4.13459,-24.45827 c 15.59291,5.60235 26.87355,19.81637 28.30006,36.99851 -4.98648,-0.32305 -10.53036,-0.43795 -16.60976,-0.45746 -2.76213,0 -5.63051,0.0391 -8.52699,0.0954 z m -17.6657,46.99343 c -17.11931,-0.0392 -31.7734,-10.0903 -38.74815,-24.53414 6.32211,-0.45965 14.82767,-1.03419 24.15912,-1.55453 3.36694,2.34154 7.43435,3.72479 11.84426,3.72479 5.02558,0 9.57432,-1.86022 13.16902,-4.8175 5.43748,-0.17129 10.77971,-0.26885 15.76844,-0.26885 5.05168,-0.0193 9.75212,0.0975 13.78907,0.32738 -6.38491,15.86394 -21.82823,27.08599 -39.98176,27.12285 z M 300.85561,351.9741 v -27.23775 l 18.1947,-1.24883 c -1.04713,8.2973 -5.7367,18.43529 -18.1947,28.48658 z m 126.98532,49.22006 c -23.84037,-0.0392 -43.13853,-19.35673 -43.19504,-43.15806 0.0207,-11.66436 4.69618,-22.21212 12.23672,-29.96089 2.20716,7.34767 4.83278,15.07475 7.48004,20.48414 2.24395,4.47061 4.94773,7.82465 7.63386,10.51309 0.53769,8.30596 7.38451,14.90348 15.82484,14.90348 8.80477,0 15.93994,-7.13304 15.93994,-15.93982 0,-8.8068 -7.13517,-15.93982 -15.93994,-15.93982 -1.38317,0 -2.70349,0.22548 -3.98922,0.5767 -0.67429,-0.90193 -1.32473,-1.74531 -1.9188,-2.91608 -2.1268,-4.18443 -5.33353,-14.02322 -7.67287,-22.2338 -0.0193,-0.0759 -0.0414,-0.14311 -0.0579,-0.21247 4.31893,-1.45481 8.84364,-2.41743 13.65905,-2.43477 23.80563,0.0456 43.07994,19.3242 43.12115,43.15807 -0.0413,23.80566 -19.31331,43.12337 -43.12115,43.16023 z" /></svg>
