<?xml version="1.0" encoding="UTF-8" standalone="no"?>
<svg
   xmlns:dc="http://purl.org/dc/elements/1.1/"
   xmlns:cc="http://creativecommons.org/ns#"
   xmlns:rdf="http://www.w3.org/1999/02/22-rdf-syntax-ns#"
   xmlns:svg="http://www.w3.org/2000/svg"
   xmlns="http://www.w3.org/2000/svg"
   xmlns:sodipodi="http://sodipodi.sourceforge.net/DTD/sodipodi-0.dtd"
   xmlns:inkscape="http://www.inkscape.org/namespaces/inkscape"
   inkscape:version="1.0 (4035a4fb49, 2020-05-01)"
   sodipodi:docname="613a.svg"
   viewBox="0 0 300 148.54458"
   height="148.54459"
   width="300"
   id="svg929"
   version="1.1">
  <metadata
     id="metadata935">
    <rdf:RDF>
      <cc:Work
         rdf:about="">
        <dc:format>image/svg+xml</dc:format>
        <dc:type
           rdf:resource="http://purl.org/dc/dcmitype/StillImage" />
        <dc:title></dc:title>
      </cc:Work>
    </rdf:RDF>
  </metadata>
  <defs
     id="defs933" />
  <sodipodi:namedview
     inkscape:current-layer="g937"
     inkscape:window-maximized="1"
     inkscape:window-y="-9"
     inkscape:window-x="-9"
     inkscape:cy="81.544131"
     inkscape:cx="228.98336"
     inkscape:zoom="1.9563288"
     showgrid="false"
     id="namedview931"
     inkscape:window-height="1001"
     inkscape:window-width="1920"
     inkscape:pageshadow="2"
     inkscape:pageopacity="0"
     guidetolerance="10"
     gridtolerance="10"
     objecttolerance="10"
     borderopacity="1"
     bordercolor="#666666"
     pagecolor="#ffffff" />
  <g
     transform="translate(-321.97995,17.382839)"
     id="g937"
     inkscape:label="Image"
     inkscape:groupmode="layer">
    <g
       transform="matrix(1.2403016,0,0,1.2403016,-406.01577,-103.73429)"
       style="opacity:1;fill:#ffcc00;stroke:#000000;stroke-opacity:1"
       id="g2608">
      <path
         sodipodi:nodetypes="ccccc"
         id="path2610-8"
         d="M 586.95056,69.621333 V 189.38524 l 241.87665,9.8e-4 V 69.622323 Z"
         style="color:#000000;font-style:normal;font-variant:normal;font-weight:normal;font-stretch:normal;font-size:medium;line-height:normal;font-family:sans-serif;font-variant-ligatures:normal;font-variant-position:normal;font-variant-caps:normal;font-variant-numeric:normal;font-variant-alternates:normal;font-variant-east-asian:normal;font-feature-settings:normal;font-variation-settings:normal;text-indent:0;text-align:start;text-decoration:none;text-decoration-line:none;text-decoration-style:solid;text-decoration-color:#000000;letter-spacing:normal;word-spacing:normal;text-transform:none;writing-mode:lr-tb;direction:ltr;text-orientation:mixed;dominant-baseline:auto;baseline-shift:baseline;text-anchor:start;white-space:normal;shape-padding:0;shape-margin:0;inline-size:0;clip-rule:nonzero;display:inline;overflow:visible;visibility:visible;opacity:1;isolation:auto;mix-blend-mode:normal;color-interpolation:sRGB;color-interpolation-filters:linearRGB;solid-color:#000000;solid-opacity:1;vector-effect:none;fill:#070fdb;fill-opacity:1;fill-rule:nonzero;stroke:none;stroke-width:0.386746;stroke-linecap:butt;stroke-linejoin:miter;stroke-miterlimit:4;stroke-dasharray:none;stroke-dashoffset:0;stroke-opacity:1;color-rendering:auto;image-rendering:auto;shape-rendering:auto;text-rendering:auto;enable-background:accumulate;stop-color:#000000;stop-opacity:1" />
    </g>
    <path
       sodipodi:nodetypes="ssssssssssssssssss"
       id="path2502-8"
       d="m 336.60386,-13.481742 c -5.89226,0 -10.72112,4.8288272 -10.72112,10.7212062 V 116.54318 c 0,5.89233 4.82886,10.71743 10.72112,10.71743 h 270.75205 c 5.89241,0 10.72125,-4.82511 10.72125,-10.71743 V -2.7605358 c 0,-5.892346 -4.82901,-10.7212062 -10.72125,-10.7212062 z m 0,4.6617002 h 270.75205 c 3.37357,0 6.05942,2.685901 6.05942,6.059506 V 116.54318 c 0,3.37357 -2.68585,6.0557 -6.05942,6.0557 H 336.60386 c -3.37357,0 -6.05942,-2.68215 -6.05942,-6.0557 V -2.7605358 c 0,-3.373605 2.68585,-6.059506 6.05942,-6.059506 z"
       style="color:#000000;font-style:normal;font-variant:normal;font-weight:normal;font-stretch:normal;font-size:medium;line-height:normal;font-family:sans-serif;font-variant-ligatures:normal;font-variant-position:normal;font-variant-caps:normal;font-variant-numeric:normal;font-variant-alternates:normal;font-variant-east-asian:normal;font-feature-settings:normal;font-variation-settings:normal;text-indent:0;text-align:start;text-decoration:none;text-decoration-line:none;text-decoration-style:solid;text-decoration-color:#000000;letter-spacing:normal;word-spacing:normal;text-transform:none;writing-mode:lr-tb;direction:ltr;text-orientation:mixed;dominant-baseline:auto;baseline-shift:baseline;text-anchor:start;white-space:normal;shape-padding:0;shape-margin:0;inline-size:0;clip-rule:nonzero;display:inline;overflow:visible;visibility:visible;opacity:1;isolation:auto;mix-blend-mode:normal;color-interpolation:sRGB;color-interpolation-filters:linearRGB;solid-color:#000000;solid-opacity:1;vector-effect:none;fill:#ffffff;fill-opacity:1;fill-rule:nonzero;stroke:none;stroke-width:4.66046;stroke-linecap:butt;stroke-linejoin:miter;stroke-miterlimit:4;stroke-dasharray:none;stroke-dashoffset:0;stroke-opacity:1;color-rendering:auto;image-rendering:auto;shape-rendering:auto;text-rendering:auto;enable-background:accumulate;stop-color:#000000;stop-opacity:1" />
    <path
       d="m 423.57574,12.506223 v 20.121165 h 6.07461 V 12.506223 Z m 0,37.962505 v 17.98615 h 6.07461 v -17.98615 z m 0,35.83121 V 106.28 h 6.07461 V 86.299938 Z"
       style="opacity:1;fill:#ffffff;stroke-width:1.9011"
       id="rect941" />
    <path
       id="path952"
       style="opacity:1;fill:#ffffff;stroke-width:1.9011"
       d="m 523.38301,12.506223 v 20.121165 h 6.07459 V 12.506223 Z m 0,37.962505 v 17.98615 h 6.07459 v -17.98615 z m 0,35.83121 V 106.28 h 6.07459 V 86.299938 Z" />
    <path
       sodipodi:nodetypes="cccccccscccccccccccccccccc"
       d="m 376.19464,22.211335 c -0.0219,0.02517 -0.0413,0.0523 -0.0614,0.07956 -5.5e-4,-4.09e-4 -10e-4,-4.2e-5 0,-0.0036 l -0.0211,0.02935 -0.008,0.004 -16.03122,22.716883 -3.4e-4,10e-4 c -0.41004,0.52282 -0.37906,1.29413 0.0709,1.77786 0.30743,0.33062 0.75531,0.46266 1.17752,0.34737 l 11.68003,-2.42348 -1.42487,32.3684 5.53998,0.0135 5.54499,0.008 -1.31664,-32.37402 11.67643,2.50653 0.14106,0.004 c 0.38528,0.0641 0.77554,-0.0717 1.05188,-0.36623 0.44822,-0.47753 0.48333,-1.24204 0.0804,-1.76372 l -16.0465,-22.869751 c -0.008,-0.01673 -0.0192,-0.02933 -0.0306,-0.04287 v -0.0072 c -5.7e-4,-0.0011 0,-0.0036 0,-0.0036 -0.0568,-0.06635 -0.11824,-0.132012 -0.18934,-0.187315 -0.56917,-0.455358 -1.35547,-0.36789 -1.82593,0.179331 l -4.4e-4,3.44e-4 z"
       style="font-size:19.2882px;line-height:109.02%;font-family:'Heb Tamrurim';-inkscape-font-specification:'Heb Tamrurim';text-align:center;letter-spacing:1.09802px;text-anchor:middle;opacity:1;fill:#ffffff;fill-opacity:1;stroke-width:0.905771"
       id="path949-4" />
    <path
       id="path975"
       style="font-size:19.2882px;line-height:109.02%;font-family:'Heb Tamrurim';-inkscape-font-specification:'Heb Tamrurim';text-align:center;letter-spacing:1.09802px;text-anchor:middle;opacity:1;fill:#ffffff;fill-opacity:1;stroke-width:0.905771"
       d="m 475.717,22.211335 c -0.0219,0.02517 -0.0412,0.0523 -0.0612,0.07956 -5.7e-4,-4.09e-4 -10e-4,-4.2e-5 0,-0.0036 l -0.0211,0.02935 -0.008,0.004 -16.03122,22.716883 -3.4e-4,10e-4 c -0.41005,0.52282 -0.37906,1.29413 0.0709,1.77786 0.30743,0.33062 0.75531,0.46266 1.17752,0.34737 l 11.68003,-2.42348 -1.42487,32.3684 5.53998,0.0135 5.54499,0.008 -1.31667,-32.37402 11.67646,2.50653 0.14106,0.004 c 0.38526,0.0641 0.77553,-0.0717 1.05188,-0.36623 0.44822,-0.47753 0.48333,-1.24204 0.0804,-1.76372 l -16.0469,-22.869655 c -0.008,-0.01673 -0.0192,-0.02933 -0.0306,-0.04287 v -0.0072 c -5.7e-4,-0.0011 0,-0.0036 0,-0.0036 -0.0568,-0.06635 -0.11825,-0.132012 -0.18935,-0.187315 -0.56917,-0.455358 -1.35546,-0.36789 -1.82592,0.179331 l -4.4e-4,3.44e-4 z"
       sodipodi:nodetypes="cccccccscccccccccccccccccc" />
    <path
       id="rect19804"
       style="opacity:1;fill:#ffffff;stroke-width:65.2859"
       d="m 584.87778,23.257968 c -0.29618,-0.0063 -0.59026,0.05065 -0.81784,0.191973 -0.53369,0.331414 -0.84074,1.128942 -0.74116,1.732757 l 1.78734,9.02928 h -5.89146 c -13.44853,0 -24.27532,10.82679 -24.27532,24.27532 -1.4e-4,4.66275 7e-5,14.96245 7e-5,14.96245 h 10.70028 v -16.17726 c 0,-6.84071 5.50702,-12.3479 12.34773,-12.3479 h 7.14368 l -1.81574,9.08955 c -0.0951,0.59992 0.12965,1.30846 0.60903,1.6411 0.53838,0.37357 1.2349,0.53901 1.96589,-0.004 l 18.96126,-14.75798 c 0.33328,-0.24162 0.60046,-0.82013 0.60282,-1.29682 0.004,-0.46653 -0.32668,-1.10523 -0.57757,-1.27483 L 585.89423,23.551299 c -0.25136,-0.172334 -0.63567,-0.285084 -1.01645,-0.293249 z" />
  </g>
</svg>
