<?xml version="1.0" encoding="UTF-8" standalone="no"?>
<svg
   inkscape:version="1.1.2 (b8e25be833, 2022-02-05)"
   sodipodi:docname="Pedestrian_crossing_indication_sign_in_Israel.svg"
   viewBox="0 0 399.99999 400.00002"
   height="400"
   width="400"
   id="svg10224"
   version="1.1"
   xmlns:inkscape="http://www.inkscape.org/namespaces/inkscape"
   xmlns:sodipodi="http://sodipodi.sourceforge.net/DTD/sodipodi-0.dtd"
   xmlns="http://www.w3.org/2000/svg"
   xmlns:svg="http://www.w3.org/2000/svg"
   xmlns:rdf="http://www.w3.org/1999/02/22-rdf-syntax-ns#"
   xmlns:cc="http://creativecommons.org/ns#"
   xmlns:dc="http://purl.org/dc/elements/1.1/">
  <metadata
     id="metadata10230">
    <rdf:RDF>
      <cc:Work
         rdf:about="">
        <dc:format>image/svg+xml</dc:format>
        <dc:type
           rdf:resource="http://purl.org/dc/dcmitype/StillImage" />
      </cc:Work>
    </rdf:RDF>
  </metadata>
  <defs
     id="defs10228" />
  <sodipodi:namedview
     inkscape:document-rotation="0"
     inkscape:snap-global="true"
     inkscape:bbox-nodes="true"
     inkscape:snap-bbox-edge-midpoints="true"
     inkscape:snap-bbox="true"
     inkscape:snap-smooth-nodes="true"
     inkscape:snap-intersection-paths="true"
     inkscape:guide-bbox="true"
     inkscape:pagecheckerboard="true"
     inkscape:current-layer="svg10224"
     inkscape:window-maximized="1"
     inkscape:window-y="-9"
     inkscape:window-x="-9"
     inkscape:cy="207.49999"
     inkscape:cx="263.49999"
     inkscape:zoom="1"
     showguides="true"
     showgrid="false"
     id="namedview10226"
     inkscape:window-height="1001"
     inkscape:window-width="1920"
     inkscape:pageshadow="2"
     inkscape:pageopacity="0"
     guidetolerance="10"
     gridtolerance="10"
     objecttolerance="10"
     borderopacity="1"
     bordercolor="#666666"
     pagecolor="#ffffff"
     inkscape:snap-bbox-midpoints="true" />
  <path
     id="path3323"
     style="fill:#070fdb;fill-opacity:1;stroke:none;stroke-width:23.9727;stroke-miterlimit:4;stroke-dasharray:none;stroke-opacity:1"
     d="M 0,0 V 400 H 400 V 0 Z"
     inkscape:connector-curvature="0"
     sodipodi:nodetypes="ccccc" />
  <path
     id="path2532"
     style="display:inline;fill:#ffffff;stroke-width:1.37953;stroke-linecap:round;stroke-linejoin:round;fill-opacity:1"
     d="M 9.4082031 9.4042969 L 9.4082031 390.5918 L 390.5918 390.5918 L 390.5918 9.4042969 L 9.4082031 9.4042969 z M 20.441406 20.441406 L 379.55859 20.441406 L 379.55859 379.55859 L 20.441406 379.55859 L 20.441406 20.441406 z " />
  <path
     d="m 249.2566,291.1104 0.11043,0.0877 c -14.76823,36.12174 -50.22649,59.77456 -89.63895,59.77456 -53.38374,0 -96.689418,-42.82522 -96.689418,-95.58362 0,-35.44681 19.862568,-68.00709 51.587778,-84.5408 l 2.82552,27.4507 c -18.32207,13.34593 -29.151343,34.53928 -29.151343,57.0901 0,39.11504 32.003563,70.8555 71.427463,70.8555 39.41246,0 71.4084,-31.74046 71.4084,-70.8555 0,-0.74356 -0.0153,-1.48712 -0.0458,-2.21924 l 18.16574,37.94061"
     inkscape:connector-curvature="0"
     id="path42"
     style="fill:#ffffff;fill-opacity:1;fill-rule:evenodd;stroke-width:3.81312" />
  <path
     d="m 120.15944,74.14738 -0.53766,0.537647 c -0.0153,-0.179214 -0.0153,-0.358427 -0.0153,-0.537647 0,-15.786342 13.05614,-28.567934 29.12083,-28.567934 16.07996,0 29.12085,12.781592 29.12085,28.567934 0,15.759647 -13.04089,28.56793 -29.12085,28.56793 -0.36606,0 -0.74355,-0.0267 -1.10961,-0.0267 l 0.0152,0.56434 3.84363,56.03387 h 75.81646 v 23.59561 H 152.571 l 1.102,20.34683 h 97.77996 l 40.66317,87.88111 26.90541,-12.09524 9.34979,19.2296 -52.19407,22.50504 -41.20081,-92.82668 H 129.51303 l -9.9065,-153.238103"
     inkscape:connector-curvature="0"
     id="path46"
     style="fill:#ffffff;fill-opacity:1;fill-rule:evenodd;stroke-width:3.81312" />
</svg>
