<?xml version="1.0" encoding="UTF-8" standalone="no"?>
<svg
   xmlns:dc="http://purl.org/dc/elements/1.1/"
   xmlns:cc="http://creativecommons.org/ns#"
   xmlns:rdf="http://www.w3.org/1999/02/22-rdf-syntax-ns#"
   xmlns:svg="http://www.w3.org/2000/svg"
   xmlns="http://www.w3.org/2000/svg"
   xmlns:sodipodi="http://sodipodi.sourceforge.net/DTD/sodipodi-0.dtd"
   xmlns:inkscape="http://www.inkscape.org/namespaces/inkscape"
   version="1.1"
   id="Layer_1"
   x="0px"
   y="0px"
   width="377.95276"
   height="377.95276"
   viewBox="0 0 377.95276 377.95276"
   enable-background="new 0 0 610 600"
   xml:space="preserve"
   sodipodi:docname="Israel_road_sign_211.svg"
   inkscape:version="1.0 (4035a4fb49, 2020-05-01)"><metadata
   id="metadata75"><rdf:RDF><cc:Work
       rdf:about=""><dc:format>image/svg+xml</dc:format><dc:type
         rdf:resource="http://purl.org/dc/dcmitype/StillImage" /></cc:Work></rdf:RDF></metadata><defs
   id="defs41" /><sodipodi:namedview
   id="namedview39"
   pagecolor="#ffffff"
   bordercolor="#666666"
   borderopacity="1.0"
   inkscape:pageshadow="2"
   inkscape:pageopacity="0.0"
   inkscape:pagecheckerboard="0"
   showgrid="false"
   inkscape:zoom="1"
   inkscape:cx="219.5"
   inkscape:cy="240.5"
   inkscape:window-width="1920"
   inkscape:window-height="1001"
   inkscape:window-x="-9"
   inkscape:window-y="-9"
   inkscape:window-maximized="1"
   inkscape:current-layer="Layer_1"
   inkscape:object-paths="false"
   inkscape:snap-intersection-paths="true"
   inkscape:snap-smooth-nodes="true"
   inkscape:snap-bbox="true"
   inkscape:snap-bbox-edge-midpoints="true"
   inkscape:bbox-nodes="true"
   showguides="true"
   inkscape:guide-bbox="true"
   inkscape:snap-global="false"
   inkscape:document-rotation="0" />

<g
   id="g34">
	<g
   id="g24">
		<g
   id="g6">
			<path
   fill="#ffffff"
   d="m 355.545,329.729 c 0.008,-50.328 40.785,-91.109 91.111,-91.119 v 0 10.549 10.548 c -19.371,0.006 -36.809,7.823 -49.512,20.508 v 0 c -12.686,12.703 -20.503,30.143 -20.505,49.51 v 0 c 0.002,19.363 7.817,36.805 20.505,49.506 v 0 c 12.703,12.688 30.141,20.504 49.512,20.508 v 0 c 19.365,-0.008 36.805,-7.82 49.504,-20.508 v 0 c 12.688,-12.701 20.507,-30.143 20.51,-49.506 v 0 c -0.008,-19.367 -7.822,-36.807 -20.51,-49.51 v 0 c -12.699,-12.686 -30.139,-20.506 -49.504,-20.508 v 0 -10.548 -10.549 c 50.324,0.01 91.106,40.791 91.113,91.119 v 0 c -0.007,50.322 -40.789,91.107 -91.113,91.113 v 0 c -50.326,-0.01 -91.103,-40.795 -91.111,-91.113 z"
   id="path4"
   style="display:none" />
		</g>
		<g
   id="g10">
			
		</g>
		<g
   id="g14">
			
		</g>
		<g
   id="g18">
			
		</g>
		<g
   id="g22">
			
		</g>
	</g>
	<g
   id="g30">
		
		
	</g>
	
</g>

<g
   transform="matrix(-1,0,0,1,377.95276,0)"
   id="g1158"><circle
     style="fill:#070fdb;fill-opacity:1;stroke-width:0.646108"
     id="circle2"
     r="188.97638"
     cy="188.97638"
     cx="188.97638"
     fill="#0099BB" /><circle
     style="opacity:1"
     id="circle36"
     r="181.69217"
     cy="188.97638"
     cx="188.97702"
     stroke-width="4.46784"
     stroke="#ffffff"
     fill="none" /></g><g
   transform="matrix(1.5666667,0,0,1.5666667,-43,-88)"
   aria-label="55"
   id="text1174"
   style="font-style:normal;font-weight:normal;font-size:160.571px;line-height:1.25;font-family:sans-serif;letter-spacing:14.05px;opacity:1;fill:#ffffff;fill-opacity:1;stroke:none;stroke-width:4.01427"><path
     d="m 78.650037,163.70668 q 4.174846,-2.72971 8.670834,-4.49599 4.495988,-1.92685 11.721683,-1.92685 7.707406,0 13.969676,2.56913 6.42284,2.56914 10.91883,7.38627 4.65656,4.81713 7.06512,11.56111 2.56914,6.74398 2.56914,15.09368 0,8.99197 -2.89028,16.53881 -2.72971,7.38627 -8.02855,12.84568 -5.13827,5.29884 -12.52454,8.34969 -7.38626,3.05085 -16.53881,3.05085 -10.437115,0 -17.502239,-3.21142 -6.904553,-3.21142 -11.400541,-8.02855 -4.335417,-4.9777 -6.583411,-10.75826 -2.087423,-5.78055 -2.729707,-11.0794 l 21.837656,-1.28456 q 0.321142,2.7297 1.284568,5.61998 0.963426,2.72971 2.890278,4.9777 1.926852,2.08743 4.81713,3.53256 3.050849,1.28457 7.707408,1.28457 3.21142,0 6.101698,-1.12399 3.05085,-1.28457 5.29884,-3.85371 2.40857,-2.56913 3.69314,-6.42284 1.44513,-3.8537 1.44513,-8.99197 0,-9.31312 -4.81713,-14.13025 -4.65655,-4.9777 -11.721678,-4.9777 -6.101698,0 -9.63426,2.56913 -3.532562,2.56914 -5.298843,5.78056 l -19.910804,-1.28457 8.189121,-62.94383 H 129.2299 v 19.58966 H 82.34317 Z"
     style="font-style:normal;font-variant:normal;font-weight:normal;font-stretch:normal;font-family:Triumvirate;-inkscape-font-specification:Triumvirate;stroke-width:4.01427;fill:#ffffff"
     id="path1176" /><path
     d="m 184.90292,163.70668 q 4.17485,-2.72971 8.67083,-4.49599 4.49599,-1.92685 11.72169,-1.92685 7.70741,0 13.96967,2.56913 6.42284,2.56914 10.91883,7.38627 4.65656,4.81713 7.06513,11.56111 2.56913,6.74398 2.56913,15.09368 0,8.99197 -2.89028,16.53881 -2.7297,7.38627 -8.02855,12.84568 -5.13827,5.29884 -12.52453,8.34969 -7.38627,3.05085 -16.53882,3.05085 -10.43711,0 -17.50224,-3.21142 -6.90455,-3.21142 -11.40054,-8.02855 -4.33541,-4.9777 -6.58341,-10.75826 -2.08742,-5.78055 -2.7297,-11.0794 l 21.83765,-1.28456 q 0.32114,2.7297 1.28457,5.61998 0.96343,2.72971 2.89028,4.9777 1.92685,2.08743 4.81713,3.53256 3.05085,1.28457 7.70741,1.28457 3.21142,0 6.10169,-1.12399 3.05085,-1.28457 5.29885,-3.85371 2.40856,-2.56913 3.69313,-6.42284 1.44514,-3.8537 1.44514,-8.99197 0,-9.31312 -4.81713,-14.13025 -4.65656,-4.9777 -11.72168,-4.9777 -6.1017,0 -9.63426,2.56913 -3.53257,2.56914 -5.29885,5.78056 l -19.9108,-1.28457 8.18912,-62.94383 h 61.98041 v 19.58966 h -46.88674 z"
     style="font-style:normal;font-variant:normal;font-weight:normal;font-stretch:normal;font-family:Triumvirate;-inkscape-font-specification:Triumvirate;stroke-width:4.01427;fill:#ffffff"
     id="path1178" /></g></svg>
