<?xml version="1.0" encoding="UTF-8" standalone="no"?>
<svg
   viewBox="0 0 568.125 497.228"
   height="497.228"
   width="568.125"
   xml:space="preserve"
   version="1.1"
   id="svg3522"
   sodipodi:docname="Tram_sign_israel.svg"
   inkscape:version="1.1.2 (b8e25be833, 2022-02-05)"
   xmlns:inkscape="http://www.inkscape.org/namespaces/inkscape"
   xmlns:sodipodi="http://sodipodi.sourceforge.net/DTD/sodipodi-0.dtd"
   xmlns="http://www.w3.org/2000/svg"
   xmlns:svg="http://www.w3.org/2000/svg"
   xmlns:rdf="http://www.w3.org/1999/02/22-rdf-syntax-ns#"
   xmlns:cc="http://creativecommons.org/ns#"
   xmlns:dc="http://purl.org/dc/elements/1.1/"><sodipodi:namedview
     id="namedview11"
     pagecolor="#ffffff"
     bordercolor="#666666"
     borderopacity="1.0"
     inkscape:pageshadow="2"
     inkscape:pageopacity="0.0"
     inkscape:pagecheckerboard="true"
     showgrid="false"
     showguides="true"
     inkscape:guide-bbox="true"
     inkscape:snap-intersection-paths="true"
     inkscape:snap-smooth-nodes="true"
     inkscape:snap-bbox="true"
     inkscape:snap-bbox-edge-midpoints="true"
     inkscape:bbox-nodes="true"
     inkscape:zoom="1.4142136"
     inkscape:cx="257.74042"
     inkscape:cy="374.41304"
     inkscape:window-width="1920"
     inkscape:window-height="1001"
     inkscape:window-x="-9"
     inkscape:window-y="-9"
     inkscape:window-maximized="1"
     inkscape:current-layer="svg3522"
     width="568.125px"
     inkscape:snap-global="true" /><metadata
     id="metadata3528"><rdf:RDF><cc:Work
         rdf:about=""><dc:format>image/svg+xml</dc:format><dc:type
           rdf:resource="http://purl.org/dc/dcmitype/StillImage" /></cc:Work></rdf:RDF></metadata><defs
     id="defs3526" /><path
     id="rect2419"
     style="display:inline;fill:#ffffff;fill-opacity:1;stroke-width:1.41526;stroke-linecap:round"
     d="M 284.06233,42.768626 519.25791,454.45937 H 48.866745 Z"
     sodipodi:nodetypes="cccc" /><path
     id="path1287-2"
     style="display:inline;fill:#c0111e;fill-opacity:1;fill-rule:nonzero;stroke:none;stroke-width:0.859147"
     d="M 284.06233,4.5425685e-4 C 277.94091,-0.04336226 271.21873,3.083666 267.92647,8.9396153 L 2.1975383,469.35001 C 0.66396013,472.48418 0.01976039,475.20891 0,478.32676 0,489.21753 8.9379258,497.228 18.874395,497.228 H 549.25027 c 9.93647,0 18.87439,-8.01047 18.87439,-18.90124 -0.0197,-3.11785 -0.66396,-5.84258 -2.19753,-8.97675 L 300.19819,8.9396153 C 296.90594,3.083666 290.18376,-0.04336226 284.06233,4.5425685e-4 Z M 283.78714,91.251306 l 0.27519,0.476559 0.2752,-0.476559 L 487.1272,442.24256 H 80.997471 Z"
     sodipodi:nodetypes="cccccccccccccccc" /><path
     id="rect858"
     style="fill:#000000;stroke-width:13.6592;stroke-linecap:round;fill-opacity:1"
     d="M 314.4668 206.45508 C 304.36758 206.58252 297.77148 219.86915 297.77148 219.86914 C 297.4316 223.94682 290.80469 222.41797 290.80469 222.41797 L 282.98828 216.13086 L 260.75977 216.47266 L 213.5 243.14453 L 209.42188 294.28516 C 208.98496 298.94411 213.76499 304.07251 215.14844 305.45312 L 219.05078 346.67383 L 207.29102 412.70703 L 163.60156 412.70703 C 160.68367 412.70703 158.33594 415.05672 158.33594 417.97461 C 158.33594 420.8925 160.68367 423.24023 163.60156 423.24023 L 404.52344 423.24023 C 407.44133 423.24023 409.78906 420.8925 409.78906 417.97461 C 409.78906 415.05672 407.44133 412.70703 404.52344 412.70703 L 403.10352 412.70703 C 403.10352 412.70703 390.60638 410.58807 379.91406 387.76172 L 369.94336 378.39258 L 362.49414 369.74219 C 362.49414 369.74219 347.35667 354.96365 329.57617 372.74414 C 329.57617 372.74414 327.54386 374.28436 324.43359 376.85156 L 285.36719 329.28711 C 285.36719 329.28711 282.30904 324.69862 285.19727 319.60156 L 301.33789 283.24219 C 316.79891 271.34908 308.47461 253.33789 308.47461 253.33789 C 304.05718 242.46421 309.49256 241.10538 312.89062 240.5957 C 316.28863 241.27527 336.5086 232.78083 326.6543 212.73242 C 322.23158 208.08404 318.11972 206.40899 314.4668 206.45508 z M 252.69531 242.05469 C 253.94834 242.01749 254.6564 242.59305 256.01562 244.88672 L 252.41211 251.98633 L 246.63086 252.36328 C 246.37601 249.81473 248.93622 242.16621 252.69531 242.05469 z M 272.59375 291.23438 C 273.32931 291.22328 273.12994 291.25521 274.19336 291.41016 C 274.70393 299.00892 272.18164 299.54883 272.18164 299.54883 C 272.18164 299.54883 266.59531 301.2041 268.75781 292.97461 C 269.305 292.02945 269.04961 291.28874 272.59375 291.23438 z M 247.93945 332.3457 C 249.07209 332.4102 250.393 333.03729 251.5 334.30664 C 258.38102 342.71677 258.60034 350.45472 256.64648 355.63672 C 255.20232 359.54446 238.47249 383.23648 238.64062 404.24805 C 239.06537 407.47618 233.4745 408.06776 232.625 403.14062 C 231.69053 398.29843 242.01982 365.06433 244.39844 355.80469 C 244.39844 355.80469 250.60338 347.3907 245.75 336.37109 C 244.6931 333.6972 246.05172 332.23822 247.93945 332.3457 z M 286.81055 354.0332 L 291.85352 354.34375 C 293.33546 354.68575 308.04037 367.56037 313.33984 386.63086 C 305.37172 394.14838 296.53033 403.71094 291.97461 412.70703 L 272.12305 412.70703 C 268.0129 409.86895 262.78723 404.8389 266.38281 399.05469 L 286.81055 354.0332 z " /></svg>
