<?xml version="1.0" encoding="UTF-8" standalone="no"?>
<!-- Created with Inkscape (http://www.inkscape.org/) -->

<svg
   width="158.77646mm"
   height="164.46381mm"
   viewBox="0 0 158.77646 164.46381"
   version="1.1"
   id="svg34056"
   inkscape:version="1.2.2 (732a01da63, 2022-12-09)"
   sodipodi:docname="drawing-15.svg"
   xmlns:inkscape="http://www.inkscape.org/namespaces/inkscape"
   xmlns:sodipodi="http://sodipodi.sourceforge.net/DTD/sodipodi-0.dtd"
   xmlns="http://www.w3.org/2000/svg"
   xmlns:svg="http://www.w3.org/2000/svg">
  <sodipodi:namedview
     id="namedview34058"
     pagecolor="#ffffff"
     bordercolor="#000000"
     borderopacity="0.25"
     inkscape:showpageshadow="2"
     inkscape:pageopacity="0.0"
     inkscape:pagecheckerboard="0"
     inkscape:deskcolor="#d1d1d1"
     inkscape:document-units="px"
     showgrid="false"
     inkscape:zoom="1.0129245"
     inkscape:cx="416.61545"
     inkscape:cy="293.70402"
     inkscape:window-width="1920"
     inkscape:window-height="991"
     inkscape:window-x="-9"
     inkscape:window-y="-9"
     inkscape:window-maximized="1"
     inkscape:current-layer="layer1" />
  <defs
     id="defs34053" />
  <g
     inkscape:label="Layer 1"
     inkscape:groupmode="layer"
     id="layer1"
     transform="translate(-74.304362,-113.30054)">
    <path
       sodipodi:nodetypes="ccccc"
       id="path38837-8"
       d="M 74.317591,113.31377 V 277.75112 H 233.06759 V 113.31377 Z"
       style="color:#000000;font-style:normal;font-variant:normal;font-weight:normal;font-stretch:normal;font-size:medium;line-height:normal;font-family:sans-serif;font-variant-ligatures:normal;font-variant-position:normal;font-variant-caps:normal;font-variant-numeric:normal;font-variant-alternates:normal;font-variant-east-asian:normal;font-feature-settings:normal;font-variation-settings:normal;text-indent:0;text-align:start;text-decoration:none;text-decoration-line:none;text-decoration-style:solid;text-decoration-color:#000000;letter-spacing:normal;word-spacing:normal;text-transform:none;writing-mode:lr-tb;direction:ltr;text-orientation:mixed;dominant-baseline:auto;baseline-shift:baseline;text-anchor:start;white-space:normal;shape-padding:0;shape-margin:0;inline-size:0;clip-rule:nonzero;display:inline;overflow:visible;visibility:visible;isolation:auto;mix-blend-mode:normal;color-interpolation:sRGB;color-interpolation-filters:linearRGB;solid-color:#000000;solid-opacity:1;fill:#01553b;fill-opacity:1;fill-rule:nonzero;stroke:none;stroke-width:0.0264583;stroke-linecap:butt;stroke-linejoin:miter;stroke-miterlimit:4;stroke-dasharray:none;stroke-dashoffset:0;stroke-opacity:1;color-rendering:auto;image-rendering:auto;shape-rendering:auto;text-rendering:auto;enable-background:accumulate;stop-color:#000000" />
    <path
       sodipodi:nodetypes="ssssssssssssssssss"
       id="path38839-5"
       d="m 80.072728,114.84829 c -2.317689,0 -4.219934,1.90223 -4.219934,4.22019 v 152.93 c 0,2.31854 1.902245,4.21873 4.219934,4.21873 H 227.31127 c 2.31992,0 4.21908,-1.90026 4.21908,-4.2185 V 119.06844 c 0,-2.31764 -1.89923,-4.22015 -4.21908,-4.22015 z m 0,1.83461 H 227.31127 c 1.329,0 2.38435,1.05722 2.38435,2.38554 v 152.93027 c 0,1.32772 -1.05535,2.38384 -2.38435,2.38384 H 80.072728 c -1.32862,0 -2.385278,-1.05638 -2.385278,-2.38407 v -152.93 c 0,-1.32859 1.056658,-2.38558 2.385278,-2.38558 z"
       style="color:#000000;font-style:normal;font-variant:normal;font-weight:normal;font-stretch:normal;font-size:medium;line-height:normal;font-family:sans-serif;font-variant-ligatures:normal;font-variant-position:normal;font-variant-caps:normal;font-variant-numeric:normal;font-variant-alternates:normal;font-variant-east-asian:normal;font-feature-settings:normal;font-variation-settings:normal;text-indent:0;text-align:start;text-decoration:none;text-decoration-line:none;text-decoration-style:solid;text-decoration-color:#000000;letter-spacing:normal;word-spacing:normal;text-transform:none;writing-mode:lr-tb;direction:ltr;text-orientation:mixed;dominant-baseline:auto;baseline-shift:baseline;text-anchor:start;white-space:normal;shape-padding:0;shape-margin:0;inline-size:0;clip-rule:nonzero;display:inline;overflow:visible;visibility:visible;isolation:auto;mix-blend-mode:normal;color-interpolation:sRGB;color-interpolation-filters:linearRGB;solid-color:#000000;solid-opacity:1;vector-effect:none;fill:#ffffff;fill-opacity:1;fill-rule:nonzero;stroke:none;stroke-width:1.83438;stroke-linecap:butt;stroke-linejoin:miter;stroke-miterlimit:4;stroke-dasharray:none;stroke-dashoffset:0;stroke-opacity:1;color-rendering:auto;image-rendering:auto;shape-rendering:auto;text-rendering:auto;enable-background:accumulate;stop-color:#000000" />
    <path
       id="path38841-8"
       style="color:#000000;font-style:normal;font-variant:normal;font-weight:normal;font-stretch:normal;font-size:medium;line-height:normal;font-family:sans-serif;font-variant-ligatures:normal;font-variant-position:normal;font-variant-caps:normal;font-variant-numeric:normal;font-variant-alternates:normal;font-variant-east-asian:normal;font-feature-settings:normal;font-variation-settings:normal;text-indent:0;text-align:start;text-decoration:none;text-decoration-line:none;text-decoration-style:solid;text-decoration-color:#000000;letter-spacing:normal;word-spacing:normal;text-transform:none;writing-mode:lr-tb;direction:ltr;text-orientation:mixed;dominant-baseline:auto;baseline-shift:baseline;text-anchor:start;white-space:normal;shape-padding:0;shape-margin:0;inline-size:0;clip-rule:nonzero;display:inline;overflow:visible;visibility:visible;isolation:auto;mix-blend-mode:normal;color-interpolation:sRGB;color-interpolation-filters:linearRGB;solid-color:#000000;solid-opacity:1;vector-effect:none;fill:#ffffff;fill-opacity:1;fill-rule:nonzero;stroke:none;stroke-width:1.83438;stroke-linecap:butt;stroke-linejoin:miter;stroke-miterlimit:4;stroke-dasharray:none;stroke-dashoffset:0;stroke-opacity:1;color-rendering:auto;image-rendering:auto;shape-rendering:auto;text-rendering:auto;enable-background:accumulate;stop-color:#000000"
       d="m 75.852611,168.18143 v 1.83496 H 231.53009 v -1.83496 z"
       sodipodi:nodetypes="ccccc" />
    <path
       id="path38909-2"
       style="color:#000000;font-style:normal;font-variant:normal;font-weight:normal;font-stretch:normal;font-size:medium;line-height:normal;font-family:sans-serif;font-variant-ligatures:normal;font-variant-position:normal;font-variant-caps:normal;font-variant-numeric:normal;font-variant-alternates:normal;font-variant-east-asian:normal;font-feature-settings:normal;font-variation-settings:normal;text-indent:0;text-align:start;text-decoration:none;text-decoration-line:none;text-decoration-style:solid;text-decoration-color:#000000;letter-spacing:normal;word-spacing:normal;text-transform:none;writing-mode:lr-tb;direction:ltr;text-orientation:mixed;dominant-baseline:auto;baseline-shift:baseline;text-anchor:start;white-space:normal;shape-padding:0;shape-margin:0;inline-size:0;clip-rule:nonzero;display:inline;overflow:visible;visibility:visible;isolation:auto;mix-blend-mode:normal;color-interpolation:sRGB;color-interpolation-filters:linearRGB;solid-color:#000000;solid-opacity:1;vector-effect:none;fill:#ffffff;fill-opacity:1;fill-rule:nonzero;stroke:none;stroke-width:1.83438;stroke-linecap:butt;stroke-linejoin:miter;stroke-miterlimit:4;stroke-dasharray:none;stroke-dashoffset:0;stroke-opacity:1;color-rendering:auto;image-rendering:auto;shape-rendering:auto;text-rendering:auto;enable-background:accumulate;stop-color:#000000"
       d="m 75.852611,221.31796 v 1.83494 H 231.53009 v -1.83494 z"
       sodipodi:nodetypes="ccccc" />
    <g
       aria-label="ריינה נצרת"
       id="text25551-7-7-9"
       style="font-size:11.2381px;font-family:'Heb Tamrurim';-inkscape-font-specification:'Heb Tamrurim';text-align:end;letter-spacing:0.82975px;text-anchor:end;fill:#ffffff;stroke-width:0.936497">
      <path
         d="m 182.04576,124.21775 -0.008,1.53777 3.06237,-0.002 0.004,6.16798 1.55845,-0.004 -0.002,-6.14542 q 0.002,-0.0357 0,-0.0733 -0.13912,-1.36105 -1.50205,-1.47573 l -3.11313,-0.006 z"
         id="path36463" />
      <path
         d="m 177.38662,124.22527 -0.009,1.54529 1.16742,-0.004 -0.002,2.33297 1.53965,0.006 0.002,-3.88014 h -2.69768 z"
         id="path36465" />
      <path
         d="m 172.72561,124.22527 -0.009,1.54529 1.16742,-0.004 -0.002,2.33297 1.53965,0.006 0.002,-3.88014 h -2.69767 z"
         id="path36467" />
      <path
         d="m 168.03827,124.22339 0.002,1.53777 1.16179,0.009 0.004,4.5945 -1.92879,0.004 0.004,1.55468 1.98518,0.002 q 0.0226,0 0.047,-0.002 1.38362,-0.19551 1.44753,-1.59228 l 0.002,-6.10595 -2.72399,-0.002 z"
         id="path36469" />
      <path
         d="m 159.93516,124.22339 -0.002,1.54153 3.84065,0.002 -0.004,6.15482 1.55281,-0.002 -0.002,-7.69259 -5.38594,-0.004 z m -0.004,3.46656 v 4.23167 l 1.53964,-0.006 -0.002,-4.23167 -1.53776,0.006 z"
         id="path36471" />
      <path
         d="m 150.20332,124.22339 0.002,1.53777 1.16178,0.009 0.004,4.5945 -1.92879,0.004 0.004,1.55468 1.98519,0.002 q 0.0226,0 0.047,-0.002 1.38361,-0.19551 1.44753,-1.59228 l 0.002,-6.10595 -2.72399,-0.002 z"
         id="path36473" />
      <path
         d="m 141.19784,124.24971 0.004,0.008 4.28432,6.13979 -4.16964,0.002 -0.006,1.53964 6.16986,-0.004 0.002,-1.52084 -1.66748,-2.35177 0.35719,0.002 1.31593,-3.81246 -1.65244,0.004 -0.90235,2.57548 -1.8254,-2.583 -1.90999,0.002 z"
         id="path36475" />
      <path
         d="m 134.62686,124.21775 -0.008,1.53777 3.06237,-0.002 0.004,6.16798 1.55845,-0.004 -0.002,-6.14542 q 0.002,-0.0357 0,-0.0733 -0.13911,-1.36105 -1.50205,-1.47573 l -3.11313,-0.006 z"
         id="path36477" />
      <path
         d="m 127.42985,124.21963 v 1.55469 h 0.39102 l 0.006,4.6133 -0.55081,-0.004 -0.006,1.54716 2.10174,0.004 0.004,-6.16046 h 1.74455 v 6.15294 l 1.54341,0.002 0.002,-7.70199 -5.23555,-0.008 z"
         id="path36479" />
    </g>
    <g
       aria-label="Reine Nazareth"
       id="text25555-8-7-5"
       style="font-size:11.2381px;font-family:'Heb Tamrurim';-inkscape-font-specification:'Heb Tamrurim';letter-spacing:0.113276px;fill:#ffffff;stroke-width:0.936497">
      <path
         d="m 117.6668,155.74437 h 2.11276 q 0.44953,0 0.75296,-0.236 0.30343,-0.24724 0.30343,-0.80914 0,-0.53943 -0.30343,-0.77543 -0.30343,-0.24724 -0.75296,-0.24724 h -2.11276 z m -1.66324,-3.52876 h 4.3042 q 0.53942,0 0.95523,0.1798 0.42705,0.17981 0.708,0.48324 0.29219,0.30343 0.43829,0.71924 0.15733,0.40457 0.15733,0.86534 0,0.80914 -0.31466,1.2699 -0.31467,0.46076 -0.86534,0.708 0.37086,0.15733 0.56191,0.35962 0.19105,0.20229 0.28095,0.52819 0.0899,0.31467 0.11238,0.78667 0.0225,0.472 0.045,1.16876 0.0112,0.44952 0.11238,0.59562 0.10115,0.14609 0.21353,0.17981 v 0.24724 h -1.86553 q -0.11238,-0.20229 -0.14609,-0.56191 -0.0337,-0.35962 -0.045,-0.75295 -0.0112,-0.39333 -0.0225,-0.74171 -0.0112,-0.34839 -0.0899,-0.5282 -0.1461,-0.3259 -0.40458,-0.46076 -0.24723,-0.14609 -0.67428,-0.14609 h -1.7981 v 3.19162 h -1.66324 z"
         style="font-weight:bold;font-family:Triumvirate;-inkscape-font-specification:'Triumvirate Bold'"
         id="path43089" />
      <path
         d="m 127.57971,156.66589 q -0.0225,-0.20228 -0.0899,-0.40457 -0.0674,-0.20228 -0.20228,-0.35962 -0.13486,-0.15733 -0.34839,-0.25847 -0.20228,-0.10115 -0.50571,-0.10115 -0.29219,0 -0.50571,0.0899 -0.21353,0.0899 -0.35962,0.24724 -0.1461,0.14609 -0.22477,0.34838 -0.0787,0.20228 -0.10114,0.43828 z m 1.59581,1.888 q -0.10115,0.30343 -0.29219,0.65181 -0.19105,0.33715 -0.51696,0.62934 -0.31466,0.28095 -0.78666,0.472 -0.46077,0.17981 -1.10134,0.17981 -1.32609,0 -2.09028,-0.79791 -0.7642,-0.7979 -0.7642,-2.25886 0,-0.78666 0.20229,-1.37104 0.21352,-0.59562 0.58438,-0.98896 0.3821,-0.40457 0.89905,-0.60685 0.52819,-0.20229 1.16876,-0.20229 0.71924,0 1.23619,0.25848 0.51696,0.24723 0.84286,0.71923 0.32591,0.46077 0.48324,1.11258 0.15733,0.65181 0.15733,1.43847 h -4.00076 q 0.0112,0.29219 0.0787,0.55067 0.0787,0.25848 0.22476,0.44952 0.15733,0.19105 0.40457,0.30343 0.25848,0.11238 0.64057,0.11238 0.25848,0 0.42705,-0.0562 0.17981,-0.0674 0.29219,-0.15733 0.12362,-0.10114 0.20228,-0.21352 0.0787,-0.12362 0.13486,-0.22477 z"
         style="font-weight:bold;font-family:Triumvirate;-inkscape-font-specification:'Triumvirate Bold'"
         id="path43091" />
      <path
         d="m 130.53621,152.21561 h 1.57334 v 1.46095 h -1.57334 z m 0,2.22514 h 1.57334 v 5.86629 h -1.57334 z"
         style="font-weight:bold;font-family:Triumvirate;-inkscape-font-specification:'Triumvirate Bold'"
         id="path43093" />
      <path
         d="m 133.8074,154.44075 h 1.5059 v 0.87657 h 0.0225 q 0.15733,-0.31467 0.38209,-0.51695 0.22477,-0.21353 0.472,-0.32591 0.24724,-0.12362 0.49448,-0.16857 0.24724,-0.045 0.44952,-0.045 1.00019,0 1.51715,0.57314 0.52819,0.56191 0.52819,1.50591 v 3.96705 h -1.57334 v -3.58496 q 0,-0.34838 -0.0899,-0.5619 -0.0899,-0.22476 -0.236,-0.34838 -0.13486,-0.13486 -0.32591,-0.17981 -0.19104,-0.045 -0.39333,-0.045 -0.21352,0 -0.42705,0.0787 -0.21352,0.0787 -0.38209,0.28095 -0.16857,0.19105 -0.26972,0.51696 -0.10114,0.3259 -0.10114,0.80914 v 3.03429 h -1.57333 z"
         style="font-weight:bold;font-family:Triumvirate;-inkscape-font-specification:'Triumvirate Bold'"
         id="path43095" />
      <path
         d="m 144.36087,156.66589 q -0.0225,-0.20228 -0.0899,-0.40457 -0.0674,-0.20228 -0.20228,-0.35962 -0.13486,-0.15733 -0.34838,-0.25847 -0.20229,-0.10115 -0.50572,-0.10115 -0.29219,0 -0.50571,0.0899 -0.21353,0.0899 -0.35962,0.24724 -0.1461,0.14609 -0.22476,0.34838 -0.0787,0.20228 -0.10115,0.43828 z m 1.59581,1.888 q -0.10115,0.30343 -0.29219,0.65181 -0.19105,0.33715 -0.51696,0.62934 -0.31466,0.28095 -0.78666,0.472 -0.46076,0.17981 -1.10134,0.17981 -1.32609,0 -2.09028,-0.79791 -0.76419,-0.7979 -0.76419,-2.25886 0,-0.78666 0.20228,-1.37104 0.21353,-0.59562 0.58438,-0.98896 0.3821,-0.40457 0.89905,-0.60685 0.52819,-0.20229 1.16876,-0.20229 0.71924,0 1.23619,0.25848 0.51696,0.24723 0.84286,0.71923 0.32591,0.46077 0.48324,1.11258 0.15733,0.65181 0.15733,1.43847 h -4.00076 q 0.0112,0.29219 0.0787,0.55067 0.0787,0.25848 0.22476,0.44952 0.15733,0.19105 0.40457,0.30343 0.25848,0.11238 0.64057,0.11238 0.25848,0 0.42705,-0.0562 0.17981,-0.0674 0.29219,-0.15733 0.12362,-0.10114 0.20229,-0.21352 0.0787,-0.12362 0.13485,-0.22477 z"
         style="font-weight:bold;font-family:Triumvirate;-inkscape-font-specification:'Triumvirate Bold'"
         id="path43097" />
      <path
         d="m 151.25161,152.21561 h 1.61828 l 3.19162,5.55162 h 0.0225 v -5.55162 h 1.57333 v 8.09143 h -1.61828 l -3.19162,-5.55162 h -0.0225 v 5.55162 h -1.57333 z"
         style="font-weight:bold;font-family:Triumvirate;-inkscape-font-specification:'Triumvirate Bold'"
         id="path43099" />
      <path
         d="m 162.73784,157.40761 q -0.3259,0.19105 -0.69676,0.26971 -0.37086,0.0674 -0.69676,0.15734 -0.31467,0.0787 -0.52819,0.24723 -0.21353,0.16858 -0.21353,0.53943 0,0.25848 0.22477,0.44953 0.22476,0.17981 0.62933,0.17981 0.60686,0 0.944,-0.34839 0.33714,-0.35961 0.33714,-1.0339 z m 0.24724,2.89943 q -0.0899,-0.1461 -0.15733,-0.3821 -0.0562,-0.236 -0.0674,-0.35962 -0.11238,0.13486 -0.26971,0.30343 -0.15734,0.15733 -0.3821,0.29219 -0.21352,0.13486 -0.50571,0.22476 -0.28096,0.10115 -0.66305,0.10115 -0.89905,0 -1.38229,-0.46077 -0.48324,-0.472 -0.48324,-1.37104 0,-0.49448 0.1461,-0.80915 0.15733,-0.3259 0.40457,-0.52819 0.25848,-0.21352 0.57314,-0.3259 0.32591,-0.11238 0.66305,-0.16857 0.34838,-0.0674 0.68552,-0.11238 0.33715,-0.045 0.60686,-0.11239 0.32591,-0.0787 0.44953,-0.15733 0.13485,-0.0787 0.13485,-0.33714 0,-0.31467 -0.24723,-0.46076 -0.23601,-0.1461 -0.66305,-0.1461 -0.33715,0 -0.53943,0.0787 -0.20229,0.0674 -0.32591,0.17981 -0.11238,0.11238 -0.15733,0.25847 -0.045,0.1461 -0.0674,0.29219 h -1.46095 q 0,-0.31466 0.0899,-0.67428 0.10115,-0.35962 0.37086,-0.66305 0.26971,-0.30343 0.75295,-0.50571 0.49448,-0.20229 1.30362,-0.20229 1.31486,0 1.888,0.49448 0.58438,0.48323 0.58438,1.40476 v 2.93314 q 0,0.43829 0.0899,0.64057 0.0899,0.20229 0.24724,0.28096 v 0.29219 z"
         style="font-weight:bold;font-family:Triumvirate;-inkscape-font-specification:'Triumvirate Bold'"
         id="path43101" />
      <path
         d="m 165.24483,159.1158 3.15791,-3.39391 h -2.95562 v -1.28114 h 4.82114 v 1.28114 l -3.07924,3.304 h 3.16915 v 1.28115 h -5.11334 z"
         style="font-weight:bold;font-family:Triumvirate;-inkscape-font-specification:'Triumvirate Bold'"
         id="path43103" />
      <path
         d="m 174.61831,157.40761 q -0.32591,0.19105 -0.69676,0.26971 -0.37086,0.0674 -0.69676,0.15734 -0.31467,0.0787 -0.5282,0.24723 -0.21352,0.16858 -0.21352,0.53943 0,0.25848 0.22476,0.44953 0.22476,0.17981 0.62934,0.17981 0.60685,0 0.944,-0.34839 0.33714,-0.35961 0.33714,-1.0339 z m 0.24724,2.89943 q -0.0899,-0.1461 -0.15734,-0.3821 -0.0562,-0.236 -0.0674,-0.35962 -0.11239,0.13486 -0.26972,0.30343 -0.15733,0.15733 -0.38209,0.29219 -0.21353,0.13486 -0.50572,0.22476 -0.28095,0.10115 -0.66305,0.10115 -0.89904,0 -1.38228,-0.46077 -0.48324,-0.472 -0.48324,-1.37104 0,-0.49448 0.14609,-0.80915 0.15734,-0.3259 0.40458,-0.52819 0.25847,-0.21352 0.57314,-0.3259 0.3259,-0.11238 0.66305,-0.16857 0.34838,-0.0674 0.68552,-0.11238 0.33714,-0.045 0.60686,-0.11239 0.3259,-0.0787 0.44952,-0.15733 0.13486,-0.0787 0.13486,-0.33714 0,-0.31467 -0.24724,-0.46076 -0.236,-0.1461 -0.66305,-0.1461 -0.33714,0 -0.53943,0.0787 -0.20228,0.0674 -0.3259,0.17981 -0.11238,0.11238 -0.15733,0.25847 -0.045,0.1461 -0.0674,0.29219 h -1.46096 q 0,-0.31466 0.0899,-0.67428 0.10114,-0.35962 0.37086,-0.66305 0.26971,-0.30343 0.75295,-0.50571 0.49448,-0.20229 1.30362,-0.20229 1.31486,0 1.888,0.49448 0.58438,0.48323 0.58438,1.40476 v 2.93314 q 0,0.43829 0.0899,0.64057 0.0899,0.20229 0.24723,0.28096 v 0.29219 z"
         style="font-weight:bold;font-family:Triumvirate;-inkscape-font-specification:'Triumvirate Bold'"
         id="path43105" />
      <path
         d="m 177.67597,154.44075 h 1.5059 v 0.96648 h 0.0225 q 0.0674,-0.11239 0.19105,-0.30343 0.12362,-0.19105 0.31466,-0.37086 0.20229,-0.19105 0.46077,-0.32591 0.25847,-0.14609 0.58438,-0.14609 0.0787,0 0.16857,0.0112 0.0899,0 0.16857,0.0112 v 1.59581 q -0.0899,-0.0112 -0.19105,-0.0112 -0.0899,-0.0112 -0.17981,-0.0112 -0.472,0 -0.76419,0.13486 -0.28095,0.12362 -0.43828,0.33714 -0.15734,0.21352 -0.21353,0.48324 -0.0562,0.26971 -0.0562,0.55067 v 2.94438 h -1.57333 z"
         style="font-weight:bold;font-family:Triumvirate;-inkscape-font-specification:'Triumvirate Bold'"
         id="path43107" />
      <path
         d="m 185.52107,156.66589 q -0.0225,-0.20228 -0.0899,-0.40457 -0.0674,-0.20228 -0.20229,-0.35962 -0.13485,-0.15733 -0.34838,-0.25847 -0.20228,-0.10115 -0.50571,-0.10115 -0.29219,0 -0.50572,0.0899 -0.21352,0.0899 -0.35961,0.24724 -0.1461,0.14609 -0.22477,0.34838 -0.0787,0.20228 -0.10114,0.43828 z m 1.59581,1.888 q -0.10115,0.30343 -0.29219,0.65181 -0.19105,0.33715 -0.51696,0.62934 -0.31466,0.28095 -0.78666,0.472 -0.46077,0.17981 -1.10134,0.17981 -1.32609,0 -2.09028,-0.79791 -0.7642,-0.7979 -0.7642,-2.25886 0,-0.78666 0.20229,-1.37104 0.21352,-0.59562 0.58438,-0.98896 0.3821,-0.40457 0.89905,-0.60685 0.52819,-0.20229 1.16876,-0.20229 0.71924,0 1.23619,0.25848 0.51696,0.24723 0.84286,0.71923 0.32591,0.46077 0.48324,1.11258 0.15733,0.65181 0.15733,1.43847 h -4.00076 q 0.0112,0.29219 0.0787,0.55067 0.0787,0.25848 0.22477,0.44952 0.15733,0.19105 0.40457,0.30343 0.25847,0.11238 0.64057,0.11238 0.25848,0 0.42705,-0.0562 0.17981,-0.0674 0.29219,-0.15733 0.12362,-0.10114 0.20228,-0.21352 0.0787,-0.12362 0.13486,-0.22477 z"
         style="font-weight:bold;font-family:Triumvirate;-inkscape-font-specification:'Triumvirate Bold'"
         id="path43109" />
      <path
         d="m 191.25338,160.44189 q -0.15733,0.0225 -0.34838,0.0337 -0.19105,0.0112 -0.31467,0.0112 -0.57314,0 -0.944,-0.0899 -0.35962,-0.0899 -0.5619,-0.29219 -0.20229,-0.21352 -0.28096,-0.53943 -0.0674,-0.33714 -0.0674,-0.82038 v -3.18038 h -0.76419 v -1.12381 h 0.76419 v -1.57333 h 1.57333 v 1.57333 h 0.944 v 1.12381 h -0.944 v 3.12419 q 0,0.20229 0.0225,0.31467 0.0337,0.11238 0.12362,0.16857 0.10114,0.0562 0.28095,0.0674 0.19105,0.0112 0.51695,0.0112 z"
         style="font-weight:bold;font-family:Triumvirate;-inkscape-font-specification:'Triumvirate Bold'"
         id="path43111" />
      <path
         d="m 192.55789,152.21561 h 1.57334 v 3.05676 h 0.0225 q 0.13486,-0.29219 0.34838,-0.48324 0.21353,-0.20229 0.44953,-0.31467 0.236,-0.12362 0.48324,-0.16857 0.24723,-0.045 0.44952,-0.045 1.00019,0 1.51714,0.57314 0.52819,0.56191 0.52819,1.50591 v 3.96705 h -1.57333 v -3.58496 q 0,-0.34838 -0.0899,-0.5619 -0.0899,-0.22476 -0.236,-0.34838 -0.13485,-0.13486 -0.3259,-0.17981 -0.19105,-0.045 -0.39333,-0.045 -0.21353,0 -0.42705,0.0787 -0.21353,0.0787 -0.3821,0.28095 -0.16857,0.19105 -0.26971,0.51696 -0.10114,0.3259 -0.10114,0.80914 v 3.03429 h -1.57334 z"
         style="font-weight:bold;font-family:Triumvirate;-inkscape-font-specification:'Triumvirate Bold'"
         id="path43113" />
    </g>
    <g
       aria-label="נצרת עילית"
       id="text58082-2"
       style="font-size:11.2381px;font-family:'Heb Tamrurim';-inkscape-font-specification:'Heb Tamrurim';text-align:end;letter-spacing:0.82975px;text-anchor:end;fill:#ffffff;stroke-width:0.936497">
      <path
         d="m 182.00906,177.25075 0.002,1.53777 1.16179,0.009 0.004,4.5945 -1.92879,0.004 0.004,1.55468 1.98518,0.002 q 0.0226,0 0.047,-0.002 1.38361,-0.19551 1.44753,-1.59228 l 0.002,-6.10595 -2.72399,-0.002 z"
         id="path36482" />
      <path
         d="m 173.00359,177.27707 0.004,0.008 4.28431,6.13979 -4.16964,0.002 -0.006,1.53964 6.16987,-0.004 0.002,-1.52084 -1.66748,-2.35177 0.35718,0.002 1.31594,-3.81246 -1.65244,0.004 -0.90236,2.57548 -1.82539,-2.583 -1.90999,0.002 z"
         id="path36484" />
      <path
         d="m 166.4326,177.24511 -0.008,1.53777 3.06237,-0.002 0.004,6.16798 1.55844,-0.004 -0.002,-6.14542 q 0.002,-0.0357 0,-0.0733 -0.13911,-1.36105 -1.50204,-1.47573 l -3.11314,-0.006 z"
         id="path36486" />
      <path
         d="m 159.23559,177.24699 v 1.55469 h 0.39102 l 0.006,4.6133 -0.55081,-0.004 -0.006,1.54716 2.10174,0.004 0.004,-6.16046 h 1.74456 v 6.15294 l 1.5434,0.002 0.002,-7.70199 -5.23555,-0.008 z"
         id="path36488" />
      <path
         d="m 146.28535,177.27895 1.22194,6.15295 -1.21442,0.004 0.004,1.52648 h 3.57183 q 1.24262,-0.12783 1.50769,-1.34789 l 0.69556,-6.33342 -1.54528,-0.004 -0.65797,6.15859 -0.76512,-0.002 -1.18999,-6.15671 -1.628,0.002 z"
         id="path36490" />
      <path
         d="m 141.63374,177.25263 -0.009,1.54529 1.16742,-0.004 -0.002,2.33297 1.53965,0.006 0.002,-3.88014 h -2.69767 z"
         id="path36492" />
      <path
         d="m 134.66232,175.72051 v 3.07741 l 3.46467,0.006 v 3.29172 q -0.006,0.22559 -0.0808,0.4399 -0.5527,1.21442 -1.84795,0.89672 l -0.004,1.53776 q 0.27446,0.0526 0.55457,0.0526 2.67699,-0.25755 2.92138,-2.93454 l -0.006,-4.82197 -3.43459,0.004 -0.004,-1.54528 -1.56409,-0.004 z"
         id="path36494" />
      <path
         d="m 130.0107,177.25263 -0.009,1.54529 1.16742,-0.004 -0.002,2.33297 1.53965,0.006 0.002,-3.88014 h -2.69768 z"
         id="path36496" />
      <path
         d="m 122.81181,177.24699 v 1.55469 h 0.39103 l 0.006,4.6133 -0.55082,-0.004 -0.006,1.54716 2.10174,0.004 0.004,-6.16046 h 1.74456 v 6.15294 l 1.5434,0.002 0.002,-7.70199 -5.23555,-0.008 z"
         id="path36498" />
    </g>
    <g
       aria-label="Nazarat lllit"
       id="text58088-1"
       style="font-size:11.2381px;font-family:'Heb Tamrurim';-inkscape-font-specification:'Heb Tamrurim';letter-spacing:0.113276px;fill:#ffffff;stroke-width:0.936497">
      <path
         d="m 123.35567,205.24301 h 1.61829 l 3.19162,5.55162 h 0.0225 v -5.55162 h 1.57333 v 8.09143 h -1.61828 l -3.19162,-5.55162 h -0.0225 v 5.55162 h -1.57334 z"
         style="font-weight:bold;font-family:Triumvirate;-inkscape-font-specification:'Triumvirate Bold'"
         id="path36501" />
      <path
         d="m 134.84191,210.43501 q -0.32591,0.19105 -0.69676,0.26972 -0.37086,0.0674 -0.69677,0.15733 -0.31466,0.0787 -0.52819,0.24724 -0.21352,0.16857 -0.21352,0.53943 0,0.25847 0.22476,0.44952 0.22476,0.17981 0.62934,0.17981 0.60685,0 0.944,-0.34838 0.33714,-0.35962 0.33714,-1.03391 z m 0.24724,2.89943 q -0.0899,-0.14609 -0.15734,-0.38209 -0.0562,-0.236 -0.0674,-0.35962 -0.11239,0.13485 -0.26972,0.30343 -0.15733,0.15733 -0.38209,0.29219 -0.21353,0.13485 -0.50572,0.22476 -0.28095,0.10114 -0.66305,0.10114 -0.89904,0 -1.38228,-0.46076 -0.48324,-0.472 -0.48324,-1.37105 0,-0.49447 0.14609,-0.80914 0.15734,-0.32591 0.40458,-0.52819 0.25847,-0.21353 0.57314,-0.32591 0.3259,-0.11238 0.66305,-0.16857 0.34838,-0.0674 0.68552,-0.11238 0.33714,-0.045 0.60686,-0.11238 0.3259,-0.0787 0.44952,-0.15733 0.13486,-0.0787 0.13486,-0.33715 0,-0.31466 -0.24724,-0.46076 -0.236,-0.14609 -0.66305,-0.14609 -0.33714,0 -0.53943,0.0787 -0.20228,0.0674 -0.3259,0.17981 -0.11238,0.11238 -0.15733,0.25848 -0.045,0.14609 -0.0674,0.29219 h -1.46096 q 0,-0.31467 0.0899,-0.67429 0.10114,-0.35962 0.37086,-0.66305 0.26971,-0.30342 0.75295,-0.50571 0.49448,-0.20229 1.30362,-0.20229 1.31486,0 1.888,0.49448 0.58438,0.48324 0.58438,1.40476 v 2.93315 q 0,0.43828 0.0899,0.64057 0.0899,0.20228 0.24723,0.28095 v 0.29219 z"
         style="font-weight:bold;font-family:Triumvirate;-inkscape-font-specification:'Triumvirate Bold'"
         id="path36503" />
      <path
         d="m 137.3489,212.1432 3.1579,-3.3939 h -2.95562 v -1.28115 h 4.82115 v 1.28115 l -3.07924,3.304 h 3.16914 v 1.28114 h -5.11333 z"
         style="font-weight:bold;font-family:Triumvirate;-inkscape-font-specification:'Triumvirate Bold'"
         id="path36505" />
      <path
         d="m 146.72238,210.43501 q -0.32591,0.19105 -0.69676,0.26972 -0.37086,0.0674 -0.69677,0.15733 -0.31466,0.0787 -0.52819,0.24724 -0.21352,0.16857 -0.21352,0.53943 0,0.25847 0.22476,0.44952 0.22476,0.17981 0.62934,0.17981 0.60685,0 0.944,-0.34838 0.33714,-0.35962 0.33714,-1.03391 z m 0.24724,2.89943 q -0.0899,-0.14609 -0.15734,-0.38209 -0.0562,-0.236 -0.0674,-0.35962 -0.11238,0.13485 -0.26971,0.30343 -0.15733,0.15733 -0.3821,0.29219 -0.21352,0.13485 -0.50571,0.22476 -0.28095,0.10114 -0.66305,0.10114 -0.89905,0 -1.38228,-0.46076 -0.48324,-0.472 -0.48324,-1.37105 0,-0.49447 0.14609,-0.80914 0.15734,-0.32591 0.40457,-0.52819 0.25848,-0.21353 0.57315,-0.32591 0.3259,-0.11238 0.66305,-0.16857 0.34838,-0.0674 0.68552,-0.11238 0.33714,-0.045 0.60686,-0.11238 0.3259,-0.0787 0.44952,-0.15733 0.13486,-0.0787 0.13486,-0.33715 0,-0.31466 -0.24724,-0.46076 -0.236,-0.14609 -0.66305,-0.14609 -0.33714,0 -0.53943,0.0787 -0.20228,0.0674 -0.3259,0.17981 -0.11238,0.11238 -0.15733,0.25848 -0.045,0.14609 -0.0674,0.29219 h -1.46096 q 0,-0.31467 0.0899,-0.67429 0.10114,-0.35962 0.37086,-0.66305 0.26971,-0.30342 0.75295,-0.50571 0.49447,-0.20229 1.30362,-0.20229 1.31486,0 1.888,0.49448 0.58438,0.48324 0.58438,1.40476 v 2.93315 q 0,0.43828 0.0899,0.64057 0.0899,0.20228 0.24724,0.28095 v 0.29219 z"
         style="font-weight:bold;font-family:Triumvirate;-inkscape-font-specification:'Triumvirate Bold'"
         id="path36507" />
      <path
         d="m 149.78003,207.46815 h 1.50591 v 0.96648 h 0.0225 q 0.0674,-0.11238 0.19105,-0.30343 0.12362,-0.19105 0.31467,-0.37086 0.20229,-0.19104 0.46076,-0.3259 0.25848,-0.1461 0.58438,-0.1461 0.0787,0 0.16857,0.0112 0.0899,0 0.16858,0.0112 v 1.59581 q -0.0899,-0.0112 -0.19105,-0.0112 -0.0899,-0.0112 -0.17981,-0.0112 -0.472,0 -0.76419,0.13486 -0.28095,0.12362 -0.43829,0.33714 -0.15733,0.21353 -0.21352,0.48324 -0.0562,0.26972 -0.0562,0.55067 v 2.94438 h -1.57334 z"
         style="font-weight:bold;font-family:Triumvirate;-inkscape-font-specification:'Triumvirate Bold'"
         id="path36509" />
      <path
         d="m 157.35542,210.43501 q -0.32591,0.19105 -0.69676,0.26972 -0.37086,0.0674 -0.69677,0.15733 -0.31466,0.0787 -0.52819,0.24724 -0.21352,0.16857 -0.21352,0.53943 0,0.25847 0.22476,0.44952 0.22476,0.17981 0.62933,0.17981 0.60686,0 0.944,-0.34838 0.33715,-0.35962 0.33715,-1.03391 z m 0.24724,2.89943 q -0.0899,-0.14609 -0.15734,-0.38209 -0.0562,-0.236 -0.0674,-0.35962 -0.11238,0.13485 -0.26971,0.30343 -0.15733,0.15733 -0.3821,0.29219 -0.21352,0.13485 -0.50571,0.22476 -0.28095,0.10114 -0.66305,0.10114 -0.89905,0 -1.38228,-0.46076 -0.48324,-0.472 -0.48324,-1.37105 0,-0.49447 0.14609,-0.80914 0.15734,-0.32591 0.40457,-0.52819 0.25848,-0.21353 0.57315,-0.32591 0.3259,-0.11238 0.66305,-0.16857 0.34838,-0.0674 0.68552,-0.11238 0.33714,-0.045 0.60686,-0.11238 0.3259,-0.0787 0.44952,-0.15733 0.13486,-0.0787 0.13486,-0.33715 0,-0.31466 -0.24724,-0.46076 -0.236,-0.14609 -0.66305,-0.14609 -0.33714,0 -0.53943,0.0787 -0.20228,0.0674 -0.3259,0.17981 -0.11238,0.11238 -0.15734,0.25848 -0.045,0.14609 -0.0674,0.29219 h -1.46096 q 0,-0.31467 0.0899,-0.67429 0.10114,-0.35962 0.37086,-0.66305 0.26971,-0.30342 0.75295,-0.50571 0.49447,-0.20229 1.30362,-0.20229 1.31486,0 1.888,0.49448 0.58438,0.48324 0.58438,1.40476 v 2.93315 q 0,0.43828 0.0899,0.64057 0.0899,0.20228 0.24724,0.28095 v 0.29219 z"
         style="font-weight:bold;font-family:Triumvirate;-inkscape-font-specification:'Triumvirate Bold'"
         id="path36511" />
      <path
         d="m 163.15517,213.4693 q -0.15734,0.0225 -0.34838,0.0337 -0.19105,0.0112 -0.31467,0.0112 -0.57314,0 -0.944,-0.0899 -0.35962,-0.0899 -0.56191,-0.29219 -0.20228,-0.21353 -0.28095,-0.53943 -0.0674,-0.33715 -0.0674,-0.82038 v -3.18039 h -0.76419 v -1.12381 h 0.76419 v -1.57333 h 1.57334 v 1.57333 h 0.944 v 1.12381 h -0.944 v 3.1242 q 0,0.20228 0.0225,0.31466 0.0337,0.11238 0.12362,0.16857 0.10115,0.0562 0.28095,0.0674 0.19105,0.0112 0.51696,0.0112 z"
         style="font-weight:bold;font-family:Triumvirate;-inkscape-font-specification:'Triumvirate Bold'"
         id="path36513" />
      <path
         d="m 168.304,205.24301 h 1.57333 v 8.09143 H 168.304 Z"
         style="font-weight:bold;font-family:Triumvirate;-inkscape-font-specification:'Triumvirate Bold'"
         id="path36515" />
      <path
         d="m 171.54147,205.24301 h 1.57333 v 8.09143 h -1.57333 z"
         style="font-weight:bold;font-family:Triumvirate;-inkscape-font-specification:'Triumvirate Bold'"
         id="path36517" />
      <path
         d="m 174.77893,205.24301 h 1.57334 v 8.09143 h -1.57334 z"
         style="font-weight:bold;font-family:Triumvirate;-inkscape-font-specification:'Triumvirate Bold'"
         id="path36519" />
      <path
         d="m 178.0164,205.24301 h 1.57334 v 1.46095 h -1.57334 z m 0,2.22514 h 1.57334 v 5.86629 h -1.57334 z"
         style="font-weight:bold;font-family:Triumvirate;-inkscape-font-specification:'Triumvirate Bold'"
         id="path36521" />
      <path
         d="m 184.02968,213.4693 q -0.15733,0.0225 -0.34838,0.0337 -0.19105,0.0112 -0.31467,0.0112 -0.57314,0 -0.944,-0.0899 -0.35962,-0.0899 -0.5619,-0.29219 -0.20229,-0.21353 -0.28096,-0.53943 -0.0674,-0.33715 -0.0674,-0.82038 v -3.18039 h -0.76419 v -1.12381 h 0.76419 v -1.57333 h 1.57334 v 1.57333 h 0.944 v 1.12381 h -0.944 v 3.1242 q 0,0.20228 0.0225,0.31466 0.0337,0.11238 0.12362,0.16857 0.10115,0.0562 0.28096,0.0674 0.19104,0.0112 0.51695,0.0112 z"
         style="font-weight:bold;font-family:Triumvirate;-inkscape-font-specification:'Triumvirate Bold'"
         id="path36523" />
    </g>
    <g
       id="g12525"
       transform="matrix(2.3244703,0,0,2.3244703,-4.2248665,969.73692)">
      <path
         id="rect7087-6-0-2"
         style="fill:#ffffff;stroke:none;stroke-width:0.0169976"
         d="m 86.616389,-337.39702 h 8.60081 c 0.847513,0 1.529794,0.68229 1.529794,1.52979 v 5.43926 c 0,0.8475 -0.682281,1.52979 -1.529794,1.52979 h -8.60081 c -0.847514,0 -1.529795,-0.68229 -1.529795,-1.52979 v -5.43926 c 0,-0.8475 0.682281,-1.52979 1.529795,-1.52979 z" />
      <path
         id="rect7162-0-4-3-7"
         d="m 86.616415,-336.88708 c -0.564965,0 -1.019863,0.45488 -1.019863,1.01987 v 5.43924 c 0,0.56498 0.454898,1.01986 1.019863,1.01986 h 8.60081 c 0.564992,0 1.019863,-0.45488 1.019863,-1.01986 v -5.43924 c 0,-0.56499 -0.454871,-1.01987 -1.019863,-1.01987 z m 4.300405,0.6289 4.164489,0.50996 0.509878,2.60063 -0.509878,2.60062 -4.164489,0.50995 -4.198382,-0.50995 -0.475932,-2.60062 0.475932,-2.60063 z"
         style="fill:#000000;fill-opacity:1;fill-rule:nonzero;stroke:none;stroke-width:0.00849881;stroke-linejoin:miter;stroke-miterlimit:4;stroke-dasharray:none;stroke-opacity:1" />
    </g>
    <g
       aria-label="vphj"
       id="text58206-2"
       style="font-size:11.2381px;font-family:'Heb Tamrurim';-inkscape-font-specification:'Heb Tamrurim';text-align:end;letter-spacing:0.82975px;text-anchor:end;fill:#ffffff;stroke-width:0.936497">
      <path
         d="m 140.93723,230.61831 -0.002,1.54152 3.84065,0.002 -0.004,6.15483 1.55281,-0.002 -0.002,-7.69259 -5.38594,-0.004 z m -0.004,3.46655 v 4.23168 l 1.53964,-0.006 -0.002,-4.23168 -1.53776,0.006 z"
         id="path36526" />
      <path
         d="m 148.29026,230.61455 0.006,4.38395 2.29725,0.004 0.006,-1.56033 -0.77641,0.002 0.004,-1.29338 2.69955,0.002 0.006,4.61518 -4.25235,0.004 v 1.54341 h 4.27491 q 0.0545,0.002 0.10716,-0.002 1.33097,-0.19551 1.38737,-1.53965 l -0.006,-6.15858 h -5.75252 z"
         id="path36528" />
      <path
         d="m 156.01363,230.62019 -0.009,1.54528 1.16742,-0.004 -0.002,2.33297 1.53965,0.006 0.002,-3.88013 h -2.69767 z"
         id="path36530" />
      <path
         d="m 160.66524,230.63711 v 1.55092 l 0.61098,-0.006 0.004,6.13603 1.57536,0.006 -0.006,-6.13603 2.02654,-0.004 -0.002,6.14167 1.57725,-0.002 -0.006,-7.68695 h -5.78073 z"
         id="path36532" />
    </g>
    <g
       aria-label="Haifa"
       id="text58212-5"
       style="font-size:11.2381px;font-family:'Heb Tamrurim';-inkscape-font-specification:'Heb Tamrurim';letter-spacing:0.113276px;fill:#ffffff;stroke-width:0.936497">
      <path
         d="m 140.37935,258.61056 h 1.66324 v 3.05677 h 3.12419 v -3.05677 h 1.66324 v 8.09144 h -1.66324 v -3.57372 h -3.12419 v 3.57372 h -1.66324 z"
         style="font-weight:bold;font-family:Triumvirate;-inkscape-font-specification:'Triumvirate Bold'"
         id="path36535" />
      <path
         d="m 151.88806,263.80257 q -0.32591,0.19104 -0.69676,0.26971 -0.37086,0.0674 -0.69677,0.15733 -0.31466,0.0787 -0.52819,0.24724 -0.21352,0.16857 -0.21352,0.53943 0,0.25848 0.22476,0.44952 0.22476,0.17981 0.62934,0.17981 0.60685,0 0.944,-0.34838 0.33714,-0.35962 0.33714,-1.0339 z m 0.24724,2.89943 q -0.0899,-0.1461 -0.15734,-0.3821 -0.0562,-0.236 -0.0674,-0.35962 -0.11239,0.13486 -0.26972,0.30343 -0.15733,0.15733 -0.38209,0.29219 -0.21353,0.13486 -0.50572,0.22476 -0.28095,0.10115 -0.66305,0.10115 -0.89904,0 -1.38228,-0.46077 -0.48324,-0.472 -0.48324,-1.37104 0,-0.49448 0.14609,-0.80915 0.15734,-0.3259 0.40458,-0.52819 0.25847,-0.21352 0.57314,-0.3259 0.3259,-0.11238 0.66305,-0.16858 0.34838,-0.0674 0.68552,-0.11238 0.33714,-0.0449 0.60686,-0.11238 0.3259,-0.0787 0.44952,-0.15733 0.13486,-0.0787 0.13486,-0.33714 0,-0.31467 -0.24724,-0.46077 -0.236,-0.14609 -0.66305,-0.14609 -0.33714,0 -0.53943,0.0787 -0.20228,0.0674 -0.3259,0.17981 -0.11238,0.11238 -0.15733,0.25847 -0.045,0.1461 -0.0674,0.29219 h -1.46096 q 0,-0.31466 0.0899,-0.67428 0.10114,-0.35962 0.37086,-0.66305 0.26971,-0.30343 0.75295,-0.50572 0.49448,-0.20228 1.30362,-0.20228 1.31486,0 1.888,0.49447 0.58438,0.48324 0.58438,1.40477 v 2.93314 q 0,0.43829 0.0899,0.64057 0.0899,0.20229 0.24723,0.28096 v 0.29219 z"
         style="font-weight:bold;font-family:Triumvirate;-inkscape-font-specification:'Triumvirate Bold'"
         id="path36537" />
      <path
         d="m 154.912,258.61056 h 1.57333 v 1.46096 H 154.912 Z m 0,2.22515 h 1.57333 V 266.702 H 154.912 Z"
         style="font-weight:bold;font-family:Triumvirate;-inkscape-font-specification:'Triumvirate Bold'"
         id="path36539" />
      <path
         d="m 158.47537,261.95952 h -0.80914 v -1.12381 h 0.80914 v -0.59562 q 0,-0.29219 0.0562,-0.58438 0.0674,-0.30343 0.25848,-0.53943 0.19105,-0.24724 0.52819,-0.39334 0.34838,-0.15733 0.91029,-0.15733 0.22476,0 0.40457,0.0112 0.19105,0 0.33714,0.0112 v 1.28114 q -0.0787,-0.0112 -0.19105,-0.0112 -0.11238,-0.0112 -0.22476,-0.0112 -0.34838,0 -0.42705,0.12362 -0.0787,0.11238 -0.0787,0.37086 v 0.49448 h 0.98895 v 1.12381 h -0.98895 v 4.74248 h -1.57334 z"
         style="font-weight:bold;font-family:Triumvirate;-inkscape-font-specification:'Triumvirate Bold'"
         id="path36541" />
      <path
         d="m 165.14044,263.80257 q -0.3259,0.19104 -0.69676,0.26971 -0.37086,0.0674 -0.69676,0.15733 -0.31467,0.0787 -0.52819,0.24724 -0.21352,0.16857 -0.21352,0.53943 0,0.25848 0.22476,0.44952 0.22476,0.17981 0.62933,0.17981 0.60686,0 0.944,-0.34838 0.33714,-0.35962 0.33714,-1.0339 z m 0.24724,2.89943 q -0.0899,-0.1461 -0.15733,-0.3821 -0.0562,-0.236 -0.0674,-0.35962 -0.11238,0.13486 -0.26971,0.30343 -0.15734,0.15733 -0.3821,0.29219 -0.21352,0.13486 -0.50571,0.22476 -0.28096,0.10115 -0.66305,0.10115 -0.89905,0 -1.38229,-0.46077 -0.48324,-0.472 -0.48324,-1.37104 0,-0.49448 0.1461,-0.80915 0.15733,-0.3259 0.40457,-0.52819 0.25848,-0.21352 0.57314,-0.3259 0.32591,-0.11238 0.66305,-0.16858 0.34838,-0.0674 0.68553,-0.11238 0.33714,-0.0449 0.60685,-0.11238 0.32591,-0.0787 0.44953,-0.15733 0.13485,-0.0787 0.13485,-0.33714 0,-0.31467 -0.24723,-0.46077 -0.236,-0.14609 -0.66305,-0.14609 -0.33714,0 -0.53943,0.0787 -0.20229,0.0674 -0.32591,0.17981 -0.11238,0.11238 -0.15733,0.25847 -0.045,0.1461 -0.0674,0.29219 h -1.46095 q 0,-0.31466 0.0899,-0.67428 0.10115,-0.35962 0.37086,-0.66305 0.26972,-0.30343 0.75295,-0.50572 0.49448,-0.20228 1.30362,-0.20228 1.31486,0 1.888,0.49447 0.58439,0.48324 0.58439,1.40477 v 2.93314 q 0,0.43829 0.0899,0.64057 0.0899,0.20229 0.24724,0.28096 v 0.29219 z"
         style="font-weight:bold;font-family:Triumvirate;-inkscape-font-specification:'Triumvirate Bold'"
         id="path36543" />
    </g>
    <g
       id="g24476"
       transform="matrix(2.3244703,0,0,2.3244703,-134.20389,969.73692)"
       style="fill:#ffffff">
      <g
         id="use22005"
         transform="matrix(0.28631964,0,0,0.28631964,136.81617,-332.2258)"
         style="fill:#ffffff;fill-opacity:1">
        <path
           d="m 3.828125,-7.109375 1.25,3.5 c 0.019531,0.074219 0.039063,0.144531 0.0625,0.203125 0.019531,0.054687 0.03125,0.089844 0.03125,0.109375 0,0.074219 -0.011719,0.148437 -0.03125,0.21875 -0.011719,0.0625 -0.035156,0.132812 -0.0625,0.203125 L 4.125,-0.546875 C 4.039063,-0.359375 3.929688,-0.214844 3.796875,-0.125 3.671875,-0.0390625 3.511719,0 3.328125,0 H 0 V -3.390625 H 3.28125 L 2.625,-5.34375 Z M 1.671875,-10.03125 3.34375,-8.859375 2.25,-7.25 0.546875,-8.453125 Z m 0,0"
           id="path23841"
           style="fill:#ffffff" />
      </g>
      <g
         id="use22009"
         transform="matrix(0.28631964,0,0,0.28631964,122.55172,-332.2258)"
         style="fill:#ffffff;fill-opacity:1">
        <path
           d="m 10.9375,-7.109375 1.265625,3.5 c 0.02734,0.0625 0.05078,0.128906 0.0625,0.1875 0.0078,0.054687 0.01563,0.097656 0.01563,0.125 0,0.074219 -0.01172,0.148437 -0.03125,0.21875 -0.01172,0.0625 -0.03516,0.132812 -0.0625,0.203125 l -0.953125,2.328125 c -0.08594,0.1875 -0.191406,0.332031 -0.3125,0.421875 C 10.796875,-0.0390625 10.632813,0 10.4375,0 H 3.5625 C 2.644531,0 1.917969,-0.273438 1.390625,-0.828125 0.867188,-1.386719 0.609375,-2.15625 0.609375,-3.125 c 0,-0.527344 0.097656,-1.007813 0.296875,-1.4375 0.195313,-0.433594 0.492188,-0.820313 0.890625,-1.15625 h 0.625 c -0.167969,0.167969 -0.300781,0.355469 -0.390625,0.5625 -0.085937,0.199219 -0.125,0.414062 -0.125,0.640625 0,0.40625 0.117188,0.699219 0.359375,0.875 0.238281,0.167969 0.632813,0.25 1.1875,0.25 h 6.9375 L 9.734375,-5.34375 Z M 7.09375,-9.15625 8.625,-8.140625 7.671875,-6.71875 6.140625,-7.75 Z m -2.75,0 L 5.875,-8.140625 4.90625,-6.71875 3.390625,-7.75 Z m 0,0"
           id="path23845"
           style="fill:#ffffff" />
      </g>
      <g
         id="use22011"
         transform="matrix(0.28631964,0,0,0.28631964,126.24525,-332.2258)"
         style="fill:#ffffff;fill-opacity:1">
        <path
           d="M 3.328125,-11.453125 V -3.09375 L 2.015625,0 h -0.5 v -10.109375 z m 0,0"
           id="path23849"
           style="fill:#ffffff" />
      </g>
      <g
         id="use22013"
         transform="matrix(0.28631964,0,0,0.28631964,127.65565,-332.2258)"
         style="fill:#ffffff;fill-opacity:1">
        <path
           d="M 5.578125,-6.21875 6.3125,-4.390625 c 0.175781,0.429687 0.347656,0.707031 0.515625,0.828125 0.164063,0.117187 0.414063,0.171875 0.75,0.171875 H 7.84375 V 0 C 7.507813,-0.0273438 7.257813,-0.140625 7.09375,-0.328125 6.9375,-0.511719 6.859375,-0.785156 6.859375,-1.140625 h -0.21875 c 0,1.894531 -0.316406,3.394531 -0.9375,4.5 -0.625,1.101563 -1.460937,1.65625 -2.5,1.65625 C 2.734375,5.015625 2.226563,4.882813 1.6875,4.625 1.144531,4.363281 0.582031,3.976563 0,3.46875 V 3.0625 C 0.269531,3.089844 0.476563,3.109375 0.625,3.109375 0.777344,3.117188 0.925781,3.125 1.0625,3.125 c 1.289063,0 2.382813,-0.382812 3.28125,-1.140625 0.894531,-0.75 1.34375,-1.679687 1.34375,-2.78125 0,-0.613281 -0.121094,-1.226563 -0.359375,-1.84375 C 5.085938,-3.261719 4.742188,-3.84375 4.296875,-4.375 Z m 0,0"
           id="path23853"
           style="fill:#ffffff" />
      </g>
      <g
         id="use22015"
         transform="matrix(0.28631964,0,0,0.28631964,129.90613,-332.2258)"
         style="fill:#ffffff;fill-opacity:1">
        <path
           d="M 0,-3.390625 H 4.546875 V 0 H 0 Z m 0,0"
           id="path23857"
           style="fill:#ffffff" />
      </g>
      <g
         id="use22017"
         transform="matrix(0.28631964,0,0,0.28631964,131.21346,-332.2258)"
         style="fill:#ffffff;fill-opacity:1">
        <path
           d="m 4.125,-5.140625 v 1.75 h 1.859375 c 0.300781,0 0.507813,-0.050781 0.625,-0.15625 0.113281,-0.101563 0.171875,-0.289063 0.171875,-0.5625 v -0.34375 l 1.453125,-0.6875 v 1.75 h 1.796875 c 0.300781,0 0.507813,-0.050781 0.625,-0.15625 0.121094,-0.101563 0.1875,-0.289063 0.1875,-0.5625 v -0.34375 l 1.4375,-0.6875 v 0.53125 c 0,0.523437 0.05469,0.855469 0.171875,1 0.121094,0.148437 0.347656,0.21875 0.671875,0.21875 h 0.328125 V 0 H 12.625 L 11.578125,-1 10.53125,0 h -2 L 7.484375,-1 6.4375,0 H 4.453125 L 3.40625,-1 2.359375,0 H 0 v -3.390625 h 1.875 c 0.300781,0 0.507813,-0.050781 0.625,-0.15625 0.121094,-0.101563 0.1875,-0.289063 0.1875,-0.5625 v -0.34375 z m 0,0"
           id="path23861"
           style="fill:#ffffff" />
      </g>
      <g
         id="use22019"
         transform="matrix(0.28631964,0,0,0.28631964,135.0616,-332.2258)"
         style="fill:#ffffff;fill-opacity:1">
        <path
           d="m 4.25,-6.953125 0.546875,2.8125 c 0.039063,0.292969 0.125,0.492187 0.25,0.59375 0.132813,0.105469 0.359375,0.15625 0.671875,0.15625 H 6.125 V 0 H 5.5625 C 5.125,0 4.722656,-0.191406 4.359375,-0.578125 3.992188,-0.972656 3.761719,-1.476563 3.671875,-2.09375 H 3.5 L 2.90625,-0.75 C 2.757813,-0.4375 2.605469,-0.230469 2.453125,-0.140625 2.304688,-0.046875 2.039063,0 1.65625,0 H 0 v -3.390625 h 3.21875 l -0.3125,-1.59375 z m 0.078125,-3.46875 1.53125,1.03125 L 4.890625,-7.96875 3.359375,-9 Z m -2.765625,0 1.53125,1.03125 L 2.140625,-7.96875 0.609375,-9 Z m 0,0"
           id="path23865"
           style="fill:#ffffff" />
      </g>
      <g
         id="use22027"
         transform="matrix(0.28631964,0,0,0.28631964,118.15385,-332.2258)"
         style="fill:#ffffff;fill-opacity:1">
        <path
           d="m 8.65625,-6.34375 v 0.328125 c -0.4375,-0.113281 -0.851562,-0.195313 -1.234375,-0.25 -0.375,-0.058594 -0.738281,-0.09375 -1.078125,-0.09375 -0.375,0 -0.738281,0.054687 -1.078125,0.15625 -0.34375,0.09375 -0.707031,0.253906 -1.078125,0.46875 0.164063,0.4375 0.421875,0.847656 0.765625,1.21875 0.339844,0.375 0.816406,0.753906 1.421875,1.125 h 1.421875 c 0.507813,0 0.976563,-0.023438 1.40625,-0.078125 0.425781,-0.058594 0.84375,-0.15625 1.25,-0.28125 l -2.125,3.390625 c -0.40625,0.125 -0.847656,0.222656 -1.3125,0.28125 C 6.546875,-0.0234375 5.992188,0 5.359375,0 H 0 v -3.390625 h 3.046875 l -0.8125,-2.125 c 0.351563,-0.894531 0.8125,-1.585938 1.375,-2.078125 0.558594,-0.488281 1.171875,-0.734375 1.828125,-0.734375 0.558594,0 1.125,0.179687 1.6875,0.53125 0.570313,0.34375 1.082031,0.832031 1.53125,1.453125 z m 0,0"
           id="path23869"
           style="fill:#ffffff" />
      </g>
      <g
         id="use22031"
         transform="matrix(0.28631964,0,0,0.28631964,116.40157,-332.2258)"
         style="fill:#ffffff;fill-opacity:1">
        <path
           d="M 4.03125,1.078125 5.5625,2.125 4.609375,3.53125 3.078125,2.5 Z m -2.75,0 L 2.796875,2.125 1.859375,3.53125 0.328125,2.5 Z m 2.96875,-8.03125 0.546875,2.8125 c 0.039063,0.292969 0.125,0.492187 0.25,0.59375 0.132813,0.105469 0.359375,0.15625 0.671875,0.15625 H 6.4735035 V 0 H 5.5625 C 5.125,0 4.722656,-0.191406 4.359375,-0.578125 3.992188,-0.972656 3.761719,-1.476563 3.671875,-2.09375 H 3.5 L 2.90625,-0.75 C 2.757813,-0.4375 2.605469,-0.230469 2.453125,-0.140625 2.304688,-0.046875 2.039063,0 1.65625,0 H 0 v -3.390625 h 3.21875 l -0.3125,-1.59375 z"
           id="path23873"
           style="fill:#ffffff"
           sodipodi:nodetypes="cccccccccccccsccscccccsccccc" />
      </g>
      <g
         id="use22035"
         transform="matrix(0.28631964,0,0,0.28631964,114.80391,-332.2258)"
         style="fill:#ffffff;fill-opacity:1">
        <path
           d="M 4.609375,-11.453125 V -4.25 c 0,0.3125 0.050781,0.539062 0.15625,0.671875 0.113281,0.125 0.289063,0.1875 0.53125,0.1875 h 0.3125 V 0 H 5.03125 C 4.601563,0 4.207031,-0.195313 3.84375,-0.59375 3.488281,-0.988281 3.261719,-1.488281 3.171875,-2.09375 H 3 L 2.390625,-0.75 C 2.253906,-0.445313 2.113281,-0.242188 1.96875,-0.140625 1.820313,-0.046875 1.550781,0 1.15625,0 H 0 v -3.390625 h 2.765625 v -6.71875 z m 0,0"
           id="path23877"
           style="fill:#ffffff" />
      </g>
      <g
         id="use22039"
         transform="matrix(0.28631964,0,0,0.28631964,113.05164,-332.2258)"
         style="fill:#ffffff;fill-opacity:1">
        <path
           d="M 4.03125,1.078125 5.5625,2.125 4.609375,3.53125 3.078125,2.5 Z m -2.75,0 L 2.796875,2.125 1.859375,3.53125 0.328125,2.5 Z m 2.96875,-8.03125 0.546875,2.8125 c 0.039063,0.292969 0.125,0.492187 0.25,0.59375 0.132813,0.105469 0.359375,0.15625 0.671875,0.15625 H 6.473259 V 0 H 5.5625 C 5.125,0 4.722656,-0.191406 4.359375,-0.578125 3.992188,-0.972656 3.761719,-1.476563 3.671875,-2.09375 H 3.5 L 2.90625,-0.75 C 2.757813,-0.4375 2.605469,-0.230469 2.453125,-0.140625 2.304688,-0.046875 2.039063,0 1.65625,0 H 0 v -3.390625 h 3.21875 l -0.3125,-1.59375 z"
           id="path23881"
           style="fill:#ffffff"
           sodipodi:nodetypes="cccccccccccccsccscccccsccccc" />
      </g>
      <g
         id="use22043"
         transform="matrix(0.28631964,0,0,0.28631964,109.23786,-332.2258)"
         style="fill:#ffffff;fill-opacity:1">
        <path
           d="m 11.421875,-6.953125 0.546875,2.8125 c 0.05078,0.292969 0.140625,0.492187 0.265625,0.59375 0.121094,0.105469 0.347656,0.15625 0.671875,0.15625 h 0.740041 V 0 H 12.75 C 12.300781,0 11.894531,-0.191406 11.53125,-0.578125 11.175781,-0.972656 10.949219,-1.476563 10.859375,-2.09375 h -0.15625 l -0.625,1.34375 C 9.941406,-0.445313 9.800781,-0.242188 9.65625,-0.140625 9.507813,-0.046875 9.238281,0 8.84375,0 H 3.5625 C 2.644531,0 1.917969,-0.273438 1.390625,-0.828125 0.867188,-1.386719 0.609375,-2.15625 0.609375,-3.125 c 0,-0.527344 0.097656,-1.007813 0.296875,-1.4375 0.195313,-0.433594 0.492188,-0.820313 0.890625,-1.15625 h 0.625 c -0.167969,0.167969 -0.300781,0.355469 -0.390625,0.5625 -0.085937,0.199219 -0.125,0.414062 -0.125,0.640625 0,0.40625 0.117188,0.699219 0.359375,0.875 0.238281,0.167969 0.632813,0.25 1.1875,0.25 h 6.953125 l -0.328125,-1.59375 z M 7.328125,-9.15625 8.859375,-8.140625 7.90625,-6.71875 6.375,-7.75 Z m -2.75,0 L 6.09375,-8.140625 5.15625,-6.71875 3.625,-7.75 Z"
           id="path23885"
           style="fill:#ffffff"
           sodipodi:nodetypes="cccsccscccccsscsccccscsccccccccccccc" />
      </g>
    </g>
    <path
       id="path8717"
       style="color:#000000;fill:#ffffff;stroke-width:0.445301;-inkscape-stroke:none;paint-order:stroke fill markers"
       d="m 211.8916,129.48153 c -0.0937,0.009 -0.17899,0.0416 -0.25911,0.11343 -0.0314,0.0209 -0.0521,0.0416 -0.073,0.073 v 0.0311 l -5.88289,9.72254 c -0.14876,0.21036 -0.13737,0.51719 0.0311,0.70971 0.10414,0.11552 0.24765,0.182 0.3871,0.15062 h 0.0521 l 4.09221,-1.27443 v 1.34435 0.22059 c 0,0.11437 -0.001,0.22687 0.0312,0.33924 -1.7043,0.51096 -3.10017,1.79788 -3.76429,3.43619 -0.36004,0.21432 -0.77526,0.34447 -1.22607,0.34447 h -4.58169 v 0.81168 h 5.21085 c 0.48389,0 0.90845,-0.25288 1.14529,-0.63479 h 0.0314 c 0.52236,-1.54382 1.77007,-2.76624 3.32879,-3.25347 0,0.0209 0.0314,0.0311 0.0314,0.0416 0.25913,0.87307 0.76798,1.6354 1.44654,2.20485 -1.15059,0.0116 -2.13793,0.76589 -2.47903,1.82294 -0.23935,0.46411 -0.61605,0.87514 -1.0703,1.18848 -0.21757,0.14877 -0.44537,0.27575 -0.68781,0.37671 -0.0521,0.0209 -0.10716,0.0416 -0.16736,0.0623 -0.24247,0.0832 -0.49014,0.14877 -0.73677,0.17782 -0.11878,0.0116 -0.23723,0.0314 -0.36006,0.0314 h -5.67861 v 0.7638 h 5.67861 c 0.4891,0 0.95011,-0.0937 1.38227,-0.26847 0,-0.009 0.0311,-0.0116 0.0416,-0.0209 0.0416,-0.0209 0.0832,-0.0311 0.11878,-0.0521 0.37982,-0.16644 0.72737,-0.39128 1.0323,-0.66183 0.0311,-0.0209 0.0521,-0.0521 0.083,-0.073 0.54009,-0.48598 0.93344,-1.10545 1.16684,-1.80149 0.36422,-0.5734 0.99794,-0.93972 1.69942,-0.94072 0.55776,-1.1e-4 1.06435,0.22571 1.43055,0.59105 0.0521,0.0416 0.0832,0.0937 0.12901,0.14458 0.0416,0.0521 0.0832,0.10414 0.11878,0.15597 0.21757,0.32259 0.34444,0.71073 0.34444,1.1293 0,0.0416 -0.002,0.083 0,0.11878 0,0.0416 0,0.0832 -0.0311,0.11878 h 0.0311 c -0.0832,0.74199 -0.57961,1.38187 -1.29064,1.65095 v 0.005 c -1.52702,0.54528 -2.61352,2.00163 -2.61352,3.72134 v 3.2802 h 3.57076 v -2.24783 c 0,-0.436 0.11552,-0.84808 0.3174,-1.19908 1.77341,-0.66394 3.16189,-2.1784 3.64066,-4.0278 0.32884,-0.17177 0.69827,-0.27368 1.09692,-0.27368 h 4.5872 v -0.81168 h -5.21637 c -0.10506,0 -0.20385,0.0116 -0.30071,0.0314 0,-0.1218 0.0314,-0.24244 0.0314,-0.36524 0,-0.58066 -0.0832,-1.13999 -0.25286,-1.67237 h 5.75418 v -0.769 h -5.61952 c -0.14342,0 -0.28512,0.0116 -0.42459,0.0314 -0.50157,-1.06884 -1.31988,-1.97166 -2.32847,-2.57584 -0.60978,-0.43289 -1.00522,-1.14352 -1.00522,-1.95207 v -0.47868 l 3.96339,1.18848 c 0.15411,0.0521 0.32261,-0.005 0.43602,-0.13412 0.0832,-0.0937 0.1239,-0.22687 0.12901,-0.35485 0,-0.12901 -0.0314,-0.256 -0.1039,-0.36006 l -5.88289,-9.66343 c 0,0 0.002,-0.0311 -0.0314,-0.0311 v -0.0311 c -0.10716,-0.13853 -0.26431,-0.20827 -0.41415,-0.19362 z" />
    <g
       id="g12535"
       transform="matrix(2.3244703,0,0,2.3244703,-114.48573,916.82389)">
      <path
         id="path12527"
         style="fill:#ffffff;stroke:none;stroke-width:0.0169976"
         d="m 86.616389,-337.39702 h 8.60081 c 0.847513,0 1.529794,0.68229 1.529794,1.52979 v 5.43926 c 0,0.8475 -0.682281,1.52979 -1.529794,1.52979 h -8.60081 c -0.847514,0 -1.529795,-0.68229 -1.529795,-1.52979 v -5.43926 c 0,-0.8475 0.682281,-1.52979 1.529795,-1.52979 z" />
      <path
         id="path12529"
         d="m 86.616415,-336.88708 c -0.564965,0 -1.019863,0.45488 -1.019863,1.01987 v 5.43924 c 0,0.56498 0.454898,1.01986 1.019863,1.01986 h 8.60081 c 0.564992,0 1.019863,-0.45488 1.019863,-1.01986 v -5.43924 c 0,-0.56499 -0.454871,-1.01987 -1.019863,-1.01987 z m 4.300405,0.6289 4.164489,0.50996 0.509878,2.60063 -0.509878,2.60062 -4.164489,0.50995 -4.198382,-0.50995 -0.475932,-2.60062 0.475932,-2.60063 z"
         style="fill:#01553b;fill-opacity:1;fill-rule:nonzero;stroke:none;stroke-width:0.00849881;stroke-linejoin:miter;stroke-miterlimit:4;stroke-dasharray:none;stroke-opacity:1" />
    </g>
    <g
       aria-label="754"
       id="text16922-4"
       style="font-size:11.6701px;font-family:'Heb Tamrurim';-inkscape-font-specification:'Heb Tamrurim';fill:#01553b;stroke-width:0.972505">
      <path
         d="m 87.459669,138.45841 0.0078,1.61249 3.398736,0.002 q -1.815522,2.93022 -1.708153,6.37581 l 1.641779,-0.004 q -0.11713,-3.42411 1.909227,-6.18839 l 0.002,-1.79405 -5.25135,-0.004 z"
         id="path36555" />
      <path
         d="m 94.354746,138.47988 -0.240117,4.10347 1.573453,0.50366 q 0.234261,-0.24988 0.568082,-0.32016 0.966327,-0.10346 1.24744,0.82773 0.101513,0.96437 -0.827722,1.24548 -1.126405,0.25964 -2.20791,-0.14446 l -0.589556,1.47975 q 1.528552,0.56223 3.119575,0.2206 0.08199,-0.0156 0.16203,-0.0371 2.285997,-0.83944 1.885801,-3.24257 -0.841387,-2.28599 -3.242562,-1.8858 l 0.09175,-1.14202 2.844319,-0.002 0.002,-1.61055 -4.386537,0.004 z"
         id="path36557" />
      <path
         d="m 103.99459,138.4545 -3.68961,4.82382 -0.004,1.61055 3.56662,0.008 0.002,1.56564 1.63397,-0.002 0.002,-1.56955 0.73011,0.002 -0.002,-1.61249 -0.72816,-0.002 0.004,-4.82382 h -1.51489 z m -0.12884,2.84822 0.006,1.95999 -1.51099,-0.004 1.50513,-1.95608 z"
         id="path36559" />
    </g>
    <g
       aria-label="6400"
       id="text16922-4-2"
       style="font-size:9.02355px;font-family:'Heb Tamrurim';-inkscape-font-specification:'Heb Tamrurim';stroke-width:0.751962">
      <path
         d="m 200.90693,192.20327 q -3.31175,0.8151 -3.54723,4.21743 0,0.0408 0.002,0.0815 0.23095,1.81739 2.0589,1.92909 1.81739,-0.23095 1.92758,-2.06042 -0.23095,-1.81588 -2.0589,-1.92758 0.79699,-0.9268 2.0106,-1.07775 l -0.39246,-1.16228 z m -1.5955,3.46571 q 0.70341,0.0332 0.80303,0.73058 -0.0332,0.70492 -0.73058,0.80304 -0.32,0.0106 -0.55699,-0.20227 -0.47095,-0.52529 -0.0423,-1.0853 0.21434,-0.22642 0.5268,-0.24605 z"
         id="path36546" />
      <path
         d="m 205.10775,192.21534 -2.85288,3.72988 -0.003,1.2453 2.75778,0.006 0.002,1.21058 1.26342,-0.001 0.002,-1.21361 0.56453,0.002 -0.002,-1.24681 -0.56302,-0.002 0.003,-3.72988 h -1.17134 z m -0.0996,2.2023 0.005,1.5155 -1.16832,-0.003 1.16379,-1.51248 z"
         id="path36548" />
      <path
         d="m 207.7478,194.26217 -0.005,2.20683 q 0.0136,0.85586 0.62642,1.45512 0.5902,0.54491 1.39474,0.56303 1.88079,-0.1585 2.07551,-2.03777 l 0.009,-2.16759 q -0.0196,-0.81209 -0.58114,-1.40078 -0.59171,-0.59623 -1.43248,-0.62491 -1.87475,0.13887 -2.08758,2.00607 z m 1.26492,0 q 0.11472,-0.717 0.84077,-0.73813 0.34567,0.0287 0.56756,0.29586 0.15547,0.19774 0.15698,0.44831 l -0.002,2.20532 q -0.0891,0.72454 -0.81661,0.77133 -0.32756,-0.0136 -0.55549,-0.24906 -0.19472,-0.21132 -0.19774,-0.49812 l 0.006,-2.23551 z"
         id="path36550" />
      <path
         d="m 212.75618,194.26217 -0.005,2.20683 q 0.0136,0.85586 0.62643,1.45512 0.59019,0.54491 1.39474,0.56303 1.88078,-0.1585 2.0755,-2.03777 l 0.009,-2.16759 q -0.0196,-0.81209 -0.58114,-1.40078 -0.59171,-0.59623 -1.43248,-0.62491 -1.87475,0.13887 -2.08758,2.00607 z m 1.26493,0 q 0.11471,-0.717 0.84076,-0.73813 0.34567,0.0287 0.56756,0.29586 0.15548,0.19774 0.15699,0.44831 l -0.002,2.20532 q -0.0891,0.72454 -0.81662,0.77133 -0.32755,-0.0136 -0.55548,-0.24906 -0.19472,-0.21132 -0.19774,-0.49812 l 0.006,-2.23551 z"
         id="path36552" />
    </g>
    <path
       id="path74082-9-7"
       style="color:#000000;fill:#ffffff;stroke-width:0.447051;-inkscape-stroke:none;paint-order:stroke fill markers"
       d="m 108.78904,194.97557 h -3.25724 -0.13621 c -0.59056,-1.65232 -1.91239,-2.98492 -3.56214,-3.58126 v -3.39819 h -0.83051 v 3.16967 c -0.35903,-0.0734 -0.72693,-0.11064 -1.104816,-0.11064 -0.304366,0 -0.605966,0.0235 -0.899012,0.0735 v -3.10491 h -0.758149 v 3.30677 c -1.605721,0.49392 -2.932645,1.67924 -3.630567,3.19245 -0.356062,0.20757 -0.771678,0.32733 -1.215396,0.32733 h -0.479887 l 1.196242,-3.98103 c 0.0516,-0.1562 7.67e-4,-0.32133 -0.136214,-0.43421 -0.09739,-0.0839 -0.225706,-0.12157 -0.353877,-0.12529 -0.129008,0 -0.261084,0.03 -0.365662,0.10251 l -9.69955,5.90883 c 0,0 -0.02999,0.0235 -0.02999,0.0235 h -0.03696 c -0.221754,0.17387 -0.261084,0.46446 -0.07578,0.67454 0.02348,0.0235 0.04416,0.0442 0.07578,0.0662 0.02999,0.002 0.02999,0 0.02999,0 l 9.764263,5.91252 c 0.210829,0.1483 0.519008,0.13552 0.712148,-0.03 0.114829,-0.10205 0.175497,-0.24242 0.144582,-0.38482 v -0.0516 l -1.280109,-4.11064 h 1.573317 c 1.608371,0 2.983946,-0.95064 3.607904,-2.32015 0.317708,-0.74548 1.048847,-1.23102 1.859041,-1.23434 1.121002,4.7e-4 2.030752,0.9098 2.030542,2.03061 0,0.84904 -0.53079,1.60974 -1.32574,1.90486 0,0.002 -0.0235,0.002 -0.0235,0 -1.519897,0.55513 -2.598126,2.00932 -2.598126,3.72589 v 3.29919 h 3.584916 v -2.26301 c 0,-0.43716 0.11297,-0.84383 0.31634,-1.19631 1.59416,-0.59641 2.87709,-1.88068 3.4745,-3.47425 0.35608,-0.21083 0.76914,-0.33911 1.21523,-0.33911 h 2.2096 v -0.80757 h -2.83437 c -0.0997,0 -0.19967,0.0235 -0.29337,0.037 0.0442,-0.2897 0.0663,-0.58684 0.0663,-0.88769 0,-0.39589 -0.0444,-0.7791 -0.1246,-1.15436 h 3.18485 z" />
    <path
       id="path59918-0-8"
       style="color:#000000;fill:#ffffff;stroke-width:0.445647;-inkscape-stroke:none;paint-order:stroke fill markers"
       d="m 201.95314,237.44302 v 5.55567 10e-4 c -0.22664,0.0649 -0.44972,0.15039 -0.66615,0.24495 -1.40786,0.61689 -2.54123,1.77839 -3.11732,3.20675 -0.35772,0.21269 -0.77761,0.33437 -1.22474,0.33437 h -4.58574 v 0.81262 h 5.21572 c 0.48472,0 0.90851,-0.25402 1.14568,-0.63637 v 0 c 0.59616,-1.76207 2.13519,-3.10501 4.00509,-3.41579 v -0.001 c 0,-0.026 0,-0.039 0,-0.0648 0,-0.002 0,-0.007 0,-0.007 0,-0.0391 0,-0.0776 0,-0.10344 0,-0.0391 0,-0.0776 0,-0.11669 v -5.79762 z m 2.77488,0 v 4.66919 0.54692 c 0,0.0391 0,0.0776 0,0.11669 0,0.002 -3.7e-4,0.002 0,0.005 0,0.0391 0,0.0779 0,0.10344 0.0649,0.38751 0.29551,0.71796 0.61561,0.91756 v -0.007 0.0139 c 0.0391,0.007 0.0391,0.014 0.0518,0.026 v 0.005 c 0.0518,0.026 0.10344,0.0391 0.15434,0.0649 0.0649,0.026 0.13738,0.0649 0.20618,0.0907 0.0907,0.0391 0.1855,0.0907 0.27478,0.14133 0.53784,0.30585 1.01477,0.70634 1.41007,1.17809 0.0391,0.026 0.0391,0.0391 0.0518,0.0648 0.33567,0.41601 0.60394,0.88906 0.79706,1.39594 h -0.47822 c -0.75298,0 -1.41488,0.37844 -1.80681,0.95517 -0.36415,-1.05624 -1.35612,-1.77453 -2.48293,-1.77685 -1.15991,0.005 -2.15383,0.76075 -2.49704,1.82429 -0.23716,0.46397 -0.61561,0.87349 -1.07181,1.18715 -0.21664,0.149 -0.44841,0.27476 -0.69078,0.37585 -0.0518,0.026 -0.11646,0.0391 -0.16853,0.0649 -0.23974,0.0779 -0.48988,0.14784 -0.73486,0.1762 -0.11669,0.0139 -0.23974,0.026 -0.36154,0.026 h -5.67583 v 0.76338 h 5.67583 c 0.48988,0 0.95514,-0.0907 1.3874,-0.26827 0,-0.007 0.039,-0.009 0.0518,-0.0139 0.0391,-0.0139 0.0776,-0.0391 0.11669,-0.0518 0.37972,-0.16713 0.72837,-0.39005 1.0342,-0.66096 0.0391,-0.026 0.0518,-0.0518 0.0907,-0.0776 0.54042,-0.486 0.93444,-1.10552 1.1677,-1.80223 0.36418,-0.57417 0.99664,-0.94092 1.69807,-0.94092 1.11717,-1.2e-4 2.02176,0.90459 2.02176,2.02166 0,0.83462 -0.5132,1.58389 -1.29211,1.88519 v 0.001 0.001 c -1.53798,0.54172 -2.63497,2.00093 -2.63497,3.72841 v 3.28594 h 3.57483 v -2.25416 c 0,-0.43674 0.11669,-0.84369 0.31885,-1.19492 1.29793,-0.48469 2.38658,-1.42792 3.06727,-2.62181 0.43029,-0.63507 1.15348,-1.05499 1.9824,-1.05499 h 0.47824 l -1.19106,3.96843 c -0.0518,0.15551 0,0.32011 0.13715,0.43287 0.0906,0.0779 0.22291,0.1297 0.35253,0.13226 0.1297,0.005 0.25662,-0.026 0.36159,-0.10344 l 9.66989,-5.88716 v -0.002 -0.007 -0.001 c 0,-0.007 0.0391,-0.0139 0.0391,-0.026 l 0.0391,-0.002 c 0.22292,-0.17248 0.25662,-0.46264 0.0776,-0.67134 -0.0391,-0.0258 -0.0391,-0.0518 -0.0776,-0.0649 v -0.001 -10e-4 c -0.0391,-0.002 -0.0391,-0.007 -0.0391,-0.009 l -9.733,-5.89274 c -0.10344,-0.0776 -0.23328,-0.10344 -0.36159,-0.10344 -0.12971,0.007 -0.25402,0.0518 -0.3486,0.13227 -0.11669,0.10344 -0.17899,0.24493 -0.14389,0.38618 v 0.0518 l 1.27528,4.09892 h -1.56535 -0.48602 c -0.16853,-0.49636 -0.39788,-0.96551 -0.68556,-1.39593 v 0 c -0.55213,-0.845 -1.32441,-1.53487 -2.23449,-1.98578 -0.0391,-0.0139 -0.0649,-0.0391 -0.10344,-0.0518 0,-0.002 -0.0391,-0.007 -0.0391,-0.009 -0.0518,-0.026 -0.10344,-0.0518 -0.16457,-0.0776 -0.0391,-0.026 -0.0391,-0.0649 -0.0518,-0.0907 -0.10344,-0.19061 -0.27475,-0.36936 -0.27475,-0.59618 v -0.46266 0 c 0,-0.026 0,-0.0649 0,-0.0776 v -4.58586 z" />
    <path
       id="path12861"
       style="fill:#ffffff;stroke:none;stroke-width:0.0395104"
       d="m 86.851498,239.3165 h 19.992332 c 1.97001,0 3.55596,1.58596 3.55596,3.55595 v 12.6434 c 0,1.96998 -1.58595,3.55595 -3.55596,3.55595 H 86.851498 c -1.970022,0 -3.555963,-1.58597 -3.555963,-3.55595 v -12.6434 c 0,-1.96999 1.585941,-3.55595 3.555963,-3.55595 z" />
    <path
       id="path12863"
       d="m 86.851558,240.50184 c -1.313244,0 -2.370641,1.05735 -2.370641,2.37065 v 12.64336 c 0,1.31327 1.057397,2.37063 2.370641,2.37063 h 19.992332 c 1.3133,0 2.37064,-1.05736 2.37064,-2.37063 v -12.64336 c 0,-1.3133 -1.05734,-2.37065 -2.37064,-2.37065 z m 9.996164,1.46186 9.680228,1.18538 1.1852,6.04509 -1.1852,6.04506 -9.680228,1.18537 -9.759015,-1.18537 -1.106289,-6.04506 1.106289,-6.04509 z"
       style="fill:#ff0000;fill-opacity:1;fill-rule:nonzero;stroke:none;stroke-width:0.0197552;stroke-linejoin:miter;stroke-miterlimit:4;stroke-dasharray:none;stroke-opacity:1" />
    <path
       id="text12962"
       style="font-style:normal;font-variant:normal;font-weight:normal;font-stretch:normal;font-size:5.02053px;font-family:'Heb Tamrurim';-inkscape-font-specification:'Heb Tamrurim';letter-spacing:0.0873125px;fill:#ff0000;fill-opacity:1;stroke-width:0.972505"
       d="m 90.90145,245.21977 0.0072,1.61323 3.399405,0.001 c -1.210342,1.95347 -1.779689,4.07894 -1.708109,6.37598 l 1.642043,-0.005 c -0.07808,-2.28272 0.557813,-4.34576 1.908713,-6.1886 l 0.0023,-1.79458 z m 9.32734,0.0311 c -1.592965,0.12227 -2.47776,0.97691 -2.653456,2.56338 0.122337,1.59296 0.978007,2.47775 2.565776,2.65346 -0.709293,0.76654 -1.582678,1.20988 -2.618627,1.33092 l 0.461261,1.54596 c 2.843656,-0.60778 4.443516,-2.35425 4.798806,-5.24085 0.007,-0.0665 0.01,-0.13412 0.0109,-0.20176 -0.12234,-1.59166 -0.97681,-2.47535 -2.56457,-2.65106 z m -0.0624,1.5868 c 0.62209,0.0481 0.96766,0.38231 1.03663,1.0018 -0.0482,0.62338 -0.38221,0.96896 -1.003,1.03665 -0.27851,0.001 -0.52,-0.0934 -0.724325,-0.2847 -0.407354,-0.47243 -0.416761,-0.95341 -0.02764,-1.44143 0.197812,-0.20037 0.437207,-0.30451 0.718325,-0.31232 z" />
    <g
       id="g12954"
       transform="matrix(1.7716578,0,0,1.7716578,-71.413021,789.4669)">
      <path
         id="path126514-3-6"
         style="fill:#ffffff;stroke-width:0.189896"
         d="m 120.29515,-308.31797 -0.69744,0.5076 v 2.83644 c 0,0.33454 0.067,0.5859 0.20196,0.75354 0.13427,0.16838 0.33573,0.25223 0.60499,0.25223 h 0.15754 v -1.28448 h -0.26705 z m 3.99529,1.3886 c -0.24926,0 -0.47839,0.15533 -0.68538,0.46317 -0.20767,0.30857 -0.34869,0.7136 -0.42137,1.21356 h -0.89043 -0.006 -1.72429 v 1.28448 h 1.72429 0.006 1.24629 l 0.40347,-0.42412 0.40081,0.42412 h 1.13409 0.003 1.72699 v 0 h 0.62876 c 0.14758,0 0.25003,-0.0178 0.30564,-0.0534 0.0549,-0.0349 0.11039,-0.11336 0.16603,-0.23427 l 0.23159,-0.50716 h 0.0624 c 0.0334,0.23144 0.11933,0.42284 0.25807,0.57268 0.14018,0.14836 0.29385,0.22216 0.46001,0.22216 h 0.2105 v -1.28448 h -0.15126 c -0.11719,0 -0.20106,-0.0208 -0.2522,-0.0624 -0.0497,-0.0408 -0.0839,-0.11671 -0.10099,-0.22575 l -0.20781,-1.06816 -0.5103,0.74771 0.12478,0.60858 h -1.22521 v 0 h -1.72699 -0.003 -0.43709 c 0.01,-0.0549 0.0164,-0.11134 0.0212,-0.1692 0.005,-0.0571 0.009,-0.1166 0.009,-0.17817 0,-0.38721 -0.075,-0.70627 -0.22259,-0.95551 -0.14835,-0.24849 -0.33457,-0.37385 -0.55785,-0.37385 z m -0.11581,0.97929 c 0.10012,0.0475 0.18257,0.10558 0.24638,0.17234 0.0645,0.0675 0.11565,0.14905 0.15124,0.24325 -0.0475,0.0593 -0.10816,0.10833 -0.18087,0.14542 -0.0712,0.0356 -0.17616,0.0672 -0.31192,0.0947 -0.10901,-0.0527 -0.19103,-0.10469 -0.24593,-0.1544 -0.0534,-0.049 -0.0928,-0.10753 -0.11578,-0.17503 0.0645,-0.0927 0.13343,-0.1644 0.20463,-0.21632 0.0727,-0.0527 0.15732,-0.0899 0.25225,-0.10996 z m 3.51637,2.39168 -0.35907,0.54305 0.57854,0.38552 0.36219,-0.53093 z m 1.04751,0 -0.36219,0.54305 0.58166,0.38552 0.36216,-0.53093 z" />
      <path
         d="m 134.5209,-305.91735 -0.50729,0.90477 c -0.04,-0.004 -0.10305,-0.006 -0.18983,-0.006 -0.2158,0 -0.45313,0.043 -0.71195,0.12756 -0.25733,0.0831 -0.63851,0.25437 -1.14207,0.5132 -0.0177,0.008 -0.046,0.0223 -0.0831,0.0415 -0.46871,0.24547 -0.98263,0.36784 -1.53958,0.36784 h -0.81577 v -1.28448 h 1.93707 c 0.31221,0 0.53769,-0.0156 0.67638,-0.0475 0.1379,-0.0334 0.26104,-0.086 0.36783,-0.15722 -0.18616,-0.0586 -0.46504,-0.18689 -0.83656,-0.38268 -0.37005,-0.19504 -0.66818,-0.29367 -0.89289,-0.29367 -0.11716,0 -0.21209,0.023 -0.28477,0.0682 -0.0734,0.0438 -0.13277,0.11718 -0.17799,0.21952 h -0.12459 c 0.0251,-0.33595 0.11716,-0.60071 0.27588,-0.79501 0.15946,-0.19504 0.36338,-0.29368 0.61108,-0.29368 0.17947,0 0.50504,0.1194 0.97597,0.35598 0.21138,0.10679 0.37748,0.18836 0.49837,0.24325 0.28996,0.13645 0.58438,0.24176 0.88104,0.31444 0.29591,0.0734 0.56806,0.10976 0.81576,0.10976 h 0.16317 c 0.0393,-0.002 0.0741,-0.004 0.10382,-0.006 z"
         id="path26973-1-3"
         style="fill:#ffffff;fill-opacity:1;stroke-width:0.189852"
         sodipodi:nodetypes="ccscccsccsccssccccscccscsc" />
      <g
         id="use26794-8-3"
         transform="matrix(0.37883099,0,0,0.37883099,120.03887,-303.96816)"
         style="fill:#ffffff;fill-opacity:1">
        <path
           d="M 9.8125,-11.46875 11.5,-10.296875 10.390625,-8.703125 8.703125,-9.875 Z"
           id="path27419-6-6"
           sodipodi:nodetypes="ccccc"
           style="fill:#ffffff" />
      </g>
      <g
         id="use26796-0-4"
         transform="matrix(0.37883099,0,0,0.37883099,125.44857,-303.96816)"
         style="fill:#ffffff;fill-opacity:1" />
    </g>
    <g
       id="g30201"
       transform="matrix(0.94234799,0,0,0.94234799,51.046398,389.46949)"
       style="fill:#ffffff">
      <g
         id="use21875"
         transform="matrix(0.35277777,0,0,0.35277777,139.33259,-259.91001)"
         style="fill:#ffffff;fill-opacity:1">
        <path
           d="M 7.28125,-23.109375 10.625,-20.78125 9.171875,-18.75 V -6.1875 L 7.25,-1.375 C 7.019531,-0.820313 6.792969,-0.449219 6.578125,-0.265625 6.367188,-0.0859375 5.902344,0 5.1875,0 H 0 V -6.765625 H 5.765625 V -19.375 l -0.71875,-0.578125 z m 0,0"
           id="path29567"
           style="fill:#ffffff" />
      </g>
      <g
         id="use21877"
         transform="matrix(0.35277777,0,0,0.35277777,143.35426,-259.91001)"
         style="fill:#ffffff;fill-opacity:1">
        <path
           d="M 6.65625,-22.90625 V -6.1875 L 4.03125,0 h -1 v -20.234375 z m 0,0"
           id="path29571"
           style="fill:#ffffff" />
      </g>
      <g
         id="use21881"
         transform="matrix(0.35277777,0,0,0.35277777,124.81226,-259.91001)"
         style="fill:#ffffff;fill-opacity:1">
        <path
           d="m 8.484375,-13.90625 1.09375,5.625 c 0.089844,0.574219 0.269531,0.972656 0.53125,1.1875 0.269531,0.21875 0.710938,0.328125 1.328125,0.328125 h 0.796875 V 0 H 11.125 C 10.25,0 9.441406,-0.390625 8.703125,-1.171875 7.972656,-1.960938 7.519531,-2.96875 7.34375,-4.1875 H 7.015625 l -1.21875,2.671875 C 5.503906,-0.878906 5.210938,-0.464844 4.921875,-0.28125 4.628906,-0.09375 4.089844,0 3.3125,0 H 0 V -6.765625 H 6.453125 L 5.796875,-9.96875 Z m -4.265625,-6.15625 3.375,2.34375 -2.234375,3.21875 -3.34375,-2.390625 z m 0,0"
           id="path29575"
           style="fill:#ffffff" />
      </g>
      <g
         id="use21883"
         transform="matrix(0.35277777,0,0,0.35277777,129.13025,-259.91001)"
         style="fill:#ffffff;fill-opacity:1">
        <path
           d="m 8.421875,2.15625 3.0625,2.09375 -1.90625,2.796875 -3.0625,-2.03125 z m -5.5,0 L 5.984375,4.25 4.0625,7.046875 1,5.015625 Z m 6.359375,-16.375 2.5,7 c 0.05078,0.136719 0.09375,0.269531 0.125,0.390625 0.02734,0.117187 0.04687,0.195312 0.04687,0.234375 0,0.148437 -0.01953,0.289062 -0.04687,0.421875 -0.03125,0.125 -0.07422,0.261719 -0.125,0.40625 l -1.921875,4.65625 c -0.167969,0.375 -0.382812,0.660156 -0.640625,0.84375 C 8.96875,-0.0859375 8.652344,0 8.28125,0 H 0 V -6.765625 H 8.171875 L 6.875,-10.6875 Z m 0,0"
           id="path29579"
           style="fill:#ffffff" />
      </g>
      <g
         id="use21885"
         transform="matrix(0.35277777,0,0,0.35277777,133.77845,-259.91001)"
         style="fill:#ffffff;fill-opacity:1">
        <path
           d="m 11.15625,-12.421875 1.484375,3.625 c 0.351563,0.867187 0.695313,1.425781 1.03125,1.671875 0.332031,0.242187 0.828125,0.359375 1.484375,0.359375 h 0.546875 V 0 c -0.667969,-0.0703125 -1.167969,-0.296875 -1.5,-0.671875 -0.324219,-0.371094 -0.484375,-0.90625 -0.484375,-1.59375 h -0.421875 c 0,3.769531 -0.632812,6.757813 -1.890625,8.96875 -1.25,2.214844 -2.914062,3.328125 -4.984375,3.328125 -0.949219,0 -1.972656,-0.261719 -3.0625,-0.78125 C 2.273438,8.726563 1.152344,7.957031 0,6.9375 V 6.140625 c 0.539063,0.039063 0.960938,0.070313 1.265625,0.09375 0.300781,0.019531 0.585938,0.03125 0.859375,0.03125 2.589844,0 4.78125,-0.761719 6.5625,-2.28125 1.789063,-1.511719 2.6875,-3.367187 2.6875,-5.5625 0,-1.226563 -0.242187,-2.460938 -0.71875,-3.703125 C 10.175781,-6.527344 9.488281,-7.6875 8.59375,-8.75 Z m 0,0"
           id="path29583"
           style="fill:#ffffff" />
      </g>
      <g
         id="use21889"
         transform="matrix(0.35277777,0,0,0.35277777,118.46226,-259.91001)"
         style="fill:#ffffff;fill-opacity:1">
        <path
           d="m 12.890625,-18.40625 1.40625,9.265625 C 14.417969,-8.253906 14.65625,-7.632813 15,-7.28125 c 0.339844,0.34375 0.898438,0.515625 1.671875,0.515625 h 1.40625 V 0 h -1.9375 C 14.972656,0 14.042969,-0.328125 13.359375,-0.984375 12.671875,-1.648438 12.257813,-2.59375 12.125,-3.8125 l -0.921875,-8.890625 c -1.3125,0.761719 -2.394531,1.554687 -3.234375,2.375 -0.835937,0.8125 -1.496094,1.726562 -1.984375,2.734375 l 5.5,0.828125 L 8.53125,-1.625 2.921875,-2.265625 C 2.398438,-2.324219 2.027344,-2.441406 1.8125,-2.609375 1.59375,-2.773438 1.484375,-3.019531 1.484375,-3.34375 c 0,-0.144531 0.00391,-0.253906 0.015625,-0.328125 0.00781,-0.082031 0.023438,-0.15625 0.046875,-0.21875 L 2.8125,-7.3125 c 0.945313,-1.558594 2.109375,-2.929688 3.484375,-4.109375 1.382813,-1.183594 2.957031,-2.15625 4.71875,-2.90625 l -0.0625,-0.71875 z m 0,0"
           id="path29587"
           style="fill:#ffffff" />
      </g>
      <g
         id="use21897"
         transform="matrix(0.35277777,0,0,0.35277777,78.513698,-259.91001)"
         style="fill:#ffffff;fill-opacity:1">
        <path
           d="m 3.890625,-11.765625 c -0.011719,0.125 -0.023437,0.246094 -0.03125,0.359375 -0.011719,0.117187 -0.015625,0.300781 -0.015625,0.546875 0,1.40625 0.289063,2.558594 0.875,3.453125 0.589844,0.886719 1.332031,1.328125 2.21875,1.328125 0.695313,0 1.421875,-0.253906 2.171875,-0.765625 0.757813,-0.519531 1.363281,-1.191406 1.8125,-2.015625 -1.542969,-1.027344 -2.867187,-1.773438 -3.96875,-2.234375 -1.09375,-0.457031 -2.117187,-0.679688 -3.0625,-0.671875 z m -0.1875,-3.96875 c 3.070313,0.355469 5.472656,1.144531 7.203125,2.359375 1.726563,1.21875 2.59375,2.726562 2.59375,4.515625 0,0.886719 -0.183594,1.933594 -0.546875,3.140625 -0.367187,1.210937 -0.824219,2.257812 -1.375,3.140625 -0.636719,1.011719 -1.382812,1.792969 -2.234375,2.34375 -0.855469,0.539063 -1.761719,0.8125 -2.71875,0.8125 -1.5,0 -2.660156,-0.757813 -3.46875,-2.28125 C 2.351563,-3.222656 1.953125,-5.40625 1.953125,-8.25 c 0,-0.488281 0.019531,-1.039063 0.0625,-1.65625 0.050781,-0.613281 0.125,-1.285156 0.21875,-2.015625 L 1.65625,-12.03125 Z"
           id="path29591"
           style="fill:#ffffff"
           sodipodi:nodetypes="ccscsccscccscccscscccc" />
      </g>
      <g
         id="use21899"
         transform="matrix(0.35277777,0,0,0.35277777,83.974698,-259.91001)"
         style="fill:#ffffff;fill-opacity:1">
        <path
           d="m 11.15625,-12.421875 1.484375,3.625 c 0.351563,0.867187 0.695313,1.425781 1.03125,1.671875 0.332031,0.242187 0.828125,0.359375 1.484375,0.359375 h 0.546875 V 0 c -0.667969,-0.0703125 -1.167969,-0.296875 -1.5,-0.671875 -0.324219,-0.371094 -0.484375,-0.90625 -0.484375,-1.59375 h -0.421875 c 0,3.769531 -0.632812,6.757813 -1.890625,8.96875 -1.25,2.214844 -2.914062,3.328125 -4.984375,3.328125 -0.949219,0 -1.972656,-0.261719 -3.0625,-0.78125 C 2.273438,8.726563 1.152344,7.957031 0,6.9375 V 6.140625 c 0.539063,0.039063 0.960938,0.070313 1.265625,0.09375 0.300781,0.019531 0.585938,0.03125 0.859375,0.03125 2.589844,0 4.78125,-0.761719 6.5625,-2.28125 1.789063,-1.511719 2.6875,-3.367187 2.6875,-5.5625 0,-1.226563 -0.242187,-2.460938 -0.71875,-3.703125 C 10.175781,-6.527344 9.488281,-7.6875 8.59375,-8.75 Z m 0,0"
           id="path29595"
           style="fill:#ffffff" />
      </g>
      <g
         id="use21901"
         transform="matrix(0.35277777,0,0,0.35277777,89.511898,-259.91001)"
         style="fill:#ffffff;fill-opacity:1">
        <path
           d="M 22.1875,0 H 7.671875 L 5.53125,-2.265625 3.46875,0 H 0 v -6.765625 h 4.1875 v -1 l 2.75,-2.578125 v 3.578125 h 2.28125 c 3.183594,-3.039063 6.039063,-5.265625 8.5625,-6.671875 2.519531,-1.414063 4.894531,-2.125 7.125,-2.125 2.050781,0 3.628906,0.472656 4.734375,1.40625 1.101563,0.929687 1.65625,2.261719 1.65625,4 0,1.375 -0.332031,2.785156 -0.984375,4.21875 -0.65625,1.429687 -1.570312,2.722656 -2.734375,3.875 -0.742187,0.742187 -1.464844,1.273437 -2.171875,1.59375 C 24.707031,-0.15625 23.691406,0 22.359375,0 Z m 5.671875,-8 C 27.523438,-9.132813 26.972656,-9.976563 26.203125,-10.53125 25.441406,-11.089844 24.457031,-11.375 23.25,-11.375 c -1.699219,0 -3.402344,0.378906 -5.109375,1.125 -1.710937,0.75 -3.738281,2.050781 -6.078125,3.890625 h 10.375 c 1.183594,0 2.1875,-0.125 3,-0.375 C 26.246094,-6.992188 27.054688,-7.414063 27.859375,-8 Z m 0,0"
           id="path29599"
           style="fill:#ffffff" />
      </g>
      <g
         id="use21903"
         transform="matrix(0.35277777,0,0,0.35277777,101.1451,-259.91001)"
         style="fill:#ffffff;fill-opacity:1">
        <path
           d="M 5.1875,-22.90625 V -6.765625 H 6.59375 V 0 H 5.765625 c -1.417969,0 -2.480469,-0.441406 -3.1875,-1.328125 -0.710937,-0.882813 -1.0625,-2.207031 -1.0625,-3.96875 v -14.9375 z m 0,0"
           id="path29603"
           style="fill:#ffffff" />
      </g>
      <g
         id="use21905"
         transform="matrix(0.35277777,0,0,0.35277777,103.4692,-259.91001)"
         style="fill:#ffffff;fill-opacity:1">
        <path
           d="m 8.484375,-13.90625 1.09375,5.625 c 0.089844,0.574219 0.269531,0.972656 0.53125,1.1875 0.269531,0.21875 0.710938,0.328125 1.328125,0.328125 h 0.796027 V 0 H 11.125 C 10.25,0 9.441406,-0.390625 8.703125,-1.171875 7.972656,-1.960938 7.519531,-2.96875 7.34375,-4.1875 H 7.015625 l -1.21875,2.671875 C 5.503906,-0.878906 5.210938,-0.464844 4.921875,-0.28125 4.628906,-0.09375 4.089844,0 3.3125,0 H -0.70197251 V -6.765625 H 6.453125 L 5.796875,-9.96875 Z m -4.265625,-6.15625 3.375,2.34375 -2.234375,3.21875 -3.34375,-2.390625 z"
           id="path29607"
           style="fill:#ffffff"
           sodipodi:nodetypes="cccsccscccccscccccccccc" />
      </g>
      <g
         id="use21907"
         transform="matrix(0.35277777,0,0,0.35277777,107.7872,-259.91001)"
         style="fill:#ffffff;fill-opacity:1">
        <path
           d="M 7.28125,-23.109375 10.625,-20.78125 9.171875,-18.75 V -6.1875 L 7.25,-1.375 C 7.019531,-0.820313 6.792969,-0.449219 6.578125,-0.265625 6.367188,-0.0859375 5.902344,0 5.1875,0 H 0 V -6.765625 H 5.765625 V -19.375 l -0.71875,-0.578125 z m 0,0"
           id="path29611"
           style="fill:#ffffff" />
      </g>
      <g
         id="use21909"
         transform="matrix(0.35277777,0,0,0.35277777,111.8258,-259.91001)"
         style="fill:#ffffff;fill-opacity:1">
        <path
           d="M 6.65625,-22.90625 V -6.1875 L 4.03125,0 h -1 v -20.234375 z m 0,0"
           id="path29615"
           style="fill:#ffffff" />
      </g>
    </g>
  </g>
</svg>
