<?xml version="1.0" encoding="UTF-8" standalone="no"?>
<svg
   xmlns:dc="http://purl.org/dc/elements/1.1/"
   xmlns:cc="http://creativecommons.org/ns#"
   xmlns:rdf="http://www.w3.org/1999/02/22-rdf-syntax-ns#"
   xmlns:svg="http://www.w3.org/2000/svg"
   xmlns="http://www.w3.org/2000/svg"
   xmlns:sodipodi="http://sodipodi.sourceforge.net/DTD/sodipodi-0.dtd"
   xmlns:inkscape="http://www.inkscape.org/namespaces/inkscape"
   viewBox="0 0 568.12463 497.228"
   height="497.228"
   width="568.12463"
   xml:space="preserve"
   version="1.1"
   id="svg3522"
   sodipodi:docname="Israel_road_sign_151.svg"
   inkscape:version="1.0 (4035a4fb49, 2020-05-01)"><sodipodi:namedview
     id="namedview11"
     pagecolor="#ffffff"
     bordercolor="#666666"
     borderopacity="1.0"
     inkscape:pageshadow="2"
     inkscape:pageopacity="0.0"
     inkscape:pagecheckerboard="true"
     showgrid="false"
     showguides="true"
     inkscape:guide-bbox="true"
     inkscape:snap-intersection-paths="true"
     inkscape:snap-smooth-nodes="true"
     inkscape:snap-bbox="true"
     inkscape:snap-bbox-edge-midpoints="true"
     inkscape:bbox-nodes="true"
     inkscape:zoom="1"
     inkscape:cx="194.13954"
     inkscape:cy="417.57636"
     inkscape:window-width="1920"
     inkscape:window-height="1001"
     inkscape:window-x="-9"
     inkscape:window-y="-9"
     inkscape:window-maximized="1"
     inkscape:current-layer="g7054"
     width="568.125px"
     inkscape:snap-global="true"
     inkscape:object-paths="false"
     inkscape:document-rotation="0" /><metadata
     id="metadata3528"><rdf:RDF><cc:Work
         rdf:about=""><dc:format>image/svg+xml</dc:format><dc:type
           rdf:resource="http://purl.org/dc/dcmitype/StillImage" /><dc:title /></cc:Work></rdf:RDF></metadata><defs
     id="defs3526" /><g
     id="g7054"
     transform="matrix(-1,0,0,1,568.12466,0)"><g
       transform="matrix(-1,0,0,1,568.12466,0)"
       id="g901"><g
         id="g5565"
         transform="matrix(-1,0,0,1,568.12466,0)"><path
           sodipodi:nodetypes="cccc"
           d="M 284.06233,42.768626 519.25791,454.45937 H 48.866745 Z"
           style="display:inline;fill:#ffffff;fill-opacity:1;stroke-width:1.41526;stroke-linecap:round"
           id="rect2419" /><path
           sodipodi:nodetypes="cccccccccccccc"
           d="M 284.06233,4.5425685e-4 C 277.94091,-0.04336226 271.21873,3.083666 267.92647,8.9396153 L 2.1975383,469.35001 C 0.66396013,472.48418 0.01976039,475.20891 0,478.32676 0,489.21753 8.9379258,497.228 18.874395,497.228 H 549.25027 c 9.93647,0 18.87439,-8.01047 18.87439,-18.90124 -0.0197,-3.11785 -0.66396,-5.84258 -2.19753,-8.97675 L 300.19819,8.9396153 C 296.90594,3.083666 290.18376,-0.04336226 284.06233,4.5425685e-4 Z m 0,90.77454274315 L 487.1272,442.24256 H 80.997471 Z"
           style="display:inline;fill:#c0111e;fill-opacity:1;fill-rule:nonzero;stroke:none;stroke-width:0.859147"
           id="path1287-2" /></g></g><path
       id="rect1520"
       style="opacity:1;fill:#000000;fill-opacity:1;stroke-width:58.9198;stroke-linecap:round;stroke-linejoin:round"
       d="m 373.82627,350.17224 c 41.37022,0 75.06635,31.595 78.43192,72.06682 H 289.86494 279.68959 139.36618 117.29635 c 3.36592,-40.47182 37.06565,-72.06682 78.43589,-72.06682 h 5.52547 c 24.24905,0 45.85098,10.864 60.26425,27.99911 7.35446,7.02627 13.43323,16.94807 23.04939,17.06414 9.18557,0.11093 15.24399,-8.9005 22.33373,-15.69277 14.40035,-17.92587 36.50143,-29.37048 61.39174,-29.37048 z" /></g></svg>
