<?xml version="1.0" encoding="UTF-8" standalone="no"?>
<svg
   xmlns:dc="http://purl.org/dc/elements/1.1/"
   xmlns:cc="http://creativecommons.org/ns#"
   xmlns:rdf="http://www.w3.org/1999/02/22-rdf-syntax-ns#"
   xmlns:svg="http://www.w3.org/2000/svg"
   xmlns="http://www.w3.org/2000/svg"
   xmlns:sodipodi="http://sodipodi.sourceforge.net/DTD/sodipodi-0.dtd"
   xmlns:inkscape="http://www.inkscape.org/namespaces/inkscape"
   version="1.1"
   id="svg76"
   width="245.06554"
   height="245.06555"
   viewBox="0 0 245.06554 245.06555"
   sodipodi:docname="228.svg"
   inkscape:version="1.0 (4035a4fb49, 2020-05-01)">
  <metadata
     id="metadata82">
    <rdf:RDF>
      <cc:Work
         rdf:about="">
        <dc:format>image/svg+xml</dc:format>
        <dc:type
           rdf:resource="http://purl.org/dc/dcmitype/StillImage" />
        <dc:title />
      </cc:Work>
    </rdf:RDF>
  </metadata>
  <defs
     id="defs80" />
  <sodipodi:namedview
     inkscape:document-rotation="0"
     pagecolor="#ffffff"
     bordercolor="#666666"
     borderopacity="1"
     objecttolerance="10"
     gridtolerance="10"
     guidetolerance="10"
     inkscape:pageopacity="0"
     inkscape:pageshadow="2"
     inkscape:window-width="1920"
     inkscape:window-height="1001"
     id="namedview78"
     showgrid="false"
     inkscape:zoom="1.9563287"
     inkscape:cx="-17.003388"
     inkscape:cy="118.45407"
     inkscape:window-x="-9"
     inkscape:window-y="-9"
     inkscape:window-maximized="1"
     inkscape:current-layer="g84" />
  <g
     inkscape:groupmode="layer"
     inkscape:label="Image"
     id="g84"
     transform="translate(-25.98,-52.406983)">
    <g
       id="g14142">
      <path
         id="circle2"
         style="opacity:1;fill:#070fdb;fill-opacity:1;stroke-width:0.418939"
         d="M 148.51278,52.406983 A 122.53278,122.53278 0 0 1 271.04554,174.93976 122.53278,122.53278 0 0 1 148.51278,297.47254 122.53278,122.53278 0 0 1 25.98,174.93976 122.53278,122.53278 0 0 1 148.51278,52.406983" />
      <path
         style="color:#000000;font-style:normal;font-variant:normal;font-weight:normal;font-stretch:normal;font-size:medium;line-height:normal;font-family:sans-serif;font-variant-ligatures:normal;font-variant-position:normal;font-variant-caps:normal;font-variant-numeric:normal;font-variant-alternates:normal;font-variant-east-asian:normal;font-feature-settings:normal;font-variation-settings:normal;text-indent:0;text-align:start;text-decoration:none;text-decoration-line:none;text-decoration-style:solid;text-decoration-color:#000000;letter-spacing:normal;word-spacing:normal;text-transform:none;writing-mode:lr-tb;direction:ltr;text-orientation:mixed;dominant-baseline:auto;baseline-shift:baseline;text-anchor:start;white-space:normal;shape-padding:0;shape-margin:0;inline-size:0;clip-rule:nonzero;display:inline;overflow:visible;visibility:visible;opacity:1;isolation:auto;mix-blend-mode:normal;color-interpolation:sRGB;color-interpolation-filters:linearRGB;solid-color:#000000;solid-opacity:1;vector-effect:none;fill:#ffffff;fill-opacity:1;fill-rule:nonzero;stroke:none;stroke-width:2.89697;stroke-linecap:butt;stroke-linejoin:miter;stroke-miterlimit:4;stroke-dasharray:none;stroke-dashoffset:0;stroke-opacity:1;color-rendering:auto;image-rendering:auto;shape-rendering:auto;text-rendering:auto;enable-background:accumulate;stop-color:#000000;stop-opacity:1"
         d="m 29.254932,174.93963 c 0,65.84732 53.410658,119.25798 119.257978,119.25798 65.84727,0 119.25792,-53.41066 119.25792,-119.25798 0,-65.84728 -53.41065,-119.257942 -119.25792,-119.257942 -65.84732,0 -119.257978,53.410662 -119.257978,119.257942 z m 2.8963,0 c 0,-64.28167 52.079988,-116.361662 116.361678,-116.361662 64.28163,0 116.36165,52.079992 116.36165,116.361662 0,64.28169 -52.08002,116.36042 -116.36165,116.36042 -64.28169,0 -116.361678,-52.07873 -116.361678,-116.36042 z"
         id="path109" />
      <path
         d="m 185.76339,105.1411 v 30.86311 1.26278 l -52.40532,-4.75515 c -14.24543,-1.29225 -25.81989,11.51594 -25.81989,25.81988 L 97.43594,271.37017 h 45.50741 L 132.84111,167.92884 c -0.58632,-6.00363 4.85732,-10.8895 10.8895,-10.8895 l 42.03278,-2.82941 v 31.98974 l 65.3429,-40.52928 z"
         style="opacity:1;fill:#ffffff;stroke-width:2.46796"
         id="rect14017" />
    </g>
  </g>
</svg>
