<?xml version="1.0" encoding="UTF-8" standalone="no"?>
<svg
   xmlns:dc="http://purl.org/dc/elements/1.1/"
   xmlns:cc="http://creativecommons.org/ns#"
   xmlns:rdf="http://www.w3.org/1999/02/22-rdf-syntax-ns#"
   xmlns:svg="http://www.w3.org/2000/svg"
   xmlns="http://www.w3.org/2000/svg"
   xmlns:sodipodi="http://sodipodi.sourceforge.net/DTD/sodipodi-0.dtd"
   xmlns:inkscape="http://www.inkscape.org/namespaces/inkscape"
   inkscape:version="1.0 (4035a4fb49, 2020-05-01)"
   sodipodi:docname="Israel_road_sign_423.svg"
   xml:space="preserve"
   enable-background="new 0 0 610 600"
   viewBox="0 0 590.12305 590.125"
   height="590.125"
   width="590.12305"
   y="0px"
   x="0px"
   id="Layer_1"
   version="1.1"><metadata
   id="metadata5602"><rdf:RDF><cc:Work
       rdf:about=""><dc:format>image/svg+xml</dc:format><dc:type
         rdf:resource="http://purl.org/dc/dcmitype/StillImage" /><dc:title></dc:title></cc:Work></rdf:RDF></metadata><defs
   id="defs5600"><pattern
     id="EMFhbasepattern"
     patternUnits="userSpaceOnUse"
     width="6"
     height="6"
     x="0"
     y="0" /></defs><sodipodi:namedview
   inkscape:document-rotation="0"
   inkscape:current-layer="Layer_1"
   inkscape:window-maximized="1"
   inkscape:window-y="-9"
   inkscape:window-x="-9"
   inkscape:cy="602.86286"
   inkscape:cx="563.63247"
   inkscape:zoom="0.55625733"
   showgrid="false"
   id="namedview5598"
   inkscape:window-height="1001"
   inkscape:window-width="1920"
   inkscape:pageshadow="2"
   inkscape:pageopacity="0"
   guidetolerance="10"
   gridtolerance="10"
   objecttolerance="10"
   borderopacity="1"
   bordercolor="#666666"
   pagecolor="#ffffff" />
<g
   transform="translate(-8.3300781,-3.6601562)"
   style="opacity:1"
   id="g14038"><path
     id="path14040"
     d="M 595.95401,298.72299 C 595.95401,460.30053 464.96954,591.285 303.392,591.285 141.81446,591.285 10.829987,460.30053 10.829987,298.72299 10.829987,137.14545 141.81446,6.1609785 303.392,6.1609802 c 161.57754,0 292.56201,130.9844698 292.56201,292.5620098"
     style="color:#000000;font-style:normal;font-variant:normal;font-weight:normal;font-stretch:normal;font-size:medium;line-height:normal;font-family:sans-serif;font-variant-ligatures:normal;font-variant-position:normal;font-variant-caps:normal;font-variant-numeric:normal;font-variant-alternates:normal;font-variant-east-asian:normal;font-feature-settings:normal;font-variation-settings:normal;text-indent:0;text-align:start;text-decoration:none;text-decoration-line:none;text-decoration-style:solid;text-decoration-color:#000000;letter-spacing:normal;word-spacing:normal;text-transform:none;writing-mode:lr-tb;direction:ltr;text-orientation:mixed;dominant-baseline:auto;baseline-shift:baseline;text-anchor:start;white-space:normal;shape-padding:0;shape-margin:0;inline-size:0;clip-rule:nonzero;display:inline;overflow:visible;visibility:visible;isolation:auto;mix-blend-mode:normal;color-interpolation:sRGB;color-interpolation-filters:linearRGB;solid-color:#000000;solid-opacity:1;vector-effect:none;fill:#ffffff;fill-opacity:1;fill-rule:nonzero;stroke:none;stroke-width:5;stroke-linecap:butt;stroke-linejoin:miter;stroke-miterlimit:4;stroke-dasharray:none;stroke-dashoffset:0;stroke-opacity:1;color-rendering:auto;image-rendering:auto;shape-rendering:auto;text-rendering:auto;enable-background:accumulate;stop-color:#000000;stop-opacity:1" /><path
     id="path14042"
     d="M 303.39258,3.6601562 C 140.46394,3.6601546 8.3300782,135.79402 8.3300781,298.72266 c 0,162.92863 132.1338619,295.0625 295.0625019,295.0625 162.92863,0 295.06054,-132.13387 295.06054,-295.0625 0,-162.92864 -132.13191,-295.0625037 -295.06054,-295.0625038 z m 0,5 c 160.22643,1e-7 290.06054,129.8360638 290.06054,290.0625038 0,160.22643 -129.83411,290.0625 -290.06054,290.0625 -160.22644,0 -290.062502,-129.83607 -290.062502,-290.0625 0,-160.22644 129.836062,-290.0625054 290.062502,-290.0625038 z"
     style="color:#000000;font-style:normal;font-variant:normal;font-weight:normal;font-stretch:normal;font-size:medium;line-height:normal;font-family:sans-serif;font-variant-ligatures:normal;font-variant-position:normal;font-variant-caps:normal;font-variant-numeric:normal;font-variant-alternates:normal;font-variant-east-asian:normal;font-feature-settings:normal;font-variation-settings:normal;text-indent:0;text-align:start;text-decoration:none;text-decoration-line:none;text-decoration-style:solid;text-decoration-color:#000000;letter-spacing:normal;word-spacing:normal;text-transform:none;writing-mode:lr-tb;direction:ltr;text-orientation:mixed;dominant-baseline:auto;baseline-shift:baseline;text-anchor:start;white-space:normal;shape-padding:0;shape-margin:0;inline-size:0;clip-rule:nonzero;display:inline;overflow:visible;visibility:visible;isolation:auto;mix-blend-mode:normal;color-interpolation:sRGB;color-interpolation-filters:linearRGB;solid-color:#000000;solid-opacity:1;vector-effect:none;fill:#000000;fill-opacity:1;fill-rule:nonzero;stroke:none;stroke-width:5;stroke-linecap:butt;stroke-linejoin:miter;stroke-miterlimit:4;stroke-dasharray:none;stroke-dashoffset:0;stroke-opacity:1;color-rendering:auto;image-rendering:auto;shape-rendering:auto;text-rendering:auto;enable-background:accumulate;stop-color:#000000;stop-opacity:1" /></g>



<path
   id="path1502"
   d="M 426.84961,31.296875 108.05859,520.14453 166.6914,558.38086 485.48437,69.535156 Z"
   style="color:#000000;font-style:normal;font-variant:normal;font-weight:normal;font-stretch:normal;font-size:medium;line-height:normal;font-family:sans-serif;font-variant-ligatures:normal;font-variant-position:normal;font-variant-caps:normal;font-variant-numeric:normal;font-variant-alternates:normal;font-variant-east-asian:normal;font-feature-settings:normal;font-variation-settings:normal;text-indent:0;text-align:start;text-decoration:none;text-decoration-line:none;text-decoration-style:solid;text-decoration-color:#000000;letter-spacing:normal;word-spacing:normal;text-transform:none;writing-mode:lr-tb;direction:ltr;text-orientation:mixed;dominant-baseline:auto;baseline-shift:baseline;text-anchor:start;white-space:normal;shape-padding:0;shape-margin:0;inline-size:0;clip-rule:nonzero;display:inline;overflow:visible;visibility:visible;opacity:1;isolation:auto;mix-blend-mode:normal;color-interpolation:sRGB;color-interpolation-filters:linearRGB;solid-color:#000000;solid-opacity:1;vector-effect:none;fill:#000000;fill-opacity:1;fill-rule:nonzero;stroke:none;stroke-width:70;stroke-linecap:butt;stroke-linejoin:miter;stroke-miterlimit:4;stroke-dasharray:none;stroke-dashoffset:0;stroke-opacity:1;color-rendering:auto;image-rendering:auto;shape-rendering:auto;text-rendering:auto;enable-background:accumulate;stop-color:#000000;stop-opacity:1" /><path
   d="m 404.16706,257.34403 c -8.96555,0 -14.85739,8.27411 -19.77484,15.77065 l -16.67157,25.41695 c 0,0 -1.58528,2.13167 -2.46613,3.12135 -1.98697,2.2314 -6.34286,2.8236 -6.34286,6.33378 v 37.7841 c 0,3.51024 2.83262,6.33379 6.34286,6.33379 h 3.39436 v 12.23978 h -22.91437 c -0.095,0 -0.17286,0.0848 -0.17286,0.17286 v 6.27004 c 0,0.10573 0.0778,0.17286 0.17286,0.17286 h 205.99264 c 0.0951,0 0.17289,-0.0848 0.17289,-0.17286 v -6.27004 c 0,-0.10573 -0.0783,-0.17286 -0.17289,-0.17286 h -22.28644 v -12.23978 h 3.03032 c 3.51029,0 6.33314,-2.82355 6.33382,-6.33379 l 0.0112,-37.74771 c 6.7e-4,-3.50929 -4.52625,-4.18849 -6.51576,-6.53393 -1.47612,-1.74007 -3.99504,-5.56025 -3.99504,-5.56025 l -13.7777,-20.84861 c -4.64766,-7.66671 -11.56459,-17.73633 -20.53013,-17.73633 z m -6.57947,12.43092 h 102.43208 c 0.0951,0 0.12903,0.0941 0.17289,0.18217 l 13.15888,28.78398 c 0.0369,0.088 -0.0783,0.17286 -0.17289,0.17286 H 386.3579 c -0.095,0 -0.21106,-0.0671 -0.17286,-0.17286 l 11.22969,-28.78398 c 0.0325,-0.088 0.0777,-0.18217 0.17286,-0.18217 z m -23.47855,35.07222 c 3.07565,0 5.5511,2.47555 5.5511,5.55117 v 14.80602 c 0,3.07562 -2.47545,5.55117 -5.5511,5.55117 -3.07567,0 -5.55115,-2.47555 -5.55115,-5.55117 v -14.80602 c 0,-3.07562 2.47548,-5.55117 5.55115,-5.55117 z m 150.70874,0 c 3.07564,0 5.55116,2.47555 5.55116,5.55117 v 14.80602 c 0,3.07562 -2.47552,5.55117 -5.55116,5.55117 -3.07566,0 -5.55116,-2.47555 -5.55116,-5.55117 v -14.80602 c 0,-3.07562 2.4755,-5.55117 5.55116,-5.55117 z m -92.62207,15.85257 h 31.6779 v 9.78275 h -31.6779 z m -62.40017,15.29752 h 156.75125 v 10.73826 H 369.79554 Z m 16.34394,16.10739 h 125.81059 v 12.23978 H 386.13948 Z"
   style="opacity:1;fill:#000000;fill-opacity:1;fill-rule:evenodd;stroke:none;stroke-width:1.88976;stroke-linecap:square;stroke-miterlimit:10;paint-order:markers fill stroke"
   id="path2120" /><path
   id="rect56173"
   style="fill:#000000;fill-opacity:1;fill-rule:evenodd;stroke:none;stroke-width:1.88975;stroke-linecap:square;stroke-miterlimit:10;paint-order:markers fill stroke"
   d="m 57.034067,162.32549 c -10.865354,0 -19.613424,8.74802 -19.613424,19.61341 V 312.24527 H 187.28647 V 181.9389 c 0,-10.86539 -8.74807,-19.61341 -19.61346,-19.61341 z M 36.23285,317.0966 v 6.81032 H 187.7338 v -6.81032 z m 137.98054,9.59458 v 39.2732 h -3.87179 v -39.26546 h -13.52039 v 21.6496 h -37.22158 a 7.644518,7.644518 0 0 0 -7.48903,-6.13164 7.644518,7.644518 0 0 0 -7.49677,6.13164 H 67.307427 v -21.6496 H 53.787031 v 39.26546 H 49.753246 V 326.69892 H 36.23285 v 39.26546 h -9.90312 c -0.08052,0 -0.146501,0.0719 -0.146501,0.1465 v 5.31405 c 0,0.0896 0.0659,0.14651 0.146501,0.14651 h 174.5851 c 0.0805,0 0.1465,-0.0719 0.1465,-0.14651 v -5.31405 c 0,-0.0896 -0.0659,-0.1465 -0.1465,-0.1465 H 187.7338 v -39.2732 z M 67.307427,351.8501 h 37.422103 a 7.644518,7.644518 0 0 0 7.38107,5.65342 7.644518,7.644518 0 0 0 7.37337,-5.65342 h 37.33724 v 14.11428 H 67.307427 Z" /></svg>
