<?xml version="1.0" encoding="UTF-8" standalone="no"?>
<svg
   xmlns:dc="http://purl.org/dc/elements/1.1/"
   xmlns:cc="http://creativecommons.org/ns#"
   xmlns:rdf="http://www.w3.org/1999/02/22-rdf-syntax-ns#"
   xmlns:svg="http://www.w3.org/2000/svg"
   xmlns="http://www.w3.org/2000/svg"
   xmlns:sodipodi="http://sodipodi.sourceforge.net/DTD/sodipodi-0.dtd"
   xmlns:inkscape="http://www.inkscape.org/namespaces/inkscape"
   inkscape:version="1.0 (4035a4fb49, 2020-05-01)"
   sodipodi:docname="Israel_road_sign_412.svg"
   xml:space="preserve"
   enable-background="new 0 0 610 600"
   viewBox="0 0 592.15802 592.15802"
   height="592.15802"
   width="592.15802"
   y="0px"
   x="0px"
   id="Layer_1"
   version="1.1"><metadata
   id="metadata8642"><rdf:RDF><cc:Work
       rdf:about=""><dc:format>image/svg+xml</dc:format><dc:type
         rdf:resource="http://purl.org/dc/dcmitype/StillImage" /><dc:title></dc:title></cc:Work></rdf:RDF></metadata><defs
   id="defs8640"><path
     id="Oct"
     d="M500-207.10678V207.10678L207.10678,500H-207.10678L-500,207.10678V-207.10678L-207.10678-500H207.10678Z" /><pattern
     id="EMFhbasepattern"
     patternUnits="userSpaceOnUse"
     width="6"
     height="6"
     x="0"
     y="0" /></defs><sodipodi:namedview
   inkscape:document-rotation="0"
   inkscape:current-layer="Layer_1"
   inkscape:window-maximized="1"
   inkscape:window-y="-9"
   inkscape:window-x="-9"
   inkscape:cy="450.13451"
   inkscape:cx="67.067538"
   inkscape:zoom="0.67633974"
   showgrid="false"
   id="namedview8638"
   inkscape:window-height="1001"
   inkscape:window-width="1920"
   inkscape:pageshadow="2"
   inkscape:pageopacity="0"
   guidetolerance="10"
   gridtolerance="10"
   objecttolerance="10"
   borderopacity="1"
   bordercolor="#666666"
   pagecolor="#ffffff"><sodipodi:guide
     inkscape:locked="false"
     id="guide8644"
     orientation="0,610"
     position="-6.5189819,-4.3849792" /><sodipodi:guide
     inkscape:locked="false"
     id="guide8646"
     orientation="-600,0"
     position="603.48102,-4.3849792" /><sodipodi:guide
     inkscape:locked="false"
     id="guide8648"
     orientation="0,-610"
     position="603.48102,595.61502" /><sodipodi:guide
     inkscape:locked="false"
     id="guide8650"
     orientation="600,0"
     position="-6.5189819,595.61502" /></sodipodi:namedview>
<circle
   style="fill:#ffffff;stroke:#000000;stroke-opacity:0.81568629"
   id="circle8633"
   r="292.48499"
   cy="296.07901"
   cx="296.078" />
<circle
   style="fill:none;stroke:#c0111e;stroke-width:70;stroke-opacity:1"
   id="circle8635"
   r="261.07901"
   cy="296.07901"
   cx="296.07901" />
<path
   d="m 345.81191,371.71412 h 7.98519 v -9.02944 h -12.23977 l -6.36897,-13.28405 c 6.90402,-4.25089 11.15491,-10.642 12.74162,-18.08107 h 6.93354 c 3.18448,36.14367 33.48319,63.78926 69.63426,63.78926 38.8042,0 70.70068,-31.3651 70.70068,-70.1656 0,-38.80419 -31.89648,-70.15456 -70.70068,-70.15456 -11.16967,0 -16.49067,1.06641 -27.11422,5.84498 l -27.6456,-48.36871 5.32101,-14.89659 c 7.43538,-0.52398 19.1401,-7.43538 19.1401,-15.93348 0,-1.60146 -1.06641,-2.6605 -2.66788,-2.6605 h -60.59372 c -3.18818,0 -5.85236,2.6605 -5.85236,5.84498 0,2.6605 2.13282,5.31362 4.78225,5.84499 l 27.11423,5.84498 -6.38373,17.54971 H 222.46948 l 2.68264,-10.64569 h -0.0148 c 0.54612,-1.05903 0.54612,-2.65312 0.54612,-4.24352 0,-5.32101 -2.68264,-10.63093 -7.45015,-13.81542 -1.0701,-0.53505 -1.60146,-1.60146 -1.60146,-2.66049 0,-2.12545 1.60146,-3.71954 3.18448,-3.71954 h 27.11423 V 161.23941 H 214.499 c -10.62355,0 -19.12903,8.50549 -19.12903,18.59399 0,6.91139 3.71954,12.75637 9.03685,16.47591 2.13652,1.05903 3.18817,2.6605 3.18817,4.78595 0,0.52767 0,1.05904 -0.53505,1.59409 l -14.88921,56.88526 c -7.97043,-3.19556 -16.47592,-4.78595 -24.44635,-4.78595 -38.81895,0 -70.16932,31.88172 -70.16932,70.15456 0,38.8005 31.35037,70.1656 70.16932,70.1656 38.81896,0 70.18408,-31.3651 70.18408,-70.1656 0,-22.84858 -11.17337,-44.11782 -29.78212,-56.8742 l 2.13284,-9.02946 81.33899,57.40555 c -1.06642,4.24352 -1.59778,4.24352 -1.59778,8.49811 0,16.48698 13.28775,29.23598 29.23229,29.23598 3.19924,0 5.85237,-0.52398 9.03685,-1.05903 l 4.2509,9.56451 h -7.97044 v 9.02944 h 7.97044 13.29143 m -45.17316,-46.7709 c 0,10.62724 8.48703,18.61243 18.59398,18.61243 10.63463,0 19.14011,-7.98519 19.14011,-18.61243 0,-10.09958 -8.50548,-18.59768 -19.14011,-18.59768 -10.10695,0 -18.59398,8.4981 -18.59398,18.59768 m -131.84789,6.9114 h -1.5867 c -3.71585,0 -6.93354,-2.66051 -6.93354,-6.9114 0,-2.12914 1.61622,-4.25459 3.21769,-5.84499 10.0885,-6.38003 16.99252,-15.40949 19.64564,-27.11422 l 3.73429,-12.22502 c -7.45383,-3.18449 -11.17336,-3.71584 -19.14379,-3.71584 -27.11423,0 -49.43882,21.8006 -49.43882,48.90007 0,27.11053 22.32459,49.4314 49.43882,49.4314 27.12899,0 48.90745,-22.32087 48.90745,-49.4314 0,-12.7527 -5.3173,-25.50907 -14.34308,-34.5533 l -4.2509,14.36523 c -3.71953,14.34308 -14.90397,24.43896 -29.24706,27.09947 m 239.21627,-53.15467 c 5.321,-1.59039 11.17336,-2.6568 16.49067,-2.6568 27.11423,0 49.42775,21.8006 49.42775,48.90007 0,27.11053 -22.31352,49.4314 -49.42775,49.4314 -24.4611,0 -45.20267,-18.60133 -48.38716,-43.05506 h 51.57165 c 3.18817,0 6.37266,-2.6605 6.37266,-6.37634 0,-1.06273 -0.5203,-2.12914 -1.05167,-3.18817 z m -31.89649,39.87061 h 34.54961 l -17.52757,-30.83745 c -9.58666,7.98519 -15.42427,18.61243 -17.02204,30.83745 m -28.18064,0 c -1.58671,-6.38004 -5.30255,-12.75638 -10.62355,-16.47592 l 24.4611,-68.04017 20.72682,35.08097 c -16.47591,12.21763 -26.04413,29.23967 -27.63083,49.43512 z M 306.47633,278.1686 h -13.29144 -7.98519 v 9.56451 h 12.23609 l 5.85237,12.76745 -1.59778,1.59408 -86.65999,-60.6048 2.66787,-10.09588 h 126.51216 l -23.3947,64.32434 h -1.05165 c -4.25089,0 -4.78595,0 -9.03685,1.5904 l -4.25089,-9.57559 h 7.97043 v -9.56451 z"
   inkscape:connector-curvature="0"
   id="path38"
   style="fill:#000000;fill-opacity:1;fill-rule:evenodd;stroke-width:1.25"
   sodipodi:nodetypes="cccccccssscccssssccccccscssccsscsccsssscccsscccccccsssccsscccssssccccssscsscccccccccccccccccccccccsccccc" /></svg>
