<?xml version="1.0" encoding="UTF-8" standalone="no"?>
<svg
   xmlns:dc="http://purl.org/dc/elements/1.1/"
   xmlns:cc="http://creativecommons.org/ns#"
   xmlns:rdf="http://www.w3.org/1999/02/22-rdf-syntax-ns#"
   xmlns:svg="http://www.w3.org/2000/svg"
   xmlns="http://www.w3.org/2000/svg"
   xmlns:sodipodi="http://sodipodi.sourceforge.net/DTD/sodipodi-0.dtd"
   xmlns:inkscape="http://www.inkscape.org/namespaces/inkscape"
   version="1.1"
   id="Layer_1"
   x="0px"
   y="0px"
   width="592.1582"
   height="592.1582"
   viewBox="0 0 592.1582 592.1582"
   enable-background="new 0 0 610 600"
   xml:space="preserve"
   sodipodi:docname="Israel_road_sign 416.svg"
   inkscape:version="1.0 (4035a4fb49, 2020-05-01)"><metadata
   id="metadata8642"><rdf:RDF><cc:Work
       rdf:about=""><dc:format>image/svg+xml</dc:format><dc:type
         rdf:resource="http://purl.org/dc/dcmitype/StillImage" /><dc:title></dc:title></cc:Work></rdf:RDF></metadata><defs
   id="defs8640"><path
     d="M 500,-207.10678 V 207.10678 L 207.10678,500 H -207.10678 L -500,207.10678 V -207.10678 L -207.10678,-500 h 414.21356 z"
     id="Oct" /><pattern
     y="0"
     x="0"
     height="6"
     width="6"
     patternUnits="userSpaceOnUse"
     id="EMFhbasepattern" /><pattern
     y="0"
     x="0"
     height="6"
     width="6"
     patternUnits="userSpaceOnUse"
     id="EMFhbasepattern-0" /><pattern
     y="0"
     x="0"
     height="6"
     width="6"
     patternUnits="userSpaceOnUse"
     id="EMFhbasepattern-8" /><pattern
     y="0"
     x="0"
     height="6"
     width="6"
     patternUnits="userSpaceOnUse"
     id="EMFhbasepattern-3" /><pattern
     y="0"
     x="0"
     height="6"
     width="6"
     patternUnits="userSpaceOnUse"
     id="EMFhbasepattern-1" /><pattern
     id="EMFhbasepattern-80"
     patternUnits="userSpaceOnUse"
     width="6"
     height="6"
     x="0"
     y="0" /><pattern
     id="EMFhbasepattern-4"
     patternUnits="userSpaceOnUse"
     width="6"
     height="6"
     x="0"
     y="0" /></defs><sodipodi:namedview
   pagecolor="#ffffff"
   bordercolor="#666666"
   borderopacity="1"
   objecttolerance="10"
   gridtolerance="10"
   guidetolerance="10"
   inkscape:pageopacity="0"
   inkscape:pageshadow="2"
   inkscape:window-width="1920"
   inkscape:window-height="1001"
   id="namedview8638"
   showgrid="false"
   inkscape:zoom="0.70710678"
   inkscape:cx="-246.87669"
   inkscape:cy="415.63416"
   inkscape:window-x="-9"
   inkscape:window-y="-9"
   inkscape:window-maximized="1"
   inkscape:current-layer="Layer_1"
   inkscape:document-rotation="0"><sodipodi:guide
     position="-5.3896699,-7.8417958"
     orientation="0,610"
     id="guide8644"
     inkscape:locked="false" /><sodipodi:guide
     position="604.61033,-7.8417958"
     orientation="-1,0"
     id="guide8646"
     inkscape:locked="false"
     inkscape:label=""
     inkscape:color="rgb(117,80,123)" /><sodipodi:guide
     position="604.61033,592.1582"
     orientation="0,-610"
     id="guide8648"
     inkscape:locked="false" /><sodipodi:guide
     position="-11.440678,592.1582"
     orientation="600,0"
     id="guide8650"
     inkscape:locked="false" /><inkscape:grid
     type="xygrid"
     id="grid56807"
     originx="1.12931"
     originy="3.457" /></sodipodi:namedview>


<circle
   style="fill:#ffffff;stroke:#000000;stroke-opacity:0.815686;fill-opacity:1"
   id="circle8633"
   r="292.48499"
   cy="296.07901"
   cx="296.078" /><path
   id="path56784"
   d="M 296.07812,0 C 132.97277,0 0,132.97277 0,296.07812 0,459.18348 132.97277,592.1582 296.07812,592.1582 459.18348,592.1582 592.1582,459.18348 592.1582,296.07812 592.1582,132.97277 459.18348,0 296.07812,0 Z m 0,70 C 421.35268,70 522.1582,170.80357 522.1582,296.07812 522.1582,421.35268 421.35268,522.1582 296.07812,522.1582 170.80357,522.1582 70,421.35268 70,296.07812 70,170.80357 170.80357,70 296.07812,70 Z"
   style="color:#000000;font-style:normal;font-variant:normal;font-weight:normal;font-stretch:normal;font-size:medium;line-height:normal;font-family:sans-serif;font-variant-ligatures:normal;font-variant-position:normal;font-variant-caps:normal;font-variant-numeric:normal;font-variant-alternates:normal;font-variant-east-asian:normal;font-feature-settings:normal;font-variation-settings:normal;text-indent:0;text-align:start;text-decoration:none;text-decoration-line:none;text-decoration-style:solid;text-decoration-color:#000000;letter-spacing:normal;word-spacing:normal;text-transform:none;writing-mode:lr-tb;direction:ltr;text-orientation:mixed;dominant-baseline:auto;baseline-shift:baseline;text-anchor:start;white-space:normal;shape-padding:0;shape-margin:0;inline-size:0;clip-rule:nonzero;display:inline;overflow:visible;visibility:visible;opacity:1;isolation:auto;mix-blend-mode:normal;color-interpolation:sRGB;color-interpolation-filters:linearRGB;solid-color:#000000;solid-opacity:1;vector-effect:none;fill:#c0111e;fill-opacity:1;fill-rule:nonzero;stroke:none;stroke-width:70;stroke-linecap:butt;stroke-linejoin:miter;stroke-miterlimit:4;stroke-dasharray:none;stroke-dashoffset:0;stroke-opacity:1;color-rendering:auto;image-rendering:auto;shape-rendering:auto;text-rendering:auto;enable-background:accumulate;stop-color:#000000;stop-opacity:1" /><path
   d="M 249 78.25 L 292.75 161.25 L 337.70703 78.25 L 249 78.25 z M 292.75 433.25 L 249 516.25 L 337.70703 516.25 L 292.75 433.25 z "
   style="fill:#000000;fill-opacity:1;fill-rule:evenodd;stroke:none;stroke-width:2;stroke-linecap:square;stroke-miterlimit:4;stroke-dasharray:16, 16;stroke-dashoffset:0;stroke-opacity:1;paint-order:normal"
   id="rect10991" /><g
   style="font-size:281.863px;line-height:109.02%;font-family:'Medina Lt BT';-inkscape-font-specification:'Medina Lt BT, Normal';text-align:center;text-anchor:middle;stroke-width:1;fill:#000000;fill-opacity:1"
   id="text10998"
   aria-label="46
"><path
     id="path11002"
     style="font-style:normal;font-variant:normal;font-weight:normal;font-stretch:normal;font-family:Triumvirate;-inkscape-font-specification:Triumvirate;fill:#000000;stroke-width:1;fill-opacity:1"
     d="m 152.90582,328.01853 h 49.32603 v -82.86772 h -0.56373 z m 49.32603,31.00493 h -78.35792 v -34.95101 l 73.28438,-118.38246 h 43.40691 v 122.32854 h 21.98531 v 31.00493 h -21.98531 v 42.84318 h -38.33337 z" /><path
     id="path11004"
     style="font-style:normal;font-variant:normal;font-weight:normal;font-stretch:normal;font-family:Triumvirate;-inkscape-font-specification:Triumvirate;fill:#000000;stroke-width:1;fill-opacity:1"
     d="m 360.00441,338.1656 q 0,8.73775 2.2549,15.2206 2.53677,6.48285 6.48285,10.99266 4.22795,4.22794 9.30148,6.48285 5.3554,2.2549 10.99266,2.2549 12.68384,0 20.01227,-8.73775 7.6103,-8.73775 7.6103,-25.08581 0,-8.73775 -2.2549,-15.2206 -2.2549,-6.76471 -6.20099,-10.99266 -3.66421,-4.50981 -8.73775,-6.48285 -4.79167,-2.2549 -10.14707,-2.2549 -12.68383,0 -21.13972,8.45589 -8.17403,8.45589 -8.17403,25.36767 z m 54.39956,-84.5589 q -0.56373,-2.81863 -1.97304,-6.20099 -1.40932,-3.38236 -3.94608,-6.20099 -2.53677,-2.81863 -6.48285,-4.79167 -3.94608,-1.97304 -9.30148,-1.97304 -11.27452,0 -18.03923,5.91913 -6.48285,5.63726 -10.14707,14.09315 -3.38236,8.45589 -4.79167,18.03923 -1.12745,9.30148 -1.97304,16.62992 7.32843,-6.48285 16.34805,-11.55639 9.01962,-5.35539 23.39463,-5.35539 12.9657,0 23.95836,4.22794 10.99265,4.22795 18.88482,12.40197 7.89216,8.17403 12.40197,20.01228 4.50981,11.55638 4.50981,26.49512 0,16.91178 -4.79167,30.15934 -4.79167,12.9657 -13.81129,22.26718 -8.73775,9.01961 -21.13973,13.81129 -12.12011,4.79167 -26.77698,4.79167 -21.70345,0 -35.51474,-8.17403 -13.81129,-8.17403 -21.98532,-21.42159 -7.89216,-13.52942 -10.99265,-30.4412 -2.81863,-17.19365 -2.81863,-35.23288 0,-20.85786 3.10049,-40.58827 3.38236,-20.01228 11.55638,-35.23288 8.45589,-15.50246 22.26718,-24.80394 14.09315,-9.30148 35.51474,-9.30148 16.06619,0 27.05885,4.50981 11.27452,4.5098 18.32109,11.83824 7.32844,7.32844 10.7108,16.91178 3.66422,9.30148 4.79167,19.16669 z" /><circle
     r="17.819691"
     cy="389.77603"
     cx="292.95621"
     id="path11007"
     style="fill:#000000;fill-opacity:1;fill-rule:evenodd;stroke:none;stroke-width:2;stroke-linecap:square;stroke-miterlimit:4;stroke-dasharray:16, 16;stroke-dashoffset:0;stroke-opacity:1;paint-order:normal" /></g></svg>
