<?xml version="1.0" encoding="UTF-8" standalone="no"?>
<svg
   xmlns:dc="http://purl.org/dc/elements/1.1/"
   xmlns:cc="http://creativecommons.org/ns#"
   xmlns:rdf="http://www.w3.org/1999/02/22-rdf-syntax-ns#"
   xmlns:svg="http://www.w3.org/2000/svg"
   xmlns="http://www.w3.org/2000/svg"
   xmlns:sodipodi="http://sodipodi.sourceforge.net/DTD/sodipodi-0.dtd"
   xmlns:inkscape="http://www.inkscape.org/namespaces/inkscape"
   version="1.1"
   id="Layer_1"
   x="0px"
   y="0px"
   width="592.15802"
   height="592.1582"
   viewBox="0 0 592.15802 592.1582"
   enable-background="new 0 0 610 600"
   xml:space="preserve"
   sodipodi:docname="Israel_road_sign 440.svg"
   inkscape:version="1.0 (4035a4fb49, 2020-05-01)"><metadata
   id="metadata8642"><rdf:RDF><cc:Work
       rdf:about=""><dc:format>image/svg+xml</dc:format><dc:type
         rdf:resource="http://purl.org/dc/dcmitype/StillImage" /><dc:title /></cc:Work></rdf:RDF></metadata><defs
   id="defs8640"><path
     d="M 500,-207.10678 V 207.10678 L 207.10678,500 H -207.10678 L -500,207.10678 V -207.10678 L -207.10678,-500 h 414.21356 z"
     id="Oct" /><pattern
     y="0"
     x="0"
     height="6"
     width="6"
     patternUnits="userSpaceOnUse"
     id="EMFhbasepattern" /><pattern
     y="0"
     x="0"
     height="6"
     width="6"
     patternUnits="userSpaceOnUse"
     id="EMFhbasepattern-0" /><pattern
     y="0"
     x="0"
     height="6"
     width="6"
     patternUnits="userSpaceOnUse"
     id="EMFhbasepattern-8" /><pattern
     y="0"
     x="0"
     height="6"
     width="6"
     patternUnits="userSpaceOnUse"
     id="EMFhbasepattern-3" /><pattern
     y="0"
     x="0"
     height="6"
     width="6"
     patternUnits="userSpaceOnUse"
     id="EMFhbasepattern-1" /><pattern
     id="EMFhbasepattern-80"
     patternUnits="userSpaceOnUse"
     width="6"
     height="6"
     x="0"
     y="0" /><pattern
     id="EMFhbasepattern-4"
     patternUnits="userSpaceOnUse"
     width="6"
     height="6"
     x="0"
     y="0" /><pattern
     id="EMFhbasepattern-33"
     patternUnits="userSpaceOnUse"
     width="6"
     height="6"
     x="0"
     y="0" /><pattern
     y="0"
     x="0"
     height="6"
     width="6"
     patternUnits="userSpaceOnUse"
     id="EMFhbasepattern-88" /><pattern
     id="EMFhbasepattern-5"
     patternUnits="userSpaceOnUse"
     width="6"
     height="6"
     x="0"
     y="0" /><pattern
     id="EMFhbasepattern-800"
     patternUnits="userSpaceOnUse"
     width="6"
     height="6"
     x="0"
     y="0" /><clipPath
     clipPathUnits="userSpaceOnUse"
     id="clipPath4693"><path
       d="m 336.7,484.45 h 71 v 69.472 h -71 z"
       clip-rule="evenodd"
       id="path4691" /></clipPath><clipPath
     clipPathUnits="userSpaceOnUse"
     id="clipPath4703"><path
       d="M 0,0 H 149.48 V 145.36 H 0 Z"
       id="path4701" /></clipPath><clipPath
     clipPathUnits="userSpaceOnUse"
     id="clipPath4721"><path
       d="m 339.85,392.12 h 67.827 v 67.1 H 339.85 Z"
       clip-rule="evenodd"
       id="path4719" /></clipPath><clipPath
     clipPathUnits="userSpaceOnUse"
     id="clipPath4731"><path
       d="M 0,0 H 94.773 V 93.289 H 0 Z"
       id="path4729" /></clipPath></defs><sodipodi:namedview
   pagecolor="#ffffff"
   bordercolor="#666666"
   borderopacity="1"
   objecttolerance="10"
   gridtolerance="10"
   guidetolerance="10"
   inkscape:pageopacity="0"
   inkscape:pageshadow="2"
   inkscape:window-width="1920"
   inkscape:window-height="1001"
   id="namedview8638"
   showgrid="false"
   inkscape:zoom="0.35355339"
   inkscape:cx="418.56057"
   inkscape:cy="721.16642"
   inkscape:window-x="-9"
   inkscape:window-y="-9"
   inkscape:window-maximized="1"
   inkscape:current-layer="Layer_1"
   inkscape:document-rotation="0"><sodipodi:guide
     position="-5.3896692,-7.8417958"
     orientation="0,610"
     id="guide8644"
     inkscape:locked="false" /><sodipodi:guide
     position="592.625,-7.8417958"
     orientation="-1,0"
     id="guide8646"
     inkscape:locked="false"
     inkscape:label=""
     inkscape:color="rgb(117,80,123)" /><sodipodi:guide
     position="8.2744356e-07,592.1582"
     orientation="0,-610"
     id="guide8648"
     inkscape:locked="false" /><sodipodi:guide
     position="8.2744356e-07,592.1582"
     orientation="600,0"
     id="guide8650"
     inkscape:locked="false" /><inkscape:grid
     type="xygrid"
     id="grid56807"
     originx="1.12931"
     originy="3.457" /></sodipodi:namedview>


<path
   style="color:#000000;font-style:normal;font-variant:normal;font-weight:normal;font-stretch:normal;font-size:medium;line-height:normal;font-family:sans-serif;font-variant-ligatures:normal;font-variant-position:normal;font-variant-caps:normal;font-variant-numeric:normal;font-variant-alternates:normal;font-variant-east-asian:normal;font-feature-settings:normal;font-variation-settings:normal;text-indent:0;text-align:start;text-decoration:none;text-decoration-line:none;text-decoration-style:solid;text-decoration-color:#000000;letter-spacing:normal;word-spacing:normal;text-transform:none;writing-mode:lr-tb;direction:ltr;text-orientation:mixed;dominant-baseline:auto;baseline-shift:baseline;text-anchor:start;white-space:normal;shape-padding:0;shape-margin:0;inline-size:0;clip-rule:nonzero;display:inline;overflow:visible;visibility:visible;opacity:1;isolation:auto;mix-blend-mode:normal;color-interpolation:sRGB;color-interpolation-filters:linearRGB;solid-color:#000000;solid-opacity:1;vector-effect:none;fill:#ffffff;fill-opacity:1;fill-rule:evenodd;stroke:none;stroke-width:4.99999;stroke-linecap:square;stroke-linejoin:miter;stroke-miterlimit:4;stroke-dasharray:none;stroke-dashoffset:0;stroke-opacity:1;paint-order:markers stroke fill;color-rendering:auto;image-rendering:auto;shape-rendering:auto;text-rendering:auto;enable-background:accumulate;stop-color:#000000;stop-opacity:1"
   d="m 300.72776,53.3874 c -137.58275,0 -249.17312,108.67882 -249.17311,242.66928 0,133.99047 111.59037,242.6672 249.17311,242.6672 137.58275,0 249.17527,-108.67673 249.17527,-242.66719 0,-133.99047 -111.59251,-242.66929 -249.17527,-242.66929 z m 0,5.35066 c 134.61351,0 243.68116,106.21988 243.68114,237.31863 0,131.09875 -109.06763,237.31654 -243.68114,237.31654 -134.61351,0 -243.679,-106.21779 -243.679,-237.31654 0,-131.09875 109.06548,-237.31863 243.679,-237.31863 z"
   id="path8916" /><path
   style="color:#000000;font-style:normal;font-variant:normal;font-weight:normal;font-stretch:normal;font-size:medium;line-height:normal;font-family:sans-serif;font-variant-ligatures:normal;font-variant-position:normal;font-variant-caps:normal;font-variant-numeric:normal;font-variant-alternates:normal;font-variant-east-asian:normal;font-feature-settings:normal;font-variation-settings:normal;text-indent:0;text-align:start;text-decoration:none;text-decoration-line:none;text-decoration-style:solid;text-decoration-color:#000000;letter-spacing:normal;word-spacing:normal;text-transform:none;writing-mode:lr-tb;direction:ltr;text-orientation:mixed;dominant-baseline:auto;baseline-shift:baseline;text-anchor:start;white-space:normal;shape-padding:0;shape-margin:0;inline-size:0;clip-rule:nonzero;display:inline;overflow:visible;visibility:visible;opacity:1;isolation:auto;mix-blend-mode:normal;color-interpolation:sRGB;color-interpolation-filters:linearRGB;solid-color:#000000;solid-opacity:1;vector-effect:none;fill:#ffffff;fill-opacity:1;fill-rule:evenodd;stroke:none;stroke-width:4.99999;stroke-linecap:square;stroke-linejoin:miter;stroke-miterlimit:4;stroke-dasharray:none;stroke-dashoffset:0;stroke-opacity:1;paint-order:markers stroke fill;color-rendering:auto;image-rendering:auto;shape-rendering:auto;text-rendering:auto;enable-background:accumulate;stop-color:#000000;stop-opacity:1"
   d="m 547.15596,296.05624 c 0,132.5446 -110.32934,239.99323 -246.42746,239.99323 -136.09813,0 -246.42746,-107.44863 -246.42746,-239.99323 -1e-5,-132.54462 110.32932,-239.99325 246.42746,-239.99325 136.09812,0 246.42746,107.44865 246.42746,239.99325 z"
   id="path8918" /><path
   style="color:#000000;font-style:normal;font-variant:normal;font-weight:normal;font-stretch:normal;font-size:medium;line-height:normal;font-family:sans-serif;font-variant-ligatures:normal;font-variant-position:normal;font-variant-caps:normal;font-variant-numeric:normal;font-variant-alternates:normal;font-variant-east-asian:normal;font-feature-settings:normal;font-variation-settings:normal;text-indent:0;text-align:start;text-decoration:none;text-decoration-line:none;text-decoration-style:solid;text-decoration-color:#000000;letter-spacing:normal;word-spacing:normal;text-transform:none;writing-mode:lr-tb;direction:ltr;text-orientation:mixed;dominant-baseline:auto;baseline-shift:baseline;text-anchor:start;white-space:normal;shape-padding:0;shape-margin:0;inline-size:0;clip-rule:nonzero;display:inline;overflow:visible;visibility:visible;opacity:1;isolation:auto;mix-blend-mode:normal;color-interpolation:sRGB;color-interpolation-filters:linearRGB;solid-color:#000000;solid-opacity:1;vector-effect:none;fill:#c0111e;fill-opacity:1;fill-rule:nonzero;stroke:none;stroke-width:70;stroke-linecap:butt;stroke-linejoin:miter;stroke-miterlimit:4;stroke-dasharray:none;stroke-dashoffset:0;stroke-opacity:1;color-rendering:auto;image-rendering:auto;shape-rendering:auto;text-rendering:auto;enable-background:accumulate;stop-color:#000000;stop-opacity:1"
   d="M 296.07802,0 C 132.97272,0 10e-6,132.97472 0,296.08008 0,459.18544 132.97272,592.15821 296.07802,592.15821 459.18332,592.15821 592.158,459.18545 592.158,296.08009 592.15798,132.97472 459.18332,0 296.07802,0 Z m 0,70 c 125.2745,0 226.07999,100.80553 226.08001,226.08008 0,125.27456 -100.8055,226.07814 -226.08,226.07814 -125.27451,0 -226.07806,-100.80359 -226.07806,-226.07814 C 69.99998,170.80553 170.80352,70 296.07802,70 Z"
   id="path8909" /><path
   id="rect3287"
   style="fill:#000000;fill-opacity:1;fill-rule:evenodd;stroke-width:5;stroke-linecap:square;paint-order:markers stroke fill"
   d="m 162.76606,198.83789 c -0.42915,-0.0125 -0.85683,-0.009 -1.2832,0.01 -5.16935,0.22872 -10.72454,3.37745 -13.43164,7.78711 -2.11791,3.44989 0.47708,9.53373 -0.67383,12.12109 -0.58296,1.31045 -5.25781,0.5293 -5.25781,0.5293 0,0 -1.90159,-3.14794 -5.09961,-4.27735 -4.16394,-1.47057 -10.15488,-0.85629 -13.19531,0.89258 -2.96581,1.70591 -7.25955,6.14373 -8.36524,10.59375 -1.29049,5.19378 0.86719,10.34766 0.86719,10.34766 0,0 -5.88845,-2.90089 -11.69726,-0.94727 -7.12313,2.39566 -14.43756,10.15399 -14.4375,15.66016 0,5.2883 5.7282,12.69762 12.60351,15.07226 5.93317,2.04929 13.15625,-0.57812 13.15625,-0.57812 0,0 3.48203,12.34891 8.64258,14.79883 6.73144,3.19568 22.08594,-3.4668 22.08594,-3.4668 0,0 10.8503,10.7937 17.6289,10.25586 7.55641,-0.59955 17.61133,-14.38867 17.61133,-14.38867 0,0 10.8809,7.81292 16.35742,5.9082 7.46566,-2.59649 12.93181,-12.26419 12.49219,-20.15625 -0.31933,-5.72677 -10.63281,-13.52734 -10.63281,-13.52734 0,0 5.7319,-3.20821 6.91992,-6.02539 2.00009,-4.74302 1.80915,-11.02093 -0.86719,-15.41797 -2.77032,-4.55147 -8.46647,-7.59173 -13.76758,-8.12891 -3.14867,-0.31907 -8.97656,3.0918 -8.97656,3.0918 0,0 -0.80027,-8.45351 -3.40429,-11.47657 -4.17812,-4.85049 -10.8381,-8.4905 -17.2754,-8.67773 z m 163.83985,10.14649 c -9.5418,0 -13.05584,8.64169 -17.22461,17.2246 l -22.36914,48.30079 c 0,0.0147 -9.9e-4,0.0286 -0.0254,0.043 -0.99672,1.15628 -3.68255,4.55213 -4.25391,5.40821 -1.29437,2.90908 -1.10156,6.32031 -1.10156,6.32031 l -0.0957,44.4043 c -0.0147,6.62201 5.17834,11.95531 11.65039,11.98828 v 26.99805 c 0,4.52391 3.87781,8.16796 8.4082,8.16796 h 11.00781 c 4.53014,0 7.76367,-3.64405 7.76367,-8.16796 V 342.67387 H 453.0434 v 26.99805 c 0,4.52391 3.87781,8.16796 8.4082,8.16796 h 10.35742 c 4.53039,0 8.41407,-3.64405 8.41407,-8.16796 v -27.04493 c 5.82476,-0.52148 11.00195,-5.64754 11.00195,-11.9414 v -40.38477 c 0,0 -0.002,-6.31268 -0.6543,-9.31445 -0.72959,-1.69192 -2.86375,-4.26392 -4.79687,-6.4336 l -22.14258,-48.34179 c -3.97319,-8.67516 -7.68476,-17.22657 -17.22656,-17.22656 z m 1.77539,14.67968 h 115.78711 c 5.42822,0 7.76193,4.8637 9.79687,9.79492 l 14.65039,35.50586 h -164.4707 l 14.43555,-35.50586 c 2.07059,-5.01778 4.37256,-9.79492 9.80078,-9.79492 z m -115.24219,59.9043 c -5.07168,0.16958 -10.6289,10.89648 -10.62891,10.89648 0,0 -3.32807,-5.10512 -5.9121,-6.4707 -2.56823,-1.35729 -6.01059,-2.49828 -8.625,-1.23242 -5.29618,2.56441 -8.88477,15.25586 -8.88477,15.25586 0,0 -5.75601,-1.11989 -8.13477,0.18164 -2.43544,1.33265 -4.17059,4.17496 -4.64648,6.91016 -0.55706,3.20235 0.20546,7.05073 2.38867,9.45898 2.30227,2.53977 9.67383,3.47656 9.67383,3.47656 0,0 -1.87258,4.24632 -1.79492,6.49024 0.10364,2.99531 0.74467,6.49996 2.99414,8.48046 2.97073,2.61551 7.75847,3.43477 11.60547,2.50391 2.92007,-0.70656 6.96484,-5.71484 6.96484,-5.71484 0,0 1.7245,3.76047 3.21094,5.12304 2.74681,2.51802 6.26063,5.57621 9.95508,5.08985 4.5257,-0.59579 10.16015,-9.17774 10.16015,-9.17774 0,0 6.71118,3.36954 10.32032,3.2793 4.6408,-0.11608 10.21138,-1.19584 13.04492,-4.87305 2.11313,-2.74221 1.90982,-6.98336 1.03906,-10.33398 -0.78053,-3.00346 -5.32031,-7.63867 -5.32031,-7.63867 0,0 4.92305,-13.08133 1.15625,-17.5918 -3.15974,-3.78365 -14.69336,-1.67578 -14.69336,-1.67578 0,0 -7.66602,-12.64503 -13.87305,-12.4375 z m 46.75977,56.3125 c -3.27711,0.002 -8.52344,4.89844 -8.52344,4.89844 0,0 -3.32941,-2.27797 -5.2168,-2.21485 -2.83263,0.0947 -6.01832,1.47926 -7.58398,3.8418 -1.72493,2.60275 -2.00511,6.53134 -0.64453,9.3418 1.17682,2.43118 6.6875,4.58009 6.6875,4.58007 0,0 -0.0501,4.25599 0.46875,6.29493 0.73661,2.8908 1.08967,6.68983 3.6875,8.15625 3.98114,2.24728 13.61914,-1.62305 13.61914,-1.62305 0,0 9.72596,0.40082 12.21679,-2.9707 2.08585,-2.82345 -0.63086,-10.51172 -0.63085,-10.51172 0,0 3.55767,-1.1705 4.56445,-2.60547 1.91109,-2.72379 2.79668,-6.69265 1.71094,-9.83789 -0.83805,-2.42765 -3.22529,-4.55083 -5.72071,-5.1582 -2.48389,-0.6046 -7.41601,1.94531 -7.41601,1.94531 0,0 -4.44622,-4.13842 -7.21875,-4.13672 z" /></svg>
