<?xml version="1.0" encoding="UTF-8" standalone="no"?>
<svg
   viewBox="0 0 568.125 497.228"
   height="497.228"
   width="568.125"
   xml:space="preserve"
   version="1.1"
   id="svg3522"
   sodipodi:docname="Israel road sign 136.svg"
   inkscape:version="1.1.2 (b8e25be833, 2022-02-05)"
   xmlns:inkscape="http://www.inkscape.org/namespaces/inkscape"
   xmlns:sodipodi="http://sodipodi.sourceforge.net/DTD/sodipodi-0.dtd"
   xmlns="http://www.w3.org/2000/svg"
   xmlns:svg="http://www.w3.org/2000/svg"
   xmlns:rdf="http://www.w3.org/1999/02/22-rdf-syntax-ns#"
   xmlns:cc="http://creativecommons.org/ns#"
   xmlns:dc="http://purl.org/dc/elements/1.1/"><sodipodi:namedview
     id="namedview11"
     pagecolor="#ffffff"
     bordercolor="#666666"
     borderopacity="1.0"
     inkscape:pageshadow="2"
     inkscape:pageopacity="0.0"
     inkscape:pagecheckerboard="true"
     showgrid="false"
     showguides="true"
     inkscape:guide-bbox="true"
     inkscape:snap-intersection-paths="true"
     inkscape:snap-smooth-nodes="true"
     inkscape:snap-bbox="true"
     inkscape:snap-bbox-edge-midpoints="true"
     inkscape:bbox-nodes="true"
     inkscape:zoom="0.70710678"
     inkscape:cx="299.10617"
     inkscape:cy="170.41273"
     inkscape:window-width="1920"
     inkscape:window-height="1001"
     inkscape:window-x="-9"
     inkscape:window-y="-9"
     inkscape:window-maximized="1"
     inkscape:current-layer="svg3522"
     width="568.125px"
     inkscape:snap-global="false" /><metadata
     id="metadata3528"><rdf:RDF><cc:Work
         rdf:about=""><dc:format>image/svg+xml</dc:format><dc:type
           rdf:resource="http://purl.org/dc/dcmitype/StillImage" /></cc:Work></rdf:RDF></metadata><defs
     id="defs3526" /><path
     id="rect2419"
     style="display:inline;fill:#ffffff;fill-opacity:1;stroke-width:1.41526;stroke-linecap:round"
     d="M 284.06233,42.768626 519.25791,454.45937 H 48.866745 Z"
     sodipodi:nodetypes="cccc" /><path
     id="path1287-2"
     style="display:inline;fill:#c0111e;fill-opacity:1;fill-rule:nonzero;stroke:none;stroke-width:0.859147"
     d="M 284.06233,4.5425685e-4 C 277.94091,-0.04336226 271.21873,3.083666 267.92647,8.9396153 L 2.1975383,469.35001 C 0.66396013,472.48418 0.01976039,475.20891 0,478.32676 0,489.21753 8.9379258,497.228 18.874395,497.228 H 549.25027 c 9.93647,0 18.87439,-8.01047 18.87439,-18.90124 -0.0197,-3.11785 -0.66396,-5.84258 -2.19753,-8.97675 L 300.19819,8.9396153 C 296.90594,3.083666 290.18376,-0.04336226 284.06233,4.5425685e-4 Z M 283.78714,91.251306 l 0.27519,0.476559 0.2752,-0.476559 L 487.1272,442.24256 H 80.997471 Z"
     sodipodi:nodetypes="cccccccccccccccc" /><path
     style="display:inline;fill:#000000;fill-opacity:1;stroke-width:0.552775"
     d="m 327.5409,233.3511 c 0,0 9.41897,-8.4246 9.41897,-17.8452 0,-9.41901 -6.94277,-13.38515 -12.39398,-13.38515 -5.45284,0 -16.09455,4.46333 -15.98118,13.38515 0.11822,9.41736 6.5622,16.85407 6.5622,16.85407 l 0.27045,5.23259 c 0,0 -9.19387,1.21137 -16.13341,2.69969 -6.94114,1.4867 -14.37301,8.92343 -17.34964,18.83635 -2.97501,9.91454 -10.41173,37.17872 -14.37625,42.63156 -3.96453,5.45284 -3.96453,5.45284 -3.96453,5.45284 l -0.49718,5.45283 c 0,0 -11.40286,0.4972 -15.86294,0 -4.46009,-0.49718 -9.91455,-3.96614 -9.91455,-6.44396 0,-2.47782 2.98959,-4.53782 3.87221,-5.42207 0.88263,-0.88262 2.29644,-4.59126 2.29644,-8.47967 0,-3.88678 -1.5871,-11.65874 -10.77611,-11.65874 -9.18577,0 -11.30407,6.00671 -11.30407,12.54299 0,6.53628 6.00508,8.83272 6.00508,11.30568 0,2.47297 0,4.06332 -1.23567,4.23984 -1.23568,0.17652 -15.18924,6.71118 -19.25417,23.14095 -4.06332,16.42653 -4.59289,30.73639 -4.59289,30.73639 0,0 -3.18069,2.29807 -3.35721,3.35883 -0.17491,1.05915 0.70772,4.06008 3.35721,4.94593 2.64949,0.88101 6.00671,0.88101 6.00671,-1.94339 0,-2.82763 -0.70773,-5.47712 -0.70773,-5.47712 0,0 2.82765,-5.65042 4.94594,-11.30408 2.11992,-5.65365 3.88517,-16.95935 3.88517,-16.95935 0,0 3.35559,-4.06493 3.35559,-0.70933 0,3.35721 2.11992,48.93464 2.11992,54.23362 0,5.29899 -0.7061,10.95103 -1.41382,13.77866 -0.70772,2.82602 -1.06076,4.41798 -1.06076,4.41798 0,0 -6.5379,3.00254 -6.18324,5.47551 0.35467,2.47297 2.12154,6.71281 8.12825,3.53374 6.00508,-3.17907 9.5372,-7.94848 9.5372,-7.94848 l 5.83018,-41.69226 5.47712,39.57072 7.24239,7.7752 c 0,0 2.82601,2.1183 5.29898,2.1183 2.47135,0 5.47552,-0.88263 5.47552,-3.17907 0,-2.29483 -7.77196,-7.9501 -7.77196,-7.9501 0,0 1.58873,-37.4508 1.58873,-49.46259 0,-12.01179 -0.7061,-30.38496 -0.7061,-30.38496 0,0 5.12084,-3.88354 9.53558,-4.76616 4.41636,-0.88425 5.65365,-2.47298 5.65365,-2.47298 0,0 4.2366,1.58873 6.18162,0 1.945,-1.59035 3.53373,-5.12246 3.71187,-6.88933 0.17653,-1.76687 -0.35305,-3.18068 -0.35305,-3.18068 0,0 7.94849,-12.53974 10.24492,-18.1934 2.29645,-5.65365 4.06332,-13.07255 4.06332,-13.07255 0,0 0.35305,-1.76687 1.58872,-1.76687 1.2373,0 2.47298,3.88679 3.18069,4.59288 0.70772,0.7061 0.88425,1.76687 0.88425,1.76687 0,0 0.17328,42.92469 0.70609,47.16453 0.53282,4.23983 1.05915,32.67654 1.76687,47.51596 0.70772,14.84105 3.17907,37.80224 3.17907,37.80224 0,0 -5.29899,4.59451 -5.47713,6.89095 -0.17328,2.29644 3.35559,3.17906 7.06585,3.00254 3.71026,-0.17653 12.01341,-9.18577 12.01341,-9.18577 0,0 -0.17814,-13.24585 -0.17814,-18.54645 0,-5.30061 -1.41382,-12.01341 -1.41382,-21.90528 0,-9.89349 0.88262,-15.54714 1.76687,-22.78791 0.88748,-7.244 4.06655,-14.48637 4.06655,-14.48637 0,0 4.94432,22.08018 5.65042,35.85884 0.70771,13.78028 0.70771,40.45497 0.70771,40.45497 0,0 5.29899,4.94756 6.53628,6.00508 1.23568,1.06078 4.41636,4.23984 6.71443,4.23984 2.29482,0 7.06585,-0.70448 7.06585,-3.71026 0,-3.00578 -6.18485,-8.6562 -6.18485,-8.6562 0,0 1.23729,-13.4256 1.41382,-15.5439 0.17652,-2.12153 -0.17653,-24.55316 0,-37.27429 0.17652,-12.71951 1.59034,-49.63588 1.94339,-58.29207 0.35467,-8.6562 0.88263,-21.3757 0.88263,-21.3757 l 1.76849,-2.12154 c 0,0 7.77357,13.60375 8.83272,18.37316 1.05915,4.76941 2.8244,25.79045 2.64949,27.91198 -0.17652,2.11992 0.17491,4.23984 0.17491,4.23984 l 0.70771,1.23729 c 0,0 -0.35305,1.41382 -1.76524,2.82601 -1.41382,1.41383 -3.00255,6.71443 2.82603,6.71443 5.82856,0 4.94432,-2.12153 4.94432,-4.59288 0,-2.47459 -1.05754,-3.53374 -1.05754,-3.53374 l 1.76525,-3.53374 c 0,0 0,-22.25833 0,-28.2634 0,-6.00509 -5.47388,-30.73801 -8.30154,-37.98039 -2.82763,-7.24238 -6.18161,-16.0751 -8.12662,-17.66545 -1.94177,-1.58872 -8.12824,-3.17907 -14.30985,-4.06331 -6.18162,-0.88262 -8.47968,0.88748 -8.47968,-0.87777 0,-1.76524 -0.38219,-3.33292 -0.38219,-3.33292 z"
     id="path5465" /></svg>
