<?xml version="1.0" encoding="UTF-8" standalone="no"?>
<svg
   inkscape:version="1.1.2 (b8e25be833, 2022-02-05)"
   sodipodi:docname="Israel_road_sign_617a.svg"
   viewBox="0 0 205.06337 74.788193"
   height="74.788193"
   width="205.06337"
   id="svg1205"
   version="1.1"
   xmlns:inkscape="http://www.inkscape.org/namespaces/inkscape"
   xmlns:sodipodi="http://sodipodi.sourceforge.net/DTD/sodipodi-0.dtd"
   xmlns="http://www.w3.org/2000/svg"
   xmlns:svg="http://www.w3.org/2000/svg"
   xmlns:rdf="http://www.w3.org/1999/02/22-rdf-syntax-ns#"
   xmlns:cc="http://creativecommons.org/ns#"
   xmlns:dc="http://purl.org/dc/elements/1.1/">
  <metadata
     id="metadata1211">
    <rdf:RDF>
      <cc:Work
         rdf:about="">
        <dc:format>image/svg+xml</dc:format>
        <dc:type
           rdf:resource="http://purl.org/dc/dcmitype/StillImage" />
      </cc:Work>
    </rdf:RDF>
  </metadata>
  <defs
     id="defs1209" />
  <sodipodi:namedview
     inkscape:current-layer="g1213"
     inkscape:window-maximized="1"
     inkscape:window-y="-9"
     inkscape:window-x="-9"
     inkscape:cy="40.700327"
     inkscape:cx="91.060199"
     inkscape:zoom="4.6068425"
     showgrid="false"
     id="namedview1207"
     inkscape:window-height="1001"
     inkscape:window-width="1920"
     inkscape:pageshadow="2"
     inkscape:pageopacity="0"
     guidetolerance="10"
     gridtolerance="10"
     objecttolerance="10"
     borderopacity="1"
     bordercolor="#666666"
     pagecolor="#ffffff"
     inkscape:pagecheckerboard="0" />
  <g
     transform="translate(0.4457831,-222.68169)"
     id="g1213"
     inkscape:label="Image"
     inkscape:groupmode="layer">
    <path
       style="opacity:1;fill:#070fdb;fill-opacity:1;stroke-width:0.230461"
       fill="#4a1c00"
       d="M 168.34664,222.68169 H -0.4457831 v 74.78819 H 168.34641 l 35.42583,-35.42561 c 0,0 0.84534,-0.88151 0.84534,-1.93795 0,-1.05667 -0.97347,-2.16887 -0.97347,-2.16887 z"
       id="path1379"
       sodipodi:nodetypes="cccccscc" />
    <path
       fill="#ffffff"
       d="m 201.62435,259.64701 c 0,-1.04883 -1.16568,-1.86513 -1.16568,-1.86513 l -33.47798,-32.08552 v -0.0814 L 8.857477,225.61451 c -3.03655,8e-4 -5.49719,2.46109 -5.49742,5.49811 v 58.5932 c 4.6e-4,3.0361 2.46087,5.49605 5.49742,5.49743 H 166.93783 v 0.005 l 0.005,-0.005 h 0.0376 v -0.0373 l 33.82713,-33.53721 c 2.4e-4,0 0.81676,-0.93314 0.81676,-1.98173 z m -7.90161,1.6319 -27.38965,31.83755 H 8.857477 c -1.88379,-0.003 -3.40782,-1.52749 -3.41152,-3.41106 v -58.59274 c 0.003,-1.88403 1.5275,-3.40852 3.41152,-3.41198 H 166.31143 l 27.41108,30.43105 c 0,0 0.466,0.58283 0.466,1.51528 4.6e-4,0.93245 -0.46577,1.6319 -0.46577,1.6319 z"
       id="path1381"
       style="opacity:1;stroke-width:0.230461"
       sodipodi:nodetypes="scccccccccccccsscccccccccc" />
    <g
       id="g1580"
       style="fill:#ffffff;fill-opacity:1"
       transform="matrix(0.40397043,0,0,0.40397043,-13.580783,60.1317)">
      <g
         style="fill:#ffffff"
         transform="translate(210.59999,463.43997)"
         id="use1578">
        <path
           style="fill:#ffffff;stroke:none"
           d="M 1.890625,-25.65625 1.875,-20.515625 H 5.796875 V 0.015625 L 10.8125,0 10.796875,-25.65625 Z m 0,0"
           id="path1747" />
      </g>
    </g>
    <g
       id="g1584"
       style="fill:#ffffff;fill-opacity:1"
       transform="matrix(0.40397043,0,0,0.40397043,-13.580783,60.1317)">
      <g
         style="fill:#ffffff"
         transform="translate(223.29358,463.43997)"
         id="use1582">
        <path
           style="fill:#ffffff;stroke:none"
           d="m 1.90625,-25.703125 0.03125,14.625 7.65625,0.01563 0.015625,-5.203125 h -2.59375 l 0.015625,-4.3125 h 9.015625 l 0.01563,15.40625 H 1.875 v 5.15625 h 14.265625 c 0.113281,0 0.226563,-0.0039063 0.34375,-0.015625 C 19.453125,-0.457031 21,-2.164063 21.125,-5.15625 l -0.03125,-20.546875 z m 0,0"
           id="path1751" />
      </g>
    </g>
    <g
       id="g1588"
       style="fill:#ffffff;fill-opacity:1"
       transform="matrix(0.40397043,0,0,0.40397043,-13.580783,60.1317)">
      <g
         style="fill:#ffffff"
         transform="translate(246.29756,463.43997)"
         id="use1586">
        <path
           style="fill:#ffffff;stroke:none"
           d="m 1.90625,-25.6875 -0.03125,5.15625 3.890625,-0.01563 v 7.78125 l 5.125,0.03125 0.01563,-12.953125 z m 0,0"
           id="path1755" />
      </g>
    </g>
    <g
       transform="matrix(0.40397043,0,0,0.40397043,-13.580783,63.76744)"
       id="g1596"
       style="fill:#ffffff;fill-opacity:1">
      <g
         style="fill:#ffffff"
         transform="translate(259.20001,463.43997)"
         id="use1594">
        <path
           style="fill:#ffffff;stroke:none"
           d="M 1.875,-20.484375 H 15.75 V -25.6875 H 1.875 Z m 0,0"
           id="path1759" />
      </g>
    </g>
    <g
       id="g1604"
       style="fill:#ffffff;fill-opacity:1"
       transform="matrix(0.40397043,0,0,0.40397043,-13.580783,60.1317)">
      <g
         style="fill:#ffffff"
         transform="translate(276.84,463.43997)"
         id="use1602">
        <path
           style="fill:#ffffff;stroke:none"
           d="M 2.609375,-25.6875 2.625,-20.578125 h 10.109375 l -0.01563,15.40625 H 1.875 V 0 h 18.015625 v -5.171875 h -2.0625 V -25.6875 Z m 0,0"
           id="path1763" />
      </g>
    </g>
    <g
       id="g1608"
       style="fill:#ffffff;fill-opacity:1"
       transform="matrix(0.40397043,0,0,0.40397043,-13.580783,60.1317)">
      <g
         style="fill:#ffffff"
         transform="translate(298.61475,463.43997)"
         id="use1606">
        <path
           style="fill:#ffffff;stroke:none"
           d="m 1.90625,-25.6875 -0.03125,5.15625 3.890625,-0.01563 v 7.78125 l 5.125,0.03125 0.01563,-12.953125 z m 0,0"
           id="path1767" />
      </g>
    </g>
    <g
       id="g1612"
       style="fill:#ffffff;fill-opacity:1"
       transform="matrix(0.40397043,0,0,0.40397043,-13.580783,60.1317)">
      <g
         style="fill:#ffffff"
         transform="translate(311.39615,463.43997)"
         id="use1610">
        <path
           style="fill:#ffffff;stroke:none"
           d="M 2.609375,-25.6875 2.625,-20.578125 h 10.109375 l -0.01563,15.40625 H 1.875 V 0 h 18.015625 v -5.171875 h -2.0625 V -25.6875 Z m 0,0"
           id="path1771" />
      </g>
    </g>
    <g
       id="g1616"
       style="fill:#ffffff;fill-opacity:1"
       transform="matrix(0.40397043,0,0,0.40397043,-13.580783,60.1317)">
      <g
         style="fill:#ffffff"
         transform="translate(333.1709,463.43997)"
         id="use1614">
        <path
           style="fill:#ffffff;stroke:none"
           d="m 1.875,-25.6875 5.359375,9 L 2.125,-12.921875 2.109375,0.015625 7.25,-0.015625 v -10.21875 L 9.859375,-12.25 17.078125,0 h 5.953125 l -5.3125,-8.984375 4.9375,-3.828125 0.01563,-12.859375 -5.09375,-0.01563 v 10.265625 l -2.515625,1.953125 -7.25,-12.234375 z m 0,0"
           id="path1775" />
      </g>
    </g>
    <g
       id="g1624"
       style="fill:#ffffff;fill-opacity:1"
       transform="matrix(0.40397043,0,0,0.40397043,-13.580783,60.1317)">
      <g
         style="fill:#ffffff"
         transform="translate(372.16104,463.43997)"
         id="use1622">
        <path
           style="fill:#ffffff;stroke:none"
           d="m 1.875,-30.796875 v 10.265625 l 11.5625,0.01563 v 10.98437 c -0.02344,0.5 -0.117187,0.992187 -0.28125,1.46875 C 11.925781,-5.363281 9.875,-4.367188 7,-5.078125 L 6.984375,0.0625 c 0.613281,0.113281 1.226563,0.171875 1.84375,0.171875 5.957031,-0.570313 9.207031,-3.835938 9.75,-9.796875 L 18.5625,-25.640625 7.109375,-25.625 7.09375,-30.78125 Z m 0,0"
           id="path1779" />
      </g>
    </g>
    <g
       id="g1628"
       style="fill:#ffffff;fill-opacity:1"
       transform="matrix(0.40397043,0,0,0.40397043,-13.580783,60.1317)">
      <g
         style="fill:#ffffff"
         transform="translate(392.61877,463.43997)"
         id="use1626">
        <path
           style="fill:#ffffff;stroke:none"
           d="m 2.40625,-25.703125 v 5.1875 h 1.3125 L 3.734375,-5.125 1.890625,-5.140625 1.875,0.015625 8.890625,0.03125 V -20.515625 H 14.71875 V 0 l 5.140625,0.015625 0.01563,-25.6875 z m 0,0"
           id="path1783" />
      </g>
    </g>
    <g
       id="g1636"
       style="fill:#ffffff;fill-opacity:1"
       transform="matrix(0.40397043,0,0,0.40397043,-11.580783,54.1317)">
      <g
         style="fill:#ffffff"
         transform="translate(289.41864,521.16003)"
         id="use1634">
        <path
           transform="matrix(2.4754287,0,0,2.4754287,-260.75124,-655.15919)"
           d="m 128.83398,257.48242 -1.21875,1.7793 0.65625,1.98242 h -3.3125 l -0.004,0.0215 v -0.0215 h -0.39649 c -0.31244,0 -0.53579,-0.0536 -0.66992,-0.16406 -0.13571,-0.10888 -0.22572,-0.30926 -0.27148,-0.59961 l -0.54883,-2.8418 -1.36328,1.99024 0.32812,1.61523 h -3.25781 l -0.002,0.0723 v -0.0723 h -0.39649 c -0.32033,0 -0.54638,-0.0525 -0.67578,-0.1582 -0.12624,-0.10415 -0.21513,-0.30565 -0.26562,-0.60547 l -0.55469,-2.8418 -1.35742,1.99024 0.32812,1.61523 h -7.02539 c -0.56493,0 -0.96522,-0.0889 -1.20508,-0.26562 -0.23985,-0.17674 -0.35937,-0.46825 -0.35937,-0.87696 0,-0.22723 0.0425,-0.44367 0.13086,-0.65039 0.0915,-0.20514 0.22373,-0.39478 0.39258,-0.56836 h -0.63086 c -0.40082,0.3377 -0.69924,0.725 -0.89649,1.16211 -0.19883,0.43395 -0.29687,0.91893 -0.29687,1.45703 0,0.97679 0.26201,1.74833 0.78906,2.31641 0.52548,0.56493 1.25527,0.8457 2.18945,0.8457 h 5.33399 c 0.3945,0 0.66612,-0.0467 0.81445,-0.14453 0.14676,-0.0963 0.29195,-0.30354 0.43555,-0.61914 l 0.625,-1.34961 h 0.1582 c 0.0915,0.61542 0.3214,1.12225 0.6875,1.52149 0.36926,0.39608 0.77691,0.59179 1.21875,0.59179 h 0.56055 v -0.0996 l 0.002,0.0996 h 1.67383 c 0.3945,0 0.66612,-0.0456 0.81445,-0.13867 0.14676,-0.0963 0.29308,-0.30466 0.44141,-0.625 l 0.61133,-1.34961 h 0.17187 c 0.0884,0.61542 0.31667,1.12225 0.6875,1.52149 0.36926,0.39608 0.77803,0.59179 1.22461,0.59179 h 0.55469 v -0.0273 l 0.004,0.0273 h 3.36329 c 0.18936,0 0.34949,-0.0456 0.48046,-0.13867 0.1294,-0.0915 0.23706,-0.23251 0.32227,-0.42187 l 0.95898,-2.3418 c 0.0331,-0.071 0.0577,-0.14113 0.0703,-0.20899 0.0158,-0.0663 0.0234,-0.14022 0.0234,-0.2207 0,-0.0158 -0.008,-0.0533 -0.0234,-0.11328 -0.0174,-0.0631 -0.0392,-0.13054 -0.0645,-0.20313 z m -17.06054,8.27539 -1.12305,1.61524 1.71094,1.17968 1.10351,-1.5957 z m 8.29101,0 -0.96093,1.4375 1.54687,1.0293 0.95899,-1.4082 z m 2.78907,0 -0.96485,1.4375 1.53906,1.0293 0.97266,-1.4082 z m 4.93945,0 -1.10547,1.61524 1.69141,1.17968 1.13086,-1.5957 z"
           style="fill:#ffffff;stroke:none;stroke-width:0.40397"
           id="path1703" />
      </g>
    </g>
    <g
       id="g1640"
       style="fill:#ffffff;fill-opacity:1"
       transform="matrix(0.40397043,0,0,0.40397043,-11.580783,54.1317)">
      <g
         style="fill:#ffffff"
         transform="translate(322.68881,521.16003)"
         id="use1638" />
    </g>
    <g
       id="g1644"
       style="fill:#ffffff;fill-opacity:1"
       transform="matrix(0.40397043,0,0,0.40397043,-11.580783,54.1317)">
      <g
         style="fill:#ffffff"
         transform="translate(337.99353,521.16003)"
         id="use1642" />
    </g>
    <g
       id="g1648"
       style="fill:#ffffff;fill-opacity:1"
       transform="matrix(0.40397043,0,0,0.40397043,-11.580783,54.1317)">
      <g
         style="fill:#ffffff"
         transform="translate(352.3967,521.16003)"
         id="use1646">
        <path
           style="fill:#ffffff;stroke:none"
           d="M 8.328125,-28.65625 V -7.734375 L 5.03125,0 h -1.25 V -25.3125 Z M 5.78125,-35.796875 c 0.5,0.03125 0.957031,0.105469 1.375,0.21875 0.414063,0.105469 0.804688,0.261719 1.171875,0.46875 V -34.5 h -0.71875 c -0.417969,0 -0.804687,0.109375 -1.15625,0.328125 -0.34375,0.21875 -0.75,0.625 -1.21875,1.21875 l 1.9375,1.03125 2.875,-0.78125 -0.8125,1.984375 -6.953125,1.625 V -30.125 L 4.5,-31.15625 3.4375,-32.921875 c 0.238281,-0.875 0.539063,-1.535156 0.90625,-1.984375 0.375,-0.457031 0.851563,-0.753906 1.4375,-0.890625 z m 0,0"
           id="path1715" />
      </g>
    </g>
    <g
       id="g1656"
       style="fill:#ffffff;fill-opacity:1"
       transform="matrix(0.40397043,0,0,0.40397043,-11.580783,54.1317)">
      <g
         style="fill:#ffffff"
         transform="translate(375.94748,521.16003)"
         id="use1654">
        <path
           transform="matrix(2.4754287,0,0,2.4754287,-347.28008,-655.15919)"
           d="m 150.21875,253.08789 -1.85547,1.35156 v 12.04297 c -0.67381,0.30298 -1.26757,0.51829 -1.78516,0.64453 -0.51443,0.1294 -1.03311,0.19532 -1.55859,0.19532 -1.02728,0 -1.81151,-0.27162 -2.34961,-0.81446 -0.53494,-0.54283 -0.80078,-1.33201 -0.80078,-2.36719 0,-0.18936 0.013,-0.38815 0.043,-0.5996 0.0331,-0.21461 0.0834,-0.45785 0.14648,-0.73243 h -0.49804 c -0.2367,0.52706 -0.41448,1.03501 -0.53125,1.52735 -0.11835,0.49234 -0.17578,0.98617 -0.17578,1.47851 0,1.35867 0.34894,2.46196 1.05273,3.3125 0.70695,0.85371 1.63058,1.28125 2.77148,1.28125 1.51489,0 2.77028,-0.64781 3.76758,-1.94336 1.00046,-1.29712 1.50391,-2.96436 1.50391,-5 v -0.32812 h 0.16406 c 0.0963,0.51443 0.26022,0.8937 0.49219,1.13672 0.23039,0.24459 0.54337,0.37484 0.93945,0.39062 v -0.0703 l 0.01,0.0703 h 4.18554 c 0.18937,0 0.34755,-0.0456 0.47852,-0.13867 0.1294,-0.0915 0.23593,-0.23251 0.31641,-0.42187 l 0.97265,-2.35547 c 0.0284,-0.0663 0.0499,-0.13332 0.0625,-0.20117 0.0158,-0.071 0.0254,-0.14226 0.0254,-0.21485 0,-0.0205 -0.01,-0.0592 -0.0254,-0.11914 -0.0126,-0.0584 -0.0341,-0.12468 -0.0625,-0.19727 l -1.26367,-3.5332 -1.21875,1.7793 0.6582,1.98242 h -4.1289 l -0.004,0.0254 v -0.0254 h -0.58594 c -0.31244,0 -0.51394,-0.0375 -0.60546,-0.11328 -0.0931,-0.0757 -0.14063,-0.32169 -0.14063,-0.73828 z m 2.8125,1.04297 -0.9707,1.4375 1.54492,1.04297 0.9668,-1.43945 z m 2.77734,0 -0.95898,1.4375 1.54687,1.04297 0.95899,-1.43945 z"
           style="fill:#ffffff;stroke:none;stroke-width:0.40397"
           id="path1719" />
      </g>
    </g>
    <g
       id="g1660"
       style="fill:#ffffff;fill-opacity:1"
       transform="matrix(0.40397043,0,0,0.40397043,-11.580783,54.1317)">
      <g
         style="fill:#ffffff"
         transform="translate(403.83023,521.16003)"
         id="use1658" />
    </g>
    <g
       id="g1664"
       style="fill:#ffffff;fill-opacity:1"
       transform="matrix(0.40397043,0,0,0.40397043,-11.580783,54.1317)">
      <g
         style="fill:#ffffff"
         transform="translate(256.32001,521.16003)"
         id="use1662">
        <path
           style="fill:#ffffff;stroke:none"
           d="m 3.296875,-13.109375 h 15.3125 v 3.515625 h -15.3125 z m 0,0"
           id="path1727" />
      </g>
    </g>
    <g
       id="g1672"
       style="fill:#ffffff;fill-opacity:1"
       transform="matrix(0.40397043,0,0,0.40397043,-11.580783,54.1317)">
      <g
         style="fill:#ffffff"
         transform="translate(190.8,521.16003)"
         id="use1670">
        <path
           transform="matrix(2.4754287,0,0,2.4754287,-162.1326,-655.15919)"
           d="m 71.138672,252.8418 -0.958984,1.42187 1.544921,1.02735 0.960938,-1.40625 z m -3.021484,0.24609 -1.857422,1.35156 v 7.54883 c 0,0.89315 0.178901,1.56281 0.537109,2.00781 0.35663,0.44658 0.895662,0.66797 1.615234,0.66797 h 0.416016 0.002 5.34375 c 0.795317,0 1.392155,-0.28573 1.792969,-0.86328 0.40397,-0.57597 0.605469,-1.42836 0.605469,-2.55664 0,-1.679 -0.294215,-3.11442 -0.882813,-4.31055 -0.585441,-1.19928 -1.229426,-1.80078 -1.931641,-1.80078 -0.274573,0 -0.561131,0.1027 -0.859374,0.30469 -0.299822,0.20199 -0.573691,0.48434 -0.826172,0.8457 -0.287198,0.39608 -0.511669,0.80982 -0.675782,1.24219 -0.160956,0.42922 -0.240234,0.8154 -0.240234,1.15625 0,0.51443 0.170869,0.9431 0.511719,1.28711 0.34085,0.34085 0.765693,0.51172 1.27539,0.51172 0.34085,0 0.687542,-0.0793 1.041016,-0.24024 0.353474,-0.15937 0.670661,-0.37964 0.953125,-0.66211 0.113617,0.29983 0.209412,0.58443 0.285156,0.85743 0.07574,0.27457 0.138957,0.54349 0.189453,0.80859 h -6.582031 -0.002 -0.710937 z m 4.964843,4.5332 c 0.164113,0 0.362908,0.082 0.59961,0.2461 0.239857,0.16095 0.473938,0.37739 0.701171,0.65039 -0.198828,0.0884 -0.381558,0.15541 -0.548828,0.20117 -0.168847,0.0426 -0.327854,0.0625 -0.474609,0.0625 -0.274573,0 -0.514734,-0.0467 -0.724609,-0.14453 -0.211453,-0.10099 -0.382322,-0.24844 -0.511719,-0.44727 0.113617,-0.172 0.25881,-0.30916 0.435547,-0.41015 0.176737,-0.10415 0.349856,-0.15821 0.523437,-0.15821 z"
           style="fill:#ffffff;stroke:none;stroke-width:0.40397"
           id="path1731" />
      </g>
    </g>
    <g
       id="g1676"
       style="fill:#ffffff;fill-opacity:1"
       transform="matrix(0.40397043,0,0,0.40397043,-11.580783,54.1317)">
      <g
         style="fill:#ffffff"
         transform="translate(199.04607,521.16003)"
         id="use1674" />
    </g>
    <g
       id="g1680"
       style="fill:#ffffff;fill-opacity:1"
       transform="matrix(0.40397043,0,0,0.40397043,-11.580783,54.1317)">
      <g
         style="fill:#ffffff"
         transform="translate(220.11205,521.16003)"
         id="use1678">
        <path
           transform="matrix(2.4754287,0,0,2.4754287,-191.44465,-655.15919)"
           d="m 79.957031,253.08789 -1.855469,1.35156 v 7.54883 c 0,0.89315 0.178902,1.56281 0.53711,2.00781 0.35663,0.44658 0.895662,0.66797 1.615234,0.66797 h 0.416016 4.183594 c 0.189361,0 0.349493,-0.0456 0.480468,-0.13867 0.129397,-0.0915 0.233975,-0.23251 0.314454,-0.42187 l 0.972656,-2.35547 c 0.0284,-0.0663 0.04988,-0.13332 0.0625,-0.20117 0.01578,-0.071 0.02539,-0.14226 0.02539,-0.21485 0,-0.0205 -0.0096,-0.0592 -0.02539,-0.11914 -0.01262,-0.0584 -0.0341,-0.12468 -0.0625,-0.19727 l -1.261719,-3.5332 -1.21875,1.7793 0.65625,1.98242 h -4.126953 -0.712891 z m 2.189453,12.66992 -0.972656,1.4375 1.546875,1.0293 0.964844,-1.4082 z m 2.777344,0 -0.958984,1.4375 1.544922,1.0293 0.960937,-1.4082 z"
           style="fill:#ffffff;stroke:none;stroke-width:0.40397"
           id="path1739" />
      </g>
    </g>
    <g
       id="g1684"
       style="fill:#ffffff;fill-opacity:1"
       transform="matrix(0.40397043,0,0,0.40397043,-11.580783,54.1317)">
      <g
         style="fill:#ffffff"
         transform="translate(228.35812,521.16003)"
         id="use1682" />
    </g>
    <path
       id="path1690"
       d="m 63.614244,274.47676 h -3.454502 v -2.07963 h 9.277211 v 2.07963 h -3.455884 v 9.43676 h -2.366825 z m 12.604088,4.255 c -0.02214,-0.19283 -0.06378,-0.38428 -0.127637,-0.57574 -0.06516,-0.19284 -0.160938,-0.36348 -0.288564,-0.51193 -0.127649,-0.14983 -0.289967,-0.27192 -0.488357,-0.36904 -0.196999,-0.0958 -0.439786,-0.1429 -0.72697,-0.1429 -0.277468,0 -0.517485,0.0416 -0.720036,0.12764 -0.202554,0.0846 -0.373197,0.19978 -0.511932,0.34406 -0.138732,0.14429 -0.245557,0.31216 -0.319092,0.50362 -0.07491,0.19144 -0.123476,0.39955 -0.144289,0.62429 z m 2.271085,2.68592 c -0.09566,0.28857 -0.23445,0.59518 -0.4162,0.91982 -0.180349,0.32602 -0.423137,0.6243 -0.726971,0.89622 -0.303836,0.27193 -0.677031,0.49529 -1.119588,0.67148 -0.442569,0.17619 -0.968378,0.2636 -1.576036,0.2636 -1.258322,0 -2.250283,-0.37735 -2.974483,-1.13485 -0.725579,-0.7575 -1.087678,-1.82854 -1.087678,-3.21449 0,-0.7464 0.09844,-1.39985 0.295498,-1.96033 0.19701,-0.5591 0.474478,-1.02804 0.831024,-1.40678 0.357948,-0.37875 0.783867,-0.66454 1.280526,-0.856 0.495291,-0.19145 1.047455,-0.28856 1.655113,-0.28856 0.682573,0 1.26943,0.12069 1.759167,0.36071 0.491117,0.24001 0.89068,0.5813 1.200056,1.02386 0.309378,0.44257 0.538297,0.97254 0.688128,1.59129 0.14845,0.61876 0.223366,1.29995 0.223366,2.04634 h -5.693691 c 0.0093,0.27748 0.04997,0.53968 0.119313,0.78385 0.06934,0.24557 0.176185,0.45923 0.320473,0.64097 0.144289,0.18034 0.335733,0.32463 0.575748,0.43146 0.240017,0.10679 0.541068,0.15954 0.903169,0.15954 0.245557,0 0.450893,-0.0291 0.615983,-0.0874 0.165101,-0.0596 0.303834,-0.13318 0.416201,-0.22474 0.110964,-0.0902 0.205336,-0.19145 0.280251,-0.30384 0.0735,-0.11096 0.137342,-0.21503 0.191457,-0.31215 z m 1.775818,-9.02055 h 2.239187 v 11.51639 h -2.239187 z m 13.082713,7.13375 h 2.91067 l -1.43869,-4.41454 h -0.0319 z m 0.14429,-7.13375 h 2.65539 l 4.094072,11.51639 h -2.526362 l -0.81577,-2.43062 h -4.19118 l -0.78386,2.43062 h -2.526359 z m 7.325212,3.16731 h 2.46394 l 1.7425,6.26944 h 0.0319 l 1.7439,-6.26944 h 2.46255 l -3.07021,8.34908 h -2.36682 z m 9.67677,-3.16731 h 2.23919 v 2.07963 h -2.23919 z m 0,3.16731 h 2.23919 v 8.34908 h -2.23919 z m 3.56688,0 h 2.46395 l 1.7425,6.26944 h 0.0319 l 1.7439,-6.26944 h 2.46258 l -3.07022,8.34908 h -2.36682 z m 9.18149,3.07022 h 4.28553 v 2.14345 h -4.28553 z m 9.13294,0.89622 -3.90262,-7.13375 h 2.84683 l 2.33492,4.91121 2.17537,-4.91121 h 2.75112 l -3.8388,7.13375 v 4.38264 h -2.36682 z m 12.49171,0.25666 c -0.30938,0.18036 -0.63957,0.30522 -0.99195,0.37459 -0.3524,0.0694 -0.67982,0.14428 -0.98363,0.22475 -0.30384,0.0791 -0.55773,0.19978 -0.76029,0.35932 -0.20254,0.16093 -0.30382,0.41621 -0.30382,0.7686 0,0.24417 0.10678,0.45505 0.32047,0.63124 0.21227,0.17619 0.51194,0.26359 0.89485,0.26359 0.57575,0 1.02387,-0.16787 1.34435,-0.50361 0.31908,-0.33573 0.48002,-0.82408 0.48002,-1.46365 z m 0.351,4.12598 c -0.0847,-0.13873 -0.15678,-0.32048 -0.21504,-0.54383 -0.0596,-0.22337 -0.0944,-0.39401 -0.10401,-0.51193 -0.10679,0.12762 -0.23446,0.26914 -0.38429,0.42452 -0.14984,0.15399 -0.32742,0.2955 -0.53553,0.42314 -0.20809,0.12763 -0.4481,0.23724 -0.72003,0.32742 -0.27192,0.0916 -0.58963,0.13596 -0.95172,0.13596 -0.85322,0 -1.50944,-0.22059 -1.96726,-0.66315 -0.45783,-0.44257 -0.68813,-1.09047 -0.68813,-1.94369 0,-0.46892 0.0721,-0.85599 0.21642,-1.15982 0.1443,-0.30383 0.33575,-0.55356 0.57575,-0.75056 0.24002,-0.19839 0.51194,-0.34961 0.81577,-0.45643 0.30383,-0.10679 0.61877,-0.18869 0.94341,-0.24835 0.32602,-0.0583 0.64789,-0.10957 0.96836,-0.15122 0.31909,-0.043 0.60765,-0.0957 0.86293,-0.16092 0.30938,-0.0735 0.5258,-0.14845 0.64789,-0.22338 0.1221,-0.0749 0.18452,-0.23446 0.18452,-0.48001 0,-0.29828 -0.11514,-0.51748 -0.34406,-0.65622 -0.22892,-0.13735 -0.54661,-0.20672 -0.95173,-0.20672 -0.32048,0 -0.57574,0.0346 -0.76859,0.10401 -0.19145,0.0694 -0.34268,0.15677 -0.45504,0.26359 -0.11236,0.10679 -0.19007,0.22893 -0.2317,0.36766 -0.043,0.13874 -0.0749,0.27747 -0.0958,0.4162 h -2.07965 c 0,-0.29967 0.0444,-0.61876 0.13597,-0.96005 0.0902,-0.34129 0.26359,-0.65621 0.51886,-0.9434 0.25666,-0.28856 0.61599,-0.52858 1.08074,-0.72004 0.46338,-0.19145 1.07937,-0.28856 1.84657,-0.28856 1.24723,0 2.14623,0.23308 2.69563,0.69644 0.54938,0.46338 0.82409,1.13347 0.82409,2.00751 v 4.17453 c 0,0.41621 0.0416,0.72004 0.12763,0.91149 0.0847,0.19145 0.20255,0.32465 0.351,0.39957 v 0.4162 z m 4.255,-6.74945 h -1.1515 v -1.59963 h 1.1515 v -0.84767 c 0,-0.27747 0.0291,-0.55771 0.0874,-0.83935 0.0597,-0.28301 0.17896,-0.53967 0.36072,-0.76858 0.18035,-0.22892 0.43424,-0.4162 0.75888,-0.55912 0.32603,-0.14427 0.75471,-0.21641 1.28746,-0.21641 0.21365,0 0.40787,0.003 0.58407,0.008 0.1762,0.006 0.33297,0.0125 0.4717,0.0236 v 1.82297 c -0.0735,-0.009 -0.1651,-0.0179 -0.27191,-0.0235 -0.10541,-0.006 -0.21227,-0.008 -0.3191,-0.008 -0.3302,0 -0.53274,0.0569 -0.60766,0.16787 -0.0749,0.11235 -0.11235,0.29134 -0.11235,0.53691 v 0.70338 h 1.40816 v 1.59963 h -1.40816 v 6.74945 h -2.23919 z m 6.97421,2.57491 c 0,0.30938 0.0361,0.61599 0.11097,0.91982 0.0749,0.30382 0.19007,0.57575 0.34407,0.81577 0.15538,0.24 0.35794,0.43423 0.60765,0.58407 0.25112,0.14844 0.55217,0.22337 0.90456,0.22337 0.351,0 0.65205,-0.0749 0.90316,-0.22337 0.25111,-0.14984 0.45367,-0.34407 0.60768,-0.58407 0.15536,-0.24002 0.26914,-0.51195 0.34405,-0.81577 0.0749,-0.30383 0.11235,-0.61044 0.11235,-0.91982 0,-0.32048 -0.0375,-0.63124 -0.11235,-0.93645 -0.0749,-0.30384 -0.18869,-0.57574 -0.34405,-0.81438 -0.15401,-0.24001 -0.35657,-0.43285 -0.60768,-0.57713 -0.25111,-0.1429 -0.55216,-0.21504 -0.90316,-0.21504 -0.35239,0 -0.65344,0.0721 -0.90456,0.21504 -0.24971,0.14428 -0.45227,0.33712 -0.60765,0.57713 -0.154,0.23864 -0.26915,0.51054 -0.34407,0.81438 -0.0749,0.30521 -0.11097,0.61597 -0.11097,0.93645 z m 1.96727,4.42982 c -0.64095,0 -1.22087,-0.10134 -1.74391,-0.30383 -0.52302,-0.20255 -0.97253,-0.49252 -1.35127,-0.87127 -0.37875,-0.37873 -0.67009,-0.84211 -0.87265,-1.39151 -0.20255,-0.54938 -0.30383,-1.16952 -0.30383,-1.86321 0,-0.69367 0.10135,-1.31381 0.30383,-1.8632 0.20256,-0.5494 0.4939,-1.01278 0.87265,-1.39152 0.37874,-0.37875 0.82825,-0.6687 1.35127,-0.87265 0.52304,-0.20255 1.10296,-0.30382 1.74391,-0.30382 0.63958,0 1.22087,0.10122 1.74251,0.30382 0.52304,0.20395 0.97392,0.4939 1.35128,0.87265 0.37875,0.37874 0.6701,0.84212 0.87265,1.39152 0.20255,0.54939 0.30382,1.16953 0.30382,1.8632 0,0.69369 -0.10121,1.31383 -0.30382,1.86321 -0.20255,0.5494 -0.4939,1.01278 -0.87265,1.39151 -0.37736,0.37875 -0.82824,0.66872 -1.35128,0.87127 -0.52164,0.20255 -1.10293,0.30383 -1.74251,0.30383 z m 0,0"
       style="fill:#ffffff;fill-opacity:1;fill-rule:nonzero;stroke:none;stroke-width:0.355161" />
    <g
       id="g2015"
       transform="matrix(0.1842201,0,0,0.1842201,17.024854,248.20162)">
      <path
         id="rect7087"
         style="opacity:1;fill:#ffffff;fill-opacity:1;fill-rule:nonzero;stroke:none;stroke-width:0.999999;stroke-linejoin:miter;stroke-miterlimit:4;stroke-dasharray:none;stroke-opacity:1"
         d="m 90.5,0.5 c -49.859999,0 -90,40.140001 -90,90 v 320 c 0,49.86002 40.140001,90 90,90 h 506 c 49.86002,0 90,-40.13998 90,-90 v -320 c 0,-49.859999 -40.13998,-90 -90,-90 z"
         transform="scale(0.26458334)" />
      <path
         style="opacity:1;fill:#070fdb;fill-opacity:1;fill-rule:nonzero;stroke:none;stroke-width:0.132292;stroke-linejoin:miter;stroke-miterlimit:4;stroke-dasharray:none;stroke-opacity:1"
         d="m 23.944793,8.0697922 c -8.79475,0 -15.8750008,7.0802508 -15.8750008,15.8750008 v 84.666667 c 0,8.79475 7.0802508,15.875 15.8750008,15.875 H 157.82396 c 8.79475,0 15.875,-7.08025 15.875,-15.875 V 23.944793 c 0,-8.79475 -7.08025,-15.8750008 -15.875,-15.8750008 z m 66.939585,9.7895838 64.822922,7.9375 7.9375,40.481251 -7.9375,40.481253 -64.822922,7.9375 -65.352085,-7.9375 -7.408334,-40.481253 7.408334,-40.481251 z"
         id="rect7162" />
      <g
         id="text7197"
         style="font-style:normal;font-variant:normal;font-weight:bold;font-stretch:normal;font-size:74.7402px;line-height:125%;font-family:Helvetica;-inkscape-font-specification:'Helvetica Bold';text-align:center;letter-spacing:0px;word-spacing:0px;writing-mode:lr-tb;text-anchor:middle;fill:#0000fe;fill-opacity:1;stroke:none;stroke-width:0.264583px;stroke-linecap:butt;stroke-linejoin:miter;stroke-opacity:1"
         aria-label="2">
        <path
           id="path902"
           style="font-style:normal;font-variant:normal;font-weight:bold;font-stretch:normal;font-family:Helvetica;-inkscape-font-specification:'Helvetica Bold';fill:#0000fe;fill-opacity:1;stroke-width:0.264583px"
           d="m 72.637232,92.736465 q 0.145977,-5.693103 2.445115,-10.400862 2.226149,-5.291667 10.510345,-11.203737 7.189369,-5.14569 9.306035,-7.371839 3.247989,-3.466954 3.247989,-7.590805 0,-3.357472 -1.861207,-5.583621 -1.861207,-2.22615 -5.328161,-2.22615 -4.744253,0 -6.459483,3.539943 -0.985345,2.043678 -1.167816,6.495977 H 73.22114 q 0.25546,-6.751437 2.445115,-10.911782 4.160345,-7.919253 14.780173,-7.919253 8.393679,0 13.356902,4.671264 4.96321,4.634771 4.96321,12.298564 0,5.875575 -3.50344,10.437357 -2.29914,3.029024 -7.554315,6.751438 l -4.160345,2.956034 q -3.904885,2.773564 -5.364656,4.014368 -1.423275,1.240805 -2.40862,2.883046 h 23.100866 v 9.160058 z" />
      </g>
    </g>
  </g>
</svg>
