<?xml version="1.0" encoding="UTF-8" standalone="no"?>
<!-- Created with Inkscape (http://www.inkscape.org/) -->

<svg
   width="600.10114"
   height="369.3259"
   viewBox="0 0 158.77675 97.717481"
   version="1.1"
   id="svg32498"
   inkscape:version="1.2.2 (732a01da63, 2022-12-09)"
   sodipodi:docname="Israel_road_sign_614a.svg"
   xmlns:inkscape="http://www.inkscape.org/namespaces/inkscape"
   xmlns:sodipodi="http://sodipodi.sourceforge.net/DTD/sodipodi-0.dtd"
   xmlns="http://www.w3.org/2000/svg"
   xmlns:svg="http://www.w3.org/2000/svg">
  <sodipodi:namedview
     id="namedview32500"
     pagecolor="#ffffff"
     bordercolor="#000000"
     borderopacity="0.25"
     inkscape:showpageshadow="2"
     inkscape:pageopacity="0.0"
     inkscape:pagecheckerboard="0"
     inkscape:deskcolor="#d1d1d1"
     inkscape:document-units="px"
     showgrid="false"
     inkscape:zoom="1.4324916"
     inkscape:cx="229.66976"
     inkscape:cy="197.20884"
     inkscape:window-width="1920"
     inkscape:window-height="991"
     inkscape:window-x="-9"
     inkscape:window-y="-9"
     inkscape:window-maximized="1"
     inkscape:current-layer="g16369" />
  <defs
     id="defs32495" />
  <g
     inkscape:label="Layer 1"
     inkscape:groupmode="layer"
     id="layer1"
     transform="translate(-842.98517,-92.074881)">
    <path
       sodipodi:nodetypes="ccccc"
       id="path21578-4"
       d="m 843.06011,92.08811 -0.0617,97.69102 h 158.68829 l 0.062,-97.69102 z"
       style="color:#000000;font-style:normal;font-variant:normal;font-weight:normal;font-stretch:normal;font-size:medium;line-height:normal;font-family:sans-serif;font-variant-ligatures:normal;font-variant-position:normal;font-variant-caps:normal;font-variant-numeric:normal;font-variant-alternates:normal;font-variant-east-asian:normal;font-feature-settings:normal;font-variation-settings:normal;text-indent:0;text-align:start;text-decoration:none;text-decoration-line:none;text-decoration-style:solid;text-decoration-color:#000000;letter-spacing:normal;word-spacing:normal;text-transform:none;writing-mode:lr-tb;direction:ltr;text-orientation:mixed;dominant-baseline:auto;baseline-shift:baseline;text-anchor:start;white-space:normal;shape-padding:0;shape-margin:0;inline-size:0;clip-rule:nonzero;display:inline;overflow:visible;visibility:visible;isolation:auto;mix-blend-mode:normal;color-interpolation:sRGB;color-interpolation-filters:linearRGB;solid-color:#000000;solid-opacity:1;fill:#070fdb;fill-opacity:1;fill-rule:nonzero;stroke:none;stroke-width:0.0264583;stroke-linecap:butt;stroke-linejoin:miter;stroke-miterlimit:4;stroke-dasharray:none;stroke-dashoffset:0;stroke-opacity:1;color-rendering:auto;image-rendering:auto;shape-rendering:auto;text-rendering:auto;enable-background:accumulate;stop-color:#000000" />
    <path
       sodipodi:nodetypes="ssssssssssssssssss"
       id="path21580-5"
       d="m 849.98415,93.935219 c -2.79002,1.6e-5 -5.07413,2.286065 -5.07618,5.076016 l -0.0617,83.847245 c -0.002,2.78985 2.28616,5.07443 5.07618,5.07442 l 144.83997,-8.3e-4 c 2.79,-2e-5 5.07407,-2.28433 5.07607,-5.07423 l 0.062,-83.847077 c 0,-2.789739 -2.28612,-5.076391 -5.07608,-5.076375 z m 0,2.20722 144.83997,-8.31e-4 c 1.59705,-1.6e-5 2.86999,1.271784 2.8688,2.869171 l -0.0617,83.847061 c -10e-4,1.59753 -1.27175,2.86699 -2.8688,2.86699 l -144.83997,8.3e-4 c -1.59723,2e-5 -2.87013,-1.27003 -2.86896,-2.86718 l 0.0617,-83.847245 c 10e-4,-1.597273 1.27173,-2.86878 2.86896,-2.868796 z"
       style="color:#000000;font-style:normal;font-variant:normal;font-weight:normal;font-stretch:normal;font-size:medium;line-height:normal;font-family:sans-serif;font-variant-ligatures:normal;font-variant-position:normal;font-variant-caps:normal;font-variant-numeric:normal;font-variant-alternates:normal;font-variant-east-asian:normal;font-feature-settings:normal;font-variation-settings:normal;text-indent:0;text-align:start;text-decoration:none;text-decoration-line:none;text-decoration-style:solid;text-decoration-color:#000000;letter-spacing:normal;word-spacing:normal;text-transform:none;writing-mode:lr-tb;direction:ltr;text-orientation:mixed;dominant-baseline:auto;baseline-shift:baseline;text-anchor:start;white-space:normal;shape-padding:0;shape-margin:0;inline-size:0;clip-rule:nonzero;display:inline;overflow:visible;visibility:visible;isolation:auto;mix-blend-mode:normal;color-interpolation:sRGB;color-interpolation-filters:linearRGB;solid-color:#000000;solid-opacity:1;vector-effect:none;fill:#ffffff;fill-opacity:1;fill-rule:nonzero;stroke:none;stroke-width:2.20685;stroke-linecap:butt;stroke-linejoin:miter;stroke-miterlimit:4;stroke-dasharray:none;stroke-dashoffset:0;stroke-opacity:1;color-rendering:auto;image-rendering:auto;shape-rendering:auto;text-rendering:auto;enable-background:accumulate;stop-color:#000000" />
    <path
       d="m 863.9068,156.63961 0.82202,8.97431 -8.17414,-1.48455 c -0.40552,0.0838 -0.60672,0.19571 -0.7406,0.46111 -0.16752,0.35776 -0.22389,0.82475 0.0838,1.19661 l 11.14246,12.36839 c 0.14015,0.16754 0.62082,0.44467 0.98691,0.45015 0.35542,0.007 0.7968,-0.2513 0.96176,-0.44467 l 11.13887,-12.36565 c 0.34133,-0.4251 0.27949,-0.90586 0.11198,-1.17705 -0.14014,-0.2513 -0.45876,-0.46972 -0.73277,-0.48928 l -8.22048,1.48455 0.84989,-8.97431 z"
       style="fill:#ffffff;stroke-width:0.0284874;stroke-linecap:square;stroke-miterlimit:10;stroke-dasharray:none"
       id="rect25862-9-1" />
    <path
       d="m 974.15669,156.63961 0.82202,8.97431 -8.17414,-1.48455 c -0.40552,0.0838 -0.60672,0.19571 -0.7406,0.46111 -0.16752,0.35776 -0.22389,0.82475 0.0838,1.19661 l 11.14246,12.36839 c 0.14015,0.16754 0.62082,0.44467 0.98691,0.45015 0.35542,0.007 0.7968,-0.2513 0.96176,-0.44467 l 11.13887,-12.36565 c 0.34133,-0.4251 0.27949,-0.90586 0.11198,-1.17705 -0.14014,-0.2513 -0.45876,-0.46972 -0.73277,-0.48928 l -8.22048,1.48455 0.84989,-8.97431 z"
       style="fill:#ffffff;stroke-width:0.0284874;stroke-linecap:square;stroke-miterlimit:10;stroke-dasharray:none"
       id="path155047" />
    <g
       id="g16369"
       transform="matrix(1.6276953,0,0,1.6276953,10.084611,-129.68018)">
      <g
         id="g10986"
         transform="translate(0.01344468)">
        <path
           style="fill:#ffffff;fill-opacity:1;stroke:none;stroke-width:0.230436"
           d="m 533.5563,144.33595 -0.004,1.18459 h 0.90371 v 4.73115 l 1.15577,-0.004 -0.004,-5.91213 z m 0,0"
           id="path1747-1-7" />
        <path
           style="fill:#ffffff;fill-opacity:1;stroke:none;stroke-width:0.230436"
           d="m 537.70782,144.32515 0.007,3.37014 1.7643,0.004 0.004,-1.19897 h -0.5977 l 0.004,-0.99376 h 2.07753 l 0.004,3.55015 h -3.2693 v 1.1882 h 3.2873 c 0.0261,0 0.0522,-0.001 0.0793,-0.004 0.6841,-0.0981 1.04058,-0.49148 1.06936,-1.181 l -0.007,-4.73475 z m 0,0"
           id="path1751-0-5" />
        <path
           style="fill:#ffffff;fill-opacity:1;stroke:none;stroke-width:0.230436"
           d="m 543.52905,144.32875 -0.007,1.18818 0.89651,-0.004 v 1.79308 l 1.18102,0.007 0.004,-2.98487 z m 0,0"
           id="path1755-4-9" />
        <path
           style="fill:#ffffff;fill-opacity:1;stroke:none;stroke-width:0.230436"
           d="m 547.69141,147.60167 h 3.19732 v -1.19899 h -3.19732 z m 0,0"
           id="path1759-7-7" />
        <path
           style="fill:#ffffff;fill-opacity:1;stroke:none;stroke-width:0.230436"
           d="m 552.44324,144.32875 0.004,1.17739 h 2.32954 l -0.004,3.55016 h -2.49879 v 1.19178 h 4.15144 v -1.19178 h -0.47525 v -4.72755 z m 0,0"
           id="path1763-3-5" />
        <path
           style="fill:#ffffff;fill-opacity:1;stroke:none;stroke-width:0.230436"
           d="m 557.88832,144.32875 -0.008,1.18818 0.89655,-0.004 v 1.79308 l 1.18099,0.007 0.004,-2.98487 z m 0,0"
           id="path1767-1-3" />
        <path
           style="fill:#ffffff;fill-opacity:1;stroke:none;stroke-width:0.230436"
           d="m 561.5871,144.32875 0.004,1.17739 h 2.32959 l -0.004,3.55016 h -2.49878 v 1.19178 h 4.15143 v -1.19178 h -0.47525 v -4.72755 z m 0,0"
           id="path1771-2-4" />
        <path
           style="fill:#ffffff;fill-opacity:1;stroke:none;stroke-width:0.230436"
           d="m 567.02497,144.32875 1.23498,2.07393 -1.17741,0.86773 -0.004,2.98128 1.18457,-0.007 v -2.35478 l 0.60132,-0.46448 1.66344,2.82285 h 1.37184 l -1.22418,-2.07033 1.13776,-0.88213 0.004,-2.96328 -1.17378,-0.004 v 2.36555 l -0.5797,0.45008 -1.67065,-2.81924 z m 0,0"
           id="path1775-1-0" />
        <path
           style="fill:#ffffff;fill-opacity:1;stroke:none;stroke-width:0.230436"
           d="m 577.60934,143.15135 v 2.36558 l 2.6644,0.004 v 2.5312 c -0.005,0.1152 -0.0272,0.22864 -0.0648,0.33845 -0.28356,0.622 -0.75614,0.85153 -1.41863,0.6877 l -0.004,1.18461 c 0.14132,0.0262 0.28265,0.0396 0.42488,0.0396 1.37271,-0.13141 2.12165,-0.88395 2.24677,-2.25755 l -0.004,-3.70501 -2.63919,0.004 -0.004,-1.18819 z m 0,0"
           id="path1779-5-6" />
        <path
           style="fill:#ffffff;fill-opacity:1;stroke:none;stroke-width:0.230436"
           d="m 583.35289,144.32515 v 1.19539 h 0.30244 l 0.004,3.54656 -0.42488,-0.004 -0.004,1.18819 1.61666,0.004 v -4.73474 h 1.34302 v 4.72754 l 1.18457,0.004 0.004,-5.91935 z m 0,0"
           id="path1783-8-6" />
      </g>
      <g
         id="g10974"
         transform="translate(1.8947547)">
        <path
           d="m 566.3928,155.92052 -0.60851,0.88846 0.32768,0.98985 h -1.65404 l -0.004,0.0106 v -0.0106 h -0.198 c -0.15602,0 -0.26753,-0.0268 -0.33449,-0.082 -0.0678,-0.0543 -0.11268,-0.15441 -0.13555,-0.29939 l -0.27408,-1.41897 -0.68069,0.99378 0.16381,0.80651 h -1.62666 v 0.0362 -0.0362 h -0.19795 c -0.15996,0 -0.27285,-0.0262 -0.33745,-0.0789 -0.063,-0.052 -0.10736,-0.15263 -0.13261,-0.30233 l -0.27698,-1.41897 -0.67778,0.99377 0.16381,0.80651 h -3.50793 c -0.28208,0 -0.48192,-0.0443 -0.6017,-0.13259 -0.11972,-0.0883 -0.17943,-0.23381 -0.17943,-0.43789 0,-0.11348 0.0212,-0.22153 0.0653,-0.32476 0.0457,-0.10244 0.11174,-0.19713 0.19602,-0.2838 h -0.31498 c -0.20014,0.16863 -0.34916,0.36201 -0.44767,0.58028 -0.0993,0.21669 -0.14819,0.45883 -0.14819,0.72752 0,0.48773 0.13086,0.87297 0.39396,1.15664 0.2624,0.28207 0.62682,0.42226 1.09324,0.42226 h 2.66337 c 0.19702,0 0.33261,-0.0233 0.40668,-0.0721 0.0733,-0.0482 0.14578,-0.15155 0.2175,-0.30914 l 0.31207,-0.67389 h 0.0791 c 0.0456,0.30729 0.16047,0.56035 0.34328,0.75972 0.18438,0.19776 0.38793,0.29548 0.60856,0.29548 h 0.27987 v -0.0497 0.0497 h 0.83576 c 0.19697,0 0.33259,-0.0227 0.40667,-0.0692 0.0733,-0.0482 0.14634,-0.15211 0.22042,-0.31206 l 0.30524,-0.67389 h 0.0858 c 0.044,0.30728 0.15812,0.56035 0.34328,0.75971 0.18438,0.19777 0.3885,0.29548 0.61147,0.29548 h 0.27699 v -0.0136 l 0.004,0.0136 h 1.67937 c 0.0946,0 0.1745,-0.0227 0.23989,-0.0692 0.0645,-0.0457 0.11838,-0.11611 0.16094,-0.21064 l 0.47884,-1.1693 c 0.0166,-0.0355 0.0289,-0.0704 0.0352,-0.1043 0.008,-0.0331 0.0119,-0.07 0.0119,-0.11015 0,-0.008 -0.004,-0.0266 -0.0119,-0.0566 -0.009,-0.0315 -0.0197,-0.0651 -0.0323,-0.10137 z m -8.51869,4.13208 -0.56074,0.80653 0.85429,0.58903 0.55102,-0.79677 z m 4.13989,0 -0.4798,0.71778 0.77239,0.51394 0.47884,-0.70314 z m 1.39265,0 -0.48176,0.71778 0.76847,0.51394 0.48566,-0.70314 z m 2.46637,0 -0.55196,0.80653 0.84455,0.58903 0.56466,-0.79677 z"
           style="fill:#ffffff;fill-opacity:1;stroke:none;stroke-width:0.20171"
           id="path1703-9-4" />
        <path
           style="fill:#ffffff;fill-opacity:1;stroke:none;stroke-width:0.20171"
           d="m 569.46489,153.72663 v 4.22017 l -0.66501,1.56011 h -0.25213 v -5.10581 z m -0.51371,-1.44034 c 0.10078,0.007 0.19304,0.0213 0.27735,0.044 0.0836,0.0213 0.16233,0.0528 0.23636,0.0946 v 0.1229 h -0.14496 c -0.0842,0 -0.16231,0.0221 -0.23323,0.0661 -0.0694,0.044 -0.15127,0.12609 -0.24582,0.24582 l 0.39081,0.20801 0.57989,-0.15757 -0.16388,0.40027 -1.40253,0.32777 v -0.20802 l 0.44757,-0.20801 -0.2143,-0.35616 c 0.0481,-0.1765 0.10868,-0.30966 0.18279,-0.40025 0.0755,-0.0922 0.17176,-0.15208 0.28995,-0.17965 z m 0,0"
           id="path1715-8-5" />
        <path
           d="m 579.8831,153.72624 -0.9265,0.67486 v 6.01332 c -0.33643,0.15128 -0.63293,0.25877 -0.89135,0.32183 -0.25688,0.0645 -0.51585,0.0975 -0.77825,0.0975 -0.51293,0 -0.90452,-0.13562 -1.17321,-0.40668 -0.2671,-0.27104 -0.39985,-0.66509 -0.39985,-1.18199 0,-0.0946 0.007,-0.1938 0.0214,-0.29939 0.0165,-0.10709 0.0416,-0.22861 0.0732,-0.36572 h -0.2487 c -0.11825,0.26317 -0.20695,0.5168 -0.26526,0.76263 -0.0592,0.24585 -0.0879,0.49243 -0.0879,0.73827 0,0.6784 0.17426,1.2293 0.52567,1.654 0.35298,0.42627 0.81418,0.63975 1.38386,0.63975 0.75642,0 1.38325,-0.32347 1.88122,-0.97035 0.49955,-0.64769 0.75094,-1.48019 0.75094,-2.49662 v -0.16384 h 0.0819 c 0.0482,0.25687 0.12995,0.44625 0.24578,0.56759 0.11506,0.12212 0.27133,0.18717 0.46909,0.19504 v -0.0351 l 0.005,0.0351 h 2.08991 c 0.0946,0 0.17355,-0.0227 0.23895,-0.0692 0.0645,-0.0457 0.11785,-0.11613 0.15798,-0.21064 l 0.48565,-1.17613 c 0.014,-0.0331 0.025,-0.0666 0.0313,-0.10038 0.008,-0.0354 0.0132,-0.0711 0.0132,-0.10722 0,-0.0106 -0.005,-0.0296 -0.0132,-0.0596 -0.007,-0.0291 -0.017,-0.0623 -0.0313,-0.0985 l -0.63095,-1.7642 -0.60857,0.88845 0.32867,0.98986 h -2.06164 l -0.004,0.0132 v -0.0132 h -0.29259 c -0.15598,0 -0.25659,-0.0188 -0.30229,-0.0567 -0.0466,-0.0379 -0.0703,-0.16064 -0.0703,-0.36863 z m 1.40431,0.52078 -0.48466,0.71778 0.77139,0.52077 0.48275,-0.71875 z m 1.38682,0 -0.47884,0.71778 0.77238,0.52077 0.47884,-0.71875 z"
           style="fill:#ffffff;fill-opacity:1;stroke:none;stroke-width:0.20171"
           id="path1719-0-2" />
        <path
           style="fill:#ffffff;fill-opacity:1;stroke:none;stroke-width:0.20171"
           d="m 550.05455,156.8626 h 3.08868 v 0.70914 h -3.08868 z m 0,0"
           id="path1727-3-2-3" />
        <path
           d="m 537.58438,153.60338 -0.47885,0.70995 0.7714,0.51298 0.47982,-0.70217 z m -3.05567,0.12288 -0.92746,0.67487 v 3.7693 c 0,0.44597 0.0893,0.78035 0.26821,1.00254 0.17806,0.22299 0.44723,0.33352 0.80651,0.33352 h 0.20772 v 0 h 4.21521 c 0.39716,0 0.69516,-0.14267 0.8953,-0.43105 0.2017,-0.28759 0.30232,-0.7132 0.30232,-1.27659 0,-0.83835 -0.14691,-1.55508 -0.4408,-2.15234 -0.29235,-0.59884 -0.61388,-0.89917 -0.9645,-0.89917 -0.1371,0 -0.28022,0.0513 -0.42914,0.15214 -0.14969,0.10078 -0.28643,0.24184 -0.4125,0.42227 -0.14342,0.19778 -0.25549,0.40437 -0.33745,0.62025 -0.0804,0.21433 -0.11998,0.40715 -0.11998,0.57734 0,0.25687 0.0853,0.47092 0.2555,0.64269 0.17022,0.1702 0.38234,0.25551 0.63683,0.25551 0.17021,0 0.34332,-0.0396 0.51983,-0.11998 0.17647,-0.0797 0.33484,-0.18956 0.47587,-0.33059 0.0568,0.14971 0.10457,0.29182 0.14243,0.42813 0.0377,0.13709 0.0694,0.27137 0.0946,0.40374 h -4.83351 v 0 h -0.35498 z m 4.02601,2.26353 c 0.082,0 0.18122,0.0409 0.29941,0.12291 0.11971,0.0804 0.23666,0.18842 0.3501,0.32474 -0.0993,0.044 -0.1905,0.0777 -0.27402,0.10038 -0.0844,0.0213 -0.16372,0.0312 -0.23699,0.0312 -0.1371,0 -0.257,-0.0232 -0.36181,-0.0721 -0.10563,-0.0505 -0.19091,-0.12411 -0.25552,-0.22334 0.0567,-0.0858 0.12927,-0.15437 0.2175,-0.2048 0.0883,-0.052 0.17467,-0.079 0.26133,-0.079 z"
           style="fill:#ffffff;fill-opacity:1;stroke:none;stroke-width:0.20171"
           id="path1731-1-7"
           sodipodi:nodetypes="cccccccscsccscscscccscsccscccccscccscccs" />
        <path
           d="m 544.09684,153.72624 -0.92647,0.67486 v 3.76931 c 0,0.44595 0.0893,0.78034 0.2682,1.00253 0.17804,0.223 0.4472,0.33352 0.80651,0.33352 h 0.20774 2.08895 c 0.0944,0 0.1745,-0.0227 0.23989,-0.0692 0.0645,-0.0456 0.11679,-0.11613 0.157,-0.21064 l 0.4857,-1.17613 c 0.0141,-0.0331 0.025,-0.0666 0.0313,-0.10038 0.008,-0.0354 0.0132,-0.0711 0.0132,-0.10722 0,-0.0106 -0.005,-0.0296 -0.0132,-0.0596 -0.007,-0.0291 -0.017,-0.0623 -0.0313,-0.0985 l -0.63002,-1.76421 -0.60855,0.88846 0.32768,0.98986 h -2.06065 -0.35598 z m 1.09323,6.32636 -0.48566,0.71778 0.77238,0.51394 0.48175,-0.70314 z m 1.38677,0 -0.47884,0.71778 0.77144,0.51394 0.4798,-0.70314 z"
           style="fill:#ffffff;fill-opacity:1;stroke:none;stroke-width:0.20171"
           id="path1739-3-7" />
      </g>
      <g
         aria-label="Tel Aviv-Yafo"
         id="text25460-4-7-4"
         style="font-size:8.0287px;letter-spacing:1.10737px;fill:#ffffff;stroke-width:0.669057">
        <path
           d="m 531.77585,166.42231 h -1.7342 v -1.04373 h 4.65665 v 1.04373 h -1.7342 v 4.73693 h -1.18825 z"
           style="font-weight:bold;font-family:Triumvirate;-inkscape-font-specification:'Triumvirate Bold'"
           id="path10988" />
        <path
           d="m 537.86905,168.55794 q -0.0161,-0.14451 -0.0642,-0.28903 -0.0482,-0.14452 -0.14451,-0.25692 -0.0964,-0.1124 -0.24889,-0.18466 -0.14452,-0.0723 -0.3613,-0.0723 -0.20874,0 -0.36129,0.0642 -0.15254,0.0642 -0.25692,0.17663 -0.10437,0.10438 -0.16057,0.24889 -0.0562,0.14452 -0.0723,0.31312 z m 1.14008,1.34882 q -0.0723,0.21678 -0.20875,0.46567 -0.13649,0.24086 -0.36932,0.44961 -0.2248,0.20071 -0.56201,0.3372 -0.32917,0.12846 -0.78681,0.12846 -0.94739,0 -1.49334,-0.57004 -0.54595,-0.57004 -0.54595,-1.61377 0,-0.56201 0.14452,-0.9795 0.15254,-0.42552 0.41749,-0.70652 0.27297,-0.28904 0.64229,-0.43355 0.37735,-0.14452 0.83499,-0.14452 0.51384,0 0.88316,0.18466 0.36932,0.17663 0.60215,0.51384 0.23283,0.32917 0.34523,0.79484 0.1124,0.46566 0.1124,1.02767 h -2.85821 q 0.008,0.20875 0.0562,0.39341 0.0562,0.18466 0.16057,0.32115 0.1124,0.13648 0.28904,0.21677 0.18466,0.0803 0.45763,0.0803 0.18466,0 0.30509,-0.0402 0.12846,-0.0482 0.20875,-0.1124 0.0883,-0.0723 0.14451,-0.15254 0.0562,-0.0883 0.0964,-0.16058 z"
           style="font-weight:bold;font-family:Triumvirate;-inkscape-font-specification:'Triumvirate Bold'"
           id="path10990" />
        <path
           d="m 541.00768,165.37858 h 1.12402 v 5.78066 h -1.12402 z"
           style="font-weight:bold;font-family:Triumvirate;-inkscape-font-specification:'Triumvirate Bold'"
           id="path10992" />
        <path
           d="m 549.73369,168.95938 h 1.46123 l -0.72258,-2.21592 h -0.0161 z m 0.0723,-3.5808 h 1.33277 l 2.05534,5.78066 h -1.26853 l -0.40946,-1.22036 h -2.10352 l -0.39341,1.22036 h -1.26853 z"
           style="font-weight:bold;font-family:Triumvirate;-inkscape-font-specification:'Triumvirate Bold'"
           id="path10994" />
        <path
           d="m 553.8438,166.96826 h 1.23642 l 0.87512,3.14725 h 0.0161 l 0.87513,-3.14725 h 1.23642 l -1.54151,4.19098 h -1.18825 z"
           style="font-weight:bold;font-family:Triumvirate;-inkscape-font-specification:'Triumvirate Bold'"
           id="path10996" />
        <path
           d="m 559.8567,165.37858 h 1.12402 v 1.04373 h -1.12402 z m 0,1.58968 h 1.12402 v 4.19098 h -1.12402 z"
           style="font-weight:bold;font-family:Triumvirate;-inkscape-font-specification:'Triumvirate Bold'"
           id="path10998" />
        <path
           d="m 562.75447,166.96826 h 1.23642 l 0.87513,3.14725 h 0.016 l 0.87513,-3.14725 h 1.23642 l -1.54151,4.19098 h -1.18825 z"
           style="font-weight:bold;font-family:Triumvirate;-inkscape-font-specification:'Triumvirate Bold'"
           id="path11000" />
        <path
           d="m 568.47031,168.50977 h 2.15169 v 1.07585 h -2.15169 z"
           style="font-weight:bold;font-family:Triumvirate;-inkscape-font-specification:'Triumvirate Bold'"
           id="path11002" />
        <path
           d="m 574.16207,168.95938 -1.959,-3.5808 h 1.4291 l 1.17219,2.46481 1.09191,-2.46481 h 1.38093 l -1.92688,3.5808 v 2.19986 h -1.18825 z"
           style="font-weight:bold;font-family:Triumvirate;-inkscape-font-specification:'Triumvirate Bold'"
           id="path11004" />
        <path
           d="m 580.05454,169.08784 q -0.23283,0.13648 -0.49778,0.19268 -0.26494,0.0482 -0.49778,0.11241 -0.2248,0.0562 -0.37734,0.17663 -0.15255,0.12043 -0.15255,0.38538 0,0.18466 0.16057,0.32114 0.16058,0.12846 0.44961,0.12846 0.43355,0 0.67441,-0.24889 0.24086,-0.25692 0.24086,-0.73864 z m 0.17663,2.0714 q -0.0642,-0.10437 -0.1124,-0.27298 -0.0401,-0.1686 -0.0482,-0.25691 -0.0803,0.0963 -0.19269,0.21677 -0.1124,0.1124 -0.27297,0.20875 -0.15255,0.0963 -0.3613,0.16057 -0.20071,0.0723 -0.47369,0.0723 -0.64229,0 -0.98753,-0.32918 -0.34523,-0.3372 -0.34523,-0.9795 0,-0.35326 0.10437,-0.57806 0.1124,-0.23284 0.28903,-0.37735 0.18466,-0.15255 0.40947,-0.23284 0.23283,-0.0803 0.47369,-0.12043 0.24889,-0.0482 0.48975,-0.0803 0.24086,-0.0321 0.43355,-0.0803 0.23283,-0.0562 0.32115,-0.1124 0.0963,-0.0562 0.0963,-0.24086 0,-0.22481 -0.17663,-0.32918 -0.1686,-0.10437 -0.47369,-0.10437 -0.24086,0 -0.38538,0.0562 -0.14452,0.0482 -0.23283,0.12846 -0.0803,0.0803 -0.1124,0.18466 -0.0321,0.10437 -0.0482,0.20874 h -1.04373 q 0,-0.2248 0.0642,-0.48172 0.0723,-0.25692 0.26495,-0.47369 0.19269,-0.21678 0.53792,-0.36129 0.35327,-0.14452 0.93133,-0.14452 0.93936,0 1.34882,0.35326 0.4175,0.34524 0.4175,1.00359 v 2.09549 q 0,0.31312 0.0642,0.45764 0.0642,0.14451 0.17663,0.20071 v 0.20875 z"
           style="font-weight:bold;font-family:Triumvirate;-inkscape-font-specification:'Triumvirate Bold'"
           id="path11006" />
        <path
           d="m 583.47418,167.77113 h -0.57807 v -0.80287 h 0.57807 v -0.42552 q 0,-0.20875 0.0401,-0.41749 0.0482,-0.21678 0.18466,-0.38538 0.13649,-0.17663 0.37735,-0.28101 0.24889,-0.1124 0.65033,-0.1124 0.16057,0 0.28903,0.008 0.13649,0 0.24086,0.008 v 0.91527 q -0.0562,-0.008 -0.13649,-0.008 -0.0803,-0.008 -0.16057,-0.008 -0.24889,0 -0.30509,0.0883 -0.0562,0.0803 -0.0562,0.26495 v 0.35326 h 0.70652 v 0.80287 h -0.70652 v 3.38811 h -1.12402 z"
           style="font-weight:bold;font-family:Triumvirate;-inkscape-font-specification:'Triumvirate Bold'"
           id="path11008" />
        <path
           d="m 587.78499,169.06375 q 0,0.23283 0.0562,0.46566 0.0562,0.22481 0.1686,0.40947 0.12043,0.17663 0.30509,0.28903 0.19269,0.1124 0.45764,0.1124 0.26495,0 0.44961,-0.1124 0.19268,-0.1124 0.30509,-0.28903 0.12043,-0.18466 0.17663,-0.40947 0.0562,-0.23283 0.0562,-0.46566 0,-0.24086 -0.0562,-0.46566 -0.0562,-0.23284 -0.17663,-0.40947 -0.11241,-0.18466 -0.30509,-0.28903 -0.18466,-0.1124 -0.44961,-0.1124 -0.26495,0 -0.45764,0.1124 -0.18466,0.10437 -0.30509,0.28903 -0.1124,0.17663 -0.1686,0.40947 -0.0562,0.2248 -0.0562,0.46566 z m 0.98753,2.22395 q -0.48172,0 -0.87513,-0.15255 -0.39341,-0.15254 -0.68244,-0.43355 -0.281,-0.28903 -0.43355,-0.69849 -0.15254,-0.41749 -0.15254,-0.93936 0,-0.52187 0.15254,-0.93133 0.15255,-0.41749 0.43355,-0.6985 0.28903,-0.28903 0.68244,-0.44157 0.39341,-0.15255 0.87513,-0.15255 0.48172,0 0.87513,0.15255 0.3934,0.15254 0.67441,0.44157 0.28903,0.28101 0.44158,0.6985 0.15254,0.40946 0.15254,0.93133 0,0.52187 -0.15254,0.93936 -0.15255,0.40946 -0.44158,0.69849 -0.28101,0.28101 -0.67441,0.43355 -0.39341,0.15255 -0.87513,0.15255 z"
           style="font-weight:bold;font-family:Triumvirate;-inkscape-font-specification:'Triumvirate Bold'"
           id="path11010" />
      </g>
    </g>
  </g>
</svg>
