<?xml version="1.0" encoding="UTF-8" standalone="no"?>
<svg
   xmlns:dc="http://purl.org/dc/elements/1.1/"
   xmlns:cc="http://creativecommons.org/ns#"
   xmlns:rdf="http://www.w3.org/1999/02/22-rdf-syntax-ns#"
   xmlns:svg="http://www.w3.org/2000/svg"
   xmlns="http://www.w3.org/2000/svg"
   xmlns:sodipodi="http://sodipodi.sourceforge.net/DTD/sodipodi-0.dtd"
   xmlns:inkscape="http://www.inkscape.org/namespaces/inkscape"
   inkscape:version="1.0 (4035a4fb49, 2020-05-01)"
   sodipodi:docname="Israel_road_sign 439.svg"
   xml:space="preserve"
   enable-background="new 0 0 610 600"
   viewBox="0 0 599.70141 533.34967"
   height="533.34967"
   width="599.70142"
   y="0px"
   x="0px"
   id="Layer_1"
   version="1.1"><metadata
   id="metadata8642"><rdf:RDF><cc:Work
       rdf:about=""><dc:format>image/svg+xml</dc:format><dc:type
         rdf:resource="http://purl.org/dc/dcmitype/StillImage" /><dc:title></dc:title></cc:Work></rdf:RDF></metadata><defs
   id="defs8640"><path
     id="Oct"
     d="M 500,-207.10678 V 207.10678 L 207.10678,500 H -207.10678 L -500,207.10678 V -207.10678 L -207.10678,-500 h 414.21356 z" /><pattern
     id="EMFhbasepattern"
     patternUnits="userSpaceOnUse"
     width="6"
     height="6"
     x="0"
     y="0" /><pattern
     id="EMFhbasepattern-0"
     patternUnits="userSpaceOnUse"
     width="6"
     height="6"
     x="0"
     y="0" /><pattern
     id="EMFhbasepattern-8"
     patternUnits="userSpaceOnUse"
     width="6"
     height="6"
     x="0"
     y="0" /><pattern
     id="EMFhbasepattern-3"
     patternUnits="userSpaceOnUse"
     width="6"
     height="6"
     x="0"
     y="0" /><pattern
     id="EMFhbasepattern-1"
     patternUnits="userSpaceOnUse"
     width="6"
     height="6"
     x="0"
     y="0" /><pattern
     y="0"
     x="0"
     height="6"
     width="6"
     patternUnits="userSpaceOnUse"
     id="EMFhbasepattern-80" /><pattern
     y="0"
     x="0"
     height="6"
     width="6"
     patternUnits="userSpaceOnUse"
     id="EMFhbasepattern-4" /><pattern
     y="0"
     x="0"
     height="6"
     width="6"
     patternUnits="userSpaceOnUse"
     id="EMFhbasepattern-33" /><pattern
     id="EMFhbasepattern-88"
     patternUnits="userSpaceOnUse"
     width="6"
     height="6"
     x="0"
     y="0" /><pattern
     y="0"
     x="0"
     height="6"
     width="6"
     patternUnits="userSpaceOnUse"
     id="EMFhbasepattern-42" /><pattern
     y="0"
     x="0"
     height="6"
     width="6"
     patternUnits="userSpaceOnUse"
     id="EMFhbasepattern-5" /></defs><sodipodi:namedview
   inkscape:document-rotation="0"
   inkscape:current-layer="Layer_1"
   inkscape:window-maximized="1"
   inkscape:window-y="-9"
   inkscape:window-x="-9"
   inkscape:cy="506.92577"
   inkscape:cx="328.47645"
   inkscape:zoom="1"
   showgrid="false"
   id="namedview8638"
   inkscape:window-height="1001"
   inkscape:window-width="1920"
   inkscape:pageshadow="2"
   inkscape:pageopacity="0"
   guidetolerance="10"
   gridtolerance="10"
   objecttolerance="10"
   borderopacity="1"
   bordercolor="#666666"
   pagecolor="#ffffff"><sodipodi:guide
     inkscape:color="rgb(0,0,255)"
     inkscape:label="1"
     inkscape:locked="false"
     id="guide8644"
     orientation="0,1"
     position="599.70139,-1.972139e-05" /><sodipodi:guide
     inkscape:color="rgb(117,80,123)"
     inkscape:label="2"
     inkscape:locked="false"
     id="guide8646"
     orientation="-1,0"
     position="599.70139,-1.972139e-05" /><sodipodi:guide
     inkscape:locked="false"
     id="guide8648"
     orientation="0,-610"
     position="599.70139,533.34967" /><sodipodi:guide
     inkscape:locked="false"
     id="guide8650"
     orientation="600,0"
     position="-2.2666076e-08,533.34967" /><inkscape:grid
     originy="3.4570003"
     originx="5.4243188"
     id="grid56807"
     type="xygrid" /></sodipodi:namedview>


<path
   id="path8406"
   style="opacity:1;fill:#ffff00;fill-opacity:1;stroke-width:0.476882"
   d="M 0,0 V 533.34969 H 599.70139 V 0 Z"
   inkscape:connector-curvature="0"
   sodipodi:nodetypes="ccccc" /><path
   id="path5493"
   style="font-style:normal;font-variant:normal;font-weight:normal;font-stretch:normal;font-size:10.8433px;line-height:109.02%;font-family:'Heb Tamrurim';-inkscape-font-specification:'Heb Tamrurim';text-align:center;letter-spacing:1.09802px;text-anchor:middle;opacity:1;fill:#000000;fill-opacity:1;stroke-width:0.264583"
   d="m 202.76855,101.4868 4.39298,4.20721 c 1.49163,-1.5709 3.32264,-2.35882 5.49315,-2.36378 1.38753,0.0317 2.448,0.64172 3.1814,1.82115 0.92667,2.03171 0.48069,3.69179 -1.33797,4.98023 -6.83857,3.8504 -10.58238,9.68541 -11.23155,17.50513 h 18.69443 v -6.1175 l -10.88216,0.0277 c 1.38257,-2.57187 3.36226,-4.5491 5.93914,-5.93168 3.61252,-1.99709 5.39893,-5.06199 5.35932,-9.19485 -0.85729,-5.88215 -4.25674,-8.949586 -10.19838,-9.202301 -3.71161,0.158616 -6.84841,1.580649 -9.41036,4.266651 z m -14.34722,-4.251785 c -0.82263,1.922703 -2.19779,3.292865 -4.12541,4.110535 l 0.0357,5.06945 h 3.26317 l -0.0198,21.13261 6.1844,0.0158 0.0198,-30.327454 h -5.35938 z M 83.188897,49.151132 l 0.01584,6.058059 11.982324,-0.01586 -0.01584,18.278193 h -12.85202 l 0.0084,6.124996 h 21.355579 v -6.132412 h -2.45305 V 49.15014 H 83.189747 Z m 29.413593,-0.01983 v 6.072891 h 12.14585 v 18.307973 l -12.1533,-0.01983 0.0158,6.05802 12.16074,-0.01586 c 0.0789,0.004 0.15901,0.008 0.23792,0.008 3.56795,-0.307716 5.53525,-2.242356 5.90198,-5.805386 V 49.133168 H 112.6035 Z m 27.26053,-0.008 -0.0278,6.080425 12.10867,-0.008 0.0158,24.388319 6.16215,-0.01586 -0.008,-24.299137 c 0.004,-0.09437 0.004,-0.191133 0,-0.289871 -0.3668,-3.587735 -2.34637,-5.532764 -5.9391,-5.835046 l -12.30935,-0.01983 z m 27.20848,-6.02828 v 12.168147 l 13.69942,0.01983 v 13.015513 c -0.0119,0.594691 -0.12015,1.174433 -0.31961,1.739423 -1.45689,3.201188 -3.89252,4.383075 -7.30684,3.545583 l -0.0158,6.080345 c 0.72348,0.139186 1.45446,0.207788 2.19282,0.207788 7.05659,-0.678916 10.90695,-4.546649 11.55121,-11.603237 l -0.0198,-19.066158 -13.58042,0.01586 -0.0158,-6.110086 -6.18444,-0.01586 z m 49.89154,6.050606 -0.008,6.095255 15.18601,0.008 -0.0158,24.336293 6.13986,-0.008 -0.008,-30.416679 -21.29614,-0.01586 z m -0.0158,13.706841 v 16.732123 l 6.08775,-0.01983 -0.008,-16.732164 -6.08035,0.01983 z m 30.30711,-13.729167 -0.0278,6.080425 12.10866,-0.008 0.0159,24.388319 6.16207,-0.01586 -0.008,-24.299137 c 0.004,-0.09437 0.004,-0.191133 0,-0.289871 -0.3668,-3.587735 -2.34641,-5.532764 -5.93911,-5.835046 l -12.30938,-0.01983 z m 27.23084,0.05908 -0.0198,6.095216 4.6532,-0.008 v 24.343748 l 5.94655,-0.01586 -0.0198,-30.41664 h -10.55523 z m 19.49176,-0.02776 0.0198,6.050606 h 2.06644 l 2.19282,24.328862 h 11.18695 c 3.0724,-0.193115 4.98518,-1.781297 5.73841,-4.764586 l 3.06994,-25.637143 -24.27685,0.01983 z m 8.47386,6.065437 8.88265,-0.01983 -2.2002,18.278273 -5.06944,-0.01983 -1.61301,-18.233662 z m 0,0 h -0.0591 l 0.0591,-0.02776 z m 24.75274,-6.065437 6.34797,10.659154 -6.05806,4.474835 -0.0158,15.327301 6.09522,-0.03569 v -12.10258 l 3.09967,-2.393476 8.5556,14.517051 7.05412,-0.008 -6.28849,-10.636948 5.84992,-4.549146 0.0158,-15.245455 -6.04318,-0.008 0.008,12.160691 -2.98072,2.326659 -8.59278,-14.502221 -7.04667,0.01586 z m 55.18564,-0.008 -0.008,6.095216 15.18602,0.008 -0.0158,24.336254 6.13983,-0.008 -0.008,-30.416639 -21.29613,-0.01586 z m -0.0159,13.706801 v 16.732123 l 6.08776,-0.01983 -0.008,-16.732164 -6.08034,0.01983 z m 30.27737,-13.699346 0.0198,6.050605 h 2.06645 l 2.19278,24.328839 h 11.18696 c 3.07239,-0.193115 4.98521,-1.781377 5.73841,-4.764666 l 3.06992,-25.637064 -24.27681,0.01983 z m 8.47386,6.065435 8.88266,-0.01983 -2.2002,18.278193 -5.06945,-0.01983 -1.61301,-18.233622 z m 0,0 h -0.0591 l 0.0591,-0.02776 z m 24.78994,-6.065435 -0.0357,6.110046 4.61598,-0.01586 -0.008,9.224591 6.08773,0.01983 0.008,-15.342131 h -10.66663 z m 22.66078,-0.008 0.008,6.080425 4.59369,0.03569 0.0158,18.166726 -7.62641,0.01586 0.0159,6.147243 7.84942,0.008 c 0.0591,0 0.12173,-0.0027 0.18597,-0.008 3.64719,-0.515384 5.55509,-2.613992 5.7235,-6.295905 l 0.008,-24.14302 -10.77064,-0.008 z m 19.72209,-0.01586 v 6.072892 h 12.14579 v 18.307973 l -12.15324,-0.01983 0.0158,6.058061 12.16062,-0.01586 c 0.0789,0.004 0.15901,0.008 0.23792,0.008 3.56797,-0.307715 5.53527,-2.242354 5.90195,-5.805345 V 49.132336 H 488.2983 Z m 27.24555,0.01586 -0.008,6.095295 15.18594,0.008 -0.0159,24.336294 6.1398,-0.008 -0.008,-30.416679 -21.29603,-0.01586 z m -0.0158,13.70688 v 16.732124 l 6.08776,-0.01983 -0.008,-16.732163 -6.08032,0.01983 z m -465.834914,34.258121 -0.0278,6.080302 12.108624,-0.008 0.01584,24.38832 6.16211,-0.0158 -0.0084,-24.2991 c 0.0042,-0.0944 0.0042,-0.19113 0,-0.28987 -0.366803,-3.587735 -2.346488,-5.532803 -5.939138,-5.835085 l -12.309395,-0.01983 z m 27.208508,0.03569 v 30.401762 l 21.734713,0.008 c 3.523303,-0.53521 5.441043,-2.57688 5.753273,-6.12496 l -0.0158,-24.299462 H 87.670359 l 0.03567,9.165152 h 6.087807 l -0.01983,-3.03278 4.55652,-0.0159 v 18.16677 l -15.275192,0.0198 -0.0084,-24.321463 -6.147243,0.02776 z m 36.437816,-0.008 v 6.191852 l 2.37861,-0.0159 0.0198,24.2842 6.10267,-0.0159 0.0198,-24.25457 h 9.70774 v 18.05526 l -4.62346,-0.008 v 6.22906 l 10.74095,-0.008 -0.0158,-30.409183 -10.11657,0.01586 -5.73841,2.988163 0.008,-3.05506 h -8.48873 z m 160.29174,-6.058061 v 12.168143 l 13.69935,0.0198 v 13.01555 c -0.0119,0.59465 -0.12015,1.17444 -0.31961,1.73935 -1.45694,3.20122 -3.89252,4.38311 -7.30685,3.54565 l -0.0158,6.08035 c 0.72353,0.13918 1.45447,0.20819 2.19279,0.20819 7.05662,-0.67888 10.90699,-4.54662 11.55116,-11.6032 l -0.0198,-19.066153 -13.58045,0.01586 -0.0158,-6.110086 -6.18444,-0.01586 z m 28.71362,6.162152 4.83156,24.328871 -4.80186,0.0158 0.0158,6.03578 h 14.12308 c 3.27559,-0.33706 5.26268,-2.11356 5.96144,-5.32966 l 2.75027,-25.042445 -6.11008,-0.01586 -2.60163,24.351165 -3.02531,-0.008 -4.70519,-24.343713 -6.43716,0.008 z m 31.838,-0.103889 v 6.19185 l 2.37864,-0.0159 0.0198,24.2842 6.10268,-0.0159 0.0198,-24.25456 h 9.70777 v 18.05525 l -4.62345,-0.008 v 6.22904 l 10.74095,-0.008 -0.0158,-30.409182 -10.11657,0.01586 -5.73841,2.988162 0.008,-3.055059 h -8.48873 z m 66.98773,0.02776 -0.0198,6.09521 4.65315,-0.008 v 24.34371 l 5.94656,-0.0158 -0.0198,-30.416729 h -10.55514 z m 19.49923,-0.05195 v 6.07289 h 12.14586 v 18.30802 l -12.15328,-0.0198 0.0158,6.05802 12.16073,-0.0159 c 0.0789,0.004 0.15821,0.008 0.23792,0.008 3.56795,-0.30772 5.53527,-2.24235 5.90195,-5.80538 V 97.116925 h -18.30797 z m 27.26048,-0.008 -0.0278,6.08034 12.10863,-0.008 0.0159,24.38832 6.16212,-0.0158 -0.008,-24.29914 c 0.004,-0.0944 0.004,-0.19113 0,-0.28987 -0.3668,-3.587693 -2.34635,-5.532761 -5.9391,-5.835043 l -12.30924,-0.01983 z m 27.23065,0.05909 -0.0198,6.09517 4.65317,-0.008 v 24.34371 l 5.94652,-0.0159 -0.0198,-30.416629 h -10.55508 z m 19.49161,-0.02776 6.34794,10.65915 -6.05803,4.47483 -0.0158,15.32727 6.09517,-0.0357 v -12.10129 l 3.09965,-2.39347 8.55555,14.51704 7.05409,-0.008 -6.28845,-10.63691 5.84987,-4.54912 0.0158,-15.245485 -6.04315,-0.008 0.008,12.160705 -2.98069,2.32657 -8.59275,-14.502185 -7.04662,0.01586 z m 34.00755,0.01983 6.2216,30.42413 7.17297,0.008 c 6.62543,-0.65909 10.83257,-4.19476 12.62152,-10.60716 l 4.57882,-19.831798 h -6.44453 l -4.32611,19.913518 c -1.10011,2.80481 -3.15664,4.28402 -6.16953,4.43768 l -2.41579,0.0198 -1.83597,-9.16516 h 5.86475 l 3.31518,-15.215741 -6.31074,0.008 -3.07729,14.338641 -2.87668,-14.338641 -6.3182,0.008 z"
   sodipodi:nodetypes="cccccccccccccccccccccccccccccccccccccccccccccccccccccccccccccccccccccccccccccccccccccccccccccccccccccccccccccccccccccccccccccccccccccccccccccccccccccccccccccccccccccccccccccccccccccccccccccccccccccccccccccccccccccccccccccccccccccccccccccccccccccccccccccccccccccccccccccccccccccccccccccccccccccccccccccccccccccccccccccccccccccccccccccccccccccccccccccccccccccccccccccccccccccccccc" /><g
   transform="matrix(3.9654,0,0,3.9654,837.251,-475.58784)"
   aria-label="Entry Prohibited to Vehicles Measuring Over 12 Meters in Length"
   id="text5499"
   style="font-style:normal;font-variant:normal;font-weight:normal;font-stretch:normal;font-size:10.7325px;line-height:0;font-family:'Highway Gothic Expanded';-inkscape-font-specification:'Highway Gothic Expanded, ';text-align:center;letter-spacing:0px;text-anchor:middle;opacity:1;fill:#000000;fill-opacity:1;stroke-width:0.0176539" /><path
   id="path969"
   d="m 43.112757,10.173676 c -17.692154,0 -32.077002,14.384845 -32.077002,32.077017 V 490.4151 c 0,17.69212 14.384848,32.07697 32.077002,32.07697 H 556.94309 c 17.69216,0 32.07701,-14.38485 32.07701,-32.07697 V 42.250693 c 0,-17.692172 -14.38485,-32.077017 -32.07701,-32.077017 z m 0,9.144051 H 556.94309 c 12.7828,0 22.93299,10.150132 22.93299,22.932966 V 490.4151 c 0,12.78276 -10.15019,22.93296 -22.93299,22.93296 H 43.112757 c -12.782795,0 -22.92531,-10.1502 -22.92531,-22.93296 V 42.250693 c 0,-12.782834 10.142515,-22.932966 22.92531,-22.932966 z"
   style="color:#000000;font-style:normal;font-variant:normal;font-weight:normal;font-stretch:normal;font-size:medium;line-height:normal;font-family:sans-serif;font-variant-ligatures:normal;font-variant-position:normal;font-variant-caps:normal;font-variant-numeric:normal;font-variant-alternates:normal;font-variant-east-asian:normal;font-feature-settings:normal;font-variation-settings:normal;text-indent:0;text-align:start;text-decoration:none;text-decoration-line:none;text-decoration-style:solid;text-decoration-color:#000000;letter-spacing:normal;word-spacing:normal;text-transform:none;writing-mode:lr-tb;direction:ltr;text-orientation:mixed;dominant-baseline:auto;baseline-shift:baseline;text-anchor:start;white-space:normal;shape-padding:0;shape-margin:0;inline-size:0;clip-rule:nonzero;display:inline;overflow:visible;visibility:visible;opacity:1;isolation:auto;mix-blend-mode:normal;color-interpolation:sRGB;color-interpolation-filters:linearRGB;solid-color:#000000;solid-opacity:1;vector-effect:none;fill:#000000;fill-opacity:1;fill-rule:evenodd;stroke:none;stroke-width:1.88976;stroke-linecap:square;stroke-linejoin:miter;stroke-miterlimit:10;stroke-dasharray:none;stroke-dashoffset:0;stroke-opacity:1;paint-order:markers fill stroke;color-rendering:auto;image-rendering:auto;shape-rendering:auto;text-rendering:auto;enable-background:accumulate;stop-color:#000000;stop-opacity:1"
   sodipodi:nodetypes="ssssssssssssssssss" /><path
   d="m 145.7087,279.18897 -2.1581,4.61731 c 0,0.0397 -0.0238,0.088 -0.0504,0.15069 -0.40149,0.9034 -0.97865,1.35509 -1.70638,1.35509 -0.1003,0 -0.33865,-0.0118 -0.70264,-0.0504 h -0.20064 l -7.82933,-1.25469 c -0.80303,-0.1003 -1.55586,-0.37631 -2.25849,-0.85319 -0.70263,-0.46428 -1.22959,-1.00376 -1.55582,-1.60603 h -0.50186 c -0.70267,1.40526 -1.49313,2.40903 -2.35886,3.01129 -0.84067,0.60226 -1.94479,0.90339 -3.31242,0.90339 h -2.83784 l -0.25458,-0.0158 -0.12253,-3.60391 0.33865,-4.86055 H 122.17 c 1.53076,0 2.78545,-0.25101 3.76412,-0.75283 1.00376,-0.5019 1.95737,-1.3802 2.86072,-2.65999 0.22602,-0.2633 0.527,-0.665 0.90339,-1.20449 2.27103,-3.11169 4.32872,-4.66751 6.17314,-4.66751 0.80303,0 1.7566,0.37631 2.86072,1.10412 1.10417,0.7403 2.32123,1.80679 3.66376,3.21205 1.16685,1.24217 2.08278,2.35886 2.76034,3.36262 0.70264,1.00377 1.05394,1.74403 1.05394,2.20826 0,0.27598 -0.12532,0.6901 -0.35134,1.25473 -0.0753,0.17567 -0.12531,0.28867 -0.15069,0.35133 z m -11.19195,-7.07649 c -0.77789,0.23832 -1.43035,0.67753 -1.95732,1.3049 -0.5019,0.60222 -0.9536,1.48051 -1.35509,2.60974 l 10.53951,1.70643 c -0.97866,-1.36763 -2.04515,-2.50943 -3.21205,-3.41282 -1.17943,-0.92846 -2.50938,-1.66876 -4.01505,-2.20825 z m -32.05816,-11.49311 3.81433,2.55962 -2.40902,3.56334 -3.81432,-2.55958 z m 6.82561,0 3.86448,2.55962 -2.35882,3.56334 -3.81432,-2.55958 z m 3.96484,6.77539 h 0.9034 l 0.75283,6.67504 c 0.10031,1.00377 0.4266,1.74403 1.00376,2.2083 0.56464,0.47675 1.46799,0.70262 2.71016,0.70262 h 1.57874 v 8.48179 h -2.13081 c -1.48056,0 -2.63488,-0.41407 -3.46298,-1.25469 -0.84067,-0.82814 -1.44289,-2.15809 -1.80676,-3.96489 l -0.80303,-4.1154 c -0.67753,0.33864 -1.34252,0.60222 -2.00752,0.80299 -0.67753,0.17566 -1.38016,0.251 -2.10788,0.251 -0.53954,0 -1.07907,-0.0238 -1.60603,-0.1003 -0.53953,-0.1003 -1.07907,-0.21334 -1.60603,-0.35133 0.20064,1.20449 0.32635,2.34629 0.4015,3.41278 0.1003,1.07903 0.15068,2.04516 0.15068,2.91092 0,4.57964 -0.8281,8.23083 -2.45922,10.94102 -1.64366,2.71015 -3.814283,4.0652 -6.524437,4.0652 -1.041436,0 -2.258494,-0.32634 -3.663753,-0.95355 -1.380153,-0.60226 -2.898346,-1.50567 -4.567107,-2.71016 v -1.15433 c 0.464231,0.0238 0.878299,0.0504 1.254692,0.0504 0.364023,0.0238 0.702635,0.0499 1.00376,0.0499 3.475551,0 6.373908,-0.95356 8.682562,-2.86072 2.308653,-1.88205 3.462983,-4.25345 3.462983,-7.1267 0,-1.50565 -0.33864,-2.98621 -1.00376,-4.46674 -0.67753,-1.50567 -1.643654,-2.86072 -2.910926,-4.06524 l 3.061496,-4.31619 c 0.92846,0.70263 1.86949,1.24217 2.81052,1.60603 0.92849,0.33865 1.91969,0.50186 2.96112,0.50186 1.66876,0 3.02381,-0.4517 4.06521,-1.35506 1.02886,-0.92849 1.65623,-2.22082 1.85699,-3.86447 z m 85.89885,18.06775 c 0,-2.23339 0.36403,-4.14051 1.10413,-5.72143 0.72773,-1.5684 1.65623,-2.9235 2.76035,-4.06525 1.12923,-1.12923 2.33376,-2.12046 3.61355,-2.96112 1.3049,-0.86573 2.50939,-1.75656 3.61355,-2.65995 1.10413,-0.90341 2.02006,-1.88206 2.76036,-2.96113 0.72772,-1.06649 1.10413,-2.37139 1.10413,-3.91464 0,-0.46427 -0.088,-0.96613 -0.25102,-1.50566 -0.13799,-0.56459 -0.37631,-1.0665 -0.70262,-1.50562 -0.30098,-0.42664 -0.72774,-0.77794 -1.2547,-1.05397 -0.53953,-0.30097 -1.17943,-0.4517 -1.90716,-0.4517 -1.04143,0 -1.85695,0.22603 -2.45922,0.65243 -0.57717,0.43917 -1.00376,0.9787 -1.30489,1.60602 -0.30098,0.6399 -0.48934,1.33 -0.55207,2.05774 -0.0753,0.70262 -0.1003,1.34251 -0.1003,1.90715 h -6.17318 c 0,-2.10793 0.276,-3.88958 0.85324,-5.37015 0.60223,-1.46799 1.36762,-2.65995 2.30865,-3.56334 0.92846,-0.9285 2.03259,-1.60602 3.31243,-2.00752 1.26722,-0.4015 2.58468,-0.60227 3.96483,-0.60227 1.76913,0 3.32496,0.27599 4.66752,0.803 1.36763,0.50189 2.50938,1.20453 3.41279,2.10792 0.90339,0.8783 1.56835,1.90713 2.00752,3.11165 0.46423,1.17943 0.70263,2.44669 0.70263,3.81432 0,1.64366 -0.25102,3.08654 -0.75284,4.31618 -0.47675,1.20449 -1.10412,2.29609 -1.90715,3.26221 -0.7779,0.97867 -1.65619,1.84443 -2.65995,2.60979 -0.97867,0.74026 -1.95733,1.45546 -2.96109,2.15809 -1.00376,0.67753 -1.98247,1.35506 -2.91092,2.05772 -0.94102,0.70264 -1.75659,1.4931 -2.45922,2.35883 h 13.65117 v 5.5207 z m -16.18854,-21.6813 h -7.27726 v -4.31618 c 0.80299,-0.0238 1.66875,-0.0753 2.60978,-0.15068 0.92846,-0.0626 1.80676,-0.26331 2.60979,-0.60222 0.82809,-0.36402 1.55582,-0.90341 2.15808,-1.60603 0.62734,-0.70264 1.05394,-1.71897 1.25471,-3.06148 h 4.9686 v 31.41778 h -6.3237 z m 251.52091,20.97868 c 0.80303,1.90711 1.71895,3.32494 2.76035,4.26597 1.0665,0.96614 2.27103,1.45546 3.61354,1.45546 0.30097,0 0.57716,-0.0504 0.8532,-0.15068 0.30097,-0.1003 0.60226,-0.25102 0.90339,-0.4517 -0.27599,-1.34253 -1.12923,-2.45923 -2.55961,-3.36262 -1.40526,-0.87826 -3.26222,-1.45542 -5.57087,-1.75656 z m 8.18065,-7.77917 h 5.97237 v 8.48179 h -4.2158 v 7.37767 c 0,1.20449 -0.23832,2.00752 -0.70262,2.40902 -0.43917,0.4266 -1.22959,0.65243 -2.35885,0.65243 -1.98241,0 -3.91463,-0.9912 -5.82179,-2.96109 -1.90716,-1.94478 -3.28732,-4.44164 -4.11545,-7.47803 h -5.06897 v -8.48179 h 6.675 c 2.23339,-4.47931 4.16561,-7.79173 5.77163,-9.93725 1.63113,-2.17066 3.03638,-3.26226 4.21579,-3.26226 0.665,0 1.15433,0.60226 1.45547,1.80679 0.30097,1.17944 0.45169,3.23712 0.45169,6.17314 0,1.7817 -0.17568,3.03639 -0.5019,3.76412 -0.33864,0.70263 -0.92846,1.19196 -1.75657,1.45546 z m -2.10788,-7.6286 c -0.67753,0.803 -1.38016,1.79423 -2.10789,2.96109 -0.70267,1.17942 -1.5935,2.83561 -2.65999,4.96865 0.10031,0 0.25101,0.0238 0.4517,0.0499 h 0.4517 c 1.3049,0 2.42155,-0.20066 3.36258,-0.60223 0.96612,-0.4266 1.63111,-1.02886 2.0075,-1.80679 0,-1.50563 -0.1257,-2.67252 -0.35132,-3.51314 -0.23832,-0.86578 -0.62733,-1.55587 -1.15432,-2.05774 z m -15.80132,-12.59723 v 20.22583 h 1.80679 v 8.48179 h -1.05396 c -1.7817,0 -3.11166,-0.55206 -4.01505,-1.65623 -0.8783,-1.10412 -1.3049,-2.76035 -1.3049,-4.96861 V 260.1175 Z m -36.30471,31.41778 3.86448,2.60979 -2.40902,3.51314 -3.81432,-2.55959 z m -6.87576,0 3.81428,2.60979 -2.40902,3.51314 -3.81432,-2.55959 z m 7.97988,-20.52693 3.11166,8.78291 c 0.0626,0.17568 0.11301,0.33866 0.15068,0.50187 0.0238,0.138 0.0504,0.22602 0.0504,0.251 0,0.20066 -0.0238,0.38902 -0.0504,0.55211 -0.0357,0.17567 -0.0876,0.33865 -0.15068,0.50187 l -2.40902,5.82184 c -0.20066,0.47675 -0.4768,0.82809 -0.803,1.05392 -0.30097,0.23832 -0.6901,0.35134 -1.15433,0.35134 h -10.38895 v -8.48179 h 10.23838 l -1.60602,-4.91845 z m -17.30341,2.25845 1.85695,4.56711 c 0.4266,1.07907 0.85321,1.75659 1.25469,2.05772 0.4266,0.30098 1.05397,0.4517 1.85697,0.4517 h 0.70262 v 8.48179 c -0.84062,-0.1003 -1.48056,-0.37632 -1.90715,-0.85319 -0.4015,-0.46427 -0.60223,-1.12923 -0.60223,-2.00753 h -0.5019 c 0,4.74278 -0.79046,8.5069 -2.35882,11.29231 -1.58093,2.77289 -3.66375,4.16562 -6.27354,4.16562 -1.17943,0 -2.44665,-0.33864 -3.81428,-1.00376 -1.38019,-0.63991 -2.78545,-1.60603 -4.21582,-2.91088 v -1.00381 c 0.66501,0.0626 1.17944,0.10031 1.55583,0.10031 0.4015,0.0238 0.76537,0.0504 1.10413,0.0504 3.23715,0 5.98494,-0.9536 8.23085,-2.86076 2.2334,-1.88206 3.36263,-4.20325 3.36263,-6.97613 0,-1.53077 -0.30097,-3.07402 -0.9034,-4.61731 -0.60226,-1.5684 -1.45545,-3.02386 -2.55959,-4.36638 z m -5.16942,-7.37767 4.26603,2.91092 -2.81057,3.96484 -4.21577,-2.91087 z m -14.57364,25.64615 3.86449,2.60979 -2.40902,3.51314 -3.81432,-2.55959 z m -6.8758,0 3.81432,2.60979 -2.40902,3.51314 -3.81432,-2.55959 z m 7.97993,-20.52693 3.11165,8.78291 c 0.0626,0.17568 0.11302,0.33866 0.15069,0.50187 0.0238,0.138 0.0504,0.22602 0.0504,0.251 0,0.20066 -0.0238,0.38902 -0.0504,0.55211 -0.0397,0.17567 -0.088,0.33865 -0.15069,0.50187 l -2.40902,5.82184 c -0.20065,0.47675 -0.4768,0.82809 -0.803,1.05392 -0.30096,0.23832 -0.69009,0.35134 -1.15432,0.35134 h -10.38895 v -8.48179 h 10.23838 l -1.60602,-4.91845 z m -15.88222,-2.86077 1.55583,10.43915 c 0.0626,0.67753 0.25101,1.1418 0.5521,1.40526 0.30098,0.23832 0.85319,0.35134 1.65619,0.35134 h 0.5019 v 8.48179 h -0.15069 c -1.50566,0 -2.71015,-0.42659 -3.61355,-1.30489 -0.8783,-0.86576 -1.45546,-2.17062 -1.75658,-3.91469 h -0.4015 l -1.55583,3.31243 c -0.33864,0.77792 -0.6901,1.29236 -1.05396,1.55581 -0.37632,0.23833 -1.07906,0.35134 -2.10789,0.35134 h -2.81056 c -1.88206,0 -3.19948,-0.35134 -3.96489,-1.05396 -0.74026,-0.70263 -1.10412,-1.90715 -1.10412,-3.61355 v -6.3237 h 0.9536 c 0.12531,0.97866 0.4266,1.64366 0.90336,2.00752 0.46427,0.33865 1.32999,0.5019 2.60979,0.5019 h 8.03013 l -0.9536,-8.48179 z m -47.66541,4.81808 v 0.80299 c -1.10413,-0.30096 -2.13299,-0.51439 -3.06148,-0.65242 -0.94103,-0.1253 -1.85697,-0.20064 -2.76032,-0.20064 -0.94103,0 -1.84443,0.1253 -2.7102,0.35133 -0.84062,0.23832 -1.73145,0.62736 -2.65995,1.15432 0.4015,1.10413 1.02887,2.13299 1.90717,3.0615 0.86572,0.94102 2.05768,1.89458 3.56334,2.86071 h 3.56335 c 1.3049,0 2.48432,-0.0626 3.56335,-0.20065 1.06653,-0.16298 2.10792,-0.4015 3.11168,-0.70263 l -5.31993,8.48179 c -1.00377,0.30098 -2.09536,0.53954 -3.26222,0.70263 -1.17943,0.138 -2.55963,0.20065 -4.16565,0.20065 h -13.4504 v -8.48179 h 7.62859 l -2.05772,-5.31994 c 0.90339,-2.23339 2.05772,-3.97741 3.46298,-5.21958 1.43037,-1.22962 2.96109,-1.85696 4.56712,-1.85696 1.43035,0 2.86075,0.43913 4.26601,1.3049 1.43035,0.87829 2.71015,2.10789 3.81428,3.71391 z m -26.64071,1.45547 1.40529,3.71391 c 0.30098,0.74026 0.67753,1.29236 1.15434,1.65622 0.50186,0.37632 1.11665,0.55207 1.85695,0.55207 h 0.80299 l -0.0499,8.48179 c -0.77789,-0.0626 -1.38015,-0.32635 -1.80675,-0.80303 -0.43917,-0.50186 -0.65247,-1.11666 -0.65247,-1.85696 v -0.35133 h -0.45169 c -0.4015,4.17815 -1.8444,7.59097 -4.31615,10.23838 -2.48431,2.63486 -5.44544,3.96485 -8.88333,3.96485 -2.91091,0 -5.30736,-1.00376 -7.17689,-3.01128 -1.88206,-2.00753 -2.81051,-4.56712 -2.81051,-7.6788 0,-1.2296 0.17566,-2.50939 0.55205,-3.81428 0.36403,-1.32999 0.95356,-2.82309 1.75656,-4.46675 h 1.0038 c -0.20065,0.7779 -0.35134,1.49309 -0.4517,2.15809 -0.1003,0.67753 -0.15068,1.3049 -0.15068,1.90716 0,2.14551 0.71516,3.86448 2.15808,5.16937 1.43037,1.3049 3.32495,1.95732 5.67124,1.95732 3.37515,0 5.88457,-0.50185 7.52823,-1.50561 1.66876,-0.97871 2.50939,-2.47179 2.50939,-4.51696 0,-1.16685 -0.25101,-2.42159 -0.75279,-3.76411 -0.4768,-1.36763 -1.17944,-2.73526 -2.10793,-4.11541 z m -11.09158,-5.72145 4.21581,2.96109 -2.76034,3.96489 -4.26599,-2.91093 z m 260.3192,10.08782 c -0.40149,-1.40529 -1.09158,-2.45922 -2.05771,-3.16184 -0.94102,-0.70267 -2.18318,-1.05397 -3.7139,-1.05397 -2.10787,0 -4.21578,0.47676 -6.32366,1.40526 -2.10787,0.9034 -4.66745,2.53448 -7.67871,4.86825 h 12.99861 c 1.50567,0 2.76035,-0.1507 3.76411,-0.45171 1.02886,-0.32634 2.03262,-0.86573 3.01126,-1.60599 z m -20.07511,-18.92094 4.26595,2.91092 -1.80678,2.55959 v 10.08782 c 2.57213,-2.03263 5.01878,-3.56335 7.32742,-4.56711 2.33374,-1.00376 4.54202,-1.50567 6.6248,-1.50567 2.53451,0 4.49182,0.58974 5.872,1.7566 1.40525,1.17943 2.10788,2.83562 2.10788,4.96861 0,1.78169 -0.4266,3.55081 -1.25468,5.31993 -0.80304,1.7817 -1.93225,3.40025 -3.3626,4.86829 -0.90336,0.90335 -1.80675,1.55582 -2.71014,1.95732 -0.90335,0.40149 -2.19571,0.60226 -3.86447,0.60226 h -22.03246 v -8.48179 h 5.52067 l 1.40526,-1.3551 v -14.45415 l -0.85323,-0.70267 z m -34.9884,0 4.1656,2.91092 -1.80675,2.55959 v 15.70889 l -2.40905,6.07277 c -0.27599,0.67753 -0.55205,1.12923 -0.85314,1.35505 -0.27599,0.23833 -0.85324,0.35134 -1.75662,0.35134 h -6.4742 v -8.48179 h 7.22706 v -15.80925 l -0.90339,-0.70267 z m 23.59701,20.47677 h 2.86072 v 8.48179 h -2.55958 c -0.43918,3.91469 -1.45549,6.98871 -3.06146,9.23462 -1.58097,2.23336 -3.51318,3.36259 -5.82182,3.36259 -1.14179,0 -2.44664,-0.30098 -3.91467,-0.90337 -1.44287,-0.60226 -2.94852,-1.45545 -4.51688,-2.55961 v -1.2547 c 0.22564,0.0238 0.5646,0.0504 1.00376,0.0504 0.4266,0.0238 0.71521,0.0504 0.85318,0.0504 3.41281,0 6.22331,-0.70268 8.43159,-2.10794 2.20824,-1.38015 3.5884,-3.33751 4.16555,-5.872 h -5.11914 c -1.88204,0 -3.29983,-0.4266 -4.26595,-1.3049 -0.94103,-0.90339 -1.40524,-2.20829 -1.40524,-3.91467 0,-3.63866 0.61474,-6.68757 1.85689,-9.13422 1.22963,-2.4718 2.76038,-3.71392 4.56713,-3.71392 1.46798,0 2.8356,0.87826 4.11539,2.60975 1.30488,1.74406 2.23337,4.06525 2.81053,6.97617 z M 473.40245,274.12 c -0.63994,0.23832 -1.1418,0.5897 -1.50566,1.05393 -0.33864,0.43917 -0.55205,1.09159 -0.65242,1.95736 0.5019,0.17566 1.00375,0.30097 1.50565,0.4015 0.50186,0.1003 1.01625,0.15068 1.55577,0.15068 0.50191,0 1.00376,-0.0238 1.50567,-0.1003 0.52696,-0.0626 1.10411,-0.16298 1.70637,-0.30098 -0.74026,-1.12926 -1.40524,-1.91973 -2.00751,-2.35886 -0.60226,-0.46423 -1.30488,-0.72773 -2.10787,-0.80298 z M 191.41148,217.59295 c -0.30098,-0.40149 -0.65247,-0.70263 -1.05396,-0.9034 -0.37632,-0.20064 -0.77794,-0.30098 -1.20453,-0.30098 -0.90337,0 -1.73149,0.32636 -2.45923,0.9536 -0.74025,0.60223 -1.38016,1.48053 -1.90712,2.60976 1.53072,0.7403 3.08655,1.35509 4.66747,1.857 1.5684,0.50186 3.17443,0.92846 4.81808,1.25469 l 0.70264,-0.60227 z m 2.35882,-4.01505 5.01881,7.02634 c 0.36402,0.50185 0.75282,0.84066 1.15432,1.00376 0.40153,0.17566 1.01633,0.251 1.857,0.251 h 0.50186 v 8.48179 c -1.48056,0 -2.64742,-0.21333 -3.51318,-0.65246 -0.87826,-0.46423 -1.53074,-1.17942 -1.95733,-2.15809 h -0.75283 l -2.35882,3.76412 c -3.88958,-1.36762 -6.59973,-2.48433 -8.13049,-3.36262 -1.5433,-0.90336 -2.39649,-1.76912 -2.55959,-2.60974 h -0.70263 c -1.07906,1.68128 -2.19572,2.93598 -3.36262,3.76407 -1.17942,0.84067 -2.39649,1.25472 -3.66371,1.25472 h -1.4053 V 221.859 h 1.7566 c 1.36762,0 2.48431,-0.251 3.36261,-0.75283 0.9034,-0.50189 1.9197,-1.53076 3.06149,-3.11168 1.63109,-2.30866 3.16185,-3.91464 4.56711,-4.81804 1.40526,-0.9285 2.92346,-1.40526 4.56711,-1.40526 0.46423,0 0.8783,0.15068 1.25469,0.45165 0.40153,0.276 0.82814,0.72773 1.3049,1.3551 z m -25.53437,1.2045 1.85696,4.56715 c 0.4266,1.07901 0.8532,1.75654 1.25474,2.05768 0.42659,0.30097 1.05392,0.4517 1.85695,0.4517 h 0.70263 v 8.48179 c -0.84066,-0.1003 -1.48057,-0.37632 -1.90716,-0.85319 -0.40149,-0.46423 -0.60226,-1.12923 -0.60226,-2.00753 h -0.50187 c 0,4.74278 -0.79046,8.5069 -2.35885,11.29235 -1.58093,2.77289 -3.66372,4.16561 -6.27351,4.16561 -1.17942,0 -2.44668,-0.33865 -3.81432,-1.00376 -1.38015,-0.6399 -2.78541,-1.60602 -4.21576,-2.91092 v -1.00377 c 0.66496,0.0626 1.17938,0.1003 1.55582,0.1003 0.40149,0.0238 0.76536,0.0504 1.10413,0.0504 3.23714,0 5.98493,-0.95356 8.23086,-2.86072 2.23335,-1.88206 3.36261,-4.20324 3.36261,-6.97612 0,-1.53077 -0.30097,-3.07407 -0.90339,-4.61732 -0.60227,-1.56839 -1.45546,-3.02385 -2.55959,-4.36638 z m -13.95467,-13.35004 -2.50943,5.06901 -10.03762,3.41279 10.63989,11.3927 c 0.22563,0.23832 0.40149,0.4517 0.5019,0.65243 0.1003,0.17567 0.15068,0.35133 0.15068,0.5521 0,0.23832 -0.088,0.5395 -0.25101,0.90337 l -0.0504,0.0504 -2.15808,5.1192 c -0.30098,0.77789 -0.58974,1.25469 -0.85321,1.45546 -0.27598,0.20065 -0.82812,0.30098 -1.65622,0.30098 h -11.13481 v -8.48179 h 10.43218 l -5.52071,-5.77165 -0.65242,0.55207 -2.05773,-2.20829 v -7.92973 z m -28.21608,31.61852 4.16561,2.96111 -2.71015,3.96485 -4.26598,-2.91088 z m 2.91091,-20.12545 1.35506,7.02633 c 0.12531,0.7403 0.36402,1.24217 0.70264,1.50567 0.32634,0.276 0.87829,0.4015 1.65622,0.4015 h 4.41484 v 8.48179 h -4.81633 c -1.10417,0 -2.13299,-0.47676 -3.06149,-1.45546 -0.9034,-1.00376 -1.48056,-2.25845 -1.70639,-3.76412 h -0.4015 l -1.50566,3.31242 c -0.37632,0.80304 -0.74026,1.33 -1.10413,1.55586 -0.37632,0.23833 -1.04139,0.35134 -2.00752,0.35134 h -4.16561 v -8.48179 h 8.08029 l -0.80303,-4.01505 z m -17.11803,-5.67123 1.7566,11.64364 c 0.16297,1.10413 0.46422,1.88206 0.90339,2.30866 0.4266,0.43913 1.11666,0.65243 2.05769,0.65243 h 1.75659 v 8.48179 h -2.40902 c -1.44293,0 -2.59726,-0.41403 -3.46299,-1.25469 -0.87829,-0.8281 -1.39272,-2.00753 -1.55582,-3.51319 l -1.15432,-11.14174 c -1.68133,0.94103 -3.03639,1.93222 -4.06525,2.96108 -1.0414,1.04139 -1.88206,2.18319 -2.50943,3.41279 l 6.92596,1.05396 -3.71391,6.47426 -7.02633,-0.85319 c -0.639894,-0.0626 -1.104124,-0.20065 -1.405259,-0.4015 -0.275986,-0.22603 -0.401531,-0.52696 -0.401531,-0.9034 v -0.45169 c 0.02382,-0.1003 0.06264,-0.17567 0.100301,-0.25101 l 1.555859,-4.31618 c 1.20449,-1.93226 2.65995,-3.63866 4.36635,-5.11921 1.73149,-1.50563 3.71391,-2.72269 5.9222,-3.66372 l -0.1003,-0.90339 z m 172.69384,14.60473 h 2.86072 v 8.48179 h -2.55959 c -0.43913,3.91469 -1.45546,6.9887 -3.06149,9.23462 -1.58092,2.2334 -3.51314,3.36262 -5.8218,3.36262 -1.1418,0 -2.44669,-0.30097 -3.91468,-0.9034 -1.44293,-0.60226 -2.94855,-1.45546 -4.51695,-2.55958 v -1.2547 c 0.22603,0.0238 0.56464,0.0504 1.00376,0.0504 0.4266,0.0238 0.71521,0.0504 0.8532,0.0504 3.41282,0 6.22334,-0.70266 8.43163,-2.10792 2.20825,-1.38015 3.58845,-3.33752 4.16561,-5.872 h -5.11921 c -1.88202,0 -3.29985,-0.4266 -4.26597,-1.3049 -0.94103,-0.90339 -1.40526,-2.20829 -1.40526,-3.91468 0,-3.63865 0.61479,-6.68757 1.85695,-9.13422 1.22959,-2.47179 2.76036,-3.71391 4.56712,-3.71391 1.46799,0 2.83561,0.87826 4.11544,2.60975 1.3049,1.74406 2.23336,4.06524 2.81052,6.97617 z m -7.77917,-2.86072 c -0.63989,0.23832 -1.14179,0.58969 -1.50565,1.05396 -0.33865,0.43913 -0.55207,1.0916 -0.65243,1.95733 0.5019,0.17566 1.00376,0.30096 1.50566,0.40149 0.50186,0.1003 1.01629,0.15069 1.55583,0.15069 0.50185,0 1.00376,-0.0238 1.50561,-0.1003 0.527,-0.0626 1.10417,-0.16297 1.70644,-0.30097 -0.7403,-1.12927 -1.4053,-1.91969 -2.00756,-2.35886 -0.60223,-0.46423 -1.3049,-0.72773 -2.1079,-0.803 z m -14.325,-17.51565 4.21581,2.96108 -1.80675,2.50943 v 23.38765 c -1.27983,3.37515 -3.18695,6.09787 -5.72148,8.18066 -2.54701,2.0703 -5.24464,3.11168 -8.08026,3.11168 -2.84818,0 -5.14431,-1.07906 -6.8758,-3.21205 -1.74402,-2.10788 -2.60979,-4.85571 -2.60979,-8.23086 0,-1.22959 0.1253,-2.43412 0.40154,-3.61355 0.30097,-1.20449 0.75279,-2.47175 1.35506,-3.81428 h 1.20453 c -0.138,0.67753 -0.25102,1.27979 -0.35134,1.80676 -0.0753,0.53953 -0.1003,1.02886 -0.1003,1.45546 0,2.60979 0.66499,4.57968 2.00752,5.92221 1.32999,1.32999 3.27479,2.00752 5.82184,2.00752 1.2296,0 2.48429,-0.15068 3.76408,-0.4517 1.26726,-0.30097 2.88581,-0.87829 4.86828,-1.70639 v -25.59594 l -0.9034,-0.70263 z m -51.17424,-0.1003 4.16565,2.91092 -1.80679,2.55959 v 15.70889 l -2.40902,6.07277 c -0.276,0.67753 -0.55207,1.12922 -0.8532,1.3551 -0.27599,0.23832 -0.85319,0.35133 -1.75659,0.35133 h -6.47427 v -8.48179 h 7.2271 v -15.80926 l -0.9034,-0.70262 z m 103.7238,28.95856 h -18.21831 l -2.65996,-2.86072 -2.60979,2.86072 h -4.31618 v -8.4818 h 5.21958 v -1.25469 l 3.46298,-3.21205 v 4.46674 h 2.86072 c 3.97742,-3.81428 7.55329,-6.58719 10.74025,-8.33122 3.17438,-1.76913 6.14804,-2.65995 8.93349,-2.65995 2.57216,0 4.54201,0.5897 5.92221,1.75655 1.36762,1.1418 2.05772,2.79799 2.05772,4.96865 0,1.74402 -0.4266,3.51315 -1.25474,5.31994 -0.80298,1.78166 -1.93222,3.40025 -3.36257,4.86824 -0.94103,0.9034 -1.85699,1.55583 -2.76036,1.95733 -0.8783,0.40153 -2.14556,0.60226 -3.81432,0.60226 z m 7.1267,-10.03761 c -0.43914,-1.40526 -1.14176,-2.45923 -2.1079,-3.16186 -0.94103,-0.70262 -2.15809,-1.05396 -3.66374,-1.05396 -2.14553,0 -4.29108,0.4768 -6.42407,1.40526 -2.14556,0.94103 -4.69258,2.55962 -7.6286,4.86828 h 12.99874 c 1.50562,0 2.76035,-0.15068 3.76411,-0.4517 1.00373,-0.32635 2.02006,-0.86576 3.06146,-1.60602 z m -16.71266,-17.91719 4.26602,2.96112 -2.81056,3.96485 -4.21581,-2.91088 z m 168.19372,15.20703 c -0.30098,-0.4015 -0.65244,-0.70263 -1.05394,-0.90339 -0.3763,-0.20066 -0.77791,-0.30098 -1.20452,-0.30098 -0.90335,0 -1.73147,0.32635 -2.4592,0.9536 -0.74027,0.60223 -1.38018,1.48051 -1.90715,2.60975 1.53072,0.7403 3.08658,1.35509 4.66749,1.85699 1.56839,0.50186 3.17436,0.92846 4.81805,1.25469 l 0.70262,-0.60226 z m 2.35883,-4.01505 5.01878,7.02633 c 0.36402,0.50187 0.75283,0.84067 1.15433,1.00377 0.4015,0.17567 1.01632,0.25101 1.85694,0.25101 h 0.50191 v 8.48179 c -1.48056,0 -2.64742,-0.21334 -3.51318,-0.65246 -0.87829,-0.46423 -1.53075,-1.17944 -1.9573,-2.1581 h -0.75283 l -2.35885,3.76412 c -3.88956,-1.36763 -6.59969,-2.48432 -8.1304,-3.36262 -1.5433,-0.90336 -2.39648,-1.76913 -2.55958,-2.60975 h -0.70263 c -1.07905,1.68129 -2.19574,2.93598 -3.3626,3.76408 -1.17942,0.84066 -2.39647,1.25473 -3.66372,1.25473 h -1.40526 v -8.48179 h 1.75658 c 1.36759,0 2.48432,-0.25101 3.3626,-0.75283 0.90336,-0.50191 1.91965,-1.53077 3.06143,-3.1117 1.63112,-2.30865 3.16188,-3.91464 4.56713,-4.81803 1.40524,-0.92851 2.9234,-1.40526 4.56705,-1.40526 0.46426,0 0.87833,0.15068 1.25471,0.45166 0.40154,0.27599 0.82809,0.72773 1.30489,1.3551 z m -24.56746,-0.65246 1.3551,7.02633 c 0.1257,0.7403 0.36402,1.24216 0.70261,1.50566 0.32636,0.27599 0.8783,0.40149 1.65624,0.40149 h 1.00374 v 8.4818 h -1.40524 c -1.10417,0 -2.13302,-0.47676 -3.06152,-1.45546 -0.90338,-1.00377 -1.4805,-2.25846 -1.70637,-3.76411 h -0.4015 l -1.50566,3.31241 c -0.37631,0.80303 -0.74026,1.32999 -1.10411,1.55587 -0.37631,0.23832 -1.04139,0.35133 -2.00752,0.35133 h -4.16559 v -8.48179 h 8.08026 l -0.80304,-4.01505 z m -5.37011,-7.72896 4.266,2.96108 -2.8105,4.01504 -4.2158,-3.01128 z m -8.09865,16.66244 h 2.8607 v 8.4818 h -2.55957 c -0.43913,3.91468 -1.45547,6.9887 -3.06149,9.23462 -1.58092,2.23339 -3.51314,3.36262 -5.82179,3.36262 -1.1418,0 -2.4467,-0.30098 -3.91469,-0.90339 -1.44293,-0.60227 -2.94856,-1.45547 -4.51694,-2.55959 v -1.25469 c 0.22562,0.0238 0.56462,0.0504 1.00376,0.0504 0.42659,0.0238 0.71519,0.0504 0.85319,0.0504 3.41282,0 6.22334,-0.70267 8.43163,-2.10793 2.20829,-1.38016 3.58845,-3.33752 4.16561,-5.87201 h -5.11921 c -1.88202,0 -3.29985,-0.42659 -4.26598,-1.30488 -0.94103,-0.90341 -1.40526,-2.2083 -1.40526,-3.91469 0,-3.63865 0.6148,-6.68757 1.85696,-9.13422 1.22963,-2.47179 2.76036,-3.71392 4.56711,-3.71392 1.46803,0 2.83565,0.87826 4.11545,2.60975 1.30486,1.74406 2.23336,4.06526 2.81052,6.97617 z m -7.77917,-2.86071 c -0.63989,0.23832 -1.14175,0.58969 -1.50562,1.05396 -0.33864,0.43913 -0.55207,1.0916 -0.65246,1.95732 0.50189,0.17568 1.00376,0.30098 1.50565,0.4015 0.50187,0.1003 1.0163,0.15068 1.55583,0.15068 0.50186,0 1.00376,-0.0238 1.50562,-0.1003 0.52701,-0.0626 1.10417,-0.16298 1.70643,-0.30098 -0.7403,-1.12926 -1.40529,-1.91968 -2.00752,-2.35885 -0.60226,-0.46423 -1.30489,-0.72773 -2.10793,-0.80299 z m -13.77361,-6.42407 v 1.10413 c -0.97867,-0.30098 -1.90713,-0.51444 -2.81052,-0.65243 -0.8783,-0.16297 -1.73149,-0.25101 -2.55959,-0.25101 -1.27983,0 -2.40906,0.17566 -3.41282,0.50186 -0.97866,0.33865 -1.89459,0.8783 -2.76036,1.60602 1.20453,1.3049 2.4216,2.29613 3.66376,2.96113 1.22959,0.67753 2.50942,1.0414 3.81427,1.10413 0.96614,-0.30098 1.95737,-0.56464 2.96113,-0.80299 1.00376,-0.2637 2.03263,-0.50191 3.11165,-0.70268 l -2.71016,4.76788 c -3.75154,0.17567 -6.95106,1.25473 -9.58591,3.26226 -2.60979,1.98243 -3.91468,4.14051 -3.91468,6.47426 0,1.93222 0.87829,3.42532 2.65994,4.46676 1.76917,1.02885 4.31619,1.55581 7.6286,1.55581 1.4304,0 2.93602,-0.0753 4.51695,-0.20064 1.56839,-0.1003 3.18695,-0.276 4.86824,-0.50187 l -6.52447,6.92598 c -1.00372,0.0626 -1.80676,0.11301 -2.40902,0.15068 -0.57716,0.0238 -1.02886,0.0504 -1.35505,0.0504 -3.98995,0 -7.10164,-0.92846 -9.335,-2.76036 -2.20829,-1.84438 -3.31241,-4.36633 -3.31241,-7.57839 0,-2.24593 0.56459,-4.39149 1.70639,-6.47426 1.16686,-2.1079 2.81052,-3.92723 4.91841,-5.47052 l -4.91841,-5.37014 c 0.30097,-2.60978 1.16686,-4.69257 2.60975,-6.27349 1.4304,-1.5684 3.18699,-2.35886 5.26978,-2.35886 1.40525,0 2.78545,0.389 4.16561,1.15433 1.36763,0.77792 2.60979,1.88205 3.71392,3.31241 z M 371.4917,201.63323 v 20.92843 l -3.26225,7.77916 h -1.25469 v -25.34501 z m -13.53791,-0.25102 4.16561,2.91093 -1.80676,2.55959 v 15.70889 l -2.40902,6.07277 c -0.27598,0.67753 -0.55205,1.12923 -0.85319,1.35506 -0.27599,0.23832 -0.85319,0.35133 -1.75659,0.35133 h -6.79551 v -8.48179 h 7.54834 v -15.80925 l -0.90339,-0.70271 z m -13.50814,8.28103 1.55587,10.43915 c 0.0626,0.67753 0.25101,1.1418 0.55207,1.40526 0.30096,0.23832 0.85319,0.35134 1.65618,0.35134 h 0.5019 v 8.48179 h -0.15068 c -1.50562,0 -2.71015,-0.4266 -3.61355,-1.30489 -0.8783,-0.86577 -1.45546,-2.17067 -1.75655,-3.91469 h -0.40155 l -1.55581,3.31242 c -0.33866,0.77793 -0.69011,1.29237 -1.05397,1.55583 -0.37632,0.23832 -1.07902,0.35133 -2.10789,0.35133 h -2.81052 c -1.88206,0 -3.19952,-0.35133 -3.96488,-1.05396 -0.74026,-0.70263 -1.10412,-1.90716 -1.10412,-3.61355 v -6.3237 h 0.95356 c 0.1253,0.97865 0.42659,1.64365 0.90339,2.00752 0.46423,0.33864 1.32999,0.5019 2.60979,0.5019 h 8.03009 l -0.9536,-8.48179 z m 165.88191,14.404 -2.15803,4.61731 c 0,0.0357 -0.0238,0.0876 -0.0504,0.15068 -0.40148,0.90341 -0.97868,1.35506 -1.70638,1.35506 -0.1003,0 -0.33864,-0.0119 -0.70261,-0.0504 h -0.20065 l -7.8293,-1.25469 c -0.80302,-0.1003 -1.5558,-0.37631 -2.25844,-0.8532 -0.70261,-0.46423 -1.22961,-1.00375 -1.55584,-1.60603 h -0.50187 c -0.70261,1.40526 -1.49307,2.40907 -2.35883,3.01129 -0.84063,0.60226 -1.94479,0.9034 -3.31241,0.9034 h -3.46296 v -8.48179 h 2.55962 c 1.53071,0 2.78539,-0.25101 3.76405,-0.75283 1.00375,-0.50186 1.95735,-1.38016 2.86073,-2.65995 0.22564,-0.2637 0.52697,-0.665 0.9034,-1.20453 2.27098,-3.11166 4.32865,-4.66751 6.17306,-4.66751 0.80303,0 1.75658,0.3763 2.86075,1.10416 1.10411,0.74026 2.32118,1.80675 3.66369,3.21201 1.16685,1.24216 2.08282,2.35886 2.76034,3.36262 0.70262,1.00377 1.05391,1.74407 1.05391,2.20829 0,0.276 -0.1257,0.69011 -0.35133,1.2547 -0.0749,0.17566 -0.12571,0.28867 -0.15069,0.35133 z m -11.19183,-7.07649 c -0.77794,0.23831 -1.4304,0.67753 -1.95735,1.30485 -0.5019,0.60226 -0.95356,1.48056 -1.35505,2.60979 l 10.53941,1.70643 c -0.97865,-1.36763 -2.04514,-2.50943 -3.21199,-3.41282 -1.17943,-0.92846 -2.50941,-1.66876 -4.01502,-2.20825 z M 483.593,457.25046 h 5.95821 v 11.57596 h 0.0851 c 0.34047,-0.73769 0.78024,-1.34772 1.31931,-1.83004 0.53908,-0.5107 1.10653,-0.90791 1.70235,-1.19164 0.59582,-0.31207 1.20583,-0.5249 1.83002,-0.63839 0.6242,-0.11341 1.19165,-0.17011 1.70235,-0.17011 2.52515,0 4.44028,0.72348 5.74542,2.1705 1.3335,1.41862 2.00026,3.31959 2.00026,5.70288 v 15.02319 h -5.95822 v -13.57622 c 0,-0.87956 -0.11349,-1.58885 -0.34047,-2.12791 -0.22697,-0.56745 -0.52489,-1.00721 -0.89373,-1.31933 -0.34047,-0.34063 -0.75187,-0.56745 -1.2342,-0.68094 -0.48233,-0.11341 -0.97885,-0.17011 -1.48955,-0.17011 -0.53908,0 -1.07816,0.0991 -1.61723,0.2978 -0.53908,0.19867 -1.02141,0.55317 -1.447,1.06395 -0.42558,0.48232 -0.76605,1.1349 -1.0214,1.95768 -0.25534,0.82282 -0.38302,1.84423 -0.38302,3.06423 v 11.49085 h -5.95821 z m -4.49258,31.15294 c -0.39722,0.0567 -0.83699,0.0995 -1.31932,0.12768 -0.48233,0.0278 -0.87955,0.0424 -1.19164,0.0424 -1.447,0 -2.63864,-0.11341 -3.57493,-0.34062 -0.90792,-0.22722 -1.61723,-0.59592 -2.12793,-1.10655 -0.51071,-0.53906 -0.86536,-1.21999 -1.06397,-2.04281 -0.17023,-0.85118 -0.25533,-1.88674 -0.25533,-3.10678 v -12.04411 h -2.89399 v -4.25586 h 2.89399 v -5.95821 h 5.95821 v 5.95821 h 3.57493 v 4.25586 h -3.57493 v 11.83133 c 0,0.5107 0.0285,0.90792 0.0851,1.19164 0.0851,0.28393 0.24117,0.49651 0.46814,0.63839 0.25533,0.14196 0.61,0.22722 1.06397,0.25537 0.48233,0.0278 1.1349,0.0424 1.9577,0.0424 z m -31.63506,-11.74619 c 0,2.07117 0.45396,3.63167 1.36188,4.68143 0.90792,1.02141 2.11375,1.53211 3.61749,1.53211 0.65256,0 1.26257,-0.12768 1.83002,-0.38305 0.59582,-0.25538 1.10652,-0.63839 1.53211,-1.1491 0.42559,-0.53905 0.75187,-1.21999 0.97885,-2.04281 0.25533,-0.82278 0.38302,-1.80164 0.38302,-2.93654 0,-1.07815 -0.14189,-2.00023 -0.42559,-2.7663 -0.25533,-0.79443 -0.61,-1.43282 -1.06397,-1.91513 -0.42558,-0.51071 -0.93629,-0.87957 -1.53211,-1.10655 -0.59582,-0.25537 -1.22001,-0.38306 -1.87258,-0.38306 -1.36188,0 -2.51096,0.49651 -3.44725,1.48957 -0.90792,0.99301 -1.36188,2.65281 -1.36188,4.97935 z m 15.66159,8.80965 c 0,0.79443 -0.0285,1.61721 -0.0851,2.46838 -0.0285,0.87957 -0.15604,1.7449 -0.38302,2.59607 -0.19862,0.85117 -0.52489,1.6598 -0.97884,2.42587 -0.42559,0.76604 -1.0356,1.44698 -1.83003,2.04282 -0.79442,0.5958 -1.80164,1.06396 -3.02166,1.40443 -1.19164,0.34062 -2.66701,0.5107 -4.4261,0.5107 -1.92932,0 -3.56074,-0.21294 -4.89425,-0.63839 -1.3335,-0.42561 -2.41165,-0.97886 -3.23445,-1.6598 -0.82281,-0.65254 -1.43281,-1.39023 -1.83002,-2.21305 -0.36883,-0.82278 -0.56745,-1.61721 -0.59583,-2.38328 h 6.29869 c 0.0567,0.19866 0.14188,0.42552 0.25537,0.68094 0.14184,0.25537 0.35466,0.49654 0.63837,0.72352 0.28373,0.22722 0.68094,0.41149 1.19165,0.55326 0.53907,0.17011 1.2342,0.25537 2.08537,0.25537 1.19165,0 2.11375,-0.19867 2.76631,-0.5958 0.68094,-0.36879 1.17746,-0.90792 1.48956,-1.61725 0.31208,-0.70929 0.5107,-1.56047 0.59582,-2.55352 0.0851,-0.99302 0.14188,-2.09952 0.17023,-3.31956 l -0.0851,-0.0852 c -0.0851,0.22721 -0.25537,0.55337 -0.51071,0.97886 -0.25533,0.4256 -0.62418,0.85117 -1.10652,1.27677 -0.45396,0.42557 -1.04978,0.79439 -1.78747,1.10651 -0.73768,0.31208 -1.6456,0.46816 -2.72375,0.46816 -1.39025,0 -2.6812,-0.25538 -3.87284,-0.76608 -1.19164,-0.5107 -2.22723,-1.23419 -3.10678,-2.17046 -0.87954,-0.96467 -1.57467,-2.12795 -2.08537,-3.48983 -0.48234,-1.39023 -0.7235,-2.93654 -0.7235,-4.63889 0,-1.92932 0.24118,-3.63167 0.7235,-5.10703 0.5107,-1.47537 1.19164,-2.70956 2.04281,-3.70262 0.85117,-0.99305 1.8584,-1.74489 3.02167,-2.2556 1.16327,-0.5107 2.42584,-0.76607 3.78772,-0.76607 0.99303,0 1.8442,0.14196 2.55351,0.4256 0.73769,0.25538 1.36188,0.58165 1.87259,0.97886 0.5107,0.39722 0.9221,0.82278 1.2342,1.27674 0.31208,0.45396 0.56745,0.86537 0.76605,1.23419 h 0.0851 v -3.23445 h 5.70286 z m -46.44548,-19.7898 h 5.70288 v 3.31959 h 0.0853 c 0.39722,-0.79443 0.87957,-1.44701 1.44702,-1.95772 0.56745,-0.53905 1.16325,-0.95046 1.78744,-1.23419 0.6242,-0.31207 1.24839,-0.5249 1.87258,-0.63839 0.6242,-0.11341 1.19165,-0.17011 1.70235,-0.17011 2.52517,0 4.4403,0.72348 5.74543,2.1705 1.33352,1.41862 2.00026,3.31959 2.00026,5.70288 v 15.02319 h -5.95821 v -13.57622 c 0,-0.87956 -0.11341,-1.58885 -0.34062,-2.12791 -0.22722,-0.56745 -0.52498,-1.00721 -0.89373,-1.31933 -0.34062,-0.34063 -0.75188,-0.56745 -1.23423,-0.68094 -0.48231,-0.11341 -0.97882,-0.17011 -1.48952,-0.17011 -0.5391,0 -1.07815,0.0991 -1.61725,0.2978 -0.5391,0.19867 -1.02141,0.55317 -1.44697,1.06395 -0.42561,0.48232 -0.76608,1.1349 -1.02141,1.95768 -0.25537,0.82282 -0.38306,1.84423 -0.38306,3.06423 v 11.49085 h -5.95821 z m -10.9043,8.42663 c -0.0567,-0.5107 -0.17051,-1.02141 -0.34062,-1.53211 -0.17012,-0.51071 -0.42561,-0.96466 -0.76608,-1.36188 -0.34063,-0.39721 -0.78023,-0.72353 -1.31933,-0.97886 -0.5107,-0.25537 -1.14905,-0.38306 -1.91513,-0.38306 -0.73768,0 -1.37603,0.11342 -1.91513,0.34063 -0.53909,0.22722 -0.99305,0.53918 -1.36187,0.93627 -0.36879,0.36879 -0.65255,0.80863 -0.85118,1.31933 -0.19866,0.51071 -0.32635,1.064 -0.38305,1.6598 z m 6.04331,7.14985 c -0.25537,0.76608 -0.62419,1.58886 -1.1065,2.46839 -0.48235,0.85117 -1.13494,1.6456 -1.95772,2.38328 -0.79443,0.70933 -1.78744,1.30517 -2.97909,1.78748 -1.16329,0.45396 -2.55355,0.68094 -4.17076,0.68094 -3.34795,0 -5.98657,-1.00721 -7.91589,-3.02167 -1.92933,-2.01446 -2.89399,-4.86586 -2.89399,-8.55428 0,-1.98607 0.25537,-3.71681 0.76603,-5.19218 0.5391,-1.50372 1.27678,-2.7521 2.21305,-3.74516 0.96467,-1.02141 2.09956,-1.78744 3.4047,-2.29815 1.33352,-0.5107 2.80889,-0.76607 4.4261,-0.76607 1.81583,0 3.37634,0.32635 4.68147,0.97886 1.30513,0.62419 2.36909,1.53211 3.19187,2.72375 0.82282,1.16325 1.43282,2.56772 1.83003,4.21332 0.39721,1.6456 0.59584,3.46143 0.59584,5.44751 h -15.15088 c 0.0278,0.73768 0.12769,1.43277 0.2978,2.08536 0.19867,0.65259 0.48227,1.22003 0.85117,1.70235 0.39722,0.48231 0.90792,0.86537 1.53212,1.14909 0.65258,0.28392 1.46121,0.42557 2.42587,0.42557 0.65254,0 1.1916,-0.071 1.61721,-0.21295 0.45396,-0.17011 0.82282,-0.36878 1.10654,-0.5958 0.31208,-0.25537 0.56741,-0.5249 0.76604,-0.80862 0.19867,-0.31208 0.36878,-0.59584 0.5107,-0.85117 z m -43.18372,-24.00308 h 6.29868 v 25.10959 h 15.06579 v 5.53264 h -21.36447 z m -40.23124,8.4266 h 5.70288 v 3.31959 h 0.0852 c 0.39722,-0.79443 0.87957,-1.44701 1.44702,-1.95772 0.56745,-0.53905 1.16325,-0.95046 1.78744,-1.23419 0.6242,-0.31207 1.24839,-0.5249 1.87258,-0.63839 0.6242,-0.11341 1.19165,-0.17011 1.70235,-0.17011 2.52517,0 4.4403,0.72348 5.74543,2.1705 1.33352,1.41862 2.00026,3.31959 2.00026,5.70288 v 15.02319 h -5.95821 v -13.57622 c 0,-0.87956 -0.11341,-1.58885 -0.34063,-2.12791 -0.22721,-0.56745 -0.52497,-1.00721 -0.89372,-1.31933 -0.34062,-0.34063 -0.75188,-0.56745 -1.23423,-0.68094 -0.48231,-0.11341 -0.97882,-0.17011 -1.48952,-0.17011 -0.5391,0 -1.07815,0.0991 -1.61725,0.2978 -0.5391,0.19867 -1.02141,0.55317 -1.44697,1.06395 -0.42561,0.48232 -0.76608,1.1349 -1.02141,1.95768 -0.25537,0.82282 -0.38306,1.84423 -0.38306,3.06423 v 11.49085 h -5.95821 z m -11.93106,-8.4266 h 5.95821 v 5.53261 h -5.95821 z m 0,8.4266 h 5.95821 v 22.21563 h -5.95821 z m -24.77312,6.72428 c -0.0567,-0.34062 -0.15624,-0.66674 -0.2978,-0.97886 -0.11341,-0.34062 -0.32635,-0.63839 -0.63839,-0.89372 -0.28392,-0.25537 -0.68094,-0.454 -1.19164,-0.59584 -0.48232,-0.17011 -1.1349,-0.25537 -1.95772,-0.25537 -0.93627,0 -1.7449,0.15584 -2.42583,0.46816 -0.65259,0.31207 -0.97886,0.75184 -0.97886,1.31928 0,0.73769 0.34062,1.27678 1.0214,1.61725 0.68094,0.34063 1.53212,0.6242 2.55352,0.85118 1.0498,0.22721 2.1705,0.45407 3.36215,0.68093 1.19164,0.19867 2.29818,0.53902 3.31959,1.02141 1.04976,0.45396 1.91513,1.09235 2.59607,1.91513 0.68094,0.79443 1.02141,1.90097 1.02141,3.3196 0,1.24838 -0.2411,2.35489 -0.72349,3.31955 -0.45396,0.93627 -1.10654,1.7307 -1.95772,2.38329 -0.82278,0.65258 -1.83003,1.14909 -3.02167,1.48956 -1.16325,0.34063 -2.45419,0.5107 -3.87281,0.5107 -2.04282,0 -3.75936,-0.22682 -5.14963,-0.68094 -1.36187,-0.45395 -2.46838,-1.0498 -3.31955,-1.78748 -0.85118,-0.73768 -1.47537,-1.57466 -1.87258,-2.51093 -0.36879,-0.96466 -0.56745,-1.94352 -0.59584,-2.93658 h 6.12844 c 0.0278,0.31208 0.0849,0.65259 0.17012,1.02141 0.11341,0.36878 0.32635,0.72353 0.63839,1.064 0.34063,0.31207 0.83697,0.5816 1.48956,0.80858 0.65259,0.22722 1.53211,0.34063 2.63862,0.34063 0.99305,0 1.84423,-0.17012 2.55352,-0.5107 0.73768,-0.34063 1.10654,-0.86537 1.10654,-1.57466 0,-0.7093 -0.34063,-1.24839 -1.02141,-1.61721 -0.68093,-0.36879 -1.5463,-0.66679 -2.59606,-0.89376 -1.02141,-0.22722 -2.12796,-0.45408 -3.3196,-0.68094 -1.19164,-0.22722 -2.31234,-0.56757 -3.36214,-1.02141 -1.02141,-0.45396 -1.87258,-1.06396 -2.55352,-1.82999 -0.68094,-0.79443 -1.02141,-1.88678 -1.02141,-3.27705 0,-1.04976 0.18439,-2.02862 0.55329,-2.93654 0.36878,-0.90792 0.93627,-1.70234 1.70235,-2.38328 0.79443,-0.68094 1.78744,-1.20584 2.97908,-1.57466 1.22004,-0.39722 2.66701,-0.59584 4.34101,-0.59584 2.07117,0 3.71677,0.28392 4.9368,0.85117 1.24839,0.5391 2.19886,1.20584 2.8514,2.00027 0.68094,0.76607 1.1207,1.57466 1.31933,2.42583 0.22722,0.82282 0.3549,1.53215 0.38306,2.12795 z m -27.88188,-6.72428 h 5.70284 v 3.66006 h 0.0853 c 0.17011,-0.28392 0.41141,-0.66678 0.72349,-1.14909 0.31207,-0.48231 0.70933,-0.95047 1.19164,-1.40443 0.5107,-0.48231 1.09231,-0.89372 1.74489,-1.23419 0.65259,-0.36878 1.39027,-0.55329 2.21305,-0.55329 0.19867,0 0.41133,0.0159 0.63839,0.0424 0.22722,0 0.43989,0.0159 0.63839,0.0424 v 6.04331 c -0.22721,-0.0278 -0.46827,-0.0424 -0.72352,-0.0424 -0.22722,-0.0278 -0.45408,-0.0424 -0.68094,-0.0424 -1.19164,0 -2.15631,0.17011 -2.89399,0.5107 -0.70929,0.31208 -1.26254,0.73768 -1.65976,1.27674 -0.39721,0.5391 -0.66678,1.14909 -0.80862,1.83003 -0.14196,0.68094 -0.21295,1.37608 -0.21295,2.08537 v 11.15038 h -5.95821 z m -10.90433,8.42663 c -0.0567,-0.5107 -0.17051,-1.02141 -0.34063,-1.53211 -0.17012,-0.51071 -0.42561,-0.96466 -0.76608,-1.36188 -0.34062,-0.39721 -0.78023,-0.72353 -1.31932,-0.97886 -0.51071,-0.25537 -1.14906,-0.38306 -1.91513,-0.38306 -0.73769,0 -1.37604,0.11342 -1.91513,0.34063 -0.5391,0.22722 -0.99306,0.53918 -1.36188,0.93627 -0.36878,0.36879 -0.65255,0.80863 -0.85117,1.31933 -0.19867,0.51071 -0.32636,1.064 -0.38306,1.6598 z m 6.04331,7.14985 c -0.25537,0.76608 -0.6242,1.58886 -1.10651,2.46839 -0.48235,0.85117 -1.13493,1.6456 -1.95772,2.38328 -0.79442,0.70933 -1.78744,1.30517 -2.97908,1.78748 -1.16329,0.45396 -2.55356,0.68094 -4.17077,0.68094 -3.34795,0 -5.98656,-1.00721 -7.91589,-3.02167 -1.92933,-2.01446 -2.89399,-4.86586 -2.89399,-8.55428 0,-1.98607 0.25537,-3.71681 0.76604,-5.19218 0.53909,-1.50372 1.27678,-2.7521 2.21305,-3.74516 0.96466,-1.02141 2.09956,-1.78744 3.40469,-2.29815 1.33352,-0.5107 2.80889,-0.76607 4.4261,-0.76607 1.81584,0 3.37634,0.32635 4.68147,0.97886 1.30513,0.62419 2.36909,1.53211 3.19187,2.72375 0.82282,1.16325 1.43282,2.56772 1.83003,4.21332 0.39722,1.6456 0.59584,3.46143 0.59584,5.44751 h -15.15088 c 0.0278,0.73768 0.12769,1.43277 0.2978,2.08536 0.19867,0.65259 0.48228,1.22003 0.85118,1.70235 0.39721,0.48231 0.90792,0.86537 1.53211,1.14909 0.65259,0.28392 1.46121,0.42557 2.42587,0.42557 0.65255,0 1.19161,-0.071 1.61721,-0.21295 0.45396,-0.17011 0.82282,-0.36878 1.10655,-0.5958 0.31207,-0.25537 0.56741,-0.5249 0.76603,-0.80862 0.19867,-0.31208 0.36878,-0.59584 0.51071,-0.85117 z m -24.15468,7.14986 c -0.39722,0.0567 -0.83702,0.0995 -1.31933,0.12768 -0.48231,0.0278 -0.87953,0.0424 -1.19164,0.0424 -1.44702,0 -2.63866,-0.11341 -3.57493,-0.34062 -0.90792,-0.22722 -1.61721,-0.59592 -2.12791,-1.10655 -0.51071,-0.53906 -0.86537,-1.21999 -1.064,-2.04281 -0.17011,-0.85118 -0.25537,-1.88674 -0.25537,-3.10678 v -12.04411 h -2.89399 v -4.25586 h 2.89399 v -5.95821 h 5.95821 v 5.95821 h 3.57493 v 4.25586 h -3.57493 v 11.83133 c 0,0.5107 0.0278,0.90792 0.0853,1.19164 0.0853,0.28393 0.24109,0.49651 0.46815,0.63839 0.25537,0.14196 0.61004,0.22722 1.06396,0.25537 0.48235,0.0278 1.13494,0.0424 1.95772,0.0424 z m -21.28865,-14.29971 c -0.0567,-0.5107 -0.17051,-1.02141 -0.34063,-1.53211 -0.17011,-0.51071 -0.4256,-0.96466 -0.76603,-1.36188 -0.34063,-0.39721 -0.78023,-0.72353 -1.31933,-0.97886 -0.5107,-0.25537 -1.14909,-0.38306 -1.91513,-0.38306 -0.73768,0 -1.37607,0.11342 -1.91517,0.34063 -0.53906,0.22722 -0.99301,0.53918 -1.36188,0.93627 -0.36878,0.36879 -0.65254,0.80863 -0.85117,1.31933 -0.19867,0.51071 -0.32635,1.064 -0.38306,1.6598 z m 6.04335,7.14985 c -0.25537,0.76608 -0.62423,1.58886 -1.10654,2.46839 -0.48232,0.85117 -1.1349,1.6456 -1.95768,2.38328 -0.79443,0.70933 -1.78749,1.30517 -2.97913,1.78748 -1.16325,0.45396 -2.55352,0.68094 -4.17073,0.68094 -3.34794,0 -5.9866,-1.00721 -7.91593,-3.02167 -1.92932,-2.01446 -2.89398,-4.86586 -2.89398,-8.55428 0,-1.98607 0.25537,-3.71681 0.76607,-5.19218 0.53906,-1.50372 1.27674,-2.7521 2.21305,-3.74516 0.96466,-1.02141 2.09956,-1.78744 3.40469,-2.29815 1.33349,-0.5107 2.80885,-0.76607 4.4261,-0.76607 1.81584,0 3.3763,0.32635 4.68144,0.97886 1.30513,0.62419 2.36912,1.53211 3.19191,2.72375 0.82278,1.16325 1.43281,2.56772 1.83003,4.21332 0.39721,1.6456 0.5958,3.46143 0.5958,5.44751 h -15.15088 c 0.0278,0.73768 0.12768,1.43277 0.2978,2.08536 0.19867,0.65259 0.48227,1.22003 0.85117,1.70235 0.39722,0.48231 0.90792,0.86537 1.53211,1.14909 0.65259,0.28392 1.46117,0.42557 2.42584,0.42557 0.65258,0 1.19164,-0.071 1.61725,-0.21295 0.45395,-0.17011 0.82278,-0.36878 1.1065,-0.5958 0.31208,-0.25537 0.56745,-0.5249 0.76608,-0.80862 0.19866,-0.31208 0.36878,-0.59584 0.5107,-0.85117 z m -55.15538,-24.00308 h 9.40549 l 5.27727,22.64121 h 0.0853 l 5.27727,-22.64121 h 9.4055 v 30.64223 h -5.95826 v -23.74775 h -0.0852 l -5.53265,23.74775 h -6.29868 l -5.5326,-23.74775 h -0.0853 v 23.74775 h -5.95821 z m -39.92865,30.64223 c 0,-2.12795 0.34063,-3.92959 1.02141,-5.40495 0.70929,-1.47537 1.58886,-2.75211 2.63862,-3.83026 1.0498,-1.07816 2.1847,-2.01447 3.40469,-2.8089 1.22004,-0.82278 2.35493,-1.65979 3.40469,-2.51097 1.0498,-0.85117 1.91517,-1.77324 2.59611,-2.7663 0.70929,-1.02141 1.06396,-2.2556 1.06396,-3.70261 0,-0.45396 -0.071,-0.93627 -0.21294,-1.44698 -0.14197,-0.5107 -0.36879,-0.96466 -0.68094,-1.36187 -0.31208,-0.42561 -0.72353,-0.76608 -1.23423,-1.02141 -0.48231,-0.28392 -1.07816,-0.42561 -1.78745,-0.42561 -0.96466,0 -1.73074,0.21295 -2.29818,0.63839 -0.53906,0.39722 -0.95047,0.89376 -1.2342,1.48957 -0.28392,0.5958 -0.46811,1.23419 -0.55325,1.91513 -0.0567,0.68093 -0.0853,1.29093 -0.0853,1.83003 h -5.78798 c 0,-1.98607 0.26965,-3.67426 0.80862,-5.06449 0.5391,-1.39023 1.24839,-2.51097 2.12796,-3.36215 0.90791,-0.87952 1.95767,-1.50372 3.14932,-1.87258 1.19164,-0.39721 2.44003,-0.5958 3.74516,-0.5958 1.67399,0 3.14936,0.25537 4.4261,0.76604 1.27674,0.48235 2.34073,1.14909 3.19191,2.00026 0.85117,0.82279 1.48952,1.80164 1.91513,2.93654 0.4256,1.10655 0.63839,2.29819 0.63839,3.57493 0,1.5605 -0.22682,2.92238 -0.68094,4.08563 -0.45396,1.1349 -1.0498,2.1563 -1.78749,3.06422 -0.73768,0.90792 -1.57466,1.71655 -2.51093,2.42588 -0.93631,0.70929 -1.88677,1.39023 -2.85144,2.04281 -0.93627,0.65255 -1.84418,1.31929 -2.72375,2.00023 -0.87957,0.65258 -1.6456,1.39027 -2.29819,2.21305 h 12.85274 v 5.19217 z M 109.144,467.46454 h -6.89448 v -4.08563 c 0.76603,-0.0278 1.58881,-0.071 2.46838,-0.12769 0.87956,-0.0852 1.70235,-0.28392 2.46842,-0.5958 0.79443,-0.34063 1.47537,-0.83698 2.04282,-1.48956 0.5958,-0.68094 0.99301,-1.6456 1.19164,-2.89399 h 4.68143 v 29.62082 H 109.144 Z m 433.34321,-55.67525 h 5.70286 v 3.66007 h 0.0851 c 0.17023,-0.28393 0.41138,-0.66679 0.72349,-1.1491 0.31208,-0.48231 0.70931,-0.95046 1.19164,-1.40442 0.51071,-0.48235 1.09235,-0.89376 1.74491,-1.23423 0.65257,-0.36879 1.39025,-0.55326 2.21305,-0.55326 0.19863,0 0.41141,0.0159 0.63838,0.0424 0.22698,0 0.43977,0.0159 0.63838,0.0424 v 6.04331 c -0.22698,-0.0277 -0.46815,-0.0424 -0.7235,-0.0424 -0.22698,-0.0278 -0.45396,-0.0424 -0.68094,-0.0424 -1.19164,0 -2.1563,0.17012 -2.89398,0.51071 -0.70932,0.31207 -1.26258,0.73764 -1.65979,1.27674 -0.39721,0.53909 -0.66675,1.14909 -0.80862,1.83003 -0.14184,0.68094 -0.21278,1.37607 -0.21278,2.08536 v 11.15039 h -5.95821 z m -10.90433,8.42664 c -0.0567,-0.51071 -0.17023,-1.02141 -0.34047,-1.53212 -0.17023,-0.5107 -0.4256,-0.96466 -0.76606,-1.36187 -0.34046,-0.39722 -0.78024,-0.72353 -1.31932,-0.97886 -0.5107,-0.25537 -1.14908,-0.38306 -1.91513,-0.38306 -0.73769,0 -1.37607,0.11341 -1.91514,0.34063 -0.53908,0.22722 -0.99304,0.53917 -1.36188,0.93627 -0.36882,0.36878 -0.65257,0.80862 -0.85117,1.31933 -0.19863,0.5107 -0.32628,1.06395 -0.38302,1.6598 z m 6.04333,7.14985 c -0.25533,0.76604 -0.62419,1.58882 -1.10653,2.46838 -0.48233,0.85118 -1.13489,1.6456 -1.95769,2.38329 -0.79443,0.70929 -1.78747,1.30513 -2.97911,1.78748 -1.16327,0.45396 -2.55352,0.68094 -4.17075,0.68094 -3.34795,0 -5.98658,-1.00721 -7.91591,-3.02168 -1.92932,-2.01446 -2.89399,-4.86586 -2.89399,-8.55428 0,-1.98607 0.25534,-3.7168 0.76606,-5.19217 0.53908,-1.50372 1.27676,-2.75211 2.21305,-3.74516 0.96466,-1.02141 2.09956,-1.78745 3.40469,-2.29815 1.33351,-0.5107 2.80887,-0.76608 4.4261,-0.76608 1.81584,0 3.37632,0.32636 4.68145,0.97886 1.30514,0.6242 2.3691,1.53211 3.1919,2.72376 0.8228,1.16325 1.43281,2.56771 1.83002,4.21331 0.39722,1.64561 0.59583,3.46144 0.59583,5.44751 h -15.15089 c 0.0286,0.73769 0.12769,1.43278 0.29793,2.08537 0.19862,0.65258 0.48233,1.22003 0.85117,1.70234 0.39721,0.48231 0.90792,0.86537 1.53211,1.1491 0.65257,0.28392 1.46118,0.42556 2.42585,0.42556 0.65256,0 1.19164,-0.071 1.61722,-0.21294 0.45396,-0.17012 0.8228,-0.36878 1.10653,-0.59584 0.31208,-0.25537 0.56745,-0.5249 0.76605,-0.80859 0.19863,-0.31207 0.36887,-0.59584 0.51071,-0.85117 z m -44.15593,-15.57649 h 6.55404 l 4.63889,16.683 h 0.0851 l 4.63889,-16.683 h 6.55403 l -8.17126,22.21564 h -6.29868 z m -25.16679,6.89452 c 0,1.44698 0.15603,2.80886 0.46814,4.08564 0.31208,1.27674 0.79443,2.39744 1.447,3.3621 0.65256,0.93631 1.47536,1.67399 2.4684,2.21305 1.02141,0.5391 2.24142,0.80862 3.66004,0.80862 1.41863,0 2.62445,-0.26964 3.61749,-0.80862 1.02141,-0.53906 1.85839,-1.27674 2.51096,-2.21305 0.65257,-0.96466 1.1349,-2.08536 1.44699,-3.3621 0.31208,-1.27678 0.46815,-2.63866 0.46815,-4.08564 0,-1.53211 -0.18443,-2.93657 -0.55326,-4.21331 -0.34047,-1.27674 -0.85118,-2.36909 -1.53211,-3.27701 -0.68094,-0.93631 -1.51793,-1.6598 -2.51097,-2.1705 -0.99303,-0.5391 -2.14211,-0.80862 -3.44725,-0.80862 -1.27676,0 -2.42584,0.26964 -3.44725,0.80862 -0.99303,0.5107 -1.83002,1.23419 -2.51096,2.1705 -0.68094,0.93627 -1.20583,2.04282 -1.57467,3.31956 -0.34047,1.27674 -0.5107,2.66701 -0.5107,4.17076 z m 8.04358,16.00206 c -2.24142,0 -4.27005,-0.38306 -6.08589,-1.14909 -1.78746,-0.76608 -3.31957,-1.84423 -4.59633,-3.23446 -1.24839,-1.39023 -2.21305,-3.06423 -2.89399,-5.02194 -0.68094,-1.98607 -1.02141,-4.18493 -1.02141,-6.59657 0,-2.55351 0.36887,-4.82331 1.10653,-6.80938 0.73768,-1.98607 1.74491,-3.66006 3.02167,-5.02194 1.30513,-1.36188 2.85142,-2.39748 4.63889,-3.10677 1.78746,-0.70929 3.73097,-1.06396 5.83053,-1.06396 2.09956,0 4.04307,0.35451 5.83054,1.06396 1.78746,0.68094 3.31957,1.70234 4.59633,3.06422 1.30514,1.36188 2.32654,3.03583 3.06423,5.0219 0.73768,1.98607 1.10652,4.27006 1.10652,6.85197 0,2.41164 -0.34047,4.6105 -1.02141,6.59657 -0.68094,1.95771 -1.65978,3.63171 -2.93654,5.02194 -1.24839,1.39023 -2.7805,2.46838 -4.59634,3.23446 -1.78746,0.76607 -3.8019,1.14909 -6.04333,1.14909 z M 427.3913,422.76945 c 0,2.07116 0.45396,3.63167 1.36188,4.68143 0.90792,1.02141 2.11375,1.53211 3.61747,1.53211 0.65259,0 1.26259,-0.12769 1.83004,-0.38306 0.5958,-0.25537 1.1065,-0.63839 1.53211,-1.14909 0.4256,-0.5391 0.75188,-1.22004 0.97886,-2.04282 0.25537,-0.82278 0.38305,-1.80164 0.38305,-2.93653 0,-1.07816 -0.14196,-2.00027 -0.42556,-2.76631 -0.25537,-0.79443 -0.61004,-1.43282 -1.064,-1.91517 -0.42557,-0.5107 -0.93627,-0.87952 -1.53211,-1.1065 -0.5958,-0.25537 -1.22,-0.38306 -1.87258,-0.38306 -1.36188,0 -2.51097,0.49651 -3.44724,1.48952 -0.90792,0.99306 -1.36188,2.65286 -1.36188,4.9794 z m 15.66159,8.80961 c 0,0.79443 -0.0285,1.61725 -0.0851,2.46842 -0.0285,0.87956 -0.15604,1.74489 -0.38302,2.59607 -0.19863,0.85117 -0.5249,1.65979 -0.97885,2.42583 -0.42559,0.76608 -1.03558,1.44702 -1.83001,2.04282 -0.79443,0.59584 -1.80164,1.06399 -3.02168,1.40446 -1.19164,0.34063 -2.667,0.51071 -4.4261,0.51071 -1.92932,0 -3.56073,-0.21295 -4.89425,-0.63839 -1.33349,-0.42561 -2.41164,-0.97886 -3.23446,-1.6598 -0.82278,-0.65259 -1.43278,-1.39027 -1.82999,-2.21305 -0.36878,-0.82278 -0.56749,-1.61721 -0.59584,-2.38329 h 6.29868 c 0.0567,0.19867 0.14196,0.42553 0.25537,0.68094 0.14196,0.25537 0.3549,0.49655 0.63835,0.72349 0.28392,0.22722 0.68094,0.41153 1.19164,0.55329 0.5391,0.17012 1.23423,0.25537 2.08541,0.25537 1.19164,0 2.11371,-0.19866 2.7663,-0.5958 0.68094,-0.36878 1.17745,-0.90796 1.48956,-1.61725 0.31208,-0.70929 0.51067,-1.56046 0.5958,-2.55352 0.0853,-0.99305 0.14197,-2.09956 0.17012,-3.31955 l -0.0853,-0.0853 c -0.0853,0.22722 -0.25537,0.55337 -0.5107,0.97886 -0.25537,0.42561 -0.62423,0.85117 -1.10655,1.27674 -0.45395,0.42561 -1.04976,0.79443 -1.78744,1.10655 -0.73768,0.31207 -1.6456,0.46815 -2.72375,0.46815 -1.39027,0 -2.68121,-0.25537 -3.87285,-0.76607 -1.19164,-0.51071 -2.22725,-1.2342 -3.10677,-2.17051 -0.87957,-0.96466 -1.5747,-2.12791 -2.08541,-3.48979 -0.48231,-1.39023 -0.72348,-2.93653 -0.72348,-4.63888 0,-1.92932 0.24109,-3.63167 0.72348,-5.10704 0.51071,-1.47536 1.19165,-2.70956 2.04282,-3.70261 0.85117,-0.99306 1.85842,-1.7449 3.02167,-2.2556 1.16325,-0.5107 2.42584,-0.76608 3.78771,-0.76608 0.99306,0 1.84423,0.14197 2.55352,0.42561 0.73769,0.25537 1.36188,0.58165 1.87258,0.97882 0.51071,0.39721 0.92212,0.82282 1.23423,1.27678 0.31208,0.45396 0.56741,0.86537 0.76604,1.23419 h 0.0853 v -3.23446 h 5.70283 z m -46.44547,-19.78977 h 5.70288 v 3.3196 h 0.0853 c 0.39721,-0.79443 0.87957,-1.44702 1.44701,-1.95772 0.56745,-0.5391 1.16325,-0.95047 1.78745,-1.23419 0.62419,-0.31208 1.24839,-0.5249 1.87258,-0.63839 0.62419,-0.11341 1.19164,-0.17012 1.70235,-0.17012 2.52512,0 4.44029,0.72349 5.74542,2.1705 1.33353,1.41863 2.00027,3.31956 2.00027,5.70284 v 15.02324 h -5.95821 v -13.57622 c 0,-0.87957 -0.11341,-1.58886 -0.34063,-2.12795 -0.22722,-0.56745 -0.52502,-1.00722 -0.89376,-1.31929 -0.34063,-0.34063 -0.75188,-0.56745 -1.23419,-0.68094 -0.48231,-0.11341 -0.97886,-0.17012 -1.48956,-0.17012 -0.53906,0 -1.07812,0.0991 -1.61721,0.2978 -0.5391,0.19867 -1.02141,0.55322 -1.44702,1.064 -0.42556,0.48231 -0.76603,1.1349 -1.02141,1.95768 -0.25537,0.82278 -0.38305,1.84419 -0.38305,3.06422 v 11.49086 h -5.95821 z m -11.93105,-8.42659 h 5.95821 v 5.5326 h -5.95821 z m 0,8.42659 h 5.95821 v 22.21564 h -5.95821 z m -16.41366,0 h 5.70288 v 3.66007 h 0.0853 c 0.17012,-0.28393 0.41141,-0.66679 0.72349,-1.1491 0.31208,-0.48231 0.70933,-0.95046 1.19164,-1.40442 0.51071,-0.48235 1.09235,-0.89376 1.74494,-1.23423 0.65254,-0.36879 1.39023,-0.55326 2.21305,-0.55326 0.19866,0 0.41133,0.0159 0.63835,0.0424 0.22721,0 0.43988,0.0159 0.63839,0.0424 v 6.04331 c -0.22722,-0.0277 -0.46824,-0.0424 -0.72349,-0.0424 -0.22722,-0.0278 -0.45408,-0.0424 -0.68094,-0.0424 -1.19164,0 -2.15631,0.17012 -2.89399,0.51071 -0.70929,0.31207 -1.26258,0.73764 -1.6598,1.27674 -0.39721,0.53909 -0.66674,1.14909 -0.80862,1.83003 -0.14196,0.68094 -0.21294,1.37607 -0.21294,2.08536 v 11.15039 h -5.95821 z m -11.8027,18.89605 h -0.0853 c -0.39721,0.82278 -0.87952,1.48956 -1.44697,2.00026 -0.56745,0.51071 -1.16329,0.92208 -1.78748,1.23419 -0.6242,0.28393 -1.24839,0.48235 -1.87258,0.59584 -0.6242,0.11341 -1.19165,0.17012 -1.70235,0.17012 -2.52513,0 -4.45445,-0.70933 -5.78798,-2.12795 -1.30513,-1.44702 -1.95768,-3.36215 -1.95768,-5.74543 v -15.0232 h 5.95822 v 13.57622 c 0,0.87957 0.11341,1.60306 0.34062,2.17051 0.22722,0.53905 0.51083,0.97882 0.85118,1.31928 0.36878,0.31208 0.79442,0.5249 1.27674,0.63839 0.48231,0.11341 0.97886,0.17012 1.48956,0.17012 0.5391,0 1.07815,-0.0991 1.61721,-0.2978 0.53909,-0.19867 1.02141,-0.53902 1.44701,-1.02141 0.42561,-0.5107 0.76608,-1.16325 1.02141,-1.95768 0.25537,-0.82278 0.38306,-1.85838 0.38306,-3.10677 v -11.49086 h 5.95821 v 22.21564 h -5.70284 z m -24.90148,-12.17176 c -0.0567,-0.34063 -0.15624,-0.66674 -0.2978,-0.97886 -0.11341,-0.34063 -0.32636,-0.63839 -0.63839,-0.89372 -0.28393,-0.25537 -0.68094,-0.454 -1.19165,-0.59584 -0.48231,-0.17012 -1.13489,-0.25537 -1.95767,-0.25537 -0.93628,0 -1.7449,0.15623 -2.42584,0.46811 -0.65258,0.31208 -0.97886,0.75188 -0.97886,1.31933 0,0.73768 0.34063,1.27678 1.02141,1.61725 0.68094,0.34063 1.53211,0.62419 2.55352,0.85117 1.04976,0.22722 2.1705,0.45408 3.36214,0.68094 1.19165,0.19867 2.29815,0.53902 3.31956,1.02141 1.04976,0.45396 1.91513,1.09235 2.59607,1.91513 0.68094,0.79443 1.0214,1.90093 1.0214,3.31955 0,1.24839 -0.24109,2.35494 -0.72348,3.3196 -0.45396,0.93627 -1.10651,1.7307 -1.95768,2.38328 -0.82282,0.65259 -1.83003,1.1491 -3.02168,1.48957 -1.16325,0.34062 -2.45422,0.5107 -3.87284,0.5107 -2.04282,0 -3.75936,-0.22682 -5.14959,-0.68094 -1.36188,-0.45396 -2.46842,-1.0498 -3.3196,-1.78748 -0.85117,-0.73769 -1.47536,-1.57466 -1.87258,-2.51097 -0.36878,-0.96467 -0.56744,-1.94349 -0.5958,-2.93654 h 6.12845 c 0.0278,0.31208 0.0849,0.65259 0.17011,1.02141 0.11342,0.36878 0.32636,0.72348 0.63839,1.06395 0.34063,0.31208 0.83698,0.58165 1.48953,0.80863 0.65258,0.22722 1.53211,0.34063 2.63865,0.34063 0.99306,0 1.84423,-0.17012 2.55352,-0.51071 0.73769,-0.34063 1.10651,-0.86537 1.10651,-1.57466 0,-0.70929 -0.34063,-1.24839 -1.02141,-1.61725 -0.68094,-0.36878 -1.54631,-0.66674 -2.59607,-0.89372 -1.0214,-0.22722 -2.12791,-0.45408 -3.31955,-0.68094 -1.19164,-0.22721 -2.31239,-0.56756 -3.36215,-1.0214 -1.0214,-0.45396 -1.87258,-1.06396 -2.55352,-1.83004 -0.68093,-0.79443 -1.0214,-1.88677 -1.0214,-3.277 0,-1.04976 0.18439,-2.02862 0.55325,-2.93654 0.36878,-0.90792 0.93627,-1.70235 1.70235,-2.38329 0.79442,-0.68093 1.78748,-1.20583 2.97912,-1.57466 1.22,-0.39721 2.66697,-0.59584 4.34096,-0.59584 2.07117,0 3.71677,0.28393 4.93681,0.85118 1.24839,0.53909 2.19885,1.20583 2.85144,2.00026 0.68094,0.76608 1.1207,1.57466 1.31933,2.42584 0.22721,0.82278 0.3549,1.53211 0.38305,2.12795 z m -23.34943,4.5112 c -0.82278,0.48231 -1.70234,0.82278 -2.63861,1.02141 -0.93628,0.17011 -1.81584,0.36878 -2.63866,0.59584 -0.79443,0.19866 -1.46117,0.51062 -2.00023,0.93627 -0.53909,0.4256 -0.80862,1.10654 -0.80862,2.04281 0,0.65259 0.28392,1.22004 0.85117,1.70235 0.56745,0.45396 1.36188,0.68094 2.38329,0.68094 1.53211,0 2.72375,-0.43977 3.57492,-1.31933 0.85118,-0.90792 1.27674,-2.21305 1.27674,-3.9154 z m 0.93631,10.98015 c -0.22722,-0.36878 -0.42568,-0.85121 -0.59584,-1.44701 -0.14196,-0.5958 -0.22722,-1.04976 -0.25537,-1.36188 -0.28392,0.34063 -0.62419,0.72349 -1.02141,1.14909 -0.39721,0.39722 -0.87956,0.76604 -1.44701,1.10651 -0.53906,0.34063 -1.17745,0.62419 -1.91513,0.85117 -0.70929,0.25537 -1.54631,0.38306 -2.51097,0.38306 -2.2698,0 -4.01469,-0.58165 -5.23469,-1.74494 -1.22003,-1.19164 -1.83003,-2.92234 -1.83003,-5.19213 0,-1.24839 0.18439,-2.2698 0.55325,-3.06422 0.39722,-0.82279 0.90792,-1.48957 1.53211,-2.00027 0.65259,-0.5391 1.37608,-0.95047 2.17051,-1.23419 0.82278,-0.28393 1.65979,-0.49655 2.51097,-0.63839 0.87952,-0.17012 1.74489,-0.31208 2.59606,-0.42557 0.85118,-0.11341 1.61721,-0.25537 2.29815,-0.42561 0.82282,-0.19866 1.39027,-0.39713 1.70235,-0.5958 0.34063,-0.19866 0.5107,-0.62411 0.5107,-1.27678 0,-0.79442 -0.31207,-1.37607 -0.93627,-1.74489 -0.5958,-0.36878 -1.43282,-0.55325 -2.51097,-0.55325 -0.85117,0 -1.53211,0.0991 -2.04281,0.2978 -0.51071,0.17011 -0.92208,0.39721 -1.2342,0.68094 -0.28392,0.28392 -0.48235,0.61003 -0.59584,0.97886 -0.11341,0.36878 -0.19866,0.73768 -0.25537,1.10654 h -5.53264 c 0,-0.79443 0.11341,-1.6456 0.34062,-2.55352 0.25538,-0.90792 0.72353,-1.74489 1.40447,-2.51097 0.68094,-0.76608 1.63141,-1.40443 2.8514,-1.91513 1.24839,-0.5107 2.89399,-0.76608 4.9368,-0.76608 3.3196,0 5.70288,0.6242 7.14986,1.87259 1.47537,1.22003 2.21305,2.99328 2.21305,5.31982 v 11.10784 c 0,1.1065 0.11341,1.91513 0.34063,2.42583 0.22721,0.5107 0.53917,0.86533 0.93631,1.06396 v 1.10654 z m -24.35287,-13.789 c -0.0567,-0.51071 -0.17051,-1.02141 -0.34063,-1.53212 -0.17011,-0.5107 -0.4256,-0.96466 -0.76603,-1.36187 -0.34063,-0.39722 -0.78023,-0.72353 -1.31933,-0.97886 -0.5107,-0.25537 -1.14909,-0.38306 -1.91513,-0.38306 -0.73768,0 -1.37607,0.11341 -1.91517,0.34063 -0.53905,0.22722 -0.99301,0.53917 -1.36188,0.93627 -0.36878,0.36878 -0.65254,0.80862 -0.85117,1.31933 -0.19866,0.5107 -0.32635,1.06395 -0.38306,1.6598 z m 6.04335,7.14985 c -0.25537,0.76604 -0.62423,1.58882 -1.10654,2.46838 -0.48231,0.85118 -1.1349,1.6456 -1.95768,2.38329 -0.79443,0.70929 -1.78748,1.30513 -2.97913,1.78748 -1.16325,0.45396 -2.55352,0.68094 -4.17073,0.68094 -3.34794,0 -5.9866,-1.00721 -7.91593,-3.02168 -1.92932,-2.01446 -2.89398,-4.86586 -2.89398,-8.55428 0,-1.98607 0.25537,-3.7168 0.76607,-5.19217 0.53906,-1.50372 1.27674,-2.75211 2.21305,-3.74516 0.96466,-1.02141 2.09956,-1.78745 3.40469,-2.29815 1.33349,-0.5107 2.80886,-0.76608 4.4261,-0.76608 1.81584,0 3.3763,0.32636 4.68144,0.97886 1.30513,0.6242 2.36912,1.53211 3.19191,2.72376 0.82278,1.16325 1.43281,2.56771 1.83003,4.21331 0.39721,1.64561 0.5958,3.46144 0.5958,5.44751 h -15.15088 c 0.0278,0.73769 0.12768,1.43278 0.2978,2.08537 0.19867,0.65258 0.48227,1.22003 0.85117,1.70234 0.39722,0.48231 0.90792,0.86537 1.53211,1.1491 0.65259,0.28392 1.46117,0.42556 2.42584,0.42556 0.65258,0 1.19164,-0.071 1.61725,-0.21294 0.45396,-0.17012 0.82278,-0.36878 1.1065,-0.59584 0.31208,-0.25537 0.56745,-0.5249 0.76608,-0.80859 0.19866,-0.31207 0.36878,-0.59584 0.5107,-0.85117 z M 235.68051,403.3627 h 9.40549 l 5.27727,22.6412 h 0.0853 l 5.27727,-22.6412 h 9.40546 v 30.64223 h -5.95822 v -23.74775 h -0.0853 l -5.53265,23.74775 h -6.29868 l -5.5326,-23.74775 h -0.0853 v 23.74775 h -5.95821 z m -24.81567,15.15088 c -0.0567,-0.34063 -0.15624,-0.66674 -0.2978,-0.97886 -0.11341,-0.34063 -0.32636,-0.63839 -0.63839,-0.89372 -0.28393,-0.25537 -0.68094,-0.454 -1.19165,-0.59584 -0.48231,-0.17012 -1.13489,-0.25537 -1.95767,-0.25537 -0.93628,0 -1.7449,0.15623 -2.42584,0.46811 -0.65258,0.31208 -0.97886,0.75188 -0.97886,1.31933 0,0.73768 0.34063,1.27678 1.02141,1.61725 0.68094,0.34063 1.53211,0.62419 2.55352,0.85117 1.04976,0.22722 2.1705,0.45408 3.36214,0.68094 1.19165,0.19867 2.29815,0.53902 3.31956,1.02141 1.04976,0.45396 1.91513,1.09235 2.59607,1.91513 0.68094,0.79443 1.0214,1.90093 1.0214,3.31955 0,1.24839 -0.24109,2.35494 -0.72348,3.3196 -0.45396,0.93627 -1.10651,1.7307 -1.95768,2.38328 -0.82282,0.65259 -1.83003,1.1491 -3.02168,1.48957 -1.16325,0.34062 -2.45422,0.5107 -3.87284,0.5107 -2.04282,0 -3.75936,-0.22682 -5.14959,-0.68094 -1.36188,-0.45396 -2.46842,-1.0498 -3.3196,-1.78748 -0.85117,-0.73769 -1.47536,-1.57466 -1.87258,-2.51097 -0.36878,-0.96467 -0.56745,-1.94349 -0.5958,-2.93654 h 6.12845 c 0.0278,0.31208 0.0849,0.65259 0.17011,1.02141 0.11341,0.36878 0.32636,0.72348 0.63839,1.06395 0.34063,0.31208 0.83698,0.58165 1.48953,0.80863 0.65258,0.22722 1.53211,0.34063 2.63865,0.34063 0.99306,0 1.84423,-0.17012 2.55352,-0.51071 0.73769,-0.34063 1.10651,-0.86537 1.10651,-1.57466 0,-0.70929 -0.34063,-1.24839 -1.02141,-1.61725 -0.68094,-0.36878 -1.54631,-0.66674 -2.59607,-0.89372 -1.02141,-0.22722 -2.12791,-0.45408 -3.31955,-0.68094 -1.19165,-0.22721 -2.31239,-0.56756 -3.36215,-1.0214 -1.0214,-0.45396 -1.87258,-1.06396 -2.55352,-1.83004 -0.68093,-0.79443 -1.0214,-1.88677 -1.0214,-3.277 0,-1.04976 0.18439,-2.02862 0.55325,-2.93654 0.36878,-0.90792 0.93627,-1.70235 1.70235,-2.38329 0.79442,-0.68093 1.78748,-1.20583 2.97912,-1.57466 1.22,-0.39721 2.66697,-0.59584 4.34096,-0.59584 2.07117,0 3.71677,0.28393 4.93681,0.85118 1.24839,0.53909 2.19885,1.20583 2.85144,2.00026 0.68094,0.76608 1.1207,1.57466 1.31933,2.42584 0.22721,0.82278 0.3549,1.53211 0.38305,2.12795 z m -23.07609,1.70235 c -0.0567,-0.51071 -0.17052,-1.02141 -0.34063,-1.53212 -0.17012,-0.5107 -0.42561,-0.96466 -0.76604,-1.36187 -0.34062,-0.39722 -0.78023,-0.72353 -1.31933,-0.97886 -0.5107,-0.25537 -1.14909,-0.38306 -1.91512,-0.38306 -0.73769,0 -1.37608,0.11341 -1.91517,0.34063 -0.53906,0.22722 -0.99302,0.53917 -1.36188,0.93627 -0.36878,0.36878 -0.65255,0.80862 -0.85117,1.31933 -0.19867,0.5107 -0.32636,1.06395 -0.38306,1.6598 z m 6.04335,7.14985 c -0.25538,0.76604 -0.62424,1.58882 -1.10655,2.46838 -0.48231,0.85118 -1.1349,1.6456 -1.95768,2.38329 -0.79443,0.70929 -1.78748,1.30513 -2.97912,1.78748 -1.16325,0.45396 -2.55352,0.68094 -4.17073,0.68094 -3.34795,0 -5.98661,-1.00721 -7.91593,-3.02168 -1.92933,-2.01446 -2.89399,-4.86586 -2.89399,-8.55428 0,-1.98607 0.25537,-3.7168 0.76604,-5.19217 0.53909,-1.50372 1.27678,-2.75211 2.21305,-3.74516 0.96466,-1.02141 2.0996,-1.78745 3.40473,-2.29815 1.33348,-0.5107 2.80885,-0.76608 4.4261,-0.76608 1.81583,0 3.3763,0.32636 4.68143,0.97886 1.30513,0.6242 2.36913,1.53211 3.19191,2.72376 0.82278,1.16325 1.43282,2.56771 1.83003,4.21331 0.39722,1.64561 0.5958,3.46144 0.5958,5.44751 h -15.15088 c 0.0278,0.73769 0.12769,1.43278 0.2978,2.08537 0.19867,0.65258 0.48228,1.22003 0.85118,1.70234 0.39721,0.48231 0.90791,0.86537 1.53211,1.1491 0.65258,0.28392 1.46117,0.42556 2.42583,0.42556 0.65259,0 1.19164,-0.071 1.61725,-0.21294 0.45396,-0.17012 0.82278,-0.36878 1.10651,-0.59584 0.31207,-0.25537 0.56744,-0.5249 0.76607,-0.80859 0.19867,-0.31207 0.36878,-0.59584 0.51071,-0.85117 z M 162.32402,403.3627 h 5.95821 v 30.64223 h -5.95821 z m -4.41079,22.30073 c -0.11342,1.04976 -0.39714,2.11372 -0.85118,3.19187 -0.4256,1.0498 -1.0498,2.01447 -1.87258,2.89399 -0.79443,0.85118 -1.78744,1.56051 -2.97908,2.12795 -1.19165,0.5391 -2.61027,0.80863 -4.25587,0.80863 -1.61725,0 -3.09262,-0.25537 -4.4261,-0.76608 -1.30513,-0.5107 -2.42587,-1.26254 -3.36214,-2.2556 -0.90792,-0.99305 -1.61725,-2.21305 -2.12796,-3.66006 -0.48231,-1.44697 -0.72348,-3.10677 -0.72348,-4.97935 0,-1.95768 0.25537,-3.67422 0.76607,-5.14959 0.53906,-1.50372 1.27674,-2.75211 2.21305,-3.74516 0.93627,-0.99306 2.05697,-1.7449 3.36211,-2.2556 1.30513,-0.5107 2.73795,-0.76608 4.29845,-0.76608 1.81584,0 3.34795,0.31208 4.59633,0.93631 1.24839,0.59581 2.2556,1.34769 3.02164,2.2556 0.79443,0.87957 1.36188,1.83004 1.70235,2.85144 0.36878,0.99302 0.58164,1.87254 0.63839,2.63862 h -5.95822 c -0.0853,-0.42561 -0.21294,-0.85117 -0.38305,-1.27674 -0.14197,-0.45396 -0.36879,-0.85117 -0.68094,-1.19164 -0.28393,-0.34063 -0.66678,-0.6242 -1.1491,-0.85118 -0.48231,-0.22721 -1.07815,-0.34062 -1.78744,-0.34062 -0.85117,0 -1.5605,0.19866 -2.12795,0.5958 -0.56745,0.39721 -1.03561,0.92211 -1.40443,1.57466 -0.34063,0.62419 -0.59584,1.36188 -0.76607,2.21305 -0.14197,0.82282 -0.21295,1.6598 -0.21295,2.51097 0,0.87956 0.0567,1.71654 0.17012,2.51097 0.14196,0.79443 0.38306,1.50372 0.72349,2.12791 0.34062,0.59584 0.79443,1.07819 1.36187,1.44702 0.59584,0.36878 1.34772,0.55325 2.25564,0.55325 0.70929,0 1.30513,-0.12769 1.78745,-0.38306 0.48231,-0.25537 0.86537,-0.56749 1.14909,-0.93631 0.31208,-0.39721 0.5391,-0.82278 0.68094,-1.27674 0.17011,-0.48231 0.2978,-0.95047 0.38306,-1.40442 z M 126.83079,403.3627 h 5.95822 v 5.5326 h -5.95822 z m 0,8.42659 h 5.95822 v 22.21564 h -5.95822 z m -25.97476,-8.42659 h 5.95822 v 11.57595 h 0.0853 c 0.34063,-0.73768 0.78024,-1.34772 1.31929,-1.83003 0.5391,-0.5107 1.10655,-0.90792 1.70235,-1.19164 0.59584,-0.31208 1.20584,-0.5249 1.83003,-0.63839 0.62419,-0.11341 1.19164,-0.17012 1.70235,-0.17012 2.52512,0 4.44029,0.72349 5.74543,2.1705 1.33352,1.41863 2.00026,3.31956 2.00026,5.70284 v 15.02324 h -5.95821 v -13.57622 c 0,-0.87957 -0.11341,-1.58886 -0.34063,-2.12795 -0.22721,-0.56745 -0.52502,-1.00722 -0.89376,-1.31929 -0.34063,-0.34063 -0.75188,-0.56745 -1.23419,-0.68094 -0.48231,-0.11341 -0.97886,-0.17012 -1.48956,-0.17012 -0.53906,0 -1.07812,0.0991 -1.61721,0.2978 -0.5391,0.19867 -1.02141,0.55322 -1.44702,1.064 -0.42556,0.48231 -0.76603,1.1349 -1.0214,1.95768 -0.25538,0.82278 -0.38306,1.84419 -0.38306,3.06422 v 11.49086 h -5.95821 z m -10.819192,16.85323 c -0.0567,-0.51071 -0.170512,-1.02141 -0.340628,-1.53212 -0.170116,-0.5107 -0.425606,-0.96466 -0.766076,-1.36187 -0.340628,-0.39722 -0.780232,-0.72353 -1.319288,-0.97886 -0.510704,-0.25537 -1.149094,-0.38306 -1.91517,-0.38306 -0.737683,0 -1.376033,0.11341 -1.915129,0.34063 -0.539096,0.22722 -0.993055,0.53917 -1.361877,0.93627 -0.368782,0.36878 -0.652546,0.80862 -0.851173,1.31933 -0.198667,0.5107 -0.326353,1.06395 -0.383058,1.6598 z m 6.043309,7.14985 c -0.255372,0.76604 -0.624194,1.58882 -1.106505,2.46838 -0.482312,0.85118 -1.134898,1.6456 -1.957718,2.38329 -0.794428,0.70929 -1.787444,1.30513 -2.979086,1.78748 -1.16325,0.45396 -2.55352,0.68094 -4.170768,0.68094 -3.347948,0 -5.986565,-1.00721 -7.91589,-3.02168 -1.929326,-2.01446 -2.893989,-4.86586 -2.893989,-8.55428 0,-1.98607 0.255372,-3.7168 0.766036,-5.19217 0.539096,-1.50372 1.276779,-2.75211 2.21305,-3.74516 0.964663,-1.02141 2.09956,-1.78745 3.404693,-2.29815 1.333524,-0.5107 2.808891,-0.76608 4.4261,-0.76608 1.815836,0 3.37634,0.32636 4.681472,0.97886 1.305132,0.6242 2.369088,1.53211 3.191909,2.72376 0.822781,1.16325 1.432778,2.56771 1.829992,4.21331 0.397214,1.64561 0.595841,3.46144 0.595841,5.44751 H 81.014403 c 0.02776,0.73769 0.127686,1.43278 0.297801,2.08537 0.198667,0.65258 0.482272,1.22003 0.851173,1.70234 0.397215,0.48231 0.907918,0.86537 1.532112,1.1491 0.652546,0.28392 1.461171,0.42556 2.425833,0.42556 0.652586,0 1.191643,-0.071 1.61721,-0.21294 0.453959,-0.17012 0.82282,-0.36878 1.106544,-0.59584 0.312077,-0.25537 0.567449,-0.5249 0.766036,-0.80859 0.198667,-0.31207 0.368783,-0.59584 0.510704,-0.85117 z M 50.192618,403.3627 h 6.979619 l 6.511464,22.38583 h 0.08526 l 6.511465,-22.38583 h 6.809385 L 66.365026,434.00493 H 60.577048 Z M 478.09397,372.66939 c 0,0.82278 0.0993,1.6456 0.29792,2.46838 0.19863,0.79443 0.49652,1.51792 0.89373,2.17051 0.42559,0.62419 0.96466,1.13489 1.61723,1.53211 0.68094,0.39721 1.48955,0.59584 2.42584,0.59584 0.93629,0 1.73072,-0.19867 2.38329,-0.59584 0.68094,-0.39722 1.22001,-0.90792 1.61723,-1.53211 0.42558,-0.65259 0.73768,-1.37608 0.93629,-2.17051 0.19862,-0.82278 0.29792,-1.6456 0.29792,-2.46838 0,-0.85117 -0.0993,-1.67399 -0.29792,-2.46842 -0.19863,-0.82278 -0.51072,-1.54627 -0.93629,-2.17046 -0.39722,-0.65259 -0.93629,-1.16329 -1.61723,-1.53211 -0.65257,-0.39722 -1.447,-0.59584 -2.38329,-0.59584 -0.93629,0 -1.7449,0.19866 -2.42584,0.59584 -0.65257,0.36878 -1.19164,0.87952 -1.61723,1.53211 -0.39721,0.62419 -0.69512,1.34768 -0.89373,2.17046 -0.19863,0.79443 -0.29792,1.61725 -0.29792,2.46842 z m 5.23471,11.78874 c -1.70235,0 -3.24864,-0.26965 -4.63889,-0.80862 -1.39025,-0.53906 -2.59608,-1.3051 -3.61749,-2.29815 -0.99303,-1.02141 -1.75909,-2.2556 -2.29817,-3.70261 -0.53907,-1.47537 -0.80861,-3.13517 -0.80861,-4.97936 0,-1.84419 0.26953,-3.48979 0.80861,-4.9368 0.53908,-1.47537 1.30514,-2.70956 2.29817,-3.70261 1.02141,-1.02141 2.22724,-1.80164 3.61749,-2.34074 1.39025,-0.53906 2.93654,-0.80859 4.63889,-0.80859 1.70235,0 3.24865,0.26965 4.6389,0.80859 1.39025,0.5391 2.58189,1.31933 3.57492,2.34074 1.02141,0.99305 1.80165,2.22724 2.34073,3.70261 0.53907,1.44701 0.80861,3.09261 0.80861,4.9368 0,1.84419 -0.26952,3.50399 -0.80861,4.97936 -0.53908,1.44701 -1.31932,2.6812 -2.34073,3.70261 -0.99303,0.99305 -2.18467,1.75909 -3.57492,2.29815 -1.39025,0.53909 -2.93655,0.80862 -4.6389,0.80862 z m -13.66265,-0.17023 c -0.39721,0.0567 -0.83698,0.0995 -1.31931,0.12768 -0.48233,0.0278 -0.87955,0.0424 -1.19165,0.0424 -1.44699,0 -2.63863,-0.11341 -3.57492,-0.34063 -0.90792,-0.22721 -1.61723,-0.59592 -2.12793,-1.1065 -0.51071,-0.5391 -0.86537,-1.22004 -1.06397,-2.04282 -0.17024,-0.85117 -0.25538,-1.88677 -0.25538,-3.10681 v -12.04407 h -2.89398 v -4.25586 h 2.89398 v -5.95822 h 5.95822 v 5.95822 h 3.57492 v 4.25586 h -3.57492 v 11.83129 c 0,0.5107 0.0285,0.90792 0.0851,1.19164 0.0851,0.28392 0.24118,0.49655 0.46815,0.63839 0.25533,0.14196 0.61,0.22722 1.06397,0.25537 0.48233,0.0278 1.13489,0.0424 1.95769,0.0424 z m -46.10431,-11.53341 c 0,0.93631 0.0853,1.81588 0.25537,2.63866 0.19866,0.79442 0.49643,1.48956 0.89372,2.08536 0.42561,0.5958 0.95051,1.07815 1.5747,1.44701 0.62419,0.34063 1.36188,0.51071 2.21305,0.51071 1.67395,0 2.90814,-0.58165 3.70257,-1.74494 0.82282,-1.16325 1.23423,-2.80885 1.23423,-4.9368 0,-0.96466 -0.0991,-1.84419 -0.2978,-2.63862 -0.19866,-0.82278 -0.49643,-1.53211 -0.89372,-2.12795 -0.36878,-0.5958 -0.86537,-1.06396 -1.48956,-1.40443 -0.5958,-0.34062 -1.29094,-0.5107 -2.08537,-0.5107 -0.82282,0 -1.5463,0.18439 -2.1705,0.55325 -0.62419,0.34063 -1.16329,0.82282 -1.61725,1.44702 -0.42556,0.5958 -0.75184,1.30513 -0.97882,2.12791 -0.22721,0.79443 -0.34062,1.6456 -0.34062,2.55352 z m 10.12894,7.70315 h -0.0853 c -0.17012,0.39721 -0.41141,0.83697 -0.72353,1.31928 -0.31207,0.45396 -0.72348,0.87957 -1.23419,1.27678 -0.5107,0.39722 -1.14905,0.72349 -1.91513,0.97886 -0.73768,0.28393 -1.61725,0.42557 -2.63865,0.42557 -1.44698,0 -2.76631,-0.26965 -3.95795,-0.80862 -1.16325,-0.53906 -2.1705,-1.3051 -3.02167,-2.29815 -0.85118,-0.99306 -1.51792,-2.1847 -2.00023,-3.57493 -0.45396,-1.41862 -0.68094,-2.99332 -0.68094,-4.72402 0,-1.5605 0.21294,-3.06422 0.63835,-4.5112 0.42561,-1.47536 1.0498,-2.7805 1.87258,-3.91539 0.82282,-1.1349 1.83003,-2.04282 3.02168,-2.72376 1.22003,-0.68094 2.62446,-1.02141 4.21331,-1.02141 0.90792,0 1.70235,0.0991 2.38329,0.29781 0.68094,0.19866 1.26258,0.46807 1.74489,0.80862 0.51071,0.34063 0.92212,0.72349 1.23419,1.14909 0.34063,0.42561 0.61,0.86537 0.80863,1.31933 h 0.0852 v -11.32062 h 5.95822 v 30.64223 h -5.70288 z m -25.54452,-10.46945 c -0.0567,-0.51071 -0.17051,-1.02141 -0.34062,-1.53211 -0.17012,-0.51071 -0.42561,-0.96467 -0.76604,-1.36188 -0.34063,-0.39722 -0.78023,-0.72349 -1.31933,-0.97886 -0.5107,-0.25537 -1.14905,-0.38306 -1.91513,-0.38306 -0.73768,0 -1.37607,0.11341 -1.91513,0.34063 -0.53909,0.22722 -0.99305,0.53918 -1.36187,0.93631 -0.36879,0.36878 -0.65259,0.80858 -0.85118,1.31929 -0.19866,0.5107 -0.32635,1.06399 -0.38306,1.6598 z m 6.04335,7.14985 c -0.25537,0.76608 -0.62423,1.58886 -1.10654,2.46842 -0.48231,0.85118 -1.1349,1.6456 -1.95768,2.38329 -0.79443,0.70929 -1.78748,1.30513 -2.97913,1.78744 -1.16325,0.45396 -2.55352,0.68094 -4.17072,0.68094 -3.34795,0 -5.98661,-1.00721 -7.91593,-3.02167 -1.92933,-2.01443 -2.89399,-4.86587 -2.89399,-8.55428 0,-1.98607 0.25537,-3.71677 0.76607,-5.19214 0.5391,-1.50376 1.27678,-2.75215 2.21305,-3.74516 0.96467,-1.02141 2.09956,-1.78749 3.4047,-2.29819 1.33352,-0.5107 2.80889,-0.76604 4.4261,-0.76604 1.81583,0 3.3763,0.32636 4.68143,0.97882 1.30513,0.6242 2.36913,1.53212 3.19191,2.72376 0.82278,1.16329 1.43281,2.56771 1.83003,4.21331 0.39721,1.64561 0.5958,3.46144 0.5958,5.44751 h -15.15088 c 0.0278,0.73769 0.12768,1.43282 0.2978,2.08537 0.19867,0.65258 0.48227,1.22003 0.85117,1.70234 0.39722,0.48235 0.90792,0.86537 1.53212,1.1491 0.65258,0.28392 1.46117,0.4256 2.42583,0.4256 0.65258,0 1.19164,-0.071 1.61725,-0.21294 0.45396,-0.17011 0.82278,-0.36878 1.1065,-0.5958 0.31208,-0.25537 0.56745,-0.5249 0.76608,-0.80862 0.19866,-0.31208 0.36878,-0.59585 0.5107,-0.85118 z m -24.15472,7.14986 c -0.39721,0.0567 -0.83697,0.0995 -1.31932,0.12768 -0.48232,0.0278 -0.87953,0.0424 -1.19165,0.0424 -1.44697,0 -2.63861,-0.11341 -3.57492,-0.34063 -0.90792,-0.22721 -1.61721,-0.59592 -2.12792,-1.1065 -0.5107,-0.5391 -0.86537,-1.22004 -1.06395,-2.04282 -0.17012,-0.85117 -0.25537,-1.88677 -0.25537,-3.10681 v -12.04407 h -2.89399 v -4.25586 h 2.89399 v -5.95822 h 5.95821 v 5.95822 h 3.57492 v 4.25586 h -3.57492 v 11.83129 c 0,0.5107 0.0277,0.90792 0.0852,1.19164 0.0853,0.28392 0.2411,0.49655 0.46812,0.63839 0.25537,0.14196 0.61004,0.22722 1.06399,0.25537 0.48232,0.0278 1.1349,0.0424 1.95768,0.0424 z m -22.31532,-31.15294 h 5.95821 v 5.53264 h -5.95821 z m 0,8.42663 h 5.95821 v 22.2156 h -5.95821 z m -20.35702,11.1078 c 0,2.12796 0.39721,3.78771 1.19164,4.97936 0.82278,1.19164 2.07117,1.78748 3.74516,1.78748 0.85118,0 1.58886,-0.17012 2.21305,-0.51071 0.6242,-0.36878 1.1349,-0.85121 1.53212,-1.44701 0.4256,-0.62419 0.72348,-1.34768 0.89372,-2.1705 0.19866,-0.82278 0.2978,-1.70235 0.2978,-2.63862 0,-0.82278 -0.0853,-1.6314 -0.25537,-2.42583 -0.17012,-0.79443 -0.45396,-1.48956 -0.85118,-2.0854 -0.36878,-0.6242 -0.86532,-1.12071 -1.48952,-1.48953 -0.62419,-0.39721 -1.40446,-0.59584 -2.34073,-0.59584 -0.87957,0 -1.63141,0.18439 -2.2556,0.55325 -0.6242,0.34063 -1.1349,0.80863 -1.53211,1.40447 -0.39722,0.5958 -0.69514,1.30513 -0.89377,2.12791 -0.17011,0.79443 -0.25537,1.63141 -0.25537,2.51097 z m -5.95821,-19.53443 h 5.95821 v 11.32062 h 0.0853 c 0.19866,-0.45396 0.48227,-0.89372 0.85117,-1.31933 0.36878,-0.4256 0.82282,-0.80862 1.36188,-1.14909 0.53909,-0.34063 1.16329,-0.61 1.87258,-0.80862 0.70933,-0.19867 1.51795,-0.29781 2.42587,-0.29781 1.6456,0 3.05003,0.32636 4.21328,0.97882 1.19164,0.6242 2.1705,1.46121 2.93657,2.51097 0.76604,1.04976 1.33349,2.2556 1.70235,3.61748 0.36878,1.33352 0.55325,2.7096 0.55325,4.12822 0,1.87258 -0.24109,3.57493 -0.72348,5.10704 -0.45396,1.53211 -1.10655,2.83724 -1.95772,3.91539 -0.82278,1.04976 -1.81584,1.87258 -2.97909,2.46839 -1.16329,0.56745 -2.44007,0.85117 -3.8303,0.85117 -1.07815,0 -2.00022,-0.12769 -2.7663,-0.38306 -0.76607,-0.25537 -1.41862,-0.56749 -1.95772,-0.93631 -0.5107,-0.39721 -0.92207,-0.83698 -1.23419,-1.31929 -0.31208,-0.48235 -0.55325,-0.93631 -0.72349,-1.36187 h -0.0852 v 3.31955 h -5.70284 z m -11.50549,0 h 5.95821 v 5.53264 h -5.95821 z m 0,8.42663 h 5.95821 v 22.2156 h -5.95821 z m -25.97472,-8.42663 h 5.95821 v 11.57595 h 0.0853 c 0.34063,-0.73768 0.78023,-1.34768 1.31933,-1.83003 0.53909,-0.5107 1.10654,-0.90792 1.70234,-1.19164 0.59581,-0.31208 1.20584,-0.52486 1.83004,-0.63835 0.62419,-0.11341 1.19164,-0.17012 1.70234,-0.17012 2.52513,0 4.44026,0.72349 5.74539,2.17047 1.33353,1.41862 2.00027,3.31959 2.00027,5.70288 v 15.02319 h -5.95821 v -13.57622 c 0,-0.87953 -0.11341,-1.58882 -0.34063,-2.12791 -0.22722,-0.56745 -0.52498,-1.00722 -0.89372,-1.31933 -0.34063,-0.34063 -0.75188,-0.56745 -1.23419,-0.68094 -0.48236,-0.11341 -0.97886,-0.17012 -1.48957,-0.17012 -0.53909,0 -1.07815,0.0991 -1.61725,0.29781 -0.53905,0.19866 -1.02136,0.55317 -1.44697,1.06395 -0.42561,0.48231 -0.76608,1.1349 -1.02141,1.95772 -0.25537,0.82278 -0.38306,1.84419 -0.38306,3.06422 v 11.49082 h -5.95821 z m -21.25074,19.53443 c 0,0.82278 0.0991,1.6456 0.29781,2.46838 0.19866,0.79443 0.49642,1.51792 0.89372,2.17051 0.4256,0.62419 0.96466,1.13489 1.61721,1.53211 0.68094,0.39721 1.48956,0.59584 2.42587,0.59584 0.93627,0 1.7307,-0.19867 2.38328,-0.59584 0.68094,-0.39722 1.22,-0.90792 1.61721,-1.53211 0.42561,-0.65259 0.73769,-1.37608 0.93631,-2.17051 0.19867,-0.82278 0.29781,-1.6456 0.29781,-2.46838 0,-0.85117 -0.0991,-1.67399 -0.29781,-2.46842 -0.19866,-0.82278 -0.51062,-1.54627 -0.93631,-2.17046 -0.39721,-0.65259 -0.93627,-1.16329 -1.61721,-1.53211 -0.65258,-0.39722 -1.44701,-0.59584 -2.38328,-0.59584 -0.93631,0 -1.74493,0.19866 -2.42587,0.59584 -0.65255,0.36878 -1.19161,0.87952 -1.61721,1.53211 -0.39722,0.62419 -0.69514,1.34768 -0.89372,2.17046 -0.19867,0.79443 -0.29781,1.61725 -0.29781,2.46842 z m 5.23473,11.78874 c -1.70235,0 -3.24866,-0.26965 -4.63892,-0.80862 -1.39023,-0.53906 -2.59607,-1.3051 -3.61748,-2.29815 -0.99306,-1.02141 -1.75909,-2.2556 -2.29815,-3.70261 -0.53909,-1.47537 -0.80862,-3.13517 -0.80862,-4.97936 0,-1.84419 0.26965,-3.48979 0.80862,-4.9368 0.53906,-1.47537 1.30509,-2.70956 2.29815,-3.70261 1.02141,-1.02141 2.22725,-1.80164 3.61748,-2.34074 1.39026,-0.53906 2.93657,-0.80859 4.63892,-0.80859 1.70235,0 3.24865,0.26965 4.63888,0.80859 1.39023,0.5391 2.58187,1.31933 3.57493,2.34074 1.02141,0.99305 1.80164,2.22724 2.34074,3.70261 0.53905,1.44701 0.80858,3.09261 0.80858,4.9368 0,1.84419 -0.26965,3.50399 -0.80858,4.97936 -0.5391,1.44701 -1.31933,2.6812 -2.34074,3.70261 -0.99306,0.99305 -2.1847,1.75909 -3.57493,2.29815 -1.39023,0.53909 -2.93653,0.80862 -4.63888,0.80862 z m -25.62632,-22.89654 h 5.70284 v 3.66003 h 0.0853 c 0.17011,-0.28392 0.41141,-0.66674 0.72348,-1.1491 0.31208,-0.48231 0.70933,-0.95046 1.19165,-1.40442 0.5107,-0.48231 1.09235,-0.89372 1.74489,-1.23419 0.65259,-0.36878 1.39027,-0.55326 2.21305,-0.55326 0.19867,0 0.41133,0.0159 0.63839,0.0424 0.22722,0 0.43988,0.0159 0.63839,0.0424 v 6.04335 c -0.22722,-0.0278 -0.46823,-0.0424 -0.72349,-0.0424 -0.22721,-0.0278 -0.45407,-0.0424 -0.68093,-0.0424 -1.19165,0 -2.15631,0.17012 -2.89399,0.51071 -0.70933,0.31207 -1.26259,0.73768 -1.6598,1.27678 -0.39722,0.53905 -0.66678,1.14905 -0.80863,1.82999 -0.14196,0.68094 -0.21294,1.37607 -0.21294,2.0854 v 11.15035 h -5.95821 z m -21.21283,5.78798 h 6.38382 c 1.1349,0 2.08536,-0.32635 2.8514,-0.97886 0.76608,-0.68094 1.14909,-1.77329 1.14909,-3.27701 0,-1.67399 -0.38305,-2.82308 -1.14909,-3.44728 -0.76604,-0.65254 -1.7165,-0.97882 -2.8514,-0.97882 h -6.38382 z m -6.29868,-14.21461 h 14.25716 c 1.39023,0 2.63862,0.25537 3.74516,0.76608 1.10655,0.48231 2.04282,1.16325 2.80885,2.04281 0.79443,0.87953 1.39027,1.92929 1.78749,3.14932 0.4256,1.22004 0.63839,2.55352 0.63839,4.00053 0,1.53212 -0.25537,2.90815 -0.76608,4.12818 -0.5107,1.22004 -1.19164,2.2556 -2.04281,3.10678 -0.85118,0.82278 -1.84419,1.46117 -2.97909,1.91513 -1.10654,0.4256 -2.26979,0.63839 -3.48983,0.63839 h -7.66056 v 10.89501 h -6.29868 z m -25.39156,29.11012 c -0.85118,2.41164 -1.57467,4.31261 -2.17047,5.70288 -0.56745,1.39023 -1.14909,2.44003 -1.74493,3.14932 -0.56745,0.73768 -1.22,1.20584 -1.95768,1.40443 -0.73768,0.19866 -1.68819,0.2978 -2.85144,0.2978 -0.56745,0 -1.1207,-0.0159 -1.6598,-0.0424 -0.5107,-0.0278 -1.00721,-0.071 -1.48952,-0.12769 v -4.68143 c 0.79443,0 1.47537,-0.0278 2.04282,-0.0853 0.5958,-0.0567 1.0923,-0.19866 1.48952,-0.42556 0.39721,-0.19867 0.70933,-0.51063 0.93631,-0.93631 0.22722,-0.42561 0.39733,-1.02141 0.5107,-1.78745 l -8.17126,-23.15191 h 6.55401 l 4.72402,16.76809 h 0.0853 l 4.72398,-16.76809 h 6.29868 z m -29.13872,-20.68349 h 5.70288 v 3.66003 h 0.0853 c 0.17012,-0.28392 0.41141,-0.66674 0.72349,-1.1491 0.31207,-0.48231 0.70933,-0.95046 1.19164,-1.40442 0.5107,-0.48231 1.09235,-0.89372 1.74493,-1.23419 0.65255,-0.36878 1.39023,-0.55326 2.21305,-0.55326 0.19867,0 0.41134,0.0159 0.63835,0.0424 0.22722,0 0.43989,0.0159 0.63839,0.0424 v 6.04335 c -0.22721,-0.0278 -0.46823,-0.0424 -0.72348,-0.0424 -0.22722,-0.0278 -0.45408,-0.0424 -0.68094,-0.0424 -1.19164,0 -2.15631,0.17012 -2.89399,0.51071 -0.70929,0.31207 -1.26258,0.73768 -1.6598,1.27678 -0.39721,0.53905 -0.66674,1.14905 -0.80862,1.82999 -0.14196,0.68094 -0.21294,1.37607 -0.21294,2.0854 v 11.15035 h -5.95822 z m -4.57769,22.72631 c -0.39722,0.0567 -0.83702,0.0995 -1.31933,0.12768 -0.48231,0.0278 -0.87953,0.0424 -1.19164,0.0424 -1.44702,0 -2.63866,-0.11341 -3.57493,-0.34063 -0.90792,-0.22721 -1.61725,-0.59592 -2.12795,-1.1065 -0.51071,-0.5391 -0.86533,-1.22004 -1.06396,-2.04282 -0.17012,-0.85117 -0.25537,-1.88677 -0.25537,-3.10681 v -12.04407 h -2.89399 v -4.25586 h 2.89399 v -5.95822 h 5.95821 v 5.95822 h 3.57493 v 4.25586 h -3.57493 v 11.83129 c 0,0.5107 0.0278,0.90792 0.0853,1.19164 0.0853,0.28392 0.24109,0.49655 0.46815,0.63839 0.25537,0.14196 0.61004,0.22722 1.06396,0.25537 0.48231,0.0278 1.1349,0.0424 1.95772,0.0424 z m -36.40162,-22.72631 h 5.70284 v 3.31956 h 0.0853 c 0.39722,-0.79443 0.87953,-1.44698 1.44698,-1.95768 0.56745,-0.5391 1.16329,-0.95051 1.78748,-1.23423 0.6242,-0.31208 1.24839,-0.52486 1.87258,-0.63835 0.6242,-0.11341 1.19165,-0.17012 1.70235,-0.17012 2.52513,0 4.4403,0.72349 5.74543,2.17047 1.33348,1.41862 2.00022,3.31959 2.00022,5.70288 v 15.02319 h -5.95821 v -13.57622 c 0,-0.87953 -0.11341,-1.58882 -0.34062,-2.12791 -0.22722,-0.56745 -0.52498,-1.00722 -0.89373,-1.31933 -0.34062,-0.34063 -0.75188,-0.56745 -1.23419,-0.68094 -0.48231,-0.11341 -0.97886,-0.17012 -1.48956,-0.17012 -0.5391,0 -1.07815,0.0991 -1.61721,0.29781 -0.5391,0.19866 -1.02141,0.55317 -1.44701,1.06395 -0.42561,0.48231 -0.76608,1.1349 -1.02141,1.95772 -0.25537,0.82278 -0.38306,1.84419 -0.38306,3.06422 v 11.49082 h -5.95821 z m -27.59665,-8.42663 h 22.30074 v 5.53264 h -16.00206 v 6.55402 h 14.64018 v 5.53264 h -14.64018 v 7.49033 h 16.76813 v 5.5326 h -23.06681 z"
   style="font-size:19.2882px;line-height:109.02%;font-family:'Heb Tamrurim';-inkscape-font-specification:'Heb Tamrurim';text-align:center;letter-spacing:1.09802px;text-anchor:middle;opacity:1;fill:#000000;fill-opacity:1;stroke:none;stroke-width:1.33333"
   id="path7115" /></svg>
