<?xml version="1.0" encoding="UTF-8" standalone="no"?>
<svg
   xmlns:dc="http://purl.org/dc/elements/1.1/"
   xmlns:cc="http://creativecommons.org/ns#"
   xmlns:rdf="http://www.w3.org/1999/02/22-rdf-syntax-ns#"
   xmlns:svg="http://www.w3.org/2000/svg"
   xmlns="http://www.w3.org/2000/svg"
   xmlns:sodipodi="http://sodipodi.sourceforge.net/DTD/sodipodi-0.dtd"
   xmlns:inkscape="http://www.inkscape.org/namespaces/inkscape"
   sodipodi:docname="601a.svg"
   inkscape:version="1.0 (4035a4fb49, 2020-05-01)"
   id="svg9630"
   version="1.1"
   viewBox="0 0 126.67104 200"
   height="200mm"
   width="126.67104mm">
  <defs
     id="defs9624" />
  <sodipodi:namedview
     inkscape:window-maximized="1"
     inkscape:window-y="-9"
     inkscape:window-x="-9"
     inkscape:window-height="1001"
     inkscape:window-width="1920"
     showgrid="false"
     inkscape:document-rotation="0"
     inkscape:current-layer="layer1"
     inkscape:document-units="mm"
     inkscape:cy="457.86185"
     inkscape:cx="-442.02535"
     inkscape:zoom="0.49497475"
     inkscape:pageshadow="2"
     inkscape:pageopacity="0.0"
     borderopacity="1.0"
     bordercolor="#666666"
     pagecolor="#ffffff"
     id="base" />
  <metadata
     id="metadata9627">
    <rdf:RDF>
      <cc:Work
         rdf:about="">
        <dc:format>image/svg+xml</dc:format>
        <dc:type
           rdf:resource="http://purl.org/dc/dcmitype/StillImage" />
        <dc:title></dc:title>
      </cc:Work>
    </rdf:RDF>
  </metadata>
  <g
     transform="translate(0.18898793,-134.18292)"
     id="layer1"
     inkscape:groupmode="layer"
     inkscape:label="Layer 1">
    <path
       sodipodi:nodetypes="ccccc"
       d="m -0.18898793,134.18292 v 200 H 126.48205 v -200 z"
       style="fill:#01553b;fill-opacity:1;stroke-width:0.3724"
       id="path25051" />
    <path
       d="m 46.683142,151.82376 h 32.926784 c 1.442642,0 2.604051,1.16142 2.604051,2.60407 v 32.92676 c 0,1.44267 -1.161409,2.60406 -2.604051,2.60406 H 46.683142 c -1.44265,0 -2.604056,-1.16139 -2.604056,-2.60406 v -32.92676 c 0,-1.44265 1.161406,-2.60407 2.604056,-2.60407 z"
       style="fill:#ffffff;stroke-width:0.176139"
       id="path25121" />
    <path
       d="m 47.022213,153.12579 h 32.248642 c 0.909169,0 1.641094,0.73194 1.641094,1.6411 v 32.24864 c 0,0.90916 -0.731925,1.6411 -1.641094,1.6411 H 47.022213 c -0.909164,0 -1.641094,-0.73194 -1.641094,-1.6411 v -32.24864 c 0,-0.90916 0.73193,-1.6411 1.641094,-1.6411 z"
       style="fill:#ffffff;fill-opacity:1;stroke-width:0.16411"
       id="path25123" />
    <path
       d="m 49.368796,163.82021 v 6.23668 h 10.769231 v 11.55847 h 6.236688 v -11.55847 h 10.768958 v -6.23668 z"
       style="fill:#000000;stroke-width:0.156928"
       id="path25125" />
    <path
       sodipodi:nodetypes="ssssssssssssssssss"
       id="path25053"
       d="m 10.524014,135.62808 c -4.7083689,0 -8.5652153,3.85685 -8.5652153,8.56521 v 179.97922 c 0,4.70838 3.8568464,8.56525 8.5652153,8.56525 H 115.76905 c 4.70836,0 8.56521,-3.85687 8.56521,-8.56525 V 144.19329 c 0,-4.70836 -3.85685,-8.56521 -8.56521,-8.56521 z m 0,3.72401 H 115.76905 c 2.6957,0 4.8412,2.1455 4.8412,4.8412 v 179.97922 c 0,2.69574 -2.1455,4.84122 -4.8412,4.84122 H 10.524014 c -2.6957126,0 -4.8412132,-2.14548 -4.8412132,-4.84122 V 144.19329 c 0,-2.6957 2.1455006,-4.8412 4.8412132,-4.8412 z"
       style="color:#000000;font-style:normal;font-variant:normal;font-weight:normal;font-stretch:normal;font-size:medium;line-height:normal;font-family:sans-serif;font-variant-ligatures:normal;font-variant-position:normal;font-variant-caps:normal;font-variant-numeric:normal;font-variant-alternates:normal;font-variant-east-asian:normal;font-feature-settings:normal;font-variation-settings:normal;text-indent:0;text-align:start;text-decoration:none;text-decoration-line:none;text-decoration-style:solid;text-decoration-color:#000000;letter-spacing:normal;word-spacing:normal;text-transform:none;writing-mode:lr-tb;direction:ltr;text-orientation:mixed;dominant-baseline:auto;baseline-shift:baseline;text-anchor:start;white-space:normal;shape-padding:0;shape-margin:0;inline-size:0;clip-rule:nonzero;display:inline;overflow:visible;visibility:visible;opacity:1;isolation:auto;mix-blend-mode:normal;color-interpolation:sRGB;color-interpolation-filters:linearRGB;solid-color:#000000;solid-opacity:1;vector-effect:none;fill:#ffffff;fill-opacity:1;fill-rule:nonzero;stroke:none;stroke-width:3.724;stroke-linecap:butt;stroke-linejoin:miter;stroke-miterlimit:4;stroke-dasharray:none;stroke-dashoffset:0;stroke-opacity:1;color-rendering:auto;image-rendering:auto;shape-rendering:auto;text-rendering:auto;enable-background:accumulate;stop-color:#000000;stop-opacity:1" />
    <g
       style="fill:#ffffff"
       transform="matrix(0.66668967,0,0,0.66668967,-516.11513,90.562291)"
       id="g25085">
      <g
         transform="matrix(1.4487936,0,0,1.4487936,586.88262,-277.89002)"
         style="fill:#ffffff;fill-opacity:1"
         id="g25059">
        <g
           style="fill:#ffffff"
           id="g25057"
           transform="translate(158.39999,323.88)">
          <path
             id="path25055"
             d="m 1.234375,-16.75 -0.015625,3.359375 h 8.359375 l -0.015625,13.375 h 3.390625 L 12.9375,-16.734375 Z M 1.21875,-9.203125 v 9.1875 H 4.5625 V -9.21875 Z m 0,0"
             style="fill:#ffffff;stroke:none" />
        </g>
      </g>
      <g
         transform="matrix(1.4487936,0,0,1.4487936,586.88262,-277.89002)"
         style="fill:#ffffff;fill-opacity:1"
         id="g25065">
        <g
           style="fill:#ffffff"
           id="g25063"
           transform="translate(174.70446,323.88)">
          <path
             id="path25061"
             d="m 1.703125,-16.75 v 3.34375 l 6.59375,-0.01563 V -3.375 H 1.21875 V 0 h 11.75 V -3.375 H 11.625 V -16.75 Z m 0,0"
             style="fill:#ffffff;stroke:none" />
        </g>
      </g>
      <g
         transform="matrix(1.4487936,0,0,1.4487936,591.68239,-277.89002)"
         style="fill:#ffffff;fill-opacity:1"
         id="g25071">
        <g
           style="fill:#ffffff"
           id="g25069"
           transform="translate(186.75464,323.88)">
          <path
             id="path25067"
             d="m 1.25,-16.75 -0.03125,3.359375 H 3.765625 L 3.75,-8.3125 H 7.109375 V -16.75 Z m 0,0"
             style="fill:#ffffff;stroke:none" />
        </g>
      </g>
      <g
         transform="matrix(1.4487936,0,0,1.4487936,589.28261,-277.89002)"
         style="fill:#ffffff;fill-opacity:1"
         id="g25077">
        <g
           style="fill:#ffffff"
           id="g25075"
           transform="translate(195.08365,323.88)">
          <path
             id="path25073"
             d="m 5.0160633,-16.75 v 3.34375 l 6.5937507,-0.01563 V -3.375 H 4.5316883 V 0 H 16.281691 v -3.375 h -1.34375 V -16.75 Z m 0,0"
             style="fill:#ffffff;stroke:none" />
        </g>
      </g>
      <g
         transform="matrix(1.4487936,0,0,1.4487936,591.58282,-277.89002)"
         style="fill:#ffffff;fill-opacity:1"
         id="g25083">
        <g
           style="fill:#ffffff"
           id="g25081"
           transform="translate(209.27324,323.88)">
          <path
             id="path25079"
             d="m 4.5316882,-16.703125 v 3.375 L 5.8598132,-13.34375 5.8754382,0 l 3.421875,0.015625 -0.015625,-13.34375 4.4062528,-0.01563 v 13.35938 h 3.4375 l -0.01563,-16.71875 z m 0,0"
             style="fill:#ffffff;stroke:none" />
        </g>
      </g>
    </g>
    <g
       style="fill:#ffffff"
       transform="matrix(0.66668967,0,0,0.66668967,-515.34093,90.562291)"
       id="g25113">
      <g
         transform="matrix(1.4487936,0,0,1.4487936,586.88262,-277.89002)"
         style="fill:#ffffff;fill-opacity:1"
         id="g25091">
        <g
           style="fill:#ffffff"
           id="g25089"
           transform="translate(163.44,359.63998)">
          <path
             transform="matrix(0.69022944,0,0,0.69022944,-568.99725,-167.83211)"
             d="m 891.0625,208.84766 -7.07031,1.35546 v 1.50196 l 7.07031,-1.33008 z m -53.03516,2.39062 -2.07031,3.5957 0.0742,0.78907 c -1.89063,0.78827 -3.57277,1.82257 -5.05078,3.10351 -1.47801,1.26863 -2.72801,2.72816 -3.74414,4.38477 l -1.35352,3.66992 c -0.0185,0.0677 -0.0365,0.1426 -0.0488,0.22266 -0.0185,0.0862 -0.0254,0.20902 -0.0254,0.36914 0,0.34487 0.10974,0.60851 0.34375,0.78711 0.24634,0.18475 0.64662,0.29644 1.20704,0.3457 l 5.98632,0.71484 3.17774,-5.51758 -5.88672,-0.88671 c 0.52346,-1.08388 1.23233,-2.05715 2.11914,-2.93164 0.89912,-0.86834 2.04933,-1.71189 3.44726,-2.53711 l 1.00977,9.50781 c 0.12933,1.31789 0.56763,2.32724 1.30664,3.0293 0.73901,0.70821 1.73032,1.06054 2.98047,1.06054 h 2.06641 0.002 3.54492 c 0.83754,0 1.41053,-0.0998 1.72461,-0.29687 0.30792,-0.19707 0.62147,-0.64034 0.93555,-1.33008 l 1.30468,-2.85742 h 0.34571 c 0.19707,1.31789 0.67717,2.38902 1.45312,3.22656 0.78828,0.83754 1.64987,1.25781 2.58594,1.25781 h 1.19336 0.0137 3.5332 c 0.83755,0 1.41054,-0.0998 1.72461,-0.29687 0.30792,-0.19707 0.62147,-0.64034 0.93555,-1.33008 l 1.30469,-2.85742 h 0.3457 c 0.19707,1.31789 0.67717,2.38902 1.45313,3.22656 0.78827,0.83754 1.64986,1.25781 2.58593,1.25781 h 1.19141 0.0156 3.5332 c 0.83754,0 1.41053,-0.0998 1.72461,-0.29687 0.30792,-0.19707 0.62148,-0.64034 0.93554,-1.33008 l 1.30469,-2.85742 h 0.34571 c 0.19706,1.31789 0.67716,2.38902 1.45312,3.22656 0.78827,0.83754 1.64986,1.25781 2.58594,1.25781 h 1.20703 4.56641 c 3.15309,0 6.04916,-0.69083 8.69726,-2.07031 0.20939,-0.11085 0.36826,-0.19683 0.4668,-0.24609 2.83901,-1.45954 4.98246,-2.4259 6.42969,-2.90625 1.45953,-0.4742 2.79626,-0.71485 4.01562,-0.71485 0.49267,0 0.84997,0.018 1.08399,0.0488 l 2.85742,-5.09766 c -0.16628,0.0185 -0.36394,0.0365 -0.5918,0.0488 h -0.91211 c -1.39795,0 -2.93039,-0.20457 -4.60547,-0.61719 -1.67508,-0.42491 -3.32536,-1.01595 -4.95117,-1.77343 -0.68974,-0.3264 -1.63926,-0.7877 -2.83398,-1.37891 -2.64811,-1.34253 -4.47606,-2.01953 -5.49219,-2.01953 -1.39796,0 -2.5501,0.5542 -3.44922,1.65039 -0.88681,1.10235 -1.40298,2.59796 -1.55078,4.48242 h 0.68945 c 0.25865,-0.57273 0.59715,-0.98413 1.00977,-1.23047 0.42493,-0.25864 0.96109,-0.39453 1.60156,-0.39453 1.28094,0 2.96113,0.56112 5.04883,1.67578 2.10001,1.10236 3.67047,1.81619 4.70508,2.14258 -0.60969,0.41261 -1.29857,0.70813 -2.06836,0.88672 -0.77596,0.18475 -2.04475,0.27148 -3.81836,0.27148 h -10.89844 -0.86133 c -0.65895,1e-5 -1.13408,-0.11168 -1.42969,-0.3457 -0.28328,-0.22786 -0.46787,-0.65309 -0.5664,-1.28125 l -1.15821,-6.00976 -2.88086,4.21093 0.68946,3.42578 h -6.88281 -0.0156 -0.8457 c -0.65895,0 -1.13409,-0.11168 -1.42969,-0.3457 -0.28328,-0.22786 -0.46787,-0.65309 -0.56641,-1.28125 l -1.1582,-6.00976 -2.88086,4.21093 0.68945,3.42578 h -6.88281 -0.0137 -0.84766 c -0.65894,1e-5 -1.13408,-0.11168 -1.42968,-0.3457 -0.28329,-0.22786 -0.46788,-0.65309 -0.56641,-1.28125 l -1.15625,-6.00976 -2.88281,4.21093 0.68945,3.42578 h -6.89453 -0.002 -1.5 c -0.82523,1e-5 -1.42317,-0.17962 -1.79883,-0.54296 -0.36335,-0.37566 -0.60896,-1.03959 -0.73828,-1.99414 z m 12.11524,22.02149 -2.38867,3.42382 3.64453,2.48829 2.33984,-3.375 z m 9.24804,0 -2.04492,3.05468 3.27539,2.16797 2.04493,-2.98047 z m 5.91016,0 -2.06836,3.05468 3.27539,2.16797 2.04492,-2.98047 z m 11.02149,0 -2.38868,3.42382 3.64453,2.48829 2.33985,-3.375 z"
             style="fill:#ffffff;stroke:none;stroke-width:1.57655"
             id="path25087" />
        </g>
      </g>
      <g
         transform="matrix(1.4487936,0,0,1.4487936,586.88262,-277.89002)"
         style="fill:#ffffff;fill-opacity:1"
         id="g25095">
        <g
           style="fill:#ffffff"
           id="g25093"
           transform="translate(175.70334,359.63998)" />
      </g>
      <g
         transform="matrix(1.4487936,0,0,1.4487936,586.88262,-291.89002)"
         style="fill:#ffffff;fill-opacity:1"
         id="g25099">
        <g
           style="fill:#ffffff"
           id="g25097"
           transform="translate(184.00615,359.63998)" />
      </g>
      <g
         transform="matrix(1.4487936,0,0,1.4487936,586.88262,-277.89002)"
         style="fill:#ffffff;fill-opacity:1"
         id="g25103">
        <g
           style="fill:#ffffff"
           id="g25101"
           transform="translate(192.30896,359.63998)" />
      </g>
      <g
         transform="matrix(1.4487936,0,0,1.4487936,586.88262,-277.89002)"
         style="fill:#ffffff;fill-opacity:1"
         id="g25107">
        <g
           style="fill:#ffffff"
           id="g25105"
           transform="translate(200.61177,359.63998)" />
      </g>
      <g
         transform="matrix(1.5765473,0,0,1.5765473,565.87481,-320.81028)"
         style="fill:#ffffff;fill-opacity:1"
         id="g25111">
        <g
           style="fill:#ffffff"
           id="g25109"
           transform="translate(200.61177,359.63998)" />
      </g>
    </g>
    <g
       transform="matrix(0.66668967,0,0,0.66668967,-515.93759,90.562291)"
       id="g25119">
      <path
         d="m 819.15669,295.43443 c -3.43403,0 -6.19872,2.76469 -6.19872,6.19872 v 30.29773 c 0,3.43403 2.76469,6.19872 6.19872,6.19872 h 98.87898 c 3.43404,0 6.19872,-2.76469 6.19872,-6.19872 v -30.29773 c 0,-3.43403 -2.76468,-6.19872 -6.19872,-6.19872 z"
         style="opacity:1;fill:#ffffff;stroke-width:0.204528"
         id="path25115"
         sodipodi:nodetypes="sssssssss" />
      <path
         style="fill:#000000;fill-opacity:1;fill-rule:nonzero;stroke:none;stroke-width:1.35735"
         d="m 846.34051,313.75841 c 0.57794,-0.37645 1.17178,-0.69459 1.79209,-0.94908 0.62044,-0.25449 1.42629,-0.38175 2.42312,-0.38175 1.06049,0 2.02543,0.18027 2.90023,0.5302 0.87494,0.35524 1.62773,0.86424 2.25346,1.52702 0.6309,0.66277 1.11871,1.45808 1.46335,2.38594 0.33933,0.93319 0.509,1.97239 0.509,3.11764 0,1.24069 -0.19084,2.37535 -0.57796,3.39867 -0.38697,1.0286 -0.93845,1.91404 -1.65948,2.65634 -0.71585,0.737 -1.58537,1.32024 -2.60337,1.7391 -1.01272,0.41886 -2.15262,0.63094 -3.41454,0.63094 -1.43688,0 -2.63514,-0.22269 -3.59492,-0.66276 -0.96493,-0.44537 -1.74961,-1.00209 -2.35933,-1.67545 -0.60456,-0.67339 -1.06048,-1.41037 -1.35733,-2.20569 -0.29699,-0.79532 -0.49312,-1.55882 -0.57796,-2.28522 l 4.50678,-0.26509 c 0.0475,0.37113 0.13307,0.75289 0.2651,1.13993 0.13306,0.38708 0.33404,0.73171 0.59912,1.02864 0.26508,0.29691 0.59913,0.5408 1.01272,0.73168 0.40828,0.18558 0.93316,0.281 1.57478,0.281 0.44004,0 0.86422,-0.0848 1.2725,-0.24918 0.41345,-0.16438 0.7741,-0.42418 1.09741,-0.77942 0.31816,-0.35524 0.57267,-0.79532 0.76351,-1.32552 0.18568,-0.53022 0.2811,-1.15057 0.2811,-1.85574 0,-1.28311 -0.32874,-2.264 -0.98096,-2.93736 -0.65206,-0.67337 -1.46333,-1.01272 -2.43356,-1.01272 -0.84305,0 -1.50584,0.18027 -1.99366,0.53021 -0.48254,0.35526 -0.84834,0.75291 -1.09226,1.19828 l -4.11436,-0.26509 1.69138,-13.00079 h 12.80461 v 4.04551 h -9.68707 z m 19.00276,2.58212 c 0,1.65956 0.0692,3.0222 0.20157,4.08262 0.13307,1.06042 0.32875,1.89287 0.59383,2.5026 0.26508,0.60974 0.60972,1.02331 1.02858,1.2407 0.4189,0.22269 0.91731,0.33402 1.49512,0.33402 0.57266,0 1.07108,-0.11133 1.48995,-0.33402 0.41888,-0.21739 0.76351,-0.63096 1.0286,-1.2407 0.26509,-0.60973 0.46665,-1.44218 0.59913,-2.5026 0.13307,-1.06042 0.19627,-2.42306 0.19627,-4.08262 0,-0.99149 -0.0217,-1.97768 -0.0639,-2.94797 -0.0475,-0.97559 -0.18038,-1.84514 -0.39769,-2.61924 -0.22273,-0.7741 -0.55677,-1.39976 -0.99684,-1.87694 -0.44004,-0.4719 -1.06035,-0.71049 -1.85575,-0.71049 -0.79526,0 -1.41557,0.23859 -1.86105,0.71049 -0.44004,0.47718 -0.7688,1.10284 -0.9914,1.87694 -0.22273,0.7741 -0.35535,1.64365 -0.39769,2.61924 -0.0475,0.97029 -0.0692,1.95648 -0.0692,2.94797 z m 3.3191,12.0729 c -1.6383,0 -2.97976,-0.31282 -4.02954,-0.94377 -1.04976,-0.63095 -1.87692,-1.48989 -2.47076,-2.57152 -0.59914,-1.08164 -1.01271,-2.35944 -1.24604,-3.82812 -0.22803,-1.47399 -0.34463,-3.04872 -0.34463,-4.72949 0,-1.59063 0.11667,-3.11233 0.34463,-4.55981 0.23333,-1.44747 0.6469,-2.73058 1.24604,-3.84403 0.59384,-1.11875 1.421,-2.00949 2.47076,-2.67225 1.04978,-0.66279 2.39124,-0.99151 4.02954,-0.99151 1.63315,0 2.97991,0.32872 4.02971,0.99151 1.04973,0.66276 1.8716,1.5535 2.4708,2.67225 0.59373,1.11345 1.00733,2.39656 1.2408,3.84403 0.23307,1.44748 0.34987,2.96918 0.34987,4.55981 0,1.68077 -0.116,3.2555 -0.34987,4.72949 -0.23347,1.46868 -0.64707,2.74648 -1.2408,3.82812 -0.5992,1.08163 -1.42107,1.94057 -2.4708,2.57152 -1.0498,0.63095 -2.39656,0.94377 -4.02971,0.94377 z m 15.58304,-12.0729 c 0,1.65956 0.0693,3.0222 0.2016,4.08262 0.13334,1.06042 0.32854,1.89287 0.59374,2.5026 0.2652,0.60974 0.60973,1.02331 1.0288,1.2407 0.4188,0.22269 0.91706,0.33402 1.49493,0.33402 0.5728,0 1.0712,-0.11133 1.49,-0.33402 0.41893,-0.21739 0.76347,-0.63096 1.02853,-1.2407 0.26507,-0.60973 0.46667,-1.44218 0.5992,-2.5026 0.13334,-1.06042 0.19627,-2.42306 0.19627,-4.08262 0,-0.99149 -0.0213,-1.97768 -0.064,-2.94797 -0.048,-0.97559 -0.18027,-1.84514 -0.3976,-2.61924 -0.2228,-0.7741 -0.5568,-1.39976 -0.99693,-1.87694 -0.43987,-0.4719 -1.0604,-0.71049 -1.85574,-0.71049 -0.7952,0 -1.4156,0.23859 -1.86093,0.71049 -0.44013,0.47718 -0.7688,1.10284 -0.9916,1.87694 -0.22267,0.7741 -0.3552,1.64365 -0.3976,2.61924 -0.048,0.97029 -0.068,1.95648 -0.068,2.94797 z m 3.31907,12.0729 c -1.63827,0 -2.97973,-0.31282 -4.02947,-0.94377 -1.04986,-0.63095 -1.87693,-1.48989 -2.4708,-2.57152 -0.59906,-1.08164 -1.01266,-2.35944 -1.246,-3.82812 -0.228,-1.47399 -0.34453,-3.04872 -0.34453,-4.72949 0,-1.59063 0.116,-3.11233 0.34453,-4.55981 0.23334,-1.44747 0.64694,-2.73058 1.246,-3.84403 0.59387,-1.11875 1.42094,-2.00949 2.4708,-2.67225 1.04974,-0.66279 2.3912,-0.99151 4.02947,-0.99151 1.6332,0 2.97973,0.32872 4.02973,0.99151 1.04974,0.66276 1.8716,1.5535 2.4708,2.67225 0.59374,1.11345 1.00734,2.39656 1.24067,3.84403 0.2332,1.44748 0.34987,2.96918 0.34987,4.55981 0,1.68077 -0.116,3.2555 -0.34987,4.72949 -0.23333,1.46868 -0.64693,2.74648 -1.24067,3.82812 -0.5992,1.08163 -1.42106,1.94057 -2.4708,2.57152 -1.05,0.63095 -2.39653,0.94377 -4.02973,0.94377 z m 0,0"
         id="path25117" />
    </g>
    <g
       transform="matrix(0.66668967,0,0,0.66668967,-356.81807,86.120663)"
       style="font-style:normal;font-weight:normal;font-size:35.1384px;line-height:1.25;font-family:sans-serif;letter-spacing:3.29px;fill:#ffffff;fill-opacity:1;stroke:none;stroke-width:0.87846"
       id="g25139"
       aria-label="Haviva">
      <path
         id="path25127"
         style="font-style:normal;font-variant:normal;font-weight:normal;font-stretch:normal;font-family:Triumvirate;-inkscape-font-specification:Triumvirate;fill:#ffffff;stroke-width:0.87846"
         d="m 568.04903,260.26187 h 5.20049 v 9.55765 h 9.76847 v -9.55765 h 5.20049 v 25.29965 h -5.20049 v -11.17401 h -9.76847 v 11.17401 h -5.20049 z" />
      <path
         id="path25129"
         style="font-style:normal;font-variant:normal;font-weight:normal;font-stretch:normal;font-family:Triumvirate;-inkscape-font-specification:Triumvirate;fill:#ffffff;stroke-width:0.87846"
         d="m 606.99243,276.49582 q -1.01901,0.59735 -2.17858,0.84332 -1.15957,0.21083 -2.17858,0.49194 -0.98388,0.24596 -1.65151,0.77304 -0.66763,0.52708 -0.66763,1.68664 0,0.80819 0.70277,1.40554 0.70277,0.56221 1.96775,0.56221 1.89748,0 2.95163,-1.08929 1.05415,-1.12443 1.05415,-3.23273 z m 0.77304,9.0657 q -0.2811,-0.4568 -0.49193,-1.1947 -0.1757,-0.73791 -0.21083,-1.12443 -0.35139,0.42166 -0.84333,0.94874 -0.49193,0.49193 -1.1947,0.91359 -0.66763,0.42167 -1.58123,0.70277 -0.87846,0.31625 -2.07316,0.31625 -2.81108,0 -4.32203,-1.44068 -1.51095,-1.47581 -1.51095,-4.28688 0,-1.54609 0.4568,-2.52997 0.49194,-1.01901 1.26498,-1.6515 0.80819,-0.66763 1.79206,-1.01901 1.01901,-0.35139 2.07317,-0.52708 1.08929,-0.21083 2.14344,-0.35138 1.05415,-0.14056 1.89747,-0.35139 1.01902,-0.24597 1.40554,-0.49194 0.42166,-0.24597 0.42166,-1.05415 0,-0.98387 -0.77305,-1.44067 -0.7379,-0.4568 -2.07316,-0.4568 -1.05415,0 -1.68664,0.24597 -0.6325,0.21083 -1.01902,0.56221 -0.35138,0.35139 -0.49194,0.80818 -0.14055,0.4568 -0.21083,0.9136 h -4.56799 q 0,-0.98387 0.28111,-2.1083 0.31624,-1.12443 1.15957,-2.07317 0.84332,-0.94873 2.35427,-1.58123 1.54609,-0.63249 4.07605,-0.63249 4.1112,0 5.90326,1.54609 1.82719,1.51095 1.82719,4.3923 v 9.17113 q 0,1.37039 0.28111,2.00288 0.28111,0.6325 0.77304,0.87847 v 0.91359 z" />
      <path
         id="path25131"
         style="font-style:normal;font-variant:normal;font-weight:normal;font-stretch:normal;font-family:Triumvirate;-inkscape-font-specification:Triumvirate;fill:#ffffff;stroke-width:0.87846"
         d="m 616.16921,267.21928 h 5.41131 l 3.83009,13.77425 h 0.0703 l 3.83008,-13.77425 h 5.41132 l -6.74658,18.34224 h -5.20048 z" />
      <path
         id="path25133"
         style="font-style:normal;font-variant:normal;font-weight:normal;font-stretch:normal;font-family:Triumvirate;-inkscape-font-specification:Triumvirate;fill:#ffffff;stroke-width:0.87846"
         d="m 640.95128,260.26187 h 4.91938 v 4.568 h -4.91938 z m 0,6.95741 h 4.91938 v 18.34224 h -4.91938 z" />
      <path
         id="path25135"
         style="font-style:normal;font-variant:normal;font-weight:normal;font-stretch:normal;font-family:Triumvirate;-inkscape-font-specification:Triumvirate;fill:#ffffff;stroke-width:0.87846"
         d="m 652.05409,267.21928 h 5.41131 l 3.83009,13.77425 h 0.0703 l 3.83009,-13.77425 h 5.41131 l -6.74657,18.34224 h -5.20048 z" />
      <path
         id="path25137"
         style="font-style:normal;font-variant:normal;font-weight:normal;font-stretch:normal;font-family:Triumvirate;-inkscape-font-specification:Triumvirate;fill:#ffffff;stroke-width:0.87846"
         d="m 685.96831,276.49582 q -1.01902,0.59735 -2.17859,0.84332 -1.15956,0.21083 -2.17858,0.49194 -0.98387,0.24596 -1.6515,0.77304 -0.66763,0.52708 -0.66763,1.68664 0,0.80819 0.70277,1.40554 0.70277,0.56221 1.96775,0.56221 1.89747,0 2.95162,-1.08929 1.05416,-1.12443 1.05416,-3.23273 z m 0.77304,9.0657 q -0.28111,-0.4568 -0.49194,-1.1947 -0.17569,-0.73791 -0.21083,-1.12443 -0.35138,0.42166 -0.84332,0.94874 -0.49194,0.49193 -1.1947,0.91359 -0.66763,0.42167 -1.58123,0.70277 -0.87846,0.31625 -2.07317,0.31625 -2.81107,0 -4.32202,-1.44068 -1.51095,-1.47581 -1.51095,-4.28688 0,-1.54609 0.4568,-2.52997 0.49193,-1.01901 1.26498,-1.6515 0.80818,-0.66763 1.79206,-1.01901 1.01901,-0.35139 2.07316,-0.52708 1.08929,-0.21083 2.14345,-0.35138 1.05415,-0.14056 1.89747,-0.35139 1.01901,-0.24597 1.40553,-0.49194 0.42167,-0.24597 0.42167,-1.05415 0,-0.98387 -0.77305,-1.44067 -0.73791,-0.4568 -2.07316,-0.4568 -1.05416,0 -1.68665,0.24597 -0.63249,0.21083 -1.01901,0.56221 -0.35139,0.35139 -0.49194,0.80818 -0.14055,0.4568 -0.21083,0.9136 h -4.56799 q 0,-0.98387 0.28111,-2.1083 0.31624,-1.12443 1.15956,-2.07317 0.84332,-0.94873 2.35428,-1.58123 1.54608,-0.63249 4.07605,-0.63249 4.11119,0 5.90325,1.54609 1.8272,1.51095 1.8272,4.3923 v 9.17113 q 0,1.37039 0.28111,2.00288 0.2811,0.6325 0.77304,0.87847 v 0.91359 z" />
    </g>
  </g>
</svg>
