<?xml version="1.0" encoding="UTF-8" standalone="no"?>
<svg
   xmlns:dc="http://purl.org/dc/elements/1.1/"
   xmlns:cc="http://creativecommons.org/ns#"
   xmlns:rdf="http://www.w3.org/1999/02/22-rdf-syntax-ns#"
   xmlns:svg="http://www.w3.org/2000/svg"
   xmlns="http://www.w3.org/2000/svg"
   xmlns:sodipodi="http://sodipodi.sourceforge.net/DTD/sodipodi-0.dtd"
   xmlns:inkscape="http://www.inkscape.org/namespaces/inkscape"
   inkscape:version="1.0 (4035a4fb49, 2020-05-01)"
   sodipodi:docname="629a.svg"
   viewBox="0 0 278.31848 140.625"
   height="140.625"
   width="278.31848"
   id="svg202"
   version="1.1">
  <metadata
     id="metadata208">
    <rdf:RDF>
      <cc:Work
         rdf:about="">
        <dc:format>image/svg+xml</dc:format>
        <dc:type
           rdf:resource="http://purl.org/dc/dcmitype/StillImage" />
        <dc:title></dc:title>
      </cc:Work>
    </rdf:RDF>
  </metadata>
  <defs
     id="defs206" />
  <sodipodi:namedview
     inkscape:current-layer="g210"
     inkscape:window-maximized="1"
     inkscape:window-y="-9"
     inkscape:window-x="-9"
     inkscape:cy="292.25771"
     inkscape:cx="118.06131"
     inkscape:zoom="1.9563288"
     showgrid="false"
     id="namedview204"
     inkscape:window-height="1001"
     inkscape:window-width="1920"
     inkscape:pageshadow="2"
     inkscape:pageopacity="0"
     guidetolerance="10"
     gridtolerance="10"
     objecttolerance="10"
     borderopacity="1"
     bordercolor="#666666"
     pagecolor="#ffffff" />
  <g
     transform="translate(-565.3222,11.761719)"
     id="g210"
     inkscape:label="Image"
     inkscape:groupmode="layer">
    <g
       transform="matrix(2.3146959,0,0,2.3146959,-561.00295,-648.07623)"
       style="fill:#ffcc00;fill-opacity:1"
       id="g769">
      <g
         style="fill:#ffcc00"
         id="use767"
         transform="translate(281.8913,338.76001)" />
    </g>
    <g
       transform="matrix(2.3146959,0,0,2.3146959,-561.00295,-648.07623)"
       style="fill:#ffcc00;fill-opacity:1"
       id="g773">
      <g
         style="fill:#ffcc00"
         id="use771"
         transform="translate(287.07028,338.76001)" />
    </g>
    <g
       transform="matrix(2.3146959,0,0,2.3146959,-561.00295,-648.07623)"
       style="fill:#ffcc00;fill-opacity:1"
       id="g777">
      <g
         style="fill:#ffcc00"
         id="use775"
         transform="translate(290.89645,338.76001)" />
    </g>
    <g
       transform="matrix(2.3146959,0,0,2.3146959,-561.00295,-648.07623)"
       style="fill:#ffcc00;fill-opacity:1"
       id="g793">
      <g
         style="fill:#ffcc00"
         id="use791"
         transform="translate(315.03754,338.76001)" />
    </g>
    <g
       transform="matrix(2.3146959,0,0,2.3146959,-561.00295,-648.07623)"
       style="fill:#ffcc00;fill-opacity:1"
       id="g805">
      <g
         style="fill:#ffcc00"
         id="use803"
         transform="translate(326.63193,338.76001)" />
    </g>
    <g
       style="opacity:1"
       id="g2328">
      <path
         sodipodi:nodetypes="ccccc"
         id="path2330"
         d="M 565.63503,-11.449883 V 128.55011 l 277.69343,6.6e-4 V -11.449225 Z"
         style="color:#000000;font-style:normal;font-variant:normal;font-weight:normal;font-stretch:normal;font-size:medium;line-height:normal;font-family:sans-serif;font-variant-ligatures:normal;font-variant-position:normal;font-variant-caps:normal;font-variant-numeric:normal;font-variant-alternates:normal;font-variant-east-asian:normal;font-feature-settings:normal;font-variation-settings:normal;text-indent:0;text-align:start;text-decoration:none;text-decoration-line:none;text-decoration-style:solid;text-decoration-color:#000000;letter-spacing:normal;word-spacing:normal;text-transform:none;writing-mode:lr-tb;direction:ltr;text-orientation:mixed;dominant-baseline:auto;baseline-shift:baseline;text-anchor:start;white-space:normal;shape-padding:0;shape-margin:0;inline-size:0;clip-rule:nonzero;display:inline;overflow:visible;visibility:visible;isolation:auto;mix-blend-mode:normal;color-interpolation:sRGB;color-interpolation-filters:linearRGB;solid-color:#000000;solid-opacity:1;vector-effect:none;fill:#ffffff;fill-opacity:1;fill-rule:nonzero;stroke:none;stroke-width:0.625;stroke-linecap:butt;stroke-linejoin:miter;stroke-miterlimit:4;stroke-dasharray:none;stroke-dashoffset:0;stroke-opacity:1;color-rendering:auto;image-rendering:auto;shape-rendering:auto;text-rendering:auto;enable-background:accumulate;stop-color:#000000;stop-opacity:1" />
      <path
         sodipodi:nodetypes="ccccccccccc"
         id="path2332"
         d="m 565.3222,-11.761718 v 0.3125 140.312498 H 843.64069 V -11.761719 Z m 0.625,0.625 277.06849,-10e-7 V 128.23828 H 565.9472 Z"
         style="color:#000000;font-style:normal;font-variant:normal;font-weight:normal;font-stretch:normal;font-size:medium;line-height:normal;font-family:sans-serif;font-variant-ligatures:normal;font-variant-position:normal;font-variant-caps:normal;font-variant-numeric:normal;font-variant-alternates:normal;font-variant-east-asian:normal;font-feature-settings:normal;font-variation-settings:normal;text-indent:0;text-align:start;text-decoration:none;text-decoration-line:none;text-decoration-style:solid;text-decoration-color:#000000;letter-spacing:normal;word-spacing:normal;text-transform:none;writing-mode:lr-tb;direction:ltr;text-orientation:mixed;dominant-baseline:auto;baseline-shift:baseline;text-anchor:start;white-space:normal;shape-padding:0;shape-margin:0;inline-size:0;clip-rule:nonzero;display:inline;overflow:visible;visibility:visible;isolation:auto;mix-blend-mode:normal;color-interpolation:sRGB;color-interpolation-filters:linearRGB;solid-color:#000000;solid-opacity:1;vector-effect:none;fill:#000000;fill-opacity:1;fill-rule:nonzero;stroke:none;stroke-width:0.625;stroke-linecap:butt;stroke-linejoin:miter;stroke-miterlimit:4;stroke-dasharray:none;stroke-dashoffset:0;stroke-opacity:1;color-rendering:auto;image-rendering:auto;shape-rendering:auto;text-rendering:auto;enable-background:accumulate;stop-color:#000000;stop-opacity:1" />
    </g>
    <path
       id="path1503"
       d="m 583.63281,-7.7578125 c -7.85318,-2.16e-5 -14.28515,6.433943 -14.28515,14.2871094 V 110.57227 c 0,7.85316 6.43199,14.28709 14.28515,14.28711 h 241.69922 c 7.85318,2e-5 14.28711,-6.43396 14.28711,-14.28711 V 6.5292969 c 0,-7.8531563 -6.43395,-14.2851347 -14.28711,-14.2851563 z m 0,6.2128906 h 241.69922 c 4.49622,1.24e-5 8.07617,3.5779991 8.07617,8.0742188 V 110.57227 c 0,4.49621 -3.57997,8.07618 -8.07617,8.07617 l -241.69922,-0.002 c -4.49621,0 -8.07422,-3.57801 -8.07422,-8.07421 V 6.5292969 c 0,-4.4962096 3.57802,-8.0742312 8.07422,-8.0742188 z"
       style="color:#000000;font-style:normal;font-variant:normal;font-weight:normal;font-stretch:normal;font-size:medium;line-height:normal;font-family:sans-serif;font-variant-ligatures:normal;font-variant-position:normal;font-variant-caps:normal;font-variant-numeric:normal;font-variant-alternates:normal;font-variant-east-asian:normal;font-feature-settings:normal;font-variation-settings:normal;text-indent:0;text-align:start;text-decoration:none;text-decoration-line:none;text-decoration-style:solid;text-decoration-color:#000000;letter-spacing:normal;word-spacing:normal;text-transform:none;writing-mode:lr-tb;direction:ltr;text-orientation:mixed;dominant-baseline:auto;baseline-shift:baseline;text-anchor:start;white-space:normal;shape-padding:0;shape-margin:0;inline-size:0;clip-rule:nonzero;display:inline;overflow:visible;visibility:visible;opacity:1;isolation:auto;mix-blend-mode:normal;color-interpolation:sRGB;color-interpolation-filters:linearRGB;solid-color:#000000;solid-opacity:1;vector-effect:none;fill:#000000;fill-opacity:1;fill-rule:nonzero;stroke:none;stroke-width:6.21133;stroke-linecap:butt;stroke-linejoin:miter;stroke-miterlimit:4;stroke-dasharray:none;stroke-dashoffset:0;stroke-opacity:1;color-rendering:auto;image-rendering:auto;shape-rendering:auto;text-rendering:auto;enable-background:accumulate;stop-color:#000000;stop-opacity:1" />
    <g
       id="g1393"
       style="opacity:1;fill:#000000;fill-opacity:1"
       transform="matrix(2.4021457,0,0,2.4021457,-24.822149,-730.11079)">
      <g
         transform="translate(269.88,318.12)"
         id="g1391"
         style="fill:#000000">
        <path
           style="fill:#000000;stroke:none"
           d="m 0.5625,-7.71875 v 1.515625 h 0.625 V 0 H 6.375 v -7.71875 z m 2.15625,1.515625 H 4.828125 V -1.53125 L 2.71875,-1.546875 Z m 0,0"
           id="path1389" />
      </g>
    </g>
    <g
       id="g1399"
       style="opacity:1;fill:#000000;fill-opacity:1"
       transform="matrix(2.4021457,0,0,2.4021457,-23.621989,-730.11079)">
      <g
         transform="translate(276.97293,318.12)"
         id="g1397"
         style="fill:#000000">
        <path
           style="fill:#000000;stroke:none"
           d="M 0.578125,-7.71875 0.5625,-6.171875 h 1.171875 v 2.34375 H 3.28125 V -7.71875 Z m 0,0"
           id="path1395" />
      </g>
    </g>
    <g
       id="g1405"
       style="opacity:1;fill:#000000;fill-opacity:1"
       transform="matrix(2.4021457,0,0,2.4021457,-25.822049,-730.11079)">
      <g
         transform="translate(280.81119,318.12)"
         id="g1403"
         style="fill:#000000">
        <path
           style="fill:#000000;stroke:none"
           d="M 2.243303,-7.71875 2.227678,-6.1875 H 5.305803 V 0 h 1.5625 v -6.171875 c 0,-0.019531 0,-0.039063 0,-0.0625 C 6.774553,-7.148438 6.266741,-7.644531 5.352678,-7.71875 Z m 0,0"
           id="path1401" />
      </g>
    </g>
    <g
       id="g1411"
       style="opacity:1;fill:#000000;fill-opacity:1"
       transform="matrix(2.4021457,0,0,2.4021457,-24.822149,-730.11079)">
      <g
         transform="translate(286.44049,318.12)"
         id="g1409"
         style="fill:#000000">
        <path
           style="fill:#000000;stroke:none"
           d="m 2.227678,-7.6875 4.296875,6.15625 H 2.352678 L 2.337053,0.015625 h 6.1875 v -1.53125 L 6.852678,-3.875 h 0.359375 l 1.328125,-3.8125 h -1.65625 l -0.90625,2.578125 -1.828125,-2.59375 z m 0,0"
           id="path1407" />
      </g>
    </g>
    <g
       id="g1417"
       style="opacity:1;fill:#000000;fill-opacity:1"
       transform="matrix(2.4021457,0,0,2.4021457,-40.822149,-730.11079)">
      <g
         transform="translate(307.89151,318.12)"
         id="g1415"
         style="fill:#000000">
        <path
           style="fill:#000000;stroke:none"
           d="m 0.5625,-7.71875 v 1.515625 h 0.625 V 0 H 6.375 v -7.71875 z m 2.15625,1.515625 H 4.828125 V -1.53125 L 2.71875,-1.546875 Z m 0,0"
           id="path1413" />
      </g>
    </g>
    <g
       id="g1423"
       style="opacity:1;fill:#000000;fill-opacity:1"
       transform="matrix(2.4021457,0,0,2.4021457,-40.822149,-730.11079)">
      <g
         transform="translate(314.82599,318.12)"
         id="g1421"
         style="fill:#000000">
        <path
           style="fill:#000000;stroke:none"
           d="m 1.410714,-7.71875 -0.015625,1.546875 h 1.171875 v 2.34375 H 4.113839 V -7.71875 Z m 0,0"
           id="path1419" />
      </g>
    </g>
    <g
       id="g1429"
       style="opacity:1;fill:#000000;fill-opacity:1"
       transform="matrix(2.4021457,0,0,2.4021457,-36.822149,-730.11079)">
      <g
         transform="translate(318.66425,318.12)"
         id="g1427"
         style="fill:#000000">
        <path
           style="fill:#000000;stroke:none"
           d="M 0.578125,-7.71875 0.5625,-6.171875 h 1.171875 v 2.34375 H 3.28125 V -7.71875 Z m 0,0"
           id="path1425" />
      </g>
    </g>
    <g
       id="g1435"
       style="opacity:1;fill:#000000;fill-opacity:1"
       transform="matrix(2.4021457,0,0,2.4021457,-34.822149,-730.11079)">
      <g
         transform="translate(322.50247,318.12)"
         id="g1433"
         style="fill:#000000">
        <path
           style="fill:#000000;stroke:none"
           d="m 0.5625,-9.25 v 3.078125 h 3.46875 v 3.3125 c 0,0.148437 -0.027344,0.292969 -0.078125,0.4375 -0.367187,0.8125 -0.980469,1.109375 -1.84375,0.890625 L 2.09375,0.015625 c 0.1875,0.03125 0.375,0.046875 0.5625,0.046875 1.789063,-0.164063 2.765625,-1.144531 2.921875,-2.9375 v -4.828125 h -3.4375 L 2.125,-9.25 Z m 0,0"
           id="path1431" />
      </g>
    </g>
    <g
       id="g1441"
       style="opacity:1;fill:#000000;fill-opacity:1"
       transform="matrix(2.4021457,0,0,2.4021457,-32.822149,-730.11079)">
      <g
         transform="translate(328.58215,318.12)"
         id="g1439"
         style="fill:#000000">
        <path
           style="fill:#000000;stroke:none"
           d="m 0.5625,-7.71875 v 1.546875 H 1.75 V 0 h 1.5 v -7.71875 z m 0,0"
           id="path1437" />
      </g>
    </g>
    <g
       id="g1447"
       style="opacity:1;fill:#000000;fill-opacity:1"
       transform="matrix(2.4021457,0,0,2.4021457,-30.822149,-730.11079)">
      <g
         transform="translate(332.39404,318.12)"
         id="g1445"
         style="fill:#000000">
        <path
           style="fill:#000000;stroke:none"
           d="M 0.5625,-7.71875 2.140625,0 h 1.8125 c 1.6875,-0.164063 2.753906,-1.0625 3.203125,-2.6875 L 8.3125,-7.71875 h -1.625 l -1.09375,5.046875 c -0.28125,0.71875 -0.804687,1.09375 -1.5625,1.125 L 3.40625,-1.53125 2.953125,-3.859375 H 4.4375 L 5.28125,-7.71875 H 3.671875 l -0.78125,3.640625 -0.71875,-3.640625 z m 0,0"
           id="path1443" />
      </g>
    </g>
    <g
       id="g1453"
       style="opacity:1;fill:#000000;fill-opacity:1"
       transform="matrix(2.3146959,0,0,2.3146959,-2.3033994,-715.54955)">
      <g
         transform="translate(276.23999,338.76001)"
         id="g1451"
         style="fill:#000000">
        <path
           id="path1449"
           style="fill:#000000;stroke:none;stroke-width:2.3147"
           d="m 85.0625,119.01562 -1.373047,2.06055 2.205078,1.48438 1.375,-2.02539 z m 3.978516,0 -1.373047,2.06055 2.205078,1.48438 1.410156,-2.02539 z m 33.818364,0.9043 -1.5918,2.27735 2.42187,1.70117 1.62891,-2.31446 z m -26.341802,0.25196 -1.375,2.02539 2.207031,1.51953 1.373047,-2.06055 z m 4.013672,0 -1.410156,2.02539 2.205076,1.51953 1.41211,-2.06055 z m -12.791016,2.5332 -1.410156,2.45898 0.07227,0.50586 c -1.283932,0.56059 -2.424821,1.26676 -3.4375,2.13477 -0.994595,0.84992 -1.835034,1.83462 -2.53125,2.96484 l -0.904297,2.45899 c -0.02713,0.0542 -0.03516,0.1093 -0.03516,0.18164 v 0.21679 c 0,0.24413 0.07213,0.42543 0.216797,0.54297 0.162753,0.12659 0.43325,0.20675 0.794921,0.25196 l 4.087891,0.4707 2.132812,-3.76172 -3.978515,-0.57813 c 0.334545,-0.72334 0.806309,-1.38248 1.412109,-1.98828 0.623883,-0.59676 1.409264,-1.17574 2.34961,-1.73633 l 0.6875,6.47266 c 0.09042,0.86801 0.378932,1.54618 0.867187,2.02539 0.50634,0.48826 1.175465,0.72461 2.025391,0.72461 h 1.40039 0.01172 4.761719 l 1.554687,-1.6289 1.519532,1.6289 h 4.339838 2.1875 c 0.57868,0 0.95734,-0.055 1.15625,-0.18164 0.21701,-0.14467 0.43339,-0.44316 0.6504,-0.9043 l 0.86914,-1.95312 h 0.2539 c 0.11754,0.89514 0.4431,1.62836 0.97656,2.20703 0.52443,0.56059 1.12048,0.83203 1.77149,0.83203 h 0.79492 2.49219 l 1.51758,-1.6289 1.51953,1.6289 h 10.52539 0.14453 c 0.95843,0 1.69874,-0.10917 2.20508,-0.32617 0.50634,-0.23509 1.02317,-0.62474 1.55664,-1.1582 0.84088,-0.84089 1.50002,-1.78051 1.98828,-2.82032 0.47921,-1.03076 0.72266,-2.04251 0.72266,-3.03711 0,-1.27489 -0.41476,-2.25155 -1.22852,-2.92968 -0.79568,-0.6691 -1.93562,-1.01368 -3.40039,-1.01368 -1.61848,1e-5 -3.34543,0.52393 -5.17188,1.55469 -1.83548,1.01268 -3.906,2.62244 -6.2207,4.81055 h -1.62695 v -2.56641 l -1.99024,1.84375 v 0.72266 h -3.0332 -0.57812 c -0.43401,0 -0.74958,-0.0721 -0.93946,-0.2168 -0.19892,-0.16275 -0.3261,-0.45126 -0.39843,-0.86718 l -0.79688,-4.05079 -1.95312,2.82032 0.4707,2.31445 h -4.46485 -1.69921 c 0.0452,-0.18988 0.0803,-0.39628 0.10742,-0.61328 0.0181,-0.217 0.0371,-0.44337 0.0371,-0.6875 0,-1.46477 -0.29047,-2.67684 -0.86914,-3.61719 -0.57868,-0.95843 -1.29193,-1.44727 -2.132815,-1.44727 -0.940345,0 -1.807839,0.59801 -2.603516,1.77344 -0.795677,1.15735 -1.339569,2.69302 -1.628906,4.5918 h -3.386719 -0.01172 -1.001953 c -0.560589,0 -0.968257,-0.1172 -1.230469,-0.36133 -0.244128,-0.23509 -0.41544,-0.68688 -0.505859,-1.33789 z m 41.447266,5.09961 c 0.86801,0 1.57418,0.2064 2.13477,0.61328 0.55154,0.41592 0.94923,1.03194 1.19335,1.8457 -0.57867,0.41592 -1.17667,0.71442 -1.77343,0.9043 -0.57868,0.19892 -1.30191,0.28906 -2.16992,0.28906 h -7.48633 c 1.68177,-1.34722 3.14727,-2.28685 4.37695,-2.82031 1.24777,-0.55155 2.49493,-0.83203 3.72461,-0.83203 z m -30.5,0.6875 c 0.379756,0.19892 0.695324,0.42333 0.939453,0.68554 0.235088,0.24413 0.433457,0.54263 0.578127,0.9043 -0.19892,0.217 -0.423338,0.3983 -0.685549,0.54297 -0.271252,0.14467 -0.668935,0.27091 -1.193359,0.36133 -0.415921,-0.18988 -0.724404,-0.37921 -0.941406,-0.57813 -0.198918,-0.18987 -0.343175,-0.41624 -0.433594,-0.6875 0.235087,-0.33454 0.488513,-0.596 0.759766,-0.79492 0.289336,-0.217 0.614891,-0.36126 0.976562,-0.43359 z m 6.63477,9.11328 -1.375,2.06055 2.20703,1.48437 1.37304,-2.02539 z m 4.01367,0 -1.41016,2.06055 2.20703,1.48437 1.41016,-2.02539 z"
           transform="matrix(0.43202219,0,0,0.43202219,-33.874265,-58.776696)" />
      </g>
    </g>
    <g
       id="g1457"
       style="opacity:1;fill:#ffcc00;fill-opacity:1"
       transform="matrix(2.3146959,0,0,2.3146959,-2.3033994,-715.54955)">
      <g
         transform="translate(281.8913,338.76001)"
         id="g1455"
         style="fill:#ffcc00" />
    </g>
    <g
       id="g1461"
       style="opacity:1;fill:#ffcc00;fill-opacity:1"
       transform="matrix(2.3146959,0,0,2.3146959,-2.3033994,-715.54955)">
      <g
         transform="translate(287.07028,338.76001)"
         id="g1459"
         style="fill:#ffcc00" />
    </g>
    <g
       id="g1465"
       style="opacity:1;fill:#ffcc00;fill-opacity:1"
       transform="matrix(2.3146959,0,0,2.3146959,-2.3033994,-715.54955)">
      <g
         transform="translate(290.89645,338.76001)"
         id="g1463"
         style="fill:#ffcc00" />
    </g>
    <g
       id="g1471"
       style="opacity:1;fill:#000000;fill-opacity:1"
       transform="matrix(2.3146959,0,0,2.3146959,-2.3033994,-715.54955)">
      <g
         transform="translate(306.72,338.76001)"
         id="g1469"
         style="fill:#000000">
        <path
           id="path1467"
           style="fill:#000000;stroke:none;stroke-width:2.3147"
           d="m 170.63672,121.51172 -1.62695,2.31445 2.45898,1.73633 1.58984,-2.35156 z m 3.10937,4.23047 -1.73632,2.56836 0.9414,2.82031 h -4.71289 -0.0254 -0.55469 c -0.46113,0 -0.78668,-0.0721 -0.97656,-0.2168 -0.17179,-0.14467 -0.30606,-0.43318 -0.39648,-0.86718 l -0.75977,-4.05079 -1.95312,2.82032 0.4707,2.31445 h -10.0918 c -0.79567,0 -1.37466,-0.1172 -1.73633,-0.36133 -0.34358,-0.26221 -0.50586,-0.68695 -0.50586,-1.26562 0,-0.30743 0.0551,-0.61496 0.18164,-0.9043 0.14467,-0.30742 0.334,-0.5879 0.57813,-0.83203 h -0.9043 c -0.57867,0.48825 -1.01339,1.04018 -1.30273,1.66406 -0.27125,0.63292 -0.39649,1.32911 -0.39649,2.09766 0,1.40147 0.37063,2.51436 1.1211,3.32812 0.74143,0.79568 1.79022,1.19336 3.14648,1.19336 h 7.63086 c 0.57868,0 0.95929,-0.0721 1.15821,-0.2168 0.217,-0.14466 0.43338,-0.43513 0.65039,-0.86914 l 0.86718,-1.95312 h 0.25391 c 0.11754,0.89514 0.4431,1.62836 0.97656,2.20703 0.52443,0.56059 1.10341,0.83203 1.73633,0.83203 h 0.80664 0.0254 4.78516 c 0.28933,0 0.5157,-0.055 0.6875,-0.18164 0.18987,-0.14467 0.34412,-0.34398 0.4707,-0.61523 l 1.37305,-3.36329 c 0.0452,-0.0904 0.0823,-0.1896 0.10937,-0.28906 0.0181,-0.0904 0.0352,-0.19959 0.0352,-0.32617 0,-0.0181 -0.0171,-0.0722 -0.0352,-0.14453 -0.0271,-0.0904 -0.0642,-0.19764 -0.10937,-0.32422 z m -15.5625,11.86328 -1.59179,2.31445 2.42382,1.69922 1.58985,-2.27734 z"
           transform="matrix(0.43202219,0,0,0.43202219,-64.354275,-58.776696)" />
      </g>
    </g>
    <g
       id="g1475"
       style="opacity:1;fill:#ffcc00;fill-opacity:1"
       transform="matrix(2.3146959,0,0,2.3146959,-2.3033994,-715.54955)">
      <g
         transform="translate(315.03754,338.76001)"
         id="g1473"
         style="fill:#ffcc00" />
    </g>
    <g
       id="g1481"
       style="opacity:1;fill:#000000;fill-opacity:1"
       transform="matrix(2.3146959,0,0,2.3146959,-2.3033994,-715.54955)">
      <g
         transform="translate(318.63831,338.76001)"
         id="g1479"
         style="fill:#000000">
        <path
           style="fill:#000000;stroke:none"
           d="M 2.078125,-7.171875 V -1.9375 L 1.265625,0 h -0.3125 v -6.328125 z m 0,0"
           id="path1477" />
      </g>
    </g>
    <g
       id="g1487"
       style="opacity:1;fill:#000000;fill-opacity:1"
       transform="matrix(2.3146959,0,0,2.3146959,-2.3033994,-715.54955)">
      <g
         transform="translate(321.79071,338.76001)"
         id="g1485"
         style="fill:#000000">
        <path
           id="path1483"
           style="fill:#000000;stroke:none;stroke-width:2.3147"
           d="m 200.98242,124.73047 c -0.94034,0 -1.72768,0.37967 -2.35156,1.12109 -0.6058,0.75047 -0.95841,1.76222 -1.04883,3.03711 h 0.4707 c 0.16276,-0.37975 0.39817,-0.66023 0.6875,-0.83203 0.28934,-0.16275 0.64998,-0.25195 1.08399,-0.25195 0.86801,0 1.99891,0.37966 3.40039,1.12109 1.41956,0.72334 2.47638,1.21023 3.18164,1.44531 -0.41592,0.27126 -0.88573,0.46254 -1.41016,0.58008 -0.50634,0.12659 -1.36385,0.17969 -2.5664,0.17969 h -7.11914 -0.25977 -1.36914 c -0.34359,-1.66369 -0.88553,-3.00099 -1.62695,-4.01367 -0.75047,-1.01268 -1.54584,-1.51953 -2.38672,-1.51953 -1.03981,0 -1.91728,0.7152 -2.64063,2.13476 -0.72334,1.4286 -1.08593,3.18161 -1.08593,5.2793 0,0.99459 0.27144,1.75487 0.83203,2.2793 0.57867,0.50634 1.39401,0.75976 2.46094,0.75976 h 2.96484 c -0.34359,1.46477 -1.14894,2.60276 -2.42383,3.39844 -1.25681,0.79568 -2.87459,1.19336 -4.8457,1.19336 -0.0723,0 -0.24365,-0.0171 -0.50586,-0.0352 h -0.58008 v 0.72266 c 0.91322,0.65101 1.78267,1.13883 2.60547,1.48242 0.84088,0.33455 1.59921,0.50781 2.27734,0.50781 1.3201,0 2.44102,-0.65111 3.36328,-1.95312 0.94035,-1.28393 1.52931,-3.05596 1.77344,-5.31641 h 1.1875 0.25977 2.84961 c 2.11577,0 4.08812,-0.46981 5.89648,-1.41016 0.14467,-0.0723 0.23481,-0.11935 0.28906,-0.14648 1.9259,-0.98555 3.38236,-1.63666 4.37696,-1.95312 0.98555,-0.33455 1.88813,-0.50586 2.71093,-0.50586 0.30743,0 0.55282,0.019 0.72461,0.0371 l 1.91602,-3.47266 c -0.0995,0.0271 -0.23569,0.0371 -0.39844,0.0371 h -0.61328 c -0.94035,0 -1.98111,-0.12719 -3.11133,-0.39844 -1.13926,-0.28934 -2.26018,-0.697 -3.36328,-1.23047 -0.46113,-0.18987 -1.08518,-0.48837 -1.88086,-0.90429 -1.80835,-0.91322 -3.05552,-1.37305 -3.72461,-1.37305 z m -11.78515,4.77344 c 0.45209,0.0271 0.84977,0.17138 1.19335,0.43359 0.36168,0.27125 0.74229,0.72399 1.15821,1.375 -0.34359,0.0995 -0.66914,0.16161 -0.97656,0.17969 -0.28934,0.0271 -0.57981,0.0371 -0.86915,0.0371 -0.31646,0 -0.61495,-0.018 -0.90429,-0.0723 -0.28934,-0.0452 -0.57785,-0.11734 -0.86719,-0.2168 0.0723,-0.50634 0.19952,-0.88695 0.39844,-1.1582 0.18987,-0.26221 0.47839,-0.45154 0.86719,-0.57812 z m 14.75,8.10156 -1.37305,2.06055 2.24219,1.48437 1.37304,-2.02539 z"
           transform="matrix(0.43202219,0,0,0.43202219,-79.424985,-58.776696)" />
      </g>
    </g>
    <g
       id="g1491"
       style="opacity:1;fill:#ffcc00;fill-opacity:1"
       transform="matrix(2.3146959,0,0,2.3146959,-2.3033994,-715.54955)">
      <g
         transform="translate(326.63193,338.76001)"
         id="g1489"
         style="fill:#ffcc00" />
    </g>
    <path
       id="path1493"
       d="m 592.67199,84.990488 h 3.75232 l 7.40523,12.86645 h 0.0451 v -12.86645 h 3.65287 v 18.761692 h -3.75235 l -7.40521,-12.875502 h -0.0451 v 12.875502 h -3.65286 z m 26.37486,12.0346 c -0.50633,0.29839 -1.03981,0.49732 -1.61848,0.61485 -0.56964,0.1085 -1.10308,0.23509 -1.6004,0.36168 -0.49729,0.13559 -0.90418,0.32549 -1.23871,0.5877 -0.32552,0.26223 -0.49731,0.67814 -0.49731,1.24778 0,0.406872 0.18077,0.750472 0.52441,1.030772 0.3436,0.28932 0.83185,0.434 1.45574,0.434 0.94034,0 1.67273,-0.27127 2.1881,-0.8228 0.52444,-0.551562 0.78665,-1.338182 0.78665,-2.387032 z m 0.56962,6.727092 c -0.13558,-0.22591 -0.25315,-0.52442 -0.35262,-0.88608 -0.0905,-0.37073 -0.14461,-0.64197 -0.16267,-0.8409 -0.18077,0.2169 -0.38876,0.44307 -0.62387,0.69622 -0.24414,0.25318 -0.54249,0.47921 -0.87704,0.68718 -0.34359,0.20787 -0.73239,0.38879 -1.17544,0.53345 -0.44303,0.15364 -0.95842,0.22615 -1.54614,0.22615 -1.39244,0 -2.45935,-0.36167 -3.20983,-1.08501 -0.74144,-0.72335 -1.12119,-1.77219 -1.12119,-3.164632 0,-0.76856 0.11752,-1.39243 0.35265,-1.88972 0.23508,-0.49731 0.55153,-0.90418 0.94033,-1.22066 0.38879,-0.32549 0.83184,-0.56963 1.32914,-0.75047 0.4973,-0.17169 1.00364,-0.30741 1.53711,-0.39782 0.53348,-0.0995 1.05789,-0.18078 1.57325,-0.25318 0.52445,-0.0632 0.9946,-0.15364 1.41053,-0.25317 0.50635,-0.12656 0.85897,-0.24412 1.05788,-0.37071 0.19885,-0.11753 0.29839,-0.37975 0.29839,-0.77758 0,-0.48826 -0.1898,-0.84091 -0.5606,-1.06694 -0.37071,-0.22614 -0.89512,-0.3436 -1.55519,-0.3436 -0.51536,0 -0.93129,0.0542 -1.24775,0.1717 -0.30742,0.1085 -0.5606,0.25316 -0.74142,0.42496 -0.18079,0.18077 -0.30742,0.37977 -0.37976,0.6058 -0.0722,0.22613 -0.11753,0.45208 -0.15363,0.67812 h -3.39066 c 0,-0.48825 0.0722,-1.01267 0.2259,-1.56422 0.14462,-0.5606 0.42498,-1.06693 0.8409,-1.53709 0.41592,-0.47019 1.00365,-0.85899 1.76314,-1.17545 0.75952,-0.31644 1.75413,-0.47016 3.01092,-0.47016 2.03441,0 3.49916,0.37975 4.38528,1.13022 0.89511,0.75952 1.34722,1.85357 1.34722,3.27311 v 6.799432 c 0,0.67814 0.0722,1.17544 0.20785,1.49188 0.13559,0.30745 0.32553,0.52445 0.56963,0.65101 v 0.67814 z m 6.25694,-13.607862 h 3.49011 v 2.24235 h 0.0542 c 0.1085,-0.17169 0.25317,-0.40687 0.44303,-0.70526 0.1898,-0.28934 0.44306,-0.58773 0.74143,-0.86801 0.30743,-0.28934 0.66005,-0.54253 1.05791,-0.75953 0.39783,-0.21688 0.8499,-0.32548 1.35625,-0.32548 0.11753,0 0.25318,0.009 0.3888,0.0186 0.13558,0 0.27125,0.0186 0.3888,0.0361 v 3.69807 c -0.13558,-0.0186 -0.2803,-0.0271 -0.42496,-0.0361 -0.15364,-0.009 -0.28935,-0.0186 -0.43401,-0.0186 -0.73239,0 -1.31106,0.0995 -1.75413,0.30741 -0.44303,0.19883 -0.78662,0.46114 -1.03074,0.78663 -0.24414,0.33455 -0.40689,0.70526 -0.4973,1.12119 -0.0904,0.4159 -0.12656,0.84991 -0.12656,1.28391 v 6.826562 h -3.65287 z m 9.90074,0 h 3.49916 v 2.24235 h 0.0451 c 0.1085,-0.17169 0.25316,-0.40687 0.44307,-0.70526 0.1898,-0.28934 0.44303,-0.58773 0.74142,-0.86801 0.30741,-0.28934 0.66003,-0.54253 1.05788,-0.75953 0.39782,-0.21688 0.84993,-0.32548 1.35626,-0.32548 0.11753,0 0.25317,0.009 0.3888,0.0186 0.14461,0 0.27124,0.0186 0.38878,0.0361 v 3.69807 c -0.13558,-0.0186 -0.28028,-0.0271 -0.42496,-0.0361 -0.14461,-0.009 -0.28932,-0.0186 -0.434,-0.0186 -0.72333,0 -1.31106,0.0995 -1.7541,0.30741 -0.44305,0.19883 -0.78664,0.46114 -1.03076,0.78663 -0.24412,0.33455 -0.40689,0.70526 -0.4973,1.12119 -0.0812,0.4159 -0.12656,0.84991 -0.12656,1.28391 v 6.826562 h -3.65286 z m 13.29141,6.79941 c 0,0.50634 0.0632,1.00363 0.18078,1.50093 0.12655,0.4973 0.31647,0.94033 0.56059,1.32913 0.25317,0.388802 0.58773,0.705282 0.9946,0.949402 0.40689,0.24413 0.89515,0.37072 1.47382,0.37072 0.56962,0 1.05789,-0.12655 1.47379,-0.37072 0.40691,-0.24412 0.7324,-0.5606 0.98558,-0.949402 0.25316,-0.3888 0.44303,-0.83183 0.56058,-1.32913 0.12655,-0.4973 0.18077,-0.99459 0.18077,-1.50093 0,-0.51539 -0.0542,-1.02172 -0.18077,-1.51902 -0.11753,-0.4973 -0.30742,-0.94034 -0.56058,-1.32914 -0.25318,-0.3888 -0.57867,-0.70527 -0.98558,-0.94035 -0.4159,-0.23507 -0.90417,-0.35263 -1.47379,-0.35263 -0.57867,0 -1.06693,0.11752 -1.47382,0.35263 -0.40687,0.23508 -0.74143,0.55155 -0.9946,0.94035 -0.24412,0.3888 -0.434,0.83184 -0.56059,1.32914 -0.11753,0.4973 -0.18078,1.00363 -0.18078,1.51902 z m 3.20984,7.224382 c -1.04885,0 -1.9892,-0.16266 -2.83914,-0.4973 -0.85895,-0.3255 -1.59135,-0.80471 -2.20617,-1.41954 -0.61487,-0.61487 -1.09408,-1.37436 -1.41957,-2.269502 -0.33455,-0.89513 -0.49732,-1.90782 -0.49732,-3.03804 0,-1.1212 0.16267,-2.13387 0.49732,-3.02901 0.32549,-0.89513 0.8047,-1.65464 1.41957,-2.26949 0.61482,-0.61483 1.34722,-1.09404 2.20617,-1.41956 0.84994,-0.33453 1.79029,-0.49728 2.83914,-0.49728 1.03979,0 1.98919,0.16266 2.83911,0.49728 0.84994,0.32552 1.58231,0.80473 2.19716,1.41956 0.62387,0.61485 1.09405,1.37436 1.42859,2.26949 0.3255,0.89514 0.48825,1.90781 0.48825,3.02901 0,1.13022 -0.16266,2.14291 -0.48825,3.03804 -0.33454,0.895142 -0.80472,1.654632 -1.42859,2.269502 -0.61485,0.61483 -1.34722,1.09404 -2.19716,1.41954 -0.84992,0.33455 -1.79932,0.4973 -2.83911,0.4973 z m 8.30938,-14.023792 h 3.86085 l 2.05249,10.217202 h 0.0542 l 1.95302,-10.217202 h 3.65289 l 2.06151,10.217202 h 0.0451 l 2.06153,-10.217202 h 3.75232 l -3.90605,13.607862 h -3.65286 l -2.21524,-9.954992 h -0.0542 l -2.21523,9.954992 h -3.64384 z m 41.07681,0.52442 c -0.0186,-0.22616 -0.0812,-0.4973 -0.17169,-0.82281 -0.0995,-0.31648 -0.27124,-0.63293 -0.53345,-0.92228 -0.26224,-0.29835 -0.63293,-0.55153 -1.11214,-0.75949 -0.47922,-0.2081 -1.09406,-0.30741 -1.86262,-0.30741 -0.94035,0 -1.72697,0.20785 -2.35989,0.62387 -0.63294,0.41592 -0.9494,0.95842 -0.9494,1.63656 0,0.59676 0.2803,1.03981 0.83185,1.34723 0.56058,0.29838 1.25681,0.55155 2.08864,0.75046 0.83185,0.19885 1.73603,0.40689 2.71256,0.6058 0.96745,0.19885 1.87164,0.48824 2.70347,0.86802 0.84089,0.37975 1.52806,0.90417 2.08866,1.55518 0.55155,0.651 0.83183,1.53709 0.83183,2.66734 0,0.94034 -0.15364,1.79026 -0.47017,2.558792 -0.30741,0.75953 -0.7776,1.41958 -1.39242,1.96209 -0.61484,0.55154 -1.37433,0.97651 -2.27852,1.27488 -0.90418,0.30742 -1.94399,0.46114 -3.12845,0.46114 -1.58234,0 -2.87531,-0.18981 -3.87894,-0.56059 -1.01267,-0.37071 -1.80834,-0.85897 -2.40512,-1.4467 -0.58771,-0.5877 -1.00363,-1.25681 -1.24776,-2.00726 -0.24414,-0.750462 -0.3707,-1.491902 -0.3888,-2.242352 h 3.64384 c 0.0722,0.36167 0.1898,0.72333 0.34359,1.08502 0.15364,0.35262 0.3888,0.66908 0.70526,0.94936 0.30742,0.280312 0.7143,0.506342 1.22063,0.678142 0.50635,0.17169 1.13928,0.26221 1.90782,0.26221 0.43401,0 0.85897,-0.0451 1.28395,-0.11753 0.42496,-0.0814 0.80469,-0.20787 1.13924,-0.39783 0.32552,-0.18079 0.58773,-0.424982 0.78665,-0.741452 0.20787,-0.30742 0.30741,-0.69622 0.30741,-1.13925 0,-0.48826 -0.16266,-0.8861 -0.47015,-1.17544 -0.31647,-0.29837 -0.73239,-0.54249 -1.25681,-0.73238 -0.51539,-0.1898 -1.11215,-0.34359 -1.7722,-0.47018 -0.66003,-0.11753 -1.33818,-0.25315 -2.02536,-0.39783 -0.69622,-0.15364 -1.37436,-0.33453 -2.0344,-0.5606 -0.66005,-0.22613 -1.25681,-0.5425 -1.7722,-0.94033 -0.52441,-0.39786 -0.94033,-0.90419 -1.25681,-1.50997 -0.30741,-0.61485 -0.46112,-1.37436 -0.46112,-2.29662 0,-0.83185 0.14461,-1.60943 0.4521,-2.31469 0.30741,-0.71432 0.75044,-1.32915 1.33817,-1.85357 0.59676,-0.52444 1.32009,-0.93132 2.19717,-1.22968 0.86801,-0.28934 1.85355,-0.44306 2.96569,-0.44306 1.52807,0 2.77583,0.20787 3.7433,0.63293 0.95842,0.41594 1.71793,0.93129 2.26044,1.54615 0.55155,0.61483 0.92228,1.28391 1.12118,1.99824 0.20809,0.70525 0.30743,1.34722 0.30743,1.92589 z m 7.29673,-5.67825 h 3.64384 v 7.07972 h 0.0542 c 0.2081,-0.44305 0.47921,-0.82281 0.80475,-1.13022 0.33453,-0.30743 0.67812,-0.54252 1.0398,-0.73239 0.3707,-0.18078 0.74142,-0.30742 1.12116,-0.37073 0.3888,-0.0722 0.73239,-0.1085 1.04887,-0.1085 1.54614,0 2.72156,0.44305 3.5263,1.32009 0.81374,0.87707 1.21157,2.04343 1.21157,3.49917 v 9.204532 h -3.64384 v -8.318442 c 0,-0.53346 -0.0722,-0.9765 -0.20787,-1.31105 -0.14461,-0.34359 -0.31646,-0.61484 -0.53346,-0.81377 -0.21688,-0.19883 -0.47921,-0.33454 -0.76856,-0.39783 -0.29838,-0.0722 -0.6058,-0.1085 -0.91321,-0.1085 -0.33453,0 -0.66006,0.0634 -0.9946,0.18079 -0.32549,0.12655 -0.62388,0.33453 -0.88609,0.64194 -0.26221,0.30745 -0.47017,0.70528 -0.62387,1.21161 -0.15364,0.50634 -0.23509,1.13022 -0.23509,1.8807 v 7.034502 h -3.64384 z m 18.83403,11.95324 c 0,0.50634 0.0632,1.00363 0.1898,1.50093 0.11753,0.4973 0.30742,0.94033 0.56058,1.32913 0.24412,0.388802 0.57867,0.705282 0.98557,0.949402 0.40687,0.24413 0.89511,0.37072 1.47378,0.37072 0.56966,0 1.06694,-0.12655 1.47382,-0.37072 0.40688,-0.24412 0.73239,-0.5606 0.98555,-0.949402 0.25318,-0.3888 0.44305,-0.83183 0.5606,-1.32913 0.12655,-0.4973 0.18077,-0.99459 0.18077,-1.50093 0,-0.51539 -0.0542,-1.02172 -0.18077,-1.51902 -0.11753,-0.4973 -0.30742,-0.94034 -0.5606,-1.32914 -0.25316,-0.3888 -0.57867,-0.70527 -0.98555,-0.94035 -0.40688,-0.23507 -0.90416,-0.35263 -1.47382,-0.35263 -0.57867,0 -1.06691,0.11752 -1.47378,0.35263 -0.4069,0.23508 -0.74145,0.55155 -0.98557,0.94035 -0.25316,0.3888 -0.44303,0.83184 -0.56058,1.32914 -0.12656,0.4973 -0.1898,1.00363 -0.1898,1.51902 z m 3.2098,7.224382 c -1.03977,0 -1.98917,-0.16266 -2.83911,-0.4973 -0.84994,-0.3255 -1.59136,-0.80471 -2.20619,-1.41954 -0.61484,-0.61487 -1.08501,-1.37436 -1.41954,-2.269502 -0.32552,-0.89513 -0.49732,-1.90782 -0.49732,-3.03804 0,-1.1212 0.17169,-2.13387 0.49732,-3.02901 0.33453,-0.89513 0.8047,-1.65464 1.41954,-2.26949 0.61483,-0.61483 1.35625,-1.09404 2.20619,-1.41956 0.84994,-0.33453 1.79934,-0.49728 2.83911,-0.49728 1.03981,0 1.9892,0.16266 2.83914,0.49728 0.84991,0.32552 1.5823,0.80473 2.20619,1.41956 0.61485,0.61485 1.08502,1.37436 1.41955,2.26949 0.32552,0.89514 0.48827,1.90781 0.48827,3.02901 0,1.13022 -0.16266,2.14291 -0.48827,3.03804 -0.33453,0.895142 -0.8047,1.654632 -1.41955,2.269502 -0.62389,0.61483 -1.35628,1.09404 -2.20619,1.41954 -0.84994,0.33455 -1.79933,0.4973 -2.83914,0.4973 z m 18.55375,-2.45032 h -0.0542 c -0.24414,0.50634 -0.53346,0.91321 -0.88608,1.22063 -0.3436,0.31648 -0.71431,0.5606 -1.09408,0.75048 -0.37974,0.18077 -0.75949,0.30742 -1.14829,0.37071 -0.37976,0.0722 -0.72335,0.1085 -1.03981,0.1085 -1.54615,0 -2.72158,-0.44305 -3.52629,-1.32009 -0.81376,-0.87707 -1.21159,-2.04343 -1.21159,-3.499172 v -9.20453 h 3.64382 v 8.31844 c 0,0.53347 0.0722,0.9765 0.20808,1.31105 0.1356,0.343592 0.31649,0.605802 0.53348,0.813772 0.21688,0.19883 0.47921,0.33454 0.76854,0.39783 0.29837,0.0722 0.6058,0.1085 0.91322,0.1085 0.33455,0 0.66007,-0.0634 0.9946,-0.18079 0.3255,-0.12655 0.62389,-0.33453 0.8861,-0.64194 0.25315,-0.307452 0.46112,-0.705282 0.62387,-1.202562 0.15364,-0.48826 0.23508,-1.12119 0.23508,-1.88975 v -7.0345 h 3.64385 v 13.607882 h -3.49012 z m 7.14302,-16.727302 h 3.64384 v 18.761692 h -3.64384 z m 10.08159,12.00747 c 0,0.57869 0.0542,1.11215 0.17169,1.6004 0.1085,0.4973 0.2984,0.93131 0.54252,1.29298 0.25317,0.370722 0.56963,0.660052 0.95843,0.877052 0.37975,0.2169 0.83185,0.32552 1.34722,0.32552 1.03078,0 1.79027,-0.36166 2.28757,-1.06694 0.48826,-0.714302 0.74144,-1.726992 0.74144,-3.029012 0,-0.5877 -0.0634,-1.13022 -0.18077,-1.6275 -0.12656,-0.49729 -0.29837,-0.92226 -0.53348,-1.29297 -0.23508,-0.36167 -0.54249,-0.65101 -0.91322,-0.85899 -0.37974,-0.20785 -0.8047,-0.30741 -1.29295,-0.30741 -0.50635,0 -0.9494,0.1085 -1.32915,0.3255 -0.37976,0.21688 -0.70526,0.50633 -0.97653,0.8861 -0.27124,0.37071 -0.47014,0.80472 -0.61483,1.30202 -0.13559,0.4973 -0.20786,1.02172 -0.20786,1.57325 z m 6.20265,4.719832 h -0.0542 c -0.0995,0.24413 -0.25318,0.50634 -0.44307,0.79569 -0.18979,0.28932 -0.44305,0.55153 -0.75046,0.79567 -0.31646,0.24413 -0.70526,0.44303 -1.15735,0.6058 -0.46113,0.17169 -1.00363,0.25316 -1.63655,0.25316 -0.8861,0 -1.68177,-0.16266 -2.40512,-0.4973 -0.72333,-0.3255 -1.34722,-0.79567 -1.86261,-1.41052 -0.52442,-0.6058 -0.93129,-1.33817 -1.21161,-2.19716 -0.28932,-0.858962 -0.434,-1.817392 -0.434,-2.884312 0,-0.9494 0.13558,-1.8807 0.3888,-2.77583 0.2622,-0.89515 0.64196,-1.68177 1.1483,-2.37799 0.50633,-0.69621 1.13024,-1.25681 1.86262,-1.67274 0.74142,-0.41592 1.6004,-0.62387 2.56787,-0.62387 0.56058,0 1.03981,0.0632 1.46477,0.18077 0.41591,0.12655 0.7776,0.28934 1.07595,0.49732 0.30745,0.20785 0.5606,0.44303 0.75953,0.70525 0.19882,0.26221 0.36166,0.52442 0.47921,0.80472 h 0.0542 v -6.92602 h 3.64384 v 18.761702 h -3.49015 z m 15.24444,-6.410612 c -0.0361,-0.31648 -0.0995,-0.62391 -0.20785,-0.94035 -0.0995,-0.30743 -0.26221,-0.58773 -0.47019,-0.83185 -0.20787,-0.24414 -0.47017,-0.44307 -0.79569,-0.59676 -0.31646,-0.16266 -0.71428,-0.23507 -1.18447,-0.23507 -0.45207,0 -0.84087,0.0632 -1.16638,0.20785 -0.33453,0.13558 -0.61485,0.32549 -0.84088,0.5606 -0.22615,0.23507 -0.39784,0.50634 -0.51539,0.81376 -0.12655,0.31646 -0.19882,0.66005 -0.23507,1.02171 z m 3.69809,4.3762 c -0.15364,0.470182 -0.37977,0.967482 -0.66909,1.500952 -0.29838,0.52441 -0.69622,1.01267 -1.19351,1.4557 -0.48826,0.44307 -1.1031,0.81378 -1.81741,1.09408 -0.72333,0.28932 -1.5823,0.434 -2.56785,0.434 -2.05248,0 -3.67096,-0.61483 -4.8464,-1.85357 -1.18448,-1.22967 -1.77219,-2.974762 -1.77219,-5.235202 0,-1.22063 0.15363,-2.27851 0.4792,-3.19174 0.32552,-0.91322 0.77761,-1.68177 1.35627,-2.2966 0.57867,-0.61485 1.27488,-1.07599 2.07962,-1.39245 0.81376,-0.31644 1.70889,-0.47016 2.70349,-0.47016 1.11214,0 2.06152,0.19882 2.86624,0.58773 0.79569,0.38876 1.4467,0.94936 1.95302,1.66368 0.50635,0.72335 0.87709,1.59136 1.12119,2.59499 0.24413,1.01267 0.36166,2.12482 0.36166,3.33642 h -9.27685 c 0.0186,0.45208 0.0814,0.87704 0.19882,1.27488 0.1085,0.40688 0.28935,0.75047 0.51539,1.048842 0.23509,0.28934 0.55155,0.52442 0.94035,0.69621 0.38877,0.18078 0.88608,0.26221 1.47378,0.26221 0.39787,0 0.7324,-0.0451 1.00366,-0.14461 0.27127,-0.0904 0.49729,-0.2169 0.67814,-0.36168 0.18079,-0.14461 0.33455,-0.31644 0.45209,-0.49728 0.12656,-0.18078 0.22613,-0.352632 0.31646,-0.506352 z m 2.87527,-9.53906 h 3.49015 v 2.24235 h 0.0542 c 0.0995,-0.17169 0.24414,-0.40687 0.44305,-0.70526 0.18982,-0.28934 0.43401,-0.58773 0.74144,-0.86801 0.29838,-0.28934 0.651,-0.54253 1.04885,-0.75953 0.40688,-0.21688 0.85895,-0.32548 1.35627,-0.32548 0.12657,0 0.25318,0.009 0.38878,0.0186 0.14461,0 0.27127,0.0186 0.39785,0.0361 v 3.69807 c -0.14461,-0.0186 -0.28934,-0.0271 -0.43401,-0.0361 -0.14461,-0.009 -0.28934,-0.0186 -0.42496,-0.0186 -0.73239,0 -1.3201,0.0995 -1.76313,0.30741 -0.44307,0.19883 -0.78667,0.46114 -1.03078,0.78663 -0.24412,0.33455 -0.40689,0.70526 -0.4973,1.12119 -0.0814,0.4159 -0.12655,0.84991 -0.12655,1.28391 v 6.826562 h -3.64385 z m 17.58628,4.12305 c -0.0361,-0.2081 -0.0904,-0.41593 -0.17169,-0.61486 -0.0722,-0.19883 -0.20785,-0.37974 -0.39782,-0.53347 -0.18078,-0.16266 -0.41592,-0.28028 -0.72334,-0.37975 -0.29838,-0.0995 -0.70527,-0.14461 -1.2116,-0.14461 -0.56962,0 -1.0579,0.0995 -1.47381,0.28934 -0.40689,0.1898 -0.60581,0.46112 -0.60581,0.80472 0,0.45209 0.20808,0.78662 0.62388,0.99458 0.41593,0.2081 0.94035,0.37977 1.57328,0.51539 0.63292,0.14461 1.32009,0.28028 2.0525,0.40687 0.72333,0.12656 1.4105,0.33455 2.04343,0.6239 0.63291,0.28932 1.15733,0.67812 1.57326,1.17544 0.41594,0.49728 0.62388,1.17542 0.62388,2.04344 0,0.768552 -0.13558,1.437632 -0.42495,2.025362 -0.28934,0.57867 -0.68718,1.06692 -1.20255,1.46475 -0.50635,0.40689 -1.13024,0.70528 -1.84455,0.91322 -0.72333,0.2081 -1.51901,0.31648 -2.38703,0.31648 -1.24774,0 -2.29661,-0.14462 -3.13749,-0.41594 -0.84994,-0.28028 -1.52805,-0.64196 -2.05248,-1.09404 -0.51538,-0.45211 -0.89515,-0.96747 -1.13022,-1.5552 -0.23509,-0.57867 -0.36169,-1.175422 -0.37976,-1.781232 h 3.75233 c 0.0186,0.1898 0.0542,0.39785 0.11753,0.62388 0.0634,0.226152 0.1898,0.434002 0.3888,0.641982 0.19882,0.19884 0.50632,0.36168 0.90419,0.50635 0.39782,0.13558 0.94033,0.20785 1.61847,0.20785 0.6058,0 1.13022,-0.1085 1.57325,-0.31646 0.44305,-0.20785 0.66006,-0.52442 0.66006,-0.95842 0,-0.434012 -0.20786,-0.768562 -0.62388,-0.994612 -0.41593,-0.22615 -0.94035,-0.40687 -1.57327,-0.54248 -0.63293,-0.14462 -1.3201,-0.28032 -2.04343,-0.42498 -0.7324,-0.13559 -1.41957,-0.3436 -2.0525,-0.62389 -0.63292,-0.28029 -1.15734,-0.65101 -1.57327,-1.13022 -0.4159,-0.47922 -0.62388,-1.13927 -0.62388,-1.99823 0,-0.64199 0.1085,-1.23873 0.33453,-1.79932 0.22616,-0.55155 0.57869,-1.03979 1.0579,-1.45573 0.47923,-0.41591 1.08502,-0.74142 1.82645,-0.97651 0.73238,-0.23509 1.61848,-0.35262 2.6402,-0.35262 1.27488,0 2.27853,0.17169 3.03804,0.50633 0.75951,0.34359 1.33819,0.75048 1.74506,1.22969 0.40687,0.47921 0.67814,0.96747 0.81376,1.48284 0.12656,0.51539 0.19883,0.9494 0.21688,1.32011 z m 0,0"
       style="opacity:1;fill:#000000;fill-opacity:1;fill-rule:nonzero;stroke:none;stroke-width:2.31469" />
  </g>
</svg>
