<?xml version="1.0" encoding="UTF-8" standalone="no"?>
<!-- Created with Inkscape (http://www.inkscape.org/) -->

<svg
   width="600.20001"
   height="601.85638"
   viewBox="0 0 158.80292 159.24117"
   version="1.1"
   id="svg32498"
   inkscape:version="1.2.2 (732a01da63, 2022-12-09)"
   sodipodi:docname="605a.svg"
   xmlns:inkscape="http://www.inkscape.org/namespaces/inkscape"
   xmlns:sodipodi="http://sodipodi.sourceforge.net/DTD/sodipodi-0.dtd"
   xmlns="http://www.w3.org/2000/svg"
   xmlns:svg="http://www.w3.org/2000/svg">
  <sodipodi:namedview
     id="namedview32500"
     pagecolor="#ffffff"
     bordercolor="#000000"
     borderopacity="0.25"
     inkscape:showpageshadow="2"
     inkscape:pageopacity="0.0"
     inkscape:pagecheckerboard="0"
     inkscape:deskcolor="#d1d1d1"
     inkscape:document-units="px"
     showgrid="false"
     inkscape:zoom="0.3581229"
     inkscape:cx="-89.354801"
     inkscape:cy="-40.488894"
     inkscape:window-width="1920"
     inkscape:window-height="991"
     inkscape:window-x="-9"
     inkscape:window-y="-9"
     inkscape:window-maximized="1"
     inkscape:current-layer="layer1" />
  <defs
     id="defs32495" />
  <g
     inkscape:label="Layer 1"
     inkscape:groupmode="layer"
     id="layer1"
     transform="translate(-111.30275,-48.406728)">
    <path
       sodipodi:nodetypes="ccccc"
       id="path199519-9-7"
       d="M 111.32921,48.433186 V 207.62144 h 158.75 V 48.433186 Z"
       style="color:#000000;font-style:normal;font-variant:normal;font-weight:normal;font-stretch:normal;font-size:medium;line-height:normal;font-family:sans-serif;font-variant-ligatures:normal;font-variant-position:normal;font-variant-caps:normal;font-variant-numeric:normal;font-variant-alternates:normal;font-variant-east-asian:normal;font-feature-settings:normal;font-variation-settings:normal;text-indent:0;text-align:start;text-decoration:none;text-decoration-line:none;text-decoration-style:solid;text-decoration-color:#000000;letter-spacing:normal;word-spacing:normal;text-transform:none;writing-mode:lr-tb;direction:ltr;text-orientation:mixed;dominant-baseline:auto;baseline-shift:baseline;text-anchor:start;white-space:normal;shape-padding:0;shape-margin:0;inline-size:0;clip-rule:nonzero;display:inline;overflow:visible;visibility:visible;isolation:auto;mix-blend-mode:normal;color-interpolation:sRGB;color-interpolation-filters:linearRGB;solid-color:#000000;solid-opacity:1;fill:#01553b;fill-opacity:1;fill-rule:nonzero;stroke:none;stroke-width:0.0529167;stroke-linecap:butt;stroke-linejoin:miter;stroke-miterlimit:4;stroke-dasharray:none;stroke-dashoffset:0;stroke-opacity:1;paint-order:stroke fill markers;color-rendering:auto;image-rendering:auto;shape-rendering:auto;text-rendering:auto;enable-background:accumulate;stop-color:#000000" />
    <path
       sodipodi:nodetypes="ssssssssssssssssss"
       id="path199521-9-7"
       d="m 118.09581,50.238284 c -2.72583,1.2e-5 -4.96124,2.234282 -4.96124,4.960646 v 145.65912 c 0,2.72639 2.23541,4.95897 4.96124,4.95897 l 145.21657,-5.8e-4 c 2.72655,0 4.96023,-2.2326 4.96023,-4.95886 V 55.198377 c 0,-2.726339 -2.23368,-4.96067 -4.96023,-4.960663 z m 0,2.156923 145.21657,-5.78e-4 c 1.56196,-7e-6 2.80318,1.242792 2.80318,2.803748 V 200.85758 c 0,1.56093 -1.24122,2.80189 -2.80318,2.80189 l -145.21657,5.7e-4 c -1.56275,2e-5 -2.80432,-1.24093 -2.80432,-2.80199 V 55.19893 c 0,-1.560939 1.24157,-2.803719 2.80432,-2.803723 z"
       style="color:#000000;font-style:normal;font-variant:normal;font-weight:normal;font-stretch:normal;font-size:medium;line-height:normal;font-family:sans-serif;font-variant-ligatures:normal;font-variant-position:normal;font-variant-caps:normal;font-variant-numeric:normal;font-variant-alternates:normal;font-variant-east-asian:normal;font-feature-settings:normal;font-variation-settings:normal;text-indent:0;text-align:start;text-decoration:none;text-decoration-line:none;text-decoration-style:solid;text-decoration-color:#000000;letter-spacing:normal;word-spacing:normal;text-transform:none;writing-mode:lr-tb;direction:ltr;text-orientation:mixed;dominant-baseline:auto;baseline-shift:baseline;text-anchor:start;white-space:normal;shape-padding:0;shape-margin:0;inline-size:0;clip-rule:nonzero;display:inline;overflow:visible;visibility:visible;isolation:auto;mix-blend-mode:normal;color-interpolation:sRGB;color-interpolation-filters:linearRGB;solid-color:#000000;solid-opacity:1;vector-effect:none;fill:#ffffff;fill-opacity:1;fill-rule:nonzero;stroke:none;stroke-width:2.15669;stroke-linecap:butt;stroke-linejoin:miter;stroke-miterlimit:4;stroke-dasharray:none;stroke-dashoffset:0;stroke-opacity:1;color-rendering:auto;image-rendering:auto;shape-rendering:auto;text-rendering:auto;enable-background:accumulate;stop-color:#000000" />
    <path
       style="color:#000000;font-style:normal;font-variant:normal;font-weight:normal;font-stretch:normal;font-size:medium;line-height:normal;font-family:sans-serif;font-variant-ligatures:normal;font-variant-position:normal;font-variant-caps:normal;font-variant-numeric:normal;font-variant-alternates:normal;font-variant-east-asian:normal;font-feature-settings:normal;font-variation-settings:normal;text-indent:0;text-align:start;text-decoration:none;text-decoration-line:none;text-decoration-style:solid;text-decoration-color:#000000;letter-spacing:normal;word-spacing:normal;text-transform:none;writing-mode:lr-tb;direction:ltr;text-orientation:mixed;dominant-baseline:auto;baseline-shift:baseline;text-anchor:start;white-space:normal;shape-padding:0;shape-margin:0;inline-size:0;clip-rule:nonzero;display:inline;overflow:visible;visibility:visible;isolation:auto;mix-blend-mode:normal;color-interpolation:sRGB;color-interpolation-filters:linearRGB;solid-color:#000000;solid-opacity:1;vector-effect:none;fill:#ffffff;fill-opacity:1;fill-rule:nonzero;stroke:none;stroke-width:2.15669;stroke-linecap:butt;stroke-linejoin:miter;stroke-miterlimit:4;stroke-dasharray:none;stroke-dashoffset:0;stroke-opacity:1;color-rendering:auto;image-rendering:auto;shape-rendering:auto;text-rendering:auto;enable-background:accumulate;stop-color:#000000"
       d="m 113.13475,127.94408 v 2.15753 l 133.30061,-0.001 v -2.15636 z"
       id="path27340-6" />
    <path
       id="path25397-2-8-1"
       style="fill:#ffffff;stroke-width:0.0477507"
       d="m 237.35358,60.356109 c -0.13191,-0.0012 -0.28082,0.05166 -0.47611,0.193922 l -10.77944,7.957745 c -0.17932,0.127611 -0.25085,0.302707 -0.25085,0.48887 0,0.188911 0.11708,0.409648 0.25085,0.499315 l 10.86191,8.021611 c 0.23965,0.171249 0.5268,0.162396 0.73389,0.02326 0.18695,-0.123499 0.32573,-0.319818 0.27282,-0.638664 l -1.03806,-5.18362 h 9.64382 c 3.68362,0 6.6502,2.965211 6.6502,6.657192 v 24.30287 8.40712 10.70168 12.10441 19.28763 c -2.09243,-1.41946 -4.62301,-2.2481 -7.35277,-2.2481 h -8.9366 l 1.03341,-5.16388 c 0.0494,-0.31685 -0.0708,-0.49047 -0.245,-0.60615 -0.1209,-0.0801 -0.23444,-0.1393 -0.36576,-0.14168 -0.1328,-0.002 -0.28371,0.0528 -0.48074,0.19624 l -10.77944,7.95774 c -0.17932,0.12761 -0.24972,0.30271 -0.24972,0.48887 0,0.18891 0.11595,0.40848 0.24972,0.49815 l 10.86303,8.02161 c 0.23972,0.17123 0.52681,0.1624 0.7339,0.0233 0.18448,-0.12348 0.3258,-0.321 0.27288,-0.63983 l -1.03812,-5.1813 h 9.64263 c 3.68382,0 6.65024,2.96404 6.65024,6.65603 V 196.864 h 5.72938 V 164.01582 133.8918 121.78739 102.6786 79.351134 63.540158 h -5.72938 v 4.974606 c -2.09251,-1.419452 -4.6228,-2.248092 -7.35275,-2.248092 h -8.93547 l 1.03347,-5.16272 c 0.0488,-0.316828 -0.0706,-0.492787 -0.245,-0.608473 -0.12111,-0.08006 -0.23567,-0.136847 -0.36694,-0.139341 z" />
    <path
       id="path15335-4-8"
       d="m 154.57401,62.918885 v 1.994489 h 4.98685 v 8.008167 h 2.02434 V 62.918872 Z m 0,4.502711 v 5.499951 h 1.99508 v -5.499951 z m 0,0"
       style="fill:#ffffff;fill-opacity:1;stroke:none;stroke-width:1.93405" />
    <path
       id="path15339-6-5"
       d="m 164.43934,62.918885 v 1.994489 h 1.51143 v 3.052164 h 1.9942 v -5.046666 z m 0,0"
       style="fill:#ffffff;fill-opacity:1;stroke:none;stroke-width:1.93405" />
    <path
       id="path15343-0-1"
       d="m 170.82882,62.918885 v 1.994489 h 3.98929 v 8.008167 h 2.02445 v -7.97796 c 0,-0.03793 0,-0.07591 0,-0.12087 -0.11617,-1.163454 -0.77865,-1.798069 -1.96398,-1.903832 z m 0,0"
       style="fill:#ffffff;fill-opacity:1;stroke:none;stroke-width:1.93405" />
    <path
       id="path15347-9-5"
       d="m 180.02156,62.918885 v 1.994489 h 3.92799 v 5.983469 h -4.2306 v 2.024704 h 7.01119 v -2.024704 h -0.78822 v -7.977958 z m 0,0"
       style="fill:#ffffff;fill-opacity:1;stroke:none;stroke-width:1.93405" />
    <path
       id="path15351-5-8"
       d="m 189.51514,62.918885 v 10.002662 h 7.13189 c 1.16398,-0.181316 1.79853,-0.85372 1.90358,-2.024704 v -7.977958 h -5.49971 v 3.02195 h 1.99509 v -0.997243 l 1.48035,-0.03013 v 5.983418 h -5.016 v -7.977978 z m 0,0"
       style="fill:#ffffff;fill-opacity:1;stroke:none;stroke-width:1.93405" />
    <path
       d="m 190.36835,78.807168 -0.94417,1.324131 0.28436,0.251798 v 4.887161 l -0.47736,0.44075 h -1.726 -0.1319 -0.18269 c -0.27408,0 -0.47723,-0.03959 -0.59905,-0.126308 -0.11235,-0.102444 -0.1728,-0.267941 -0.19302,-0.504407 l -0.47712,-2.395646 -1.13502,1.670865 0.28419,1.355509 h -1.93612 -0.80216 -1.95073 -0.10156 -3.69688 -0.2537 c -0.27425,0 -0.48734,-0.04768 -0.62949,-0.157677 -0.12112,-0.102444 -0.2641,-0.330887 -0.40607,-0.693455 l -0.62956,-1.544548 -1.10257,1.575897 c 0.37564,0.441361 0.66992,0.930332 0.88319,1.450475 0.20313,0.528064 0.31474,1.055721 0.31474,1.575904 0,0.922106 -0.37562,1.702423 -1.13504,2.332942 -0.75142,0.646244 -1.68752,0.977437 -2.77475,0.977437 -0.12134,0 -0.25394,-0.01011 -0.37586,-0.03045 -0.12112,0 -0.30448,-0.01506 -0.53806,-0.03146 v 0.346727 c 0.47712,0.441664 0.95453,0.764534 1.41844,0.977747 0.45691,0.228444 0.89341,0.347233 1.2924,0.347233 0.88337,0 1.58486,-0.473134 2.11287,-1.419101 0.51798,-0.930024 0.79198,-2.190286 0.79198,-3.78234 h 0.19303 c 0,0.275859 0.10156,0.496589 0.19279,0.662083 0.13191,0.164171 0.34531,0.254843 0.61945,0.277684 v 0.0054 h 3.74138 0.10156 1.9508 0.80191 0.57878 c 0.33522,0 0.56862,-0.03858 0.69043,-0.125386 0.12112,-0.07921 0.25394,-0.252209 0.37565,-0.504414 l 0.50768,-1.135114 h 0.15145 c 0.10157,0.504407 0.25387,0.929519 0.56857,1.260539 0.31486,0.33891 0.64988,0.504404 1.00512,0.504404 h 0.33515 0.1319 7.30503 c 0.56862,0 0.99502,-0.06294 1.29366,-0.189046 0.29427,-0.141835 0.59898,-0.378202 0.91361,-0.693457 0.47723,-0.480747 0.86314,-1.01614 1.13526,-1.607252 0.26388,-0.606851 0.40607,-1.206079 0.40607,-1.797191 0,-0.732959 -0.23365,-1.300261 -0.69048,-1.702221 -0.46701,-0.394042 -1.11982,-0.599341 -1.95549,-0.599341 -0.72083,0 -1.4741,0.181024 -2.27026,0.53578 -0.78162,0.338914 -1.6,0.85093 -2.45906,1.544542 V 80.63752 l 0.59905,-0.851033 z m 4.82284,4.949875 c 0.50762,0 0.91368,0.125904 1.22944,0.378101 0.33513,0.236466 0.57871,0.590708 0.72093,1.071504 -0.33497,0.236466 -0.6905,0.409679 -1.03972,0.535781 -0.33497,0.110376 -0.76131,0.157676 -1.26209,0.157676 h -4.38196 c 1.00511,-0.796008 1.86915,-1.355617 2.58599,-1.670869 0.71077,-0.315253 1.42541,-0.472123 2.1433,-0.472123 z m -10.23841,5.737372 -0.9442,1.355516 1.41745,0.977438 0.94413,-1.324403 z"
       style="fill:#ffffff;fill-opacity:1;stroke:none;stroke-width:2.01766"
       id="path15355-4-5"
       sodipodi:nodetypes="cccccccsccccccccccscccccscsccccsccccccccccscccccsccscccscscccccscccsccssccccc" />
    <path
       d="m 156.15071,78.90123 -1.5767,1.135114 v 6.305396 c 0,0.74087 0.14246,1.292549 0.43649,1.670863 0.31488,0.378306 0.7616,0.567154 1.35543,0.567154 h 0.35549 v 0 h 9.41062 c 0.16224,0 0.29436,-0.03146 0.40602,-0.09442 0.10157,-0.07921 0.19302,-0.204686 0.25381,-0.378101 l 0.82254,-1.954868 V 85.96332 85.805643 85.71021 85.521164 l -1.03974,-2.963661 -1.04074,1.513193 0.56856,1.639507 h -9.37912 v 0 h -0.57873 z m 7.75567,10.593199 -0.82229,1.197832 1.2924,0.882508 0.82243,-1.198005 z m 2.33226,0 -0.82254,1.197832 1.32404,0.882508 0.79187,-1.198005 z"
       style="fill:#ffffff;fill-opacity:1;stroke:none;stroke-width:2.01766"
       id="path15359-7-9"
       sodipodi:nodetypes="ccscsccscccccccccccccccccccccccc" />
    <g
       aria-label="Tiberias"
       id="text25460-7"
       style="font-size:13.5782px;letter-spacing:1.65876px;fill:#ffffff;stroke-width:1.13152">
      <path
         d="m 147.95642,100.33121 h -2.93289 v -1.765168 h 7.87536 v 1.765168 H 149.966 v 8.01114 h -2.00958 z"
         style="font-weight:bold;font-family:Triumvirate;-inkscape-font-specification:'Triumvirate Bold'"
         id="path33891" />
      <path
         d="m 155.95621,98.566042 h 1.90095 v 1.765168 h -1.90095 z m 0,2.688488 h 1.90095 v 7.08782 h -1.90095 z"
         style="font-weight:bold;font-family:Triumvirate;-inkscape-font-specification:'Triumvirate Bold'"
         id="path33893" />
      <path
         d="m 163.19561,104.79844 q 0,1.01836 0.38019,1.58865 0.39377,0.57028 1.19488,0.57028 0.40735,0 0.70607,-0.16294 0.29872,-0.17652 0.48882,-0.46166 0.20367,-0.29872 0.28514,-0.69249 0.095,-0.39376 0.095,-0.84184 0,-0.39377 -0.0815,-0.77396 -0.0815,-0.38019 -0.27157,-0.66533 -0.17651,-0.29872 -0.47524,-0.47524 -0.29872,-0.1901 -0.7468,-0.1901 -0.42092,0 -0.71964,0.17652 -0.29872,0.16294 -0.48882,0.44808 -0.19009,0.28514 -0.28514,0.67891 -0.0815,0.38019 -0.0815,0.80112 z m -1.90095,-6.232398 h 1.90095 v 3.611798 h 0.0272 q 0.0951,-0.21725 0.27156,-0.42092 0.17652,-0.20367 0.43451,-0.36661 0.25798,-0.16294 0.59744,-0.25799 0.33945,-0.0951 0.77395,-0.0951 0.78754,0 1.34425,0.3123 0.57028,0.29872 0.93689,0.80112 0.36661,0.50239 0.54313,1.15414 0.17652,0.63818 0.17652,1.31709 0,0.89616 -0.23083,1.62938 -0.21725,0.73323 -0.6246,1.2492 -0.39377,0.50239 -0.95047,0.78753 -0.55671,0.27157 -1.22204,0.27157 -0.51597,0 -0.88259,-0.12221 -0.36661,-0.1222 -0.62459,-0.29872 -0.24441,-0.19009 -0.39377,-0.42092 -0.14936,-0.23083 -0.23083,-0.4345 h -0.0272 v 1.0591 h -1.81948 z"
         style="font-weight:bold;font-family:Triumvirate;-inkscape-font-specification:'Triumvirate Bold'"
         id="path33895" />
      <path
         d="m 175.70335,103.94301 q -0.0272,-0.24441 -0.10862,-0.48882 -0.0815,-0.2444 -0.24441,-0.4345 -0.16294,-0.19009 -0.42092,-0.3123 -0.24441,-0.1222 -0.61102,-0.1222 -0.35304,0 -0.61102,0.10862 -0.25799,0.10863 -0.4345,0.29873 -0.17652,0.17651 -0.27157,0.42092 -0.0951,0.24441 -0.1222,0.52955 z m 1.92811,2.28114 q -0.12221,0.36661 -0.35303,0.78753 -0.23083,0.40735 -0.6246,0.76038 -0.38019,0.33946 -0.95048,0.57029 -0.5567,0.21725 -1.33066,0.21725 -1.60223,0 -2.52554,-0.96405 -0.92332,-0.96406 -0.92332,-2.72922 0,-0.95048 0.24441,-1.65654 0.25798,-0.71965 0.70606,-1.19489 0.46166,-0.48881 1.08626,-0.73322 0.63817,-0.24441 1.41213,-0.24441 0.86901,0 1.4936,0.3123 0.6246,0.29872 1.01837,0.86901 0.39377,0.5567 0.58386,1.34424 0.19009,0.78754 0.19009,1.73801 h -4.83383 q 0.0136,0.35303 0.095,0.66533 0.0951,0.3123 0.27157,0.54313 0.19009,0.23083 0.48881,0.36661 0.3123,0.13578 0.77396,0.13578 0.3123,0 0.51597,-0.0679 0.21725,-0.0815 0.35303,-0.19009 0.14936,-0.12221 0.24441,-0.25799 0.0951,-0.14936 0.16294,-0.27156 z"
         style="font-weight:bold;font-family:Triumvirate;-inkscape-font-specification:'Triumvirate Bold'"
         id="path33897" />
      <path
         d="m 180.83813,101.25453 h 1.81948 v 1.16772 h 0.0272 q 0.0815,-0.13578 0.23083,-0.36661 0.14936,-0.23083 0.38019,-0.44808 0.24441,-0.23083 0.55671,-0.39377 0.3123,-0.17652 0.70606,-0.17652 0.0951,0 0.20368,0.0136 0.10862,0 0.20367,0.0136 v 1.92811 q -0.10863,-0.0136 -0.23083,-0.0136 -0.10863,-0.0136 -0.21725,-0.0136 -0.57029,0 -0.92332,0.16294 -0.33945,0.14936 -0.52955,0.40734 -0.19009,0.25799 -0.25798,0.58387 -0.0679,0.32587 -0.0679,0.66533 v 3.55749 h -1.90094 z"
         style="font-weight:bold;font-family:Triumvirate;-inkscape-font-specification:'Triumvirate Bold'"
         id="path33899" />
      <path
         d="m 187.73807,98.566042 h 1.90095 v 1.765168 h -1.90095 z m 0,2.688488 h 1.90095 v 7.08782 h -1.90095 z"
         style="font-weight:bold;font-family:Triumvirate;-inkscape-font-specification:'Triumvirate Bold'"
         id="path33901" />
      <path
         d="m 197.20429,104.83917 q -0.39376,0.23083 -0.84184,0.32588 -0.44809,0.0815 -0.84185,0.19009 -0.38019,0.0951 -0.63818,0.29872 -0.25798,0.20368 -0.25798,0.65176 0,0.31229 0.27156,0.54312 0.27156,0.21726 0.76038,0.21726 0.73322,0 1.14057,-0.42093 0.40734,-0.4345 0.40734,-1.24919 z m 0.29872,3.50318 q -0.10862,-0.17652 -0.19009,-0.46166 -0.0679,-0.28514 -0.0815,-0.43451 -0.13578,0.16294 -0.32588,0.36662 -0.19009,0.19009 -0.46166,0.35303 -0.25798,0.16294 -0.61101,0.27156 -0.33946,0.12221 -0.80112,0.12221 -1.08625,0 -1.67012,-0.55671 -0.58386,-0.57028 -0.58386,-1.65654 0,-0.59744 0.17652,-0.97763 0.19009,-0.39377 0.48881,-0.63818 0.3123,-0.25798 0.69249,-0.39376 0.39377,-0.13578 0.80111,-0.20368 0.42093,-0.0815 0.82827,-0.13578 0.40735,-0.0543 0.73323,-0.13578 0.39377,-0.0951 0.54313,-0.19009 0.16293,-0.095 0.16293,-0.40735 0,-0.38019 -0.29872,-0.55671 -0.28514,-0.17651 -0.80111,-0.17651 -0.40735,0 -0.65175,0.095 -0.24441,0.0815 -0.39377,0.21726 -0.13578,0.13578 -0.1901,0.31229 -0.0543,0.17652 -0.0815,0.35304 h -1.76516 q 0,-0.38019 0.10862,-0.8147 0.12221,-0.4345 0.44808,-0.80111 0.32588,-0.36661 0.90974,-0.61102 0.59744,-0.24441 1.57508,-0.24441 1.58864,0 2.28113,0.59745 0.70607,0.58386 0.70607,1.69727 v 3.54391 q 0,0.52955 0.10862,0.77396 0.10863,0.24441 0.29873,0.33945 v 0.35304 z"
         style="font-weight:bold;font-family:Triumvirate;-inkscape-font-specification:'Triumvirate Bold'"
         id="path33903" />
      <path
         d="m 206.3039,103.39988 q -0.0272,-0.16294 -0.095,-0.3123 -0.0543,-0.16294 -0.20368,-0.28514 -0.13578,-0.1222 -0.38019,-0.19009 -0.23082,-0.0815 -0.62459,-0.0815 -0.44808,0 -0.77396,0.14936 -0.3123,0.14936 -0.3123,0.42092 0,0.35303 0.32588,0.51597 0.32588,0.16294 0.81469,0.27157 0.50239,0.10862 1.07268,0.21725 0.57028,0.095 1.0591,0.32587 0.50239,0.21726 0.82827,0.61102 0.32588,0.38019 0.32588,1.0591 0,0.59744 -0.23083,1.0591 -0.21726,0.44808 -0.6246,0.76038 -0.39377,0.3123 -0.96405,0.47524 -0.55671,0.16294 -1.23562,0.16294 -0.97763,0 -1.64296,-0.21725 -0.65176,-0.21726 -1.0591,-0.57029 -0.40735,-0.35303 -0.59744,-0.80111 -0.17652,-0.46166 -0.1901,-0.9369 h 1.95526 q 0.0136,0.14936 0.0543,0.32588 0.0543,0.17652 0.20367,0.33945 0.16294,0.14936 0.47524,0.25799 0.31229,0.10863 0.84184,0.10863 0.47524,0 0.8147,-0.16294 0.35303,-0.16294 0.35303,-0.5024 0,-0.33945 -0.32588,-0.51597 -0.32587,-0.17651 -0.82827,-0.28514 -0.48881,-0.10863 -1.0591,-0.21725 -0.57028,-0.10863 -1.07267,-0.32588 -0.48882,-0.21725 -0.8147,-0.58386 -0.32587,-0.38019 -0.32587,-1.04552 0,-0.5024 0.17651,-0.9369 0.17652,-0.4345 0.54313,-0.76038 0.38019,-0.32587 0.95048,-0.50239 0.58386,-0.1901 1.38497,-0.1901 0.99121,0 1.57507,0.27157 0.59744,0.25798 0.90974,0.63817 0.32588,0.36662 0.42093,0.77396 0.10862,0.39377 0.1222,0.67891 z"
         style="font-weight:bold;font-family:Triumvirate;-inkscape-font-specification:'Triumvirate Bold'"
         id="path33905" />
    </g>
    <path
       style="fill:#ffffff;fill-opacity:1;stroke:none;stroke-width:0.389716"
       d="m 131.09156,148.54732 -0.007,2.00338 h 1.52839 v 8.00136 l 1.95466,-0.006 -0.007,-9.99866 z m 0,0"
       id="path1747-1" />
    <path
       style="fill:#ffffff;fill-opacity:1;stroke:none;stroke-width:0.389716"
       d="m 138.11262,148.52904 0.0112,5.69961 2.98382,0.006 0.007,-2.02775 h -1.01083 l 0.007,-1.68065 h 3.51351 l 0.007,6.00406 h -5.52908 v 2.00948 h 5.55952 c 0.044,0 0.0883,-0.002 0.13393,-0.006 1.15697,-0.16594 1.75981,-0.83119 1.80851,-1.9973 l -0.0112,-8.00745 z m 0,0"
       id="path1751-0" />
    <path
       style="fill:#ffffff;fill-opacity:1;stroke:none;stroke-width:0.389716"
       d="m 147.95758,148.53514 -0.0112,2.00947 1.51619,-0.006 v 3.03248 l 1.99733,0.0121 0.007,-5.04805 z m 0,0"
       id="path1755-4" />
    <path
       style="fill:#ffffff;fill-opacity:1;stroke:none;stroke-width:0.389716"
       d="m 154.99702,154.07034 h 5.4073 v -2.02775 h -5.4073 z m 0,0"
       id="path1759-7" />
    <path
       style="fill:#ffffff;fill-opacity:1;stroke:none;stroke-width:0.389716"
       d="m 163.03331,148.53514 0.007,1.99121 h 3.93976 l -0.007,6.00406 h -4.22597 v 2.01557 h 7.02094 v -2.01557 h -0.80375 v -7.99527 z m 0,0"
       id="path1763-3" />
    <path
       style="fill:#ffffff;fill-opacity:1;stroke:none;stroke-width:0.389716"
       d="m 172.24211,148.53514 -0.0135,2.00947 1.51626,-0.006 v 3.03248 l 1.99728,0.0121 0.007,-5.04805 z m 0,0"
       id="path1767-1" />
    <path
       style="fill:#ffffff;fill-opacity:1;stroke:none;stroke-width:0.389716"
       d="m 178.49753,148.53514 0.007,1.99121 h 3.93983 l -0.007,6.00406 h -4.22597 v 2.01557 h 7.02097 v -2.01557 h -0.80376 v -7.99527 z m 0,0"
       id="path1771-2" />
    <path
       style="fill:#ffffff;fill-opacity:1;stroke:none;stroke-width:0.389716"
       d="m 187.69407,148.53514 2.08861,3.50744 -1.99122,1.46753 -0.007,5.04195 2.00335,-0.0121 v -3.98247 l 1.01695,-0.78552 2.81325,4.77402 h 2.32005 l -2.07036,-3.50136 1.92423,-1.49188 0.007,-5.01151 -1.98509,-0.006 v 4.00068 l -0.98039,0.76117 -2.82543,-4.76794 z m 0,0"
       id="path1775-1" />
    <path
       style="fill:#ffffff;fill-opacity:1;stroke:none;stroke-width:0.389716"
       d="m 205.59445,146.54393 v 4.00068 l 4.50605,0.006 v 4.28078 c -0.009,0.19487 -0.0458,0.38667 -0.10965,0.5724 -0.47955,1.05193 -1.27879,1.44012 -2.3992,1.16306 l -0.007,2.00339 c 0.239,0.0442 0.478,0.067 0.71854,0.067 2.32156,-0.22226 3.58817,-1.49493 3.79975,-3.818 l -0.007,-6.26591 -4.46342,0.006 -0.007,-2.00947 z m 0,0"
       id="path1779-5" />
    <path
       style="fill:#ffffff;fill-opacity:1;stroke:none;stroke-width:0.389716"
       d="m 215.308,148.52904 v 2.02166 h 0.51148 l 0.007,5.99798 -0.71857,-0.006 -0.007,2.00947 2.7341,0.006 v -8.00745 h 2.27132 v 7.99528 l 2.00335,0.006 0.007,-10.01083 z m 0,0"
       id="path1783-8" />
    <path
       d="m 186.62498,168.13925 -1.02916,1.50255 0.55417,1.67407 h -2.79728 l -0.007,0.018 v -0.018 h -0.33484 c -0.26387,0 -0.45245,-0.0452 -0.5657,-0.13865 -0.1146,-0.0919 -0.19055,-0.26115 -0.22927,-0.50633 l -0.4635,-2.39978 -1.1512,1.68067 0.27707,1.364 h -2.75105 v 0.0611 -0.0611 h -0.33479 c -0.27052,0 -0.46141,-0.0443 -0.57069,-0.13348 -0.10651,-0.0879 -0.18156,-0.25812 -0.22425,-0.5113 l -0.46843,-2.39978 -1.14627,1.68067 0.27706,1.364 h -5.93265 c -0.47705,0 -0.81506,-0.0751 -1.01761,-0.22426 -0.20246,-0.1492 -0.30346,-0.39542 -0.30346,-0.74057 0,-0.1919 0.0357,-0.37465 0.11055,-0.5492 0.0773,-0.17325 0.18898,-0.33338 0.33151,-0.47998 h -0.53269 c -0.33847,0.28518 -0.5905,0.61224 -0.75708,0.98137 -0.16786,0.36645 -0.25066,0.776 -0.25066,1.23038 0,0.82485 0.22111,1.47639 0.6663,1.95612 0.44375,0.47705 1.06006,0.71416 1.84889,0.71416 h 4.50434 c 0.33317,0 0.56249,-0.0393 0.68776,-0.12201 0.12404,-0.0813 0.24655,-0.25633 0.36783,-0.52283 l 0.52776,-1.13969 h 0.13371 c 0.0773,0.51968 0.2714,0.94768 0.58055,1.28483 0.31185,0.33448 0.65608,0.49975 1.0292,0.49975 h 0.47332 v -0.084 0.084 h 1.41346 c 0.3331,0 0.56248,-0.0386 0.68776,-0.11707 0.12404,-0.0814 0.24749,-0.25727 0.37276,-0.52777 l 0.51625,-1.1397 h 0.14516 c 0.0746,0.51968 0.26742,0.94768 0.58057,1.28483 0.31183,0.33448 0.65702,0.49975 1.03413,0.49975 h 0.46844 v -0.0231 l 0.007,0.0231 h 2.84017 c 0.15999,0 0.29513,-0.0387 0.4057,-0.11707 0.10921,-0.0773 0.20022,-0.19639 0.27217,-0.35625 l 0.80982,-1.97753 c 0.0279,-0.06 0.0488,-0.1191 0.0596,-0.1764 0.0135,-0.0559 0.0202,-0.11842 0.0202,-0.18628 0,-0.0135 -0.007,-0.0449 -0.0202,-0.0957 -0.0157,-0.0532 -0.0333,-0.11033 -0.0546,-0.17145 z m -14.40689,6.98821 -0.94835,1.36399 1.44477,0.9962 0.93189,-1.3475 z m 7.00138,0 -0.81142,1.21391 1.30627,0.86919 0.8098,-1.18915 z m 2.35526,0 -0.81476,1.21391 1.29966,0.86919 0.82137,-1.18915 z m 4.17115,0 -0.93348,1.36399 1.42833,0.9962 0.95494,-1.3475 z"
       style="fill:#ffffff;fill-opacity:1;stroke:none;stroke-width:0.341134"
       id="path1703-9" />
    <path
       style="fill:#ffffff;fill-opacity:1;stroke:none;stroke-width:0.341134"
       d="m 191.82052,164.42891 v 7.13721 l -1.1247,2.63847 h -0.42638 v -8.635 z m -0.86881,-2.43591 c 0.17056,0.0106 0.32646,0.036 0.46903,0.0746 0.14135,0.036 0.27457,0.0893 0.39978,0.1599 v 0.20788 h -0.2452 c -0.14246,0 -0.2745,0.0374 -0.39441,0.11195 -0.11729,0.0746 -0.25582,0.2132 -0.41577,0.41575 l 0.66095,0.3518 0.98076,-0.26651 -0.27718,0.67694 -2.37196,0.55435 v -0.3518 l 0.7569,-0.3518 -0.36243,-0.60232 c 0.0814,-0.29849 0.18381,-0.52369 0.30916,-0.67694 0.12785,-0.1559 0.2905,-0.25718 0.49037,-0.30382 z m 0,0"
       id="path1715-8" />
    <path
       d="m 209.43987,164.42826 -1.56691,1.14133 v 10.16977 c -0.56898,0.25585 -1.07041,0.43768 -1.50745,0.54428 -0.43442,0.10921 -0.87242,0.16494 -1.3162,0.16494 -0.86748,0 -1.52973,-0.22936 -1.98414,-0.68778 -0.45172,-0.45838 -0.67623,-1.12482 -0.67623,-1.99898 0,-0.15999 0.0112,-0.32778 0.0362,-0.50635 0.0279,-0.18134 0.0706,-0.38663 0.12381,-0.61851 h -0.42056 c -0.19999,0.44508 -0.35,0.87402 -0.44865,1.2898 -0.1,0.41575 -0.14853,0.83276 -0.14853,1.24854 0,1.14733 0.2947,2.07901 0.88901,2.79726 0.59698,0.72091 1.37693,1.08195 2.34039,1.08195 1.27926,0 2.33938,-0.54705 3.18154,-1.64108 0.84485,-1.09536 1.26999,-2.50326 1.26999,-4.22227 v -0.27709 h 0.13865 c 0.0813,0.43441 0.21976,0.75468 0.41564,0.95991 0.1946,0.2065 0.45885,0.31654 0.79335,0.32987 v -0.0593 l 0.009,0.0593 h 3.53446 c 0.15999,0 0.29353,-0.0386 0.40411,-0.11708 0.10921,-0.0773 0.19932,-0.19639 0.2672,-0.35625 l 0.82135,-1.98908 c 0.0238,-0.056 0.0422,-0.11258 0.053,-0.16988 0.0135,-0.06 0.0225,-0.12022 0.0225,-0.18134 0,-0.018 -0.009,-0.0499 -0.0225,-0.10067 -0.0112,-0.0492 -0.0285,-0.10516 -0.053,-0.16651 l -1.06709,-2.98363 -1.0292,1.50255 0.55583,1.67406 h -3.48666 l -0.007,0.0225 v -0.0225 h -0.49485 c -0.26379,0 -0.43396,-0.0317 -0.51123,-0.0957 -0.0786,-0.064 -0.11887,-0.27167 -0.11887,-0.62345 z m 2.37499,0.88076 -0.81969,1.21389 1.30459,0.88074 0.81642,-1.21555 z m 2.3454,0 -0.80982,1.21389 1.30625,0.88074 0.80982,-1.21555 z"
       style="fill:#ffffff;fill-opacity:1;stroke:none;stroke-width:0.341134"
       id="path1719-0" />
    <path
       style="fill:#ffffff;fill-opacity:1;stroke:none;stroke-width:0.341134"
       d="m 158.99354,169.73251 h 5.22361 v 1.19931 h -5.22361 z m 0,0"
       id="path1727-3-2" />
    <path
       d="m 137.90389,164.22045 -0.80982,1.2007 1.30458,0.86757 0.81149,-1.18753 z m -5.16779,0.20781 -1.5685,1.14134 v 6.37466 c 0,0.75423 0.15101,1.31973 0.45357,1.69551 0.30113,0.37712 0.75637,0.56408 1.364,0.56408 h 0.35131 v 0 h 7.1288 c 0.67165,0 1.17563,-0.24129 1.5141,-0.72902 0.34115,-0.48638 0.5113,-1.20618 0.5113,-2.15896 0,-1.41786 -0.24846,-2.62999 -0.74549,-3.64007 -0.49442,-1.01274 -1.03817,-1.52069 -1.63117,-1.52069 -0.23187,0 -0.47391,0.0867 -0.72576,0.25729 -0.25315,0.17056 -0.48442,0.40902 -0.69762,0.71417 -0.24257,0.33447 -0.43211,0.68385 -0.57069,1.04897 -0.13595,0.36246 -0.20291,0.68857 -0.20291,0.9764 0,0.43443 0.14426,0.79641 0.43211,1.08691 0.28787,0.28785 0.64662,0.43213 1.077,0.43213 0.28787,0 0.58064,-0.067 0.87914,-0.20291 0.29846,-0.1346 0.56631,-0.32056 0.80483,-0.55911 0.096,0.2532 0.17685,0.49352 0.24085,0.72407 0.0638,0.23185 0.11729,0.45894 0.15999,0.68282 h -8.17446 v 0 h -0.60037 z m 6.80883,3.82811 c 0.13864,0 0.30648,0.0692 0.50638,0.20786 0.20246,0.13594 0.40022,0.3187 0.59208,0.54922 -0.16786,0.0746 -0.32217,0.13123 -0.46344,0.16988 -0.14269,0.036 -0.27686,0.0528 -0.40076,0.0528 -0.23188,0 -0.43468,-0.0393 -0.6119,-0.12202 -0.17865,-0.0852 -0.32291,-0.20987 -0.43218,-0.37771 0.096,-0.14516 0.21864,-0.26106 0.36784,-0.34634 0.14921,-0.0879 0.29542,-0.1337 0.44198,-0.1337 z"
       style="fill:#ffffff;fill-opacity:1;stroke:none;stroke-width:0.341134"
       id="path1731-1"
       sodipodi:nodetypes="cccccccscsccscscscccscsccscccccscccscccs" />
    <path
       d="m 148.91782,164.42826 -1.56686,1.14133 v 6.37467 c 0,0.75423 0.151,1.31973 0.45357,1.6955 0.30115,0.37713 0.75632,0.56409 1.36399,0.56409 h 0.35131 3.53287 c 0.15976,0 0.29513,-0.0386 0.4057,-0.11708 0.10921,-0.0773 0.19752,-0.19639 0.26554,-0.35625 l 0.82139,-1.98908 c 0.0238,-0.056 0.0422,-0.11258 0.053,-0.16988 0.0135,-0.06 0.0225,-0.12022 0.0225,-0.18134 0,-0.018 -0.009,-0.0499 -0.0225,-0.10067 -0.0112,-0.0492 -0.0285,-0.10516 -0.053,-0.16651 l -1.06547,-2.98363 -1.0292,1.50255 0.55417,1.67406 h -3.485 -0.60201 z m 1.84889,10.6992 -0.82135,1.21391 1.30624,0.86919 0.81477,-1.18915 z m 2.34533,0 -0.80982,1.21391 1.30465,0.86919 0.81142,-1.18915 z"
       style="fill:#ffffff;fill-opacity:1;stroke:none;stroke-width:0.341134"
       id="path1739-3" />
    <g
       aria-label="Tel Aviv-Yafo"
       id="text25460-4-7"
       style="font-size:13.5782px;letter-spacing:1.87279px;fill:#ffffff;stroke-width:1.13152">
      <path
         d="m 128.08036,185.89998 h -2.93289 v -1.76517 h 7.87535 v 1.76517 h -2.93289 v 8.01114 h -2.00957 z"
         style="font-weight:bold;font-family:Triumvirate;-inkscape-font-specification:'Triumvirate Bold'"
         id="path33908" />
      <path
         d="m 138.38522,189.51178 q -0.0272,-0.24441 -0.10862,-0.48881 -0.0815,-0.24441 -0.24441,-0.43451 -0.16294,-0.19009 -0.42093,-0.3123 -0.2444,-0.1222 -0.61102,-0.1222 -0.35303,0 -0.61101,0.10863 -0.25799,0.10862 -0.43451,0.29872 -0.17651,0.17651 -0.27156,0.42092 -0.095,0.24441 -0.1222,0.52955 z m 1.92811,2.28114 q -0.12221,0.36661 -0.35304,0.78753 -0.23083,0.40735 -0.6246,0.76038 -0.38018,0.33946 -0.95047,0.57029 -0.55671,0.21725 -1.33066,0.21725 -1.60223,0 -2.52555,-0.96405 -0.92332,-0.96406 -0.92332,-2.72922 0,-0.95048 0.24441,-1.65654 0.25799,-0.71965 0.70607,-1.19488 0.46166,-0.48882 1.08625,-0.73323 0.63818,-0.2444 1.41214,-0.2444 0.869,0 1.4936,0.31229 0.6246,0.29872 1.01836,0.86901 0.39377,0.55671 0.58387,1.34424 0.19009,0.78754 0.19009,1.73801 h -4.83384 q 0.0136,0.35303 0.095,0.66533 0.0951,0.3123 0.27156,0.54313 0.1901,0.23083 0.48882,0.36661 0.3123,0.13578 0.77396,0.13578 0.31229,0 0.51597,-0.0679 0.21725,-0.0815 0.35303,-0.19009 0.14936,-0.12221 0.24441,-0.25799 0.0951,-0.14936 0.16294,-0.27156 z"
         style="font-weight:bold;font-family:Triumvirate;-inkscape-font-specification:'Triumvirate Bold'"
         id="path33910" />
      <path
         d="m 143.69329,184.13481 h 1.90095 v 9.77631 h -1.90095 z"
         style="font-weight:bold;font-family:Triumvirate;-inkscape-font-specification:'Triumvirate Bold'"
         id="path33912" />
      <path
         d="m 158.45079,190.19069 h 2.47123 l -1.22204,-3.74758 h -0.0272 z m 0.1222,-6.05588 h 2.25398 l 3.47602,9.77631 h -2.14535 l -0.69249,-2.06389 h -3.55749 l -0.66533,2.06389 h -2.14536 z"
         style="font-weight:bold;font-family:Triumvirate;-inkscape-font-specification:'Triumvirate Bold'"
         id="path33914" />
      <path
         d="m 165.40182,186.8233 h 2.09104 l 1.48003,5.32265 h 0.0272 l 1.48002,-5.32265 h 2.09104 l -2.60701,7.08782 h -2.00958 z"
         style="font-weight:bold;font-family:Triumvirate;-inkscape-font-specification:'Triumvirate Bold'"
         id="path33916" />
      <path
         d="m 175.57089,184.13481 h 1.90095 v 1.76517 h -1.90095 z m 0,2.68849 h 1.90095 v 7.08782 h -1.90095 z"
         style="font-weight:bold;font-family:Triumvirate;-inkscape-font-specification:'Triumvirate Bold'"
         id="path33918" />
      <path
         d="m 180.47162,186.8233 h 2.09104 l 1.48002,5.32265 h 0.0272 l 1.48002,-5.32265 h 2.09105 l -2.60702,7.08782 h -2.00957 z"
         style="font-weight:bold;font-family:Triumvirate;-inkscape-font-specification:'Triumvirate Bold'"
         id="path33920" />
      <path
         d="m 190.13829,189.43031 h 3.63896 v 1.81948 h -3.63896 z"
         style="font-weight:bold;font-family:Triumvirate;-inkscape-font-specification:'Triumvirate Bold'"
         id="path33922" />
      <path
         d="m 199.76424,190.19069 -3.31309,-6.05588 h 2.41692 l 1.98242,4.16851 1.84664,-4.16851 h 2.33545 l -3.25877,6.05588 v 3.72043 h -2.00957 z"
         style="font-weight:bold;font-family:Triumvirate;-inkscape-font-specification:'Triumvirate Bold'"
         id="path33924" />
      <path
         d="m 209.72963,190.40794 q -0.39377,0.23083 -0.84185,0.32588 -0.44808,0.0815 -0.84185,0.19009 -0.38019,0.095 -0.63817,0.29872 -0.25799,0.20368 -0.25799,0.65176 0,0.3123 0.27157,0.54313 0.27156,0.21725 0.76038,0.21725 0.73322,0 1.14057,-0.42093 0.40734,-0.4345 0.40734,-1.24919 z m 0.29872,3.50318 q -0.10862,-0.17652 -0.19009,-0.46166 -0.0679,-0.28514 -0.0815,-0.4345 -0.13578,0.16293 -0.32588,0.36661 -0.19009,0.19009 -0.46166,0.35303 -0.25798,0.16294 -0.61102,0.27156 -0.33945,0.12221 -0.80111,0.12221 -1.08626,0 -1.67012,-0.55671 -0.58386,-0.57028 -0.58386,-1.65654 0,-0.59744 0.17651,-0.97763 0.1901,-0.39377 0.48882,-0.63817 0.3123,-0.25799 0.69249,-0.39377 0.39377,-0.13578 0.80111,-0.20367 0.42093,-0.0815 0.82827,-0.13579 0.40735,-0.0543 0.73322,-0.13578 0.39377,-0.095 0.54313,-0.19009 0.16294,-0.095 0.16294,-0.40735 0,-0.38019 -0.29872,-0.55671 -0.28514,-0.17651 -0.80111,-0.17651 -0.40735,0 -0.65176,0.0951 -0.2444,0.0815 -0.39376,0.21725 -0.13579,0.13578 -0.1901,0.3123 -0.0543,0.17651 -0.0815,0.35303 h -1.76516 q 0,-0.38019 0.10862,-0.81469 0.1222,-0.43451 0.44808,-0.80112 0.32588,-0.36661 0.90974,-0.61102 0.59744,-0.2444 1.57507,-0.2444 1.58865,0 2.28114,0.59744 0.70607,0.58386 0.70607,1.69727 v 3.54391 q 0,0.52955 0.10862,0.77396 0.10863,0.24441 0.29872,0.33945 v 0.35304 z"
         style="font-weight:bold;font-family:Triumvirate;-inkscape-font-specification:'Triumvirate Bold'"
         id="path33926" />
      <path
         d="m 215.51294,188.18112 h -0.97763 v -1.35782 h 0.97763 v -0.71965 q 0,-0.35303 0.0679,-0.70606 0.0815,-0.36662 0.3123,-0.65176 0.23083,-0.29872 0.63817,-0.47523 0.42093,-0.1901 1.09984,-0.1901 0.27156,0 0.48881,0.0136 0.23083,0 0.40735,0.0136 v 1.54791 q -0.095,-0.0136 -0.23083,-0.0136 -0.13578,-0.0136 -0.27157,-0.0136 -0.42092,0 -0.51597,0.14936 -0.095,0.13578 -0.095,0.44808 v 0.59744 h 1.19488 v 1.35782 h -1.19488 v 5.73 h -1.90095 z"
         style="font-weight:bold;font-family:Triumvirate;-inkscape-font-specification:'Triumvirate Bold'"
         id="path33928" />
      <path
         d="m 222.80342,190.36721 q 0,0.39377 0.095,0.78753 0.095,0.38019 0.28515,0.69249 0.20367,0.29872 0.51597,0.48882 0.32587,0.19009 0.77395,0.19009 0.44809,0 0.76038,-0.19009 0.32588,-0.1901 0.51598,-0.48882 0.20367,-0.3123 0.29872,-0.69249 0.095,-0.39376 0.095,-0.78753 0,-0.40735 -0.095,-0.78754 -0.095,-0.39377 -0.29872,-0.69249 -0.1901,-0.3123 -0.51598,-0.48881 -0.31229,-0.1901 -0.76038,-0.1901 -0.44808,0 -0.77395,0.1901 -0.3123,0.17651 -0.51597,0.48881 -0.1901,0.29872 -0.28515,0.69249 -0.095,0.38019 -0.095,0.78754 z m 1.67011,3.76116 q -0.81469,0 -1.48002,-0.25799 -0.66533,-0.25798 -1.15415,-0.73322 -0.47523,-0.48882 -0.73322,-1.1813 -0.25798,-0.70607 -0.25798,-1.58865 0,-0.88259 0.25798,-1.57507 0.25799,-0.70607 0.73322,-1.18131 0.48882,-0.48881 1.15415,-0.7468 0.66533,-0.25798 1.48002,-0.25798 0.8147,0 1.48003,0.25798 0.66533,0.25799 1.14057,0.7468 0.48881,0.47524 0.7468,1.18131 0.25798,0.69248 0.25798,1.57507 0,0.88258 -0.25798,1.58865 -0.25799,0.69248 -0.7468,1.1813 -0.47524,0.47524 -1.14057,0.73322 -0.66533,0.25799 -1.48003,0.25799 z"
         style="font-weight:bold;font-family:Triumvirate;-inkscape-font-specification:'Triumvirate Bold'"
         id="path33930" />
    </g>
    <path
       id="rect7087-6-3-1"
       style="fill:#ffffff;fill-opacity:1;fill-rule:nonzero;stroke:none;stroke-width:0.0498083;stroke-linejoin:miter;stroke-miterlimit:4;stroke-dasharray:none;stroke-opacity:1"
       d="m 164.24522,116.6084 c -2.48344,0 -4.48228,1.9988 -4.48228,4.48225 v 15.93871 c 0,2.48345 1.99884,4.48341 4.48228,4.48341 h 25.20399 c 2.48344,0 4.48221,-1.99996 4.48221,-4.48341 v -15.93871 c 0,-2.48345 -1.99877,-4.48225 -4.48221,-4.48225 z" />
    <path
       id="rect7162-0-4-1-9"
       d="m 164.24528,118.10259 c -1.65555,0 -2.98851,1.33288 -2.98851,2.98852 v 15.93873 c 0,1.65562 1.33296,2.9885 2.98851,2.9885 h 25.2031 c 1.65566,0 2.98856,-1.33288 2.98856,-2.9885 v -15.93873 c 0,-1.65564 -1.3329,-2.98852 -2.98856,-2.98852 z m 12.60157,1.84292 12.20312,1.49426 1.49426,7.6207 -1.49426,7.6207 -12.20312,1.49425 -12.3027,-1.49425 -1.3946,-7.6207 1.3946,-7.6207 z"
       style="fill:#ff0000;fill-opacity:1;fill-rule:nonzero;stroke:none;stroke-width:0.0249043;stroke-linejoin:miter;stroke-miterlimit:4;stroke-dasharray:none;stroke-opacity:1" />
    <path
       id="text30926"
       style="font-style:normal;font-variant:normal;font-weight:bold;font-stretch:normal;font-size:24.3136px;font-family:Triumvirate;-inkscape-font-specification:'Triumvirate Bold';fill:#ff0000;fill-opacity:1;stroke:none;stroke-width:1.20461"
       d="m 169.09154,124.07923 v 1.76387 h 5.01641 c -0.58788,0.72276 -1.09806,1.41709 -1.53172,2.08203 -0.42395,0.65532 -0.78146,1.31492 -1.07064,1.97986 -0.28899,0.65531 -0.51541,1.33013 -0.67927,2.02399 -0.15414,0.68421 -0.25486,1.42187 -0.30304,2.21209 h 2.0809 c 0.0964,-1.4648 0.44841,-2.9249 1.05554,-4.38006 0.60707,-1.45517 1.48871,-2.80911 2.64521,-4.06191 v -1.61987 z m 8.29794,0 v 1.76387 h 5.01642 c -0.58787,0.72276 -1.09913,1.41709 -1.53284,2.08203 -0.42402,0.65532 -0.78038,1.31492 -1.0694,1.97986 -0.28917,0.65531 -0.51557,1.33013 -0.67931,2.02399 -0.15415,0.68421 -0.25608,1.42187 -0.30423,2.21209 h 2.08202 c 0.0964,-1.4648 0.44834,-2.9249 1.05547,-4.38006 0.60721,-1.45517 1.48884,-2.80911 2.64523,-4.06191 v -1.61987 z" />
  </g>
</svg>
