<?xml version="1.0" encoding="UTF-8" standalone="no"?>
<!-- Generator: Adobe Illustrator 13.0.0, SVG Export Plug-In . SVG Version: 6.00 Build 14948)  -->

<svg
   version="1.1"
   id="Layer_1"
   x="0px"
   y="0px"
   width="592.1582"
   height="592.1582"
   viewBox="0 0 592.1582 592.1582"
   enable-background="new 0 0 610 600"
   xml:space="preserve"
   sodipodi:docname="Israel_road_sign_226.svg"
   inkscape:version="1.1.2 (b8e25be833, 2022-02-05)"
   xmlns:inkscape="http://www.inkscape.org/namespaces/inkscape"
   xmlns:sodipodi="http://sodipodi.sourceforge.net/DTD/sodipodi-0.dtd"
   xmlns="http://www.w3.org/2000/svg"
   xmlns:svg="http://www.w3.org/2000/svg"><defs
   id="defs41" /><sodipodi:namedview
   id="namedview39"
   pagecolor="#ffffff"
   bordercolor="#666666"
   borderopacity="1.0"
   inkscape:pageshadow="2"
   inkscape:pageopacity="0.0"
   inkscape:pagecheckerboard="0"
   showgrid="false"
   inkscape:zoom="1"
   inkscape:cx="219.5"
   inkscape:cy="240.5"
   inkscape:window-width="1920"
   inkscape:window-height="1001"
   inkscape:window-x="-9"
   inkscape:window-y="-9"
   inkscape:window-maximized="1"
   inkscape:current-layer="Layer_1"
   inkscape:object-paths="false"
   inkscape:snap-intersection-paths="true"
   inkscape:snap-smooth-nodes="true"
   inkscape:snap-bbox="true"
   inkscape:snap-bbox-edge-midpoints="true"
   inkscape:bbox-nodes="true"
   showguides="true"
   inkscape:guide-bbox="true"
   inkscape:snap-global="false" />
<circle
   fill="#0099BB"
   cx="296.07901"
   cy="296.07901"
   r="296.07901"
   id="circle2"
   style="fill:#070fdb;fill-opacity:1;stroke-width:1.01229" />
<g
   id="g34">
	<g
   id="g24">
		<g
   id="g6">
			<path
   fill="#ffffff"
   d="m 355.545,329.729 c 0.008,-50.328 40.785,-91.109 91.111,-91.119 v 0 10.549 10.548 c -19.371,0.006 -36.809,7.823 -49.512,20.508 v 0 c -12.686,12.703 -20.503,30.143 -20.505,49.51 v 0 c 0.002,19.363 7.817,36.805 20.505,49.506 v 0 c 12.703,12.688 30.141,20.504 49.512,20.508 v 0 c 19.365,-0.008 36.805,-7.82 49.504,-20.508 v 0 c 12.688,-12.701 20.507,-30.143 20.51,-49.506 v 0 c -0.008,-19.367 -7.822,-36.807 -20.51,-49.51 v 0 c -12.699,-12.686 -30.139,-20.506 -49.504,-20.508 v 0 -10.548 -10.549 c 50.324,0.01 91.106,40.791 91.113,91.119 v 0 c -0.007,50.322 -40.789,91.107 -91.113,91.113 v 0 c -50.326,-0.01 -91.103,-40.795 -91.111,-91.113 z"
   id="path4"
   style="display:none" />
		</g>
		<g
   id="g10">
			
		</g>
		<g
   id="g14">
			
		</g>
		<g
   id="g18">
			
		</g>
		<g
   id="g22">
			
		</g>
	</g>
	<g
   id="g30">
		
		
	</g>
	
</g>
<circle
   fill="none"
   stroke="#ffffff"
   stroke-width="7"
   cx="296.08002"
   cy="296.07901"
   r="284.66647"
   id="circle36" />
<path
   d="m 185.29675,150.86494 c -12.46357,0 -21.39884,14.7036 -28.92288,24.64002 l -56.26663,74.30829 c 0,0 -10.970769,11.20467 -14.227245,16.66306 -3.256503,5.4584 -5.31332,16.08769 -5.31332,16.08769 v 66.31128 c 0,12.42506 9.974555,22.43006 22.384795,22.49194 v 47.07175 c 0,8.48834 6.8362,15.31808 15.32467,15.31808 h 20.20314 c 8.48849,0 15.3249,-6.82974 15.3249,-15.31808 v -47.06505 h 287.6702 v 47.06505 c 0,8.48834 6.82966,15.31808 15.31806,15.31808 h 20.21007 c 8.48814,0 15.31793,-6.82974 15.31793,-15.31808 v -47.15873 c 11.54758,-0.97847 20.56459,-10.59563 20.56459,-22.40496 v -58.76943 c 0,0 -0.12624,-11.84717 -1.66633,-17.47951 -1.53251,-5.63234 -13.97291,-18.13542 -13.97291,-18.13542 l -59.92712,-81.84344 c -7.36344,-10.05599 -16.70042,-21.78254 -29.16395,-21.78254 z m 2.08862,14.0197 h 1.90045 214.47283 1.90045 c 3.02382,0 5.93391,1.16458 8.69968,3.01134 1.60985,0.99102 3.06396,2.19785 4.32965,3.58695 5.60623,5.37142 10.4456,12.89151 14.08002,18.32293 l 25.67729,38.36534 c 6.22506,9.30291 6.37534,18.35618 -4.81824,18.35618 h -49.8691 -214.47282 -49.8688 c -11.19367,0 -11.04355,-9.05327 -4.81826,-18.35618 l 25.67726,-38.36534 c 3.63448,-5.43142 8.47383,-12.95151 14.08005,-18.32293 1.26489,-1.38828 2.72085,-2.59527 4.32965,-3.58695 2.76559,-1.84613 5.67587,-3.01134 8.69965,-3.01134 z m -67.26166,113.69769 a 20.325164,20.325164 0 0 1 20.33047,20.33028 20.325164,20.325164 0 0 1 -20.33047,20.32361 20.325164,20.325164 0 0 1 -20.323565,-20.32361 20.325164,20.325164 0 0 1 20.323565,-20.33028 z m 353.94147,0 a 20.325164,20.325164 0 0 1 20.32368,20.33028 20.325164,20.325164 0 0 1 -20.32368,20.32361 20.325164,20.325164 0 0 1 -20.32381,-20.32361 20.325164,20.325164 0 0 1 20.32381,-20.33028 z m -261.24343,9.02756 h 168.49186 c 4.80966,10.31882 10.94152,29.83287 10.94152,29.83287 h -0.0417 c 0.0165,0.0419 0.0836,0.0836 0.0836,0.14643 0,2.98499 -2.40223,5.38708 -5.38715,5.38708 H 208.09303 c -2.98491,0 -5.38714,-2.40209 -5.38714,-5.38708 0,-0.007 0.0419,-0.007 0.0419,-0.012 z M 109.77784,340.1421 h 375.46963 v 23.91074 H 109.77784 Z"
   style="font-size:579.36px;line-height:1.15;font-family:'Highway Gothic Expanded';-inkscape-font-specification:'Highway Gothic Expanded, Normal';text-align:center;text-anchor:middle;opacity:0.999883;fill:#ffffff;fill-opacity:1;fill-rule:evenodd;stroke-width:19.9321;stroke-linecap:square;stroke-opacity:0.757085;paint-order:stroke markers fill"
   id="path863" /></svg>
