<?xml version="1.0" encoding="UTF-8" standalone="no"?>
<svg
   viewBox="0 0 568.125 497.228"
   height="497.228"
   width="568.125"
   xml:space="preserve"
   version="1.1"
   id="svg3522"
   sodipodi:docname="Israel road sign 136.svg"
   inkscape:version="1.1.2 (b8e25be833, 2022-02-05)"
   xmlns:inkscape="http://www.inkscape.org/namespaces/inkscape"
   xmlns:sodipodi="http://sodipodi.sourceforge.net/DTD/sodipodi-0.dtd"
   xmlns="http://www.w3.org/2000/svg"
   xmlns:svg="http://www.w3.org/2000/svg"
   xmlns:rdf="http://www.w3.org/1999/02/22-rdf-syntax-ns#"
   xmlns:cc="http://creativecommons.org/ns#"
   xmlns:dc="http://purl.org/dc/elements/1.1/"><sodipodi:namedview
     id="namedview11"
     pagecolor="#ffffff"
     bordercolor="#666666"
     borderopacity="1.0"
     inkscape:pageshadow="2"
     inkscape:pageopacity="0.0"
     inkscape:pagecheckerboard="true"
     showgrid="false"
     showguides="true"
     inkscape:guide-bbox="true"
     inkscape:snap-intersection-paths="true"
     inkscape:snap-smooth-nodes="true"
     inkscape:snap-bbox="true"
     inkscape:snap-bbox-edge-midpoints="true"
     inkscape:bbox-nodes="true"
     inkscape:zoom="1"
     inkscape:cx="344.5"
     inkscape:cy="294.5"
     inkscape:window-width="1920"
     inkscape:window-height="1001"
     inkscape:window-x="-9"
     inkscape:window-y="-9"
     inkscape:window-maximized="1"
     inkscape:current-layer="svg3522"
     width="568.125px"
     inkscape:snap-global="false" /><metadata
     id="metadata3528"><rdf:RDF><cc:Work
         rdf:about=""><dc:format>image/svg+xml</dc:format><dc:type
           rdf:resource="http://purl.org/dc/dcmitype/StillImage" /></cc:Work></rdf:RDF></metadata><defs
     id="defs3526" /><path
     id="rect2419"
     style="display:inline;fill:#ffffff;fill-opacity:1;stroke-width:1.41526;stroke-linecap:round"
     d="M 284.06233,42.768626 519.25791,454.45937 H 48.866745 Z"
     sodipodi:nodetypes="cccc" /><path
     id="path1287-2"
     style="display:inline;fill:#c0111e;fill-opacity:1;fill-rule:nonzero;stroke:none;stroke-width:0.859147"
     d="M 284.06233,4.5425685e-4 C 277.94091,-0.04336226 271.21873,3.083666 267.92647,8.9396153 L 2.1975383,469.35001 C 0.66396013,472.48418 0.01976039,475.20891 0,478.32676 0,489.21753 8.9379258,497.228 18.874395,497.228 H 549.25027 c 9.93647,0 18.87439,-8.01047 18.87439,-18.90124 -0.0197,-3.11785 -0.66396,-5.84258 -2.19753,-8.97675 L 300.19819,8.9396153 C 296.90594,3.083666 290.18376,-0.04336226 284.06233,4.5425685e-4 Z M 283.78714,91.251306 l 0.27519,0.476559 0.2752,-0.476559 L 487.1272,442.24256 H 80.997471 Z"
     sodipodi:nodetypes="cccccccccccccccc" /><path
     id="path15"
     fill="none"
     stroke="#000000"
     stroke-width="1.28142"
     d="m 366.33566,333.91677 c -6.11239,-0.15377 -11.95568,1.06358 -17.18387,3.37013 l -17.92707,-31.01038 3.35732,-9.34156 c 8.96994,-0.8201 12.16069,-8.96994 12.32727,-10.45639 -0.16658,-1.26859 -1.87088,-1.12764 -1.87088,-1.12764 h -38.46825 c -0.74323,-0.14095 -3.56236,0.57664 -3.74174,3.74174 0.17938,2.89601 3.37013,3.35733 3.37013,3.35733 l 16.79943,3.74175 -4.10056,11.19962 h -81.4471 c 0.93544,-3.71613 1.49926,-5.97143 1.49926,-5.97143 0,0 0.76885,-2.3578 0.74323,-3.37013 0.0256,-4.52342 -3.37015,-7.932 -4.85659,-8.58553 -0.23065,-0.28191 -1.1789,-0.70477 -1.11483,-1.87086 -0.064,-1.39676 0.67915,-2.47316 2.24248,-2.61411 h 17.18386 v -11.21243 h -21.66883 c 0,0 -11.05866,1.0892 -11.21244,12.71169 0.15378,6.5865 3.48548,8.1114 5.98424,9.71318 1.01233,0.49975 1.80681,2.69098 1.48645,4.10055 -0.24348,0.53819 -5.47165,20.14393 -9.71317,36.25139 -4.97191,-1.76837 -10.28981,-2.78069 -15.6846,-2.62692 -24.8083,-0.15377 -44.79846,19.8364 -44.8369,44.46531 0.0385,24.69297 20.0286,44.68315 44.8369,44.83691 24.50077,-0.15376 44.49094,-20.14394 44.45251,-44.83691 0.0385,-14.967 -7.35537,-28.2297 -18.68313,-36.23858 0.48695,-1.89651 0.97388,-3.74175 1.49926,-5.59981 l 51.92317,36.23858 c -0.66634,1.76836 -0.97388,3.66487 -1.11483,5.59981 0.14095,10.35387 8.52145,18.72156 18.68312,18.68311 1.99902,0.0385 3.79301,-0.23065 5.59981,-0.74322 l 2.61409,5.97142 h -4.85657 v 5.98424 h 5.5998 c 0.70478,1.47363 2.17841,2.35781 3.74175,2.24248 1.8068,0.11526 3.28044,-0.76885 4.10053,-2.24248 h 5.24103 v -5.98424 h -7.85511 l -3.72894,-8.21391 c 3.89551,-2.58847 6.84279,-6.70184 7.8423,-11.58405 h 4.48496 c 2.02466,22.78367 21.23314,40.5698 44.45251,40.72356 24.65452,-0.15376 44.64468,-20.14394 44.8369,-44.83691 -0.19222,-24.62891 -20.18238,-44.61908 -44.8369,-44.46531 z m -67.23616,32.88126 c 6.62495,-0.10249 11.87877,5.13849 11.95565,11.58405 -0.0768,6.4968 -5.3307,11.75063 -11.95565,11.58403 -6.31741,0.1666 -11.55842,-5.08723 -11.58405,-11.58403 0.0256,-6.44556 5.26664,-11.68657 11.58405,-11.58405 z m 0.74321,-7.09907 c -0.10248,0.0256 -0.34598,0.0128 -0.74321,0 -1.794,0.0128 -3.67768,0.32035 -5.61263,0.75605 l -2.6141,-5.61264 h 5.22819 v -6.34303 h -5.22819 c -0.94824,-1.20452 -2.42188,-2.08871 -4.10054,-2.24248 -1.69149,0.15377 -3.17793,1.03796 -4.11337,2.24248 h -5.22819 v 6.34303 h 7.8423 l 3.72893,7.85511 c -0.32036,0.28192 -0.74323,0.58946 -1.11484,0.74323 l -55.29332,-38.48107 c 0.66635,-2.12715 1.243,-4.29277 1.87089,-6.35584 h 80.31946 z m 22.04044,14.56976 h -4.48496 c -0.84575,-4.29277 -3.38296,-8.13704 -6.72746,-10.82801 l 15.6974,-43.33765 13.07049,22.78366 c -9.81568,7.35535 -16.415,18.64466 -17.55547,31.382 z m 35.49537,0 h -22.42487 c 1.06357,-7.8295 5.15132,-14.78761 10.84082,-19.79795 z m 8.95714,-27.26864 c 17.41448,-0.12814 31.53576,13.99311 31.38198,31.382 0.15378,17.44013 -13.9675,31.56139 -31.38198,31.38198 -15.96651,0.17941 -29.1267,-11.75061 -31.38201,-27.26863 h 31.01038 c 2.05028,0.064 6.1252,0.064 5.98424,-3.74175 0.14096,-1.52488 -0.75604,-2.61409 -0.75604,-2.61409 l -15.31298,-27.26864 c 3.19074,-1.21735 6.68902,-1.99901 10.45641,-1.87087 z m -132.61425,31.382 c -0.0128,17.44013 -14.12126,31.56139 -31.38201,31.38198 -17.56826,0.17941 -31.68953,-13.94185 -31.7536,-31.38198 0.064,-17.38889 14.18534,-31.51014 31.7536,-31.382 4.24151,-0.12814 8.41895,0.78167 12.32729,2.24249 -1.48645,5.3307 -2.2425,8.59833 -2.2425,8.59833 0,0 -1.72992,8.48301 -11.58404,16.42782 -0.93543,0.48693 -3.12667,1.26859 -2.98571,4.11336 -0.14096,2.60127 1.61459,4.52338 4.48496,4.48497 2.70381,0.0385 15.864,-3.90834 19.42635,-16.81224 0.0256,-0.43568 1.07639,-4.36965 2.61409,-10.08479 5.75359,5.75358 9.32876,13.67277 9.34157,22.41206 z"
     style="fill:#000000;fill-opacity:1;stroke:none"
     sodipodi:nodetypes="scccccccccccccccccccccccccccccccccccccccccccccccsccccccscccccccccccccccccccscccsccccccccccccccccccccccc" /></svg>
