<?xml version="1.0" encoding="UTF-8" standalone="no"?>
<svg
   inkscape:version="1.2.2 (732a01da63, 2022-12-09)"
   sodipodi:docname="Israel_road_sign_613c.svg"
   viewBox="0 0 247.5718 148.551"
   height="148.55101"
   width="247.57181"
   id="svg929"
   version="1.1"
   xmlns:inkscape="http://www.inkscape.org/namespaces/inkscape"
   xmlns:sodipodi="http://sodipodi.sourceforge.net/DTD/sodipodi-0.dtd"
   xmlns="http://www.w3.org/2000/svg"
   xmlns:svg="http://www.w3.org/2000/svg"
   xmlns:rdf="http://www.w3.org/1999/02/22-rdf-syntax-ns#"
   xmlns:cc="http://creativecommons.org/ns#"
   xmlns:dc="http://purl.org/dc/elements/1.1/">
  <metadata
     id="metadata935">
    <rdf:RDF>
      <cc:Work
         rdf:about="">
        <dc:format>image/svg+xml</dc:format>
        <dc:type
           rdf:resource="http://purl.org/dc/dcmitype/StillImage" />
        <dc:title />
      </cc:Work>
    </rdf:RDF>
  </metadata>
  <defs
     id="defs933" />
  <sodipodi:namedview
     inkscape:current-layer="g937"
     inkscape:window-maximized="1"
     inkscape:window-y="-9"
     inkscape:window-x="-9"
     inkscape:cy="46.579595"
     inkscape:cx="271.36288"
     inkscape:zoom="7.825315"
     showgrid="false"
     id="namedview931"
     inkscape:window-height="991"
     inkscape:window-width="1920"
     inkscape:pageshadow="2"
     inkscape:pageopacity="0"
     guidetolerance="10"
     gridtolerance="10"
     objecttolerance="10"
     borderopacity="1"
     bordercolor="#666666"
     pagecolor="#ffffff"
     inkscape:showpageshadow="2"
     inkscape:pagecheckerboard="0"
     inkscape:deskcolor="#d1d1d1" />
  <g
     transform="translate(-56.594781,-280.10116)"
     id="g937"
     inkscape:label="Image"
     inkscape:groupmode="layer">
    <path
       sodipodi:nodetypes="ccccc"
       id="path21578"
       d="M 56.604781,280.11116 V 428.64217 H 304.15659 V 280.11116 Z"
       style="color:#000000;font-style:normal;font-variant:normal;font-weight:normal;font-stretch:normal;font-size:medium;line-height:normal;font-family:sans-serif;font-variant-ligatures:normal;font-variant-position:normal;font-variant-caps:normal;font-variant-numeric:normal;font-variant-alternates:normal;font-variant-east-asian:normal;font-feature-settings:normal;font-variation-settings:normal;text-indent:0;text-align:start;text-decoration:none;text-decoration-line:none;text-decoration-style:solid;text-decoration-color:#000000;letter-spacing:normal;word-spacing:normal;text-transform:none;writing-mode:lr-tb;direction:ltr;text-orientation:mixed;dominant-baseline:auto;baseline-shift:baseline;text-anchor:start;white-space:normal;shape-padding:0;shape-margin:0;inline-size:0;clip-rule:nonzero;display:inline;overflow:visible;visibility:visible;isolation:auto;mix-blend-mode:normal;color-interpolation:sRGB;color-interpolation-filters:linearRGB;solid-color:#000000;solid-opacity:1;fill:#070fdb;fill-opacity:1;fill-rule:nonzero;stroke:none;stroke-width:0.02;stroke-linecap:butt;stroke-linejoin:miter;stroke-miterlimit:4;stroke-dasharray:none;stroke-dashoffset:0;stroke-opacity:1;color-rendering:auto;image-rendering:auto;shape-rendering:auto;text-rendering:auto;enable-background:accumulate;stop-color:#000000" />
    <path
       sodipodi:nodetypes="ssssssssssssssssss"
       id="path21580"
       d="m 64.52586,282.22426 c -3.19151,0 -5.807063,2.61553 -5.807063,5.80712 v 132.69334 c 0,3.19158 2.615553,5.80514 5.807063,5.80512 l 231.70987,-6.6e-4 c 3.1915,0 5.80706,-2.61352 5.80706,-5.8051 V 288.03072 c 0,-3.19157 -2.61566,-5.80716 -5.80706,-5.80712 z m 0,2.52498 231.70987,-6.6e-4 c 1.82701,0 3.28194,1.45485 3.28194,3.28215 v 132.69333 c 0,1.82731 -1.45493,3.28005 -3.28194,3.2801 l -231.70987,6.4e-4 c -1.82724,0 -3.282055,-1.45279 -3.282055,-3.28007 V 288.03138 c 0,-1.82731 1.454815,-3.28214 3.282055,-3.28214 z"
       style="color:#000000;font-style:normal;font-variant:normal;font-weight:normal;font-stretch:normal;font-size:medium;line-height:normal;font-family:sans-serif;font-variant-ligatures:normal;font-variant-position:normal;font-variant-caps:normal;font-variant-numeric:normal;font-variant-alternates:normal;font-variant-east-asian:normal;font-feature-settings:normal;font-variation-settings:normal;text-indent:0;text-align:start;text-decoration:none;text-decoration-line:none;text-decoration-style:solid;text-decoration-color:#000000;letter-spacing:normal;word-spacing:normal;text-transform:none;writing-mode:lr-tb;direction:ltr;text-orientation:mixed;dominant-baseline:auto;baseline-shift:baseline;text-anchor:start;white-space:normal;shape-padding:0;shape-margin:0;inline-size:0;clip-rule:nonzero;display:inline;overflow:visible;visibility:visible;isolation:auto;mix-blend-mode:normal;color-interpolation:sRGB;color-interpolation-filters:linearRGB;solid-color:#000000;solid-opacity:1;vector-effect:none;fill:#ffffff;fill-opacity:1;fill-rule:nonzero;stroke:none;stroke-width:2.52439;stroke-linecap:butt;stroke-linejoin:miter;stroke-miterlimit:4;stroke-dasharray:none;stroke-dashoffset:0;stroke-opacity:1;color-rendering:auto;image-rendering:auto;shape-rendering:auto;text-rendering:auto;enable-background:accumulate;stop-color:#000000" />
    <g
       id="g21590"
       transform="matrix(0.34272397,0,0,0.34272397,217.95088,365.18817)">
      <path
         id="path21582"
         style="opacity:1;fill:#ffffff;fill-opacity:1;fill-rule:nonzero;stroke:none;stroke-width:0.999999;stroke-linejoin:miter;stroke-miterlimit:4;stroke-dasharray:none;stroke-opacity:1"
         d="m 90.5,0.5 c -49.859999,0 -90,40.140001 -90,90 v 320 c 0,49.86002 40.140001,90 90,90 h 506 c 49.86002,0 90,-40.13998 90,-90 v -320 c 0,-49.859999 -40.13998,-90 -90,-90 z"
         transform="scale(0.26458334)" />
      <path
         style="opacity:1;fill:#070fdb;fill-opacity:1;fill-rule:nonzero;stroke:none;stroke-width:0.132292;stroke-linejoin:miter;stroke-miterlimit:4;stroke-dasharray:none;stroke-opacity:1"
         d="m 23.944793,8.0697922 c -8.79475,0 -15.8750008,7.0802508 -15.8750008,15.8750008 v 84.666667 c 0,8.79475 7.0802508,15.875 15.8750008,15.875 H 157.82396 c 8.79475,0 15.875,-7.08025 15.875,-15.875 V 23.944793 c 0,-8.79475 -7.08025,-15.8750008 -15.875,-15.8750008 z m 66.939585,9.7895838 64.822922,7.9375 7.9375,40.481251 -7.9375,40.481253 -64.822922,7.9375 -65.352085,-7.9375 -7.408334,-40.481253 7.408334,-40.481251 z"
         id="path21584" />
      <g
         id="g21588"
         style="font-style:normal;font-variant:normal;font-weight:bold;font-stretch:normal;font-size:74.7402px;line-height:125%;font-family:Helvetica;-inkscape-font-specification:'Helvetica Bold';text-align:center;letter-spacing:0px;word-spacing:0px;writing-mode:lr-tb;text-anchor:middle;fill:#0000fe;fill-opacity:1;stroke:none;stroke-width:0.264583px;stroke-linecap:butt;stroke-linejoin:miter;stroke-opacity:1"
         aria-label="2">
        <path
           id="path21586"
           style="font-style:normal;font-variant:normal;font-weight:bold;font-stretch:normal;font-family:Helvetica;-inkscape-font-specification:'Helvetica Bold';fill:#070fdb;fill-opacity:1;stroke-width:0.264583px"
           d="m 72.637232,92.736465 q 0.145977,-5.693103 2.445115,-10.400862 2.226149,-5.291667 10.510345,-11.203737 7.189369,-5.14569 9.306035,-7.371839 3.247989,-3.466954 3.247989,-7.590805 0,-3.357472 -1.861207,-5.583621 -1.861207,-2.22615 -5.328161,-2.22615 -4.744253,0 -6.459483,3.539943 -0.985345,2.043678 -1.167816,6.495977 H 73.22114 q 0.25546,-6.751437 2.445115,-10.911782 4.160345,-7.919253 14.780173,-7.919253 8.393679,0 13.356902,4.671264 4.96321,4.634771 4.96321,12.298564 0,5.875575 -3.50344,10.437357 -2.29914,3.029024 -7.554315,6.751438 l -4.160345,2.956034 q -3.904885,2.773564 -5.364656,4.014368 -1.423275,1.240805 -2.40862,2.883046 h 23.100866 v 9.160058 z" />
      </g>
    </g>
    <path
       sodipodi:nodetypes="cccccccscccccccccccccccccc"
       d="m 278.30113,297.62952 c 0,6.6e-4 -0.0861,0.004 -0.11506,0.01 0,-6.6e-4 0,-6.6e-4 0,-0.003 l -0.0861,0.004 -0.0109,6.5e-4 -29.67381,4.20815 v 6.4e-4 c -0.7164,0.0634 -1.26294,0.66448 -1.26294,1.38305 0,0.49102 0.259,0.94552 0.68459,1.1952 l 11.12533,7.47557 -26.73747,24.58394 4.41413,4.41231 4.41969,4.41545 24.55264,-26.76719 7.46171,11.15141 0.11516,0.11214 c 0.25889,0.35411 0.67021,0.56294 1.11324,0.56294 0.71618,-6e-5 1.30881,-0.54252 1.37505,-1.25217 l 4.17617,-29.82099 c 0,-0.0173 0,-0.0374 0,-0.0547 v -0.008 c 0,-6.5e-4 0,-0.003 0,-0.003 0,-0.0948 0,-0.19258 0,-0.29025 -0.11517,-0.79221 -0.80836,-1.35197 -1.59069,-1.31746 v 0 z"
       style="font-size:19.2882px;line-height:109.02%;font-family:'Heb Tamrurim';-inkscape-font-specification:'Heb Tamrurim';text-align:center;letter-spacing:1.09802px;text-anchor:middle;fill:#ffffff;fill-opacity:1;stroke-width:0.902151"
       id="path21592" />
    <g
       id="g21598"
       style="fill:#ffffff;fill-opacity:1"
       transform="matrix(0.71240963,0,0,0.71240963,-114.58977,-7.7151348)">
      <g
         style="fill:#ffffff"
         transform="translate(276.84,463.43997)"
         id="g21596">
        <path
           style="fill:#ffffff;stroke:none"
           d="M 2.609375,-25.6875 2.625,-20.578125 h 10.109375 l -0.01563,15.40625 H 1.875 V 0 h 18.015625 v -5.171875 h -2.0625 V -25.6875 Z m 0,0"
           id="path21594" />
      </g>
    </g>
    <g
       id="g21604"
       style="fill:#ffffff;fill-opacity:1"
       transform="matrix(0.71240963,0,0,0.71240963,-111.53533,-7.7151348)">
      <g
         style="fill:#ffffff"
         transform="translate(298.61475,463.43997)"
         id="g21602">
        <path
           style="fill:#ffffff;stroke:none"
           d="m 1.90625,-25.6875 -0.03125,5.15625 3.890625,-0.01563 v 7.78125 l 5.125,0.03125 0.01563,-12.953125 z m 0,0"
           id="path21600" />
      </g>
    </g>
    <g
       id="g21610"
       style="fill:#ffffff;fill-opacity:1"
       transform="matrix(0.71240963,0,0,0.71240963,-108.47457,-7.7151348)">
      <g
         style="fill:#ffffff"
         transform="translate(311.39615,463.43997)"
         id="g21608">
        <path
           style="fill:#ffffff;stroke:none"
           d="M 2.609375,-25.6875 2.625,-20.578125 h 10.109375 l -0.01563,15.40625 H 1.875 V 0 h 18.015625 v -5.171875 h -2.0625 V -25.6875 Z m 0,0"
           id="path21606" />
      </g>
    </g>
    <g
       id="g21616"
       style="fill:#ffffff;fill-opacity:1"
       transform="matrix(0.71240963,0,0,0.71240963,-105.42003,-7.7151348)">
      <g
         style="fill:#ffffff"
         transform="translate(333.1709,463.43997)"
         id="g21614">
        <path
           style="fill:#ffffff;stroke:none"
           d="m 1.875,-25.6875 5.359375,9 L 2.125,-12.921875 2.109375,0.015625 7.25,-0.015625 v -10.21875 L 9.859375,-12.25 17.078125,0 h 5.953125 l -5.3125,-8.984375 4.9375,-3.828125 0.01563,-12.859375 -5.09375,-0.01563 v 10.265625 l -2.515625,1.953125 -7.25,-12.234375 z m 0,0"
           id="path21612" />
      </g>
    </g>
    <g
       id="g21622"
       style="fill:#ffffff;fill-opacity:1"
       transform="matrix(0.71240963,0,0,0.71240963,-114.58977,-7.7151348)">
      <g
         style="fill:#ffffff"
         transform="translate(372.16104,463.43997)"
         id="g21620">
        <path
           style="fill:#ffffff;stroke:none"
           d="m 23.940301,-30.796875 v 10.265625 l 11.562499,0.01563 v 10.98437 c -0.02344,0.5 -0.117187,0.992187 -0.28125,1.46875 -1.230469,2.699219 -3.28125,3.695312 -6.15625,2.984375 L 29.049675,0.0625 c 0.613281,0.113281 1.226563,0.171875 1.84375,0.171875 5.957031,-0.570313 9.207031,-3.835938 9.75,-9.796875 l -0.01563,-16.078125 -11.453125,0.01563 -0.01563,-5.15625 z m 0,0"
           id="path21618" />
      </g>
    </g>
    <g
       id="g21628"
       style="fill:#ffffff;fill-opacity:1"
       transform="matrix(0.71240963,0,0,0.71240963,-98.870303,-7.7151348)">
      <g
         style="fill:#ffffff"
         transform="translate(392.61877,463.43997)"
         id="g21626">
        <path
           style="fill:#ffffff;stroke:none"
           d="m 2.40625,-25.703125 v 5.1875 h 1.3125 L 3.734375,-5.125 1.890625,-5.140625 1.875,0.015625 8.890625,0.03125 V -20.515625 H 14.71875 V 0 l 5.140625,0.015625 0.01563,-25.6875 z m 0,0"
           id="path21624" />
      </g>
    </g>
    <g
       id="g21634"
       style="fill:#ffffff;fill-opacity:1"
       transform="matrix(0.71240963,0,0,0.71240963,-111.06278,-11.758742)">
      <g
         style="fill:#ffffff"
         transform="translate(289.41864,521.16003)"
         id="g21632">
        <path
           transform="matrix(2.4754287,0,0,2.4754287,-260.75124,-655.15919)"
           d="m 128.83398,257.48242 -1.21875,1.7793 0.65625,1.98242 h -3.3125 l -0.004,0.0215 v -0.0215 h -0.39649 c -0.31244,0 -0.53579,-0.0536 -0.66992,-0.16406 -0.13571,-0.10888 -0.22572,-0.30926 -0.27148,-0.59961 l -0.54883,-2.8418 -1.36328,1.99024 0.32812,1.61523 h -3.25781 l -0.002,0.0723 v -0.0723 h -0.39649 c -0.32033,0 -0.54638,-0.0525 -0.67578,-0.1582 -0.12624,-0.10415 -0.21513,-0.30565 -0.26562,-0.60547 l -0.55469,-2.8418 -1.35742,1.99024 0.32812,1.61523 h -7.02539 c -0.56493,0 -0.96522,-0.0889 -1.20508,-0.26562 -0.23985,-0.17674 -0.35937,-0.46825 -0.35937,-0.87696 0,-0.22723 0.0425,-0.44367 0.13086,-0.65039 0.0915,-0.20514 0.22373,-0.39478 0.39258,-0.56836 h -0.63086 c -0.40082,0.3377 -0.69924,0.725 -0.89649,1.16211 -0.19883,0.43395 -0.29687,0.91893 -0.29687,1.45703 0,0.97679 0.26201,1.74833 0.78906,2.31641 0.52548,0.56493 1.25527,0.8457 2.18945,0.8457 h 5.33399 c 0.3945,0 0.66612,-0.0467 0.81445,-0.14453 0.14676,-0.0963 0.29195,-0.30354 0.43555,-0.61914 l 0.625,-1.34961 h 0.1582 c 0.0915,0.61542 0.3214,1.12225 0.6875,1.52149 0.36926,0.39608 0.77691,0.59179 1.21875,0.59179 h 0.56055 v -0.0996 l 0.002,0.0996 h 1.67383 c 0.3945,0 0.66612,-0.0456 0.81445,-0.13867 0.14676,-0.0963 0.29308,-0.30466 0.44141,-0.625 l 0.61133,-1.34961 h 0.17187 c 0.0884,0.61542 0.31667,1.12225 0.6875,1.52149 0.36926,0.39608 0.77803,0.59179 1.22461,0.59179 h 0.55469 v -0.0273 l 0.004,0.0273 h 3.36329 c 0.18936,0 0.34949,-0.0456 0.48046,-0.13867 0.1294,-0.0915 0.23706,-0.23251 0.32227,-0.42187 l 0.95898,-2.3418 c 0.0331,-0.071 0.0577,-0.14113 0.0703,-0.20899 0.0158,-0.0663 0.0234,-0.14022 0.0234,-0.2207 0,-0.0158 -0.008,-0.0533 -0.0234,-0.11328 -0.0174,-0.0631 -0.0392,-0.13054 -0.0645,-0.20313 z m -17.06054,8.27539 -1.12305,1.61524 1.71094,1.17968 1.10351,-1.5957 z m 8.29101,0 -0.96093,1.4375 1.54687,1.0293 0.95899,-1.4082 z m 2.78907,0 -0.96485,1.4375 1.53906,1.0293 0.97266,-1.4082 z m 4.93945,0 -1.10547,1.61524 1.69141,1.17968 1.13086,-1.5957 z"
           style="fill:#ffffff;stroke:none;stroke-width:0.40397"
           id="path21630" />
      </g>
    </g>
    <g
       id="g21640"
       style="fill:#ffffff;fill-opacity:1"
       transform="matrix(0.71240963,0,0,0.71240963,-111.06278,-11.758742)">
      <g
         style="fill:#ffffff"
         transform="translate(352.3967,521.16003)"
         id="g21638">
        <path
           style="fill:#ffffff;stroke:none"
           d="M 8.328125,-28.65625 V -7.734375 L 5.03125,0 h -1.25 V -25.3125 Z M 5.78125,-35.796875 c 0.5,0.03125 0.957031,0.105469 1.375,0.21875 0.414063,0.105469 0.804688,0.261719 1.171875,0.46875 V -34.5 h -0.71875 c -0.417969,0 -0.804687,0.109375 -1.15625,0.328125 -0.34375,0.21875 -0.75,0.625 -1.21875,1.21875 l 1.9375,1.03125 2.875,-0.78125 -0.8125,1.984375 -6.953125,1.625 V -30.125 L 4.5,-31.15625 3.4375,-32.921875 c 0.238281,-0.875 0.539063,-1.535156 0.90625,-1.984375 0.375,-0.457031 0.851563,-0.753906 1.4375,-0.890625 z m 0,0"
           id="path21636" />
      </g>
    </g>
    <g
       id="g21646"
       style="fill:#ffffff;fill-opacity:1"
       transform="matrix(0.71240963,0,0,0.71240963,-111.06278,-11.758742)">
      <g
         style="fill:#ffffff"
         transform="translate(375.94748,521.16003)"
         id="g21644">
        <path
           transform="matrix(2.4754287,0,0,2.4754287,-347.28008,-655.15919)"
           d="m 150.21875,253.08789 -1.85547,1.35156 v 12.04297 c -0.67381,0.30298 -1.26757,0.51829 -1.78516,0.64453 -0.51443,0.1294 -1.03311,0.19532 -1.55859,0.19532 -1.02728,0 -1.81151,-0.27162 -2.34961,-0.81446 -0.53494,-0.54283 -0.80078,-1.33201 -0.80078,-2.36719 0,-0.18936 0.013,-0.38815 0.043,-0.5996 0.0331,-0.21461 0.0834,-0.45785 0.14648,-0.73243 h -0.49804 c -0.2367,0.52706 -0.41448,1.03501 -0.53125,1.52735 -0.11835,0.49234 -0.17578,0.98617 -0.17578,1.47851 0,1.35867 0.34894,2.46196 1.05273,3.3125 0.70695,0.85371 1.63058,1.28125 2.77148,1.28125 1.51489,0 2.77028,-0.64781 3.76758,-1.94336 1.00046,-1.29712 1.50391,-2.96436 1.50391,-5 v -0.32812 h 0.16406 c 0.0963,0.51443 0.26022,0.8937 0.49219,1.13672 0.23039,0.24459 0.54337,0.37484 0.93945,0.39062 v -0.0703 l 0.01,0.0703 h 4.18554 c 0.18937,0 0.34755,-0.0456 0.47852,-0.13867 0.1294,-0.0915 0.23593,-0.23251 0.31641,-0.42187 l 0.97265,-2.35547 c 0.0284,-0.0663 0.0499,-0.13332 0.0625,-0.20117 0.0158,-0.071 0.0254,-0.14226 0.0254,-0.21485 0,-0.0205 -0.01,-0.0592 -0.0254,-0.11914 -0.0126,-0.0584 -0.0341,-0.12468 -0.0625,-0.19727 l -1.26367,-3.5332 -1.21875,1.7793 0.6582,1.98242 h -4.1289 l -0.004,0.0254 v -0.0254 h -0.58594 c -0.31244,0 -0.51394,-0.0375 -0.60546,-0.11328 -0.0931,-0.0757 -0.14063,-0.32169 -0.14063,-0.73828 z m 2.8125,1.04297 -0.9707,1.4375 1.54492,1.04297 0.9668,-1.43945 z m 2.77734,0 -0.95898,1.4375 1.54687,1.04297 0.95899,-1.43945 z"
           style="fill:#ffffff;stroke:none;stroke-width:0.40397"
           id="path21642" />
      </g>
    </g>
    <path
       id="path21648"
       d="m 90.47164,388.56331 h -5.73297 v -3.45118 h 15.39575 v 3.45118 h -5.73493 v 15.66054 h -3.92785 z m 20.91669,7.06131 c -0.037,-0.32002 -0.10569,-0.63773 -0.21193,-0.95546 -0.10787,-0.32002 -0.26716,-0.60322 -0.47844,-0.84956 -0.21192,-0.24864 -0.48116,-0.45131 -0.81043,-0.61244 -0.32677,-0.15892 -0.72991,-0.23716 -1.2065,-0.23716 -0.46035,0 -0.8587,0.0691 -1.19484,0.21191 -0.33614,0.14036 -0.6191,0.33155 -0.84966,0.57098 -0.23012,0.23939 -0.40772,0.518 -0.52932,0.83577 -0.12421,0.31768 -0.20495,0.66306 -0.2396,1.03601 z m 3.76899,4.45732 c -0.15865,0.4789 -0.38888,0.98773 -0.69069,1.52648 -0.2992,0.54106 -0.70213,1.03603 -1.20639,1.4873 -0.50437,0.45127 -1.12359,0.82195 -1.85808,1.11432 -0.73449,0.29243 -1.60692,0.43745 -2.61544,0.43745 -2.08819,0 -3.73445,-0.62623 -4.93615,-1.88332 -1.20422,-1.25709 -1.80501,-3.03451 -1.80501,-5.33452 0,-1.23866 0.16311,-2.3231 0.49042,-3.25323 0.32677,-0.92784 0.78744,-1.70604 1.3792,-2.33457 0.59393,-0.62857 1.30086,-1.10283 2.12502,-1.42056 0.82187,-0.31768 1.73833,-0.47889 2.74663,-0.47889 1.13284,0 2.10672,0.20027 2.91944,0.59863 0.81501,0.39829 1.47813,0.96469 1.99154,1.69911 0.51364,0.73447 0.89336,1.61395 1.142,2.6408 0.24657,1.02684 0.37068,2.15729 0.37068,3.39593 h -9.44879 c 0.012,0.46052 0.0828,0.89562 0.1982,1.30083 0.11484,0.4075 0.29222,0.76209 0.53193,1.06372 0.23949,0.29923 0.55689,0.53872 0.95535,0.71601 0.39836,0.17725 0.89793,0.26473 1.49895,0.26473 0.40772,0 0.74822,-0.0483 1.02225,-0.14507 0.27403,-0.099 0.50426,-0.22105 0.69069,-0.37293 0.18435,-0.14976 0.3406,-0.31768 0.46536,-0.50422 0.12181,-0.18418 0.22772,-0.35684 0.3174,-0.51803 z m 2.947,-14.96981 h 3.71604 v 19.11172 h -3.71604 z m 21.71111,11.83863 h 4.83035 l -2.38761,-7.32605 h -0.0501 z m 0.2397,-11.83863 h 4.40662 l 6.79412,19.11172 h -4.19251 l -1.35382,-4.03365 h -6.95526 l -1.30086,4.03365 h -4.19262 z m 12.1563,5.25625 h 4.0889 l 2.89176,10.40425 h 0.0512 l 2.89416,-10.40425 h 4.0866 l -5.09523,13.85547 h -3.92774 z m 16.05888,-5.25625 h 3.71592 v 3.45118 h -3.71592 z m 0,5.25625 h 3.71592 v 13.85547 h -3.71592 z m 5.91929,0 h 4.089 l 2.89176,10.40425 h 0.0501 l 2.89405,-10.40425 h 4.08672 l -5.09513,13.85547 h -3.92785 z"
       style="fill:#ffffff;fill-opacity:1;fill-rule:nonzero;stroke:none;stroke-width:0.589398"
       sodipodi:nodetypes="cccccccccccccscccccccssscscccscccccccsscccccccccccccccccccccccccccccccccccccccccccccccccccc" />
  </g>
</svg>
