<?xml version="1.0" encoding="UTF-8" standalone="no"?>
<svg
   xmlns:dc="http://purl.org/dc/elements/1.1/"
   xmlns:cc="http://creativecommons.org/ns#"
   xmlns:rdf="http://www.w3.org/1999/02/22-rdf-syntax-ns#"
   xmlns:svg="http://www.w3.org/2000/svg"
   xmlns="http://www.w3.org/2000/svg"
   xmlns:sodipodi="http://sodipodi.sourceforge.net/DTD/sodipodi-0.dtd"
   xmlns:inkscape="http://www.inkscape.org/namespaces/inkscape"
   viewBox="0 0 568.12463 497.228"
   height="497.228"
   width="568.12463"
   xml:space="preserve"
   version="1.1"
   id="svg3522"
   sodipodi:docname="Israel_road_sign_151.svg"
   inkscape:version="1.0 (4035a4fb49, 2020-05-01)"><sodipodi:namedview
     id="namedview11"
     pagecolor="#ffffff"
     bordercolor="#666666"
     borderopacity="1.0"
     inkscape:pageshadow="2"
     inkscape:pageopacity="0.0"
     inkscape:pagecheckerboard="true"
     showgrid="false"
     showguides="true"
     inkscape:guide-bbox="true"
     inkscape:snap-intersection-paths="true"
     inkscape:snap-smooth-nodes="true"
     inkscape:snap-bbox="true"
     inkscape:snap-bbox-edge-midpoints="true"
     inkscape:bbox-nodes="true"
     inkscape:zoom="0.3535534"
     inkscape:cx="459.07782"
     inkscape:cy="682.23429"
     inkscape:window-width="1920"
     inkscape:window-height="1001"
     inkscape:window-x="-9"
     inkscape:window-y="-9"
     inkscape:window-maximized="1"
     inkscape:current-layer="g7054"
     width="568.125px"
     inkscape:snap-global="true"
     inkscape:object-paths="false"
     inkscape:document-rotation="0" /><metadata
     id="metadata3528"><rdf:RDF><cc:Work
         rdf:about=""><dc:format>image/svg+xml</dc:format><dc:type
           rdf:resource="http://purl.org/dc/dcmitype/StillImage" /><dc:title /></cc:Work></rdf:RDF></metadata><defs
     id="defs3526" /><g
     id="g7054"
     transform="matrix(-1,0,0,1,568.12466,0)"><g
       transform="matrix(-1,0,0,1,568.12466,0)"
       id="g2186"><g
         id="g901"
         transform="matrix(-1,0,0,1,568.12466,0)"><g
           transform="matrix(-1,0,0,1,568.12466,0)"
           id="g5565"><path
             id="rect2419"
             style="display:inline;fill:#ffffff;fill-opacity:1;stroke-width:1.41526;stroke-linecap:round"
             d="M 284.06233,42.768626 519.25791,454.45937 H 48.866745 Z"
             sodipodi:nodetypes="cccc" /><path
             id="path1287-2"
             style="display:inline;fill:#c0111e;fill-opacity:1;fill-rule:nonzero;stroke:none;stroke-width:0.859147"
             d="M 284.06233,4.5425685e-4 C 277.94091,-0.04336226 271.21873,3.083666 267.92647,8.9396153 L 2.1975383,469.35001 C 0.66396013,472.48418 0.01976039,475.20891 0,478.32676 0,489.21753 8.9379258,497.228 18.874395,497.228 H 549.25027 c 9.93647,0 18.87439,-8.01047 18.87439,-18.90124 -0.0197,-3.11785 -0.66396,-5.84258 -2.19753,-8.97675 L 300.19819,8.9396153 C 296.90594,3.083666 290.18376,-0.04336226 284.06233,4.5425685e-4 Z m 0,90.77454274315 L 487.1272,442.24256 H 80.997471 Z"
             sodipodi:nodetypes="cccccccccccccc" /></g></g><path
         sodipodi:nodetypes="cccsccscccccsscsccc"
         d="m 246.59525,198.64271 24.03891,23.7747 v 3.56683 74.7068 c 0,5.43801 4.64098,11.4872 9.81574,9.81572 l 59.05848,-19.07901 c 21.8414,-7.70585 57.61735,11.64031 57.61735,42.7016 v 93.63368 l -24.08296,-24.59536 -24.08295,24.59536 v -1.17291 -71.64039 -3.06641 c 0,-5.43801 -4.64098,-11.4872 -9.81574,-9.81572 l -54.27071,17.52979 c -15.17622,5.87599 -31.54078,2.01481 -43.79446,-6.18085 -10.11734,-6.76679 -15.94082,-17.12603 -18.52258,-31.46879 v -99.53034 z"
         style="color:#000000;font-style:normal;font-variant:normal;font-weight:normal;font-stretch:normal;font-size:medium;line-height:normal;font-family:sans-serif;font-variant-ligatures:normal;font-variant-position:normal;font-variant-caps:normal;font-variant-numeric:normal;font-variant-alternates:normal;font-variant-east-asian:normal;font-feature-settings:normal;font-variation-settings:normal;text-indent:0;text-align:start;text-decoration:none;text-decoration-line:none;text-decoration-style:solid;text-decoration-color:#000000;letter-spacing:normal;word-spacing:normal;text-transform:none;writing-mode:lr-tb;direction:ltr;text-orientation:mixed;dominant-baseline:auto;baseline-shift:baseline;text-anchor:start;white-space:normal;shape-padding:0;shape-margin:0;inline-size:0;clip-rule:nonzero;display:inline;overflow:visible;visibility:visible;opacity:1;isolation:auto;mix-blend-mode:normal;color-interpolation:sRGB;color-interpolation-filters:linearRGB;solid-color:#000000;solid-opacity:1;vector-effect:none;fill:#000000;fill-opacity:1;fill-rule:nonzero;stroke:none;stroke-width:48.1659;stroke-linecap:round;stroke-linejoin:round;stroke-miterlimit:4;stroke-dasharray:none;stroke-dashoffset:0;stroke-opacity:1;color-rendering:auto;image-rendering:auto;shape-rendering:auto;text-rendering:auto;enable-background:accumulate;stop-color:#000000;stop-opacity:1"
         id="path2137" /></g></g></svg>
