<?xml version="1.0" encoding="UTF-8" standalone="no"?>
<!-- Created with Inkscape (http://www.inkscape.org/) -->

<svg
   version="1.1"
   id="svg61287"
   width="450.09982"
   height="331.80963"
   viewBox="0 0 450.09982 331.80963"
   sodipodi:docname="611.svg"
   xml:space="preserve"
   inkscape:version="1.2.2 (732a01da63, 2022-12-09)"
   xmlns:inkscape="http://www.inkscape.org/namespaces/inkscape"
   xmlns:sodipodi="http://sodipodi.sourceforge.net/DTD/sodipodi-0.dtd"
   xmlns="http://www.w3.org/2000/svg"
   xmlns:svg="http://www.w3.org/2000/svg"><defs
     id="defs61291" /><sodipodi:namedview
     id="namedview61289"
     pagecolor="#ffffff"
     bordercolor="#000000"
     borderopacity="0.25"
     inkscape:showpageshadow="2"
     inkscape:pageopacity="0.0"
     inkscape:pagecheckerboard="0"
     inkscape:deskcolor="#d1d1d1"
     showgrid="false"
     inkscape:zoom="2.68"
     inkscape:cx="358.39552"
     inkscape:cy="109.88806"
     inkscape:window-width="1920"
     inkscape:window-height="991"
     inkscape:window-x="-9"
     inkscape:window-y="-9"
     inkscape:window-maximized="1"
     inkscape:current-layer="g61293" /><g
     inkscape:groupmode="layer"
     inkscape:label="Image"
     id="g61293"
     transform="translate(-4.2557624,-59.290536)"><g
       id="g61436"
       transform="matrix(1.1761398,0,0,1.1761398,4.3056689,59.340442)"><rect
         style="opacity:1;fill:#ffffff;fill-opacity:1;fill-rule:nonzero;stroke:#000000;stroke-width:0.26442435;stroke-linejoin:miter;stroke-miterlimit:4;stroke-dasharray:none;stroke-opacity:1"
         id="rect7087"
         width="181.50415"
         height="132.29167"
         x="0.13229166"
         y="0.13229197"
         rx="23.8125"
         ry="23.8125" /><path
         style="opacity:1;fill:#070fdb;fill-opacity:1;fill-rule:nonzero;stroke:none;stroke-width:0.132292;stroke-linejoin:miter;stroke-miterlimit:4;stroke-dasharray:none;stroke-opacity:1"
         d="m 23.944793,8.0697922 c -8.79475,0 -15.8750008,7.0802508 -15.8750008,15.8750008 v 84.666667 c 0,8.79475 7.0802508,15.875 15.8750008,15.875 H 157.82396 c 8.79475,0 15.875,-7.08025 15.875,-15.875 V 23.944793 c 0,-8.79475 -7.08025,-15.8750008 -15.875,-15.8750008 z m 66.939585,9.7895838 64.822922,7.9375 7.9375,40.481251 -7.9375,40.481253 -64.822922,7.9375 -65.352085,-7.9375 -7.408334,-40.481253 7.408334,-40.481251 z"
         id="rect7162" /><g
         id="text7197"
         style="font-style:normal;font-variant:normal;font-weight:bold;font-stretch:normal;font-size:74.7402px;line-height:125%;font-family:Helvetica;-inkscape-font-specification:'Helvetica Bold';text-align:center;letter-spacing:0px;word-spacing:0px;writing-mode:lr-tb;text-anchor:middle;fill:#0000fe;fill-opacity:1;stroke:none;stroke-width:0.264583px;stroke-linecap:butt;stroke-linejoin:miter;stroke-opacity:1"
         aria-label="5"><path
           id="path968"
           style="font-style:normal;font-variant:normal;font-weight:bold;font-stretch:normal;font-family:Helvetica;-inkscape-font-specification:'Helvetica Bold';fill:#070fdb;fill-opacity:1;stroke-width:0.264583px"
           d="m 82.636658,78.576694 q 0.620402,3.393966 2.372126,5.255173 1.751725,1.824713 5.109196,1.824713 3.868391,0 5.875575,-2.700575 2.043678,-2.737069 2.043678,-6.86092 0,-4.050862 -1.897701,-6.824426 -1.897701,-2.810057 -5.912069,-2.810057 -1.897701,0 -3.284483,0.474425 -2.445115,0.875862 -3.68592,3.247989 l -9.342529,-0.437931 3.722414,-29.231899 h 29.158905 v 8.83161 H 85.154761 L 83.25706,60.913475 q 2.408621,-1.569253 3.758908,-2.080173 2.262644,-0.839367 5.510633,-0.839367 6.568966,0 11.459199,4.415804 4.89023,4.415805 4.89023,12.845978 0,7.335346 -4.70776,13.101438 -4.707761,5.766092 -14.086784,5.766092 -7.554311,0 -12.408047,-4.050862 -4.853736,-4.050862 -5.40115,-11.495691 z" /></g></g><g
       transform="matrix(1.1761398,0,0,1.1761398,-26.869809,205.83232)"
       id="layer1"><rect
         ry="23.8125"
         rx="23.8125"
         y="25.055563"
         x="26.638903"
         height="132.29167"
         width="181.50415"
         id="rect7087-6"
         style="opacity:1;fill:#ffffff;fill-opacity:1;fill-rule:nonzero;stroke:#000000;stroke-width:0.264583;stroke-linejoin:miter;stroke-miterlimit:4;stroke-dasharray:none;stroke-opacity:1" /><path
         id="rect7162-0"
         transform="matrix(0.26458334,0,0,0.26458334,26.638903,25.055563)"
         d="M 90,30 C 56.760001,30 30,56.760001 30,90 v 320 c 0,33.24 26.760001,60 60,60 h 506 c 33.24,0 60,-26.76 60,-60 V 90 C 656,56.760001 629.24,30 596,30 Z M 343,67 588,97 618,250 588,403 343,433 96,403 68,250 96,97 Z"
         style="opacity:1;fill:#ff0000;fill-opacity:1;fill-rule:nonzero;stroke:none;stroke-width:0.5;stroke-linejoin:miter;stroke-miterlimit:4;stroke-dasharray:none;stroke-opacity:1" /><g
         id="text7197-7"
         style="font-style:normal;font-variant:normal;font-weight:bold;font-stretch:normal;font-size:76.0297px;line-height:125%;font-family:Helvetica;-inkscape-font-specification:'Helvetica Bold';text-align:center;letter-spacing:0px;word-spacing:0px;writing-mode:lr-tb;text-anchor:middle;fill:#ff0000;fill-opacity:1;stroke:none;stroke-width:0.264583px;stroke-linecap:butt;stroke-linejoin:miter;stroke-opacity:1"
         aria-label="75"><path
           id="path4019"
           style="font-style:normal;font-variant:normal;font-weight:bold;font-stretch:normal;font-family:Triumvirate;-inkscape-font-specification:'Triumvirate Bold';letter-spacing:3.56264px;fill:#ff0000;fill-opacity:1;stroke-width:0.264583px"
           d="m 83.668866,117.65974 q 0.380148,-6.23444 1.596623,-11.63255 1.292505,-5.47414 3.573396,-10.644156 2.280891,-5.246049 5.626198,-10.416069 3.421337,-5.246049 8.059147,-10.948277 H 76.141925 v -9.275623 h 37.938825 v 8.515326 q -9.12357,9.883861 -13.91344,21.364346 -4.789871,11.480483 -5.550168,23.037003 z" /><path
           id="path4021"
           style="font-style:normal;font-variant:normal;font-weight:bold;font-stretch:normal;font-family:Triumvirate;-inkscape-font-specification:'Triumvirate Bold';letter-spacing:3.56264px;fill:#ff0000;fill-opacity:1;stroke-width:0.264583px"
           d="m 133.62625,85.271084 q 1.97677,-1.292505 4.10561,-2.128832 2.12883,-0.912356 5.55016,-0.912356 3.64943,0 6.61459,1.216475 3.04119,1.216475 5.17002,3.497366 2.20486,2.280891 3.34531,5.474139 1.21647,3.193247 1.21647,7.146792 0,4.257662 -1.36853,7.831062 -1.29251,3.49736 -3.80149,6.08237 -2.43295,2.50898 -5.93032,3.95355 -3.49736,1.44456 -7.83106,1.44456 -4.94193,0 -8.28723,-1.52059 -3.26928,-1.5206 -5.39811,-3.80149 -2.0528,-2.35692 -3.11722,-5.09399 -0.98839,-2.73707 -1.2925,-5.24605 l 10.34004,-0.60823 q 0.15205,1.2925 0.60823,2.66104 0.45618,1.2925 1.36854,2.35692 0.91235,0.98838 2.28089,1.67265 1.44456,0.60824 3.64942,0.60824 1.5206,0 2.88913,-0.53221 1.44457,-0.60824 2.50898,-1.82471 1.14045,-1.21648 1.74869,-3.04119 0.68426,-1.82471 0.68426,-4.25766 0,-4.409728 -2.28089,-6.690619 -2.20486,-2.35692 -5.55017,-2.35692 -2.88912,0 -4.56178,1.216475 -1.67265,1.216475 -2.50898,2.737069 l -9.42768,-0.608238 3.87751,-29.803642 h 29.34747 v 9.275623 h -22.20067 z" /></g></g><g
       id="g61514"
       transform="matrix(1.1761398,0,0,1.1761398,240.52023,59.340442)"><rect
         style="opacity:1;fill:#ffffff;fill-opacity:1;fill-rule:nonzero;stroke:#000000;stroke-width:0.264583;stroke-linejoin:miter;stroke-miterlimit:4;stroke-dasharray:none;stroke-opacity:1"
         id="rect7087-8"
         width="181.50415"
         height="132.29167"
         x="0.13229166"
         y="0.13229197"
         rx="23.8125"
         ry="23.8125" /><path
         style="opacity:1;fill:#01553b;fill-opacity:1;fill-rule:nonzero;stroke:none;stroke-width:0.132292;stroke-linejoin:miter;stroke-miterlimit:4;stroke-dasharray:none;stroke-opacity:1"
         d="m 23.944793,8.0697922 c -8.79475,0 -15.8750008,7.0802508 -15.8750008,15.8750008 v 84.666667 c 0,8.79475 7.0802508,15.875 15.8750008,15.875 H 157.82396 c 8.79475,0 15.875,-7.08025 15.875,-15.875 V 23.944793 c 0,-8.79475 -7.08025,-15.8750008 -15.875,-15.8750008 z m 66.939585,9.7895838 64.822922,7.9375 7.9375,40.481251 -7.9375,40.481253 -64.822922,7.9375 -65.352085,-7.9375 -7.408334,-40.481253 7.408334,-40.481251 z"
         id="rect7162-05" /><g
         id="text7197-4"
         style="font-style:normal;font-variant:normal;font-weight:bold;font-stretch:normal;font-size:73.4954px;line-height:125%;font-family:Helvetica;-inkscape-font-specification:'Helvetica Bold';text-align:center;letter-spacing:0px;word-spacing:0px;writing-mode:lr-tb;text-anchor:middle;fill:#007e00;fill-opacity:1;stroke:none;stroke-width:0.264583px;stroke-linecap:butt;stroke-linejoin:miter;stroke-opacity:1"
         aria-label="888"><path
           id="path7290"
           style="font-style:normal;font-variant:normal;font-weight:bold;font-stretch:normal;font-family:Triumvirate;-inkscape-font-specification:'Triumvirate Bold';fill:#01553b;fill-opacity:1;stroke-width:0.264583px"
           d="m 42.384891,55.327315 q 0,1.028935 0.293981,2.131366 0.367477,1.10243 1.028935,2.05787 0.734954,0.95544 1.91088,1.616898 1.175926,0.587963 2.939815,0.587963 1.763888,0 2.939814,-0.587963 1.175926,-0.661458 1.837385,-1.616898 0.734953,-0.95544 1.028935,-2.05787 0.367477,-1.102431 0.367477,-2.131366 0,-3.307292 -1.690394,-4.92419 -1.690393,-1.616898 -4.483217,-1.616898 -2.792824,0 -4.483218,1.616898 -1.690393,1.616898 -1.690393,4.92419 z m -1.028936,22.710069 q 0,1.690394 0.587963,3.086806 0.587963,1.396412 1.543403,2.425347 1.028935,0.95544 2.278357,1.469907 1.322916,0.514468 2.792824,0.514468 1.396412,0 2.719328,-0.514468 1.322917,-0.514467 2.278357,-1.469907 1.028935,-1.028935 1.616898,-2.425347 0.587963,-1.396412 0.587963,-3.086806 0,-2.204861 -0.587963,-3.748264 -0.514468,-1.616898 -1.543403,-2.572338 -0.95544,-1.028935 -2.278356,-1.469907 -1.322917,-0.440972 -2.792824,-0.440972 -1.469908,0 -2.792824,0.440972 -1.322917,0.440972 -2.351852,1.469907 -0.95544,0.95544 -1.543403,2.572338 -0.514468,1.543403 -0.514468,3.748264 z m 7.202547,15.875 q -4.262732,0 -7.570023,-1.175926 -3.307292,-1.249421 -5.585648,-3.380787 -2.278357,-2.131366 -3.454283,-4.997685 -1.175926,-2.939815 -1.175926,-6.320602 0,-3.160301 0.808449,-5.291667 0.881945,-2.204861 2.131366,-3.674768 1.249421,-1.543403 2.645833,-2.425347 1.469908,-0.881945 2.645834,-1.396412 -0.881945,-0.293982 -2.057871,-0.95544 -1.175926,-0.734954 -2.204861,-1.91088 -0.95544,-1.249421 -1.690393,-3.01331 -0.661459,-1.837384 -0.661459,-4.336226 0,-3.160301 1.102431,-5.806135 1.10243,-2.719328 3.160301,-4.630208 2.131366,-1.984375 5.07118,-3.086805 3.01331,-1.102431 6.83507,-1.102431 3.821759,0 6.761574,1.102431 3.01331,1.10243 5.07118,3.01331 2.131366,1.910879 3.233796,4.630208 1.102431,2.719329 1.102431,5.87963 0,2.425347 -0.734954,4.262731 -0.661458,1.763889 -1.690393,3.01331 -0.95544,1.175926 -2.131366,1.91088 -1.175926,0.734953 -2.05787,1.028935 1.175925,0.514467 2.572337,1.396412 1.469908,0.881944 2.719329,2.425347 1.249421,1.469907 2.05787,3.674768 0.881945,2.131366 0.881945,5.291667 0,3.380787 -1.175926,6.320602 -1.175926,2.866319 -3.454282,4.997685 -2.278357,2.131366 -5.585648,3.380787 -3.307292,1.175926 -7.570023,1.175926 z" /><path
           id="path7292"
           style="font-style:normal;font-variant:normal;font-weight:bold;font-stretch:normal;font-family:Triumvirate;-inkscape-font-specification:'Triumvirate Bold';fill:#01553b;fill-opacity:1;stroke-width:0.264583px"
           d="m 84.58731,55.327315 q 0,1.028935 0.293981,2.131366 0.367477,1.10243 1.028936,2.05787 0.734953,0.95544 1.910879,1.616898 1.175926,0.587963 2.939815,0.587963 1.763889,0 2.939815,-0.587963 1.175926,-0.661458 1.837384,-1.616898 0.734954,-0.95544 1.028935,-2.05787 0.367477,-1.102431 0.367477,-2.131366 0,-3.307292 -1.690394,-4.92419 -1.690393,-1.616898 -4.483217,-1.616898 -2.792824,0 -4.483218,1.616898 -1.690393,1.616898 -1.690393,4.92419 z m -1.028935,22.710069 q 0,1.690394 0.587963,3.086806 0.587963,1.396412 1.543402,2.425347 1.028936,0.95544 2.278357,1.469907 1.322916,0.514468 2.792824,0.514468 1.396412,0 2.719329,-0.514468 1.322916,-0.514467 2.278356,-1.469907 1.028935,-1.028935 1.616898,-2.425347 0.587963,-1.396412 0.587963,-3.086806 0,-2.204861 -0.587963,-3.748264 -0.514467,-1.616898 -1.543403,-2.572338 -0.955439,-1.028935 -2.278356,-1.469907 -1.322917,-0.440972 -2.792824,-0.440972 -1.469908,0 -2.792824,0.440972 -1.322917,0.440972 -2.351852,1.469907 -0.95544,0.95544 -1.543403,2.572338 -0.514467,1.543403 -0.514467,3.748264 z m 7.202546,15.875 q -4.262732,0 -7.570023,-1.175926 -3.307292,-1.249421 -5.585648,-3.380787 -2.278357,-2.131366 -3.454283,-4.997685 -1.175925,-2.939815 -1.175925,-6.320602 0,-3.160301 0.808449,-5.291667 0.881944,-2.204861 2.131365,-3.674768 1.249422,-1.543403 2.645834,-2.425347 1.469907,-0.881945 2.645833,-1.396412 -0.881945,-0.293982 -2.05787,-0.95544 -1.175926,-0.734954 -2.204861,-1.91088 -0.95544,-1.249421 -1.690394,-3.01331 -0.661458,-1.837384 -0.661458,-4.336226 0,-3.160301 1.10243,-5.806135 1.102431,-2.719328 3.160301,-4.630208 2.131366,-1.984375 5.071181,-3.086805 3.01331,-1.102431 6.835069,-1.102431 3.821759,0 6.761574,1.102431 3.013305,1.10243 5.071185,3.01331 2.13136,1.910879 3.23379,4.630208 1.10243,2.719329 1.10243,5.87963 0,2.425347 -0.73495,4.262731 -0.66146,1.763889 -1.6904,3.01331 -0.95543,1.175926 -2.13136,1.91088 -1.17593,0.734953 -2.05787,1.028935 1.17592,0.514467 2.57234,1.396412 1.4699,0.881944 2.71933,2.425347 1.24942,1.469907 2.05787,3.674768 0.88194,2.131366 0.88194,5.291667 0,3.380787 -1.17593,6.320602 -1.17592,2.866319 -3.45428,4.997685 -2.27835,2.131366 -5.585646,3.380787 -3.307292,1.175926 -7.570023,1.175926 z" /><path
           id="path7294"
           style="font-style:normal;font-variant:normal;font-weight:bold;font-stretch:normal;font-family:Triumvirate;-inkscape-font-specification:'Triumvirate Bold';fill:#01553b;fill-opacity:1;stroke-width:0.264583px"
           d="m 126.78973,55.327315 q 0,1.028935 0.29398,2.131366 0.36748,1.10243 1.02894,2.05787 0.73495,0.95544 1.91088,1.616898 1.17592,0.587963 2.93981,0.587963 1.76389,0 2.93981,-0.587963 1.17593,-0.661458 1.83739,-1.616898 0.73495,-0.95544 1.02893,-2.05787 0.36748,-1.102431 0.36748,-2.131366 0,-3.307292 -1.69039,-4.92419 -1.6904,-1.616898 -4.48322,-1.616898 -2.79282,0 -4.48322,1.616898 -1.69039,1.616898 -1.69039,4.92419 z m -1.02894,22.710069 q 0,1.690394 0.58797,3.086806 0.58796,1.396412 1.5434,2.425347 1.02893,0.95544 2.27836,1.469907 1.32291,0.514468 2.79282,0.514468 1.39641,0 2.71933,-0.514468 1.32292,-0.514467 2.27836,-1.469907 1.02893,-1.028935 1.61689,-2.425347 0.58797,-1.396412 0.58797,-3.086806 0,-2.204861 -0.58797,-3.748264 -0.51446,-1.616898 -1.5434,-2.572338 -0.95544,-1.028935 -2.27836,-1.469907 -1.32291,-0.440972 -2.79282,-0.440972 -1.46991,0 -2.79282,0.440972 -1.32292,0.440972 -2.35186,1.469907 -0.95544,0.95544 -1.5434,2.572338 -0.51447,1.543403 -0.51447,3.748264 z m 7.20255,15.875 q -4.26273,0 -7.57002,-1.175926 -3.30729,-1.249421 -5.58565,-3.380787 -2.27836,-2.131366 -3.45428,-4.997685 -1.17593,-2.939815 -1.17593,-6.320602 0,-3.160301 0.80845,-5.291667 0.88194,-2.204861 2.13137,-3.674768 1.24942,-1.543403 2.64583,-2.425347 1.46991,-0.881945 2.64583,-1.396412 -0.88194,-0.293982 -2.05787,-0.95544 -1.17592,-0.734954 -2.20486,-1.91088 -0.95544,-1.249421 -1.69039,-3.01331 -0.66146,-1.837384 -0.66146,-4.336226 0,-3.160301 1.10243,-5.806135 1.10243,-2.719328 3.1603,-4.630208 2.13137,-1.984375 5.07118,-3.086805 3.01331,-1.102431 6.83507,-1.102431 3.82176,0 6.76157,1.102431 3.01331,1.10243 5.07118,3.01331 2.13137,1.910879 3.2338,4.630208 1.10243,2.719329 1.10243,5.87963 0,2.425347 -0.73495,4.262731 -0.66146,1.763889 -1.6904,3.01331 -0.95544,1.175926 -2.13136,1.91088 -1.17593,0.734953 -2.05787,1.028935 1.17592,0.514467 2.57234,1.396412 1.4699,0.881944 2.71932,2.425347 1.24943,1.469907 2.05788,3.674768 0.88194,2.131366 0.88194,5.291667 0,3.380787 -1.17593,6.320602 -1.17592,2.866319 -3.45428,4.997685 -2.27836,2.131366 -5.58565,3.380787 -3.30729,1.175926 -7.57002,1.175926 z" /></g></g><g
       id="g61558"
       transform="matrix(1.1761398,0,0,1.1761398,240.52023,235.14557)"><rect
         style="opacity:1;fill:#ffffff;fill-opacity:1;fill-rule:nonzero;stroke:#000000;stroke-width:0.26442435;stroke-linejoin:miter;stroke-miterlimit:4;stroke-dasharray:none;stroke-opacity:1"
         id="rect7087-82"
         width="181.50415"
         height="132.29167"
         x="0.13229166"
         y="0.13229197"
         rx="23.8125"
         ry="23.8125" /><path
         style="opacity:1;fill:#000000;fill-opacity:1;fill-rule:nonzero;stroke:none;stroke-width:0.132292;stroke-linejoin:miter;stroke-miterlimit:4;stroke-dasharray:none;stroke-opacity:1"
         d="m 23.944793,8.0697922 c -8.79475,0 -15.8750008,7.0802508 -15.8750008,15.8750008 v 84.666667 c 0,8.79475 7.0802508,15.875 15.8750008,15.875 H 157.82396 c 8.79475,0 15.875,-7.08025 15.875,-15.875 V 23.944793 c 0,-8.79475 -7.08025,-15.8750008 -15.875,-15.8750008 z m 66.939585,9.7895838 64.822922,7.9375 7.9375,40.481251 -7.9375,40.481253 -64.822922,7.9375 -65.352085,-7.9375 -7.408334,-40.481253 7.408334,-40.481251 z"
         id="rect7162-2" /><g
         id="text2976"
         style="font-style:normal;font-variant:normal;font-weight:normal;font-stretch:normal;font-size:65.9649px;line-height:125%;font-family:Triumvirate;-inkscape-font-specification:Triumvirate;text-align:center;letter-spacing:0px;word-spacing:0px;writing-mode:lr-tb;text-anchor:middle;fill:#000000;fill-opacity:1;stroke:none;stroke-width:0.264583px;stroke-linecap:butt;stroke-linejoin:miter;stroke-opacity:1"
         transform="scale(0.89753757,1.1141595)"
         aria-label="3922"><path
           id="path8857"
           style="font-style:normal;font-variant:normal;font-weight:normal;font-stretch:normal;font-family:Triumvirate;-inkscape-font-specification:Triumvirate;stroke-width:0.264583px"
           d="m 28.808616,51.505366 q 0,-3.298244 0.923508,-6.068768 0.923508,-2.836489 2.770524,-4.815435 1.912982,-2.044911 4.683506,-3.166314 2.836489,-1.187367 6.662452,-1.187367 3.166313,0 5.870873,0.857543 2.704559,0.791578 4.683505,2.4407 1.978946,1.583157 3.100349,3.957892 1.121403,2.30877 1.121403,5.343154 0,1.978946 -0.527719,3.562103 -0.461754,1.517192 -1.253333,2.704559 -0.725613,1.121403 -1.715086,1.978946 -0.923508,0.791579 -1.781052,1.319298 1.055438,0.461754 2.176841,1.253332 1.187367,0.791579 2.17684,2.110876 0.989473,1.253332 1.583157,3.100349 0.659649,1.847016 0.659649,4.485611 0,2.968419 -1.121403,5.672978 -1.055438,2.70456 -3.100349,4.74947 -2.04491,2.044911 -5.013329,3.298244 -2.968419,1.187367 -6.728417,1.187367 -4.419646,0 -7.45403,-1.187367 -3.034384,-1.253333 -4.947365,-3.364208 -1.847016,-2.110876 -2.704559,-4.947365 -0.857543,-2.83649 -0.857543,-6.068768 h 8.971221 q 0,0.923508 0.197895,2.242805 0.263859,1.319298 0.923508,2.57263 0.725614,1.187368 2.044911,2.110876 1.385262,0.857543 3.562103,0.857543 3.562103,0 5.145259,-1.912981 1.583157,-1.912981 1.583157,-4.947365 0,-3.759997 -2.242805,-5.343154 -2.242806,-1.649122 -5.870873,-1.649122 h -2.176841 v -6.596487 h 1.978946 q 3.298243,0 5.409119,-1.517191 2.110876,-1.583157 2.110876,-5.14526 0,-2.110876 -1.517192,-3.694033 -1.451227,-1.649121 -4.221752,-1.649121 -2.30877,0 -3.628067,0.791578 -1.253333,0.791579 -1.912981,1.978946 -0.659649,1.121403 -0.857544,2.4407 -0.131929,1.253333 -0.131929,2.242806 z" /><path
           id="path8859"
           style="font-style:normal;font-variant:normal;font-weight:normal;font-stretch:normal;font-family:Triumvirate;-inkscape-font-specification:Triumvirate;stroke-width:0.264583px"
           d="m 75.724064,51.96712 q 0,2.110875 0.527719,3.628067 0.527719,1.517192 1.385262,2.57263 0.923508,0.989473 2.044911,1.517192 1.187368,0.461754 2.4407,0.461754 2.968419,0 4.8814,-1.912981 1.978946,-1.978946 1.978946,-5.738943 0,-4.089822 -2.04491,-6.266663 -1.978946,-2.17684 -4.881401,-2.17684 -2.968419,0 -4.683505,2.044911 -1.649122,2.044911 -1.649122,5.870873 z m 0.527719,20.053319 q 0.13193,0.659649 0.461754,1.451227 0.329825,0.791579 0.923508,1.451227 0.593684,0.659649 1.451227,1.121403 0.923509,0.461754 2.242806,0.461754 2.638595,0 4.155786,-1.319297 1.583157,-1.385262 2.374736,-3.364208 0.857543,-1.978946 1.121402,-4.155787 0.329825,-2.242805 0.527719,-3.957892 -1.715086,1.517192 -3.825962,2.770524 -2.110876,1.187368 -5.475084,1.187368 -2.968419,0 -5.541049,-0.989473 -2.572629,-0.989473 -4.485611,-2.902454 -1.847016,-1.912981 -2.902454,-4.617541 -1.055438,-2.770524 -1.055438,-6.266662 0,-3.957892 1.187368,-6.992276 1.187368,-3.100349 3.298243,-5.211224 2.110876,-2.176841 4.947365,-3.298244 2.902454,-1.121402 6.266663,-1.121402 5.145259,0 8.377538,1.978946 3.232278,1.978946 5.01333,5.277189 1.847016,3.232278 2.506665,7.519995 0.659648,4.287716 0.659648,8.839292 0,4.551576 -0.791578,8.971222 -0.725614,4.353681 -2.70456,7.783854 -1.912981,3.430173 -5.211224,5.541049 -3.232279,2.110875 -8.245609,2.110875 -3.759997,0 -6.398592,-1.055437 -2.572629,-1.055438 -4.287716,-2.770525 -1.649122,-1.715086 -2.506665,-3.891927 -0.791578,-2.242805 -1.055438,-4.551576 z" /><path
           id="path8861"
           style="font-style:normal;font-variant:normal;font-weight:normal;font-stretch:normal;font-family:Triumvirate;-inkscape-font-specification:Triumvirate;stroke-width:0.264583px"
           d="m 103.90549,83.234467 q 0,-4.947365 1.58316,-8.377539 1.64912,-3.430173 4.08982,-5.936838 2.4407,-2.506664 5.27719,-4.353681 2.83649,-1.912981 5.27719,-3.891927 2.4407,-1.978946 4.02385,-4.287716 1.64913,-2.374735 1.64913,-5.738944 0,-1.055437 -0.32983,-2.242805 -0.32982,-1.187368 -1.05544,-2.110876 -0.72561,-0.989473 -1.91298,-1.583157 -1.1214,-0.659648 -2.77052,-0.659648 -2.24281,0 -3.5621,0.989473 -1.25334,0.923508 -1.91299,2.30877 -0.65964,1.385262 -0.85754,2.968419 -0.13193,1.583157 -0.13193,2.836489 h -8.97122 q 0,-4.61754 1.25333,-7.849819 1.25333,-3.232278 3.29825,-5.211224 2.11087,-2.044911 4.8814,-2.902454 2.77052,-0.923508 5.8049,-0.923508 3.89193,0 6.86035,1.187367 2.96842,1.121403 4.94736,3.100349 1.97895,1.912981 2.96842,4.551576 0.98948,2.572629 0.98948,5.541048 0,3.628068 -1.05544,6.332628 -1.05544,2.638594 -2.77053,4.74947 -1.71508,2.110876 -3.89192,3.759997 -2.17684,1.649122 -4.41965,3.166314 -2.17684,1.517192 -4.22175,3.100349 -2.04491,1.517192 -3.5621,3.430173 h 19.92139 v 8.047714 z" /><path
           id="path8863"
           style="font-style:normal;font-variant:normal;font-weight:normal;font-stretch:normal;font-family:Triumvirate;-inkscape-font-specification:Triumvirate;stroke-width:0.264583px"
           d="m 141.78375,83.234467 q 0,-4.947365 1.58315,-8.377539 1.64913,-3.430173 4.08983,-5.936838 2.4407,-2.506664 5.27719,-4.353681 2.83649,-1.912981 5.27719,-3.891927 2.4407,-1.978946 4.02385,-4.287716 1.64912,-2.374735 1.64912,-5.738944 0,-1.055437 -0.32982,-2.242805 -0.32982,-1.187368 -1.05544,-2.110876 -0.72561,-0.989473 -1.91298,-1.583157 -1.1214,-0.659648 -2.77052,-0.659648 -2.24281,0 -3.56211,0.989473 -1.25333,0.923508 -1.91298,2.30877 -0.65965,1.385262 -0.85754,2.968419 -0.13193,1.583157 -0.13193,2.836489 h -8.97122 q 0,-4.61754 1.25333,-7.849819 1.25333,-3.232278 3.29824,-5.211224 2.11088,-2.044911 4.8814,-2.902454 2.77053,-0.923508 5.80491,-0.923508 3.89193,0 6.86035,1.187367 2.96842,1.121403 4.94736,3.100349 1.97895,1.912981 2.96842,4.551576 0.98947,2.572629 0.98947,5.541048 0,3.628068 -1.05543,6.332628 -1.05544,2.638594 -2.77053,4.74947 -1.71508,2.110876 -3.89192,3.759997 -2.17685,1.649122 -4.41965,3.166314 -2.17684,1.517192 -4.22175,3.100349 -2.04491,1.517192 -3.56211,3.430173 h 19.92139 v 8.047714 z" /></g></g></g></svg>
