<?xml version="1.0" encoding="UTF-8" standalone="no"?>
<svg
   xmlns:dc="http://purl.org/dc/elements/1.1/"
   xmlns:cc="http://creativecommons.org/ns#"
   xmlns:rdf="http://www.w3.org/1999/02/22-rdf-syntax-ns#"
   xmlns:svg="http://www.w3.org/2000/svg"
   xmlns="http://www.w3.org/2000/svg"
   xmlns:sodipodi="http://sodipodi.sourceforge.net/DTD/sodipodi-0.dtd"
   xmlns:inkscape="http://www.inkscape.org/namespaces/inkscape"
   width="92.604179mm"
   height="92.604149mm"
   viewBox="0 0 92.604181 92.604149"
   version="1.1"
   id="svg9583"
   inkscape:version="1.0 (4035a4fb49, 2020-05-01)"
   sodipodi:docname="607a.svg">
  <defs
     id="defs9577">
    <clipPath
       id="clip1">
      <path
         id="path5580"
         d="m 100,521 h 138 v 91.60156 H 100 Z m 0,0" />
    </clipPath>
    <clipPath
       id="clip1-4">
      <path
         id="path13716"
         d="m 372,466 h 105 v 78.80078 H 372 Z m 0,0" />
    </clipPath>
  </defs>
  <sodipodi:namedview
     id="base"
     pagecolor="#ffffff"
     bordercolor="#666666"
     borderopacity="1.0"
     inkscape:pageopacity="0.0"
     inkscape:pageshadow="2"
     inkscape:zoom="0.7"
     inkscape:cx="-3.1395085"
     inkscape:cy="158.49218"
     inkscape:document-units="mm"
     inkscape:current-layer="layer1"
     inkscape:document-rotation="0"
     showgrid="false"
     inkscape:window-width="1920"
     inkscape:window-height="1001"
     inkscape:window-x="-9"
     inkscape:window-y="-9"
     inkscape:window-maximized="1"
     showguides="true"
     inkscape:guide-bbox="true" />
  <metadata
     id="metadata9580">
    <rdf:RDF>
      <cc:Work
         rdf:about="">
        <dc:format>image/svg+xml</dc:format>
        <dc:type
           rdf:resource="http://purl.org/dc/dcmitype/StillImage" />
        <dc:title />
      </cc:Work>
    </rdf:RDF>
  </metadata>
  <g
     inkscape:label="Layer 1"
     inkscape:groupmode="layer"
     id="layer1"
     transform="translate(-140.18574,-125.01566)">
    <path
       sodipodi:nodetypes="ccccc"
       id="path2610"
       d="m 140.18574,125.01566 v 66.14582 l 92.60418,10e-6 v -66.14582 z"
       style="color:#000000;font-style:normal;font-variant:normal;font-weight:normal;font-stretch:normal;font-size:medium;line-height:normal;font-family:sans-serif;font-variant-ligatures:normal;font-variant-position:normal;font-variant-caps:normal;font-variant-numeric:normal;font-variant-alternates:normal;font-variant-east-asian:normal;font-feature-settings:normal;font-variation-settings:normal;text-indent:0;text-align:start;text-decoration:none;text-decoration-line:none;text-decoration-style:solid;text-decoration-color:#000000;letter-spacing:normal;word-spacing:normal;text-transform:none;writing-mode:lr-tb;direction:ltr;text-orientation:mixed;dominant-baseline:auto;baseline-shift:baseline;text-anchor:start;white-space:normal;shape-padding:0;shape-margin:0;inline-size:0;clip-rule:nonzero;display:inline;overflow:visible;visibility:visible;opacity:1;isolation:auto;mix-blend-mode:normal;color-interpolation:sRGB;color-interpolation-filters:linearRGB;solid-color:#000000;solid-opacity:1;vector-effect:none;fill:#01553b;fill-opacity:1;fill-rule:nonzero;stroke:none;stroke-width:0.121248;stroke-linecap:butt;stroke-linejoin:miter;stroke-miterlimit:4;stroke-dasharray:none;stroke-dashoffset:0;stroke-opacity:1;color-rendering:auto;image-rendering:auto;shape-rendering:auto;text-rendering:auto;enable-background:accumulate;stop-color:#000000;stop-opacity:1" />
    <path
       style="color:#000000;font-style:normal;font-variant:normal;font-weight:normal;font-stretch:normal;font-size:medium;line-height:normal;font-family:sans-serif;font-variant-ligatures:normal;font-variant-position:normal;font-variant-caps:normal;font-variant-numeric:normal;font-variant-alternates:normal;font-variant-east-asian:normal;font-feature-settings:normal;font-variation-settings:normal;text-indent:0;text-align:start;text-decoration:none;text-decoration-line:none;text-decoration-style:solid;text-decoration-color:#000000;letter-spacing:normal;word-spacing:normal;text-transform:none;writing-mode:lr-tb;direction:ltr;text-orientation:mixed;dominant-baseline:auto;baseline-shift:baseline;text-anchor:start;white-space:normal;shape-padding:0;shape-margin:0;inline-size:0;clip-rule:nonzero;display:inline;overflow:visible;visibility:visible;opacity:1;isolation:auto;mix-blend-mode:normal;color-interpolation:sRGB;color-interpolation-filters:linearRGB;solid-color:#000000;solid-opacity:1;vector-effect:none;fill:#ffcc00;fill-opacity:1;fill-rule:nonzero;stroke:none;stroke-width:0.121248;stroke-linecap:butt;stroke-linejoin:miter;stroke-miterlimit:4;stroke-dasharray:none;stroke-dashoffset:0;stroke-opacity:1;color-rendering:auto;image-rendering:auto;shape-rendering:auto;text-rendering:auto;enable-background:accumulate;stop-color:#000000;stop-opacity:1"
       d="m 140.18574,191.16148 v 26.45832 l 92.60418,1e-5 v -26.45832 z"
       id="path6204"
       sodipodi:nodetypes="ccccc" />
    <path
       style="color:#000000;font-style:normal;font-variant:normal;font-weight:normal;font-stretch:normal;font-size:medium;line-height:normal;font-family:sans-serif;font-variant-ligatures:normal;font-variant-position:normal;font-variant-caps:normal;font-variant-numeric:normal;font-variant-alternates:normal;font-variant-east-asian:normal;font-feature-settings:normal;font-variation-settings:normal;text-indent:0;text-align:start;text-decoration:none;text-decoration-line:none;text-decoration-style:solid;text-decoration-color:#000000;letter-spacing:normal;word-spacing:normal;text-transform:none;writing-mode:lr-tb;direction:ltr;text-orientation:mixed;dominant-baseline:auto;baseline-shift:baseline;text-anchor:start;white-space:normal;shape-padding:0;shape-margin:0;inline-size:0;clip-rule:nonzero;display:inline;overflow:visible;visibility:visible;opacity:1;isolation:auto;mix-blend-mode:normal;color-interpolation:sRGB;color-interpolation-filters:linearRGB;solid-color:#000000;solid-opacity:1;vector-effect:none;fill:#000000;fill-opacity:1;fill-rule:nonzero;stroke:none;stroke-width:1.17802;stroke-linecap:butt;stroke-linejoin:miter;stroke-miterlimit:4;stroke-dasharray:none;stroke-dashoffset:0;stroke-opacity:1;color-rendering:auto;image-rendering:auto;shape-rendering:auto;text-rendering:auto;enable-background:accumulate;stop-color:#000000;stop-opacity:1"
       d="m 143.88222,192.14756 c -1.48936,0 -2.70996,1.2206 -2.70996,2.71 V 213.925 c 0,1.4894 1.22056,2.70904 2.70996,2.70904 l 85.21122,-2.7e-4 c 1.48936,0 2.70996,-1.21964 2.70996,-2.70908 v -19.0674 c 0,-1.48944 -1.2206,-2.71 -2.70996,-2.71 z m 0,1.17832 85.21122,-2.7e-4 c 0.85272,0 1.53164,0.67892 1.53164,1.53168 v 19.0674 c 0,0.85276 -0.67892,1.53072 -1.53164,1.53072 l -85.21122,2.7e-4 c -0.85272,0 -1.5316,-0.67796 -1.5316,-1.53068 v -19.06744 c 0,-0.85276 0.67888,-1.53168 1.5316,-1.53168 z"
       id="path6206"
       sodipodi:nodetypes="ssssssssssssssssss" />
    <path
       sodipodi:nodetypes="ssssssssssssssssss"
       id="path2502"
       d="m 143.88222,126.00174 c -1.48936,0 -2.70996,1.2206 -2.70996,2.71 v 58.7549 c 0,1.48944 1.22056,2.70909 2.70996,2.70908 l 85.21122,-3.1e-4 c 1.48936,0 2.70996,-1.21964 2.70996,-2.70904 v -58.7549 c 0,-1.48944 -1.2206,-2.71 -2.70996,-2.71 z m 0,1.17836 85.21122,-3.1e-4 c 0.85272,0 1.53164,0.67892 1.53164,1.53168 v 58.7549 c 0,0.85276 -0.67892,1.53068 -1.53164,1.53068 l -85.21122,3.1e-4 c -0.85272,0 -1.5316,-0.67796 -1.5316,-1.53072 v -58.7549 c 0,-0.85272 0.67888,-1.53164 1.5316,-1.53164 z"
       style="color:#000000;font-style:normal;font-variant:normal;font-weight:normal;font-stretch:normal;font-size:medium;line-height:normal;font-family:sans-serif;font-variant-ligatures:normal;font-variant-position:normal;font-variant-caps:normal;font-variant-numeric:normal;font-variant-alternates:normal;font-variant-east-asian:normal;font-feature-settings:normal;font-variation-settings:normal;text-indent:0;text-align:start;text-decoration:none;text-decoration-line:none;text-decoration-style:solid;text-decoration-color:#000000;letter-spacing:normal;word-spacing:normal;text-transform:none;writing-mode:lr-tb;direction:ltr;text-orientation:mixed;dominant-baseline:auto;baseline-shift:baseline;text-anchor:start;white-space:normal;shape-padding:0;shape-margin:0;inline-size:0;clip-rule:nonzero;display:inline;overflow:visible;visibility:visible;opacity:1;isolation:auto;mix-blend-mode:normal;color-interpolation:sRGB;color-interpolation-filters:linearRGB;solid-color:#000000;solid-opacity:1;vector-effect:none;fill:#ffffff;fill-opacity:1;fill-rule:nonzero;stroke:none;stroke-width:1.17802;stroke-linecap:butt;stroke-linejoin:miter;stroke-miterlimit:4;stroke-dasharray:none;stroke-dashoffset:0;stroke-opacity:1;color-rendering:auto;image-rendering:auto;shape-rendering:auto;text-rendering:auto;enable-background:accumulate;stop-color:#000000;stop-opacity:1" />
    <path
       id="rect25862"
       style="opacity:1;fill:#000000;stroke-width:0.0225534;stroke-linecap:square;stroke-miterlimit:10;stroke-dasharray:none"
       d="m 183.22454,195.69458 0.6516,7.10496 -6.47112,-1.17444 c -0.3248,0.0728 -0.48244,0.1604 -0.58644,0.366 -0.1432,0.2828 -0.1752,0.65356 0.074,0.94732 l 8.82112,9.79188 c 0.1024,0.134 0.494,0.3524 0.78208,0.3564 0.2832,0.004 0.63148,-0.2052 0.76088,-0.3516 l 8.81836,-9.78984 c 0.2704,-0.3356 0.2132,-0.71676 0.0884,-0.93164 -0.1168,-0.2008 -0.3624,-0.3708 -0.57884,-0.3884 l -6.50784,1.1744 0.67204,-7.10488 z" />
    <g
       id="g13547"
       transform="translate(-6.614574,-0.19359529)">
      <g
         id="g6370"
         transform="matrix(1.4111113,0,0,1.4111113,-382.88737,-601.34812)"
         style="fill:#ffffff">
        <g
           transform="matrix(0.60280972,0,0,0.60280972,223.8597,185.73022)"
           id="g5871"
           style="fill:#ffffff;fill-opacity:1">
          <g
             transform="translate(328.96802,575.40002)"
             id="use5869"
             style="fill:#ffffff" />
        </g>
        <g
           transform="matrix(0.60280972,0,0,0.60280972,223.8597,185.73022)"
           id="g5875"
           style="fill:#ffffff;fill-opacity:1">
          <g
             transform="translate(318.60001,575.40002)"
             id="use5873"
             style="fill:#ffffff" />
        </g>
        <g
           transform="matrix(0.60280972,0,0,0.60280972,223.8597,185.73022)"
           id="g5879"
           style="fill:#ffffff;fill-opacity:1">
          <g
             transform="translate(314.16,575.40002)"
             id="use5877"
             style="fill:#ffffff" />
        </g>
        <g
           transform="matrix(0.60280972,0,0,0.60280972,223.8597,185.73022)"
           id="g5903"
           style="fill:#ffffff;fill-opacity:1">
          <g
             transform="translate(282.37616,575.40002)"
             id="use5901"
             style="fill:#ffffff" />
        </g>
        <g
           transform="matrix(0.60280972,0,0,0.60280972,223.8597,185.73022)"
           id="g5907"
           style="fill:#ffffff;fill-opacity:1">
          <g
             transform="translate(284.996,575.40002)"
             id="use5905"
             style="fill:#ffffff" />
        </g>
        <g
           transform="matrix(0.60280972,0,0,0.60280972,223.8597,185.73022)"
           id="g5911"
           style="fill:#ffffff;fill-opacity:1">
          <g
             transform="translate(288.31055,575.40002)"
             id="use5909"
             style="fill:#ffffff" />
        </g>
        <g
           transform="matrix(0.60280972,0,0,0.60280972,223.8597,185.73022)"
           id="g5915"
           style="fill:#ffffff;fill-opacity:1">
          <g
             transform="translate(296.18259,575.40002)"
             id="use5913"
             style="fill:#ffffff" />
        </g>
        <g
           transform="matrix(0.60280972,0,0,0.60280972,223.8597,185.73022)"
           id="g5919"
           style="fill:#ffffff;fill-opacity:1">
          <g
             transform="translate(299.49713,575.40002)"
             id="use5917"
             style="fill:#ffffff" />
        </g>
        <g
           transform="translate(0,0.3749973)"
           id="g9805">
          <g
             id="g13473">
            <g
               transform="matrix(0.60280972,0,0,0.60280972,223.8597,188.88443)"
               id="g5807"
               style="fill:#ffffff;fill-opacity:1">
              <g
                 transform="translate(276.60001,555.83997)"
                 id="use5805"
                 style="fill:#ffffff">
                <path
                   style="fill:#ffffff;stroke:none"
                   d="M 0.515625,-5.671875 1.65625,-5.6875 1.640625,1.421875 H 3.09375 V -7.09375 H 0.515625 Z m 0,0"
                   id="path6208" />
              </g>
            </g>
            <g
               transform="matrix(0.60280972,0,0,0.60280972,223.8597,188.88443)"
               id="g5811"
               style="fill:#ffffff;fill-opacity:1">
              <g
                 transform="translate(280.20743,555.83997)"
                 id="use5809"
                 style="fill:#ffffff">
                <path
                   style="fill:#ffffff;stroke:none"
                   d="m 0.515625,-7.09375 v 1.421875 h 1.09375 V 0 h 1.375 v -7.09375 z m 0,0"
                   id="path6212" />
              </g>
            </g>
            <g
               transform="matrix(0.60280972,0,0,0.60280972,223.8597,188.88443)"
               id="g5815"
               style="fill:#ffffff;fill-opacity:1">
              <g
                 transform="translate(283.62555,555.83997)"
                 id="use5813"
                 style="fill:#ffffff">
                <path
                   style="fill:#ffffff;stroke:none"
                   d="M 0.53125,-7.09375 0.515625,-5.671875 H 1.59375 v 2.140625 l 1.421875,0.015625 V -7.09375 Z m 0,0"
                   id="path6216" />
              </g>
            </g>
            <g
               transform="matrix(0.60280972,0,0,0.60280972,223.8597,188.88443)"
               id="g5819"
               style="fill:#ffffff;fill-opacity:1">
              <g
                 transform="translate(287.15674,555.83997)"
                 id="use5817"
                 style="fill:#ffffff">
                <path
                   style="fill:#ffffff;stroke:none"
                   d="M 0.515625,-7.078125 V -7.0625 L 4.46875,-1.40625 H 0.625 v 1.421875 h 5.6875 v -1.40625 L 4.78125,-3.5625 H 5.109375 L 6.3125,-7.078125 4.796875,-7.0625 3.96875,-4.703125 l -1.6875,-2.375 z m 0,0"
                   id="path6220" />
              </g>
            </g>
            <g
               transform="matrix(0.60280972,0,0,0.60280972,223.8597,188.88443)"
               id="g5823"
               style="fill:#ffffff;fill-opacity:1">
              <g
                 transform="translate(293.99042,555.83997)"
                 id="use5821"
                 style="fill:#ffffff">
                <path
                   style="fill:#ffffff;stroke:none"
                   d="m 0.515625,-8.515625 v 2.84375 H 3.71875 v 3.03125 c -0.011719,0.148437 -0.039062,0.28125 -0.078125,0.40625 -0.34375,0.75 -0.914062,1.027344 -1.703125,0.828125 V 0.015625 C 2.101563,0.046875 2.269531,0.0625 2.4375,0.0625 4.082031,-0.09375 4.984375,-0.992188 5.140625,-2.640625 L 5.125,-7.078125 H 1.96875 L 1.953125,-8.5 Z m 0,0"
                   id="path6224" />
              </g>
            </g>
            <g
               transform="matrix(0.60280972,0,0,0.60280972,223.8597,188.88443)"
               id="g5835"
               style="fill:#ffffff;fill-opacity:1">
              <g
                 transform="translate(307.2486,555.83997)"
                 id="use5833"
                 style="fill:#ffffff">
                <path
                   style="fill:#ffffff;stroke:none"
                   d="M 0.515625,-5.671875 1.65625,-5.6875 1.640625,1.421875 H 3.09375 V -7.09375 H 0.515625 Z m 0,0"
                   id="path6228" />
              </g>
            </g>
            <g
               transform="matrix(0.60280972,0,0,0.60280972,223.8597,188.88443)"
               id="g5839"
               style="fill:#ffffff;fill-opacity:1">
              <g
                 transform="translate(310.85605,555.83997)"
                 id="use5837"
                 style="fill:#ffffff">
                <path
                   style="fill:#ffffff;stroke:none"
                   d="m 0.515625,-7.09375 v 1.421875 h 1.09375 V 0 h 1.375 v -7.09375 z m 0,0"
                   id="path6232" />
              </g>
            </g>
            <g
               transform="matrix(0.60280972,0,0,0.60280972,223.8597,188.88443)"
               id="g5843"
               style="fill:#ffffff;fill-opacity:1">
              <g
                 transform="translate(314.48132,555.83997)"
                 id="use5841"
                 style="fill:#ffffff">
                <path
                   style="fill:#ffffff;stroke:none"
                   d="M 0.515625,-7.09375 1.96875,0 h 1.671875 c 1.539063,-0.15625 2.519531,-0.976563 2.9375,-2.46875 l 1.078125,-4.625 H 6.140625 l -1,4.640625 c -0.261719,0.65625 -0.742187,1 -1.4375,1.03125 l -0.5625,0.015625 -0.4375,-2.140625 h 1.375 L 4.84375,-7.09375 H 3.375 L 2.65625,-3.75 1.984375,-7.09375 Z m 0,0"
                   id="path6236" />
              </g>
            </g>
            <g
               transform="matrix(0.60280972,0,0,0.60280972,223.8597,188.88443)"
               id="g5847"
               style="fill:#ffffff;fill-opacity:1">
              <g
                 transform="translate(322.56052,555.83997)"
                 id="use5845"
                 style="fill:#ffffff">
                <path
                   style="fill:#ffffff;stroke:none"
                   d="M 0.515625,-7.09375 2,-4.609375 0.578125,-3.5625 V 0 H 2 v -2.828125 l 0.71875,-0.5625 2,3.390625 H 6.359375 L 4.90625,-2.484375 6.265625,-3.546875 V -7.09375 h -1.40625 v 2.828125 l -0.703125,0.546875 -2,-3.375 z m 0,0"
                   id="path6240" />
              </g>
            </g>
            <g
               transform="matrix(0.60280972,0,0,0.60280972,223.8597,188.88443)"
               id="g5851"
               style="fill:#ffffff;fill-opacity:1">
              <g
                 transform="translate(329.44272,555.83997)"
                 id="use5849"
                 style="fill:#ffffff">
                <path
                   style="fill:#ffffff;stroke:none"
                   d="M 0.53125,-7.109375 0.515625,-5.6875 H 3.34375 V 0 h 1.4375 v -5.671875 c 0,-0.019531 0,-0.039063 0,-0.0625 C 4.695313,-6.578125 4.234375,-7.03125 3.390625,-7.09375 Z m 0,0"
                   id="path6244" />
              </g>
            </g>
            <g
               transform="matrix(0.60280972,0,0,0.60280972,223.8597,184.60522)"
               id="g5859"
               style="fill:#ffffff;fill-opacity:1">
              <g
                 transform="translate(335.39999,575.40002)"
                 id="use5857"
                 style="fill:#ffffff">
                <path
                   style="fill:#ffffff;stroke:none"
                   d="m 3.21875,-3.578125 0.515625,1.34375 c 0.09375,0.21875 0.15625,0.460937 0.1875,0.71875 0.039063,0.25 0.0625,0.539062 0.0625,0.859375 0,1.039063 -0.210937,1.890625 -0.625,2.546875 -0.40625,0.664063 -0.914062,1 -1.515625,1 -0.273437,0 -0.5625,-0.078125 -0.875,-0.234375 C 0.65625,2.507813 0.332031,2.289063 0,2 V 1.765625 C 0.164063,1.773435 0.289063,1.78125 0.375,1.78125 0.457031,1.78906 0.535156,1.796875 0.609375,1.796875 1.390625,1.796875 2.039063,1.582031 2.5625,1.15625 3.09375,0.726563 3.359375,0.195313 3.359375,-0.4375 3.359375,-0.769531 3.28125,-1.109375 3.125,-1.453125 2.976563,-1.804688 2.757813,-2.160156 2.46875,-2.515625 Z m 0,0"
                   id="path6248" />
              </g>
            </g>
            <g
               transform="matrix(0.60280972,0,0,0.60280972,223.8597,184.60522)"
               id="g5867"
               style="fill:#ffffff;fill-opacity:1">
              <g
                 transform="translate(321.23999,575.40002)"
                 id="use5865"
                 style="fill:#ffffff">
                <path
                   transform="matrix(0.31104338,0,0,0.31104338,-189.55077,-31.462864)"
                   d="m 622.11133,80.457031 -1.75781,2.611328 2.86328,1.908203 1.70898,-2.662109 z m -2.71094,4.167969 -1.75977,2.662109 2.86329,1.859375 1.75976,-2.5625 z m 5.67578,0 -1.70898,2.662109 2.76367,1.859375 1.80859,-2.5625 z m -31,3.166016 c -1.30609,0 -2.43785,0.92817 -3.36719,2.761718 -0.90421,1.80843 -1.35546,4.057455 -1.35546,6.732422 0,1.280969 0.35141,2.246504 1.05468,2.912114 0.70328,0.64048 1.7338,0.95507 3.11524,0.95507 h 3.76758 c -0.40188,1.87123 -1.43185,3.31563 -3.06446,4.32032 -1.60749,1.0298 -3.69169,1.55664 -6.22851,1.55664 -0.0754,0 -0.277,-0.0237 -0.60352,-0.0488 h -0.75391 v 0.9043 c 1.16795,0.82886 2.28521,1.46865 3.36524,1.9082 1.06747,0.42699 2.02186,0.65234 2.86328,0.65234 1.70796,0 3.13981,-0.84143 4.32031,-2.51172 1.16795,-1.64517 1.90954,-3.90534 2.21094,-6.78125 h 1.51563 0.39257 8.98243 3.48242 l 1.9082,-1.857418 1.95898,1.857418 h 3.66797 l 1.95899,-1.857418 1.9082,1.857418 h 3.71875 l 1.9082,-1.857418 1.95899,1.857418 h 1.48633 0.0215 7.61524 c 0.36419,0 0.66568,-0.0742 0.90429,-0.25 0.22606,-0.16326 0.42575,-0.41482 0.60156,-0.7539 l 1.75782,-4.320315 c 0.0628,-0.125587 0.10156,-0.264199 0.10156,-0.402344 0.0251,-0.125587 0.0508,-0.251094 0.0508,-0.351562 0,-0.06279 -0.0257,-0.151485 -0.0508,-0.251953 0,-0.100469 -0.0388,-0.213418 -0.10156,-0.351563 l -2.31055,-6.478515 -2.20898,3.263671 1.20507,3.617188 h -7.56445 -0.0215 -0.58203 c -0.5777,0 -0.97903,-0.126058 -1.20508,-0.402344 -0.23862,-0.263728 -0.35156,-0.877857 -0.35156,-1.857422 v -0.955078 l -2.66211,1.255859 v 0.652344 c 0,0.502342 -0.12551,0.855704 -0.35157,1.056641 -0.20093,0.175818 -0.59111,0.25 -1.15625,0.25 h -3.3164 v -3.214844 l -2.66211,1.255859 v 0.652344 c 0,0.502342 -0.12552,0.855704 -0.35156,1.056641 -0.20094,0.175818 -0.58917,0.25 -1.1543,0.25 h -3.41602 v -3.214844 l -2.66211,1.255859 v 0.652344 c 0,0.502342 -0.1255,0.855704 -0.35156,1.056641 -0.20094,0.175818 -0.59112,0.25 -1.15625,0.25 h -2.57812 -8.98243 -0.39257 -1.7168 c -0.43955,-2.134953 -1.12926,-3.842078 -2.0586,-5.123047 -0.94188,-1.306088 -1.9593,-1.958984 -3.06445,-1.958984 z m -0.60351,5.023437 c 0.56513,0.03768 1.06826,0.226211 1.50781,0.552735 0.46466,0.33908 0.96584,0.928947 1.50586,1.757812 -0.43955,0.100468 -0.85399,0.176063 -1.25586,0.201172 -0.37676,0.03766 -0.74127,0.04883 -1.10547,0.04883 -0.40187,0 -0.7901,-0.01115 -1.1543,-0.04883 -0.37675,-0.06279 -0.74127,-0.175745 -1.10547,-0.351563 0.10047,-0.602809 0.26334,-1.069121 0.50196,-1.408203 0.26373,-0.364197 0.62824,-0.613808 1.10547,-0.751953 z m 43.48828,10.347657 -1.8086,2.61133 2.86328,1.91015 1.75782,-2.61328 z m 5.07422,0 -1.75782,2.61133 2.8125,1.91015 1.75782,-2.61328 z"
                   style="fill:#ffffff;stroke:none;stroke-width:3.21499"
                   id="path6252" />
              </g>
            </g>
            <g
               transform="matrix(0.60280972,0,0,0.60280972,223.8597,184.60522)"
               id="g5883"
               style="fill:#ffffff;fill-opacity:1">
              <g
                 transform="translate(308.04001,575.40002)"
                 id="use5881"
                 style="fill:#ffffff">
                <path
                   style="fill:#ffffff;stroke:none"
                   d="m 5.203125,-3.296875 c 0.175781,0.449219 0.304688,0.867187 0.390625,1.25 0.09375,0.386719 0.140625,0.75 0.140625,1.09375 0,0.96875 -0.304687,1.796875 -0.90625,2.484375 C 4.234375,2.21875 3.519531,2.5625 2.6875,2.5625 2.03125,2.5625 1.484375,2.332031 1.046875,1.875 0.617188,1.414063 0.40625,0.828125 0.40625,0.109375 c 0,-0.28125 0.039063,-0.570313 0.125,-0.875 C 0.613281,-1.066406 0.75,-1.40625 0.9375,-1.78125 h 0.234375 c -0.054687,0.179687 -0.089844,0.34375 -0.109375,0.5 -0.023437,0.148437 -0.03125,0.292969 -0.03125,0.4375 0,0.492187 0.160156,0.8828125 0.484375,1.1875 0.332031,0.300781 0.769531,0.453125 1.3125,0.453125 0.769531,0 1.34375,-0.121094 1.71875,-0.359375 C 4.929688,0.207031 5.125,-0.140625 5.125,-0.609375 5.125,-0.867188 5.066406,-1.15625 4.953125,-1.46875 4.847656,-1.78125 4.691406,-2.09375 4.484375,-2.40625 Z M 2.65625,-4.625 3.625,-3.953125 3,-3.03125 2.015625,-3.703125 Z m 0,0"
                   id="path6268" />
              </g>
            </g>
            <g
               transform="matrix(0.60280972,0,0,0.60280972,223.8597,184.60522)"
               id="g5895"
               style="fill:#ffffff;fill-opacity:1">
              <g
                 transform="translate(271.56,575.40002)"
                 id="use5893"
                 style="fill:#ffffff">
                <path
                   style="fill:#ffffff;stroke:none"
                   d="m 5.203125,-3.296875 c 0.175781,0.449219 0.304688,0.867187 0.390625,1.25 0.09375,0.386719 0.140625,0.75 0.140625,1.09375 0,0.96875 -0.304687,1.796875 -0.90625,2.484375 C 4.234375,2.21875 3.519531,2.5625 2.6875,2.5625 2.03125,2.5625 1.484375,2.332031 1.046875,1.875 0.617188,1.414063 0.40625,0.828125 0.40625,0.109375 c 0,-0.28125 0.039063,-0.570313 0.125,-0.875 C 0.613281,-1.066406 0.75,-1.40625 0.9375,-1.78125 h 0.234375 c -0.054687,0.179687 -0.089844,0.34375 -0.109375,0.5 -0.023437,0.148437 -0.03125,0.292969 -0.03125,0.4375 0,0.492187 0.160156,0.8828125 0.484375,1.1875 0.332031,0.300781 0.769531,0.453125 1.3125,0.453125 0.769531,0 1.34375,-0.121094 1.71875,-0.359375 C 4.929688,0.207031 5.125,-0.140625 5.125,-0.609375 5.125,-0.867188 5.066406,-1.15625 4.953125,-1.46875 4.847656,-1.78125 4.691406,-2.09375 4.484375,-2.40625 Z M 2.65625,-4.625 3.625,-3.953125 3,-3.03125 2.015625,-3.703125 Z m 0,0"
                   id="path6272" />
              </g>
            </g>
            <g
               transform="matrix(0.60280972,0,0,0.60280972,223.8597,184.60522)"
               id="g5899"
               style="fill:#ffffff;fill-opacity:1">
              <g
                 transform="translate(277.71509,575.40002)"
                 id="use5897"
                 style="fill:#ffffff">
                <path
                   transform="matrix(0.31104338,0,0,0.31104338,-146.02587,-31.462864)"
                   d="m 546.23047,79.751953 -2.05859,2.964844 0.65234,0.501953 V 94.873047 H 540.14648 539.5 539.4434 c -0.57769,0 -0.99213,-0.09985 -1.25586,-0.300781 -0.23861,-0.200937 -0.40148,-0.552346 -0.50195,-1.054688 l -1.00586,-5.224609 -2.46094,3.617187 0.60352,2.962891 h -6.42188 -0.18555 -0.41601 c -0.57769,0 -0.97902,-0.126058 -1.20508,-0.402344 -0.23861,-0.263728 -0.35352,-0.877857 -0.35352,-1.857422 v -0.955078 l -2.66211,1.255859 v 0.652344 c 0,0.502342 -0.1255,0.855704 -0.35156,1.056641 -0.20093,0.175818 -0.58916,0.25 -1.15429,0.25 h -3.31641 v -3.214844 l -2.66211,1.255859 v 0.652344 c 0,0.502342 -0.12551,0.855704 -0.35156,1.056641 -0.20094,0.175818 -0.59112,0.25 -1.15625,0.25 h -3.41406 v -3.214844 l -2.66407,1.255859 v 0.652344 c 0,0.502342 -0.1255,0.855704 -0.35156,1.056641 -0.20094,0.175818 -0.58916,0.25 -1.1543,0.25 h -2.82031 -0.70312 c -0.5777,0 -0.99214,-0.09985 -1.25586,-0.300781 -0.23862,-0.200937 -0.40149,-0.552346 -0.50196,-1.054688 l -1.00586,-5.224609 -2.46093,3.617187 0.60351,2.962891 h -5.55664 -0.42187 -8.74024 -0.31836 -1.79101 c -0.43955,-2.134953 -1.12926,-3.842078 -2.0586,-5.123047 -0.94189,-1.306088 -1.9593,-1.958984 -3.06445,-1.958984 -1.30609,0 -2.43785,0.92817 -3.36719,2.761718 -0.90421,1.80843 -1.35547,4.057455 -1.35547,6.732422 0,1.280969 0.35141,2.2465 1.05469,2.912114 0.70328,0.64048 1.7338,0.95507 3.11524,0.95507 h 3.76757 c -0.40187,1.87123 -1.43184,3.31563 -3.06445,4.32032 -1.60749,1.0298 -3.69169,1.55664 -6.22852,1.55664 -0.0753,0 -0.27699,-0.0237 -0.60351,-0.0488 h -0.75391 v 0.9043 c 1.16795,0.82886 2.2852,1.46865 3.36524,1.9082 1.06747,0.42699 2.02186,0.65234 2.86328,0.65234 1.70796,0 3.13981,-0.84143 4.32031,-2.51172 1.16794,-1.64517 1.90953,-3.90534 2.21094,-6.78125 h 1.58984 0.31836 8.74024 0.42187 2.64258 c 0.7284,0 1.23153,-0.0742 1.50781,-0.25 0.26373,-0.16326 0.52645,-0.55344 0.80274,-1.156246 l 1.10547,-2.460938 h 0.30078 c 0.16326,1.142828 0.5777,2.084091 1.25586,2.812504 0.70327,0.70327 1.45797,1.05468 2.26171,1.05468 h 1.00391 3.72461 l 1.9082,-1.857418 1.95899,1.857418 h 3.66797 l 1.95898,-1.857418 1.9082,1.857418 h 3.7168 l 1.91016,-1.857418 1.95898,1.857418 h 1.32031 0.18555 3.50781 c 0.7284,0 1.23153,-0.0742 1.50782,-0.25 0.26372,-0.16326 0.52644,-0.55344 0.80273,-1.156246 l 1.10547,-2.460938 h 0.30078 c 0.16326,1.142828 0.5777,2.084099 1.25586,2.812504 0.70328,0.70327 1.45797,1.05468 2.26172,1.05468 h 0.35742 0.64648 4.17579 c 0.62792,0 1.05492,-0.0742 1.25585,-0.25 0.20094,-0.16326 0.40258,-0.50351 0.60352,-1.005856 l 1.80859,-4.470703 V 83.822266 l 1.35547,-1.910157 z M 531.75781,81.863281 530,84.474609 l 2.8125,1.910157 1.75781,-2.613282 z m 5.07227,0 -1.75781,2.611328 2.81445,1.910157 1.80859,-2.613282 z m -60.52735,10.951172 c 0.56514,0.03768 1.06827,0.226211 1.50782,0.552735 0.46466,0.339079 0.96584,0.928947 1.50586,1.757812 -0.43955,0.100468 -0.85399,0.176063 -1.25586,0.201172 -0.37676,0.03766 -0.74128,0.04883 -1.10547,0.04883 -0.40188,0 -0.7901,-0.01115 -1.1543,-0.04883 -0.37675,-0.06279 -0.74127,-0.175745 -1.10547,-0.351563 0.10047,-0.602809 0.26334,-1.069121 0.50196,-1.408203 0.26372,-0.364197 0.62824,-0.613808 1.10546,-0.751953 z m 18.9375,10.347657 -1.75781,2.61133 2.8125,1.91015 1.75781,-2.61328 z m 5.12305,0 -1.80859,2.61133 2.86328,1.91015 1.75976,-2.61328 z"
                   style="fill:#ffffff;stroke:none;stroke-width:3.21499"
                   id="path6276" />
              </g>
            </g>
            <path
               id="path5925"
               d="m 384.24241,540.19047 h 1.17501 c 0.16483,0 0.30611,-0.0447 0.41679,-0.13422 0.11302,-0.0895 0.16954,-0.23782 0.16954,-0.44739 0,-0.1978 -0.0565,-0.34379 -0.16954,-0.43327 -0.11068,-0.0895 -0.25196,-0.13423 -0.41679,-0.13423 h -1.17501 z m -0.92305,-1.96148 h 2.39005 c 0.20015,0 0.3791,0.0353 0.53452,0.10125 0.15541,0.0659 0.28728,0.15541 0.39324,0.26844 0.10596,0.11303 0.18838,0.24489 0.24489,0.39559 0.0541,0.15306 0.0824,0.31318 0.0824,0.48508 0,0.29905 -0.0565,0.53452 -0.17425,0.70406 -0.11539,0.17189 -0.27551,0.30376 -0.48037,0.39324 0.13657,0.0589 0.24018,0.12715 0.31083,0.20015 0.073,0.0754 0.1248,0.1719 0.15776,0.29199 0.033,0.11773 0.0542,0.26373 0.0612,0.44033 0.009,0.17425 0.0165,0.39088 0.0259,0.64755 0.005,0.16719 0.0259,0.27786 0.0612,0.33201 0.0377,0.0541 0.0777,0.0871 0.12009,0.0989 v 0.13892 h -1.03608 c -0.0424,-0.0753 -0.0706,-0.17896 -0.0824,-0.31318 -0.0118,-0.13421 -0.0212,-0.27314 -0.0236,-0.41914 -0.005,-0.14364 -0.009,-0.28257 -0.0141,-0.41207 -0.005,-0.12716 -0.0212,-0.22606 -0.0494,-0.29199 -0.0542,-0.12245 -0.12716,-0.20722 -0.22135,-0.25902 -0.0942,-0.0518 -0.21902,-0.0777 -0.37915,-0.0777 h -0.9984 v 1.77311 h -0.92305 z m 4.3633,0 h 0.87596 v 0.81237 h -0.87596 z m 0,1.23623 h 0.87596 v 3.26129 h -0.87596 z m 3.54151,0.98663 c -0.009,-0.0494 -0.0236,-0.0989 -0.04,-0.146 -0.0188,-0.0471 -0.0518,-0.0895 -0.0989,-0.12715 -0.04,-0.0377 -0.0989,-0.0683 -0.1719,-0.0918 -0.0706,-0.0212 -0.16954,-0.033 -0.28963,-0.033 -0.13658,0 -0.25431,0.0212 -0.35321,0.0683 -0.0965,0.0447 -0.14599,0.11067 -0.14599,0.19309 0,0.10831 0.0494,0.18838 0.1507,0.23783 0.0989,0.0494 0.22605,0.0918 0.37676,0.1248 0.15305,0.033 0.31553,0.0659 0.48978,0.0965 0.1766,0.0306 0.33908,0.0801 0.48978,0.1507 0.15306,0.0683 0.27786,0.16248 0.37911,0.28021 0.0989,0.11774 0.14835,0.28257 0.14835,0.48979 0,0.18367 -0.033,0.34379 -0.10125,0.48507 -0.0683,0.13893 -0.16483,0.25667 -0.28728,0.35086 -0.12245,0.0965 -0.27079,0.16954 -0.44269,0.21898 -0.17425,0.0494 -0.36498,0.0754 -0.5722,0.0754 -0.29905,0 -0.551,-0.033 -0.75351,-0.0989 -0.20015,-0.0683 -0.36498,-0.15542 -0.48978,-0.26373 -0.1248,-0.10832 -0.21428,-0.23077 -0.2708,-0.37205 -0.0565,-0.13893 -0.0871,-0.28021 -0.0918,-0.4262 h 0.89951 c 0.005,0.0447 0.0141,0.0965 0.0283,0.14834 0.0141,0.0541 0.0471,0.10596 0.0942,0.15306 0.0471,0.0494 0.12009,0.0895 0.21428,0.12244 0.0965,0.033 0.22605,0.0494 0.38853,0.0494 0.14599,0 0.27079,-0.0236 0.37675,-0.073 0.10597,-0.0518 0.16013,-0.12716 0.16013,-0.23312 0,-0.1036 -0.0494,-0.18131 -0.1507,-0.23547 -0.0989,-0.0542 -0.22606,-0.0989 -0.37676,-0.13186 -0.15306,-0.033 -0.31553,-0.0659 -0.48978,-0.0989 -0.17661,-0.0353 -0.33908,-0.0848 -0.48979,-0.1507 -0.15306,-0.0659 -0.27786,-0.15777 -0.37911,-0.27079 -0.0989,-0.11538 -0.1507,-0.2755 -0.1507,-0.47801 0,-0.15541 0.0283,-0.29905 0.0824,-0.43091 0.0541,-0.13422 0.13893,-0.2496 0.25196,-0.35086 0.11538,-0.0989 0.26137,-0.1766 0.43798,-0.23312 0.1766,-0.0565 0.38853,-0.0848 0.63342,-0.0848 0.30376,0 0.5463,0.04 0.72761,0.12244 0.18131,0.0801 0.32024,0.17896 0.41914,0.29199 0.0965,0.11538 0.16248,0.23312 0.19309,0.35792 0.0306,0.12244 0.0494,0.22605 0.0518,0.31317 z m 1.50938,-2.22286 h 0.87596 v 1.70011 h 0.0118 c 0.0494,-0.10832 0.11537,-0.20015 0.19308,-0.27315 0.0801,-0.073 0.16248,-0.12951 0.2496,-0.17425 0.0871,-0.0424 0.17661,-0.073 0.26844,-0.0895 0.0918,-0.0165 0.1766,-0.0259 0.2496,-0.0259 0.37205,0 0.65226,0.10596 0.84771,0.31553 0.19308,0.20957 0.28963,0.48978 0.28963,0.84064 v 2.20403 h -0.87361 v -1.9921 c 0,-0.12952 -0.0165,-0.23548 -0.0518,-0.31554 -0.033,-0.0824 -0.0754,-0.14599 -0.12715,-0.19308 -0.0518,-0.0494 -0.11303,-0.0801 -0.18367,-0.0965 -0.0706,-0.0188 -0.14364,-0.0259 -0.21899,-0.0259 -0.0777,0 -0.15777,0.0141 -0.23783,0.0447 -0.0777,0.0283 -0.14834,0.0801 -0.21192,0.1507 -0.0612,0.073 -0.11303,0.1719 -0.14835,0.29199 -0.0377,0.12009 -0.0565,0.27079 -0.0565,0.44975 v 1.68599 h -0.87596 z m 4.57052,2.86805 c 0,0.12009 0.0165,0.24019 0.0447,0.35792 0.0283,0.11773 0.073,0.2237 0.13422,0.31789 0.0612,0.0942 0.13893,0.16954 0.23783,0.22841 0.0965,0.0589 0.21428,0.0871 0.35321,0.0871 0.13657,0 0.25431,-0.0283 0.35085,-0.0871 0.0989,-0.0589 0.17896,-0.13423 0.23783,-0.22841 0.0612,-0.0942 0.10596,-0.20016 0.13422,-0.31789 0.0306,-0.11773 0.0447,-0.23783 0.0447,-0.35792 0,-0.1248 -0.0141,-0.24725 -0.0447,-0.36733 -0.0283,-0.11774 -0.073,-0.22371 -0.13422,-0.31789 -0.0589,-0.0942 -0.13893,-0.16719 -0.23783,-0.2237 -0.0965,-0.0565 -0.21428,-0.0848 -0.35085,-0.0848 -0.13893,0 -0.25667,0.0283 -0.35321,0.0848 -0.0989,0.0565 -0.17661,0.12951 -0.23783,0.2237 -0.0612,0.0942 -0.10596,0.20015 -0.13422,0.31789 -0.0283,0.12008 -0.0447,0.24253 -0.0447,0.36733 z m 0.77,1.72837 c -0.2496,0 -0.47801,-0.04 -0.68052,-0.11773 -0.20486,-0.0801 -0.38146,-0.1931 -0.52745,-0.34144 -0.14835,-0.14835 -0.26138,-0.32731 -0.34144,-0.54394 -0.0801,-0.21428 -0.11774,-0.45682 -0.11774,-0.72526 0,-0.27079 0.0377,-0.51333 0.11774,-0.72761 0.0801,-0.21428 0.19309,-0.39559 0.34144,-0.54394 0.14599,-0.14835 0.32259,-0.26138 0.52745,-0.34143 0.20251,-0.0777 0.43092,-0.11774 0.68052,-0.11774 0.2496,0 0.47565,0.04 0.68051,0.11774 0.20251,0.0801 0.37912,0.19308 0.52746,0.34143 0.146,0.14835 0.26138,0.32966 0.33908,0.54394 0.0801,0.21428 0.12009,0.45682 0.12009,0.72761 0,0.26844 -0.04,0.51098 -0.12009,0.72526 -0.0777,0.21663 -0.19308,0.39559 -0.33908,0.54394 -0.14834,0.14834 -0.32495,0.26137 -0.52746,0.34144 -0.20486,0.0777 -0.43091,0.11773 -0.68051,0.11773 z m 2.29115,-3.36019 h 0.83593 v 0.48742 h 0.0118 c 0.0588,-0.11537 0.12951,-0.21192 0.21428,-0.28963 0.0824,-0.0777 0.16954,-0.13657 0.26137,-0.18131 0.0918,-0.0424 0.18367,-0.073 0.27551,-0.0895 0.0895,-0.0165 0.17425,-0.0259 0.2496,-0.0259 0.36969,0 0.65225,0.10596 0.84535,0.31553 0.19308,0.20957 0.28963,0.48978 0.28963,0.84064 v 2.20403 h -0.87361 v -1.9921 c 0,-0.12952 -0.0165,-0.23548 -0.0494,-0.31554 -0.033,-0.0824 -0.0753,-0.14599 -0.12951,-0.19308 -0.0518,-0.0494 -0.11303,-0.0801 -0.18367,-0.0965 -0.0706,-0.0188 -0.14364,-0.0259 -0.21899,-0.0259 -0.0777,0 -0.15777,0.0141 -0.23547,0.0447 -0.0801,0.0283 -0.1507,0.0801 -0.21428,0.1507 -0.0612,0.073 -0.11067,0.1719 -0.14834,0.29199 -0.0377,0.12009 -0.0565,0.27079 -0.0565,0.44975 v 1.68599 h -0.8736 z m 5.93626,-1.23623 h 0.92541 v 3.68514 h 2.21109 v 0.81238 h -3.1365 z m 5.80204,2.47481 c -0.009,-0.0753 -0.0259,-0.1507 -0.0494,-0.22605 -0.0259,-0.0754 -0.0636,-0.14129 -0.11303,-0.20015 -0.0494,-0.0589 -0.11302,-0.10597 -0.19072,-0.14364 -0.0777,-0.0377 -0.1719,-0.0565 -0.28493,-0.0565 -0.10832,0 -0.20015,0.0165 -0.28021,0.0518 -0.0801,0.033 -0.14599,0.0777 -0.20016,0.13423 -0.0541,0.0541 -0.0942,0.12009 -0.1248,0.19544 -0.0283,0.0753 -0.0471,0.15541 -0.0565,0.24489 z m 0.88538,1.04786 c -0.0377,0.11302 -0.0918,0.23312 -0.16248,0.35792 -0.0706,0.12715 -0.16483,0.24489 -0.28256,0.35085 -0.1201,0.10596 -0.26373,0.19308 -0.43798,0.26137 -0.1719,0.0683 -0.37676,0.10361 -0.61458,0.10361 -0.49214,0 -0.87832,-0.14835 -1.16088,-0.44269 -0.28257,-0.29669 -0.42621,-0.71348 -0.42621,-1.25507 0,-0.29198 0.04,-0.54629 0.11538,-0.76528 0.0777,-0.21899 0.18603,-0.40266 0.32495,-0.54866 0.14129,-0.14834 0.30612,-0.25901 0.50156,-0.33436 0.19309,-0.0753 0.40737,-0.11303 0.6452,-0.11303 0.26608,0 0.49449,0.0471 0.68757,0.14128 0.19074,0.0918 0.34615,0.22605 0.4686,0.39795 0.12009,0.17425 0.20956,0.38147 0.26843,0.62165 0.0565,0.24253 0.0871,0.50862 0.0871,0.8006 h -2.22286 c 0.002,0.10832 0.0188,0.20958 0.0471,0.30612 0.0259,0.0942 0.0683,0.17896 0.1248,0.2496 0.0541,0.0706 0.1295,0.12716 0.22369,0.16718 0.0942,0.0424 0.21193,0.0636 0.35321,0.0636 0.0965,0 0.17661,-0.0118 0.24019,-0.0353 0.0636,-0.0236 0.11773,-0.0518 0.16247,-0.0871 0.0424,-0.0353 0.0801,-0.0754 0.10831,-0.11774 0.0306,-0.0447 0.0542,-0.0848 0.0754,-0.12244 z m 1.79901,-2.7103 h -1.34926 v -0.81237 h 3.62157 v 0.81237 h -1.34926 v 3.68515 h -0.92305 z m 4.72123,1.41049 c -0.009,-0.0494 -0.0236,-0.0989 -0.0424,-0.146 -0.0188,-0.0471 -0.0494,-0.0895 -0.0966,-0.12715 -0.04,-0.0377 -0.0989,-0.0683 -0.1719,-0.0918 -0.073,-0.0212 -0.16954,-0.033 -0.28962,-0.033 -0.13658,0 -0.25431,0.0212 -0.35321,0.0683 -0.0965,0.0447 -0.146,0.11067 -0.146,0.19309 0,0.10831 0.0494,0.18838 0.15071,0.23783 0.0989,0.0494 0.22605,0.0918 0.37675,0.1248 0.15306,0.033 0.31554,0.0659 0.48979,0.0965 0.17424,0.0306 0.33908,0.0801 0.48978,0.1507 0.15306,0.0683 0.27786,0.16248 0.37911,0.28021 0.0989,0.11774 0.14835,0.28257 0.14835,0.48979 0,0.18367 -0.033,0.34379 -0.10126,0.48507 -0.0706,0.13893 -0.16483,0.25667 -0.28727,0.35086 -0.12245,0.0965 -0.2708,0.16954 -0.44504,0.21898 -0.1719,0.0494 -0.36263,0.0754 -0.56985,0.0754 -0.29905,0 -0.55101,-0.033 -0.75351,-0.0989 -0.20016,-0.0683 -0.36498,-0.15542 -0.48978,-0.26373 -0.12481,-0.10832 -0.21428,-0.23077 -0.2708,-0.37205 -0.0565,-0.13893 -0.0871,-0.28021 -0.0918,-0.4262 h 0.8995 c 0.005,0.0447 0.0141,0.0965 0.0283,0.14834 0.0141,0.0541 0.0471,0.10596 0.0942,0.15306 0.0471,0.0494 0.12009,0.0895 0.21428,0.12244 0.0965,0.033 0.22605,0.0494 0.38853,0.0494 0.14599,0 0.27079,-0.0236 0.37676,-0.073 0.10596,-0.0518 0.16012,-0.12716 0.16012,-0.23312 0,-0.1036 -0.0494,-0.18131 -0.15071,-0.23547 -0.0989,-0.0542 -0.22605,-0.0989 -0.37675,-0.13186 -0.15306,-0.033 -0.31554,-0.0659 -0.48978,-0.0989 -0.17661,-0.0353 -0.33908,-0.0848 -0.49214,-0.1507 -0.15071,-0.0659 -0.27786,-0.15777 -0.37676,-0.27079 -0.0989,-0.11538 -0.1507,-0.2755 -0.1507,-0.47801 0,-0.15541 0.0283,-0.29905 0.0824,-0.43091 0.0542,-0.13422 0.13893,-0.2496 0.25196,-0.35086 0.11538,-0.0989 0.26138,-0.1766 0.43798,-0.23312 0.1766,-0.0565 0.38853,-0.0848 0.63342,-0.0848 0.30376,0 0.5463,0.04 0.72761,0.12244 0.18132,0.0801 0.32025,0.17896 0.41914,0.29199 0.0965,0.11538 0.16012,0.23312 0.19309,0.35792 0.0306,0.12244 0.0494,0.22605 0.0518,0.31317 z m 1.50466,-2.22286 h 0.87361 v 0.81237 h -0.87361 z m 0,1.23623 h 0.87361 v 3.26129 h -0.87361 z m 3.67809,3.03524 c -0.12716,0.35321 -0.23077,0.63342 -0.31554,0.83592 -0.0871,0.20487 -0.17189,0.36028 -0.25666,0.46624 -0.0848,0.10596 -0.18131,0.17425 -0.28963,0.20251 -0.10832,0.0306 -0.2496,0.0447 -0.41914,0.0447 -0.0824,0 -0.16248,-0.002 -0.24019,-0.007 -0.0777,-0.005 -0.1507,-0.009 -0.22134,-0.0188 v -0.68759 c 0.11538,0 0.21664,-0.002 0.3014,-0.0118 0.0871,-0.007 0.15777,-0.0283 0.21664,-0.0588 0.0588,-0.0306 0.10361,-0.0777 0.13657,-0.14128 0.033,-0.0612 0.0588,-0.14835 0.0754,-0.26137 l -1.19855,-3.39787 h 0.96073 l 0.69464,2.46068 h 0.0118 l 0.6923,-2.46068 h 0.9254 z m 2.30998,-1.40342 c 0,0.12009 0.0141,0.24019 0.0424,0.35792 0.0306,0.11773 0.0754,0.2237 0.13422,0.31789 0.0612,0.0942 0.13893,0.16954 0.23783,0.22841 0.0965,0.0589 0.21428,0.0871 0.3532,0.0871 0.13658,0 0.25432,-0.0283 0.35321,-0.0871 0.0966,-0.0589 0.17661,-0.13423 0.23548,-0.22841 0.0612,-0.0942 0.10596,-0.20016 0.13421,-0.31789 0.0306,-0.11773 0.0447,-0.23783 0.0447,-0.35792 0,-0.1248 -0.0141,-0.24725 -0.0447,-0.36733 -0.0283,-0.11774 -0.073,-0.22371 -0.13421,-0.31789 -0.0589,-0.0942 -0.13893,-0.16719 -0.23548,-0.2237 -0.0989,-0.0565 -0.21663,-0.0848 -0.35321,-0.0848 -0.13892,0 -0.25666,0.0283 -0.3532,0.0848 -0.0989,0.0565 -0.17661,0.12951 -0.23783,0.2237 -0.0589,0.0942 -0.10361,0.20015 -0.13422,0.31789 -0.0283,0.12008 -0.0424,0.24253 -0.0424,0.36733 z m 0.76764,1.72837 c -0.2496,0 -0.478,-0.04 -0.68051,-0.11773 -0.20487,-0.0801 -0.38147,-0.1931 -0.52746,-0.34144 -0.14835,-0.14835 -0.26138,-0.32731 -0.34144,-0.54394 -0.0777,-0.21428 -0.11773,-0.45682 -0.11773,-0.72526 0,-0.27079 0.04,-0.51333 0.11773,-0.72761 0.0801,-0.21428 0.19309,-0.39559 0.34144,-0.54394 0.14599,-0.14835 0.32259,-0.26138 0.52746,-0.34143 0.20251,-0.0777 0.43091,-0.11774 0.68051,-0.11774 0.2496,0 0.47566,0.04 0.68052,0.11774 0.2025,0.0801 0.37911,0.19308 0.52746,0.34143 0.14834,0.14835 0.26137,0.32966 0.33908,0.54394 0.0801,0.21428 0.12009,0.45682 0.12009,0.72761 0,0.26844 -0.04,0.51098 -0.12009,0.72526 -0.0777,0.21663 -0.19074,0.39559 -0.33908,0.54394 -0.14835,0.14834 -0.32496,0.26137 -0.52746,0.34144 -0.20486,0.0777 -0.43092,0.11773 -0.68052,0.11773 z m 2.29115,-3.36019 h 0.83592 v 0.48742 h 0.0141 c 0.0565,-0.11537 0.12716,-0.21192 0.21192,-0.28963 0.0824,-0.0777 0.16954,-0.13657 0.26138,-0.18131 0.0918,-0.0424 0.18367,-0.073 0.2755,-0.0895 0.0918,-0.0165 0.17425,-0.0259 0.2496,-0.0259 0.36969,0 0.65226,0.10596 0.84535,0.31553 0.19309,0.20957 0.28963,0.48978 0.28963,0.84064 v 2.20403 h -0.8736 v -1.9921 c 0,-0.12952 -0.0165,-0.23548 -0.0494,-0.31554 -0.033,-0.0824 -0.0754,-0.14599 -0.12715,-0.19308 -0.0518,-0.0494 -0.11538,-0.0801 -0.18603,-0.0965 -0.0706,-0.0188 -0.14363,-0.0259 -0.21663,-0.0259 -0.0801,0 -0.16012,0.0141 -0.23782,0.0447 -0.0801,0.0283 -0.15071,0.0801 -0.21193,0.1507 -0.0636,0.073 -0.11303,0.1719 -0.15071,0.29199 -0.0377,0.12009 -0.0565,0.27079 -0.0565,0.44975 v 1.68599 h -0.8736 z m 0,0"
               style="fill:#ffffff;fill-opacity:1;fill-rule:nonzero;stroke:none;stroke-width:0.60281" />
          </g>
        </g>
      </g>
      <g
         transform="translate(3.495295,-2.6458334)"
         id="g12864">
        <path
           d="m 181.53187,171.96186 c -1.59143,0 -2.87262,1.28118 -2.87262,2.87261 v 10.21375 c 0,1.59143 1.28119,2.87261 2.87262,2.87261 h 16.15049 c 1.59143,0 2.87261,-1.28118 2.87261,-2.87261 v -10.21375 c 0,-1.59143 -1.28118,-2.87261 -2.87261,-2.87261 z"
           style="opacity:1;fill:#ffffff;fill-opacity:1;fill-rule:nonzero;stroke:none;stroke-width:0.0319179;stroke-linejoin:miter;stroke-miterlimit:4;stroke-dasharray:none;stroke-opacity:1"
           id="rect7087" />
        <path
           id="rect7162"
           d="m 181.53187,172.9194 c -1.06095,0 -1.91508,0.85412 -1.91508,1.91507 v 10.21375 c 0,1.06096 0.85413,1.91508 1.91508,1.91508 h 16.15049 c 1.06094,0 1.91507,-0.85412 1.91507,-1.91508 v -10.21375 c 0,-1.06095 -0.85413,-1.91507 -1.91507,-1.91507 z m 8.07524,1.18096 7.8199,0.95754 0.95754,4.88345 -0.95754,4.88345 -7.8199,0.95754 -7.88373,-0.95754 -0.8937,-4.88345 0.8937,-4.88345 z"
           style="opacity:1;fill:#01553b;fill-opacity:1;fill-rule:nonzero;stroke:none;stroke-width:0.015959;stroke-linejoin:miter;stroke-miterlimit:4;stroke-dasharray:none;stroke-opacity:1" />
        <g
           aria-label="441"
           style="font-style:normal;font-variant:normal;font-weight:bold;font-stretch:normal;font-size:73.4954px;line-height:125%;font-family:Helvetica;-inkscape-font-specification:'Helvetica Bold';text-align:center;letter-spacing:0px;word-spacing:0px;writing-mode:lr-tb;text-anchor:middle;fill:#01553b;fill-opacity:1;stroke:none;stroke-width:0.264583px;stroke-linecap:butt;stroke-linejoin:miter;stroke-opacity:1"
           id="text7197"
           transform="matrix(0.12063479,0,0,0.12063479,178.64329,171.9459)">
          <path
             d="m 40.555545,73.480671 h 12.86169 V 51.873033 h -0.146991 z m 12.86169,8.084491 H 32.985522 V 72.451736 L 52.094318,41.583681 h 11.318287 v 31.89699 h 5.732638 v 8.084491 h -5.732638 v 11.171296 h -9.99537 z"
             style="font-style:normal;font-variant:normal;font-weight:bold;font-stretch:normal;font-family:Triumvirate;-inkscape-font-specification:'Triumvirate Bold';fill:#01553b;fill-opacity:1;stroke-width:0.264583px"
             id="path5886" />
          <path
             d="m 82.757964,73.480671 h 12.86169 V 51.873033 h -0.146991 z m 12.86169,8.084491 H 75.187941 V 72.451736 L 94.296737,41.583681 h 11.318283 v 31.89699 h 5.73264 v 8.084491 h -5.73264 v 11.171296 h -9.995366 z"
             style="font-style:normal;font-variant:normal;font-weight:bold;font-stretch:normal;font-family:Triumvirate;-inkscape-font-specification:'Triumvirate Bold';fill:#01553b;fill-opacity:1;stroke-width:0.264583px"
             id="path5888" />
          <path
             d="m 127.81063,57.458681 h -11.90625 v -7.055556 q 1.98437,-0.0735 4.26273,-0.220486 2.27835,-0.220486 4.26273,-1.028935 2.05787,-0.881944 3.52778,-2.572338 1.5434,-1.763889 2.05787,-4.997685 h 8.08449 v 51.152777 h -10.28935 z"
             style="font-style:normal;font-variant:normal;font-weight:bold;font-stretch:normal;font-family:Triumvirate;-inkscape-font-specification:'Triumvirate Bold';fill:#01553b;fill-opacity:1;stroke-width:0.264583px"
             id="path5890" />
        </g>
      </g>
    </g>
    <g
       transform="matrix(1.1637979,0,0,1.1638008,-355.81589,-358.24826)"
       style="fill:#ffffff;fill-opacity:1"
       id="g15240">
      <g
         style="fill:#ffffff"
         id="use15238"
         transform="translate(298.3779,468.48001)" />
    </g>
    <g
       transform="matrix(1.1637979,0,0,1.1638008,-355.60414,-358.24826)"
       style="fill:#ffffff;fill-opacity:1"
       id="g15248">
      <g
         style="fill:#ffffff"
         id="use15246"
         transform="translate(304.18622,468.48001)" />
    </g>
    <g
       transform="matrix(1.1637979,0,0,1.1638008,-355.81589,-358.24826)"
       style="fill:#ffffff;fill-opacity:1"
       id="g15252">
      <g
         style="fill:#ffffff"
         id="use15250"
         transform="translate(306.2229,468.48001)" />
    </g>
    <g
       transform="matrix(1.1637979,0,0,1.1638008,-355.81589,-358.24826)"
       style="fill:#ffffff;fill-opacity:1"
       id="g15256">
      <g
         style="fill:#ffffff"
         id="use15254"
         transform="translate(308.18414,468.48001)" />
    </g>
    <g
       transform="matrix(1.1657249,0,0,1.165728,-304.79379,-441.42982)"
       id="g13998"
       style="fill:#ffffff;fill-opacity:1">
      <g
         style="fill:#ffffff"
         transform="translate(305.40848,539.03998)"
         id="use13996" />
    </g>
  </g>
</svg>
