<?xml version="1.0" encoding="UTF-8" standalone="no"?>
<svg
   inkscape:version="1.2.2 (732a01da63, 2022-12-09)"
   sodipodi:docname="Israel_road_sign_504.svg"
   viewBox="0 0 400.01996 518.45239"
   height="518.45239"
   width="400.01996"
   id="svg15165"
   version="1.1"
   xmlns:inkscape="http://www.inkscape.org/namespaces/inkscape"
   xmlns:sodipodi="http://sodipodi.sourceforge.net/DTD/sodipodi-0.dtd"
   xmlns="http://www.w3.org/2000/svg"
   xmlns:svg="http://www.w3.org/2000/svg"
   xmlns:rdf="http://www.w3.org/1999/02/22-rdf-syntax-ns#"
   xmlns:cc="http://creativecommons.org/ns#"
   xmlns:dc="http://purl.org/dc/elements/1.1/">
  <metadata
     id="metadata15171">
    <rdf:RDF>
      <cc:Work
         rdf:about="">
        <dc:format>image/svg+xml</dc:format>
        <dc:type
           rdf:resource="http://purl.org/dc/dcmitype/StillImage" />
        <dc:title />
      </cc:Work>
    </rdf:RDF>
  </metadata>
  <defs
     id="defs15169" />
  <sodipodi:namedview
     inkscape:current-layer="g15173"
     inkscape:window-maximized="1"
     inkscape:window-y="-9"
     inkscape:window-x="-9"
     inkscape:cy="178.73494"
     inkscape:cx="-364.6988"
     inkscape:zoom="2.7666667"
     showgrid="false"
     id="namedview15167"
     inkscape:window-height="991"
     inkscape:window-width="1920"
     inkscape:pageshadow="2"
     inkscape:pageopacity="0"
     guidetolerance="10"
     gridtolerance="10"
     objecttolerance="10"
     borderopacity="1"
     bordercolor="#666666"
     pagecolor="#ffffff"
     inkscape:showpageshadow="2"
     inkscape:pagecheckerboard="0"
     inkscape:deskcolor="#d1d1d1" />
  <g
     transform="translate(-490.66174,29.177391)"
     id="g15173"
     inkscape:label="Image"
     inkscape:groupmode="layer">
    <rect
       style="opacity:0.5;fill:#000000;stroke-width:0.052781;paint-order:stroke fill markers"
       id="rect70812"
       width="399.99994"
       height="518.43243"
       x="490.67175"
       y="-29.167391" />
    <path
       id="path3323-3"
       style="fill:#070fdb;fill-opacity:1;stroke:none;stroke-width:0.02;stroke-miterlimit:4;stroke-dasharray:none;stroke-opacity:1;paint-order:stroke fill markers"
       d="M 490.67174,-29.167391 V 489.26503 H 890.6717 V -29.167391 Z"
       inkscape:connector-curvature="0"
       sodipodi:nodetypes="ccccc" />
    <path
       id="path3325-1"
       style="fill:#ffffff;fill-opacity:1;stroke:none;stroke-width:21.161;stroke-miterlimit:4;stroke-dasharray:none;stroke-opacity:1"
       d="M 500.07676,-19.762381 V 479.85467 H 881.26261 V -19.762381 Z m 11.03729,11.0373001 H 870.23108 V 468.82316 H 511.11405 Z"
       sodipodi:nodetypes="cccccccccc" />
    <g
       id="g21127"
       transform="matrix(1.5558779,1.5558779,-1.5558779,1.5558779,783.99046,-249.52735)">
      <g
         id="g21118">
        <g
           id="g21689"
           transform="rotate(-45,147.35303,206.59182)">
          <path
             style="color:#000000;fill:#ffffff;-inkscape-stroke:none;paint-order:stroke fill markers"
             d="m 100.5769,172.30335 0.9184,0.91841 82.12384,82.12382 12.46828,-12.46828 -83.04224,-83.04223 z m 3.67502,-0.001 8.79189,-8.79189 79.3672,79.36722 -8.79187,8.79188 z"
             id="path71968"
             sodipodi:nodetypes="ccccccccccc" />
          <path
             id="path71948"
             style="color:#000000;fill:#ffffff;-inkscape-stroke:none;paint-order:stroke fill markers"
             d="m 147.35302,142.37698 c -35.45355,0 -64.214842,28.76128 -64.214842,64.21485 1e-5,35.45354 28.761302,64.21483 64.214842,64.21484 35.45357,0 64.21485,-28.76129 64.21485,-64.21484 0,-35.45357 -28.76129,-64.21485 -64.21485,-64.21485 z m 0,1.90039 c 34.42673,0 62.31445,27.88772 62.31445,62.31446 0,34.42671 -27.88772,62.31445 -62.31445,62.31445 -34.42671,-10e-6 -62.314442,-27.88774 -62.314452,-62.31445 0,-34.42674 27.887732,-62.31446 62.314452,-62.31446 z" />
          <path
             id="path71950"
             style="color:#000000;fill:#c0111e;fill-opacity:1;stroke-width:1.9;-inkscape-stroke:none;paint-order:stroke fill markers"
             d="m 147.35302,143.3262 a 63.264847,63.264847 0 0 0 -63.265622,63.26563 63.264847,63.264847 0 0 0 63.265352,63.26394 63.264847,63.264847 0 0 0 63.26367,-63.26367 63.264847,63.264847 0 0 0 -63.26394,-63.26536 z m 0,16.66991 a 46.596024,46.596024 0 0 1 46.5957,46.59572 46.596024,46.596024 0 0 1 -46.5957,46.5957 46.596024,46.596024 0 0 1 -46.5957,-46.5957 46.596024,46.596024 0 0 1 46.5957,-46.59572 z" />
          <path
             id="path71954"
             style="color:#000000;fill:#ffffff;-inkscape-stroke:none;paint-order:stroke fill markers"
             d="m 147.35302,158.69533 c -26.43652,10e-6 -47.896482,21.45997 -47.896482,47.8965 0,26.43652 21.459962,47.89453 47.896212,47.89479 26.43653,1e-5 47.89454,-21.458 47.89453,-47.89453 0,-26.43653 -21.458,-47.89648 -47.8948,-47.89621 z m 0,1.30078 a 46.596024,46.596024 0 0 1 46.5957,46.59572 46.596024,46.596024 0 0 1 -46.5957,46.5957 46.596024,46.596024 0 0 1 -46.5957,-46.5957 46.596024,46.596024 0 0 1 46.5957,-46.59572 z" />
          <path
             style="color:#000000;fill:#c0111e;fill-opacity:1;stroke-width:2.599;-inkscape-stroke:none;paint-order:stroke fill markers"
             d="m 102.41383,172.30294 10.63031,-10.63032 81.20468,81.20466 -10.63033,10.63032 z"
             id="path71970"
             sodipodi:nodetypes="ccccc" />
          <rect
             style="fill:#ffffff;stroke:none;stroke-width:2.76001;stroke-dasharray:none;stroke-opacity:1;paint-order:stroke fill markers"
             id="rect71892"
             width="5.8427763"
             height="92.84108"
             x="-44.823677"
             y="203.86285"
             transform="rotate(-45)" />
        </g>
      </g>
    </g>
    <path
       id="rect627-6"
       style="fill:#ffff00;fill-opacity:1;fill-rule:evenodd;stroke:#000000;stroke-width:1.51979;stroke-miterlimit:4;stroke-dasharray:none;stroke-opacity:1;paint-order:stroke fill markers"
       d="m 667.21745,37.204054 c -53.51497,0 -96.59691,37.56052 -96.59691,84.216686 v 9.17123 h 253.66842 v -9.17123 c 0,-46.656166 -43.08381,-84.216686 -96.59878,-84.216686 z"
       sodipodi:nodetypes="ssccsss" />
    <path
       id="rect629-44"
       style="fill:#000000;fill-rule:evenodd;stroke-width:0.908709"
       d="m 665.65998,47.148574 c -47.47039,0 -85.686,33.97017 -85.686,76.166206 v 7.27719 h 9.52571 v -9.58828 c 0,-35.406116 35.11689,-63.910596 78.7374,-63.910596 h 58.43345 c 43.62108,0 78.73872,28.50448 78.73872,63.910596 v 9.58828 h 9.52626 v -7.27719 c 0,-42.196036 -38.21616,-76.166206 -85.686,-76.166206 z"
       sodipodi:nodetypes="ssccssssccsss" />
    <path
       inkscape:connector-curvature="0"
       id="path1083-8"
       style="font-style:normal;font-variant:normal;font-weight:bold;font-stretch:normal;font-size:medium;line-height:100%;font-family:'Times New Roman';-inkscape-font-specification:'Times New Roman, Bold';letter-spacing:0px;word-spacing:0px;fill:#000000;fill-opacity:1;stroke:none;stroke-width:7.37527px;stroke-linecap:butt;stroke-linejoin:miter;stroke-opacity:1"
       d="m 620.49769,91.892624 v 6.73281 h 4.37052 v 1.948986 h -4.37052 v 11.35915 q 0,1.59456 0.14192,2.06711 0.15491,0.45287 0.53112,0.74807 0.37624,0.27584 0.6858,0.27584 1.27968,0 2.42131,-1.949 l 0.59015,0.43296 q -1.59448,3.77982 -5.17816,3.77982 -1.75176,0 -2.9722,-0.96463 -1.20084,-0.98428 -1.53564,-2.18519 -0.19935,-0.66969 -0.19935,-3.62238 v -9.9417 h -2.40207 v -0.688816 q 2.48091,-1.75215 4.21344,-3.68144 1.75158,-1.92924 3.05123,-4.31137 z" />
    <path
       inkscape:connector-curvature="0"
       id="path1085-8"
       style="font-style:normal;font-variant:normal;font-weight:bold;font-stretch:normal;font-size:medium;line-height:100%;font-family:'Times New Roman';-inkscape-font-specification:'Times New Roman, Bold';letter-spacing:0px;word-spacing:0px;fill:#000000;fill-opacity:1;stroke:none;stroke-width:8.09564px;stroke-linecap:butt;stroke-linejoin:miter;stroke-opacity:1"
       d="m 637.76552,114.02517 q -3.69481,3.26304 -6.63434,3.26304 -1.72841,0 -2.87378,-1.12369 -1.1448,-1.14526 -1.1448,-2.85242 0,-2.31218 1.98735,-4.14899 1.98828,-1.85843 8.66557,-4.92698 v -2.03125 q 0,-2.290576 -0.25871,-2.874046 -0.23482,-0.60474 -0.92943,-1.03728 -0.6882,-0.45332 -1.55597,-0.45332 -1.40446,0 -2.31219,0.62657 -0.5586,0.38942 -0.5586,0.90762 0,0.45332 0.60714,1.123646 0.82183,0.92923 0.82183,1.79359 0,1.05885 -0.80163,1.81522 -0.77716,0.7343 -2.05292,0.7343 -1.36093,0 -2.29034,-0.82119 -0.90755,-0.82113 -0.90755,-1.92319 0,-1.55591 1.23149,-2.960476 1.23206,-1.42628 3.4357,-2.1826 2.20442,-0.75613 4.58127,-0.75613 2.87413,0 4.53847,1.23166 1.68562,1.21015 2.18274,2.636346 0.2993,0.90761 0.2993,4.17064 v 7.84424 q 0,1.38299 0.10473,1.75033 0.10474,0.34568 0.32354,0.51895 0.21849,0.17317 0.49396,0.17317 0.55857,0 1.14552,-0.79982 l 0.64754,0.51892 q -1.08075,1.59904 -2.24741,2.33378 -1.14537,0.71326 -2.61485,0.71326 -1.72914,0 -2.70151,-0.79987 -0.9722,-0.82114 -1.18852,-2.4635 z m 0,-1.57741 v -6.76372 q -2.61482,1.53419 -3.88985,3.28456 -0.84271,1.16689 -0.84271,2.35538 0,0.9941 0.71232,1.75046 0.54253,0.58369 1.51302,0.58369 1.07997,0 2.50648,-1.21015 z" />
    <path
       inkscape:connector-curvature="0"
       id="path1087-4"
       style="font-style:normal;font-variant:normal;font-weight:bold;font-stretch:normal;font-size:medium;line-height:100%;font-family:'Times New Roman';-inkscape-font-specification:'Times New Roman, Bold';letter-spacing:0px;word-spacing:0px;fill:#000000;fill-opacity:1;stroke:none;stroke-width:9.11627px;stroke-linecap:butt;stroke-linejoin:miter;stroke-opacity:1"
       d="m 662.2594,103.06409 3.94178,7.49475 q 2.04377,3.91771 3.23638,4.96408 0.65629,0.55975 1.80129,0.60807 v 0.87604 h -12.67781 v -0.87604 q 1.48404,-0.12212 1.82479,-0.38922 0.36448,-0.26803 0.36448,-0.73023 0,-0.68101 -0.77454,-2.14129 l -1.97109,-3.69873 -1.67928,2.45763 q -1.14387,1.67904 -1.28975,1.99538 -0.19165,0.4622 -0.19165,0.82775 0,0.55972 0.21871,0.94898 0.24587,0.36462 0.62901,0.55973 0.41006,0.17052 1.48405,0.17052 v 0.87605 h -8.90545 v -0.87605 q 1.65441,0 3.01744,-0.90071 1.38652,-0.92476 4.01481,-4.79375 l 1.8732,-2.77402 -3.91714,-7.25141 q -1.92266,-3.552666 -2.87169,-4.355726 -0.94884,-0.80315 -2.11662,-0.90069 v -0.90067 h 12.60495 v 0.90067 l -0.65627,0.0275 -1.26549,0.43756 q -0.19187,0.17053 -0.19187,0.55977 0,0.3646 0.11772,0.75388 0.0915,0.17053 0.68371,1.31414 l 1.7768,3.309356 0.92437,-1.31403 q 1.94625,-2.676686 1.94625,-3.747396 0,-0.51143 -0.43772,-0.85147 -0.40968,-0.36464 -1.50873,-0.4868 v -0.90067 h 8.05416 v 0.90069 q -1.48404,0.0455 -2.77419,0.92463 -1.28883,0.85146 -2.89508,3.33374 z" />
    <path
       inkscape:connector-curvature="0"
       id="path1089-9"
       style="font-style:normal;font-variant:normal;font-weight:bold;font-stretch:normal;font-size:medium;line-height:100%;font-family:'Times New Roman';-inkscape-font-specification:'Times New Roman, Bold';letter-spacing:0px;word-spacing:0px;fill:#000000;fill-opacity:1;stroke:none;stroke-width:10.4151px;stroke-linecap:butt;stroke-linejoin:miter;stroke-opacity:1"
       d="m 680.06977,78.419674 q 1.80705,0 3.05797,1.27877 1.25184,1.25108 1.25184,3.0303 0,1.77933 -1.27912,3.03027 -1.25072,1.25109 -3.03069,1.25109 -1.77904,0 -3.02976,-1.25109 -1.25074,-1.25094 -1.25074,-3.03027 0,-1.77922 1.25074,-3.0303 1.25072,-1.27877 3.02976,-1.27877 z m 3.8921,12.59369 v 20.600386 q 0,2.75232 0.63515,3.53073 0.63537,0.75096 2.50166,0.86238 v 1.0009 h -14.03839 v -1.0009 q 1.72392,-0.0519 2.55711,-1.00087 0.55204,-0.63953 0.55204,-3.3918 V 96.434964 q 0,-2.75232 -0.63535,-3.50292 -0.63555,-0.77802 -2.47362,-0.88945 v -1.02901 z" />
    <path
       inkscape:connector-curvature="0"
       id="path1072-6"
       style="font-style:normal;font-variant:normal;font-weight:bold;font-stretch:normal;font-size:medium;line-height:100%;font-family:David;-inkscape-font-specification:'David Bold';letter-spacing:0px;word-spacing:0px;fill:#000000;fill-opacity:1;stroke:none;stroke-width:7.79366px;stroke-linecap:butt;stroke-linejoin:miter;stroke-opacity:1"
       d="m 782.32867,109.14012 q 0,5.07602 -2.41364,9.11189 h -12.66941 l 2.80894,-6.137 h 7.96747 q 0,-3.34932 -1.10277,-5.8874 -1.37253,-3.18288 -3.99431,-3.18288 -1.93445,0 -3.36993,1.95553 -0.85264,1.165 -1.87225,3.78618 -1.01927,2.60041 -1.78915,5.55452 -2.37179,3.16216 -5.72083,5.28406 l 2.68343,-8.61258 q 0.72484,-2.32999 0.72484,-3.61983 0,-2.68359 -3.49456,-5.72098 l 5.07575,-6.761106 q 3.24555,5.367276 3.20425,8.903906 1.37235,-3.3078 2.28809,-4.576736 1.70602,-2.37166 4.01543,-2.37166 4.05649,0 6.07429,4.223096 1.58137,3.28698 1.58137,8.05099 z" />
    <path
       inkscape:connector-curvature="0"
       id="path1074-6"
       style="font-style:normal;font-variant:normal;font-weight:bold;font-stretch:normal;font-size:medium;line-height:100%;font-family:David;-inkscape-font-specification:'David Bold';letter-spacing:0px;word-spacing:0px;fill:#000000;fill-opacity:1;stroke:none;stroke-width:8.54811px;stroke-linecap:butt;stroke-linejoin:miter;stroke-opacity:1"
       d="m 758.15706,104.05964 -0.11024,8.6706 q -1.68823,3.62793 -4.81422,6.59413 l -0.13642,-11.11198 q 0,-1.75689 -0.11222,-2.48707 -0.27367,-1.87102 -1.09491,-2.76088 -1.98493,-2.07642 -4.85963,-4.107116 1.73365,-3.39977 4.4944,-6.73116 3.24011,2.50991 5.36234,5.52185 1.32338,1.84818 1.27818,6.411626 z" />
    <path
       inkscape:connector-curvature="0"
       id="path1076-5"
       style="font-style:normal;font-variant:normal;font-weight:bold;font-stretch:normal;font-size:medium;line-height:100%;font-family:David;-inkscape-font-specification:'David Bold';letter-spacing:0px;word-spacing:0px;fill:#000000;fill-opacity:1;stroke:none;stroke-width:9.15171px;stroke-linecap:butt;stroke-linejoin:miter;stroke-opacity:1"
       d="m 746.13592,106.89062 q 0,3.15129 -0.33872,5.15437 -0.33887,1.90539 -2.32079,5.96053 h -10.45509 l 1.9053,-7.20634 h 6.35134 q 0.1197,-1.19701 0.101,-1.58781 -0.0915,-3.22461 -1.19692,-6.20486 -3.05406,-2.90694 -6.84004,-4.812416 l 4.69017,-6.91319 q 4.93471,3.27336 7.05973,6.96208 1.05065,4.055106 1.05065,8.647636 z" />
    <path
       inkscape:connector-curvature="0"
       id="path1078-4"
       style="font-style:normal;font-variant:normal;font-weight:bold;font-stretch:normal;font-size:medium;line-height:100%;font-family:David;-inkscape-font-specification:'David Bold';letter-spacing:0px;word-spacing:0px;fill:#000000;fill-opacity:1;stroke:none;stroke-width:8.7259px;stroke-linecap:butt;stroke-linejoin:miter;stroke-opacity:1"
       d="m 731.56567,100.48056 q 0,5.26388 -8.43172,10.50453 l -1.04783,-0.13951 q 1.72316,-2.81826 2.02599,-3.42386 1.11866,-2.21269 1.11866,-4.12261 0,-1.25774 -0.67179,-1.86334 -2.00359,-1.793516 -5.56709,-4.052806 l 4.42566,-6.42846 q 3.65614,2.77171 6.63771,5.8462 1.51395,1.58383 1.51395,3.680136 z" />
    <path
       inkscape:connector-curvature="0"
       id="path1080-4"
       style="font-style:normal;font-variant:normal;font-weight:bold;font-stretch:normal;font-size:medium;line-height:100%;font-family:David;-inkscape-font-specification:'David Bold';letter-spacing:0px;word-spacing:0px;fill:#000000;fill-opacity:1;stroke:none;stroke-width:9.67984px;stroke-linecap:butt;stroke-linejoin:miter;stroke-opacity:1"
       d="m 717.89211,111.76022 q -1.65311,4.54752 -5.24462,7.90639 l -1.1112,-14.57264 q -0.20287,-2.81635 -0.59051,-3.74645 -0.59033,-1.421116 -2.19638,-1.421116 h -7.90638 q 1.62827,5.348486 2.06654,10.671096 -1.03271,3.72064 -2.78969,7.31216 h -11.49849 l 3.33355,-7.62217 h 5.03839 q -0.72579,-4.96092 -2.8168,-10.361086 h -4.49512 q 1.7568,-5.60683 6.61397,-11.4463 0.64846,1.91206 1.60213,3.82411 h 14.23717 q 2.9967,0 4.13421,2.42876 0.61928,1.34358 0.82273,4.54752 z" />
    <path
       style="color:#000000;fill:#000000;fill-rule:evenodd;stroke-width:2.20034;-inkscape-stroke:none"
       d="M 843.1656,-8.7242159 511.11568,443.74292 v 25.08048 h 27.99423 L 870.23154,17.619744 V -8.7242159 Z"
       id="path21108" />
  </g>
</svg>
