<?xml version="1.0" encoding="UTF-8" standalone="no"?>
<svg
   xmlns:dc="http://purl.org/dc/elements/1.1/"
   xmlns:cc="http://creativecommons.org/ns#"
   xmlns:rdf="http://www.w3.org/1999/02/22-rdf-syntax-ns#"
   xmlns:svg="http://www.w3.org/2000/svg"
   xmlns="http://www.w3.org/2000/svg"
   xmlns:sodipodi="http://sodipodi.sourceforge.net/DTD/sodipodi-0.dtd"
   xmlns:inkscape="http://www.inkscape.org/namespaces/inkscape"
   inkscape:version="1.0 (4035a4fb49, 2020-05-01)"
   sodipodi:docname="Israel_road_sign_413.svg"
   xml:space="preserve"
   enable-background="new 0 0 610 600"
   viewBox="0 0 592.15802 592.15802"
   height="592.15802"
   width="592.15802"
   y="0px"
   x="0px"
   id="Layer_1"
   version="1.1"><metadata
   id="metadata8642"><rdf:RDF><cc:Work
       rdf:about=""><dc:format>image/svg+xml</dc:format><dc:type
         rdf:resource="http://purl.org/dc/dcmitype/StillImage" /><dc:title></dc:title></cc:Work></rdf:RDF></metadata><defs
   id="defs8640"><path
     id="Oct"
     d="M500-207.10678V207.10678L207.10678,500H-207.10678L-500,207.10678V-207.10678L-207.10678-500H207.10678Z" /><pattern
     id="EMFhbasepattern"
     patternUnits="userSpaceOnUse"
     width="6"
     height="6"
     x="0"
     y="0" /><pattern
     id="EMFhbasepattern-8"
     patternUnits="userSpaceOnUse"
     width="6"
     height="6"
     x="0"
     y="0" /></defs><sodipodi:namedview
   inkscape:document-rotation="0"
   inkscape:current-layer="Layer_1"
   inkscape:window-maximized="1"
   inkscape:window-y="-9"
   inkscape:window-x="-9"
   inkscape:cy="496.6458"
   inkscape:cx="-173.99727"
   inkscape:zoom="0.95648883"
   showgrid="false"
   id="namedview8638"
   inkscape:window-height="1001"
   inkscape:window-width="1920"
   inkscape:pageshadow="2"
   inkscape:pageopacity="0"
   guidetolerance="10"
   gridtolerance="10"
   objecttolerance="10"
   borderopacity="1"
   bordercolor="#666666"
   pagecolor="#ffffff"><sodipodi:guide
     inkscape:locked="false"
     id="guide8644"
     orientation="0,610"
     position="-6.5189819,-4.3849792" /><sodipodi:guide
     inkscape:locked="false"
     id="guide8646"
     orientation="-600,0"
     position="603.48102,-4.3849792" /><sodipodi:guide
     inkscape:locked="false"
     id="guide8648"
     orientation="0,-610"
     position="603.48102,595.61502" /><sodipodi:guide
     inkscape:locked="false"
     id="guide8650"
     orientation="600,0"
     position="-6.5189819,595.61502" /></sodipodi:namedview>
<circle
   style="fill:#ffffff;stroke:#000000;stroke-opacity:0.81568629"
   id="circle8633"
   r="292.48499"
   cy="296.07901"
   cx="296.078" />
<circle
   style="fill:none;stroke:#c0111e;stroke-width:70;stroke-opacity:1"
   id="circle8635"
   r="261.07901"
   cy="296.07901"
   cx="296.07901" />
<path
   style="fill:#000000;fill-opacity:1;stroke-width:0.999999"
   d="m 367.33471,141.60941 c 0,0 17.03943,-15.24057 17.03943,-32.28294 0,-17.039481 -12.55984,-24.214443 -22.42138,-24.214443 -9.86448,0 -29.11589,8.074394 -28.9108,24.214443 0.21387,17.03651 11.87136,30.48993 11.87136,30.48993 l 0.48926,9.46603 c 0,0 -16.6322,2.19145 -29.18619,4.88389 -12.55691,2.68952 -26.00155,16.14294 -31.38643,34.07595 -5.38196,17.93594 -18.83539,67.25831 -26.00742,77.12278 -7.17203,9.86448 -7.17203,9.86448 -7.17203,9.86448 l -0.89943,9.86447 c 0,0 -20.62839,0.89944 -28.69692,0 -8.06854,-0.89943 -17.93595,-7.17496 -17.93595,-11.65747 0,-4.48253 5.40833,-8.20917 7.00504,-9.80882 1.59672,-1.5967 4.15439,-8.30584 4.15439,-15.34017 0,-7.0314 -2.87116,-21.09129 -19.49457,-21.09129 -16.61755,0 -20.44967,10.86646 -20.44967,22.69094 0,11.82448 10.86352,15.97886 10.86352,20.45258 0,4.47373 0,7.35076 -2.2354,7.67009 -2.2354,0.31934 -27.47815,12.14089 -34.83182,41.86322 -7.35076,29.71648 -8.30878,55.60378 -8.30878,55.60378 0,0 -5.75404,4.15732 -6.07337,6.0763 -0.31642,1.91606 1.28029,7.34489 6.07337,8.94746 4.79307,1.59379 10.86645,1.59379 10.86645,-3.5157 0,-5.11534 -1.28031,-9.90842 -1.28031,-9.90842 0,0 5.11536,-10.2219 8.94747,-20.44967 3.83504,-10.22776 7.02848,-30.68037 7.02848,-30.68037 0,0 6.07044,-7.35367 6.07044,-1.28322 0,6.07337 3.83505,88.52538 3.83505,98.11153 0,9.58615 -1.27738,19.81099 -2.55768,24.92633 -1.2803,5.11241 -1.91898,7.99236 -1.91898,7.99236 0,0 -11.82741,5.43175 -11.1858,9.90549 0.64162,4.47373 3.83798,12.14382 14.70443,6.39272 10.86352,-5.7511 17.25331,-14.37922 17.25331,-14.37922 l 10.54711,-75.42353 9.90841,71.58555 13.10186,14.06574 c 0,0 5.11241,3.83212 9.58615,3.83212 4.4708,0 9.9055,-1.59672 9.9055,-5.75111 0,-4.15146 -14.05989,-14.38215 -14.05989,-14.38215 0,0 2.87409,-67.75051 2.87409,-89.48047 0,-21.72998 -1.27737,-54.96802 -1.27737,-54.96802 0,0 9.26387,-7.02554 17.25038,-8.62225 7.98943,-1.59965 10.22776,-4.47374 10.22776,-4.47374 0,0 7.66424,2.87409 11.18287,0 3.51862,-2.87702 6.39271,-9.26681 6.71498,-12.46317 0.31935,-3.19636 -0.63868,-5.75403 -0.63868,-5.75403 0,0 14.37923,-22.68506 18.53361,-32.91283 4.15439,-10.22775 7.35075,-23.64895 7.35075,-23.64895 0,0 0.63869,-3.19636 2.87409,-3.19636 2.23833,0 4.47374,7.03141 5.75403,8.30877 1.28031,1.27738 1.59965,3.19636 1.59965,3.19636 0,0 0.31348,77.65307 1.27737,85.32316 0.96389,7.67009 1.91606,59.11361 3.19636,85.95893 1.2803,26.84825 5.7511,68.38626 5.7511,68.38626 0,0 -9.58615,8.31172 -9.90841,12.4661 -0.31349,4.15439 6.07043,5.7511 12.7825,5.43176 6.71206,-0.31935 21.7329,-16.61755 21.7329,-16.61755 0,0 -0.32227,-23.96245 -0.32227,-33.55152 0,-9.58908 -2.55768,-21.7329 -2.55768,-39.62783 0,-17.89785 1.59672,-28.12561 3.19636,-41.22454 1.6055,-13.10478 7.35662,-26.20662 7.35662,-26.20662 0,0 8.94453,39.94423 10.2219,64.87056 1.2803,24.92927 1.2803,73.1852 1.2803,73.1852 0,0 9.58614,8.9504 11.82448,10.86352 2.2354,1.919 7.98943,7.6701 12.14675,7.6701 4.15146,0 12.7825,-1.27445 12.7825,-6.71207 0,-5.43762 -11.18872,-15.65952 -11.18872,-15.65952 0,0 2.23833,-24.28764 2.55768,-28.11976 0.31934,-3.83796 -0.31935,-44.41797 0,-67.43117 0.31934,-23.01028 2.87701,-89.79397 3.5157,-105.45348 0.64162,-15.65953 1.59672,-38.6698 1.59672,-38.6698 l 3.19929,-3.83797 c 0,0 14.06281,24.60991 15.97886,33.23803 1.91607,8.62812 5.1095,46.6563 4.79308,50.49427 -0.31934,3.83504 0.31642,7.67009 0.31642,7.67009 l 1.28029,2.23833 c 0,0 -0.63869,2.55767 -3.19343,5.11241 -2.55767,2.55768 -5.43176,12.14675 5.11245,12.14675 10.54418,0 8.94454,-3.83796 8.94454,-8.30877 0,-4.47666 -1.91314,-6.39272 -1.91314,-6.39272 l 3.19343,-6.39272 c 0,0 0,-40.26651 0,-51.13001 0,-10.86353 -9.90255,-55.6067 -15.01793,-68.70856 -5.11535,-13.10184 -11.18287,-29.08071 -14.7015,-31.95773 -3.51277,-2.87408 -14.70442,-5.7511 -25.88729,-7.35075 -11.18287,-1.59671 -15.34018,1.60551 -15.34018,-1.58792 0,-3.19343 -0.69142,-6.02943 -0.69142,-6.02943 z"
   id="path5465" /></svg>
