<?xml version="1.0" encoding="UTF-8" standalone="no"?>
<svg
   xmlns:dc="http://purl.org/dc/elements/1.1/"
   xmlns:cc="http://creativecommons.org/ns#"
   xmlns:rdf="http://www.w3.org/1999/02/22-rdf-syntax-ns#"
   xmlns:svg="http://www.w3.org/2000/svg"
   xmlns="http://www.w3.org/2000/svg"
   xmlns:sodipodi="http://sodipodi.sourceforge.net/DTD/sodipodi-0.dtd"
   xmlns:inkscape="http://www.inkscape.org/namespaces/inkscape"
   inkscape:version="1.0 (4035a4fb49, 2020-05-01)"
   sodipodi:docname="Israel_road_sign_151.svg"
   id="svg3522"
   version="1.1"
   xml:space="preserve"
   width="568.125"
   height="497.228"
   viewBox="0 0 568.125 497.228"><sodipodi:namedview
     inkscape:document-rotation="0"
     inkscape:object-paths="false"
     inkscape:snap-global="true"
     width="568.125px"
     inkscape:current-layer="svg3522"
     inkscape:window-maximized="1"
     inkscape:window-y="-9"
     inkscape:window-x="-9"
     inkscape:window-height="1001"
     inkscape:window-width="1920"
     inkscape:cy="307.97201"
     inkscape:cx="363.32144"
     inkscape:zoom="2"
     inkscape:bbox-nodes="true"
     inkscape:snap-bbox-edge-midpoints="true"
     inkscape:snap-bbox="true"
     inkscape:snap-smooth-nodes="true"
     inkscape:snap-intersection-paths="true"
     inkscape:guide-bbox="true"
     showguides="true"
     showgrid="false"
     inkscape:pagecheckerboard="true"
     inkscape:pageopacity="0.0"
     inkscape:pageshadow="2"
     borderopacity="1.0"
     bordercolor="#666666"
     pagecolor="#ffffff"
     id="namedview11" /><metadata
     id="metadata3528"><rdf:RDF><cc:Work
         rdf:about=""><dc:format>image/svg+xml</dc:format><dc:type
           rdf:resource="http://purl.org/dc/dcmitype/StillImage" /></cc:Work></rdf:RDF></metadata><defs
     id="defs3526" /><g
     id="g5565"><path
       id="rect2419"
       style="display:inline;fill:#ffffff;fill-opacity:1;stroke-width:1.41526;stroke-linecap:round"
       d="M 284.06233,42.768626 519.25791,454.45937 H 48.866745 Z"
       sodipodi:nodetypes="cccc" /><path
       id="path1287-2"
       style="display:inline;fill:#c0111e;fill-opacity:1;fill-rule:nonzero;stroke:none;stroke-width:0.859147"
       d="M 284.06233,4.5425685e-4 C 277.94091,-0.04336226 271.21873,3.083666 267.92647,8.9396153 L 2.1975383,469.35001 C 0.66396013,472.48418 0.01976039,475.20891 0,478.32676 0,489.21753 8.9379258,497.228 18.874395,497.228 H 549.25027 c 9.93647,0 18.87439,-8.01047 18.87439,-18.90124 -0.0197,-3.11785 -0.66396,-5.84258 -2.19753,-8.97675 L 300.19819,8.9396153 C 296.90594,3.083666 290.18376,-0.04336226 284.06233,4.5425685e-4 Z m 0,90.77454274315 L 487.1272,442.24256 H 80.997471 Z"
       sodipodi:nodetypes="cccccccccccccc" /><path
       d="m 331.30501,259.05054 -178.66838,89.60172 a 22.740647,13.850057 66.428616 0 0 -0.0687,0.0288 22.740647,13.850057 66.428616 0 0 -3.60086,26.38449 22.740647,13.850057 66.428616 0 0 20.87119,15.63981 l 197.65595,-50.09367 13.53933,-55.82032 -36.52542,-18.90803 c -3.9227,-2.56466 -8.30596,-4.85065 -13.20311,-6.83293 z m 49.72854,25.74096 v 129.9883 h 6.78955 V 284.7915 Z m -49.63453,-22.87402 c 16.65342,6.74085 25.6234,15.26048 31.03377,28.8176 5.84982,14.65861 1.85466,47.29541 1.85466,47.29541 l -26.10611,6.77148 c 4.53914,-10.20826 4.31741,-24.89055 -0.58929,-39.02 -5.71592,-16.45863 -16.78714,-29.33637 -28.2717,-32.8848 z m 21.164,10.23134 26.31581,13.63329 -10.3687,42.77628 c 0.66622,-11.35371 0.82175,-27.98312 -2.96094,-37.46179 -2.8769,-7.20892 -7.17519,-13.53644 -12.98617,-18.94778 z m -71.95904,15.03241 c 11.41215,1.73731 23.06944,14.19685 28.84652,30.83132 4.19166,12.06836 4.67265,24.63432 1.29789,33.90795 l -25.90727,6.72085 c 3.14358,-8.81711 2.62258,-20.72491 -1.40634,-32.14367 -5.02587,-14.24127 -14.65993,-25.37546 -24.6347,-28.47054 z m -52.3713,26.04466 h 0.004 c 10.06144,0.33278 20.47073,11.73043 24.81908,27.17623 2.65952,9.4461 2.66198,19.12733 0.008,26.48577 l -23.11985,5.99776 c 1.44924,-5.98835 1.52695,-12.76258 0.22414,-19.53712 -2.65225,-13.79405 -10.65101,-25.79288 -20.56748,-30.85301 z m -48.80663,24.28039 c 7.01275,2.47086 13.88318,9.81351 17.98977,19.2262 3.62642,8.31426 4.62896,17.18293 2.70064,23.88993 l -25.60359,6.64492 a 22.740647,13.850057 66.428616 0 0 -0.15549,-23.27893 22.740647,13.850057 66.428616 0 0 -16.16405,-15.82421 z"
       style="opacity:1;fill:#000000;fill-opacity:1;stroke:none;stroke-width:1.85104px;stroke-linecap:butt;stroke-linejoin:miter;stroke-opacity:1"
       id="path5440" /></g></svg>
