<?xml version="1.0" encoding="UTF-8" standalone="no"?>
<svg
   xmlns:dc="http://purl.org/dc/elements/1.1/"
   xmlns:cc="http://creativecommons.org/ns#"
   xmlns:rdf="http://www.w3.org/1999/02/22-rdf-syntax-ns#"
   xmlns:svg="http://www.w3.org/2000/svg"
   xmlns="http://www.w3.org/2000/svg"
   xmlns:sodipodi="http://sodipodi.sourceforge.net/DTD/sodipodi-0.dtd"
   xmlns:inkscape="http://www.inkscape.org/namespaces/inkscape"
   version="1.1"
   id="svg10224"
   width="400"
   height="400"
   viewBox="0 0 399.99999 400.00002"
   sodipodi:docname="Israel_road_sign_634.svg"
   inkscape:version="1.0 (4035a4fb49, 2020-05-01)">
  <metadata
     id="metadata10230">
    <rdf:RDF>
      <cc:Work
         rdf:about="">
        <dc:format>image/svg+xml</dc:format>
        <dc:type
           rdf:resource="http://purl.org/dc/dcmitype/StillImage" />
        <dc:title></dc:title>
      </cc:Work>
    </rdf:RDF>
  </metadata>
  <defs
     id="defs10228" />
  <sodipodi:namedview
     inkscape:snap-bbox-midpoints="false"
     pagecolor="#ffffff"
     bordercolor="#666666"
     borderopacity="1"
     objecttolerance="10"
     gridtolerance="10"
     guidetolerance="10"
     inkscape:pageopacity="0"
     inkscape:pageshadow="2"
     inkscape:window-width="1920"
     inkscape:window-height="1001"
     id="namedview10226"
     showgrid="false"
     showguides="true"
     inkscape:zoom="1"
     inkscape:cx="405.34979"
     inkscape:cy="305.8674"
     inkscape:window-x="-9"
     inkscape:window-y="-9"
     inkscape:window-maximized="1"
     inkscape:current-layer="svg10224"
     inkscape:pagecheckerboard="true"
     inkscape:guide-bbox="true"
     inkscape:snap-intersection-paths="true"
     inkscape:snap-smooth-nodes="true"
     inkscape:snap-bbox="true"
     inkscape:snap-bbox-edge-midpoints="true"
     inkscape:bbox-nodes="true"
     inkscape:snap-global="true"
     inkscape:document-rotation="0" />
  <path
     sodipodi:nodetypes="ccccc"
     inkscape:connector-curvature="0"
     d="M 0,0 V 400 H 400 V 0 Z"
     style="fill:#070fdb;fill-opacity:1;stroke:none;stroke-width:23.9727;stroke-miterlimit:4;stroke-dasharray:none;stroke-opacity:1"
     id="path3323" />
  <path
     d="M 9.4082031,9.4042969 V 390.5918 H 390.5918 V 9.4042969 Z M 20.441406,20.441406 H 379.55859 V 379.55859 H 20.441406 Z"
     style="display:inline;fill:#ffffff;fill-opacity:1;stroke-width:1.37953;stroke-linecap:round;stroke-linejoin:round"
     id="path2532" />
  <path
     sodipodi:nodetypes="sssccsss"
     d="m 200.10156,94.865234 c -63.51427,0 -114.646482,51.134166 -114.646482,114.648436 v 37.63867 c 0,15.60452 8.684552,43.99671 8.684552,43.99671 l 212.86236,-2.34222 c 0,0 7.74606,-26.94511 7.74606,-41.65449 v -37.63867 c 0,-63.51427 -51.13222,-114.648436 -114.64649,-114.648436 z"
     style="opacity:1;fill:#ffffff;stroke-width:9.58437;paint-order:stroke fill markers"
     id="rect6208" />
  <path
     id="rect662"
     style="opacity:1;fill:#000000;stroke-width:2.34163"
     d="m 199.99997,93.540725 c -63.572,0 -114.748345,51.176315 -114.748345,114.748385 v 84.92052 h 1.41906 6.010098 21.647477 49.26329 72.81683 49.24942 21.64746 6.09358 1.34954 v -84.92052 c 0,-63.57207 -51.17633,-114.748385 -114.74841,-114.748385 z m 0,6.900475 c 59.45052,0 107.30529,47.85482 107.30529,107.30535 v 49.69466 22.3709 3.32505 c 8e-5,2.10873 -1.68931,3.79802 -3.79802,3.79802 h -14.03746 c -2.10871,0 -3.81198,-1.68929 -3.81198,-3.79802 v -3.32505 -22.3709 -50.36246 c 0,-47.46045 -38.19739,-85.67175 -85.65783,-85.67175 -47.46045,0 -85.67171,38.2113 -85.67171,85.67175 v 50.36246 22.3709 3.32505 c 0,2.10873 -1.70327,3.79802 -3.81199,3.79802 H 96.492699 c -2.108718,0 -3.811916,-1.68929 -3.811916,-3.79802 v -3.32505 -22.3709 -49.69466 c 0,-59.45053 47.868737,-107.30535 107.319187,-107.30535 z m 0,111.91027 c 20.17121,0 36.40841,16.23721 36.40841,36.40842 v 31.05222 h -72.81683 v -31.05222 c 0,-20.17121 16.2372,-36.40842 36.40842,-36.40842 z" />
  <g
     style="opacity:1"
     id="g6773">
    <path
       id="path6775"
       d="M 357.18945,17.941406 17.941406,357.1875 v 24.87109 h 2.5 22.369141 L 382.05859,42.810547 V 17.941406 Z m 2.07032,5 h 17.79882 V 40.740234 L 40.738281,377.05859 H 22.941406 v -17.80078 z"
       style="color:#000000;font-style:normal;font-variant:normal;font-weight:normal;font-stretch:normal;font-size:medium;line-height:normal;font-family:sans-serif;font-variant-ligatures:normal;font-variant-position:normal;font-variant-caps:normal;font-variant-numeric:normal;font-variant-alternates:normal;font-variant-east-asian:normal;font-feature-settings:normal;font-variation-settings:normal;text-indent:0;text-align:start;text-decoration:none;text-decoration-line:none;text-decoration-style:solid;text-decoration-color:#000000;letter-spacing:normal;word-spacing:normal;text-transform:none;writing-mode:lr-tb;direction:ltr;text-orientation:mixed;dominant-baseline:auto;baseline-shift:baseline;text-anchor:start;white-space:normal;shape-padding:0;shape-margin:0;inline-size:0;clip-rule:nonzero;display:inline;overflow:visible;visibility:visible;isolation:auto;mix-blend-mode:normal;color-interpolation:sRGB;color-interpolation-filters:linearRGB;solid-color:#000000;solid-opacity:1;vector-effect:none;fill:#ffffff;fill-opacity:1;fill-rule:nonzero;stroke:none;stroke-width:5;stroke-linecap:butt;stroke-linejoin:miter;stroke-miterlimit:4;stroke-dasharray:none;stroke-dashoffset:0;stroke-opacity:1;paint-order:stroke fill markers;color-rendering:auto;image-rendering:auto;shape-rendering:auto;text-rendering:auto;enable-background:accumulate;stop-color:#000000;stop-opacity:1" />
    <path
       id="path6777"
       d="M 20.441406,379.55859 V 358.223 L 358.22407,20.441405 l 21.33451,1e-6 V 41.775744 L 41.774687,379.55859 Z"
       style="color:#000000;font-style:normal;font-variant:normal;font-weight:normal;font-stretch:normal;font-size:medium;line-height:normal;font-family:sans-serif;font-variant-ligatures:normal;font-variant-position:normal;font-variant-caps:normal;font-variant-numeric:normal;font-variant-alternates:normal;font-variant-east-asian:normal;font-feature-settings:normal;font-variation-settings:normal;text-indent:0;text-align:start;text-decoration:none;text-decoration-line:none;text-decoration-style:solid;text-decoration-color:#000000;letter-spacing:normal;word-spacing:normal;text-transform:none;writing-mode:lr-tb;direction:ltr;text-orientation:mixed;dominant-baseline:auto;baseline-shift:baseline;text-anchor:start;white-space:normal;shape-padding:0;shape-margin:0;inline-size:0;clip-rule:nonzero;display:inline;overflow:visible;visibility:visible;isolation:auto;mix-blend-mode:normal;color-interpolation:sRGB;color-interpolation-filters:linearRGB;solid-color:#000000;solid-opacity:1;vector-effect:none;fill:#000000;fill-opacity:1;fill-rule:nonzero;stroke:none;stroke-width:5;stroke-linecap:butt;stroke-linejoin:miter;stroke-miterlimit:4;stroke-dasharray:none;stroke-dashoffset:0;stroke-opacity:1;paint-order:stroke fill markers;color-rendering:auto;image-rendering:auto;shape-rendering:auto;text-rendering:auto;enable-background:accumulate;stop-color:#000000;stop-opacity:1" />
  </g>
</svg>
