<?xml version="1.0" encoding="UTF-8" standalone="no"?>
<svg
   xmlns:dc="http://purl.org/dc/elements/1.1/"
   xmlns:cc="http://creativecommons.org/ns#"
   xmlns:rdf="http://www.w3.org/1999/02/22-rdf-syntax-ns#"
   xmlns:svg="http://www.w3.org/2000/svg"
   xmlns="http://www.w3.org/2000/svg"
   xmlns:sodipodi="http://sodipodi.sourceforge.net/DTD/sodipodi-0.dtd"
   xmlns:inkscape="http://www.inkscape.org/namespaces/inkscape"
   version="1.1"
   id="svg6779"
   width="300"
   height="95.000008"
   viewBox="0 0 300 95.000008"
   sodipodi:docname="630.svg"
   inkscape:version="1.0 (4035a4fb49, 2020-05-01)">
  <metadata
     id="metadata6785">
    <rdf:RDF>
      <cc:Work
         rdf:about="">
        <dc:format>image/svg+xml</dc:format>
        <dc:type
           rdf:resource="http://purl.org/dc/dcmitype/StillImage" />
        <dc:title />
      </cc:Work>
    </rdf:RDF>
  </metadata>
  <defs
     id="defs6783" />
  <sodipodi:namedview
     inkscape:document-rotation="0"
     pagecolor="#ffffff"
     bordercolor="#666666"
     borderopacity="1"
     objecttolerance="10"
     gridtolerance="10"
     guidetolerance="10"
     inkscape:pageopacity="0"
     inkscape:pageshadow="2"
     inkscape:window-width="1920"
     inkscape:window-height="1001"
     id="namedview6781"
     showgrid="false"
     inkscape:zoom="1.4133333"
     inkscape:cx="7.3810768"
     inkscape:cy="61.172301"
     inkscape:window-x="-9"
     inkscape:window-y="-9"
     inkscape:window-maximized="1"
     inkscape:current-layer="g6787" />
  <g
     inkscape:groupmode="layer"
     inkscape:label="Image"
     id="g6787"
     transform="translate(-3.8915095,-119.22171)">
    <path
       id="rect6791"
       style="opacity:1;fill:#000000;stroke:none;stroke-width:8.72763;paint-order:stroke fill markers"
       d="M 3.8915095,119.22171 H 303.89151 v 95.00001 H 3.8915095 Z"
       sodipodi:nodetypes="ccccc" />
    <path
       id="rect7356"
       style="opacity:1;fill:#ffffff;stroke:none;stroke-width:8.02942;paint-order:stroke fill markers"
       d="M 7.6915097,123.02171 H 300.09151 v 87.4 H 7.6915097 Z"
       sodipodi:nodetypes="ccccc" />
    <g
       style="font-size:67.3786px;line-height:1.25;font-family:'Medina Lt BT';-inkscape-font-specification:'Medina Lt BT';opacity:1;fill:#000000;stroke-width:1.68447"
       id="text7366"
       aria-label="2500">
      <path
         id="path8074"
         style="font-style:normal;font-variant:normal;font-weight:normal;font-stretch:normal;font-family:'Heb Tamrurim';-inkscape-font-specification:'Heb Tamrurim';fill:#000000;stroke-width:1.68447"
         d="m 83.093911,151.74811 6.661217,6.37944 q 3.392599,-3.57294 8.329339,-3.58421 3.155903,0.0789 4.824023,2.76142 2.1077,4.62115 -2.02879,7.55163 -15.554112,8.75764 -17.030625,26.54343 h 28.346805 v -9.27611 l -16.500885,0.0451 q 3.144635,-5.84969 9.005605,-8.99433 8.21663,-4.54225 8.12646,-13.94234 -1.9499,-13.37879 -15.463944,-13.95362 -8.442049,0.36068 -14.269205,6.46961 z" />
      <path
         id="path8076"
         style="font-style:normal;font-variant:normal;font-weight:normal;font-stretch:normal;font-family:'Heb Tamrurim';-inkscape-font-specification:'Heb Tamrurim';fill:#000000;stroke-width:1.68447"
         d="m 122.29694,145.28977 -1.38635,23.69184 9.0845,2.90795 q 1.35253,-1.4427 3.27989,-1.84846 5.57919,-0.59737 7.20223,4.77894 0.5861,5.56792 -4.77894,7.19096 -6.50343,1.49905 -12.74761,-0.83406 l -3.40387,8.54349 q 8.82527,3.24607 18.01121,1.27363 0.47338,-0.0902 0.9355,-0.21415 13.19845,-4.84657 10.88787,-18.72129 -4.85784,-13.19845 -18.72128,-10.88787 l 0.52974,-6.59359 16.42198,-0.0113 0.0113,-9.29865 -25.32614,0.0225 z" />
      <path
         id="path8078"
         style="font-style:normal;font-variant:normal;font-weight:normal;font-stretch:normal;font-family:'Heb Tamrurim';-inkscape-font-specification:'Heb Tamrurim';fill:#000000;stroke-width:1.68447"
         d="m 156.69148,160.42685 -0.0338,16.47834 q 0.10144,6.39071 4.67751,10.86534 4.40699,4.06886 10.41449,4.20412 14.04378,-1.18347 15.49775,-15.21598 l 0.0676,-16.18529 q -0.14653,-6.06385 -4.33937,-10.45958 -4.41827,-4.45208 -10.69627,-4.66623 -13.9987,1.03694 -15.58792,14.97928 z m 9.44517,0 q 0.85661,-5.35377 6.278,-5.51156 2.58108,0.21415 4.23793,2.20913 1.16093,1.47652 1.1722,3.34752 l -0.0113,16.46707 q -0.665,5.41012 -6.09767,5.75953 -2.44582,-0.10144 -4.14776,-1.85973 -1.45397,-1.57796 -1.47651,-3.71947 l 0.0451,-16.69249 z" />
      <path
         id="path8080"
         style="font-style:normal;font-variant:normal;font-weight:normal;font-stretch:normal;font-family:'Heb Tamrurim';-inkscape-font-specification:'Heb Tamrurim';fill:#000000;stroke-width:1.68447"
         d="m 194.06554,160.42685 -0.0338,16.47834 q 0.10144,6.39071 4.67751,10.86534 4.40699,4.06886 10.41449,4.20412 14.04378,-1.18347 15.49775,-15.21598 l 0.0676,-16.18529 q -0.14653,-6.06385 -4.33937,-10.45958 -4.41827,-4.45208 -10.69627,-4.66623 -13.9987,1.03694 -15.58793,14.97928 z m 9.44518,0 q 0.85661,-5.35377 6.278,-5.51156 2.58108,0.21415 4.23793,2.20913 1.16093,1.47652 1.1722,3.34752 l -0.0113,16.46707 q -0.665,5.41012 -6.09767,5.75953 -2.44582,-0.10144 -4.14776,-1.85973 -1.45397,-1.57796 -1.47651,-3.71947 l 0.0451,-16.69249 z" />
    </g>
  </g>
</svg>
