<?xml version="1.0" encoding="UTF-8" standalone="no"?>
<!-- Created with Inkscape (http://www.inkscape.org/) -->

<svg
   width="485.09637"
   height="600.09979"
   viewBox="0 0 128.34841 158.77641"
   version="1.1"
   id="svg32498"
   inkscape:version="1.2.2 (732a01da63, 2022-12-09)"
   sodipodi:docname="Israel_road_sign_614b.svg"
   xmlns:inkscape="http://www.inkscape.org/namespaces/inkscape"
   xmlns:sodipodi="http://sodipodi.sourceforge.net/DTD/sodipodi-0.dtd"
   xmlns="http://www.w3.org/2000/svg"
   xmlns:svg="http://www.w3.org/2000/svg">
  <sodipodi:namedview
     id="namedview32500"
     pagecolor="#ffffff"
     bordercolor="#000000"
     borderopacity="0.25"
     inkscape:showpageshadow="2"
     inkscape:pageopacity="0.0"
     inkscape:pagecheckerboard="0"
     inkscape:deskcolor="#d1d1d1"
     inkscape:document-units="px"
     showgrid="false"
     inkscape:zoom="1.0129245"
     inkscape:cx="242.86114"
     inkscape:cy="315.4233"
     inkscape:window-width="1920"
     inkscape:window-height="991"
     inkscape:window-x="-9"
     inkscape:window-y="-9"
     inkscape:window-maximized="1"
     inkscape:current-layer="layer1" />
  <defs
     id="defs32495" />
  <g
     inkscape:label="Layer 1"
     inkscape:groupmode="layer"
     id="layer1"
     transform="translate(-527.57338,-48.420013)">
    <path
       sodipodi:nodetypes="ccccc"
       id="path128130"
       d="M 527.58661,48.433242 V 207.18318 H 655.90857 V 48.433303 Z"
       style="color:#000000;font-style:normal;font-variant:normal;font-weight:normal;font-stretch:normal;font-size:medium;line-height:normal;font-family:sans-serif;font-variant-ligatures:normal;font-variant-position:normal;font-variant-caps:normal;font-variant-numeric:normal;font-variant-alternates:normal;font-variant-east-asian:normal;font-feature-settings:normal;font-variation-settings:normal;text-indent:0;text-align:start;text-decoration:none;text-decoration-line:none;text-decoration-style:solid;text-decoration-color:#000000;letter-spacing:normal;word-spacing:normal;text-transform:none;writing-mode:lr-tb;direction:ltr;text-orientation:mixed;dominant-baseline:auto;baseline-shift:baseline;text-anchor:start;white-space:normal;shape-padding:0;shape-margin:0;inline-size:0;clip-rule:nonzero;display:inline;overflow:visible;visibility:visible;isolation:auto;mix-blend-mode:normal;color-interpolation:sRGB;color-interpolation-filters:linearRGB;solid-color:#000000;solid-opacity:1;fill:#01553b;fill-opacity:1;fill-rule:nonzero;stroke:none;stroke-width:0.0264583;stroke-linecap:butt;stroke-linejoin:miter;stroke-miterlimit:4;stroke-dasharray:none;stroke-dashoffset:0;stroke-opacity:1;color-rendering:auto;image-rendering:auto;shape-rendering:auto;text-rendering:auto;enable-background:accumulate;stop-color:#000000" />
    <rect
       style="fill:#070fdb;fill-opacity:1;stroke:none;stroke-width:7.00321"
       id="rect148011"
       width="128.32193"
       height="58.605648"
       x="527.58673"
       y="48.433186" />
    <path
       sodipodi:nodetypes="ssssssssssssssssss"
       id="path128218"
       d="m 533.14269,49.914694 c -2.23752,0 -4.07398,1.836451 -4.07398,4.074274 V 201.62948 c 0,2.23835 1.83646,4.07283 4.07398,4.07283 h 117.20866 c 2.23968,0 4.07315,-1.83455 4.07315,-4.07261 V 53.988909 c 0,-2.237466 -1.83354,-4.074215 -4.07315,-4.074215 z m 0,1.7712 h 117.20866 c 1.28303,0 2.3019,1.020644 2.3019,2.303015 V 201.6297 c 0,1.28177 -1.01887,2.30137 -2.3019,2.30137 H 533.14269 c -1.28267,0 -2.30278,-1.01982 -2.30278,-2.30159 V 53.988968 c 0,-1.282665 1.02011,-2.303074 2.30278,-2.303074 z"
       style="color:#000000;font-style:normal;font-variant:normal;font-weight:normal;font-stretch:normal;font-size:medium;line-height:normal;font-family:sans-serif;font-variant-ligatures:normal;font-variant-position:normal;font-variant-caps:normal;font-variant-numeric:normal;font-variant-alternates:normal;font-variant-east-asian:normal;font-feature-settings:normal;font-variation-settings:normal;text-indent:0;text-align:start;text-decoration:none;text-decoration-line:none;text-decoration-style:solid;text-decoration-color:#000000;letter-spacing:normal;word-spacing:normal;text-transform:none;writing-mode:lr-tb;direction:ltr;text-orientation:mixed;dominant-baseline:auto;baseline-shift:baseline;text-anchor:start;white-space:normal;shape-padding:0;shape-margin:0;inline-size:0;clip-rule:nonzero;display:inline;overflow:visible;visibility:visible;isolation:auto;mix-blend-mode:normal;color-interpolation:sRGB;color-interpolation-filters:linearRGB;solid-color:#000000;solid-opacity:1;vector-effect:none;fill:#ffffff;fill-opacity:1;fill-rule:nonzero;stroke:none;stroke-width:1.77093;stroke-linecap:butt;stroke-linejoin:miter;stroke-miterlimit:4;stroke-dasharray:none;stroke-dashoffset:0;stroke-opacity:1;color-rendering:auto;image-rendering:auto;shape-rendering:auto;text-rendering:auto;enable-background:accumulate;stop-color:#000000" />
    <path
       id="path128220"
       style="color:#000000;font-style:normal;font-variant:normal;font-weight:normal;font-stretch:normal;font-size:medium;line-height:normal;font-family:sans-serif;font-variant-ligatures:normal;font-variant-position:normal;font-variant-caps:normal;font-variant-numeric:normal;font-variant-alternates:normal;font-variant-east-asian:normal;font-feature-settings:normal;font-variation-settings:normal;text-indent:0;text-align:start;text-decoration:none;text-decoration-line:none;text-decoration-style:solid;text-decoration-color:#000000;letter-spacing:normal;word-spacing:normal;text-transform:none;writing-mode:lr-tb;direction:ltr;text-orientation:mixed;dominant-baseline:auto;baseline-shift:baseline;text-anchor:start;white-space:normal;shape-padding:0;shape-margin:0;inline-size:0;clip-rule:nonzero;display:inline;overflow:visible;visibility:visible;isolation:auto;mix-blend-mode:normal;color-interpolation:sRGB;color-interpolation-filters:linearRGB;solid-color:#000000;solid-opacity:1;vector-effect:none;fill:#ffffff;fill-opacity:1;fill-rule:nonzero;stroke:none;stroke-width:1.77093;stroke-linecap:butt;stroke-linejoin:miter;stroke-miterlimit:4;stroke-dasharray:none;stroke-dashoffset:0;stroke-opacity:1;color-rendering:auto;image-rendering:auto;shape-rendering:auto;text-rendering:auto;enable-background:accumulate;stop-color:#000000"
       d="m 529.06853,106.15313 v 1.7715 h 125.35575 v -1.7715 z"
       sodipodi:nodetypes="ccccc" />
    <path
       id="path128222"
       style="color:#000000;font-style:normal;font-variant:normal;font-weight:normal;font-stretch:normal;font-size:medium;line-height:normal;font-family:sans-serif;font-variant-ligatures:normal;font-variant-position:normal;font-variant-caps:normal;font-variant-numeric:normal;font-variant-alternates:normal;font-variant-east-asian:normal;font-feature-settings:normal;font-variation-settings:normal;text-indent:0;text-align:start;text-decoration:none;text-decoration-line:none;text-decoration-style:solid;text-decoration-color:#000000;letter-spacing:normal;word-spacing:normal;text-transform:none;writing-mode:lr-tb;direction:ltr;text-orientation:mixed;dominant-baseline:auto;baseline-shift:baseline;text-anchor:start;white-space:normal;shape-padding:0;shape-margin:0;inline-size:0;clip-rule:nonzero;display:inline;overflow:visible;visibility:visible;isolation:auto;mix-blend-mode:normal;color-interpolation:sRGB;color-interpolation-filters:linearRGB;solid-color:#000000;solid-opacity:1;vector-effect:none;fill:#ffffff;fill-opacity:1;fill-rule:nonzero;stroke:none;stroke-width:1.77093;stroke-linecap:butt;stroke-linejoin:miter;stroke-miterlimit:4;stroke-dasharray:none;stroke-dashoffset:0;stroke-opacity:1;color-rendering:auto;image-rendering:auto;shape-rendering:auto;text-rendering:auto;enable-background:accumulate;stop-color:#000000"
       d="m 529.18728,162.20177 v 1.77149 h 125.237 v -1.77149 z"
       sodipodi:nodetypes="ccccc" />
    <g
       aria-label="Market"
       id="text128226"
       style="font-size:12.5131px;font-family:'Heb Tamrurim';-inkscape-font-specification:'Heb Tamrurim';letter-spacing:0.890616px;fill:#ffffff;stroke-width:1.04275">
      <path
         d="m 581.06751,145.99309 h 2.76539 l 1.55163,6.65696 h 0.025 l 1.55163,-6.65696 h 2.76539 v 9.00943 h -1.75183 v -6.98231 h -0.025 l -1.6267,6.98231 h -1.85194 l -1.6267,-6.98231 h -0.025 v 6.98231 h -1.75183 z"
         style="font-weight:bold;font-family:Triumvirate;-inkscape-font-specification:'Triumvirate Bold'"
         id="path89294" />
      <path
         d="m 596.08541,151.77414 q -0.36288,0.21272 -0.77581,0.30031 -0.41293,0.0751 -0.77581,0.17519 -0.35037,0.0876 -0.58812,0.27528 -0.23774,0.1877 -0.23774,0.60063 0,0.2878 0.25026,0.50053 0.25026,0.20021 0.70073,0.20021 0.67571,0 1.0511,-0.38791 0.37539,-0.40042 0.37539,-1.1512 z m 0.27529,3.22838 q -0.1001,-0.16267 -0.17518,-0.42545 -0.0626,-0.26277 -0.0751,-0.40042 -0.12513,0.15016 -0.30031,0.33786 -0.17519,0.17518 -0.42545,0.32534 -0.23775,0.15015 -0.56309,0.25026 -0.31283,0.11262 -0.73827,0.11262 -1.00105,0 -1.53911,-0.51304 -0.53807,-0.52555 -0.53807,-1.5266 0,-0.55057 0.16267,-0.90094 0.17519,-0.36288 0.45048,-0.58812 0.2878,-0.23775 0.63816,-0.36288 0.36288,-0.12513 0.73828,-0.18769 0.3879,-0.0751 0.7633,-0.12513 0.37539,-0.0501 0.6757,-0.12514 0.36288,-0.0876 0.50053,-0.17518 0.15015,-0.0876 0.15015,-0.37539 0,-0.35037 -0.27528,-0.51304 -0.26278,-0.16267 -0.73828,-0.16267 -0.37539,0 -0.60063,0.0876 -0.22523,0.0751 -0.36288,0.20021 -0.12513,0.12513 -0.17518,0.2878 -0.0501,0.16267 -0.0751,0.32534 h -1.6267 q 0,-0.35036 0.1001,-0.75078 0.11262,-0.40042 0.41294,-0.73827 0.30031,-0.33786 0.83837,-0.56309 0.55058,-0.22524 1.45152,-0.22524 1.46404,0 2.1022,0.55058 0.65069,0.53806 0.65069,1.56413 v 3.26592 q 0,0.48801 0.1001,0.71325 0.10011,0.22524 0.27529,0.31283 v 0.32534 z"
         style="font-weight:bold;font-family:Triumvirate;-inkscape-font-specification:'Triumvirate Bold'"
         id="path89296" />
      <path
         d="m 600.25446,148.47068 h 1.67675 v 1.07613 h 0.025 q 0.0751,-0.12513 0.21272,-0.33786 0.13765,-0.21272 0.35037,-0.41293 0.22524,-0.21272 0.51304,-0.36288 0.2878,-0.16267 0.65068,-0.16267 0.0876,0 0.18769,0.0125 0.10011,0 0.1877,0.0125 v 1.77686 q -0.1001,-0.0125 -0.21272,-0.0125 -0.10011,-0.0125 -0.20021,-0.0125 -0.52555,0 -0.85089,0.15016 -0.31283,0.13764 -0.48801,0.37539 -0.17519,0.23775 -0.23775,0.53806 -0.0626,0.30032 -0.0626,0.61315 v 3.27843 h -1.75183 z"
         style="font-weight:bold;font-family:Triumvirate;-inkscape-font-specification:'Triumvirate Bold'"
         id="path89298" />
      <path
         d="m 605.96262,145.99309 h 1.75183 v 4.93016 l 2.20231,-2.45257 h 2.1022 l -2.40252,2.52765 2.4776,4.00419 h -2.1022 l -1.60168,-2.82796 -0.67571,0.70073 v 2.12723 h -1.75183 z"
         style="font-weight:bold;font-family:Triumvirate;-inkscape-font-specification:'Triumvirate Bold'"
         id="path89300" />
      <path
         d="m 617.37674,150.94827 q -0.025,-0.22523 -0.1001,-0.45047 -0.0751,-0.22523 -0.22524,-0.40042 -0.15016,-0.17518 -0.38791,-0.2878 -0.22523,-0.11262 -0.56309,-0.11262 -0.32534,0 -0.56309,0.10011 -0.23774,0.1001 -0.40041,0.27529 -0.16267,0.16267 -0.25027,0.3879 -0.0876,0.22524 -0.11261,0.48801 z m 1.77686,2.1022 q -0.11262,0.33786 -0.32534,0.72576 -0.21272,0.3754 -0.5756,0.70074 -0.35037,0.31283 -0.87592,0.52555 -0.51304,0.20021 -1.22628,0.20021 -1.47655,0 -2.32744,-0.88843 -0.85089,-0.88843 -0.85089,-2.51514 0,-0.87591 0.22524,-1.52659 0.23774,-0.6632 0.65068,-1.10116 0.42544,-0.45047 1.00104,-0.6757 0.58812,-0.22524 1.30137,-0.22524 0.80084,0 1.37644,0.2878 0.5756,0.27529 0.93848,0.80084 0.36288,0.51304 0.53806,1.2388 0.17519,0.72576 0.17519,1.60167 h -4.45467 q 0.0125,0.32534 0.0876,0.61315 0.0876,0.2878 0.25026,0.50052 0.17518,0.21272 0.45047,0.33785 0.2878,0.12513 0.71325,0.12513 0.2878,0 0.47549,-0.0626 0.20021,-0.0751 0.32534,-0.17518 0.13765,-0.11262 0.22524,-0.23775 0.0876,-0.13765 0.15016,-0.25027 z"
         style="font-weight:bold;font-family:Triumvirate;-inkscape-font-specification:'Triumvirate Bold'"
         id="path89302" />
      <path
         d="m 624.5239,155.15267 q -0.17518,0.025 -0.38791,0.0375 -0.21272,0.0125 -0.35036,0.0125 -0.63817,0 -1.0511,-0.10011 -0.40042,-0.1001 -0.62566,-0.32534 -0.22524,-0.23775 -0.31283,-0.60063 -0.0751,-0.37539 -0.0751,-0.91345 v -3.54121 h -0.85089 v -1.25131 h 0.85089 v -1.75183 h 1.75184 v 1.75183 h 1.0511 v 1.25131 h -1.0511 v 3.47864 q 0,0.22524 0.025,0.35037 0.0375,0.12513 0.13765,0.18769 0.11262,0.0626 0.31283,0.0751 0.21272,0.0125 0.5756,0.0125 z"
         style="font-weight:bold;font-family:Triumvirate;-inkscape-font-specification:'Triumvirate Bold'"
         id="path89304" />
    </g>
    <g
       aria-label="Yavne"
       id="text128238"
       style="font-size:12.5861px;font-family:'Heb Tamrurim';-inkscape-font-specification:'Heb Tamrurim';letter-spacing:1.78123px;fill:#ffffff;stroke-width:1.04883">
      <path
         d="m 569.74218,95.609041 -3.07101,-5.6134 h 2.24033 l 1.83757,3.863932 1.71171,-3.863932 h 2.16481 l -3.02067,5.6134 v 3.448591 h -1.86274 z"
         style="font-weight:bold;font-family:Triumvirate;-inkscape-font-specification:'Triumvirate Bold'"
         id="path89307" />
      <path
         d="m 579.02473,95.810419 q -0.365,0.213963 -0.78034,0.302066 -0.41534,0.07552 -0.78034,0.176206 -0.35241,0.0881 -0.59155,0.276894 -0.23913,0.188791 -0.23913,0.604133 0,0.28948 0.25172,0.503443 0.25172,0.201378 0.70482,0.201378 0.67965,0 1.05723,-0.390169 0.37759,-0.402755 0.37759,-1.157921 z m 0.27689,3.247213 q -0.10069,-0.163619 -0.17621,-0.427927 -0.0629,-0.264308 -0.0755,-0.402755 -0.12586,0.151033 -0.30207,0.339825 -0.1762,0.176205 -0.42793,0.327238 -0.23913,0.151033 -0.56637,0.251722 -0.31465,0.113275 -0.74258,0.113275 -1.00689,0 -1.54809,-0.51603 -0.5412,-0.528616 -0.5412,-1.535504 0,-0.553789 0.16362,-0.906199 0.1762,-0.364997 0.4531,-0.591547 0.28948,-0.239136 0.64189,-0.364997 0.36499,-0.125861 0.74258,-0.188791 0.39017,-0.07552 0.76775,-0.125861 0.37758,-0.05034 0.67965,-0.125861 0.365,-0.0881 0.50344,-0.176206 0.15104,-0.0881 0.15104,-0.377583 0,-0.352411 -0.2769,-0.51603 -0.26431,-0.163619 -0.74258,-0.163619 -0.37758,0 -0.60413,0.0881 -0.22655,0.07552 -0.365,0.201377 -0.12586,0.125861 -0.1762,0.28948 -0.0503,0.16362 -0.0755,0.327239 h -1.63619 q 0,-0.352411 0.10069,-0.755166 0.11327,-0.402755 0.41534,-0.74258 0.30206,-0.339825 0.84327,-0.566374 0.55378,-0.22655 1.45998,-0.22655 1.47258,0 2.11447,0.553788 0.65447,0.541203 0.65447,1.573263 v 3.284972 q 0,0.490858 0.10069,0.717407 0.10069,0.22655 0.2769,0.314653 v 0.327238 z"
         style="font-weight:bold;font-family:Triumvirate;-inkscape-font-specification:'Triumvirate Bold'"
         id="path89309" />
      <path
         d="m 582.90782,92.487688 h 1.93826 l 1.37189,4.933751 h 0.0252 l 1.37188,-4.933751 h 1.93826 l -2.41653,6.569944 h -1.86274 z"
         style="font-weight:bold;font-family:Triumvirate;-inkscape-font-specification:'Triumvirate Bold'"
         id="path89311" />
      <path
         d="m 592.41691,92.487688 h 1.68654 v 0.981716 h 0.0252 q 0.17621,-0.352411 0.42793,-0.57896 0.25172,-0.239136 0.52862,-0.364997 0.27689,-0.138447 0.55379,-0.188792 0.27689,-0.05034 0.50344,-0.05034 1.12016,0 1.69912,0.641891 0.59155,0.629305 0.59155,1.686537 v 4.442893 h -1.76205 v -4.014965 q 0,-0.390169 -0.10069,-0.629305 -0.10069,-0.251722 -0.26431,-0.390169 -0.15103,-0.151034 -0.365,-0.201378 -0.21396,-0.05034 -0.44051,-0.05034 -0.23914,0 -0.47827,0.0881 -0.23914,0.0881 -0.42793,0.314653 -0.18879,0.213963 -0.30207,0.57896 -0.11327,0.364997 -0.11327,0.9062 v 3.398246 h -1.76206 z"
         style="font-weight:bold;font-family:Triumvirate;-inkscape-font-specification:'Triumvirate Bold'"
         id="path89313" />
      <path
         d="m 605.89063,94.979736 q -0.0252,-0.22655 -0.10068,-0.453099 -0.0755,-0.22655 -0.22655,-0.402756 -0.15104,-0.176205 -0.39017,-0.28948 -0.22655,-0.113275 -0.56638,-0.113275 -0.32724,0 -0.56637,0.100689 -0.23914,0.100689 -0.40276,0.276894 -0.16362,0.163619 -0.25172,0.390169 -0.0881,0.22655 -0.11327,0.490858 z m 1.78723,2.114465 q -0.11327,0.339825 -0.32724,0.729994 -0.21396,0.377583 -0.57896,0.704821 -0.35241,0.314653 -0.88103,0.528616 -0.51603,0.201378 -1.23343,0.201378 -1.48516,0 -2.34102,-0.893613 -0.85585,-0.893613 -0.85585,-2.529806 0,-0.881027 0.22655,-1.535504 0.23913,-0.667063 0.65447,-1.107577 0.42793,-0.4531 1.00689,-0.679649 0.59155,-0.22655 1.30896,-0.22655 0.80551,0 1.38447,0.28948 0.57896,0.276894 0.94396,0.805511 0.36499,0.51603 0.5412,1.246023 0.1762,0.729994 0.1762,1.611021 h -4.48065 q 0.0126,0.327239 0.0881,0.616719 0.0881,0.28948 0.25173,0.503444 0.1762,0.213964 0.4531,0.339825 0.28948,0.125861 0.7174,0.125861 0.28948,0 0.47828,-0.06293 0.20137,-0.07552 0.32723,-0.176205 0.13845,-0.113275 0.22655,-0.239136 0.0881,-0.138447 0.15104,-0.251722 z"
         style="font-weight:bold;font-family:Triumvirate;-inkscape-font-specification:'Triumvirate Bold'"
         id="path89315" />
    </g>
    <g
       id="g128250"
       transform="matrix(0.5028147,0,0,0.5028147,-507.76302,-6.3294522)">
      <g
         id="g128248"
         transform="translate(-87.315972)">
        <path
           id="path128240"
           style="fill:#ffffff;stroke-width:0.175076"
           d="m 2257.6632,359.4802 h 32.7282 c 1.434,0 2.5884,1.15441 2.5884,2.58835 v 32.72826 c 0,1.43395 -1.1544,2.58836 -2.5884,2.58836 h -32.7282 c -1.434,0 -2.5884,-1.15441 -2.5884,-2.58836 v -32.72826 c 0,-1.43394 1.1544,-2.58835 2.5884,-2.58835 z" />
      </g>
    </g>
    <g
       aria-label="יבנה"
       id="text128308"
       style="font-size:12.5861px;font-family:'Heb Tamrurim';-inkscape-font-specification:'Heb Tamrurim';text-align:end;letter-spacing:1.78123px;text-anchor:end;fill:#ffffff;stroke-width:1.04883">
      <path
         d="m 598.23838,58.64786 -0.0105,1.730641 1.30746,-0.0042 -0.002,2.612805 1.72433,0.0063 0.002,-4.345552 h -3.02125 z"
         id="path89318" />
      <path
         d="m 589.38301,58.64786 0.004,1.715904 3.39391,-0.0042 -0.004,5.177186 h -3.64024 l 0.002,1.734852 h 6.04882 v -1.736957 h -0.69478 V 58.64786 h -5.10981 z"
         id="path89320" />
      <path
         d="m 583.04567,58.645755 0.002,1.722219 1.30114,0.01053 0.004,5.145606 -2.16014,0.0042 0.004,1.741169 2.2233,0.0021 q 0.0253,0 0.0526,-0.0021 1.54957,-0.218962 1.62116,-1.783277 l 0.002,-6.838349 -3.05073,-0.0021 z"
         id="path89322" />
      <path
         d="m 573.11865,58.645755 -0.002,1.72643 4.30134,0.0021 -0.004,6.893089 1.73906,-0.0021 -0.002,-8.615309 -6.03198,-0.0042 z m -0.004,3.882363 v 4.739262 l 1.72432,-0.0063 -0.002,-4.739262 -1.72222,0.0063 z"
         id="path89324" />
    </g>
    <g
       aria-label="שוק עירובי"
       id="text128380"
       style="font-size:12.5861px;font-family:'Heb Tamrurim';-inkscape-font-specification:'Heb Tamrurim';text-align:end;letter-spacing:0.929282px;text-anchor:end;fill:#ffffff;stroke-width:1.04883">
      <path
         d="m 627.94196,114.71902 1.76223,8.61741 2.03171,0.002 q 2.81492,-0.28002 3.57497,-3.00441 l 1.29693,-5.61722 h -1.82538 l -1.22535,5.64038 q -0.4674,1.19166 -1.74748,1.25692 l -0.68426,0.006 -0.52003,-2.59596 h 1.66116 l 0.93901,-4.30976 -1.78749,0.002 -0.87163,4.06133 -0.81479,-4.06133 -1.7896,0.002 z"
         id="path89327" />
      <path
         d="m 622.75765,114.72112 -0.006,1.72643 1.31799,-0.002 v 6.89519 l 1.68432,-0.004 -0.006,-8.61531 h -2.98967 z"
         id="path89329" />
      <path
         d="m 614.54789,114.70428 v 1.7159 h 4.31397 l -0.008,3.49918 q -0.0632,1.43589 -1.4801,1.67169 h -0.25896 v 1.74117 h 0.50319 q 2.58122,-0.44003 2.94546,-3.03388 l -0.002,-5.59406 h -6.01303 z m -0.002,10.30174 h 1.72432 v -6.38779 h -1.72432 v 6.38779 z"
         id="path89331" />
      <path
         d="m 600.22113,114.74218 1.36851,6.89098 -1.36009,0.004 0.004,1.70959 h 4.00027 q 1.39167,-0.14317 1.68853,-1.50957 l 0.779,-7.09311 -1.73064,-0.004 -0.73689,6.8973 -0.8569,-0.002 -1.33272,-6.8952 -1.82328,0.002 z"
         id="path89333" />
      <path
         d="m 595.01155,114.7127 -0.0105,1.73064 1.30745,-0.004 -0.002,2.61281 1.72432,0.006 0.002,-4.34555 h -3.02126 z"
         id="path89335" />
      <path
         d="m 587.64185,114.70428 -0.008,1.72222 3.4297,-0.002 0.004,6.90782 1.74538,-0.004 -0.002,-6.88256 q 0.002,-0.04 0,-0.0821 -0.1558,-1.52431 -1.68222,-1.65274 l -3.48655,-0.006 z"
         id="path89337" />
      <path
         d="m 582.44912,114.72112 -0.006,1.72643 1.31798,-0.002 v 6.89519 l 1.68432,-0.004 -0.006,-8.61531 h -2.98968 z"
         id="path89339" />
      <path
         d="m 574.44991,114.7127 0.004,1.71591 3.39391,-0.004 -0.004,5.17718 h -3.64024 l 0.002,1.73485 h 6.04883 v -1.73695 h -0.69479 v -6.88678 h -5.10981 z"
         id="path89341" />
      <path
         d="m 568.994,114.7127 -0.0105,1.73064 1.30746,-0.004 -0.002,2.61281 1.72433,0.006 0.002,-4.34555 H 568.994 Z"
         id="path89343" />
    </g>
    <path
       id="path59918-0-1"
       style="color:#000000;fill:#ffffff;stroke-width:0.475402;-inkscape-stroke:none;paint-order:stroke fill markers"
       d="m 631.66635,66.759634 v 5.926751 0 c -0.24142,0.0732 -0.47992,0.16097 -0.71041,0.26339 -1.502,0.65775 -2.71099,1.89701 -3.32544,3.4211 -0.38226,0.22669 -0.82894,0.35838 -1.30702,0.35838 h -4.89185 v 0.86698 h 5.56379 c 0.51726,0 0.96899,-0.27074 1.22217,-0.67865 v 0 c 0.63541,-1.87973 2.27771,-3.31232 4.27251,-3.64369 v 0 c 0,-0.0374 0,-0.0475 0,-0.0731 0,-0.007 0,0 0,0 0,-0.041 0,-0.0769 0,-0.1172 0,-0.041 0,-0.084 0,-0.12789 v -6.184681 z m 2.96,0 v 4.981161 0.58383 c 0,0.041 0,0.0804 0,0.12071 0,0 -4.3e-4,0.007 0,0.007 0,0.041 0,0.0804 0,0.11696 0.0696,0.41342 0.31462,0.76569 0.65661,0.97813 v 0 0 c 0.0368,0 0.0411,0.0368 0.0624,0.0368 v 0.007 c 0.0545,0.0374 0.10973,0.0439 0.16449,0.066 0.0732,0.0368 0.14631,0.066 0.21947,0.0987 0.0987,0.0475 0.19748,0.0988 0.29265,0.15004 0.57392,0.32549 1.08247,0.75388 1.50413,1.2569 0.0375,0.0368 0.0411,0.0475 0.0581,0.0732 0.35844,0.444 0.64386,0.94809 0.85054,1.48917 h -0.50956 c -0.80369,0 -1.50936,0.40351 -1.92741,1.01946 -0.38771,-1.12627 -1.44671,-1.89292 -2.64881,-1.89547 -1.23747,0.007 -2.29748,0.81123 -2.66376,1.94594 -0.25235,0.49488 -0.65734,0.93253 -1.1428,1.26645 -0.23042,0.15722 -0.47843,0.2926 -0.73735,0.40019 -0.0581,0.0368 -0.12074,0.0439 -0.17931,0.066 -0.25602,0.0878 -0.52201,0.15722 -0.78434,0.18668 -0.12792,0 -0.25596,0.0368 -0.38623,0.0368 h -6.05476 v 0.81474 h 6.05476 c 0.5219,0 1.01874,-0.10249 1.48003,-0.28541 0,0 0.0375,0 0.0509,0 0.0411,-0.0368 0.0842,-0.0368 0.12432,-0.0546 0.40495,-0.17913 0.77699,-0.41622 1.1029,-0.70519 0.0375,-0.0362 0.0624,-0.0511 0.0916,-0.0805 0.57576,-0.51906 0.99672,-1.18013 1.24543,-1.92261 0.38854,-0.61197 1.06304,-1.00313 1.81147,-1.00443 1.19104,0 2.15682,0.9656 2.15682,2.15659 0,0.8908 -0.54731,1.68974 -1.37795,2.01113 v 0 0 c -1.64064,0.57772 -2.81086,2.13493 -2.81086,3.97744 v 3.50546 h 3.81351 v -2.40217 c 0,-0.46567 0.12432,-0.90023 0.34016,-1.27548 1.38454,-0.51727 2.54596,-1.52319 3.27212,-2.79701 0.45867,-0.6774 1.23088,-1.1252 2.11462,-1.1252 h 0.50996 l -1.27044,4.23339 c -0.0545,0.16465 0,0.34028 0.14632,0.46164 0.10255,0.0879 0.23778,0.13543 0.37642,0.13911 0.13532,0.007 0.27431,-0.0374 0.38587,-0.11346 l 10.31555,-6.28039 v -0.007 0 0 c 0,0 0.0361,0 0.0361,-0.0362 l 0.0375,-0.007 c 0.23787,-0.18287 0.27442,-0.49275 0.0806,-0.71552 -0.0375,-0.0362 -0.0476,-0.0511 -0.0806,-0.0768 v 0 0 c -0.0375,-0.007 -0.0375,0 -0.0375,0 l -10.38281,-6.28591 c -0.11355,-0.0805 -0.24878,-0.11342 -0.38636,-0.10974 -0.13532,0 -0.27068,0.0511 -0.37162,0.139 -0.12432,0.10974 -0.1903,0.2597 -0.15372,0.41224 v 0.0546 l 1.36043,4.37257 h -1.66991 -0.51797 c -0.17931,-0.53016 -0.42436,-1.03062 -0.73198,-1.48929 v 0 c -0.58821,-0.90214 -1.41268,-1.63731 -2.38358,-2.11836 -0.0368,-0.0368 -0.0732,-0.041 -0.11333,-0.0624 0,0 -0.0375,0 -0.0375,0 -0.0581,-0.0362 -0.11692,-0.0511 -0.17549,-0.0768 -0.0368,-0.0368 -0.0411,-0.066 -0.0581,-0.0952 -0.11333,-0.20484 -0.29279,-0.39425 -0.29279,-0.63573 v -0.49381 0 c 0,-0.0368 0,-0.0624 0,-0.0877 v -4.892259 z" />
    <path
       id="path147119"
       style="color:#000000;fill:#ffffff;stroke-width:0.402445;-inkscape-stroke:none;paint-order:stroke fill markers"
       d="m 546.5933,172.25813 c -0.0821,0 -0.1618,0.0397 -0.23392,0.10211 -0.0249,0.0249 -0.0422,0.0397 -0.0622,0.0671 v 0.0296 l -5.31675,8.78698 c -0.13419,0.18918 -0.12432,0.46706 0.0249,0.64149 0.092,0.10435 0.22396,0.16427 0.35008,0.13689 h 0.0498 l 3.69837,-1.15182 v 1.21506 0.19905 c 0,0.10457 0,0.20398 0.0249,0.30607 -1.54029,0.4621 -2.80181,1.62488 -3.40204,3.10564 -0.32525,0.19411 -0.70044,0.31111 -1.10803,0.31111 h -4.14079 v 0.73375 h 4.70935 c 0.4377,0 0.8209,-0.22894 1.03514,-0.57356 h 0.0249 c 0.4718,-1.39517 1.59974,-2.49995 3.00838,-2.94017 0,0.0249 0.0249,0.0249 0.0249,0.0397 0.23388,0.78933 0.69374,1.47808 1.30738,1.99267 -1.03988,0 -1.93217,0.69225 -2.24051,1.64753 -0.21655,0.419 -0.55639,0.79129 -0.96715,1.07395 -0.19658,0.13442 -0.40261,0.2495 -0.62212,0.34016 -0.0498,0.0249 -0.0969,0.035 -0.1517,0.0545 -0.21902,0.0747 -0.44345,0.13442 -0.66588,0.15933 -0.10705,0.0249 -0.21409,0.0249 -0.32573,0.0249 h -5.13208 v 0.69021 h 5.13208 c 0.44192,0 0.85845,-0.0871 1.24912,-0.24385 0,0 0.0321,-0.0249 0.0397,-0.0249 0.035,-0.0249 0.0723,-0.0296 0.10704,-0.0444 0.34334,-0.14923 0.65684,-0.35303 0.93306,-0.59795 0.0321,-0.0249 0.0498,-0.0444 0.0772,-0.0671 0.4877,-0.43968 0.84377,-0.99904 1.05449,-1.62805 0.329,-0.51859 0.90178,-0.84954 1.53584,-0.85055 0.50433,-2.3e-4 0.96192,0.20398 1.29288,0.53449 0.0422,0.0422 0.0797,0.0871 0.11692,0.13195 0.0375,0.0444 0.0745,0.092 0.10704,0.14183 0.19658,0.29166 0.31107,0.64221 0.31107,1.02072 0,0.0343 0,0.0723 0,0.10704 0,0.0343 0,0.0723 -0.0249,0.10704 h 0.0249 c -0.0797,0.67033 -0.52404,1.24862 -1.16654,1.49195 v 0 c -1.37997,0.49298 -2.3619,1.80879 -2.3619,3.36297 v 2.96457 h 3.22711 v -2.03144 c 0,-0.39442 0.10457,-0.76593 0.28661,-1.08364 1.60274,-0.60045 2.85756,-1.9688 3.29035,-3.6402 0.29759,-0.15417 0.63096,-0.24883 0.99125,-0.24883 h 4.14581 v -0.73381 h -4.71437 c -0.0945,0 -0.18401,0 -0.27193,0.0296 0,-0.10951 0.0249,-0.21879 0.0249,-0.33037 0,-0.5248 -0.0797,-1.03043 -0.22895,-1.51165 h 5.20031 v -0.69506 h -5.07865 c -0.12926,0 -0.25776,0 -0.38392,0.0249 -0.45315,-0.96603 -1.1929,-1.78188 -2.10436,-2.32784 -0.55116,-0.39139 -0.909,-1.03342 -0.909,-1.7642 v -0.43248 l 3.58199,1.07397 c 0.13935,0.0444 0.29181,0 0.39365,-0.12186 0.0745,-0.0871 0.11198,-0.20398 0.11692,-0.3207 0,-0.11691 -0.0249,-0.23143 -0.092,-0.32548 l -5.31679,-8.73343 c 0,0 0,-0.0296 -0.0249,-0.0296 v -0.0296 c -0.0972,-0.12432 -0.23886,-0.1867 -0.37425,-0.17414 z" />
    <path
       id="path147445"
       style="color:#000000;fill:#ffffff;stroke-width:0.402445;-inkscape-stroke:none;paint-order:stroke fill markers"
       d="m 546.5933,125.94607 c -0.0821,0 -0.1618,0.0398 -0.23392,0.10202 -0.0249,0.0249 -0.0422,0.0398 -0.0622,0.0671 v 0.0297 l -5.31675,8.787 c -0.13419,0.18904 -0.12432,0.46704 0.0249,0.64148 0.092,0.10444 0.22396,0.16418 0.35008,0.1368 h 0.0498 l 3.69837,-1.1518 v 1.21503 0.19903 c 0,0.10455 0,0.20408 0.0249,0.30608 -1.54029,0.46211 -2.80181,1.6249 -3.40204,3.10564 -0.32525,0.19415 -0.70044,0.31112 -1.10803,0.31112 h -4.14079 v 0.73375 h 4.70935 c 0.4377,0 0.8209,-0.22895 1.03514,-0.57356 h 0.0249 c 0.4718,-1.39518 1.59974,-2.49996 3.00838,-2.94016 0,0.0249 0.0249,0.0249 0.0249,0.0398 0.23388,0.78933 0.69374,1.47807 1.30738,1.99267 -1.03988,0 -1.93217,0.69225 -2.24051,1.64752 -0.21655,0.41901 -0.55639,0.79128 -0.96715,1.07397 -0.19658,0.1343 -0.40261,0.24949 -0.62212,0.34015 -0.0498,0.0249 -0.0969,0.035 -0.1517,0.0546 -0.21902,0.0747 -0.44345,0.13438 -0.66588,0.15931 -0.10705,0.0249 -0.21409,0.0249 -0.32573,0.0249 h -5.13208 v 0.69023 h 5.13208 c 0.44192,0 0.85845,-0.0871 1.24912,-0.24385 0,0 0.0321,-0.0249 0.0397,-0.0249 0.035,-0.0249 0.0723,-0.0297 0.10704,-0.0445 0.34334,-0.14927 0.65684,-0.35304 0.93306,-0.59796 0.0321,-0.0249 0.0498,-0.0445 0.0772,-0.0672 0.4877,-0.43967 0.84377,-0.99904 1.05449,-1.62805 0.329,-0.51857 0.90178,-0.84953 1.53584,-0.85054 0.50433,-2.3e-4 0.96192,0.20401 1.29288,0.53449 0.0422,0.0422 0.0797,0.0871 0.11692,0.13186 0.0375,0.0445 0.0745,0.092 0.10704,0.14185 0.19658,0.29165 0.31107,0.6422 0.31107,1.02071 0,0.0344 0,0.0721 0,0.10699 0,0.0345 0,0.0722 -0.0249,0.107 h 0.0249 c -0.0797,0.67034 -0.52404,1.24865 -1.16654,1.49196 v 0 c -1.37997,0.49299 -2.3619,1.80879 -2.3619,3.36297 v 2.96456 h 3.22711 v -2.03143 c 0,-0.39443 0.10457,-0.76593 0.28661,-1.08364 1.60274,-0.60046 2.85756,-1.9688 3.29035,-3.64019 0.29759,-0.15426 0.63096,-0.24884 0.99125,-0.24884 h 4.14581 v -0.73382 h -4.71437 c -0.0945,0 -0.18401,0 -0.27193,0.0297 0,-0.10942 0.0249,-0.21891 0.0249,-0.33036 0,-0.52481 -0.0797,-1.03044 -0.22895,-1.51167 h 5.20031 v -0.69504 h -5.07865 c -0.12926,0 -0.25776,0 -0.38392,0.0249 -0.45315,-0.96602 -1.1929,-1.78188 -2.10436,-2.32783 -0.55116,-0.3914 -0.909,-1.03341 -0.909,-1.76419 v -0.43249 l 3.58199,1.07397 c 0.13935,0.0445 0.29181,0 0.39365,-0.12197 0.0745,-0.0871 0.11198,-0.20401 0.11692,-0.32068 0,-0.11696 -0.0249,-0.23144 -0.092,-0.32549 l -5.31679,-8.73344 c 0,0 0,-0.0297 -0.0249,-0.0297 v -0.0297 c -0.0972,-0.12439 -0.23886,-0.18662 -0.37425,-0.17421 z" />
    <g
       id="g184809"
       transform="matrix(0.50281602,0,0,0.50281602,-1075.9008,-460.11777)">
      <path
         d="m 3311.6912,1269.6335 c -1.6836,1.193 -3.4653,2.1091 -4.9396,3.8965 v 5.0828 h -0.2033 c -0.3109,0 -0.562,-0.2489 -0.562,-0.5578 0,0 0,-0.01 0,-0.011 h -0.8131 c -1.9849,0 -3.5824,1.5978 -3.5824,3.5828 0,1.985 1.5975,3.5831 3.5824,3.5831 h 1.5365 5.5961 9.4009 c 0.6457,0 1.1718,-0.5202 1.1718,-1.1662 v -4.8338 c 0,-0.6461 -0.5141,-1.1659 -1.1718,-1.1659 h -8.6954 c 0,0 0,0.01 0,0.011 0,0.3089 -0.2511,0.5578 -0.562,0.5578 h -4.9564 v -3.2807 c 1.4002,-0.2338 2.6976,-0.7767 3.946,-1.4658 l 3.6769,0.845 2.8698,0.1172 2.2001,-0.7259 0.5501,-3.6393 -1.8415,0.7972 c -2.4979,-0.1159 -4.8607,-0.8358 -7.2079,-1.6271 z m 12.1965,8.4092 v 0.6861 2.3595 4.6225 h -21.4958 v 2.3416 0.8478 h -0.5261 v 0.5852 h 0.4544 v 0.1345 c 0,0.7512 0.6098,1.356 1.3559,1.356 0.7534,0 1.356,-0.6047 1.356,-1.356 v -0.7198 h 0.8251 c 0.263,1.1898 1.3141,2.0757 2.584,2.0757 1.4671,0 2.6473,-1.1808 2.6473,-2.6477 v -0.2758 h 1.0045 v 0.2758 c 0,1.4669 1.1837,2.6477 2.6473,2.6477 1.4672,0 2.6474,-1.1808 2.6474,-2.6477 v -0.2758 h 1.5126 v 0.2758 c 0,1.4669 1.1838,2.6477 2.6486,2.6477 1.2914,0 2.3604,-0.9159 2.5971,-2.1362 h 2.4644 a 1.4940382,1.4940382 0 0 0 -0.1434,0.6455 1.4940382,1.4940382 0 0 0 1.4946,1.4938 1.4940382,1.4940382 0 0 0 1.4935,-1.4938 1.4940382,1.4940382 0 0 0 -0.1435,-0.6455 h 1.2257 v -0.6056 h -1.1958 v -0.1817 -2.3417 -4.6225 h -2.7454 v -2.3595 h 2.7454 v -0.6861 h -2.7454 z"
         style="fill:#000000;stroke-width:0.15796"
         id="path153504" />
      <rect
         y="1290.9188"
         x="3300.1721"
         height="0.48529932"
         width="32.886162"
         id="rect153506"
         style="fill:#000000;stroke-width:0.15796" />
    </g>
    <g
       fill="#000000"
       fill-opacity="1"
       id="g32685"
       transform="matrix(0.59727342,0,0,0.59727342,489.65139,-214.20004)"
       style="fill:#ffffff">
      <g
         id="use32683"
         transform="translate(153.38,494.92001)"
         style="fill:#ffffff">
        <path
           d="M 0,-4.234375 H 5.6875 V 0 H 0 Z m 0,0"
           id="path43754"
           style="fill:#ffffff" />
      </g>
    </g>
    <g
       fill="#000000"
       fill-opacity="1"
       id="g32689"
       transform="matrix(0.59727342,0,0,0.59727342,489.65139,-214.20004)"
       style="fill:#ffffff">
      <g
         id="use32687"
         transform="translate(145.75999,494.92001)"
         style="fill:#ffffff">
        <path
           d="m 5.3125,-8.6875 0.671875,3.515625 c 0.058594,0.355469 0.171875,0.601562 0.328125,0.734375 0.164063,0.136719 0.445313,0.203125 0.84375,0.203125 H 7.640625 V 0 h -0.6875 C 6.398438,0 5.894531,-0.242188 5.4375,-0.734375 4.976563,-1.222656 4.695313,-1.847656 4.59375,-2.609375 H 4.390625 L 3.625,-0.9375 C 3.4375,-0.550781 3.246094,-0.292969 3.0625,-0.171875 2.882813,-0.0546875 2.550781,0 2.0625,0 H 0 v -4.234375 h 4.03125 l -0.40625,-2 z M 2.640625,-12.53125 4.75,-11.078125 3.34375,-9.0625 l -2.078125,-1.5 z m 0,0"
           id="path43726"
           style="fill:#ffffff" />
      </g>
    </g>
    <g
       fill="#000000"
       fill-opacity="1"
       id="g32693"
       transform="matrix(0.59727342,0,0,0.59727342,489.65139,-214.20004)"
       style="fill:#ffffff">
      <g
         id="use32691"
         transform="translate(140.06,494.92001)"
         style="fill:#ffffff">
        <path
           d="M -0.09951115,-4.234375 H 5.786503 V 0 h -5.88601415 z"
           id="path43758"
           style="fill:#ffffff"
           sodipodi:nodetypes="ccccc" />
      </g>
    </g>
    <g
       fill="#000000"
       fill-opacity="1"
       id="g32697"
       transform="matrix(0.59727342,0,0,0.59727342,489.65139,-214.20004)"
       style="fill:#ffffff">
      <g
         id="use32695"
         transform="translate(126.56,494.92001)"
         style="fill:#ffffff">
        <path
           d="M 8.1875,4.765625 9.921875,5.90625 8.953125,7.390625 7.21875,6.25 Z M 11.359375,4.59375 13.015625,5.640625 11.875,7.390625 10.21875,6.3125 Z m -9.5625,-9.171875 H 2.59375 c -0.148437,0.375 -0.257812,0.742187 -0.328125,1.09375 -0.0625,0.355469 -0.09375,0.714844 -0.09375,1.078125 0,1.167969 0.359375,2.058594 1.078125,2.671875 0.726563,0.621094 1.785156,0.9375 3.171875,0.9375 0.664063,0 1.34375,-0.113281 2.03125,-0.328125 0.695313,-0.21875 1.441406,-0.554687 2.234375,-1 L 8.125,-1.09375 9.9375,-4.234375 h 3.59375 V 0 h -1 C 11.789063,1.488281 10.804688,2.660156 9.578125,3.515625 8.359375,4.367188 7.070313,4.796875 5.71875,4.796875 H 5.671875 c -1.5,0 -2.679687,-0.472656 -3.53125,-1.40625 C 1.285156,2.453125 0.859375,1.152344 0.859375,-0.5 c 0,-0.683594 0.070313,-1.363281 0.21875,-2.03125 0.152344,-0.664063 0.394531,-1.347656 0.71875,-2.046875 z m 0,0"
           id="path43762"
           style="fill:#ffffff" />
      </g>
    </g>
    <path
       d="M 604.08301,86.154885"
       id="path63473-8"
       style="fill:#ffffff;fill-opacity:1;stroke-width:0.791657" />
    <g
       fill="#000000"
       fill-opacity="1"
       id="g32677"
       transform="matrix(0.59727342,0,0,0.59727342,489.65139,-214.20004)"
       style="fill:#ffffff">
      <g
         id="use32665"
         transform="translate(169.58,494.92001)"
         style="fill:#ffffff">
        <path
           id="path43766"
           style="fill:#ffffff"
           d="m 3.2348154,-14.311634 -2.29689437,1.671704 v 9.3273713 c 0,1.1054657 0.22257067,1.9344486 0.67178817,2.4852281 0.4453118,0.55468532 1.1131157,0.82711495931 1.999832,0.82711495931 h 0.5086951 0.00582 23.5747177 V -4.2348113 H 4.1240611 3.2348154 Z"
           sodipodi:nodetypes="ccscsccccccc" />
      </g>
      <g
         id="use32667"
         transform="translate(173.69749,494.92001)"
         style="fill:#ffffff" />
      <g
         id="use32669"
         transform="translate(179.39,494.92001)"
         style="fill:#ffffff" />
      <g
         id="use32671"
         transform="translate(185.0825,494.92001)"
         style="fill:#ffffff" />
      <g
         id="use32673"
         transform="translate(190.77499,494.92001)"
         style="fill:#ffffff" />
      <g
         id="use32675"
         transform="translate(196.4675,494.92001)"
         style="fill:#ffffff">
        <path
           d="m 4.796875,-8.890625 1.546875,4.375 c 0.027344,0.085937 0.054688,0.167969 0.078125,0.25 0.019531,0.074219 0.03125,0.121094 0.03125,0.140625 0,0.09375 -0.011719,0.191406 -0.03125,0.28125 -0.011719,0.085937 -0.039062,0.167969 -0.078125,0.25 L 5.15625,-0.6875 C 5.050781,-0.457031 4.914063,-0.285156 4.75,-0.171875 4.59375,-0.0546875 4.394531,0 4.15625,0 H 0 V -4.234375 H 4.09375 L 3.28125,-6.6875 Z"
           id="path43730"
           sodipodi:nodetypes="cccsccccsccccc"
           style="fill:#ffffff" />
      </g>
    </g>
    <g
       fill="#000000"
       fill-opacity="1"
       id="g32681"
       transform="matrix(0.59727342,0,0,0.59727342,489.65139,-214.20004)"
       style="fill:#ffffff">
      <g
         id="use32679"
         transform="translate(159.08,494.92001)"
         style="fill:#ffffff">
        <path
           d="M 6.609375,0 H -0.19897294 V -4.234375 H 8.140625 C 8.078125,-4.554688 7.996094,-4.882813 7.90625,-5.21875 7.8125,-5.558594 7.695313,-5.921875 7.5625,-6.296875 7.207031,-5.941406 6.808594,-5.664063 6.375,-5.46875 5.9375,-5.269531 5.507813,-5.171875 5.09375,-5.171875 4.457031,-5.171875 3.925781,-5.382813 3.5,-5.8125 3.082031,-6.238281 2.875,-6.769531 2.875,-7.40625 c 0,-0.414063 0.097656,-0.890625 0.296875,-1.421875 0.207031,-0.539063 0.488281,-1.054688 0.84375,-1.546875 0.308594,-0.445313 0.648438,-0.789063 1.015625,-1.03125 0.371094,-0.246094 0.726563,-0.375 1.0625,-0.375 0.871094,0 1.671875,0.742187 2.390625,2.21875 0.726563,1.480469 1.09375,3.257812 1.09375,5.328125 0,1.398437 -0.253906,2.457031 -0.75,3.171875 C 8.335938,-0.351563 7.597656,0 6.609375,0 Z m 0.25,-7.609375 C 6.585938,-7.941406 6.300781,-8.207031 6,-8.40625 5.707031,-8.613281 5.460938,-8.71875 5.265625,-8.71875 c -0.21875,0 -0.441406,0.070312 -0.65625,0.203125 -0.21875,0.125 -0.398437,0.292969 -0.53125,0.5 0.152344,0.25 0.363281,0.441406 0.625,0.5625 0.257813,0.125 0.5625,0.1875 0.90625,0.1875 0.175781,0 0.367188,-0.023438 0.578125,-0.078125 0.207031,-0.058594 0.429688,-0.148438 0.671875,-0.265625 z m -4,-7.015625 1.90625,1.28125 -1.1875,1.75 -1.90625,-1.265625 z"
           id="path43734"
           style="fill:#ffffff"
           sodipodi:nodetypes="sccccccscscccscscsccscccsccccccc" />
      </g>
    </g>
    <path
       d="m 608.43485,85.982045 -1.21224,-0.8164 0.74218,-1.12562 1.21225,0.8164 z"
       id="path63475-0"
       style="fill:#ffffff;fill-opacity:1;stroke-width:0.791657" />
    <path
       d="m 609.57282,84.188465 -1.21218,-0.82875 0.75453,-1.11327 1.21225,0.80399 z"
       id="path63477-3"
       style="fill:#ffffff;fill-opacity:1;stroke-width:0.791657" />
    <path
       d="m 607.14839,84.188465 -1.21224,-0.82875 0.76693,-1.11327 1.1875,0.80399 z"
       id="path63479-0"
       style="fill:#ffffff;fill-opacity:1;stroke-width:0.791657" />
    <g
       fill="#000000"
       fill-opacity="1"
       id="g32625"
       transform="matrix(0.59390617,0,0,0.59390617,216.7908,1.9595158)"
       style="fill:#ffffff">
      <g
         id="use32601"
         transform="translate(150.52111,455.79999)"
         style="fill:#ffffff">
        <path
           d="m 452.09901,-223.3142 1.90625,1.28125 -1.07813,1.57813 -1.90625,-1.28125 z m -3.46875,0 1.92187,1.28125 -1.01562,1.57813 -1.90625,-1.28125 z m 6.76562,-14.78125 c 0.0195,0.043 0.0313,0.0898 0.0313,0.14063 0,0.043 0,0.11718 0,0.21875 0,0.375 -0.0859,0.76953 -0.25,1.17187 -0.16796,0.39844 -0.41406,0.8086 -0.73437,1.23438 -0.36719,-0.19532 -0.70703,-0.33594 -1.01563,-0.42188 -0.3125,-0.082 -0.63671,-0.125 -0.96875,-0.125 -0.625,0 -1.19531,0.21094 -1.70312,0.625 -0.51172,0.41797 -0.76563,0.86328 -0.76563,1.32813 0,0.28125 0.0977,0.50781 0.29688,0.67187 0.19531,0.16797 0.69531,0.36328 1.5,0.57813 1.22656,0.32422 2.03125,0.62109 2.40625,0.89062 0.37109,0.26172 0.5625,0.60547 0.5625,1.03125 0,0.71875 -0.17578,1.45703 -0.51563,2.20313 -0.34375,0.75 -0.83984,1.48437 -1.48437,2.20312 -0.8125,0.88281 -1.66797,1.54688 -2.5625,1.98438 -0.89844,0.43359 -1.84766,0.65625 -2.84375,0.65625 -1.51172,0 -2.69922,-0.47657 -3.5625,-1.42188 -0.86719,-0.9375 -1.29688,-2.22656 -1.29688,-3.85937 0,-0.60157 0.0703,-1.22266 0.21875,-1.85938 0.14454,-0.63281 0.375,-1.29687 0.6875,-1.98437 h 0.64063 c -0.0937,0.3125 -0.16797,0.61718 -0.21875,0.90625 -0.043,0.29297 -0.0625,0.57422 -0.0625,0.84375 0,1.23047 0.36328,2.1914 1.09375,2.875 0.73828,0.67578 1.76562,1.01562 3.07812,1.01562 0.72657,0 1.46875,-0.13281 2.21875,-0.39062 0.7461,-0.25782 1.52344,-0.64844 2.32813,-1.17188 -0.38672,-0.51953 -1.17578,-0.96094 -2.35938,-1.32812 -0.51171,-0.15235 -0.89453,-0.28516 -1.14062,-0.39063 -0.36719,-0.14453 -0.63281,-0.34765 -0.79688,-0.60937 -0.16796,-0.26953 -0.25,-0.625 -0.25,-1.0625 0,-0.50782 0.14063,-1.07032 0.42188,-1.6875 0.28906,-0.6211 0.71875,-1.28516 1.28125,-1.98438 0.62109,-0.78906 1.33203,-1.39844 2.125,-1.82812 0.78906,-0.42578 1.60156,-0.64063 2.4375,-0.64063 0.0703,0 0.20312,0.0195 0.39062,0.0469 0.19532,0.0313 0.46875,0.082 0.8125,0.14063 z m 0,0"
           id="path65391"
           style="fill:#ffffff" />
      </g>
      <g
         id="use32603"
         transform="translate(167.24304,455.79999)"
         style="fill:#ffffff">
        <path
           d="m 449.59901,-237.97045 0.76562,5.20313 c 0.0508,0.33593 0.14844,0.5664 0.29688,0.6875 0.14453,0.125 0.41406,0.1875 0.8125,0.1875 h 0.25 v 4.23437 h -0.0781 c -0.74218,0 -1.33593,-0.21875 -1.78125,-0.65625 -0.44921,-0.43359 -0.74609,-1.08594 -0.89062,-1.95312 h -0.20313 l -0.76562,1.67187 c -0.17969,0.375 -0.36328,0.62891 -0.54688,0.75 -0.1875,0.125 -0.53515,0.1875 -1.03125,0.1875 h -1.42187 c -0.92969,0 -1.58203,-0.17578 -1.95313,-0.53125 -0.375,-0.35156 -0.5625,-0.94531 -0.5625,-1.78125 v -3.15625 h 0.46875 c 0.0586,0.48047 0.21094,0.8086 0.45313,0.98438 0.23828,0.16797 0.67578,0.25 1.3125,0.25 h 4 l -0.46875,-4.21875 z m 0,0"
           id="path65429"
           style="fill:#ffffff" />
      </g>
      <g
         id="use32605"
         transform="translate(179.345,455.79999)"
         style="fill:#ffffff">
        <path
           d="m 447.36463,-241.97045 v 9 c 0,0.39844 0.0664,0.67969 0.20313,0.84375 0.13281,0.15625 0.35156,0.23438 0.65625,0.23438 h 0.40625 v 4.23437 h -0.71875 c -0.53125,0 -1.02734,-0.24219 -1.48438,-0.73437 -0.46093,-0.4961 -0.74609,-1.125 -0.85937,-1.875 h -0.20313 l -0.76562,1.67187 c -0.16797,0.38672 -0.34766,0.64453 -0.53125,0.76563 -0.17969,0.11718 -0.51953,0.17187 -1.01563,0.17187 h -3.53643 v -4.23437 h 5.55206 v -8.40625 z"
           id="path65395"
           sodipodi:nodetypes="cscsccssccccsccccc"
           style="fill:#ffffff" />
      </g>
      <g
         id="use32607"
         transform="translate(186.3425,455.79999)"
         style="fill:#ffffff">
        <path
           d="m 445.45838,-226.3142 2.09375,1.48438 -1.35937,1.98437 -2.125,-1.46875 z m 1.46875,-10.03125 0.67188,3.51563 c 0.0586,0.35547 0.17187,0.60156 0.32812,0.73437 0.16407,0.13672 0.44532,0.20313 0.84375,0.20313 h 0.48438 v 4.23437 h -0.6875 c -0.55469,0 -1.05859,-0.24219 -1.51563,-0.73437 -0.46093,-0.48828 -0.74218,-1.11328 -0.84375,-1.875 h -0.20312 l -0.76563,1.67187 c -0.1875,0.38672 -0.3789,0.64453 -0.5625,0.76563 -0.17968,0.11718 -0.51171,0.17187 -1,0.17187 h -2.0625 v -4.23437 h 4.03125 l -0.40625,-2 z m 0,0"
           id="path65433"
           style="fill:#ffffff" />
      </g>
      <g
         id="use32609"
         transform="translate(193.99249,455.79999)"
         style="fill:#ffffff">
        <path
           d="m 446.16151,-242.11107 2.09375,1.46875 -0.90625,1.26562 v 7.84375 l -1.20313,3.01563 c -0.14843,0.34375 -0.28906,0.57422 -0.42187,0.6875 -0.13672,0.11718 -0.42969,0.17187 -0.875,0.17187 h -3.23438 v -4.23437 h 3.60938 v -7.875 l -0.45313,-0.35938 z m 0,0"
           id="path65421"
           style="fill:#ffffff" />
      </g>
      <g
         id="use32611"
         transform="translate(201.14751,455.79999)"
         style="fill:#ffffff">
        <path
           d="m 445.77088,-241.97045 v 10.4375 l -1.64062,3.875 h -0.625 v -12.64062 z m 0,0"
           id="path65413"
           style="fill:#ffffff" />
      </g>
      <g
         id="use32613"
         transform="translate(207.28999,455.79999)"
         style="fill:#ffffff" />
      <g
         id="use32615"
         transform="translate(212.91499,455.79999)"
         style="fill:#ffffff">
        <path
           d="m 443.34901,-231.70482 h 0.65625 c -0.11719,0.3125 -0.20703,0.6289 -0.26563,0.9375 -0.0547,0.3125 -0.0781,0.62109 -0.0781,0.92187 0,1.16797 0.33203,2.08203 1,2.73438 0.67578,0.65234 1.60937,0.98437 2.79687,0.98437 0.85157,0 1.72266,-0.12109 2.60938,-0.35937 0.88281,-0.23047 1.47266,-0.45703 1.76562,-0.67188 0.20704,-0.16797 0.375,-0.42969 0.5,-0.78125 0.1211,-0.35156 0.1875,-0.75 0.1875,-1.1875 0,-0.18359 -0.0195,-0.375 -0.0469,-0.5625 -0.0313,-0.18359 -0.0898,-0.40625 -0.17188,-0.65625 -0.46093,0.5625 -0.90234,0.97656 -1.32812,1.23438 -0.42969,0.26172 -0.85547,0.39062 -1.28125,0.39062 -0.65625,0 -1.21484,-0.28515 -1.67188,-0.85937 -0.46093,-0.57032 -0.6875,-1.22266 -0.6875,-1.95313 0,-0.48828 0.0859,-1.07031 0.26563,-1.75 0.18359,-0.67578 0.42187,-1.2539 0.70312,-1.73437 0.28907,-0.50782 0.625,-0.89844 1,-1.17188 0.38282,-0.27734 0.77344,-0.42187 1.17188,-0.42187 0.95703,0 1.78125,0.63281 2.46875,1.89062 0.69531,1.25 1.04687,2.78516 1.04687,4.59375 0,1.07422 -0.1914,2.08203 -0.5625,3.01563 -0.36718,0.94531 -0.91406,1.80468 -1.64062,2.57812 -0.63672,0.67578 -1.35547,1.20313 -2.15625,1.57813 -0.79297,0.38281 -1.57422,0.57812 -2.34375,0.57812 -1.52344,0 -2.71484,-0.48828 -3.57813,-1.45312 -0.85546,-0.96875 -1.28125,-2.31641 -1.28125,-4.03125 0,-0.58203 0.0703,-1.19141 0.21875,-1.82813 0.15235,-0.63281 0.39063,-1.30469 0.70313,-2.01562 z m 6.70312,-1.59375 c -0.35546,0.16797 -0.63281,0.3789 -0.82812,0.625 -0.1875,0.24218 -0.31641,0.55078 -0.375,0.92187 0.20703,0.1875 0.42187,0.33203 0.64062,0.42188 0.21485,0.0937 0.44532,0.14062 0.6875,0.14062 0.26954,0 0.53516,-0.0547 0.79688,-0.17187 0.25781,-0.11328 0.54687,-0.29688 0.85937,-0.54688 -0.21875,-0.41406 -0.47265,-0.72656 -0.75,-0.9375 -0.27343,-0.21484 -0.61718,-0.36719 -1.03125,-0.45312 z m 1.0625,-7.39063 1.90625,1.28125 -1.1875,1.78125 -1.90625,-1.28125 z m -3.45312,0 1.92187,1.28125 -1.20312,1.78125 -1.90625,-1.28125 z m 0,0"
           id="path65407"
           style="fill:#ffffff" />
      </g>
      <g
         id="use32617"
         transform="translate(226.57249,455.79999)"
         style="fill:#ffffff">
        <path
           d="m 450.09901,-231.89232 h 1.42187 v 4.23437 h -1.26562 c -0.21875,1.94531 -0.72656,3.47656 -1.51563,4.59375 -0.79296,1.11328 -1.76953,1.67188 -2.92187,1.67188 -0.57422,0 -1.22656,-0.14844 -1.95313,-0.4375 -0.71875,-0.29297 -1.47265,-0.72266 -2.25,-1.28125 v -0.60938 c 0.1211,0 0.28907,0.004 0.5,0.0156 0.21485,0.0195 0.35938,0.0313 0.42188,0.0313 1.70703,0 3.10937,-0.35157 4.20312,-1.04688 1.10157,-0.69922 1.79688,-1.67969 2.07813,-2.9375 h -2.54688 c -0.92968,0 -1.63281,-0.21875 -2.10937,-0.65625 -0.48047,-0.44531 -0.71875,-1.09765 -0.71875,-1.95312 0,-1.8086 0.30469,-3.33203 0.92187,-4.5625 0.6211,-1.22657 1.37891,-1.84375 2.26563,-1.84375 0.73828,0 1.42578,0.4414 2.0625,1.3125 0.64453,0.86718 1.11328,2.02343 1.40625,3.46875 z m -3.875,-1.40625 c -0.32422,0.0937 -0.57422,0.26172 -0.75,0.5 -0.16797,0.23047 -0.27734,0.55859 -0.32813,0.98437 0.2461,0.0937 0.5,0.16406 0.75,0.20313 0.2461,0.043 0.50782,0.0625 0.78125,0.0625 0.2461,0 0.50391,-0.0156 0.76563,-0.0469 0.25781,-0.0273 0.53516,-0.0781 0.82812,-0.14062 -0.36718,-0.5586 -0.69921,-0.95703 -1,-1.1875 -0.30468,-0.22657 -0.65234,-0.35157 -1.04687,-0.375 z m 0,0"
           id="path65403"
           style="fill:#ffffff" />
      </g>
      <g
         id="use32619"
         transform="translate(236.4725,455.79999)"
         style="fill:#ffffff">
        <path
           d="m 446.77088,-234.07982 v 2.1875 h 2.3125 c 0.38282,0 0.64844,-0.0625 0.79688,-0.1875 0.14453,-0.13282 0.21875,-0.36719 0.21875,-0.70313 v -0.4375 l 1.79687,-0.85937 v 2.1875 h 2.25 c 0.38282,0 0.64844,-0.0625 0.79688,-0.1875 0.14453,-0.13282 0.21875,-0.36719 0.21875,-0.70313 v -0.4375 l 1.79687,-0.85937 v 0.67187 c 0,0.63672 0.0781,1.05078 0.23438,1.23438 0.15234,0.1875 0.42969,0.28125 0.82812,0.28125 h 0.40625 v 4.23437 h -1.03125 l -1.3125,-1.23437 -1.3125,1.23437 h -2.48437 l -1.3125,-1.23437 -1.3125,1.23437 h -2.48438 l -1.3125,-1.23437 -1.3125,1.23437 h -3.03705 v -4.23437 h 2.4433 c 0.3711,0 0.63282,-0.0625 0.78125,-0.1875 0.14454,-0.13282 0.21875,-0.36719 0.21875,-0.70313 v -0.4375 z"
           id="path65399"
           sodipodi:nodetypes="ccscscccscsccscscccccccccccccscscc"
           style="fill:#ffffff" />
      </g>
      <g
         id="use32621"
         transform="translate(253.25751,455.79999)"
         style="fill:#ffffff">
        <path
           d="m 446.16151,-242.11107 2.09375,1.46875 -0.90625,1.26562 v 7.84375 l -1.20313,3.01563 c -0.14843,0.34375 -0.28906,0.57422 -0.42187,0.6875 -0.13672,0.11718 -0.42969,0.17187 -0.875,0.17187 h -3.33452 v -4.23437 h 3.70952 v -7.875 l -0.45313,-0.35938 z"
           id="path65425"
           sodipodi:nodetypes="cccccsscccccc"
           style="fill:#ffffff" />
      </g>
      <g
         id="use32623"
         transform="translate(260.41251,455.79999)"
         style="fill:#ffffff">
        <path
           d="m 445.77088,-241.97045 v 10.4375 l -1.64062,3.875 h -0.625 v -12.64062 z m 0,0"
           id="path65417"
           style="fill:#ffffff" />
      </g>
    </g>
  </g>
</svg>
