<?xml version="1.0" encoding="UTF-8" standalone="no"?>
<svg
   inkscape:version="1.2.2 (732a01da63, 2022-12-09)"
   sodipodi:docname="Israel_road_sign_628.svg"
   viewBox="0 0 400 400"
   height="400"
   width="400"
   id="svg13262"
   version="1.1"
   xmlns:inkscape="http://www.inkscape.org/namespaces/inkscape"
   xmlns:sodipodi="http://sodipodi.sourceforge.net/DTD/sodipodi-0.dtd"
   xmlns="http://www.w3.org/2000/svg"
   xmlns:svg="http://www.w3.org/2000/svg"
   xmlns:rdf="http://www.w3.org/1999/02/22-rdf-syntax-ns#"
   xmlns:cc="http://creativecommons.org/ns#"
   xmlns:dc="http://purl.org/dc/elements/1.1/">
  <metadata
     id="metadata13268">
    <rdf:RDF>
      <cc:Work
         rdf:about="">
        <dc:format>image/svg+xml</dc:format>
        <dc:type
           rdf:resource="http://purl.org/dc/dcmitype/StillImage" />
        <dc:title />
      </cc:Work>
    </rdf:RDF>
  </metadata>
  <defs
     id="defs13266" />
  <sodipodi:namedview
     inkscape:current-layer="g13270"
     inkscape:window-maximized="1"
     inkscape:window-y="-9"
     inkscape:window-x="-9"
     inkscape:cy="459.03614"
     inkscape:cx="289.15663"
     inkscape:zoom="0.69166667"
     showgrid="false"
     id="namedview13264"
     inkscape:window-height="991"
     inkscape:window-width="1920"
     inkscape:pageshadow="2"
     inkscape:pageopacity="0"
     guidetolerance="10"
     gridtolerance="10"
     objecttolerance="10"
     borderopacity="1"
     bordercolor="#666666"
     pagecolor="#ffffff"
     inkscape:showpageshadow="2"
     inkscape:pagecheckerboard="0"
     inkscape:deskcolor="#d1d1d1"
     showguides="false" />
  <g
     transform="translate(-31.638554,-56.987952)"
     id="g13270"
     inkscape:label="Image"
     inkscape:groupmode="layer">
    <path
       id="path3323"
       style="opacity:1;fill:#070fdb;fill-opacity:1;stroke:none;stroke-width:23.9726;stroke-miterlimit:4;stroke-dasharray:none;stroke-opacity:1"
       d="M 31.638554,56.987952 V 456.98796 H 431.63855 V 56.987952 Z"
       inkscape:connector-curvature="0"
       sodipodi:nodetypes="ccccc" />
    <path
       id="path2532"
       style="display:inline;opacity:1;fill:#ffffff;fill-opacity:1;stroke-width:1.37953;stroke-linecap:round;stroke-linejoin:round"
       d="M 41.046758,66.392249 V 447.57976 H 422.23036 V 66.392249 Z M 52.07996,77.429358 H 411.19714 V 436.54654 H 52.07996 Z" />
    <path
       id="rect17192"
       style="opacity:1;fill:#ffffff;stroke-width:0.934585;stroke-linecap:round;paint-order:stroke fill markers"
       d="m 319.44457,103.65708 a 43.19439,43.19439 0 0 0 -43.197,43.19227 43.19439,43.19439 0 0 0 43.197,43.19712 43.19439,43.19439 0 0 0 43.19219,-43.19712 43.19439,43.19439 0 0 0 -43.19219,-43.19227 z m -25.10975,92.42815 v 48.85301 l -47.5543,40.8756 c -5.49486,4.72311 -6.1139,12.95104 -1.39091,18.4459 4.72329,5.49484 12.9464,6.11403 18.44095,1.39096 l 30.50426,-26.21972 v 36.06786 l -46.48795,65.82554 c -4.45498,6.30775 -2.96382,14.97489 3.34396,19.42974 6.30777,4.45473 14.97027,2.96363 19.4249,-3.34414 l 47.49614,-67.25039 28.25045,69.57188 c 2.90561,7.15473 11.00532,10.57291 18.15974,7.66722 7.15476,-2.90569 10.57781,-11.00521 7.6722,-18.15994 L 339.1943,307.99157 V 196.08523 Z m 49.72543,5.35057 v 95.92248 H 387.7127 V 201.4358 Z" />
    <path
       id="path17199"
       style="opacity:1;fill:#ffffff;stroke-width:0.755645;stroke-linecap:round;paint-order:stroke fill markers"
       d="m 140.76293,163.36632 a 33.854681,33.854681 0 0 0 -33.85324,33.85783 33.854681,33.854681 0 0 0 33.85324,33.85303 33.854681,33.854681 0 0 0 33.85784,-33.85303 33.854681,33.854681 0 0 0 -33.85784,-33.85783 z m -19.59465,73.37645 v 37.44912 l -40.822377,35.084 c -4.310381,3.7052 -4.79543,10.16113 -1.090488,14.47173 3.705261,4.31063 10.156285,4.79567 14.467016,1.09046 l 27.445849,-23.58803 v 32.0404 l -37.584937,53.22457 c -3.602035,5.09991 -2.395748,12.10566 2.704426,15.70758 5.100143,3.60186 12.10105,2.40045 15.702761,-2.69949 l 38.40381,-54.37807 22.84198,56.25366 c 2.34942,5.78485 8.89575,8.54797 14.6801,6.19871 5.78504,-2.34934 8.55265,-8.90012 6.20356,-14.68499 l -26.68026,-65.68981 v -90.47984 z m 39.70771,4.31822 v 74.69955 h 33.99351 v -74.69955 z" />
    <path
       style="opacity:1;fill:#000000;fill-opacity:1;stroke:none;stroke-width:3.01714px;stroke-linecap:butt;stroke-linejoin:miter;stroke-opacity:1"
       d="M 52.07996,436.54654 V 415.21096 L 389.86261,77.429358 h 21.33451 V 98.763696 L 73.413242,436.54654 Z"
       id="path8403"
       sodipodi:nodetypes="ccccccc" />
  </g>
</svg>
