<?xml version="1.0" encoding="UTF-8" standalone="no"?>
<svg
   xmlns:dc="http://purl.org/dc/elements/1.1/"
   xmlns:cc="http://creativecommons.org/ns#"
   xmlns:rdf="http://www.w3.org/1999/02/22-rdf-syntax-ns#"
   xmlns:svg="http://www.w3.org/2000/svg"
   xmlns="http://www.w3.org/2000/svg"
   xmlns:sodipodi="http://sodipodi.sourceforge.net/DTD/sodipodi-0.dtd"
   xmlns:inkscape="http://www.inkscape.org/namespaces/inkscape"
   version="1.1"
   id="Layer_1"
   x="0px"
   y="0px"
   width="592.1582"
   height="592.1582"
   viewBox="0 0 592.1582 592.1582"
   enable-background="new 0 0 610 600"
   xml:space="preserve"
   sodipodi:docname="Israel_road_sign_415.svg"
   inkscape:version="1.0 (4035a4fb49, 2020-05-01)"><metadata
   id="metadata8642"><rdf:RDF><cc:Work
       rdf:about=""><dc:format>image/svg+xml</dc:format><dc:type
         rdf:resource="http://purl.org/dc/dcmitype/StillImage" /><dc:title></dc:title></cc:Work></rdf:RDF></metadata><defs
   id="defs8640"><path
     d="M 500,-207.10678 V 207.10678 L 207.10678,500 H -207.10678 L -500,207.10678 V -207.10678 L -207.10678,-500 h 414.21356 z"
     id="Oct" /><pattern
     y="0"
     x="0"
     height="6"
     width="6"
     patternUnits="userSpaceOnUse"
     id="EMFhbasepattern" /><pattern
     y="0"
     x="0"
     height="6"
     width="6"
     patternUnits="userSpaceOnUse"
     id="EMFhbasepattern-0" /><pattern
     y="0"
     x="0"
     height="6"
     width="6"
     patternUnits="userSpaceOnUse"
     id="EMFhbasepattern-8" /><pattern
     y="0"
     x="0"
     height="6"
     width="6"
     patternUnits="userSpaceOnUse"
     id="EMFhbasepattern-3" /><pattern
     id="EMFhbasepattern-9"
     patternUnits="userSpaceOnUse"
     width="6"
     height="6"
     x="0"
     y="0" /></defs><sodipodi:namedview
   pagecolor="#ffffff"
   bordercolor="#666666"
   borderopacity="1"
   objecttolerance="10"
   gridtolerance="10"
   guidetolerance="10"
   inkscape:pageopacity="0"
   inkscape:pageshadow="2"
   inkscape:window-width="1920"
   inkscape:window-height="1001"
   id="namedview8638"
   showgrid="false"
   inkscape:zoom="0.78666667"
   inkscape:cx="-87.681395"
   inkscape:cy="149.44689"
   inkscape:window-x="-9"
   inkscape:window-y="-9"
   inkscape:window-maximized="1"
   inkscape:current-layer="Layer_1"
   inkscape:document-rotation="0"><sodipodi:guide
     position="-5.3896699,-7.8417958"
     orientation="0,610"
     id="guide8644"
     inkscape:locked="false" /><sodipodi:guide
     position="604.61033,-7.8417958"
     orientation="-1,0"
     id="guide8646"
     inkscape:locked="false"
     inkscape:label=""
     inkscape:color="rgb(117,80,123)" /><sodipodi:guide
     position="604.61033,592.1582"
     orientation="0,-610"
     id="guide8648"
     inkscape:locked="false" /><sodipodi:guide
     position="-11.440678,592.1582"
     orientation="600,0"
     id="guide8650"
     inkscape:locked="false" /><inkscape:grid
     type="xygrid"
     id="grid56807"
     originx="1.12931"
     originy="3.457" /></sodipodi:namedview>


<circle
   style="fill:#ffffff;stroke:#000000;stroke-opacity:0.815686"
   id="circle8633"
   r="292.48499"
   cy="296.07901"
   cx="296.078" /><path
   id="path56784"
   d="M 296.07812,0 C 132.97277,0 0,132.97277 0,296.07812 0,459.18348 132.97277,592.1582 296.07812,592.1582 459.18348,592.1582 592.1582,459.18348 592.1582,296.07812 592.1582,132.97277 459.18348,0 296.07812,0 Z m 0,70 C 421.35268,70 522.1582,170.80357 522.1582,296.07812 522.1582,421.35268 421.35268,522.1582 296.07812,522.1582 170.80357,522.1582 70,421.35268 70,296.07812 70,170.80357 170.80357,70 296.07812,70 Z"
   style="color:#000000;font-style:normal;font-variant:normal;font-weight:normal;font-stretch:normal;font-size:medium;line-height:normal;font-family:sans-serif;font-variant-ligatures:normal;font-variant-position:normal;font-variant-caps:normal;font-variant-numeric:normal;font-variant-alternates:normal;font-variant-east-asian:normal;font-feature-settings:normal;font-variation-settings:normal;text-indent:0;text-align:start;text-decoration:none;text-decoration-line:none;text-decoration-style:solid;text-decoration-color:#000000;letter-spacing:normal;word-spacing:normal;text-transform:none;writing-mode:lr-tb;direction:ltr;text-orientation:mixed;dominant-baseline:auto;baseline-shift:baseline;text-anchor:start;white-space:normal;shape-padding:0;shape-margin:0;inline-size:0;clip-rule:nonzero;display:inline;overflow:visible;visibility:visible;opacity:1;isolation:auto;mix-blend-mode:normal;color-interpolation:sRGB;color-interpolation-filters:linearRGB;solid-color:#000000;solid-opacity:1;vector-effect:none;fill:#c0111e;fill-opacity:1;fill-rule:nonzero;stroke:none;stroke-width:70;stroke-linecap:butt;stroke-linejoin:miter;stroke-miterlimit:4;stroke-dasharray:none;stroke-dashoffset:0;stroke-opacity:1;color-rendering:auto;image-rendering:auto;shape-rendering:auto;text-rendering:auto;enable-background:accumulate;stop-color:#000000;stop-opacity:1" /><g
   style="font-size:388.387px;line-height:109.02%;font-family:'Heb Tamrurim';-inkscape-font-specification:'Heb Tamrurim';text-align:center;text-anchor:middle;stroke-width:1"
   id="text2114"
   aria-label="6" /><g
   style="font-size:95.3628px;line-height:109.02%;font-family:'Heb Tamrurim';-inkscape-font-specification:'Heb Tamrurim';text-align:center;text-anchor:middle;stroke-width:1"
   id="text2118"
   aria-label="y" /><g
   style="font-size:117.724px;line-height:109.02%;font-family:'Heb Tamrurim';-inkscape-font-specification:'Heb Tamrurim';text-align:center;text-anchor:middle;stroke-width:1"
   id="text2122"
   aria-label="t" /><g
   transform="matrix(10.890936,0,0,10.890936,-4359.0193,-979.20604)"
   style="fill:#000000;fill-opacity:1;stroke-width:0.122426"
   id="g4032"><g
     style="fill:#000000;fill-opacity:1;stroke-width:0.122426"
     id="use4030"
     transform="translate(423.42999,134.78)"><path
       d="m 7.296875,-4.734375 0.84375,2.328125 c 0.00781,0.042969 0.019531,0.085937 0.03125,0.125 0.00781,0.03125 0.015625,0.058594 0.015625,0.078125 0,0.054687 -0.00781,0.105469 -0.015625,0.15625 -0.011719,0.042969 -0.027344,0.085937 -0.046875,0.125 L 7.484375,-0.375 C 7.429688,-0.238281 7.363281,-0.140625 7.28125,-0.078125 7.195313,-0.0234375 7.09375,0 6.96875,0 H 2.375 C 1.757813,0 1.273438,-0.1875 0.921875,-0.5625 0.578125,-0.9375 0.40625,-1.445313 0.40625,-2.09375 c 0,-0.351563 0.0625,-0.671875 0.1875,-0.953125 C 0.726563,-3.335938 0.929688,-3.59375 1.203125,-3.8125 H 1.625 c -0.117187,0.117187 -0.203125,0.242187 -0.265625,0.375 -0.0625,0.136719 -0.09375,0.277344 -0.09375,0.421875 0,0.273437 0.078125,0.46875 0.234375,0.59375 C 1.664063,-2.304688 1.929688,-2.25 2.296875,-2.25 h 4.625 L 6.5,-3.5625 Z m -2.5625,-1.375 1.015625,0.6875 -0.640625,0.9375 L 4.09375,-5.15625 Z m -1.84375,0 1.03125,0.6875 -0.640625,0.9375 L 2.25,-5.15625 Z m 0,0 m 18.010677,-10.125076 q -0.151331,0.02162 -0.33509,0.03243 -0.183759,0.01081 -0.302662,0.01081 -0.551277,0 -0.907986,-0.08648 -0.3459,-0.08647 -0.540468,-0.281043 -0.194568,-0.205378 -0.270234,-0.518849 -0.06485,-0.324281 -0.06485,-0.789083 v -3.059048 H 17.74497 v -1.080935 h 0.735037 v -1.51331 h 1.513309 v 1.51331 h 0.907986 v 1.080935 h -0.907986 v 3.005001 q 0,0.194568 0.02162,0.302662 0.03243,0.108093 0.118904,0.16214 0.09728,0.05405 0.270234,0.06486 0.183759,0.01081 0.49723,0.01081 z m -35.10623,-5.955974 v 5.99075 l 4.2828734,0.0015 q 1.0414238,-0.158191 1.1337015,-1.206939 l -0.00293,-4.788205 h -3.2912509 l 0.0073,1.806014 h 1.199615 l -0.0044,-0.597611 0.89788,-0.0029 v 3.579802 l -3.010022,0.0044 -0.0015,-4.7926 -1.211332,0.0059 z m 15.08651783,6.097388 q 0,1.105506 0.28529137,1.92572 0.320954,0.820215 0.8202142,1.390799 0.5349228,0.534921 1.176829,0.820214 0.677569,0.285291 1.3907988,0.285291 1.6047665,0 2.5319651,-1.105505 0.9628603,-1.105507 0.9628603,-3.173873 0,-1.105506 -0.2852914,-1.92572 -0.2852923,-0.855876 -0.7845533,-1.390799 -0.4635993,-0.570584 -1.1055055,-0.820214 -0.6062455,-0.285292 -1.2838144,-0.285292 -1.6047666,0 -2.6746112,1.069845 -1.03418297,1.069845 -1.03418297,3.209534 z M 7.7642572,-26.791484 q -0.071324,-0.356615 -0.2496305,-0.784552 -0.1783079,-0.427939 -0.499261,-0.784553 -0.3209532,-0.356615 -0.8202142,-0.606246 -0.499261,-0.24963 -1.1768291,-0.24963 -1.4264595,0 -2.2823355,0.748891 -0.8202141,0.71323 -1.2838134,1.783075 -0.4279375,1.069844 -0.60624543,2.282335 -0.14264615,1.176829 -0.24963052,2.104028 0.92719855,-0.820214 2.06836675,-1.462122 1.1411673,-0.677568 2.9599035,-0.677568 1.6404284,0 3.0312262,0.534923 1.390798,0.534922 2.38932,1.569105 0.998522,1.034184 1.569106,2.531966 0.570583,1.462121 0.570583,3.35218 0,2.13969 -0.606245,3.81578 -0.606246,1.640428 -1.747413,2.8172571 -1.1055063,1.1411673 -2.674612,1.7474128 -1.533444,0.6062454 -3.3878411,0.6062454 -2.7459348,0 -4.49334748,-1.0341829 -1.74741272,-1.0341839 -2.78159652,-2.7102734 -0.9985212,-1.711752 -1.3907978,-3.851441 -0.3566149,-2.175351 -0.3566149,-4.457686 0,-2.63895 0.3922766,-5.135254 0.4279375,-2.531966 1.4621204,-4.457687 1.0698447,-1.961381 2.81725836,-3.13821 1.78307444,-1.17683 4.49334754,-1.17683 2.0327049,0 3.4235028,0.570584 1.4264595,0.570584 2.3179961,1.497782 0.9272,0.9272 1.355137,2.13969 0.463599,1.176829 0.606246,2.424981 z"
       style="fill:#000000;fill-opacity:1;stroke:none;stroke-width:0.122426"
       id="path5760" /></g></g></svg>
