<?xml version="1.0" encoding="UTF-8" standalone="no"?>
<!-- Created with Inkscape (http://www.inkscape.org/) -->

<svg
   version="1.1"
   id="svg10224"
   width="400"
   height="341.686"
   viewBox="0 0 399.99999 341.68601"
   sodipodi:docname="Israel_road_sign_223.svg"
   inkscape:version="1.1.2 (b8e25be833, 2022-02-05)"
   xmlns:inkscape="http://www.inkscape.org/namespaces/inkscape"
   xmlns:sodipodi="http://sodipodi.sourceforge.net/DTD/sodipodi-0.dtd"
   xmlns="http://www.w3.org/2000/svg"
   xmlns:svg="http://www.w3.org/2000/svg"
   xmlns:rdf="http://www.w3.org/1999/02/22-rdf-syntax-ns#"
   xmlns:cc="http://creativecommons.org/ns#"
   xmlns:dc="http://purl.org/dc/elements/1.1/">
  <metadata
     id="metadata10230">
    <rdf:RDF>
      <cc:Work
         rdf:about="">
        <dc:format>image/svg+xml</dc:format>
        <dc:type
           rdf:resource="http://purl.org/dc/dcmitype/StillImage" />
      </cc:Work>
    </rdf:RDF>
  </metadata>
  <defs
     id="defs10228" />
  <sodipodi:namedview
     pagecolor="#ffffff"
     bordercolor="#666666"
     borderopacity="1"
     objecttolerance="10"
     gridtolerance="10"
     guidetolerance="10"
     inkscape:pageopacity="0"
     inkscape:pageshadow="2"
     inkscape:window-width="1920"
     inkscape:window-height="1001"
     id="namedview10226"
     showgrid="false"
     showguides="true"
     inkscape:zoom="1"
     inkscape:cx="-32.5"
     inkscape:cy="115.5"
     inkscape:window-x="-9"
     inkscape:window-y="-9"
     inkscape:window-maximized="1"
     inkscape:current-layer="svg10224"
     inkscape:pagecheckerboard="0"
     inkscape:guide-bbox="true"
     inkscape:snap-intersection-paths="true"
     inkscape:snap-smooth-nodes="true"
     inkscape:snap-bbox="true"
     inkscape:snap-bbox-edge-midpoints="true"
     inkscape:bbox-nodes="true" />
  <path
     id="rect10234"
     style="fill:#070fdb;fill-opacity:1;stroke:none;stroke-width:22.1563;stroke-miterlimit:4;stroke-dasharray:none;stroke-opacity:1"
     d="M 0,0 V 341.686 H 400.00056 V 0 Z"
     inkscape:connector-curvature="0"
     sodipodi:nodetypes="ccccc" />
  <path
     id="path851"
     style="fill:#ffffff;fill-opacity:1;stroke:none;stroke-width:21.1609;stroke-miterlimit:4;stroke-dasharray:none;stroke-opacity:1"
     d="M 8.4503795,9.4050249 V 334.5384 H 391.89372 V 9.4050249 Z M 21.3322,20.442376 H 380.24941 V 321.04371 H 21.3322 Z" />
  <g
     transform="matrix(-0.5643108,0,0,-0.5643108,-208.11991,288.93374)"
     inkscape:label="20-ב_Israely_road_sign"
     id="g9621"
     style="stroke:#000000;stroke-width:6.25308;stroke-miterlimit:4;stroke-dasharray:none;stroke-opacity:1">
    <g
       id="g9623"
       style="stroke:#000000;stroke-width:6.25308;stroke-miterlimit:4;stroke-dasharray:none;stroke-opacity:1">
      <g
         style="fill:#006f6f;fill-opacity:0.341709;stroke:#000000;stroke-width:6.25308;stroke-miterlimit:4;stroke-dasharray:none;stroke-opacity:1"
         id="g9629" />
      <g
         transform="matrix(1.129043,0,0,1.129043,-973.55782,-39.360054)"
         style="fill:#c0111e;fill-opacity:0.291457;stroke:#000000;stroke-width:5.53839;stroke-miterlimit:4;stroke-dasharray:none;stroke-opacity:1"
         id="g9625">
        <path
           inkscape:connector-curvature="0"
           id="path9627"
           style="fill:#c0111e;fill-opacity:1;fill-rule:nonzero;stroke:#ffffff;stroke-width:5.53839;stroke-linecap:butt;stroke-linejoin:miter;stroke-miterlimit:4;stroke-dasharray:none;stroke-opacity:1"
           d="m 441.422,222.059 c 0,121.152 -98.211,219.363 -219.363,219.363 -121.153,0 -219.364,-98.211 -219.364,-219.363 0,-121.153 98.211,-219.364 219.364,-219.364 121.152,0 219.363,98.211 219.363,219.364 z" />
      </g>
      <circle
         r="189.49828"
         cy="212.04073"
         cx="-722.80811"
         id="path9641"
         style="fill:#ffffff;fill-opacity:1;stroke:none;stroke-width:6.25308;stroke-miterlimit:4;stroke-dasharray:none;stroke-opacity:1" />
    </g>
  </g>
  <path
     style="fill:#000000;stroke-width:0.259833"
     d="m 156.65134,216.32964 c -4.75368,-0.42406 -8.32907,-1.33931 -12.09973,-3.0973 -9.5525,-4.45368 -14.73198,-13.06984 -15.58636,-25.92824 l -0.17693,-2.66328 h 9.22272 9.22272 l 0.1604,2.0137 c 0.35008,4.39698 1.73162,7.66278 4.31419,10.19846 2.68961,2.64077 5.30365,3.6412 9.49319,3.63315 4.66532,-0.009 7.78542,-1.13079 10.10088,-3.63176 2.53648,-2.73972 3.61087,-5.88993 3.58942,-10.52465 -0.0221,-4.56373 -0.9873,-7.33122 -3.41114,-9.77062 -2.9571,-2.97612 -7.43086,-4.38084 -13.97143,-4.38687 l -3.70262,-0.005 v -6.72462 -6.72463 l 4.09237,-0.13043 c 6.13851,-0.1954 9.22501,-1.26056 12.16997,-4.19949 2.3889,-2.38406 3.3701,-5.43922 3.17732,-9.8932 -0.084,-1.93687 -0.23778,-2.62858 -0.89644,-4.0274 -2.04959,-4.35296 -5.69478,-6.49583 -11.04986,-6.49583 -4.07228,0 -6.70604,0.90006 -9.13818,3.1229 -2.42269,2.21419 -3.69743,5.3071 -3.98293,9.66381 l -0.16679,2.54344 h -8.81477 -8.81478 l 0.16853,-2.40345 c 0.88191,-12.58322 5.7736,-20.91718 15.00123,-25.55747 4.99221,-2.51045 8.78406,-3.30473 15.78952,-3.30748 5.2424,-0.002 8.33011,0.39972 12.08225,1.57203 10.45037,3.2652 16.89083,10.6991 18.07088,20.85841 1.04254,8.97534 -1.95266,16.59496 -8.45704,21.51416 -0.85744,0.64849 -1.64936,1.25635 -1.7598,1.35082 -0.1104,0.0945 0.87627,0.80632 2.1927,1.58191 5.22912,3.08081 8.56132,7.50387 10.12597,13.44083 0.77914,2.95645 0.95981,9.23682 0.36756,12.77861 -1.40491,8.40204 -5.95569,15.47858 -12.83952,19.96568 -6.67627,4.35182 -14.82142,6.09316 -24.4734,5.23212 z m 78.83292,-0.007 c -3.42728,-0.35374 -7.1014,-1.36053 -9.85674,-2.70093 -12.71522,-6.18559 -18.29526,-20.29457 -18.29526,-46.25912 0,-20.21683 3.48889,-33.01873 11.18268,-41.03274 4.9261,-5.13115 10.25822,-7.53069 18.3202,-8.24444 5.88871,-0.52134 11.99936,0.26662 16.51802,2.12994 2.32541,0.95894 5.64115,3.12776 7.70532,5.04006 8.55735,7.92776 12.75597,23.56667 12.17669,45.3551 -0.51642,19.42302 -3.92865,30.84654 -11.37919,38.09559 -4.12969,4.018 -8.31649,6.14713 -14.23399,7.23848 -2.74747,0.5067 -9.00354,0.70157 -12.13773,0.37809 z m 9.64061,-16.61355 c 4.54124,-1.74218 6.779,-6.4748 8.11875,-17.1703 0.3936,-3.14285 0.46811,-5.72401 0.46405,-16.08563 -0.005,-12.40956 -0.12823,-14.6524 -1.05113,-19.13334 -1.30417,-6.33112 -4.05278,-10.77905 -7.69729,-12.45609 -1.50988,-0.69477 -1.87729,-0.75453 -4.62817,-0.75267 -3.83979,0.002 -5.36246,0.54803 -7.50003,2.68676 -3.14247,3.14415 -5.00095,8.43348 -5.7637,16.40386 -0.4166,4.35318 -0.42843,21.99688 -0.0175,26.50298 1.23772,13.5809 3.77611,18.88905 9.77375,20.43829 2.02794,0.52383 6.40091,0.29531 8.30152,-0.43385 z"
     id="path4578"
     inkscape:connector-curvature="0" />
  <path
     id="rect4580"
     style="fill:#030200;fill-opacity:1;stroke:none;stroke-width:3.43803;stroke-miterlimit:4;stroke-dasharray:none;stroke-opacity:1"
     d="M 361.31152,20.442376 21.332199,304.33589 v 16.70783 H 41.058782 L 380.24941,37.540687 V 20.442376 Z"
     inkscape:connector-curvature="0"
     sodipodi:nodetypes="ccccccc" />
</svg>
