<?xml version="1.0" encoding="UTF-8" standalone="no"?>
<svg
   viewBox="0 0 568.125 497.228"
   height="497.228"
   width="568.125"
   xml:space="preserve"
   version="1.1"
   id="svg3522"
   sodipodi:docname="Israel_road_sign_150.svg"
   inkscape:version="1.1.2 (b8e25be833, 2022-02-05)"
   xmlns:inkscape="http://www.inkscape.org/namespaces/inkscape"
   xmlns:sodipodi="http://sodipodi.sourceforge.net/DTD/sodipodi-0.dtd"
   xmlns="http://www.w3.org/2000/svg"
   xmlns:svg="http://www.w3.org/2000/svg"
   xmlns:rdf="http://www.w3.org/1999/02/22-rdf-syntax-ns#"
   xmlns:cc="http://creativecommons.org/ns#"
   xmlns:dc="http://purl.org/dc/elements/1.1/"><sodipodi:namedview
     id="namedview11"
     pagecolor="#ffffff"
     bordercolor="#666666"
     borderopacity="1.0"
     inkscape:pageshadow="2"
     inkscape:pageopacity="0.0"
     inkscape:pagecheckerboard="true"
     showgrid="false"
     showguides="true"
     inkscape:guide-bbox="true"
     inkscape:snap-intersection-paths="true"
     inkscape:snap-smooth-nodes="true"
     inkscape:snap-bbox="true"
     inkscape:snap-bbox-edge-midpoints="true"
     inkscape:bbox-nodes="true"
     inkscape:zoom="1"
     inkscape:cx="423.5"
     inkscape:cy="302.5"
     inkscape:window-width="1920"
     inkscape:window-height="1001"
     inkscape:window-x="-9"
     inkscape:window-y="-9"
     inkscape:window-maximized="1"
     inkscape:current-layer="svg3522"
     width="568.125px"
     inkscape:snap-global="true"
     inkscape:object-paths="true" /><metadata
     id="metadata3528"><rdf:RDF><cc:Work
         rdf:about=""><dc:format>image/svg+xml</dc:format><dc:type
           rdf:resource="http://purl.org/dc/dcmitype/StillImage" /></cc:Work></rdf:RDF></metadata><defs
     id="defs3526" /><path
     id="rect2419"
     style="display:inline;fill:#ffffff;fill-opacity:1;stroke-width:1.41526;stroke-linecap:round"
     d="M 284.06233,42.768626 519.25791,454.45937 H 48.866745 Z"
     sodipodi:nodetypes="cccc" /><path
     id="path1287-2"
     style="display:inline;fill:#c0111e;fill-opacity:1;fill-rule:nonzero;stroke:none;stroke-width:0.859147"
     d="M 284.06233,4.5425685e-4 C 277.94091,-0.04336226 271.21873,3.083666 267.92647,8.9396153 L 2.1975383,469.35001 C 0.66396013,472.48418 0.01976039,475.20891 0,478.32676 0,489.21753 8.9379258,497.228 18.874395,497.228 H 549.25027 c 9.93647,0 18.87439,-8.01047 18.87439,-18.90124 -0.0197,-3.11785 -0.66396,-5.84258 -2.19753,-8.97675 L 300.19819,8.9396153 C 296.90594,3.083666 290.18376,-0.04336226 284.06233,4.5425685e-4 Z m 0,90.77454274315 L 487.1272,442.24256 H 80.997471 Z"
     sodipodi:nodetypes="cccccccccccccc" /><path
     id="rect22"
     style="fill:#000000;fill-rule:evenodd;stroke-width:3.46573"
     d="m 289.22312,222.8001 c -2.74477,0 -3.89631,2.42206 -4.95464,4.95463 l -10.1136,24.20348 h -2.22389 c -3.06504,0 -5.52829,2.4672 -5.52829,5.53222 v 1.73666 h 40.87085 l 12.08995,24.02667 h 17.91291 v 9.75211 c 0,1.32665 1.06621,2.39283 2.39286,2.39283 h 4.29453 c 1.32664,0 2.39677,-1.06618 2.39677,-2.39283 v -9.75211 h 3.23761 c 3.06504,0 5.52829,-2.46327 5.52829,-5.52831 v -20.23502 c 0,-3.06502 -2.46325,-5.53222 -5.52829,-5.53222 h -2.25139 l -10.1136,-24.20348 c -1.05832,-2.53257 -2.20983,-4.95463 -4.95463,-4.95463 h -12.92292 -17.20961 z m 2.72682,7.99971 h 37.09494 c 1.84382,0 2.5842,1.64647 3.33192,3.3319 l 5.94084,13.39836 c 0.74771,1.68538 -0.70618,4.19632 -2.55002,4.19632 h -50.15145 c -1.84382,0 -3.11647,-2.48738 -2.42428,-4.19632 l 5.43007,-13.39836 c 0.69225,-1.70897 1.48412,-3.3319 3.32798,-3.3319 z m 52.99614,31.10696 a 7.1111554,7.1111554 0 0 1 0.003,0 7.1111554,7.1111554 0 0 1 0.0354,0 7.1111554,7.1111554 0 0 1 7.11172,7.11173 7.1111554,7.1111554 0 0 1 -7.11172,7.11172 7.1111554,7.1111554 0 0 1 -7.11174,-7.11172 7.1111554,7.1111554 0 0 1 7.07243,-7.11173 z m -100.69191,1.76811 c -3.41369,0 -4.84854,3.01114 -6.1648,6.16089 l -12.57718,30.10501 h -2.76217 c -3.812,0 -6.87991,3.06791 -6.87991,6.87991 v 0.22396 h 51.08661 l 16.01121,31.81815 h 21.04836 v 12.12922 c 0,1.64997 1.32832,2.97828 2.97829,2.97828 h 5.33971 c 1.64997,0 2.97828,-1.32829 2.97828,-2.97828 V 338.8628 h 4.02736 c 3.812,0 6.87991,-3.06399 6.87991,-6.876 v -25.16611 c 0,-3.812 -3.06791,-6.87991 -6.87991,-6.87991 h -2.79756 l -12.57715,-30.10501 c -1.31626,-3.14975 -2.74714,-6.16089 -6.16088,-6.16089 h -16.07408 -21.40594 z m 3.39084,9.95249 h 46.13589 c 2.29318,0 3.21139,2.04515 4.1413,4.14132 l 7.39071,16.66345 c 0.92993,2.09615 -0.87762,5.21789 -3.17081,5.21789 h -62.37501 c -2.29316,0 -3.8745,-3.09247 -3.01362,-5.21789 l 6.75023,-16.66345 c 0.86093,-2.12544 1.84812,-4.14132 4.14131,-4.14132 z m -55.75834,38.14404 c -4.27263,0 -6.06545,3.77063 -7.71288,7.7129 l -15.74405,37.67646 h -3.45764 c -4.77111,0 -8.60874,3.84155 -8.60873,8.61266 v 31.49594 c -1e-5,4.77112 3.83762,8.60874 8.60873,8.60874 h 5.1511 v 15.17824 c 0,2.06511 1.66363,3.72876 3.72874,3.72876 h 6.68346 c 2.0651,0 3.72876,-1.66365 3.72876,-3.72876 v -15.17824 h 82.42144 v 15.17824 c 0,2.06511 1.66364,3.72876 3.72876,3.72876 h 6.68344 c 2.0651,0 3.72876,-1.66365 3.72876,-3.72876 v -15.17824 h 5.04107 c 4.77111,0 8.60873,-3.83762 8.60873,-8.60874 v -31.49594 c 0,-4.77111 -3.83762,-8.61266 -8.60873,-8.61266 h -3.50087 l -15.74403,-37.67646 c -1.64743,-3.94227 -3.44024,-7.7129 -7.71289,-7.7129 h -20.11716 -26.78885 z m 121.66171,0.54222 c 0.0201,-6e-5 0.0392,-6e-5 0.0589,0 4.88319,0.002 8.84071,3.96129 8.84055,8.84448 1.3e-4,4.88321 -3.95736,8.84245 -8.84055,8.84448 -4.88473,1.5e-4 -8.84461,-3.95975 -8.84448,-8.84448 -2.6e-4,-4.86179 3.92383,-8.81221 8.78554,-8.84448 z m -117.41824,11.91314 h 57.74647 c 2.87015,0 4.01863,2.55894 5.18254,5.18252 l 9.25312,20.85977 c 1.1639,2.62356 -1.1022,6.53022 -3.97236,6.53022 h -78.06799 c -2.87016,0 -4.84946,-3.87002 -3.77197,-6.53022 l 8.4516,-20.85977 c 1.07753,-2.66021 2.30841,-5.18252 5.17859,-5.18252 z m -24.4628,48.42264 a 11.069479,11.069479 0 0 1 11.06837,11.06837 11.069479,11.069479 0 0 1 -11.06837,11.06838 11.069479,11.069479 0 0 1 -11.0723,-11.06838 11.069479,11.069479 0 0 1 11.0723,-11.06837 z m 107.02177,0 a 11.069479,11.069479 0 0 1 11.06836,11.06837 11.069479,11.069479 0 0 1 -11.06836,11.06838 11.069479,11.069479 0 0 1 -11.06839,-11.06838 11.069479,11.069479 0 0 1 11.06839,-11.06837 z" /></svg>
