<?xml version="1.0" encoding="UTF-8" standalone="no"?>
<svg
   xmlns:dc="http://purl.org/dc/elements/1.1/"
   xmlns:cc="http://creativecommons.org/ns#"
   xmlns:rdf="http://www.w3.org/1999/02/22-rdf-syntax-ns#"
   xmlns:svg="http://www.w3.org/2000/svg"
   xmlns="http://www.w3.org/2000/svg"
   xmlns:sodipodi="http://sodipodi.sourceforge.net/DTD/sodipodi-0.dtd"
   xmlns:inkscape="http://www.inkscape.org/namespaces/inkscape"
   inkscape:version="1.0 (4035a4fb49, 2020-05-01)"
   sodipodi:docname="505.svg"
   viewBox="0 0 300 362.60794"
   height="362.60794"
   width="300"
   id="svg10"
   version="1.1">
  <metadata
     id="metadata16">
    <rdf:RDF>
      <cc:Work
         rdf:about="">
        <dc:format>image/svg+xml</dc:format>
        <dc:type
           rdf:resource="http://purl.org/dc/dcmitype/StillImage" />
        <dc:title></dc:title>
      </cc:Work>
    </rdf:RDF>
  </metadata>
  <defs
     id="defs14" />
  <sodipodi:namedview
     inkscape:current-layer="g18"
     inkscape:window-maximized="1"
     inkscape:window-y="-9"
     inkscape:window-x="-9"
     inkscape:cy="229.44044"
     inkscape:cx="150"
     inkscape:zoom="2.2089974"
     showgrid="false"
     id="namedview12"
     inkscape:window-height="1001"
     inkscape:window-width="1920"
     inkscape:pageshadow="2"
     inkscape:pageopacity="0"
     guidetolerance="10"
     gridtolerance="10"
     objecttolerance="10"
     borderopacity="1"
     bordercolor="#666666"
     pagecolor="#ffffff" />
  <g
     transform="translate(-49.071507,-55.461029)"
     id="g18"
     inkscape:label="Image"
     inkscape:groupmode="layer">
    <rect
       transform="scale(1,-1)"
       y="-418.06897"
       x="49.071507"
       height="362.60794"
       width="300"
       id="rect34"
       style="opacity:1;fill:#000000;fill-rule:evenodd;stroke-width:1.93781" />
    <rect
       y="149.86693"
       x="53.794579"
       height="42.036659"
       width="254.03094"
       id="rect22"
       style="opacity:1;fill:#ffff01;fill-opacity:1;fill-rule:evenodd;stroke-width:1.54254" />
    <rect
       style="opacity:1;fill:#ffff01;fill-opacity:1;fill-rule:evenodd;stroke-width:1.54254"
       id="rect24"
       width="254.03094"
       height="42.036659"
       x="53.794579"
       y="194.22862" />
    <rect
       y="238.59032"
       x="53.794579"
       height="42.036419"
       width="254.0295"
       id="rect26"
       style="opacity:1;fill:#ffff01;fill-opacity:1;fill-rule:evenodd;stroke-width:1.54253" />
    <rect
       style="opacity:1;fill:#ffff01;fill-opacity:1;fill-rule:evenodd;stroke-width:1.54254"
       id="rect28"
       width="254.03094"
       height="42.036659"
       x="53.794579"
       y="282.952" />
    <rect
       y="327.31372"
       x="53.795185"
       height="42.036659"
       width="254.03094"
       id="rect30"
       style="opacity:1;fill:#ffff01;fill-opacity:1;fill-rule:evenodd;stroke-width:1.54254" />
    <rect
       style="opacity:1;fill:#ffff01;fill-opacity:1;fill-rule:evenodd;stroke-width:1.54254"
       id="rect32"
       width="254.03094"
       height="42.036659"
       x="53.795185"
       y="371.67538" />
    <rect
       style="opacity:1;fill:#ffffff;fill-rule:evenodd;stroke-width:0.573662"
       id="rect36"
       width="35.133846"
       height="42.036659"
       x="309.50369"
       y="149.86693" />
    <rect
       y="194.22862"
       x="309.50369"
       height="130.76004"
       width="35.133835"
       id="rect38"
       style="opacity:1;fill:#ffff01;fill-opacity:1;fill-rule:evenodd;stroke-width:0.573662" />
    <rect
       style="opacity:1;fill:#ffff01;fill-opacity:1;fill-rule:evenodd;stroke-width:0.573662"
       id="rect44"
       width="35.133846"
       height="42.036659"
       x="309.50378"
       y="327.31372" />
    <rect
       y="371.67538"
       x="309.50378"
       height="42.036659"
       width="35.133846"
       id="rect46"
       style="opacity:1;fill:#ffff01;fill-opacity:1;fill-rule:evenodd;stroke-width:0.573662" />
    <rect
       y="61.584007"
       x="53.704609"
       height="84.222404"
       width="290.63757"
       id="rect48"
       style="opacity:1;fill:#ffffff;stroke-width:1.54949" />
    <rect
       style="opacity:1;fill:#011efe;fill-opacity:1;stroke-width:1.54949"
       id="rect50"
       width="84.22226"
       height="84.222404"
       x="53.704609"
       y="61.584007" />
    <g
       style="opacity:1"
       transform="matrix(1.5241028,0,0,1.5241028,-28.300688,-23.220865)"
       id="g686">
      <g
         id="g538-7-65"
         transform="matrix(0.53507727,0,0,0.53507727,-126.38814,165.06771)"
         style="opacity:1">
        <path
           d="m 406.22523,12.81845 h 44.03499 c 1.92934,0 3.48256,1.553221 3.48256,3.482556 v 44.034995 c 0,1.92934 -1.55322,3.48256 -3.48256,3.48256 h -44.03499 c -1.92934,0 -3.48256,-1.55322 -3.48256,-3.48256 V 16.301006 c 0,-1.929335 1.55322,-3.482556 3.48256,-3.482556 z"
           style="opacity:1;fill:#000000;stroke-width:0.23556"
           id="rect511-8-3" />
        <path
           d="m 406.67869,14.559728 h 43.12807 c 1.21589,0 2.19474,0.978855 2.19474,2.194744 v 43.128069 c 0,1.21588 -0.97885,2.19474 -2.19474,2.19474 h -43.12807 c -1.21588,0 -2.19474,-0.97886 -2.19474,-2.19474 V 16.754472 c 0,-1.215889 0.97886,-2.194744 2.19474,-2.194744 z"
           style="opacity:1;fill:#ffffff;fill-opacity:1;stroke-width:0.219474"
           id="rect509-0-8" />
      </g>
      <g
         transform="matrix(0.11372054,0,0,0.11372054,84.956823,165.18357)"
         style="fill:#000000"
         id="g933">
        <path
           id="rect844"
           style="opacity:1;fill:#000000"
           d="m 125.33203,113.01953 c -10.65855,7.55217 -21.93541,13.35216 -31.265624,24.66797 v 32.17773 h -1.322265 c -1.955476,0 -3.529297,-1.57578 -3.529297,-3.53125 0,-0.0248 0.0073,-0.0476 0.0078,-0.0723 h -5.18164 c -12.566162,0 -22.681641,10.11547 -22.681641,22.68164 0,12.56616 10.115479,22.68359 22.681641,22.68359 h 9.726562 35.425784 59.51562 c 4.08962,0 7.38282,-3.29319 7.38282,-7.38281 v -30.60156 c 0,-4.08962 -3.2932,-7.38086 -7.38282,-7.38086 h -55.04882 c 5e-4,0.0247 0.008,0.0475 0.008,0.0723 0,1.95547 -1.57382,3.53125 -3.5293,3.53125 H 98.765625 V 149.0957 c 8.863495,-1.47994 17.074045,-4.91644 24.976565,-9.27929 l 23.27734,5.34961 18.16992,0.74218 13.92578,-4.5957 3.50977,-23.03906 -11.6582,5.04687 c -15.81077,-0.73661 -30.77355,-5.29121 -45.63477,-10.30078 z m 77.21485,53.23633 v 4.34375 14.9375 29.26367 H 66.460938 v 14.82422 5.36719 h -3.34375 v 3.70508 h 2.84375 v 0.85156 c 0,4.75573 3.82826,8.58398 8.583984,8.58398 4.755723,0 8.583984,-3.82825 8.583984,-8.58398 v -4.55664 h 5.232422 c 1.647935,7.53211 8.320471,13.14062 16.361332,13.14062 9.28617,0 16.76169,-7.47554 16.76172,-16.76172 V 229.625 h 6.37695 v 1.74609 c 0,9.28618 7.47555,16.76172 16.76172,16.76172 9.28618,0 16.76172,-7.47554 16.76172,-16.76172 V 229.625 h 9.57617 v 1.74609 c 0,9.28618 7.47554,16.76172 16.76172,16.76172 8.17709,0 14.94407,-5.79836 16.44531,-13.52343 h 15.59961 a 9.4583225,9.4583225 0 0 0 -0.92774,4.08593 9.4583225,9.4583225 0 0 0 9.45899,9.45703 9.4583225,9.4583225 0 0 0 9.45703,-9.45703 9.4583225,9.4583225 0 0 0 -0.92578,-4.08593 h 7.75976 v -3.83399 h -7.53906 V 229.625 214.80078 185.53711 h -17.3789 v -14.9375 h 17.3789 v -4.34375 h -17.3789 z" />
        <rect
           style="opacity:1;fill:#000000"
           id="rect904"
           width="208.19276"
           height="3.0722892"
           x="52.409637"
           y="247.77109" />
      </g>
    </g>
    <path
       d="m 69.135841,88.147325 c -5.556175,0 -10.029286,4.473081 -10.029286,10.0291 v 14.040845 h 7.063033 a 7.7290088,7.7290088 0 0 1 7.68127,-6.87465 7.7290088,7.7290088 0 0 1 7.681882,6.87465 h 28.52527 a 7.7290088,7.7290088 0 0 1 7.68096,-6.87465 7.7290088,7.7290088 0 0 1 7.68188,6.87465 h 7.10407 V 98.176425 c 0,-5.556019 -4.47311,-10.0291 -10.02929,-10.0291 z m 13.42913,6.976374 h 1.534723 v 3.702382 h -1.534723 z m 2.495304,0 h 1.535029 v 3.702382 h -1.535029 z m 40.852045,0 h 1.53409 v 3.702382 h -1.53409 z m 2.49531,0 h 1.53503 v 3.702382 h -1.53503 z m -63.20842,0.105334 h 6.467147 v 3.350669 H 65.19921 Z m 8.81057,0 h 6.467149 v 3.350669 H 74.00978 Z m 15.136862,0 h 6.467148 v 3.350669 h -6.467148 z m 8.80996,0 h 6.467148 v 3.350669 h -6.467148 z m 8.810878,0 h 6.46714 v 3.350669 h -6.46714 z m 8.80996,0 h 6.46776 v 3.350669 h -6.46776 z m -33.012469,4.705126 h 1.534723 v 8.951091 h -1.534723 z m 2.495304,0 h 1.535029 v 8.951091 h -1.535029 z m 40.852045,0 h 1.53409 v 8.951091 h -1.53409 z m 2.49531,0 h 1.53503 v 8.951091 h -1.53503 z m -54.570246,7.562981 a 5.8732897,5.8732897 0 0 0 -5.873407,5.87264 5.8732897,5.8732897 0 0 0 5.873407,5.87332 5.8732897,5.8732897 0 0 0 5.873102,-5.87332 5.8732897,5.8732897 0 0 0 -5.873102,-5.87264 z m 43.970486,0 a 5.8732897,5.8732897 0 0 0 -5.87341,5.87264 5.8732897,5.8732897 0 0 0 5.87341,5.87332 5.8732897,5.8732897 0 0 0 5.87341,-5.87332 5.8732897,5.8732897 0 0 0 -5.87341,-5.87264 z"
       style="opacity:1;fill:#ffffff;fill-rule:evenodd;stroke-width:0.722058"
       id="rect22-4" />
    <g
       transform="matrix(1.5404163,0,0,1.5404163,-488.64393,-29.972036)"
       style="font-style:normal;font-weight:normal;font-size:23.0279px;line-height:1.25;font-family:sans-serif;opacity:1;fill:#000000;fill-opacity:1;stroke:none;stroke-width:0.575696"
       id="text733"
       aria-label="10">
      <path
         id="path809"
         style="font-style:normal;font-variant:normal;font-weight:normal;font-stretch:normal;font-family:'Heb Tamrurim';-inkscape-font-specification:'Heb Tamrurim';fill:#000000;stroke-width:0.575696"
         d="m 358.90396,122.45013 q -0.63945,1.49462 -2.13792,2.13021 l 0.0193,2.62714 h 1.69107 l -0.0115,10.95154 3.20495,0.008 0.0116,-15.7166 h -2.77737 z" />
      <path
         id="path811"
         style="font-style:normal;font-variant:normal;font-weight:normal;font-stretch:normal;font-family:'Heb Tamrurim';-inkscape-font-specification:'Heb Tamrurim';fill:#000000;stroke-width:0.575696"
         d="m 364.01879,127.61966 -0.0116,5.63178 q 0.0347,2.18414 1.59863,3.71343 1.50617,1.39061 3.55935,1.43684 4.79972,-0.40448 5.29664,-5.20035 l 0.0231,-5.53163 q -0.0501,-2.07243 -1.48306,-3.57475 -1.51003,-1.52159 -3.65566,-1.59478 -4.78431,0.3544 -5.32746,5.11946 z m 3.22807,0 q 0.29276,-1.82976 2.14562,-1.88368 0.88213,0.0732 1.44839,0.75501 0.39677,0.50462 0.40062,1.14407 l -0.004,5.62793 q -0.22727,1.84902 -2.08399,1.96843 -0.83591,-0.0347 -1.41758,-0.6356 -0.49692,-0.53929 -0.50462,-1.27119 l 0.0154,-5.70497 z" />
    </g>
    <g
       transform="matrix(1.5404163,0,0,1.5404163,-488.64393,-29.972036)"
       style="font-style:normal;font-weight:normal;font-size:23.0279px;line-height:1.25;font-family:sans-serif;opacity:1;fill:#000000;fill-opacity:1;stroke:none;stroke-width:0.575696"
       id="text737"
       aria-label="300">
      <path
         id="path814"
         style="font-style:normal;font-variant:normal;font-weight:normal;font-stretch:normal;font-family:'Heb Tamrurim';-inkscape-font-specification:'Heb Tamrurim';fill:#000000;stroke-width:0.575696"
         d="m 357.67899,152.19128 2.3806,2.12636 q 0.71649,-0.93606 1.89909,-0.93221 0.004,0 0.0116,0 1.1094,0.0732 1.24037,1.17875 -0.0732,1.11326 -1.17874,1.24423 l -0.0116,3.13947 q 1.88754,0.1926 2.06859,2.08014 -0.1695,1.91449 -2.08014,2.10325 -1.78738,-0.0154 -3.05087,-1.28276 l -2.19185,2.29586 q 1.87983,1.86442 4.51082,2.13792 2.7504,0.31973 4.66875,-1.68337 2.9276,-3.89448 -0.35439,-7.49235 0.87828,-1.29046 0.77042,-2.84671 -0.69338,-3.96767 -4.71883,-4.02545 -2.39216,0.15023 -3.96382,1.95687 z" />
      <path
         id="path816"
         style="font-style:normal;font-variant:normal;font-weight:normal;font-stretch:normal;font-family:'Heb Tamrurim';-inkscape-font-specification:'Heb Tamrurim';fill:#000000;stroke-width:0.575696"
         d="m 369.64084,155.61966 -0.0116,5.63178 q 0.0347,2.18414 1.59862,3.71343 1.50618,1.39061 3.55935,1.43684 4.79973,-0.40448 5.29665,-5.20035 l 0.0231,-5.53163 q -0.0501,-2.07243 -1.48306,-3.57475 -1.51003,-1.52159 -3.65565,-1.59478 -4.78432,0.3544 -5.32746,5.11946 z m 3.22806,0 q 0.29276,-1.82976 2.14563,-1.88368 0.88213,0.0732 1.44839,0.75501 0.39677,0.50462 0.40062,1.14407 l -0.004,5.62793 q -0.22728,1.84902 -2.08399,1.96843 -0.83591,-0.0347 -1.41758,-0.6356 -0.49692,-0.53929 -0.50463,-1.27119 l 0.0154,-5.70497 z" />
      <path
         id="path818"
         style="font-style:normal;font-variant:normal;font-weight:normal;font-stretch:normal;font-family:'Heb Tamrurim';-inkscape-font-specification:'Heb Tamrurim';fill:#000000;stroke-width:0.575696"
         d="m 382.41412,155.61966 -0.0115,5.63178 q 0.0347,2.18414 1.59862,3.71343 1.50618,1.39061 3.55935,1.43684 4.79973,-0.40448 5.29665,-5.20035 l 0.0231,-5.53163 q -0.0501,-2.07243 -1.48306,-3.57475 -1.51003,-1.52159 -3.65565,-1.59478 -4.78432,0.3544 -5.32747,5.11946 z m 3.22807,0 q 0.29276,-1.82976 2.14562,-1.88368 0.88214,0.0732 1.4484,0.75501 0.39676,0.50462 0.40062,1.14407 l -0.004,5.62793 q -0.22727,1.84902 -2.08399,1.96843 -0.8359,-0.0347 -1.41757,-0.6356 -0.49692,-0.53929 -0.50463,-1.27119 l 0.0154,-5.70497 z" />
    </g>
    <g
       transform="matrix(1.5404163,0,0,1.5404163,-488.64393,-29.972036)"
       style="font-style:normal;font-weight:normal;font-size:23.0279px;line-height:1.25;font-family:sans-serif;opacity:1;fill:#000000;fill-opacity:1;stroke:none;stroke-width:0.575696"
       id="text741"
       aria-label="20">
      <path
         id="path821"
         style="font-style:normal;font-variant:normal;font-weight:normal;font-stretch:normal;font-family:'Heb Tamrurim';-inkscape-font-specification:'Heb Tamrurim';fill:#000000;stroke-width:0.575696"
         d="m 356.76604,182.16936 2.27659,2.18029 q 1.15949,-1.22112 2.84671,-1.22497 1.07859,0.027 1.6487,0.94377 0.72035,1.57936 -0.69338,2.58091 -5.3159,2.99309 -5.82053,9.07171 h 9.68805 v -3.17028 l -5.63949,0.0154 q 1.07474,-1.99925 3.07784,-3.07399 2.80819,-1.5524 2.77737,-4.76505 -0.66642,-4.57246 -5.28509,-4.76891 -2.88523,0.12326 -4.87677,2.21111 z" />
      <path
         id="path823"
         style="font-style:normal;font-variant:normal;font-weight:normal;font-stretch:normal;font-family:'Heb Tamrurim';-inkscape-font-specification:'Heb Tamrurim';fill:#000000;stroke-width:0.575696"
         d="m 369.23605,185.13548 -0.0116,5.63178 q 0.0347,2.18415 1.59863,3.71343 1.50617,1.39061 3.55934,1.43684 4.79973,-0.40447 5.29665,-5.20035 l 0.0231,-5.53162 q -0.0501,-2.07244 -1.48307,-3.57476 -1.51002,-1.52158 -3.65565,-1.59477 -4.78431,0.35439 -5.32746,5.11945 z m 3.22806,0 q 0.29277,-1.82975 2.14563,-1.88368 0.88213,0.0732 1.44839,0.75501 0.39677,0.50463 0.40062,1.14408 l -0.004,5.62793 q -0.22728,1.84901 -2.08399,1.96842 -0.83591,-0.0347 -1.41758,-0.63559 -0.49692,-0.5393 -0.50462,-1.2712 l 0.0154,-5.70497 z" />
    </g>
    <g
       transform="matrix(1.5404163,0,0,1.5404163,-488.64393,-29.972036)"
       style="font-style:normal;font-weight:normal;font-size:23.0279px;line-height:1.25;font-family:sans-serif;opacity:1;fill:#000000;fill-opacity:1;stroke:none;stroke-width:0.575696"
       id="text745"
       aria-label="11">
      <path
         id="path826"
         style="font-style:normal;font-variant:normal;font-weight:normal;font-stretch:normal;font-family:'Heb Tamrurim';-inkscape-font-specification:'Heb Tamrurim';fill:#000000;stroke-width:0.575696"
         d="m 358.90396,208.45013 q -0.63945,1.49462 -2.13792,2.13021 l 0.0193,2.62714 h 1.69107 l -0.0115,10.95154 3.20495,0.008 0.0116,-15.7166 h -2.77737 z" />
      <path
         id="path828"
         style="font-style:normal;font-variant:normal;font-weight:normal;font-stretch:normal;font-family:'Heb Tamrurim';-inkscape-font-specification:'Heb Tamrurim';fill:#000000;stroke-width:0.575696"
         d="m 366.14515,208.45013 q -0.63945,1.49462 -2.13792,2.13021 l 0.0193,2.62714 h 1.69108 l -0.0116,10.95154 3.20496,0.008 0.0115,-15.7166 h -2.77737 z" />
    </g>
    <g
       transform="matrix(1.5404163,0,0,1.5404163,-488.64393,-29.972036)"
       style="font-style:normal;font-weight:normal;font-size:23.0279px;line-height:1.25;font-family:sans-serif;opacity:1;fill:#000000;fill-opacity:1;stroke:none;stroke-width:0.575696"
       id="text749"
       aria-label="500">
      <path
         id="path831"
         style="font-style:normal;font-variant:normal;font-weight:normal;font-stretch:normal;font-family:'Heb Tamrurim';-inkscape-font-specification:'Heb Tamrurim';fill:#000000;stroke-width:0.575696"
         d="m 357.70595,236.44628 -0.47381,8.09713 3.1048,0.99384 q 0.46225,-0.49307 1.12097,-0.63175 1.90679,-0.20416 2.46149,1.6333 0.20031,1.90294 -1.63329,2.45764 -2.22267,0.51233 -4.35674,-0.28505 l -1.16333,2.91989 q 3.0162,1.10941 6.15567,0.43529 0.16178,-0.0308 0.31972,-0.0732 4.51082,-1.6564 3.72114,-6.39835 -1.66026,-4.51082 -6.39835,-3.72113 l 0.18105,-2.25349 5.61252,-0.004 0.004,-3.17799 -8.65569,0.008 z" />
      <path
         id="path833"
         style="font-style:normal;font-variant:normal;font-weight:normal;font-stretch:normal;font-family:'Heb Tamrurim';-inkscape-font-specification:'Heb Tamrurim';fill:#000000;stroke-width:0.575696"
         d="m 369.46093,241.61966 -0.0116,5.63178 q 0.0347,2.18414 1.59863,3.71343 1.50617,1.39061 3.55935,1.43684 4.79972,-0.40448 5.29665,-5.20035 l 0.0231,-5.53163 q -0.0501,-2.07243 -1.48306,-3.57475 -1.51003,-1.52159 -3.65565,-1.59478 -4.78432,0.3544 -5.32747,5.11946 z m 3.22807,0 q 0.29276,-1.82976 2.14562,-1.88368 0.88213,0.0732 1.44839,0.75501 0.39677,0.50462 0.40062,1.14407 l -0.004,5.62793 q -0.22727,1.84902 -2.08399,1.96843 -0.83591,-0.0347 -1.41758,-0.6356 -0.49692,-0.53929 -0.50462,-1.27119 l 0.0154,-5.70497 z" />
      <path
         id="path835"
         style="font-style:normal;font-variant:normal;font-weight:normal;font-stretch:normal;font-family:'Heb Tamrurim';-inkscape-font-specification:'Heb Tamrurim';fill:#000000;stroke-width:0.575696"
         d="m 382.23422,241.61966 -0.0116,5.63178 q 0.0347,2.18414 1.59863,3.71343 1.50617,1.39061 3.55935,1.43684 4.79972,-0.40448 5.29664,-5.20035 l 0.0231,-5.53163 q -0.0501,-2.07243 -1.48307,-3.57475 -1.51002,-1.52159 -3.65565,-1.59478 -4.78431,0.3544 -5.32746,5.11946 z m 3.22807,0 q 0.29276,-1.82976 2.14562,-1.88368 0.88213,0.0732 1.44839,0.75501 0.39677,0.50462 0.40062,1.14407 l -0.004,5.62793 q -0.22727,1.84902 -2.08399,1.96843 -0.83591,-0.0347 -1.41758,-0.6356 -0.49692,-0.53929 -0.50462,-1.27119 l 0.0154,-5.70497 z" />
    </g>
    <g
       transform="matrix(1.5404163,0,0,1.5404163,-488.64393,-29.972036)"
       style="font-style:normal;font-weight:normal;font-size:23.0279px;line-height:1.25;font-family:sans-serif;opacity:1;fill:#000000;fill-opacity:1;stroke:none;stroke-width:0.575696"
       id="text753"
       aria-label="40">
      <path
         id="path838"
         style="font-style:normal;font-variant:normal;font-weight:normal;font-stretch:normal;font-family:'Heb Tamrurim';-inkscape-font-specification:'Heb Tamrurim';fill:#000000;stroke-width:0.575696"
         d="m 364.05423,265.91201 -7.28049,9.51855 -0.008,3.17799 7.0378,0.0154 0.004,3.08939 3.22422,-0.004 0.004,-3.09709 1.44069,0.004 -0.004,-3.18184 -1.43683,-0.004 0.008,-9.51855 h -2.98923 z m -0.25424,5.62022 0.0115,3.86752 -2.98153,-0.008 2.96998,-3.85981 z" />
      <path
         id="path840"
         style="font-style:normal;font-variant:normal;font-weight:normal;font-stretch:normal;font-family:'Heb Tamrurim';-inkscape-font-specification:'Heb Tamrurim';fill:#000000;stroke-width:0.575696"
         d="m 370.81022,271.13546 -0.0115,5.63179 q 0.0347,2.18414 1.59862,3.71343 1.50617,1.39061 3.55935,1.43683 4.79972,-0.40447 5.29665,-5.20034 l 0.0231,-5.53163 q -0.0501,-2.07243 -1.48306,-3.57475 -1.51003,-1.52159 -3.65565,-1.59478 -4.78432,0.3544 -5.32747,5.11945 z m 3.22807,0 q 0.29276,-1.82975 2.14562,-1.88368 0.88213,0.0732 1.44839,0.75502 0.39677,0.50462 0.40062,1.14407 l -0.004,5.62793 q -0.22727,1.84901 -2.08399,1.96843 -0.83591,-0.0347 -1.41757,-0.6356 -0.49693,-0.53929 -0.50463,-1.27119 l 0.0154,-5.70498 z" />
    </g>
    <g
       transform="matrix(1.5404163,0,0,1.5404163,-488.64393,-29.972036)"
       style="font-style:normal;font-weight:normal;font-size:15.6927px;line-height:1.25;font-family:sans-serif;opacity:1;fill:#000000;fill-opacity:1;stroke:none;stroke-width:0.39232"
       id="text757"
       aria-label="erc  hbc">
      <path
         id="path843"
         style="font-style:normal;font-variant:normal;font-weight:normal;font-stretch:normal;font-family:'Heb Tamrurim';-inkscape-font-specification:'Heb Tamrurim';fill:#000000;stroke-width:0.39232"
         d="m 455.70561,125.59336 v 2.13944 h 5.37878 l -0.0105,4.36287 q -0.0788,1.7903 -1.84543,2.08431 h -0.32288 v 2.17094 h 0.62739 q 3.21835,-0.54864 3.67248,-3.78273 l -0.003,-6.97483 h -7.49722 z m -0.003,12.8445 h 2.14994 v -7.96448 h -2.14994 z" />
      <path
         id="path845"
         style="font-style:normal;font-variant:normal;font-weight:normal;font-stretch:normal;font-family:'Heb Tamrurim';-inkscape-font-specification:'Heb Tamrurim';fill:#000000;stroke-width:0.39232"
         d="m 464.78583,125.59336 -0.0105,2.14731 4.27625,-0.003 0.005,8.61287 2.17619,-0.005 -0.003,-8.58137 q 0.003,-0.0499 0,-0.10238 -0.19425,-1.90055 -2.09743,-2.06068 l -4.34713,-0.008 z" />
      <path
         id="path847"
         style="font-style:normal;font-variant:normal;font-weight:normal;font-stretch:normal;font-family:'Heb Tamrurim';-inkscape-font-specification:'Heb Tamrurim';fill:#000000;stroke-width:0.39232"
         d="m 473.11271,125.60386 0.005,2.13944 4.23163,-0.005 -0.005,6.45506 h -4.53876 l 0.003,2.16306 h 7.54184 v -2.16569 h -0.86628 v -8.58662 h -6.37106 z" />
      <path
         id="path849"
         style="font-style:normal;font-variant:normal;font-weight:normal;font-stretch:normal;font-family:'Heb Tamrurim';-inkscape-font-specification:'Heb Tamrurim';fill:#000000;stroke-width:0.39232"
         d="m 493.69122,125.60386 -0.0131,2.15781 1.63017,-0.005 -0.003,3.25772 2.14994,0.008 0.003,-5.41816 h -3.76699 z" />
      <path
         id="path851"
         style="font-style:normal;font-variant:normal;font-weight:normal;font-stretch:normal;font-family:'Heb Tamrurim';-inkscape-font-specification:'Heb Tamrurim';fill:#000000;stroke-width:0.39232"
         d="m 500.10497,125.60124 0.003,2.14731 1.6223,0.0131 0.005,6.41569 -2.69333,0.005 0.005,2.17094 2.77208,0.003 q 0.0315,0 0.0656,-0.003 1.93206,-0.27301 2.02131,-2.22344 l 0.003,-8.52625 -3.80373,-0.003 z" />
      <path
         id="path853"
         style="font-style:normal;font-variant:normal;font-weight:normal;font-stretch:normal;font-family:'Heb Tamrurim';-inkscape-font-specification:'Heb Tamrurim';fill:#000000;stroke-width:0.39232"
         d="m 505.78541,125.60386 0.005,2.13944 4.23162,-0.005 -0.005,6.45506 h -4.53876 l 0.003,2.16306 h 7.54184 v -2.16569 h -0.86628 v -8.58662 h -6.37105 z" />
    </g>
    <g
       transform="matrix(1.5404163,0,0,1.5404163,-488.64393,-29.972036)"
       style="font-style:normal;font-weight:normal;font-size:15.6927px;line-height:1.25;font-family:sans-serif;letter-spacing:0.88px;opacity:1;fill:#000000;fill-opacity:1;stroke:none;stroke-width:0.39232"
       id="text761"
       aria-label="vhb,b">
      <path
         id="path856"
         style="font-style:normal;font-variant:normal;font-weight:normal;font-stretch:normal;font-family:'Heb Tamrurim';-inkscape-font-specification:'Heb Tamrurim';fill:#000000;stroke-width:0.39232"
         d="m 475.26018,152.82058 -0.003,2.15256 5.36303,0.003 -0.005,8.5945 2.16832,-0.003 -0.003,-10.74181 -7.52084,-0.005 z m -0.005,4.84064 v 5.90905 l 2.14994,-0.008 -0.003,-5.90904 -2.14731,0.008 z" />
      <path
         id="path858"
         style="font-style:normal;font-variant:normal;font-weight:normal;font-stretch:normal;font-family:'Heb Tamrurim';-inkscape-font-specification:'Heb Tamrurim';fill:#000000;stroke-width:0.39232"
         d="m 485.25105,152.82321 -0.0131,2.15781 1.63017,-0.005 -0.003,3.25772 2.14993,0.008 0.003,-5.41815 h -3.76698 z" />
      <path
         id="path860"
         style="font-style:normal;font-variant:normal;font-weight:normal;font-stretch:normal;font-family:'Heb Tamrurim';-inkscape-font-specification:'Heb Tamrurim';fill:#000000;stroke-width:0.39232"
         d="m 492.54479,152.82058 0.003,2.14731 1.62229,0.0131 0.005,6.41568 -2.69332,0.005 0.005,2.17094 2.77208,0.003 q 0.0315,0 0.0656,-0.003 1.93206,-0.27301 2.02131,-2.22344 l 0.003,-8.52624 -3.80374,-0.003 z" />
      <path
         id="path862"
         style="font-style:normal;font-variant:normal;font-weight:normal;font-stretch:normal;font-family:'Heb Tamrurim';-inkscape-font-specification:'Heb Tamrurim';fill:#000000;stroke-width:0.39232"
         d="m 499.02123,152.81533 v 2.17094 h 0.54601 l 0.008,6.44193 -0.76915,-0.005 -0.008,2.16044 2.93483,0.005 0.005,-8.60237 h 2.43607 v 8.59187 l 2.15519,0.003 0.003,-10.75494 -7.31083,-0.0105 z" />
      <path
         id="path864"
         style="font-style:normal;font-variant:normal;font-weight:normal;font-stretch:normal;font-family:'Heb Tamrurim';-inkscape-font-specification:'Heb Tamrurim';fill:#000000;stroke-width:0.39232"
         d="m 509.84425,152.82058 0.003,2.14731 1.6223,0.0131 0.005,6.41568 -2.69333,0.005 0.005,2.17094 2.77208,0.003 q 0.0315,0 0.0656,-0.003 1.93205,-0.27301 2.02131,-2.22344 l 0.003,-8.52624 -3.80373,-0.003 z" />
    </g>
    <g
       transform="matrix(1.5404163,0,0,1.5404163,-488.64393,-29.972036)"
       style="font-style:normal;font-weight:normal;font-size:8.99625px;line-height:1.25;font-family:sans-serif;opacity:1;fill:#000000;fill-opacity:1;stroke:none;stroke-width:0.224908"
       id="text765"
       aria-label="54  ue kukxnc ahhmun">
      <path
         id="path867"
         style="font-style:normal;font-variant:normal;font-weight:normal;font-stretch:normal;font-family:'Heb Tamrurim';-inkscape-font-specification:'Heb Tamrurim';fill:#000000;stroke-width:0.224908"
         d="m 416.32738,192.31009 -0.1851,3.16328 1.21294,0.38826 q 0.18059,-0.19262 0.43793,-0.2468 0.74492,-0.0798 0.96162,0.63808 0.0783,0.74341 -0.63807,0.96012 -0.86833,0.20015 -1.70204,-0.11136 l -0.45447,1.14071 q 1.17833,0.4334 2.40482,0.17005 0.0632,-0.012 0.1249,-0.0286 1.76223,-0.64711 1.45373,-2.49963 -0.64861,-1.76223 -2.49963,-1.45373 l 0.0707,-0.88036 2.19263,-0.002 0.001,-1.24153 -3.38149,0.003 z" />
      <path
         id="path869"
         style="font-style:normal;font-variant:normal;font-weight:normal;font-stretch:normal;font-family:'Heb Tamrurim';-inkscape-font-specification:'Heb Tamrurim';fill:#000000;stroke-width:0.224908"
         d="m 423.76241,192.29052 -2.84425,3.71859 -0.003,1.24154 2.74944,0.006 0.002,1.20692 1.25959,-0.002 0.002,-1.20993 0.56283,0.001 -0.002,-1.24304 -0.56132,-0.002 0.003,-3.71859 h -1.1678 z m -0.0993,2.19564 0.005,1.51091 -1.16479,-0.003 1.16028,-1.50791 z" />
      <path
         id="path871"
         style="letter-spacing:0.6px;fill:#000000"
         d="m 433.14895,192.29805 -0.005,1.23401 0.94206,-0.001 v 4.92852 l 1.20392,-0.003 -0.005,-6.15802 h -2.13694 z" />
      <path
         id="path873"
         style="letter-spacing:0.6px;fill:#000000"
         d="m 436.78568,192.28601 v 1.22649 h 3.08353 l -0.006,2.50113 q -0.0451,1.02634 -1.05794,1.19488 h -0.1851 v 1.24455 h 0.35967 q 1.845,-0.31452 2.10534,-2.16855 l -10e-4,-3.9985 h -4.29798 z m -0.002,7.36344 h 1.23251 v -4.56585 h -1.23251 z" />
      <path
         id="path875"
         style="letter-spacing:0.6px;fill:#000000"
         d="m 446.55873,191.06554 v 2.46351 l 2.77352,0.005 v 2.63506 q -0.005,0.18059 -0.0647,0.35215 -0.44244,0.97216 -1.47931,0.71783 l -0.003,1.231 q 0.21971,0.0421 0.44394,0.0421 2.14297,-0.20617 2.3386,-2.34914 l -0.005,-3.86005 -2.74944,0.003 -0.003,-1.23702 -1.25207,-0.003 z" />
      <path
         id="path877"
         style="letter-spacing:0.6px;fill:#000000"
         d="m 452.0655,192.29805 -0.005,1.23401 0.94207,-0.001 v 4.92852 l 1.20391,-0.003 -0.005,-6.15802 h -2.13694 z" />
      <path
         id="path879"
         style="letter-spacing:0.6px;fill:#000000"
         d="m 455.70073,191.06554 v 2.46351 l 2.77352,0.005 v 2.63506 q -0.005,0.18059 -0.0647,0.35215 -0.44244,0.97216 -1.47931,0.71783 l -0.003,1.231 q 0.21972,0.0421 0.44394,0.0421 2.14297,-0.20617 2.33861,-2.34914 l -0.005,-3.86005 -2.74944,0.003 -0.003,-1.23702 -1.25207,-0.003 z" />
      <path
         id="path881"
         style="letter-spacing:0.6px;fill:#000000"
         d="m 461.20298,192.29203 0.005,1.22498 h 0.41836 l 0.44394,4.92552 h 2.26487 q 0.93303,-0.0587 1.16177,-0.96464 l 0.62152,-5.19038 -4.91498,0.005 z m 1.71558,1.22799 1.79835,-0.005 -0.44545,3.70053 -1.02634,-0.005 -0.32656,-3.6915 z m 0,0 h -0.012 l 0.012,-0.006 z" />
      <path
         id="path883"
         style="letter-spacing:0.6px;fill:#000000"
         d="m 467.61892,192.29203 v 1.25357 l 0.48157,-0.003 0.005,4.91649 1.23552,-0.003 0.005,-4.91047 h 1.96539 v 3.65539 l -0.93604,-0.002 v 1.2611 l 2.17457,-10e-4 -0.003,-6.15652 -2.04816,0.003 -1.16178,0.60497 0.002,-0.61851 h -1.71859 z" />
      <path
         id="path885"
         style="letter-spacing:0.6px;fill:#000000"
         d="m 474.2285,192.29203 0.003,1.22649 2.42589,-0.003 -0.003,3.70053 h -2.60196 l 10e-4,1.24003 h 4.32356 v -1.24154 h -0.49662 v -4.9225 H 474.228 Z" />
      <path
         id="path887"
         style="letter-spacing:0.6px;fill:#000000"
         d="m 483.84455,192.29654 1.25959,6.15953 1.45222,10e-4 q 2.01205,-0.20015 2.55531,-2.14748 l 0.92702,-4.01505 h -1.30475 l -0.87584,4.03161 q -0.33409,0.85177 -1.24906,0.89842 l -0.48909,0.005 -0.37171,-1.85553 h 1.18736 l 0.67118,-3.08052 -1.27765,0.002 -0.62303,2.90294 -0.58239,-2.90294 -1.27916,10e-4 z" />
      <path
         id="path889"
         style="letter-spacing:0.6px;fill:#000000"
         d="m 491.55068,192.29203 -0.008,1.23702 0.93453,-0.003 -0.002,1.86757 1.23251,0.005 0.001,-3.1061 h -2.15952 z" />
      <path
         id="path891"
         style="letter-spacing:0.6px;fill:#000000"
         d="m 495.22557,192.29203 -0.008,1.23702 0.93454,-0.003 -0.002,1.86757 1.23251,0.005 0.001,-3.1061 h -2.15952 z" />
      <path
         id="path893"
         style="letter-spacing:0.6px;fill:#000000"
         d="m 498.89293,192.31159 0.003,0.006 3.42965,4.91498 -3.33785,0.002 -0.005,1.2325 4.93906,-0.003 0.002,-1.21745 -1.33484,-1.88263 0.28593,0.002 1.05343,-3.05192 -1.32281,0.003 -0.72234,2.0617 -1.46126,-2.06772 -1.52897,0.001 z" />
      <path
         id="path895"
         style="letter-spacing:0.6px;fill:#000000"
         d="m 505.43638,192.29805 -0.005,1.23401 0.94206,-0.001 v 4.92852 l 1.20391,-0.003 -0.005,-6.15802 h -2.13695 z" />
      <path
         id="path897"
         style="letter-spacing:0.6px;fill:#000000"
         d="m 509.07161,192.29203 v 1.25357 l 0.48157,-0.003 0.005,4.91649 1.23552,-0.003 0.005,-4.91047 h 1.96539 v 3.65539 l -0.93605,-0.002 v 1.2611 l 2.17457,-10e-4 -0.003,-6.15652 -2.04816,0.003 -1.16177,0.60497 0.002,-0.61851 h -1.71859 z" />
    </g>
    <g
       transform="matrix(1.5404163,0,0,1.5404163,-488.64393,-29.972036)"
       style="font-style:normal;font-weight:normal;font-size:8.99625px;line-height:1.25;font-family:sans-serif;letter-spacing:0.89px;opacity:1;fill:#000000;fill-opacity:1;stroke:none;stroke-width:0.224908"
       id="text775"
       aria-label="xrpoet">
      <path
         id="path900"
         style="font-style:normal;font-variant:normal;font-weight:normal;font-stretch:normal;font-family:'Heb Tamrurim';-inkscape-font-specification:'Heb Tamrurim';fill:#000000;stroke-width:0.224908"
         d="m 432.76741,157.0743 0.005,1.22498 h 0.41836 l 0.44395,4.92552 h 2.26486 q 0.93303,-0.0587 1.16178,-0.96464 l 0.62152,-5.19037 -4.91498,0.005 z m 1.71557,1.22799 1.79835,-0.005 -0.44545,3.70053 -1.02633,-0.005 -0.32657,-3.69151 z m 0,0 h -0.012 l 0.012,-0.006 z" />
      <path
         id="path902"
         style="font-style:normal;font-variant:normal;font-weight:normal;font-stretch:normal;font-family:'Heb Tamrurim';-inkscape-font-specification:'Heb Tamrurim';fill:#000000;stroke-width:0.224908"
         d="m 439.47936,157.06828 -0.006,1.231 2.45147,-0.002 0.003,4.93755 1.24756,-0.003 -0.002,-4.91949 q 0.002,-0.0286 0,-0.0587 -0.11136,-1.08955 -1.20241,-1.18134 l -2.4921,-0.005 z" />
      <path
         id="path904"
         style="font-style:normal;font-variant:normal;font-weight:normal;font-stretch:normal;font-family:'Heb Tamrurim';-inkscape-font-specification:'Heb Tamrurim';fill:#000000;stroke-width:0.224908"
         d="m 444.97592,157.06979 0.005,3.50941 1.83897,0.003 0.005,-1.24906 -0.62152,0.002 0.003,-1.03537 2.16102,0.002 0.005,3.69451 -3.40407,0.003 v 1.23552 h 3.42213 q 0.0436,0.001 0.0858,-0.002 1.06546,-0.15651 1.11061,-1.2325 l -0.005,-4.93003 h -4.60497 z" />
      <path
         id="path906"
         style="font-style:normal;font-variant:normal;font-weight:normal;font-stretch:normal;font-family:'Heb Tamrurim';-inkscape-font-specification:'Heb Tamrurim';fill:#000000;stroke-width:0.224908"
         d="m 451.37412,157.06979 v 1.21745 l 0.50113,0.002 v 4.94959 h 4.13996 v -6.16554 l -4.64109,-0.003 z m 1.72461,1.21444 h 1.67645 v 3.72612 l -1.67645,-0.002 v -3.72461 z" />
      <path
         id="path908"
         style="font-style:normal;font-variant:normal;font-weight:normal;font-stretch:normal;font-family:'Heb Tamrurim';-inkscape-font-specification:'Heb Tamrurim';fill:#000000;stroke-width:0.224908"
         d="m 457.80043,157.06828 v 1.22649 h 3.08353 l -0.006,2.50113 q -0.0452,1.02634 -1.05794,1.19489 h -0.1851 v 1.24454 h 0.35966 q 1.845,-0.31452 2.10535,-2.16855 l -0.002,-3.9985 h -4.29797 z m -0.002,7.36344 h 1.2325 v -4.56584 h -1.2325 z" />
      <path
         id="path910"
         style="font-style:normal;font-variant:normal;font-weight:normal;font-stretch:normal;font-family:'Heb Tamrurim';-inkscape-font-specification:'Heb Tamrurim';fill:#000000;stroke-width:0.224908"
         d="m 463.88988,157.0743 1.28518,2.15802 -1.22649,0.90594 -0.003,3.10309 1.23402,-0.008 v -2.44997 l 0.62754,-0.48457 1.73213,2.93905 1.42814,-0.001 -1.27314,-2.1535 1.18435,-0.921 0.003,-3.08653 -1.22347,-0.002 0.002,2.46201 -0.60346,0.47103 -1.73966,-2.93605 -1.42664,0.003 z" />
    </g>
    <g
       transform="matrix(1.5404163,0,0,1.5404163,-488.64393,-29.972036)"
       style="font-style:normal;font-weight:normal;font-size:8.99625px;line-height:1.25;font-family:sans-serif;letter-spacing:0.46px;opacity:1;fill:#000000;fill-opacity:1;stroke:none;stroke-width:0.224908"
       id="text781"
       aria-label="{}[mhhvjt]">
      <path
         id="path913"
         style="font-style:normal;font-variant:normal;font-weight:normal;font-stretch:normal;font-family:'Heb Tamrurim';-inkscape-font-specification:'Heb Tamrurim';fill:#000000;stroke-width:0.224908"
         d="m 426.30514,248.93484 v 7.70806 h 1.89316 v -1.29872 h -0.56133 v -5.12115 h 0.56133 v -1.28819 z" />
      <path
         id="path915"
         style="font-style:normal;font-variant:normal;font-weight:normal;font-stretch:normal;font-family:'Heb Tamrurim';-inkscape-font-specification:'Heb Tamrurim';fill:#000000;stroke-width:0.224908"
         d="m 429.5589,249.73394 0.003,0.006 3.42965,4.91498 -3.33785,0.001 -0.005,1.23251 4.93906,-0.003 0.002,-1.21746 -1.33484,-1.88262 0.28593,0.002 1.05342,-3.05193 -1.3228,0.003 -0.72235,2.06171 -1.46125,-2.06772 -1.52897,0.001 z" />
      <path
         id="path917"
         style="font-style:normal;font-variant:normal;font-weight:normal;font-stretch:normal;font-family:'Heb Tamrurim';-inkscape-font-specification:'Heb Tamrurim';fill:#000000;stroke-width:0.224908"
         d="m 435.96536,249.71438 -0.008,1.23702 0.93454,-0.003 -0.002,1.86757 1.2325,0.005 0.002,-3.1061 h -2.15952 z" />
      <path
         id="path919"
         style="font-style:normal;font-variant:normal;font-weight:normal;font-stretch:normal;font-family:'Heb Tamrurim';-inkscape-font-specification:'Heb Tamrurim';fill:#000000;stroke-width:0.224908"
         d="m 439.50025,249.71438 -0.008,1.23702 0.93454,-0.003 -10e-4,1.86757 1.2325,0.005 0.002,-3.1061 h -2.15952 z" />
      <path
         id="path921"
         style="font-style:normal;font-variant:normal;font-weight:normal;font-stretch:normal;font-family:'Heb Tamrurim';-inkscape-font-specification:'Heb Tamrurim';fill:#000000;stroke-width:0.224908"
         d="m 443.03062,249.71287 -0.002,1.23401 3.07449,0.002 -0.003,4.92702 1.24305,-0.002 -0.002,-6.15802 -4.31152,-0.003 z m -0.003,2.77502 v 3.38752 l 1.23251,-0.005 -10e-4,-3.38751 -1.23101,0.005 z" />
      <path
         id="path923"
         style="font-style:normal;font-variant:normal;font-weight:normal;font-stretch:normal;font-family:'Heb Tamrurim';-inkscape-font-specification:'Heb Tamrurim';fill:#000000;stroke-width:0.224908"
         d="m 448.70614,249.72792 v 1.24154 l 0.48909,-0.005 0.003,4.91197 1.2611,0.005 -0.005,-4.91197 1.62227,-0.003 -10e-4,4.91648 1.2626,-0.001 -0.005,-6.15351 h -4.62755 z" />
      <path
         id="path925"
         style="font-style:normal;font-variant:normal;font-weight:normal;font-stretch:normal;font-family:'Heb Tamrurim';-inkscape-font-specification:'Heb Tamrurim';fill:#000000;stroke-width:0.224908"
         d="m 454.70094,249.71438 1.28518,2.15801 -1.22649,0.90595 -0.003,3.10309 1.23402,-0.008 v -2.44996 l 0.62754,-0.48458 1.73213,2.93906 1.42814,-0.002 -1.27314,-2.1535 1.18435,-0.92099 0.003,-3.08654 -1.22347,-0.001 0.002,2.462 -0.60346,0.47103 -1.73966,-2.93604 -1.42664,0.003 z" />
      <path
         id="path927"
         style="font-style:normal;font-variant:normal;font-weight:normal;font-stretch:normal;font-family:'Heb Tamrurim';-inkscape-font-specification:'Heb Tamrurim';fill:#000000;stroke-width:0.224908"
         d="m 461.13501,248.9213 v 1.29722 h 0.56133 v 5.12867 h -0.56133 v 1.2927 h 1.89015 v -7.71859 z" />
    </g>
    <g
       transform="matrix(1.7951523,0,0,1.7951523,-68.490958,-50.656572)"
       style="font-style:normal;font-weight:normal;font-size:15.6927px;line-height:1.25;font-family:sans-serif;letter-spacing:0.98px;opacity:1;fill:#000000;fill-opacity:1;stroke:none;stroke-width:0.39232"
       id="text785"
       aria-label="rdxnv cujr">
      <path
         id="path1007"
         style="font-style:normal;font-variant:normal;font-weight:normal;font-stretch:normal;font-family:'Heb Tamrurim';-inkscape-font-specification:'Heb Tamrurim';fill:#000000;stroke-width:0.39232"
         d="m 128.49413,80.597237 -0.0105,2.147312 4.27625,-0.0026 0.005,8.612872 2.17618,-0.0052 -0.003,-8.581371 q 0.003,-0.04988 0,-0.102378 -0.19426,-1.900555 -2.09744,-2.060684 l -4.34712,-0.0079 z" />
      <path
         id="path1009"
         style="font-style:normal;font-variant:normal;font-weight:normal;font-stretch:normal;font-family:'Heb Tamrurim';-inkscape-font-specification:'Heb Tamrurim';fill:#000000;stroke-width:0.39232"
         d="m 138.55703,80.602488 -0.003,2.11581 2.28119,0.0105 0.58276,5.370904 -2.37044,-0.0026 -1.55404,3.257718 2.42294,0.0026 1.50942,-3.218342 0.33601,3.220967 h 2.18931 L 142.8434,80.602487 h -4.28675 z" />
      <path
         id="path1011"
         style="font-style:normal;font-variant:normal;font-weight:normal;font-stretch:normal;font-family:'Heb Tamrurim';-inkscape-font-specification:'Heb Tamrurim';fill:#000000;stroke-width:0.39232"
         d="m 146.50412,80.607738 0.008,2.136811 h 0.72977 l 0.7744,8.591872 h 3.95074 q 1.62754,-0.102378 2.02655,-1.682674 l 1.08416,-9.053884 -8.5735,0.0079 z m 2.99259,2.142061 3.13697,-0.0079 -0.77703,6.45506 -1.7903,-0.0079 -0.56964,-6.43931 z m 0,0 h -0.021 l 0.021,-0.0105 z" />
      <path
         id="path1013"
         style="font-style:normal;font-variant:normal;font-weight:normal;font-stretch:normal;font-family:'Heb Tamrurim';-inkscape-font-specification:'Heb Tamrurim';fill:#000000;stroke-width:0.39232"
         d="m 157.62921,80.607738 v 2.186688 l 0.84002,-0.0053 0.008,8.576122 2.15519,-0.0053 0.008,-8.56562 h 3.42835 v 6.376308 l -1.6328,-0.0026 v 2.199814 l 3.79324,-0.0026 -0.005,-10.739184 -3.57273,0.0052 -2.02656,1.055281 0.003,-1.078906 h -2.99784 z" />
      <path
         id="path1015"
         style="font-style:normal;font-variant:normal;font-weight:normal;font-stretch:normal;font-family:'Heb Tamrurim';-inkscape-font-specification:'Heb Tamrurim';fill:#000000;stroke-width:0.39232"
         d="m 168.7902,80.605113 -0.003,2.152561 5.36303,0.0026 -0.005,8.594496 2.16831,-0.0026 -0.003,-10.741808 -7.52084,-0.0053 z m -0.005,4.840639 v 5.909044 l 2.14993,-0.0079 -0.003,-5.909045 -2.14731,0.0079 z" />
      <path
         id="path1017"
         style="font-style:normal;font-variant:normal;font-weight:normal;font-stretch:normal;font-family:'Heb Tamrurim';-inkscape-font-specification:'Heb Tamrurim';fill:#000000;stroke-width:0.39232"
         d="m 186.03983,80.607738 0.005,2.139436 4.23163,-0.0053 -0.005,6.45506 h -4.53876 l 0.003,2.163062 h 7.54184 v -2.165687 h -0.86628 v -8.586621 h -6.37106 z" />
      <path
         id="path1019"
         style="font-style:normal;font-variant:normal;font-weight:normal;font-stretch:normal;font-family:'Heb Tamrurim';-inkscape-font-specification:'Heb Tamrurim';fill:#000000;stroke-width:0.39232"
         d="m 195.82356,80.618238 -0.008,2.152562 1.6433,-0.0026 v 8.597122 l 2.10006,-0.0053 -0.008,-10.741808 h -3.72761 z" />
      <path
         id="path1021"
         style="font-style:normal;font-variant:normal;font-weight:normal;font-stretch:normal;font-family:'Heb Tamrurim';-inkscape-font-specification:'Heb Tamrurim';fill:#000000;stroke-width:0.39232"
         d="m 202.09811,80.631363 v 2.165688 l 0.85315,-0.0079 0.005,8.568246 2.19981,0.0079 -0.008,-8.568246 2.82984,-0.0053 -0.003,8.576122 2.20244,-0.0026 -0.008,-10.733934 h -8.0721 z" />
      <path
         id="path1023"
         style="font-style:normal;font-variant:normal;font-weight:normal;font-stretch:normal;font-family:'Heb Tamrurim';-inkscape-font-specification:'Heb Tamrurim';fill:#000000;stroke-width:0.39232"
         d="m 212.7433,80.597237 -0.0105,2.147312 4.27624,-0.0026 0.005,8.612872 2.17619,-0.0052 -0.003,-8.581371 q 0.003,-0.04988 0,-0.102378 -0.19426,-1.900555 -2.09744,-2.060684 l -4.34712,-0.0079 z" />
    </g>
    <g
       transform="matrix(1.5404163,0,0,1.5404163,-488.64393,-29.972036)"
       style="font-style:normal;font-weight:normal;font-size:8.99625px;line-height:1.25;font-family:sans-serif;letter-spacing:1.26px;opacity:1;fill:#000000;fill-opacity:1;stroke:none;stroke-width:0.224908"
       id="text789"
       aria-label="(reuf)">
      <path
         id="path930"
         style="font-style:normal;font-variant:normal;font-weight:normal;font-stretch:normal;font-family:'Heb Tamrurim';-inkscape-font-specification:'Heb Tamrurim';fill:#000000;stroke-width:0.224908"
         d="m 432.97454,236.21156 q -1.26411,3.51242 -0.16403,7.08052 l 0.19112,0.62754 h 1.25357 l -0.0466,-0.16854 q -0.72536,-2.31453 -0.51919,-4.73289 0.1219,-1.39504 0.54478,-2.72988 l 0.0211,-0.0768 h -1.28066 z" />
      <path
         id="path932"
         style="font-style:normal;font-variant:normal;font-weight:normal;font-stretch:normal;font-family:'Heb Tamrurim';-inkscape-font-specification:'Heb Tamrurim';fill:#000000;stroke-width:0.224908"
         d="m 435.84049,237.03775 -0.006,1.231 2.45147,-0.002 0.003,4.93755 1.24756,-0.003 -0.002,-4.9195 q 0.002,-0.0286 0,-0.0587 -0.11136,-1.08954 -1.20241,-1.18134 l -2.4921,-0.005 z" />
      <path
         id="path934"
         style="font-style:normal;font-variant:normal;font-weight:normal;font-stretch:normal;font-family:'Heb Tamrurim';-inkscape-font-specification:'Heb Tamrurim';fill:#000000;stroke-width:0.224908"
         d="m 441.69953,237.03775 v 1.22649 h 3.08352 l -0.006,2.50113 q -0.0451,1.02634 -1.05794,1.19488 h -0.1851 v 1.24455 h 0.35967 q 1.845,-0.31452 2.10535,-2.16855 l -0.002,-3.9985 h -4.29797 z m -0.002,7.36344 h 1.23251 v -4.56585 h -1.23251 z" />
      <path
         id="path936"
         style="font-style:normal;font-variant:normal;font-weight:normal;font-stretch:normal;font-family:'Heb Tamrurim';-inkscape-font-specification:'Heb Tamrurim';fill:#000000;stroke-width:0.224908"
         d="m 448.16349,237.04979 -0.005,1.23401 0.94206,-0.002 v 4.92853 l 1.20392,-0.003 -0.005,-6.15802 h -2.13695 z" />
      <path
         id="path938"
         style="font-style:normal;font-variant:normal;font-weight:normal;font-stretch:normal;font-family:'Heb Tamrurim';-inkscape-font-specification:'Heb Tamrurim';fill:#000000;stroke-width:0.224908"
         d="m 452.46023,237.03925 v 1.2295 h 2.459 v 3.70655 l -2.4605,-0.005 0.003,1.22649 2.462,-0.003 q 0.0241,0.002 0.0482,0.002 1.08352,-0.0933 1.19488,-1.17532 v -4.9812 h -3.70655 z" />
      <path
         id="path940"
         style="font-style:normal;font-variant:normal;font-weight:normal;font-stretch:normal;font-family:'Heb Tamrurim';-inkscape-font-specification:'Heb Tamrurim';fill:#000000;stroke-width:0.224908"
         d="m 458.32228,243.92865 h 1.28217 q 0.51768,-1.51994 0.6471,-3.11964 0.15952,-2.16554 -0.54026,-4.21972 l -0.10684,-0.35515 h -1.28217 q 1.25809,3.8465 0,7.69451 z" />
    </g>
    <g
       transform="matrix(1.5404163,0,0,1.5404163,-488.64393,-29.972036)"
       style="font-style:normal;font-weight:normal;font-size:15.0303px;line-height:1.25;font-family:sans-serif;letter-spacing:1.54px;opacity:1;fill:#000000;fill-opacity:1;stroke:none;stroke-width:0.37576"
       id="text793"
       aria-label="ubut ,hre">
      <path
         id="path943"
         style="font-style:normal;font-variant:normal;font-weight:normal;font-stretch:normal;font-family:'Heb Tamrurim';-inkscape-font-specification:'Heb Tamrurim';fill:#000000;stroke-width:0.37576"
         d="m 441.67755,177.62494 -0.008,2.0617 1.57393,-0.003 v 8.23423 l 2.01142,-0.005 -0.008,-10.28839 h -3.57026 z" />
      <path
         id="path945"
         style="font-style:normal;font-variant:normal;font-weight:normal;font-stretch:normal;font-family:'Heb Tamrurim';-inkscape-font-specification:'Heb Tamrurim';fill:#000000;stroke-width:0.37576"
         d="m 449.30689,177.61237 0.003,2.05667 1.55382,0.0126 0.005,6.14488 -2.57964,0.005 0.005,2.0793 2.65506,0.003 q 0.0302,0 0.0629,-0.003 1.8505,-0.26149 1.93599,-2.12959 l 0.003,-8.16635 -3.64317,-0.003 z" />
      <path
         id="path947"
         style="font-style:normal;font-variant:normal;font-weight:normal;font-stretch:normal;font-family:'Heb Tamrurim';-inkscape-font-specification:'Heb Tamrurim';fill:#000000;stroke-width:0.37576"
         d="m 456.00092,177.62494 -0.008,2.0617 1.57393,-0.003 v 8.23423 l 2.01142,-0.005 -0.008,-10.28839 h -3.57026 z" />
      <path
         id="path949"
         style="font-style:normal;font-variant:normal;font-weight:normal;font-stretch:normal;font-family:'Heb Tamrurim';-inkscape-font-specification:'Heb Tamrurim';fill:#000000;stroke-width:0.37576"
         d="m 462.61198,177.61488 2.14718,3.60547 -2.04913,1.51359 -0.005,5.18442 2.06171,-0.0126 v -4.09323 l 1.04845,-0.8096 2.89392,4.91037 2.38604,-0.003 -2.12707,-3.59792 1.97873,-1.53874 0.005,-5.15676 -2.0441,-0.003 0.003,4.11335 -1.00822,0.78696 -2.9065,-4.90533 -2.38352,0.005 z" />
      <path
         id="path951"
         style="font-style:normal;font-variant:normal;font-weight:normal;font-stretch:normal;font-family:'Heb Tamrurim';-inkscape-font-specification:'Heb Tamrurim';fill:#000000;stroke-width:0.37576"
         d="m 481.52311,177.60734 v 2.0793 h 0.52297 l 0.008,6.17002 -0.73668,-0.005 -0.008,2.06924 2.81095,0.005 0.005,-8.23926 h 2.33324 v 8.2292 l 2.06422,0.003 0.003,-10.30096 -7.00224,-0.0101 z" />
      <path
         id="path953"
         style="font-style:normal;font-variant:normal;font-weight:normal;font-stretch:normal;font-family:'Heb Tamrurim';-inkscape-font-specification:'Heb Tamrurim';fill:#000000;stroke-width:0.37576"
         d="m 491.58072,177.61488 -0.0126,2.06673 1.56136,-0.005 -0.003,3.12021 2.05919,0.008 0.003,-5.18946 h -3.60797 z" />
      <path
         id="path955"
         style="font-style:normal;font-variant:normal;font-weight:normal;font-stretch:normal;font-family:'Heb Tamrurim';-inkscape-font-specification:'Heb Tamrurim';fill:#000000;stroke-width:0.37576"
         d="m 498.25551,177.60483 -0.0101,2.05667 4.09574,-0.003 0.005,8.24932 2.08433,-0.005 -0.003,-8.21914 q 0.003,-0.0478 0,-0.0981 -0.18605,-1.82033 -2.0089,-1.9737 l -4.16363,-0.008 z" />
      <path
         id="path957"
         style="font-style:normal;font-variant:normal;font-weight:normal;font-stretch:normal;font-family:'Heb Tamrurim';-inkscape-font-specification:'Heb Tamrurim';fill:#000000;stroke-width:0.37576"
         d="m 507.47926,177.60483 v 2.04913 h 5.15173 l -0.01,4.17871 q -0.0754,1.71473 -1.76753,1.99633 h -0.30926 v 2.0793 h 0.60091 q 3.08249,-0.52548 3.51746,-3.62306 l -0.003,-6.68041 h -7.18075 z m -0.003,12.30232 h 2.05919 v -7.6283 h -2.05919 z" />
    </g>
    <g
       transform="matrix(1.5404163,0,0,1.5404163,-488.64393,-29.972036)"
       style="font-style:normal;font-weight:normal;font-size:15.6927px;line-height:1.25;font-family:sans-serif;letter-spacing:1.2px;opacity:1;fill:#000000;fill-opacity:1;stroke:none;stroke-width:0.39232"
       id="text797"
       aria-label="vbbgr">
      <path
         id="path960"
         style="font-style:normal;font-variant:normal;font-weight:normal;font-stretch:normal;font-family:'Heb Tamrurim';-inkscape-font-specification:'Heb Tamrurim';fill:#000000;stroke-width:0.39232"
         d="m 471.54936,211.53387 -0.003,2.15256 5.36303,0.003 -0.005,8.59449 2.16831,-0.003 -0.003,-10.74181 -7.52084,-0.005 z m -0.005,4.84064 v 5.90904 l 2.14994,-0.008 -0.003,-5.90905 -2.14732,0.008 z" />
      <path
         id="path962"
         style="font-style:normal;font-variant:normal;font-weight:normal;font-stretch:normal;font-family:'Heb Tamrurim';-inkscape-font-specification:'Heb Tamrurim';fill:#000000;stroke-width:0.39232"
         d="m 482.91026,211.53387 0.003,2.14731 1.62229,0.0131 0.005,6.41568 -2.69332,0.005 0.005,2.17094 2.77208,0.003 q 0.0315,0 0.0656,-0.003 1.93206,-0.27301 2.02131,-2.22344 l 0.003,-8.52625 -3.80374,-0.003 z" />
      <path
         id="path964"
         style="font-style:normal;font-variant:normal;font-weight:normal;font-stretch:normal;font-family:'Heb Tamrurim';-inkscape-font-specification:'Heb Tamrurim';fill:#000000;stroke-width:0.39232"
         d="m 490.54672,211.53387 0.003,2.14731 1.62229,0.0131 0.005,6.41568 -2.69332,0.005 0.005,2.17094 2.77207,0.003 q 0.0315,0 0.0656,-0.003 1.93206,-0.27301 2.02131,-2.22344 l 0.003,-8.52625 -3.80373,-0.003 z" />
      <path
         id="path966"
         style="font-style:normal;font-variant:normal;font-weight:normal;font-stretch:normal;font-family:'Heb Tamrurim';-inkscape-font-specification:'Heb Tamrurim';fill:#000000;stroke-width:0.39232"
         d="m 497.12002,211.57325 1.7063,8.59187 -1.6958,0.005 0.005,2.13156 h 4.98765 q 1.73517,-0.17851 2.10531,-1.88218 l 0.97128,-8.84388 -2.15782,-0.005 -0.91877,8.59975 -1.06841,-0.003 -1.66167,-8.59712 -2.27332,0.003 z" />
      <path
         id="path968"
         style="font-style:normal;font-variant:normal;font-weight:normal;font-stretch:normal;font-family:'Heb Tamrurim';-inkscape-font-specification:'Heb Tamrurim';fill:#000000;stroke-width:0.39232"
         d="m 507.98521,211.52599 -0.0105,2.14732 4.27625,-0.003 0.005,8.61287 2.17619,-0.005 -0.003,-8.58137 q 0.003,-0.0499 0,-0.10238 -0.19425,-1.90055 -2.09743,-2.06068 l -4.34713,-0.008 z" />
    </g>
    <g
       transform="matrix(1.5404163,0,0,1.5404163,-488.64393,-29.972036)"
       style="font-style:normal;font-weight:normal;font-size:15.6927px;line-height:0.71;font-family:sans-serif;text-align:end;letter-spacing:1.2px;text-anchor:end;opacity:1;fill:#000000;fill-opacity:1;stroke:none;stroke-width:0.39232"
       id="text801"
       aria-label=",ukhkd
vnhse">
      <path
         id="path971"
         style="font-style:normal;font-variant:normal;font-weight:normal;font-stretch:normal;font-family:'Heb Tamrurim';-inkscape-font-specification:'Heb Tamrurim';text-align:end;text-anchor:end;fill:#000000;stroke-width:0.39232"
         d="m 465.28412,234.11898 v 2.17094 h 0.54601 l 0.008,6.44193 -0.76915,-0.005 -0.008,2.16044 2.93484,0.005 0.005,-8.60237 h 2.43607 v 8.59187 l 2.15519,0.003 0.003,-10.75494 -7.31083,-0.0105 z" />
      <path
         id="path973"
         style="font-style:normal;font-variant:normal;font-weight:normal;font-stretch:normal;font-family:'Heb Tamrurim';-inkscape-font-specification:'Heb Tamrurim';text-align:end;text-anchor:end;fill:#000000;stroke-width:0.39232"
         d="m 475.37185,234.13736 -0.008,2.15256 1.64329,-0.003 v 8.59713 l 2.10006,-0.005 -0.008,-10.74181 h -3.72761 z" />
      <path
         id="path975"
         style="font-style:normal;font-variant:normal;font-weight:normal;font-stretch:normal;font-family:'Heb Tamrurim';-inkscape-font-specification:'Heb Tamrurim';text-align:end;text-anchor:end;fill:#000000;stroke-width:0.39232"
         d="m 481.86639,231.98742 v 4.29725 l 4.83802,0.008 v 4.59651 q -0.008,0.31501 -0.11288,0.61427 -0.77177,1.6958 -2.58045,1.25216 l -0.005,2.14731 q 0.38326,0.0735 0.7744,0.0735 3.7381,-0.35963 4.07936,-4.09774 l -0.008,-6.73332 -4.79601,0.005 -0.005,-2.15781 -2.18407,-0.005 z" />
      <path
         id="path977"
         style="font-style:normal;font-variant:normal;font-weight:normal;font-stretch:normal;font-family:'Heb Tamrurim';-inkscape-font-specification:'Heb Tamrurim';text-align:end;text-anchor:end;fill:#000000;stroke-width:0.39232"
         d="m 491.63081,234.12686 -0.0131,2.15781 1.63017,-0.005 -0.003,3.25772 2.14994,0.008 0.003,-5.41815 h -3.76699 z" />
      <path
         id="path979"
         style="font-style:normal;font-variant:normal;font-weight:normal;font-stretch:normal;font-family:'Heb Tamrurim';-inkscape-font-specification:'Heb Tamrurim';text-align:end;text-anchor:end;fill:#000000;stroke-width:0.39232"
         d="m 498.1814,231.98742 v 4.29725 l 4.83802,0.008 v 4.59651 q -0.008,0.31501 -0.11288,0.61427 -0.77177,1.6958 -2.58045,1.25216 l -0.005,2.14731 q 0.38326,0.0735 0.7744,0.0735 3.7381,-0.35963 4.07936,-4.09774 l -0.008,-6.73332 -4.79601,0.005 -0.005,-2.15781 -2.18407,-0.005 z" />
      <path
         id="path981"
         style="font-style:normal;font-variant:normal;font-weight:normal;font-stretch:normal;font-family:'Heb Tamrurim';-inkscape-font-specification:'Heb Tamrurim';text-align:end;text-anchor:end;fill:#000000;stroke-width:0.39232"
         d="m 508.99586,234.12161 -0.003,2.11581 2.28119,0.0105 0.58277,5.3709 -2.37045,-0.003 -1.55404,3.25772 2.42294,0.003 1.50942,-3.21834 0.33601,3.22097 h 2.18931 l -1.10778,-10.75756 h -4.28674 z" />
      <path
         id="path983"
         style="font-style:normal;font-variant:normal;font-weight:normal;font-stretch:normal;font-family:'Heb Tamrurim';-inkscape-font-specification:'Heb Tamrurim';text-align:end;text-anchor:end;fill:#000000;stroke-width:0.39232"
         d="m 469.58107,245.80246 -0.003,2.15256 5.36302,0.003 -0.005,8.5945 2.16832,-0.003 -0.003,-10.7418 -7.52084,-0.005 z m -0.005,4.84063 v 5.90905 l 2.14994,-0.008 -0.003,-5.90904 -2.14731,0.008 z" />
      <path
         id="path985"
         style="font-style:normal;font-variant:normal;font-weight:normal;font-stretch:normal;font-family:'Heb Tamrurim';-inkscape-font-specification:'Heb Tamrurim';text-align:end;text-anchor:end;fill:#000000;stroke-width:0.39232"
         d="m 479.87881,245.80508 v 2.18669 l 0.84003,-0.005 0.008,8.57612 2.15519,-0.005 0.008,-8.56562 h 3.42835 v 6.37631 l -1.63279,-0.003 v 2.19981 l 3.79323,-0.003 -0.005,-10.73918 -3.57273,0.005 -2.02656,1.05528 0.003,-1.07891 h -2.99784 z" />
      <path
         id="path987"
         style="font-style:normal;font-variant:normal;font-weight:normal;font-stretch:normal;font-family:'Heb Tamrurim';-inkscape-font-specification:'Heb Tamrurim';text-align:end;text-anchor:end;fill:#000000;stroke-width:0.39232"
         d="m 491.26767,245.80508 -0.0131,2.15781 1.63017,-0.005 -0.003,3.25772 2.14993,0.008 0.003,-5.41816 h -3.76699 z" />
      <path
         id="path989"
         style="font-style:normal;font-variant:normal;font-weight:normal;font-stretch:normal;font-family:'Heb Tamrurim';-inkscape-font-specification:'Heb Tamrurim';text-align:end;text-anchor:end;fill:#000000;stroke-width:0.39232"
         d="m 497.82089,245.79458 -0.003,2.13944 4.46788,-0.008 -0.008,8.62862 2.20506,-0.003 0.0157,-8.60237 0.81377,-0.0184 0.008,-2.13944 -7.49984,0.003 z" />
      <path
         id="path991"
         style="font-style:normal;font-variant:normal;font-weight:normal;font-stretch:normal;font-family:'Heb Tamrurim';-inkscape-font-specification:'Heb Tamrurim';text-align:end;text-anchor:end;fill:#000000;stroke-width:0.39232"
         d="m 508.09323,245.79458 v 2.13944 h 5.37878 l -0.0105,4.36287 q -0.0788,1.7903 -1.84543,2.08431 h -0.32288 v 2.17094 h 0.62739 q 3.21834,-0.54864 3.67248,-3.78273 l -0.003,-6.97483 h -7.49722 z m -0.003,12.84449 h 2.14993 v -7.96448 h -2.14993 z" />
    </g>
    <g
       transform="matrix(1.5404163,0,0,1.5404163,-488.64393,-29.972036)"
       style="font-style:normal;font-weight:normal;font-size:15.6927px;line-height:1.25;font-family:sans-serif;letter-spacing:0.92px;opacity:1;fill:#000000;fill-opacity:1;stroke:none;stroke-width:0.39232"
       id="text807"
       aria-label="tcx rpf">
      <path
         id="path994"
         style="font-style:normal;font-variant:normal;font-weight:normal;font-stretch:normal;font-family:'Heb Tamrurim';-inkscape-font-specification:'Heb Tamrurim';fill:#000000;stroke-width:0.39232"
         d="m 448.41405,268.33561 2.24181,3.76436 -2.13943,1.5803 -0.005,5.4129 2.15256,-0.0131 v -4.27363 l 1.09465,-0.84527 3.02147,5.12677 2.49119,-0.003 -2.22081,-3.75649 2.06593,-1.60654 0.005,-5.38403 -2.13418,-0.003 0.003,4.29463 -1.05265,0.82164 -3.03459,-5.12152 -2.48857,0.005 z" />
      <path
         id="path996"
         style="font-style:normal;font-variant:normal;font-weight:normal;font-stretch:normal;font-family:'Heb Tamrurim';-inkscape-font-specification:'Heb Tamrurim';fill:#000000;stroke-width:0.39232"
         d="m 460.06212,268.33561 0.005,2.13944 4.23162,-0.005 -0.005,6.45506 h -4.53876 l 0.003,2.16306 h 7.54184 v -2.16569 h -0.86628 v -8.58662 h -6.37105 z" />
      <path
         id="path998"
         style="font-style:normal;font-variant:normal;font-weight:normal;font-stretch:normal;font-family:'Heb Tamrurim';-inkscape-font-specification:'Heb Tamrurim';fill:#000000;stroke-width:0.39232"
         d="m 469.77797,268.33561 0.008,2.13681 h 0.72977 l 0.7744,8.59188 h 3.95074 q 1.62754,-0.10238 2.02655,-1.68268 l 1.08416,-9.05388 -8.5735,0.008 z m 2.99259,2.14206 3.13696,-0.008 -0.77702,6.45506 -1.7903,-0.008 -0.56964,-6.43931 z m 0,0 h -0.021 l 0.021,-0.0105 z" />
      <path
         id="path1000"
         style="font-style:normal;font-variant:normal;font-weight:normal;font-stretch:normal;font-family:'Heb Tamrurim';-inkscape-font-specification:'Heb Tamrurim';fill:#000000;stroke-width:0.39232"
         d="m 487.65832,268.32511 -0.0105,2.14731 4.27625,-0.003 0.005,8.61287 2.17619,-0.005 -0.003,-8.58137 q 0.003,-0.0499 0,-0.10238 -0.19426,-1.90055 -2.09743,-2.06068 l -4.34713,-0.008 z" />
      <path
         id="path1002"
         style="font-style:normal;font-variant:normal;font-weight:normal;font-stretch:normal;font-family:'Heb Tamrurim';-inkscape-font-specification:'Heb Tamrurim';fill:#000000;stroke-width:0.39232"
         d="m 496.61382,268.32774 0.008,6.12167 3.20785,0.005 0.008,-2.17881 -1.08415,0.003 0.005,-1.80606 3.7696,0.003 0.008,6.44456 -5.93792,0.005 v 2.15519 h 5.96942 q 0.0761,0.003 0.14963,-0.003 1.85855,-0.27301 1.93731,-2.14994 l -0.008,-8.59974 h -8.03273 z" />
      <path
         id="path1004"
         style="font-style:normal;font-variant:normal;font-weight:normal;font-stretch:normal;font-family:'Heb Tamrurim';-inkscape-font-specification:'Heb Tamrurim';fill:#000000;stroke-width:0.39232"
         d="m 507.14473,268.32774 v 2.14468 h 4.28938 v 6.46556 l -4.292,-0.008 0.005,2.13944 4.29462,-0.005 q 0.042,0.003 0.084,0.003 1.89005,-0.16275 2.08431,-2.05018 v -8.689 h -6.46557 z" />
    </g>
    <g
       transform="matrix(1.5241028,0,0,1.5241028,-35.953297,-111.94345)"
       id="g1128"
       style="opacity:1">
      <g
         id="g1120"
         transform="matrix(0.53507727,0,0,0.53507727,-121.36708,165.06771)"
         style="opacity:1">
        <path
           d="m 406.22523,12.81845 h 44.03499 c 1.92934,0 3.48256,1.553221 3.48256,3.482556 v 44.034995 c 0,1.92934 -1.55322,3.48256 -3.48256,3.48256 h -44.03499 c -1.92934,0 -3.48256,-1.55322 -3.48256,-3.48256 V 16.301006 c 0,-1.929335 1.55322,-3.482556 3.48256,-3.482556 z"
           style="opacity:1;fill:#000000;stroke-width:0.23556"
           id="path1116" />
        <path
           d="m 406.67869,14.559728 h 43.12807 c 1.21589,0 2.19474,0.978855 2.19474,2.194744 v 43.128069 c 0,1.21588 -0.97885,2.19474 -2.19474,2.19474 h -43.12807 c -1.21588,0 -2.19474,-0.97886 -2.19474,-2.19474 V 16.754472 c 0,-1.215889 0.97886,-2.194744 2.19474,-2.194744 z"
           style="opacity:1;fill:#ffffff;fill-opacity:1;stroke-width:0.219474"
           id="path1118" />
      </g>
    </g>
    <path
       sodipodi:nodetypes="ccccccccccccccccccccccscccsccccccc"
       d="m 121.90253,153.83393 c -0.0809,5.3e-4 -0.16185,0.005 -0.24254,0.0108 -0.003,1.7e-4 -0.006,5.2e-4 -0.009,6.9e-4 -1.77526,0.0226 -3.20345,1.45639 -3.20336,3.21865 0,0.1814 0.0139,0.35909 0.0434,0.53231 v 0 l 2.05856,15.22463 v 3.4e-4 l 0.003,-3.4e-4 h 12.29371 l 5.80648,10.2966 5.62643,-3.07461 -1.12543,-2.05926 -3.48565,1.90504 -5.35059,-9.4878 h -11.77092 l -0.29486,-2.18018 h 8.89095 v -2.42035 h -9.21808 l -0.75991,-5.61964 c 0.2492,0.0608 0.50476,0.0915 0.76127,0.0917 1.77798,0 3.21933,-1.44134 3.21933,-3.21933 0,-1.77798 -1.44135,-3.21933 -3.21933,-3.21932 -0.008,-3e-5 -0.0154,-3e-5 -0.0231,0 z m -4.17116,13.60052 c -3.02453,2.00439 -4.84311,5.39129 -4.84308,9.0197 3e-5,5.97593 4.84448,10.82039 10.82042,10.82042 4.85802,1.1e-4 9.12061,-3.23746 10.424,-7.91736 l -1.83877,-2.18766 c -0.37222,4.46499 -4.10475,7.89934 -8.58523,7.89936 -4.75774,-1.6e-4 -8.61461,-3.85702 -8.61476,-8.61476 0,-2.46473 1.05569,-4.81142 2.9,-6.44648 z"
       style="opacity:1;fill:#000000;stroke-width:0.173391"
       id="path1038" />
    <g
       style="opacity:1"
       id="g1136"
       transform="matrix(1.5241028,0,0,1.5241028,-35.953297,109.86417)">
      <g
         style="opacity:1"
         transform="matrix(0.53507727,0,0,0.53507727,-121.36708,165.06771)"
         id="g1134">
        <path
           id="path1130"
           style="opacity:1;fill:#000000;stroke-width:0.23556"
           d="m 406.22523,12.81845 h 44.03499 c 1.92934,0 3.48256,1.553221 3.48256,3.482556 v 44.034995 c 0,1.92934 -1.55322,3.48256 -3.48256,3.48256 h -44.03499 c -1.92934,0 -3.48256,-1.55322 -3.48256,-3.48256 V 16.301006 c 0,-1.929335 1.55322,-3.482556 3.48256,-3.482556 z" />
        <path
           id="path1132"
           style="opacity:1;fill:#ffffff;fill-opacity:1;stroke-width:0.219474"
           d="m 406.67869,14.559728 h 43.12807 c 1.21589,0 2.19474,0.978855 2.19474,2.194744 v 43.128069 c 0,1.21588 -0.97885,2.19474 -2.19474,2.19474 h -43.12807 c -1.21588,0 -2.19474,-0.97886 -2.19474,-2.19474 V 16.754472 c 0,-1.215889 0.97886,-2.194744 2.19474,-2.194744 z" />
      </g>
    </g>
    <path
       id="path1138"
       style="opacity:1;fill:#000000;stroke-width:0.173391"
       d="m 121.90253,375.64156 c -0.0809,5.2e-4 -0.16185,0.005 -0.24254,0.0108 -0.003,1.7e-4 -0.006,5.2e-4 -0.009,6.9e-4 -1.77526,0.0226 -3.20345,1.45639 -3.20336,3.21866 0,0.1814 0.0139,0.35908 0.0434,0.5323 v 0 l 2.05856,15.22463 v 3.4e-4 l 0.003,-3.4e-4 h 12.29371 l 5.80648,10.29661 5.62643,-3.07461 -1.12543,-2.05926 -3.48565,1.90503 -5.35059,-9.48779 h -11.77092 l -0.29486,-2.18019 h 8.89095 v -2.42034 h -9.21808 l -0.75991,-5.61964 c 0.2492,0.0608 0.50476,0.0915 0.76127,0.0917 1.77798,0 3.21933,-1.44133 3.21933,-3.21933 0,-1.77798 -1.44135,-3.21933 -3.21933,-3.21932 -0.008,-3e-5 -0.0154,-3e-5 -0.0231,0 z m -4.17116,13.60052 c -3.02453,2.00439 -4.84311,5.39129 -4.84308,9.01969 3e-5,5.97594 4.84448,10.82039 10.82042,10.82042 4.85802,1.1e-4 9.12061,-3.23746 10.424,-7.91735 l -1.83877,-2.18767 c -0.37222,4.46499 -4.10475,7.89935 -8.58523,7.89936 -4.75774,-1.5e-4 -8.61461,-3.85701 -8.61476,-8.61476 0,-2.46473 1.05569,-4.81141 2.9,-6.44647 z"
       sodipodi:nodetypes="ccccccccccccccccccccccscccsccccccc" />
  </g>
</svg>
