<?xml version="1.0" encoding="UTF-8" standalone="no"?>
<svg
   inkscape:version="1.1.2 (b8e25be833, 2022-02-05)"
   sodipodi:docname="20220501170259!Israel_road_sign_230a.svg"
   viewBox="0 0 399.99999 400.00002"
   height="400"
   width="400"
   id="svg10224"
   version="1.1"
   xmlns:inkscape="http://www.inkscape.org/namespaces/inkscape"
   xmlns:sodipodi="http://sodipodi.sourceforge.net/DTD/sodipodi-0.dtd"
   xmlns="http://www.w3.org/2000/svg"
   xmlns:svg="http://www.w3.org/2000/svg"
   xmlns:rdf="http://www.w3.org/1999/02/22-rdf-syntax-ns#"
   xmlns:cc="http://creativecommons.org/ns#"
   xmlns:dc="http://purl.org/dc/elements/1.1/">
  <metadata
     id="metadata10230">
    <rdf:RDF>
      <cc:Work
         rdf:about="">
        <dc:format>image/svg+xml</dc:format>
        <dc:type
           rdf:resource="http://purl.org/dc/dcmitype/StillImage" />
      </cc:Work>
    </rdf:RDF>
  </metadata>
  <defs
     id="defs10228" />
  <sodipodi:namedview
     inkscape:document-rotation="0"
     inkscape:snap-global="true"
     inkscape:bbox-nodes="true"
     inkscape:snap-bbox-edge-midpoints="true"
     inkscape:snap-bbox="true"
     inkscape:snap-smooth-nodes="true"
     inkscape:snap-intersection-paths="true"
     inkscape:guide-bbox="true"
     inkscape:pagecheckerboard="true"
     inkscape:current-layer="svg10224"
     inkscape:window-maximized="1"
     inkscape:window-y="-9"
     inkscape:window-x="-9"
     inkscape:cy="-75.660425"
     inkscape:cx="-170.41273"
     inkscape:zoom="0.70710678"
     showguides="true"
     showgrid="false"
     id="namedview10226"
     inkscape:window-height="1001"
     inkscape:window-width="1920"
     inkscape:pageshadow="2"
     inkscape:pageopacity="0"
     guidetolerance="10"
     gridtolerance="10"
     objecttolerance="10"
     borderopacity="1"
     bordercolor="#666666"
     pagecolor="#ffffff"
     inkscape:snap-bbox-midpoints="true" />
  <path
     id="path3323"
     style="fill:#070fdb;fill-opacity:1;stroke:none;stroke-width:23.9727;stroke-miterlimit:4;stroke-dasharray:none;stroke-opacity:1"
     d="M 0,0 V 400 H 400 V 0 Z"
     inkscape:connector-curvature="0"
     sodipodi:nodetypes="ccccc" />
  <path
     id="path3268"
     style="display:inline;opacity:1;fill:#ffffff;stroke-width:1.35106"
     d="m 171.17789,95.534457 -3.58114,23.381823 a 55.091958,55.091958 0 0 1 5.28911,0.63894 l 3.11987,-23.540786 z m 10.61563,0 -3.39102,25.248753 a 55.091958,55.091958 0 0 1 40.3494,53.08443 55.091958,55.091958 0 0 1 -54.87032,55.09161 l -10.07333,75.02319 H 268.64476 L 242.59189,95.534457 Z m 65.62309,0 28.46836,208.931073 H 286.5006 L 253.69062,95.534457 Z m -48.9672,1.346434 h 4.69382 l -0.42699,6.314529 h -4.69072 z m 22.77718,0.09974 h 4.59721 l 0.72307,6.457889 h -4.92133 z M 197.8697,112.78877 h 4.70628 l -0.43634,11.88727 h -4.96809 z m 24.03945,0 h 4.59721 l 0.80723,11.88727 h -4.92133 z m -58.99999,11.95895 a 49.443302,49.443302 0 0 0 -49.40977,49.44405 49.443302,49.443302 0 0 0 49.44405,49.44094 49.443302,49.443302 0 0 0 49.44405,-49.44094 49.443302,49.443302 0 0 0 -49.44405,-49.44405 49.443302,49.443302 0 0 0 -0.0343,0 z m 0.0343,4.94315 a 44.49897,44.49897 0 0 1 44.50091,44.5009 44.49897,44.49897 0 0 1 -44.5009,44.49779 44.49897,44.49897 0 0 1 -44.49779,-44.49779 44.49897,44.49897 0 0 1 44.49779,-44.5009 z m 60.21553,5.0616 h 4.60033 l 0.80411,13.64823 h -4.91823 z m -85.5422,19.52642 v 42.2132 h 7.0376 v -36.05763 h 22.01357 c 2.48517,0.24281 3.10672,2.14365 3.49076,4.25435 v 17.73117 h 7.03451 v -17.55351 c -0.7199,-6.54984 -4.12061,-10.19615 -10.52527,-10.58758 z m 48.54643,0 v 31.80328 c -0.38334,2.11 -1.0056,4.00843 -3.49076,4.25124 H 160.6589 v -22.16007 h -7.0345 v 28.31875 h 29.04807 c 6.40466,-0.3908 9.80536,-4.03764 10.52525,-10.58758 v -31.62562 z m 38.3609,6.57944 h 4.89019 l 0.8571,16.03879 h -5.23302 z m 1.19683,28.12864 h 5.09277 l 1.24981,19.02774 h -5.45118 z m -33.4832,33.86345 h 6.04026 l -0.48001,20.3056 h -6.4205 z m 35.10392,0 h 5.4356 l 1.33085,20.3056 h -5.81585 z m -76.36963,4.62836 -11.64104,76.02056 h 9.16946 l 9.91437,-74.79256 a 55.091958,55.091958 0 0 1 -7.44279,-1.228 z m 39.71358,31.19863 h 6.087 l -0.49556,20.7326 h -6.49841 z m 38.1926,0 h 5.84702 l 1.4337,20.7326 h -6.25843 z m -40.10006,38.69752 h 7.00022 l -0.36154,6.35193 h -7.26515 z m 41.6148,0 h 7.00333 l 0.54231,6.35193 h -7.26824 z" />
  <path
     id="path2532"
     style="display:inline;fill:#ffffff;stroke-width:1.37953;stroke-linecap:round;stroke-linejoin:round;fill-opacity:1"
     d="M 9.4082031 9.4042969 L 9.4082031 390.5918 L 390.5918 390.5918 L 390.5918 9.4042969 L 9.4082031 9.4042969 z M 20.441406 20.441406 L 379.55859 20.441406 L 379.55859 379.55859 L 20.441406 379.55859 L 20.441406 20.441406 z " />
  <path
     sodipodi:nodetypes="ccccccc"
     d="M 335.25586,20.441406 20.441406,339.77539 v 39.7832 H 60.914062 L 379.55859,56.341797 V 20.441406 Z"
     style="fill:#000000;stroke-width:1.58249"
     id="rect3339" />
</svg>
