<?xml version="1.0" encoding="UTF-8" standalone="no"?>
<svg
   xmlns:dc="http://purl.org/dc/elements/1.1/"
   xmlns:cc="http://creativecommons.org/ns#"
   xmlns:rdf="http://www.w3.org/1999/02/22-rdf-syntax-ns#"
   xmlns:svg="http://www.w3.org/2000/svg"
   xmlns="http://www.w3.org/2000/svg"
   xmlns:sodipodi="http://sodipodi.sourceforge.net/DTD/sodipodi-0.dtd"
   xmlns:inkscape="http://www.inkscape.org/namespaces/inkscape"
   version="1.1"
   id="Layer_1"
   x="0px"
   y="0px"
   width="377.95276"
   height="377.95276"
   viewBox="0 0 377.95276 377.95276"
   enable-background="new 0 0 610 600"
   xml:space="preserve"
   sodipodi:docname="Israel_road_sign_211.svg"
   inkscape:version="1.0 (4035a4fb49, 2020-05-01)"><g
   transform="rotate(90,188.97638,188.97638)"
   id="g4714"><g
     id="g1158"
     transform="matrix(-1,0,0,1,377.95276,0)"
     style="opacity:1"><circle
       fill="#0099BB"
       cx="188.97638"
       cy="188.97638"
       r="188.97638"
       id="circle2"
       style="fill:#070fdb;fill-opacity:1;stroke-width:0.646108" /><circle
       fill="none"
       stroke="#ffffff"
       stroke-width="4.46784"
       cx="188.97702"
       cy="188.97638"
       r="181.69217"
       id="circle36"
       style="opacity:1" /></g><path
     id="rect3691-0"
     style="opacity:1;fill:#ffffff;stroke-width:1.96604"
     d="m 188.97478,21.38689 -60.10506,96.90469 h 45.76931 L 155.6207,352.789 h 66.71135 L 200.59587,118.29158 h 48.48717 z" /></g><metadata
   id="metadata75"><rdf:RDF><cc:Work
       rdf:about=""><dc:format>image/svg+xml</dc:format><dc:type
         rdf:resource="http://purl.org/dc/dcmitype/StillImage" /></cc:Work></rdf:RDF></metadata><defs
   id="defs41" /><sodipodi:namedview
   id="namedview39"
   pagecolor="#ffffff"
   bordercolor="#666666"
   borderopacity="1.0"
   inkscape:pageshadow="2"
   inkscape:pageopacity="0.0"
   inkscape:pagecheckerboard="0"
   showgrid="false"
   inkscape:zoom="1"
   inkscape:cx="68.162369"
   inkscape:cy="84.400677"
   inkscape:window-width="1920"
   inkscape:window-height="1001"
   inkscape:window-x="-9"
   inkscape:window-y="-9"
   inkscape:window-maximized="1"
   inkscape:current-layer="Layer_1"
   inkscape:object-paths="false"
   inkscape:snap-intersection-paths="true"
   inkscape:snap-smooth-nodes="true"
   inkscape:snap-bbox="true"
   inkscape:snap-bbox-edge-midpoints="true"
   inkscape:bbox-nodes="true"
   showguides="true"
   inkscape:guide-bbox="true"
   inkscape:snap-global="false"
   inkscape:document-rotation="0" />

<g
   id="g34">
	<g
   id="g24">
		<g
   id="g6">
			<path
   fill="#ffffff"
   d="m 355.545,329.729 c 0.008,-50.328 40.785,-91.109 91.111,-91.119 v 0 10.549 10.548 c -19.371,0.006 -36.809,7.823 -49.512,20.508 v 0 c -12.686,12.703 -20.503,30.143 -20.505,49.51 v 0 c 0.002,19.363 7.817,36.805 20.505,49.506 v 0 c 12.703,12.688 30.141,20.504 49.512,20.508 v 0 c 19.365,-0.008 36.805,-7.82 49.504,-20.508 v 0 c 12.688,-12.701 20.507,-30.143 20.51,-49.506 v 0 c -0.008,-19.367 -7.822,-36.807 -20.51,-49.51 v 0 c -12.699,-12.686 -30.139,-20.506 -49.504,-20.508 v 0 -10.548 -10.549 c 50.324,0.01 91.106,40.791 91.113,91.119 v 0 c -0.007,50.322 -40.789,91.107 -91.113,91.113 v 0 c -50.326,-0.01 -91.103,-40.795 -91.111,-91.113 z"
   id="path4"
   style="display:none" />
		</g>
		<g
   id="g10">
			
		</g>
		<g
   id="g14">
			
		</g>
		<g
   id="g18">
			
		</g>
		<g
   id="g22">
			
		</g>
	</g>
	<g
   id="g30">
		
		
	</g>
	
</g>

</svg>
