<?xml version="1.0" encoding="UTF-8" standalone="no"?>
<svg
   inkscape:version="1.2.2 (732a01da63, 2022-12-09)"
   sodipodi:docname="Israel_road_sign_504.svg"
   viewBox="0 0 400.01999 400.02127"
   height="400.02127"
   width="400.01999"
   id="svg15165"
   version="1.1"
   xml:space="preserve"
   xmlns:inkscape="http://www.inkscape.org/namespaces/inkscape"
   xmlns:sodipodi="http://sodipodi.sourceforge.net/DTD/sodipodi-0.dtd"
   xmlns="http://www.w3.org/2000/svg"
   xmlns:svg="http://www.w3.org/2000/svg"
   xmlns:rdf="http://www.w3.org/1999/02/22-rdf-syntax-ns#"
   xmlns:cc="http://creativecommons.org/ns#"
   xmlns:dc="http://purl.org/dc/elements/1.1/"><metadata
     id="metadata15171"><rdf:RDF><cc:Work
         rdf:about=""><dc:format>image/svg+xml</dc:format><dc:type
           rdf:resource="http://purl.org/dc/dcmitype/StillImage" /><dc:title /></cc:Work></rdf:RDF></metadata><defs
     id="defs15169" /><sodipodi:namedview
     inkscape:current-layer="g15173"
     inkscape:window-maximized="1"
     inkscape:window-y="-9"
     inkscape:window-x="-9"
     inkscape:cy="339.03614"
     inkscape:cx="-273.25301"
     inkscape:zoom="0.69166667"
     showgrid="false"
     id="namedview15167"
     inkscape:window-height="991"
     inkscape:window-width="1920"
     inkscape:pageshadow="2"
     inkscape:pageopacity="0"
     guidetolerance="10"
     gridtolerance="10"
     objecttolerance="10"
     borderopacity="1"
     bordercolor="#666666"
     pagecolor="#ffffff"
     inkscape:showpageshadow="2"
     inkscape:pagecheckerboard="0"
     inkscape:deskcolor="#d1d1d1" /><g
     transform="translate(-33.591464,-53.526567)"
     id="g15173"
     inkscape:label="Image"
     inkscape:groupmode="layer"><path
       id="path3323"
       style="fill:#c0111e;fill-opacity:1;stroke:none;stroke-width:0.02;stroke-miterlimit:4;stroke-dasharray:none;stroke-opacity:1;paint-order:stroke fill markers"
       d="M 33.601464,53.536567 V 453.53783 H 433.60146 V 53.536567 Z"
       inkscape:connector-curvature="0"
       sodipodi:nodetypes="ccccc" /><path
       style="fill:#ffffff;fill-opacity:1;stroke:none;stroke-width:21.1611;stroke-miterlimit:4;stroke-dasharray:none;stroke-opacity:1"
       d="M 43.006477,62.941583 V 444.12746 H 424.19236 V 62.941583 Z"
       id="path3325" /><path
       style="fill:#ffff00;fill-opacity:1;stroke:none;stroke-width:21.1611;stroke-miterlimit:4;stroke-dasharray:none;stroke-opacity:1"
       d="M 54.043785,73.978883 H 413.16084 V 433.09595 H 54.043785 Z"
       id="path26680" /><path
       id="rect26173"
       style="opacity:1;fill:#c0111e;fill-opacity:1;stroke-width:0.0359248;paint-order:stroke fill markers"
       d="M 234.05068,109.73188 A 143.91138,143.91138 0 0 0 95.101464,217.07368 H 54.04287 v 73.13867 H 95.101464 A 143.91138,143.91138 0 0 0 234.05068,397.55415 143.91138,143.91138 0 0 0 372.9999,290.21235 h 40.16016 V 217.07368 H 373.20693 A 143.91138,143.91138 0 0 0 234.05068,109.73188 Z m 0.46485,19.49609 h 0.002 c 5.33945,0 9.63672,4.30116 9.63672,9.64063 v 67.40234 8.76563 15.72656 c 0,2.69501 2.1663,4.86328 4.86133,4.86328 2.69497,0 4.86718,-2.16827 4.86718,-4.86328 v -15.72656 -8.76563 -48.71679 c 0,-5.33946 4.29725,-9.63868 9.63672,-9.63868 5.33942,0 9.63867,4.29922 9.63867,9.63868 v 54.54492 2.9375 35.96484 c 0,2.0219 1.62654,3.65234 3.64844,3.65234 2.0219,0 3.65039,-1.63044 3.65039,-3.65234 0,0 0.078,-10.15642 0.98828,-15.12695 1.63914,-8.95019 1.35296,-19.8754 7.98829,-26.10156 3.9458,-3.70255 15.79296,-3.75391 15.79296,-3.75391 0,0 -3.88284,16.34834 -4.88671,24.67187 -0.94774,7.85926 -1.0586,23.72657 -1.0586,23.72657 0,0 2.0592,7.04535 2.51172,10.67187 0.49168,3.94063 0.63018,7.96395 0.20313,11.91211 -0.64393,5.95309 -2.07232,11.85853 -4.13868,17.47852 -1.31306,3.57114 -5.1914,10.16601 -5.1914,10.16601 v 65.07031 c 0,0 -23.52302,-4.96004 -34.375,-9.90234 -8.7687,-3.9935 -24.26953,-15.70117 -24.26953,-15.70117 0,0 -17.7144,11.85069 -27.42383,16.10742 -9.96246,4.36768 -31.22266,9.49609 -31.22266,9.49609 v -147.0957 -7.58398 -37.97461 c 0,-4.46828 3.60003,-8.06446 8.06836,-8.06446 4.46833,0 8.0625,3.59618 8.0625,8.06446 v 34.83008 3.14453 17.0664 c 0,1.95273 1.57268,3.52344 3.52539,3.52344 1.95269,0 3.52344,-1.57071 3.52344,-3.52344 v -17.0664 -3.14453 -63.07422 c 0,-5.33942 4.29729,-9.63867 9.63672,-9.63867 5.33946,0 9.64062,4.29925 9.64062,9.63867 v 63.00195 c 0,0.0242 -0.004,0.0479 -0.004,0.0723 V 232.103 c 0,1.95273 1.57073,3.52344 3.52343,3.52344 1.9527,0 3.52539,-1.57071 3.52539,-3.52344 v -17.0664 -3.14453 -73.02344 c 0,-5.33947 4.29923,-9.64063 9.63868,-9.64063 z" /></g></svg>
