<?xml version="1.0" encoding="UTF-8" standalone="no"?>
<!-- Generator: Adobe Illustrator 13.0.0, SVG Export Plug-In . SVG Version: 6.00 Build 14948)  -->

<svg
   xmlns:dc="http://purl.org/dc/elements/1.1/"
   xmlns:cc="http://creativecommons.org/ns#"
   xmlns:rdf="http://www.w3.org/1999/02/22-rdf-syntax-ns#"
   xmlns:svg="http://www.w3.org/2000/svg"
   xmlns="http://www.w3.org/2000/svg"
   xmlns:sodipodi="http://sodipodi.sourceforge.net/DTD/sodipodi-0.dtd"
   xmlns:inkscape="http://www.inkscape.org/namespaces/inkscape"
   version="1.1"
   id="Layer_1"
   x="0px"
   y="0px"
   width="610px"
   height="600px"
   viewBox="0 0 610 600"
   enable-background="new 0 0 610 600"
   xml:space="preserve"
   sodipodi:docname="21-ב_Israely_road_sign.svg"
   inkscape:version="0.92.3 (2405546, 2018-03-11)"><metadata
   id="metadata9464"><rdf:RDF><cc:Work
       rdf:about=""><dc:format>image/svg+xml</dc:format><dc:type
         rdf:resource="http://purl.org/dc/dcmitype/StillImage" /></cc:Work></rdf:RDF></metadata><defs
   id="defs9462" /><sodipodi:namedview
   pagecolor="#ffffff"
   bordercolor="#666666"
   borderopacity="1"
   objecttolerance="10"
   gridtolerance="10"
   guidetolerance="10"
   inkscape:pageopacity="0"
   inkscape:pageshadow="2"
   inkscape:window-width="1600"
   inkscape:window-height="838"
   id="namedview9460"
   showgrid="false"
   inkscape:zoom="0.78666667"
   inkscape:cx="305"
   inkscape:cy="300"
   inkscape:window-x="-8"
   inkscape:window-y="-8"
   inkscape:window-maximized="1"
   inkscape:current-layer="Layer_1" />
<circle
   fill="#FFFFFF"
   stroke="#000000"
   stroke-width="5"
   cx="303.392"
   cy="298.723"
   r="292.562"
   id="circle9451" />


<line
   fill="none"
   stroke="#000000"
   stroke-width="70"
   x1="464.497"
   y1="54.076"
   x2="145.705"
   y2="542.923"
   id="line9457" />
<path
   style="fill:#000000;fill-opacity:1;stroke-width:0.59441704"
   d="M 111.69395,425.54077 C 96.067309,424.15369 84.484844,420.21141 72.053274,412.0484 56.868545,402.07757 46.32306,387.11187 40.740623,367.6108 c -1.515421,-5.2938 -3.648704,-15.68064 -3.279619,-15.96829 0.221822,-0.17288 45.163951,-2.75865 47.479737,-2.73178 1.430258,0.0166 1.589788,0.34881 2.849198,5.93331 4.14622,18.38518 16.936351,28.56047 35.899921,28.56047 21.31542,0 35.43438,-14.8849 37.94559,-40.00411 1.56355,-15.63985 -2.26119,-29.70743 -10.42289,-38.33591 -7.07443,-7.47904 -14.5345,-10.79702 -25.28609,-11.24638 -12.26142,-0.51248 -19.95869,2.12049 -27.701991,9.47587 -2.40041,2.28017 -5.10721,5.25784 -6.0151,6.61707 l -1.65073,2.47133 -22.290637,-1.41231 c -12.259855,-0.77676 -22.345456,-1.45814 -22.412468,-1.51416 -0.06697,-0.056 4.012172,-31.78451 9.064857,-70.50776 5.052685,-38.72325 9.186692,-70.61091 9.186692,-70.86146 0,-0.25057 31.563546,-0.45556 70.141217,-0.45556 h 70.14121 v 22.29064 22.29063 H 151.26949 98.149459 l -1.65339,10.5509 c -0.90937,5.803 -2.77648,17.63933 -4.14915,26.30296 -1.37266,8.66362 -2.41361,15.85333 -2.31322,15.97711 0.10041,0.1238 1.46328,-0.59055 3.02862,-1.58744 3.97498,-2.53147 14.626281,-7.77565 18.499301,-9.10817 6.66993,-2.29479 13.0246,-3.11379 24.17272,-3.1154 7.60183,-0.001 12.30885,0.29576 16.25821,1.02538 32.23307,5.95491 54.29185,28.74204 60.49418,62.4916 1.54474,8.4056 1.53601,30.12789 -0.0155,38.6371 -4.05987,22.26578 -14.96805,41.48608 -30.37059,53.51325 -19.27126,15.04809 -42.27362,21.13827 -70.40665,18.64108 z"
   id="path8663"
   inkscape:connector-curvature="0" /><path
   style="fill:#000000;fill-opacity:1;stroke-width:0.60392445"
   d="m 479.70811,429.23435 c -6.95529,-0.70929 -16.47413,-2.72756 -21.12647,-4.47945 -29.70485,-11.18572 -47.20691,-37.46775 -53.43,-80.23343 -2.42026,-16.63216 -2.74616,-22.47946 -2.73272,-49.03178 0.0138,-27.2811 0.4461,-33.88336 3.36129,-51.33358 6.11027,-36.57595 21.764,-62.12702 45.56549,-74.37506 13.11077,-6.7467 30.59032,-9.65021 49.03704,-8.14553 18.22203,1.48635 29.41104,5.379 41.62998,14.48304 26.80918,19.97486 39.42501,58.2777 39.45069,119.77603 0.0127,30.39998 -3.22848,57.07201 -9.12442,75.08566 -2.88225,8.80611 -8.94249,21.40029 -13.13966,27.30639 -11.53627,16.23349 -27.73686,26.34497 -47.74112,29.79736 -8.07077,1.39287 -23.78779,1.96231 -31.7501,1.15035 z m 19.41445,-43.41754 c 12.09874,-2.29448 18.98377,-9.6338 23.40879,-24.95333 4.63878,-16.05965 6.88045,-44.59125 6.10898,-77.75424 -0.80496,-34.60205 -2.925,-47.77116 -9.86333,-61.26825 -3.11048,-6.0508 -8.42291,-11.99854 -12.62877,-14.13903 -6.06444,-3.08638 -15.75232,-4.01165 -22.79546,-2.17713 -12.76344,3.32445 -21.2148,15.35473 -25.34795,36.08216 -2.20949,11.08034 -2.76023,18.5184 -3.16236,42.7101 -0.90594,54.50065 3.90518,83.3247 15.87192,95.09058 2.60198,2.55831 7.3943,5.0047 12.01336,6.1326 3.67713,0.89787 12.34734,1.04413 16.39482,0.27654 z"
   id="path8704"
   inkscape:connector-curvature="0" /></svg>