<?xml version="1.0" encoding="UTF-8" standalone="no"?>
<svg
   xmlns:dc="http://purl.org/dc/elements/1.1/"
   xmlns:cc="http://creativecommons.org/ns#"
   xmlns:rdf="http://www.w3.org/1999/02/22-rdf-syntax-ns#"
   xmlns:svg="http://www.w3.org/2000/svg"
   xmlns="http://www.w3.org/2000/svg"
   xmlns:sodipodi="http://sodipodi.sourceforge.net/DTD/sodipodi-0.dtd"
   xmlns:inkscape="http://www.inkscape.org/namespaces/inkscape"
   inkscape:version="1.0 (4035a4fb49, 2020-05-01)"
   sodipodi:docname="Israel_road_sign_408.svg"
   xml:space="preserve"
   enable-background="new 0 0 610 600"
   viewBox="0 0 592.1582 592.1582"
   height="592.1582"
   width="592.1582"
   y="0px"
   x="0px"
   id="Layer_1"
   version="1.1"><metadata
   id="metadata8642"><rdf:RDF><cc:Work
       rdf:about=""><dc:format>image/svg+xml</dc:format><dc:type
         rdf:resource="http://purl.org/dc/dcmitype/StillImage" /><dc:title></dc:title></cc:Work></rdf:RDF></metadata><defs
   id="defs8640"><path
     id="Oct"
     d="M 500,-207.10678 V 207.10678 L 207.10678,500 H -207.10678 L -500,207.10678 V -207.10678 L -207.10678,-500 h 414.21356 z" /><pattern
     id="EMFhbasepattern"
     patternUnits="userSpaceOnUse"
     width="6"
     height="6"
     x="0"
     y="0" /></defs><sodipodi:namedview
   inkscape:document-rotation="0"
   inkscape:current-layer="Layer_1"
   inkscape:window-maximized="1"
   inkscape:window-y="-9"
   inkscape:window-x="-9"
   inkscape:cy="680.02654"
   inkscape:cx="594.34083"
   inkscape:zoom="0.39333334"
   showgrid="true"
   id="namedview8638"
   inkscape:window-height="1001"
   inkscape:window-width="1920"
   inkscape:pageshadow="2"
   inkscape:pageopacity="0"
   guidetolerance="10"
   gridtolerance="10"
   objecttolerance="10"
   borderopacity="1"
   bordercolor="#666666"
   pagecolor="#ffffff"><sodipodi:guide
     inkscape:locked="false"
     id="guide8644"
     orientation="0,610"
     position="-6.5189819,-4.3847961" /><sodipodi:guide
     inkscape:locked="false"
     id="guide8646"
     orientation="-600,0"
     position="603.48102,-4.3847961" /><sodipodi:guide
     inkscape:locked="false"
     id="guide8648"
     orientation="0,-610"
     position="603.48102,595.6152" /><sodipodi:guide
     inkscape:locked="false"
     id="guide8650"
     orientation="600,0"
     position="-6.5189819,595.6152" /><inkscape:grid
     id="grid56807"
     type="xygrid" /></sodipodi:namedview>
<circle
   style="fill:#ffffff;stroke:#000000;stroke-opacity:0.815686"
   id="circle8633"
   r="292.48499"
   cy="296.07901"
   cx="296.078" />
<path
   id="path56784"
   d="M 296.07812,0 C 132.97277,0 0,132.97277 0,296.07812 0,459.18348 132.97277,592.1582 296.07812,592.1582 459.18348,592.1582 592.1582,459.18348 592.1582,296.07812 592.1582,132.97277 459.18348,0 296.07812,0 Z m 0,70 C 421.35268,70 522.1582,170.80357 522.1582,296.07812 522.1582,421.35268 421.35268,522.1582 296.07812,522.1582 170.80357,522.1582 70,421.35268 70,296.07812 70,170.80357 170.80357,70 296.07812,70 Z"
   style="color:#000000;font-style:normal;font-variant:normal;font-weight:normal;font-stretch:normal;font-size:medium;line-height:normal;font-family:sans-serif;font-variant-ligatures:normal;font-variant-position:normal;font-variant-caps:normal;font-variant-numeric:normal;font-variant-alternates:normal;font-variant-east-asian:normal;font-feature-settings:normal;font-variation-settings:normal;text-indent:0;text-align:start;text-decoration:none;text-decoration-line:none;text-decoration-style:solid;text-decoration-color:#000000;letter-spacing:normal;word-spacing:normal;text-transform:none;writing-mode:lr-tb;direction:ltr;text-orientation:mixed;dominant-baseline:auto;baseline-shift:baseline;text-anchor:start;white-space:normal;shape-padding:0;shape-margin:0;inline-size:0;clip-rule:nonzero;display:inline;overflow:visible;visibility:visible;opacity:1;isolation:auto;mix-blend-mode:normal;color-interpolation:sRGB;color-interpolation-filters:linearRGB;solid-color:#000000;solid-opacity:1;vector-effect:none;fill:#c0111e;fill-opacity:1;fill-rule:nonzero;stroke:none;stroke-width:70;stroke-linecap:butt;stroke-linejoin:miter;stroke-miterlimit:4;stroke-dasharray:none;stroke-dashoffset:0;stroke-opacity:1;color-rendering:auto;image-rendering:auto;shape-rendering:auto;text-rendering:auto;enable-background:accumulate;stop-color:#000000;stop-opacity:1" />
<path
   d="m 212.86923,185.86494 c -9.37953,0 -16.10382,11.06528 -21.76608,18.54299 l -42.34378,55.92114 c 0,0 -8.25612,8.43214 -10.7068,12.53988 -2.4507,4.10775 -3.99857,12.10689 -3.99857,12.10689 v 49.90294 c 0,9.35055 7.50641,16.87987 16.84581,16.92644 v 35.42412 c 0,6.38795 5.14462,11.52771 11.53267,11.52771 h 15.20399 c 6.38806,0 11.53284,-5.13976 11.53284,-11.52771 V 351.81026 H 405.6572 v 35.41908 c 0,6.38795 5.1397,11.52771 11.5277,11.52771 h 15.2092 c 6.3878,0 11.5276,-5.13976 11.5276,-11.52771 v -35.48958 c 8.6902,-0.73635 15.476,-7.9738 15.476,-16.86098 V 290.6515 c 0,0 -0.095,-8.91566 -1.254,-13.15431 -1.1533,-4.23865 -10.5154,-13.64791 -10.5154,-13.64791 l -45.0985,-61.59176 c -5.5414,-7.5677 -12.568,-16.39258 -21.9475,-16.39258 z m 1.5718,10.55061 h 1.4302 161.40278 1.43019 c 2.2756,0 4.4656,0.87641 6.547,2.2662 1.2115,0.7458 2.3058,1.654 3.2583,2.69938 4.219,4.04229 7.8609,9.70158 10.596,13.78903 l 19.3236,28.87206 c 4.6847,7.00096 4.7978,13.81405 -3.626,13.81405 H 377.27382 215.87105 178.34199 c -8.42386,0 -8.31089,-6.81309 -3.62601,-13.81405 l 19.32357,-28.87206 c 2.73515,-4.08745 6.37703,-9.74674 10.59603,-13.78903 0.9519,-1.04476 2.04759,-1.95309 3.2583,-2.69938 2.08126,-1.38932 4.27141,-2.2662 6.54697,-2.2662 z m -50.61815,85.56386 a 15.295821,15.295821 0 0 1 15.29981,15.29967 15.295821,15.295821 0 0 1 -15.29981,15.29465 15.295821,15.295821 0 0 1 -15.29462,-15.29465 15.295821,15.295821 0 0 1 15.29462,-15.29967 z m 266.36072,0 a 15.295821,15.295821 0 0 1 15.2947,15.29967 15.295821,15.295821 0 0 1 -15.2947,15.29465 15.295821,15.295821 0 0 1 -15.2948,-15.29465 15.295821,15.295821 0 0 1 15.2948,-15.29967 z m -196.60027,6.79374 h 126.79953 c 3.61954,7.76549 8.23411,22.4509 8.23411,22.4509 h -0.0314 c 0.0124,0.0315 0.0629,0.0629 0.0629,0.1102 0,2.24637 -1.80781,4.05408 -4.05413,4.05408 H 230.0247 c -2.24631,0 -4.05412,-1.80771 -4.05412,-4.05408 0,-0.005 0.0315,-0.005 0.0315,-0.009 z m -77.5463,39.53342 H 438.5989 v 17.99417 H 156.03703 Z"
   style="font-size:579.36px;line-height:1.15;font-family:'Highway Gothic Expanded';-inkscape-font-specification:'Highway Gothic Expanded, Normal';text-align:center;text-anchor:middle;opacity:0.999883;fill:#000000;fill-opacity:1;fill-rule:evenodd;stroke-width:15;stroke-linecap:square;stroke-opacity:0.757085;paint-order:stroke markers fill"
   id="path863" /></svg>
