<?xml version="1.0" encoding="UTF-8" standalone="no"?>
<svg
   inkscape:version="1.1.2 (b8e25be833, 2022-02-05)"
   sodipodi:docname="Israel_road_sign_225.svg"
   viewBox="0 0 624.16602 399.99999"
   height="400"
   width="624.16602"
   id="svg14297"
   version="1.1"
   xmlns:inkscape="http://www.inkscape.org/namespaces/inkscape"
   xmlns:sodipodi="http://sodipodi.sourceforge.net/DTD/sodipodi-0.dtd"
   xmlns="http://www.w3.org/2000/svg"
   xmlns:svg="http://www.w3.org/2000/svg"
   xmlns:rdf="http://www.w3.org/1999/02/22-rdf-syntax-ns#"
   xmlns:cc="http://creativecommons.org/ns#"
   xmlns:dc="http://purl.org/dc/elements/1.1/">
  <metadata
     id="metadata14303">
    <rdf:RDF>
      <cc:Work
         rdf:about="">
        <dc:format>image/svg+xml</dc:format>
        <dc:type
           rdf:resource="http://purl.org/dc/dcmitype/StillImage" />
      </cc:Work>
    </rdf:RDF>
  </metadata>
  <defs
     id="defs14301" />
  <sodipodi:namedview
     inkscape:current-layer="svg14297"
     inkscape:window-maximized="1"
     inkscape:window-y="-9"
     inkscape:window-x="-9"
     inkscape:cy="202.93112"
     inkscape:cx="217.24365"
     inkscape:zoom="0.9781644"
     showgrid="false"
     id="namedview14299"
     inkscape:window-height="1001"
     inkscape:window-width="1920"
     inkscape:pageshadow="2"
     inkscape:pageopacity="0"
     guidetolerance="10"
     gridtolerance="10"
     objecttolerance="10"
     borderopacity="1"
     bordercolor="#666666"
     pagecolor="#ffffff"
     inkscape:pagecheckerboard="0" />
  <path
     id="path3323-2"
     style="fill:#070fdb;fill-opacity:1;stroke:none;stroke-width:23.9726;stroke-miterlimit:4;stroke-dasharray:none;stroke-opacity:1"
     d="M 0,-1e-6 V 400 H 624.16615 V -1e-6 Z"
     inkscape:connector-curvature="0"
     sodipodi:nodetypes="ccccc" />
  <path
     id="path3325-3"
     style="fill:#ffffff;fill-opacity:1;stroke:none;stroke-width:21.1608;stroke-miterlimit:4;stroke-dasharray:none;stroke-opacity:1"
     d="M 9.4042794,9.4048727 V 390.591 H 614.75776 V 9.4048727 Z M 20.44082,20.441414 H 166.22477 V 81.10523 h 18.64895 V 20.441414 H 603.72534 V 379.55858 H 184.87372 v -65.67816 h -18.64895 v 65.67816 H 20.44082 Z M 166.22477,144.21424 v 108.09781 h 18.64895 V 144.21424 Z" />
  <path
     sodipodi:nodetypes="cccccccssscccssssccccccscssccsscsccsssscccsscccccccsssccsscccssssccccssscsscccccccccccccccccccccccsccccc"
     style="fill:#ffffff;fill-opacity:1;fill-rule:evenodd;stroke-width:7.34577"
     id="path38-2"
     inkscape:connector-curvature="0"
     d="m 443.10298,283.84364 h 7.15767 v -8.09371 h -10.97131 l -5.70884,-11.90722 c 6.1885,-3.81033 9.99884,-9.5391 11.42103,-16.20719 h 6.21496 c 2.85449,32.39783 30.01302,57.17816 62.41743,57.17816 34.78274,0 63.37353,-28.11444 63.37353,-62.89371 0,-34.7825 -28.59079,-62.8838 -63.37353,-62.8838 -10.01195,0 -14.78147,0.95582 -24.30408,5.23919 l -24.78047,-43.35587 4.76958,-13.35274 c 6.66473,-0.46896 17.15657,-6.66486 17.15657,-14.28225 0,-1.43537 -0.95608,-2.38481 -2.39149,-2.38481 H 429.7701 c -2.85782,0 -5.24583,2.38481 -5.24583,5.23932 0,2.38479 1.91183,4.76288 4.28665,5.2393 l 24.30424,5.23913 -5.72225,15.73097 H 332.54345 l 2.40473,-9.54247 h -0.0169 c 0.48894,-0.9492 0.48894,-2.37822 0.48894,-3.80376 0,-4.7696 -2.4046,-9.52912 -6.67801,-12.38357 -0.95931,-0.47896 -1.43556,-1.4355 -1.43556,-2.38468 0,-1.90508 1.43556,-3.33424 2.85445,-3.33424 h 24.30414 V 95.1822 h -29.0693 c -9.52248,0 -17.14658,7.62397 -17.14658,16.66693 0,6.19497 3.33415,11.43427 8.10033,14.76831 1.91508,0.94931 2.85769,2.38474 2.85769,4.28993 0,0.47249 0,0.94937 -0.47953,1.4289 l -13.34612,50.98982 c -7.14445,-2.8645 -14.76836,-4.28992 -21.9127,-4.28992 -34.79589,0 -62.89709,28.57761 -62.89709,62.8838 0,34.77927 28.1012,62.89371 62.89709,62.89371 34.79578,0 62.91033,-28.11444 62.91033,-62.89371 0,-20.48056 -10.01536,-39.54551 -26.69563,-50.97988 l 1.91192,-8.09359 72.9091,51.45608 c -0.95591,3.80376 -1.4322,3.80376 -1.4322,7.61739 0,14.7783 11.91062,26.20612 26.20269,26.20612 2.86767,0 5.24577,-0.46896 8.10033,-0.94937 l 3.8104,8.57321 h -7.14455 v 8.09371 h 7.14455 11.91382 m -40.4922,-41.92367 c 0,9.52589 7.60746,16.68351 16.66693,16.68351 9.53242,0 17.1565,-7.15762 17.1565,-16.68351 0,-9.05287 -7.62408,-16.6702 -17.1565,-16.6702 -9.05947,0 -16.66693,7.61733 -16.66693,16.6702 m -118.18337,6.19504 h -1.42233 c -3.33074,0 -6.21499,-2.38468 -6.21499,-6.19504 0,-1.90855 1.44869,-3.81363 2.88425,-5.23917 9.04299,-5.71885 15.23143,-13.81237 17.60953,-24.3042 l 3.34732,-10.95802 c -6.6813,-2.85433 -10.01535,-3.33075 -17.15969,-3.33075 -24.30418,0 -44.31509,19.5413 -44.31509,43.83214 0,24.30097 20.01091,44.30846 44.31509,44.30846 24.31742,0 43.83887,-20.00749 43.83887,-44.30846 0,-11.43097 -4.76631,-22.8653 -12.85666,-30.97221 l -3.81046,12.87651 c -3.33405,12.85653 -13.35938,21.90606 -26.21584,24.29074 m 214.42432,-47.64574 c 4.76952,-1.42549 10.01541,-2.38144 14.78163,-2.38144 24.30414,0 44.30512,19.5413 44.30512,43.83214 0,24.30097 -20.00098,44.30846 -44.30512,44.30846 -21.92608,0 -40.51795,-16.67351 -43.37247,-38.59291 h 46.22682 c 2.85774,0 5.71225,-2.38478 5.71225,-5.71555 0,-0.9526 -0.46601,-1.90855 -0.9426,-2.85769 z m -28.59084,35.73858 h 30.96904 l -15.71108,-27.64148 c -8.5931,7.15755 -13.82576,16.6834 -15.25796,27.64148 m -25.26002,0 c -1.42226,-5.71885 -4.7529,-11.43433 -9.52261,-14.76844 l 21.92617,-60.9886 18.57859,31.44516 c -14.76838,10.95151 -23.34489,26.20939 -24.76715,44.31188 z m -37.15749,-36.21483 h -11.91384 -7.15762 v 8.57335 h 10.96789 l 5.24583,11.4442 -1.43213,1.42884 -77.67881,-54.32375 2.39155,-9.04965 H 441.6637 l -20.97016,57.65791 h -0.94273 c -3.81034,0 -4.28986,0 -8.10022,1.4255 l -3.8104,-8.58305 h 7.1444 v -8.57335 z" />
  <path
     sodipodi:nodetypes="ccccccc"
     d="M 574.67543,20.440175 184.87322,346.41468 v 33.14265 h 23.53114 L 603.72483,48.965003 V 20.440175 Z"
     style="fill:#000000;stroke-width:2.11479"
     id="rect14330-7" />
</svg>
