<?xml version="1.0" encoding="UTF-8" standalone="no"?>
<!-- Generator: Adobe Illustrator 13.0.0, SVG Export Plug-In . SVG Version: 6.00 Build 14948)  -->

<svg
   version="1.1"
   id="Layer_1"
   x="0px"
   y="0px"
   width="592.1582"
   height="592.1582"
   viewBox="0 0 592.1582 592.1582"
   enable-background="new 0 0 610 600"
   xml:space="preserve"
   sodipodi:docname="Israel_road_sign_227.svg"
   inkscape:version="1.1.2 (b8e25be833, 2022-02-05)"
   xmlns:inkscape="http://www.inkscape.org/namespaces/inkscape"
   xmlns:sodipodi="http://sodipodi.sourceforge.net/DTD/sodipodi-0.dtd"
   xmlns="http://www.w3.org/2000/svg"
   xmlns:svg="http://www.w3.org/2000/svg"><defs
   id="defs41" /><sodipodi:namedview
   id="namedview39"
   pagecolor="#ffffff"
   bordercolor="#666666"
   borderopacity="1.0"
   inkscape:pageshadow="2"
   inkscape:pageopacity="0.0"
   inkscape:pagecheckerboard="0"
   showgrid="false"
   inkscape:zoom="1.3466667"
   inkscape:cx="302.59901"
   inkscape:cy="284.77723"
   inkscape:window-width="1920"
   inkscape:window-height="1001"
   inkscape:window-x="-9"
   inkscape:window-y="-9"
   inkscape:window-maximized="1"
   inkscape:current-layer="Layer_1"
   inkscape:object-paths="false"
   inkscape:snap-intersection-paths="true"
   inkscape:snap-smooth-nodes="true"
   inkscape:snap-bbox="true"
   inkscape:snap-bbox-edge-midpoints="true"
   inkscape:bbox-nodes="true"
   showguides="true"
   inkscape:guide-bbox="true" />
<circle
   fill="#0099BB"
   cx="296.07901"
   cy="296.07901"
   r="296.07901"
   id="circle2"
   style="fill:#070fdb;fill-opacity:1;stroke-width:1.01229" />
<g
   id="g34">
	<g
   id="g24">
		<g
   id="g6">
			<path
   fill="#ffffff"
   d="m 355.545,329.729 c 0.008,-50.328 40.785,-91.109 91.111,-91.119 v 0 10.549 10.548 c -19.371,0.006 -36.809,7.823 -49.512,20.508 v 0 c -12.686,12.703 -20.503,30.143 -20.505,49.51 v 0 c 0.002,19.363 7.817,36.805 20.505,49.506 v 0 c 12.703,12.688 30.141,20.504 49.512,20.508 v 0 c 19.365,-0.008 36.805,-7.82 49.504,-20.508 v 0 c 12.688,-12.701 20.507,-30.143 20.51,-49.506 v 0 c -0.008,-19.367 -7.822,-36.807 -20.51,-49.51 v 0 c -12.699,-12.686 -30.139,-20.506 -49.504,-20.508 v 0 -10.548 -10.549 c 50.324,0.01 91.106,40.791 91.113,91.119 v 0 c -0.007,50.322 -40.789,91.107 -91.113,91.113 v 0 c -50.326,-0.01 -91.103,-40.795 -91.111,-91.113 z"
   id="path4"
   style="display:none" />
		</g>
		<g
   id="g10">
			
		</g>
		<g
   id="g14">
			
		</g>
		<g
   id="g18">
			
		</g>
		<g
   id="g22">
			
		</g>
	</g>
	<g
   id="g30">
		
		
	</g>
	
</g>
<circle
   fill="none"
   stroke="#ffffff"
   stroke-width="7"
   cx="296.08002"
   cy="296.07901"
   r="284.66647"
   id="circle36" />
<path
   id="path15"
   fill="none"
   stroke="#000000"
   stroke-width="2.37668"
   d="m 448.16469,268.82675 c -11.33681,-0.28523 -22.17457,1.97266 -31.87149,6.25069 l -33.24992,-57.51599 6.22693,-17.32611 c 16.63684,-1.52107 22.55483,-16.63685 22.86379,-19.39382 -0.30893,-2.3529 -3.46998,-2.09147 -3.46998,-2.09147 h -71.34836 c -1.3785,-0.26141 -6.60722,1.06951 -6.93993,6.93992 0.33269,5.37133 6.25068,6.22696 6.25068,6.22696 l 31.15849,6.93995 -7.60546,20.77231 H 209.11676 c 1.73497,-6.89243 2.78073,-11.07541 2.78073,-11.07541 0,0 1.42601,-4.37309 1.37849,-6.25069 0.0477,-8.38974 -6.25073,-14.71175 -9.00768,-15.92387 -0.42783,-0.52289 -2.18656,-1.30717 -2.06771,-3.46995 -0.11861,-2.59062 1.25963,-4.58706 4.1592,-4.84848 h 31.87148 v -20.79607 h -40.18991 c 0,0 -20.51088,2.02017 -20.7961,23.5768 0.28525,12.2162 6.46465,15.04448 11.09917,18.01536 1.87762,0.9269 3.35117,4.99105 2.75699,7.60543 -0.45159,0.9982 -10.14847,37.36163 -18.01536,67.23668 -9.22156,-3.27986 -19.08484,-5.15744 -29.09075,-4.87224 -46.012797,-0.28523 -83.089222,36.79125 -83.160516,82.47131 0.07144,45.79888 37.147719,82.87535 83.160516,83.16055 45.44242,-0.28517 82.51884,-37.36167 82.44757,-83.16055 0.0714,-27.7598 -13.64226,-52.35858 -34.65223,-67.21292 0.90316,-3.51751 1.80629,-6.93995 2.78073,-10.38615 l 96.30366,67.21292 c -1.23589,3.27984 -1.80629,6.79736 -2.0677,10.38615 0.26139,19.20368 15.80501,34.72351 34.65219,34.65219 3.70765,0.0715 7.03502,-0.4278 10.38618,-1.37846 l 4.84843,11.0754 h -9.00766 v 11.09917 h 10.38614 c 1.30718,2.73318 4.04038,4.3731 6.93996,4.1592 3.35113,0.21381 6.08433,-1.42602 7.60539,-4.1592 h 9.72071 v -11.09917 h -14.56914 l -6.91619,-15.23462 c 7.22514,-4.80093 12.69157,-12.43013 14.54538,-21.48533 h 8.31842 c 3.75519,42.25765 39.38182,75.24617 82.44754,75.53137 45.7276,-0.28517 82.80402,-37.36167 83.16054,-83.16055 -0.3568,-45.68006 -37.43294,-82.75651 -83.16054,-82.47131 z m -124.70516,60.98599 c 12.28751,-0.19011 22.03195,9.53053 22.17455,21.48532 -0.14244,12.04985 -9.88704,21.79431 -22.17455,21.4853 -11.71712,0.30901 -21.43779,-9.43545 -21.48532,-21.4853 0.0476,-11.95479 9.7682,-21.67547 21.48532,-21.48532 z m 1.37846,-13.16688 c -0.19004,0.0476 -0.64168,0.0238 -1.37846,0 -3.32739,0.0238 -6.82112,0.59417 -10.40993,1.40226 l -4.84845,-10.40995 h 9.69689 v -11.76464 h -9.69689 c -1.75873,-2.23406 -4.49196,-3.87399 -7.60541,-4.1592 -3.13727,0.28524 -5.89423,1.92514 -7.62922,4.1592 h -9.69689 v 11.76464 H 297.815 l 6.91618,14.56913 c -0.59418,0.52289 -1.3785,1.09329 -2.06773,1.37849 l -102.5544,-71.37213 c 1.23591,-3.9453 2.30543,-7.96195 3.47001,-11.7884 h 148.97121 z m 40.87916,27.02302 h -8.31842 c -1.56864,-7.96195 -6.27447,-15.09205 -12.47765,-20.08309 l 29.11452,-80.37979 24.24226,42.25762 c -18.20547,13.64222 -30.44545,34.58088 -32.56071,58.20526 z m 65.83442,0 h -41.59213 c 1.97265,-14.52164 9.55433,-27.42708 20.10683,-36.71993 z m 16.61312,-50.57607 c 32.29923,-0.23764 58.49047,25.95349 58.20523,58.20525 0.2853,32.3468 -25.906,58.53797 -58.20523,58.20523 -29.61361,0.33276 -54.02224,-21.79425 -58.20525,-50.57605 h 57.51603 c 3.80272,0.11862 11.36059,0.11862 11.09918,-6.93995 0.26147,-2.82825 -1.40228,-4.84844 -1.40228,-4.84844 l -28.40153,-50.57607 c 5.91801,-2.25787 12.40634,-3.70763 19.39385,-3.46997 z m -245.9641,58.20525 c -0.0238,32.3468 -26.19119,58.53797 -58.20528,58.20523 -32.58445,0.33276 -58.775645,-25.85843 -58.894477,-58.20523 0.118673,-32.25176 26.310027,-58.44291 58.894477,-58.20525 7.86686,-0.23764 15.6149,1.44979 22.86384,4.15922 -2.75697,9.88703 -4.15924,15.94762 -4.15924,15.94762 0,0 -3.20855,15.73372 -21.48531,30.46923 -1.73497,0.90313 -5.79914,2.35289 -5.53771,7.62918 -0.26147,4.82466 2.99464,8.38968 8.31842,8.31843 5.01484,0.0715 29.42349,-7.24894 36.03071,-31.18223 0.0477,-0.80807 1.99641,-8.10453 4.84843,-18.7046 10.67139,10.67136 17.30238,25.35935 17.32614,41.5684 z"
   style="fill:#ffffff;fill-opacity:1;stroke:none"
   sodipodi:nodetypes="scccccccccccccccccccccccccccccccccccccccccccccccsccccccscccccccccccccccccccscccsccccccccccccccccccccccc" /></svg>
