<?xml version="1.0" encoding="UTF-8" standalone="no"?>
<svg
   xmlns:dc="http://purl.org/dc/elements/1.1/"
   xmlns:cc="http://creativecommons.org/ns#"
   xmlns:rdf="http://www.w3.org/1999/02/22-rdf-syntax-ns#"
   xmlns:svg="http://www.w3.org/2000/svg"
   xmlns="http://www.w3.org/2000/svg"
   xmlns:sodipodi="http://sodipodi.sourceforge.net/DTD/sodipodi-0.dtd"
   xmlns:inkscape="http://www.inkscape.org/namespaces/inkscape"
   inkscape:version="1.0 (4035a4fb49, 2020-05-01)"
   sodipodi:docname="Israel_road_sign_405.svg"
   xml:space="preserve"
   enable-background="new 0 0 610 600"
   viewBox="0 0 592.1582 592.1582"
   height="592.1582"
   width="592.1582"
   y="0px"
   x="0px"
   id="Layer_1"
   version="1.1"><metadata
   id="metadata8642"><rdf:RDF><cc:Work
       rdf:about=""><dc:format>image/svg+xml</dc:format><dc:type
         rdf:resource="http://purl.org/dc/dcmitype/StillImage" /><dc:title></dc:title></cc:Work></rdf:RDF></metadata><defs
   id="defs8640"><path
     id="Oct"
     d="M 500,-207.10678 V 207.10678 L 207.10678,500 H -207.10678 L -500,207.10678 V -207.10678 L -207.10678,-500 h 414.21356 z" /><pattern
     id="EMFhbasepattern"
     patternUnits="userSpaceOnUse"
     width="6"
     height="6"
     x="0"
     y="0" /><pattern
     id="EMFhbasepattern-0"
     patternUnits="userSpaceOnUse"
     width="6"
     height="6"
     x="0"
     y="0" /><pattern
     id="EMFhbasepattern-8"
     patternUnits="userSpaceOnUse"
     width="6"
     height="6"
     x="0"
     y="0" /></defs><sodipodi:namedview
   inkscape:document-rotation="0"
   inkscape:current-layer="Layer_1"
   inkscape:window-maximized="1"
   inkscape:window-y="-9"
   inkscape:window-x="-9"
   inkscape:cy="228.09055"
   inkscape:cx="435.30391"
   inkscape:zoom="1.1125147"
   showgrid="false"
   id="namedview8638"
   inkscape:window-height="1001"
   inkscape:window-width="1920"
   inkscape:pageshadow="2"
   inkscape:pageopacity="0"
   guidetolerance="10"
   gridtolerance="10"
   objecttolerance="10"
   borderopacity="1"
   bordercolor="#666666"
   pagecolor="#ffffff"><sodipodi:guide
     inkscape:locked="false"
     id="guide8644"
     orientation="0,610"
     position="-5.3896699,-7.8417958" /><sodipodi:guide
     inkscape:color="rgb(117,80,123)"
     inkscape:label=""
     inkscape:locked="false"
     id="guide8646"
     orientation="-1,0"
     position="604.61033,-7.8417958" /><sodipodi:guide
     inkscape:locked="false"
     id="guide8648"
     orientation="0,-610"
     position="604.61033,592.1582" /><sodipodi:guide
     inkscape:locked="false"
     id="guide8650"
     orientation="600,0"
     position="-5.3896699,592.1582" /><inkscape:grid
     originy="3.457"
     originx="1.12931"
     id="grid56807"
     type="xygrid" /></sodipodi:namedview>


<circle
   cx="296.078"
   cy="296.07901"
   r="292.48499"
   id="circle8633"
   style="fill:#ffffff;stroke:#000000;stroke-opacity:0.815686" /><path
   style="color:#000000;font-style:normal;font-variant:normal;font-weight:normal;font-stretch:normal;font-size:medium;line-height:normal;font-family:sans-serif;font-variant-ligatures:normal;font-variant-position:normal;font-variant-caps:normal;font-variant-numeric:normal;font-variant-alternates:normal;font-variant-east-asian:normal;font-feature-settings:normal;font-variation-settings:normal;text-indent:0;text-align:start;text-decoration:none;text-decoration-line:none;text-decoration-style:solid;text-decoration-color:#000000;letter-spacing:normal;word-spacing:normal;text-transform:none;writing-mode:lr-tb;direction:ltr;text-orientation:mixed;dominant-baseline:auto;baseline-shift:baseline;text-anchor:start;white-space:normal;shape-padding:0;shape-margin:0;inline-size:0;clip-rule:nonzero;display:inline;overflow:visible;visibility:visible;opacity:1;isolation:auto;mix-blend-mode:normal;color-interpolation:sRGB;color-interpolation-filters:linearRGB;solid-color:#000000;solid-opacity:1;vector-effect:none;fill:#c0111e;fill-opacity:1;fill-rule:nonzero;stroke:none;stroke-width:70;stroke-linecap:butt;stroke-linejoin:miter;stroke-miterlimit:4;stroke-dasharray:none;stroke-dashoffset:0;stroke-opacity:1;color-rendering:auto;image-rendering:auto;shape-rendering:auto;text-rendering:auto;enable-background:accumulate;stop-color:#000000;stop-opacity:1"
   d="M 296.07812,0 C 132.97277,0 0,132.97277 0,296.07812 0,459.18348 132.97277,592.1582 296.07812,592.1582 459.18348,592.1582 592.1582,459.18348 592.1582,296.07812 592.1582,132.97277 459.18348,0 296.07812,0 Z m 0,70 C 421.35268,70 522.1582,170.80357 522.1582,296.07812 522.1582,421.35268 421.35268,522.1582 296.07812,522.1582 170.80357,522.1582 70,421.35268 70,296.07812 70,170.80357 170.80357,70 296.07812,70 Z"
   id="path56784" /><path
   d="m 233.21242,101.14376 c -7.65646,0 -13.14546,9.03252 -17.76752,15.13653 l -34.56496,45.64807 c 0,0 -6.73941,6.8831 -8.7399,10.23622 -2.00049,3.35313 -3.264,9.88279 -3.264,9.88279 v 40.73545 c 0,7.6328 6.12744,13.77893 13.75113,13.81695 v 28.91649 c 0,5.21444 4.19953,9.40999 9.41404,9.40999 h 12.41093 c 5.21453,0 9.41418,-4.19555 9.41418,-9.40999 V 236.60388 H 390.584 v 28.91238 c 0,5.21444 4.1955,9.40999 9.41,9.40999 h 12.4152 c 5.2143,0 9.4099,-4.19555 9.4099,-9.40999 v -28.96992 c 7.0937,-0.60108 12.633,-6.50897 12.633,-13.76352 v -36.10245 c 0,0 -0.078,-7.27779 -1.0237,-10.73778 -0.9414,-3.45998 -8.5835,-11.14071 -8.5835,-11.14071 l -36.8138,-50.27696 c -4.5234,-6.17746 -10.2591,-13.38116 -17.9156,-13.38116 z m 1.28305,8.6124 h 1.16746 131.75207 1.1674 c 1.8576,0 3.6453,0.71541 5.3443,1.84989 0.9889,0.60878 1.8822,1.35014 2.6597,2.20348 3.444,3.2997 6.4169,7.91934 8.6495,11.25589 l 15.7737,23.56809 c 3.8241,5.71484 3.9165,11.27632 -2.9598,11.27632 h -30.635 -131.75201 -30.63475 c -6.87634,0 -6.78412,-5.56148 -2.95988,-11.27632 l 15.77371,-23.56809 c 2.23268,-3.33655 5.20552,-7.95619 8.64947,-11.25589 0.77704,-0.85283 1.67144,-1.5943 2.65973,-2.20348 1.69892,-1.1341 3.48674,-1.84989 5.34425,-1.84989 z m -41.31928,69.84524 a 12.485883,12.485883 0 0 1 12.48914,12.48902 12.485883,12.485883 0 0 1 -12.48914,12.48493 12.485883,12.485883 0 0 1 -12.48491,-12.48493 12.485883,12.485883 0 0 1 12.48491,-12.48902 z m 217.42861,0 a 12.485883,12.485883 0 0 1 12.4849,12.48902 12.485883,12.485883 0 0 1 -12.4849,12.48493 12.485883,12.485883 0 0 1 -12.4851,-12.48493 12.485883,12.485883 0 0 1 12.4851,-12.48902 z m -160.48359,5.54568 H 353.6269 c 2.9546,6.33893 6.7214,18.32653 6.7214,18.32653 h -0.025 c 0.01,0.0257 0.052,0.0514 0.052,0.09 0,1.8337 -1.4757,3.30932 -3.3094,3.30932 H 247.21628 c -1.83364,0 -3.30933,-1.47562 -3.30933,-3.30932 0,-0.004 0.0257,-0.004 0.0257,-0.007 z m -63.30055,32.27088 H 417.4741 V 232.1065 H 186.82066 Z"
   style="font-size:579.36px;line-height:1.15;font-family:'Highway Gothic Expanded';-inkscape-font-specification:'Highway Gothic Expanded, Normal';text-align:center;text-anchor:middle;opacity:0.999883;fill:#000000;fill-opacity:1;fill-rule:evenodd;stroke-width:15;stroke-linecap:square;stroke-opacity:0.757085;paint-order:stroke markers fill"
   id="path59192" /><path
   d="m 429.3118,402.41088 3.6886,-3.03581 c 0,0 -16.1151,-21.13746 -29.1958,-21.63767 -13.0965,-0.50807 -27.1792,4.01892 -27.1792,4.01892 l 3.0201,-15.09886 c 0,0 8.0426,-1.00041 9.562,-9.55889 1.5006,-8.55691 -8.5584,-16.6152 -8.5584,-16.6152 0,0 -12.0804,-1.00355 -19.637,-1.00355 -7.5423,0 -17.1028,8.55849 -17.1028,8.55849 0,0 -13.095,3.51871 -23.1603,-2.01969 -10.067,-5.53682 -22.64906,-11.577 -24.15749,-26.67743 -1.50852,-15.09886 0.50175,-16.60892 0.50175,-16.60892 0,0 15.09884,-7.04844 15.09884,-16.10713 0,-9.06026 -8.05033,-24.66404 -18.62073,-24.66404 -10.56874,0 -22.14724,4.52699 -22.14724,13.0839 0,8.55848 3.5218,19.12879 3.5218,19.12879 0,0 -20.1386,7.04687 -28.18907,22.65066 -8.05036,15.60536 -12.57893,41.27138 -12.57893,41.27138 h -40.77586 v 17.11855 c 0,0 -18.12524,2.0181 -29.69595,10.56872 -11.57235,8.55377 -15.10049,34.72943 -15.10049,34.72943 h 14.99504 c -1.05704,3.85218 -1.6705,7.88997 -1.6705,12.07877 0,25.14537 20.39505,45.56242 45.55455,45.56242 20.31018,0 37.47583,-13.29153 43.37759,-31.61967 7.73585,1.60126 17.26333,3.20096 27.11634,3.20096 11.1869,-0.0141 23.11625,-2.059 32.91735,-9.46451 14.1425,-10.75748 19.9169,-24.07418 19.8634,-35.40107 0,-1.22534 -0.1809,-2.38147 -0.3068,-3.55018 l 15.9609,-15.53772 12.3446,-12.33516 5.79,15.35524 c 0,0 -12.0944,8.052 -17.1185,21.13904 -5.0366,13.08862 -3.0201,29.18946 -3.0201,29.18946 l 5.5951,-1.27882 c 2.6189,22.66795 21.8641,40.30086 45.2557,40.30086 25.1595,0 45.5356,-20.41548 45.5482,-45.56241 0,-11.58644 -4.3697,-22.13472 -11.4967,-30.17886 z m -163.92948,19.60698 v 12.50976 c -4.34296,-0.57098 -8.52386,-1.29298 -12.33046,-2.08731 -0.0123,-3.58951 -0.47974,-7.0689 -1.28034,-10.42245 z m -89.14754,10.03392 c 0.29884,-15.79726 12.23126,-28.57128 27.58973,-30.39907 l -2.80463,16.60734 c -5.6579,1.76801 -9.8389,6.73385 -10.45859,12.80391 -5.71144,0.36178 -10.69455,0.71097 -14.32651,0.98782 z m 44.06495,-2.2399 c -0.66699,-3.56433 -2.60172,-6.62374 -5.29466,-8.83532 l 2.99966,-17.74459 c 11.31273,4.06453 19.49689,14.37687 20.53183,26.84259 -3.61772,-0.23437 -7.63983,-0.31773 -12.05046,-0.33189 -2.00394,0 -4.08496,0.0284 -6.18637,0.0692 z m -12.81655,34.09395 c -12.42014,-0.0284 -23.05175,-7.32056 -28.11196,-17.79963 4.58672,-0.33348 10.75754,-0.75031 17.52755,-1.12782 2.44273,1.6988 5.39366,2.70235 8.59307,2.70235 3.64608,0 6.94621,-1.3496 9.55418,-3.49512 3.94492,-0.12427 7.82073,-0.19505 11.44008,-0.19505 3.66502,-0.014 7.07521,0.0707 10.00403,0.23752 -4.63228,11.50936 -15.83648,19.65101 -29.00695,19.67775 z m 95.64708,-35.70938 v -19.76112 l 13.20034,-0.90603 c -0.7597,6.01973 -4.162,13.37489 -13.20034,20.66715 z m 92.12844,35.70938 c -17.2963,-0.0284 -31.2972,-14.0434 -31.3382,-31.31137 0.015,-8.46255 3.4071,-16.115 8.8778,-21.73677 1.6013,5.33077 3.5062,10.9368 5.4268,14.86134 1.628,3.24345 3.5896,5.67682 5.5384,7.6273 0.3901,6.02601 5.3575,10.81254 11.481,10.81254 6.3879,0 11.5645,-5.17505 11.5645,-11.56441 0,-6.38938 -5.1766,-11.56442 -11.5645,-11.56442 -1.0035,0 -1.9614,0.16359 -2.8942,0.4184 -0.4892,-0.65435 -0.9611,-1.26623 -1.3921,-2.11563 -1.543,-3.03582 -3.8695,-10.17391 -5.5667,-16.13072 -0.014,-0.0551 -0.03,-0.10383 -0.042,-0.15415 3.1334,-1.05547 6.4161,-1.75386 9.9097,-1.76644 17.2711,0.0331 31.2547,14.0198 31.2846,31.31138 -0.03,17.27112 -14.0119,31.28621 -31.2846,31.31295 z"
   id="path9649"
   inkscape:connector-curvature="0"
   style="stroke-width:1.53643;fill:#000000;fill-opacity:1" /></svg>
