<?xml version="1.0" encoding="UTF-8" standalone="no"?>
<svg
   xmlns:dc="http://purl.org/dc/elements/1.1/"
   xmlns:cc="http://creativecommons.org/ns#"
   xmlns:rdf="http://www.w3.org/1999/02/22-rdf-syntax-ns#"
   xmlns:svg="http://www.w3.org/2000/svg"
   xmlns="http://www.w3.org/2000/svg"
   xmlns:sodipodi="http://sodipodi.sourceforge.net/DTD/sodipodi-0.dtd"
   xmlns:inkscape="http://www.inkscape.org/namespaces/inkscape"
   viewBox="0 0 568.12463 497.228"
   height="497.228"
   width="568.12463"
   xml:space="preserve"
   version="1.1"
   id="svg3522"
   sodipodi:docname="Israel_road_sign_111.svg"
   inkscape:version="1.0 (4035a4fb49, 2020-05-01)"><sodipodi:namedview
     id="namedview11"
     pagecolor="#ffffff"
     bordercolor="#666666"
     borderopacity="1.0"
     inkscape:pageshadow="2"
     inkscape:pageopacity="0.0"
     inkscape:pagecheckerboard="true"
     showgrid="false"
     showguides="true"
     inkscape:guide-bbox="true"
     inkscape:snap-intersection-paths="true"
     inkscape:snap-smooth-nodes="true"
     inkscape:snap-bbox="true"
     inkscape:snap-bbox-edge-midpoints="true"
     inkscape:bbox-nodes="true"
     inkscape:zoom="2.0000001"
     inkscape:cx="233.63679"
     inkscape:cy="265.47753"
     inkscape:window-width="1920"
     inkscape:window-height="1001"
     inkscape:window-x="-9"
     inkscape:window-y="-9"
     inkscape:window-maximized="1"
     inkscape:current-layer="g5992"
     width="568.125px"
     inkscape:snap-global="true"
     inkscape:object-paths="false"
     inkscape:document-rotation="0" /><metadata
     id="metadata3528"><rdf:RDF><cc:Work
         rdf:about=""><dc:format>image/svg+xml</dc:format><dc:type
           rdf:resource="http://purl.org/dc/dcmitype/StillImage" /><dc:title /></cc:Work></rdf:RDF></metadata><defs
     id="defs3526" /><g
     id="g5565"
     transform="matrix(-1,0,0,1,568.12466,0)"><path
       sodipodi:nodetypes="cccc"
       d="M 284.06233,42.768626 519.25791,454.45937 H 48.866745 Z"
       style="display:inline;fill:#ffffff;fill-opacity:1;stroke-width:1.41526;stroke-linecap:round"
       id="rect2419" /><path
       sodipodi:nodetypes="cccccccccccccc"
       d="M 284.06233,4.5425685e-4 C 277.94091,-0.04336226 271.21873,3.083666 267.92647,8.9396153 L 2.1975383,469.35001 C 0.66396013,472.48418 0.01976039,475.20891 0,478.32676 0,489.21753 8.9379258,497.228 18.874395,497.228 H 549.25027 c 9.93647,0 18.87439,-8.01047 18.87439,-18.90124 -0.0197,-3.11785 -0.66396,-5.84258 -2.19753,-8.97675 L 300.19819,8.9396153 C 296.90594,3.083666 290.18376,-0.04336226 284.06233,4.5425685e-4 Z m 0,90.77454274315 L 487.1272,442.24256 H 80.997471 Z"
       style="display:inline;fill:#c0111e;fill-opacity:1;fill-rule:nonzero;stroke:none;stroke-width:0.859147"
       id="path1287-2" /></g><g
     style="opacity:1"
     id="g5992"
     transform="matrix(1.5300595,-1.5164235,1.5164235,1.5300595,-692.96686,702.83103)"><path
       style="opacity:1;fill:#000000;fill-opacity:1;stroke:none;stroke-width:0.428519px;stroke-linecap:butt;stroke-linejoin:miter;stroke-opacity:1"
       d="m 436.24532,195.31556 c 0,0 -0.50075,3.95123 -1.4709,5.6313 -2.85735,4.94811 -12.1991,12.04248 -12.1991,12.04248 l -6.19029,4.8001 -3.28083,3.23437 -0.64143,0.10972 c 0,0 -1.18499,0.0262 -1.51495,0.46792 -0.40328,0.53951 -0.0985,1.25199 0.12184,1.81766 0.31657,0.8119 0.82598,1.71002 1.63777,2.03794 0.2754,0.11143 0.68152,-0.0404 0.68152,-0.0404 l 3.8825,-4.18385 c 0,0 1.15407,1.17943 1.70848,0.86343 1.31378,-0.74885 3.99941,-3.36899 3.99941,-3.36899 l 0.75502,-0.53366 c 0,0 -0.48274,3.64954 -1.41562,5.17562 -1.12837,1.84545 -4.79084,4.37723 -4.79084,4.37723 l 1.81263,2.1282 c 0,0 2.46546,-1.285 3.35916,-2.30824 1.07839,-1.23441 2.0019,-2.46195 2.61525,-4.0075 0.42707,-1.07639 0.53725,-2.47154 1.14194,-3.43962 3.03896,-4.86595 6.87575,-8.98877 10.40634,-13.70826 0.48592,-0.64962 1.39283,-0.92972 2.19503,-1.05138 0.75213,-0.1141 1.71796,-0.20443 2.25822,0.33134 4.51201,4.47557 13.48208,13.59367 13.48208,13.59367 0,0 0.57663,8.37799 -1.06323,12.0684 -0.5587,1.25711 -1.58212,2.4005 -2.80835,3.02376 -4.16425,2.11697 -9.60602,2.89421 -12.93376,4.48952 -0.92664,0.44432 -1.77056,2.12899 -1.77056,2.12899 0,0 -1.28019,-0.55956 -1.8956,-0.37021 -0.40958,0.12593 -0.90495,0.913 -0.90495,0.913 l 1.10973,2.67339 c 0,0 0.51809,1.65601 1.20188,1.80465 0.68419,0.14874 0.6215,-0.23585 1.48313,-0.95678 0.72431,-0.60608 1.2374,-1.55948 1.9325,-1.76673 4.28701,-1.27814 14.35434,-4.43903 14.35434,-4.43903 0,0 1.69267,0.0978 2.37435,1.5614 1.01722,2.18321 -1.42197,3.86981 -1.42197,3.86981 0,0 -6.47401,3.35695 -8.32373,6.30568 -0.51708,0.82445 -0.96647,1.9718 -0.57425,2.86229 0.36668,0.83231 1.53108,1.61591 2.33577,1.40992 3.7463,-0.95886 9.52498,-8.69741 9.52498,-8.69741 0,0 2.14003,-0.59256 3.02465,-1.22555 1.0769,-0.77076 2.6,-3.004 2.6,-3.004 l 2.44218,-12.88891 c 0,0 10.67336,-5.29279 12.35202,-3.29378 1.45979,1.73861 -0.13121,3.44874 -1.11504,4.73952 -0.27209,0.35698 -0.33441,0.68663 -0.18502,0.98564 0.0623,0.12633 0.25682,0.25762 0.37965,0.18768 3.03405,-1.72699 4.71073,-5.98906 5.6764,-9.57031 1.20153,-4.45546 1.9421,-9.71443 -0.11865,-13.84327 -6.71269,-13.44873 -28.01995,-29.54483 -35.80266,-27.41401 -1.67134,-1.22271 -2.06206,-4.04787 -1.44468,-5.90627 1.10405,-3.32246 4.15746,-7.03743 6.11606,-8.24265 0,0 3.32089,-1.20864 4.00292,-2.66933 0.21566,-0.46203 0.36683,-0.9035 -0.0948,-1.33161 -0.72586,-0.67275 -2.26079,-0.90136 -2.2573,-1.73526 0.002,-0.3821 0.7061,-0.90275 0.7061,-0.90275 0,0 2.6191,-0.94614 3.69343,-1.79408 1.13927,-0.89911 2.76037,-3.36721 2.76037,-3.36721 0,0 -2.58276,1.17861 -3.9529,1.13518 -1.77847,-0.0558 -3.74354,0.6156 -5.0268,-1.79559 -0.55469,-1.04249 0.99892,-2.19352 1.82746,-3.03487 1.01379,-1.0295 3.67869,-2.29259 3.67869,-2.29259 0,0 -3.53247,-0.97212 -5.264,-0.62081 -1.10926,0.22499 -2.9505,1.68031 -2.9505,1.68031 0,0 -2.75485,0.52226 -3.86402,-0.13424 -0.87361,-0.51712 -0.56994,-2.38103 -1.55735,-2.61765 -0.59679,-0.1429 -1.20841,0.46986 -1.55579,0.98389 -0.93148,1.37878 -0.90897,2.95378 -1.63162,4.30901 -1.18098,2.21475 -2.50464,4.47952 -4.36153,6.13798 -2.44785,2.18611 -6.48472,1.98794 -8.65971,4.52622 -1.00507,1.17303 -2.42271,2.59401 -1.85863,3.92835 0.66748,1.57899 5.27734,0.97474 8.09008,1.7425 1.38663,0.37847 3.09758,2.22683 2.9982,3.22366 -0.34732,3.48718 -5.34579,9.9159 -4.70443,15.17172 0.38119,3.12511 4.88424,8.08375 4.88424,8.08375 z"
       id="path5147"
       sodipodi:nodetypes="caccccsasccsccaccssssascasscsccssscscaascaccssasaacscssscacasacacaasasssssacc" /></g></svg>
