<?xml version="1.0" encoding="UTF-8" standalone="no"?>
<svg
   xmlns:dc="http://purl.org/dc/elements/1.1/"
   xmlns:cc="http://creativecommons.org/ns#"
   xmlns:rdf="http://www.w3.org/1999/02/22-rdf-syntax-ns#"
   xmlns:svg="http://www.w3.org/2000/svg"
   xmlns="http://www.w3.org/2000/svg"
   xmlns:sodipodi="http://sodipodi.sourceforge.net/DTD/sodipodi-0.dtd"
   xmlns:inkscape="http://www.inkscape.org/namespaces/inkscape"
   inkscape:version="1.0 (4035a4fb49, 2020-05-01)"
   sodipodi:docname="Israel_road_sign_151.svg"
   id="svg3522"
   version="1.1"
   xml:space="preserve"
   width="568.12463"
   height="497.228"
   viewBox="0 0 568.12463 497.228"><sodipodi:namedview
     inkscape:document-rotation="0"
     inkscape:object-paths="false"
     inkscape:snap-global="true"
     width="568.125px"
     inkscape:current-layer="g7054"
     inkscape:window-maximized="1"
     inkscape:window-y="-9"
     inkscape:window-x="-9"
     inkscape:window-height="1001"
     inkscape:window-width="1920"
     inkscape:cy="274.45411"
     inkscape:cx="196.60475"
     inkscape:zoom="1.4142136"
     inkscape:bbox-nodes="true"
     inkscape:snap-bbox-edge-midpoints="true"
     inkscape:snap-bbox="true"
     inkscape:snap-smooth-nodes="true"
     inkscape:snap-intersection-paths="true"
     inkscape:guide-bbox="true"
     showguides="true"
     showgrid="false"
     inkscape:pagecheckerboard="true"
     inkscape:pageopacity="0.0"
     inkscape:pageshadow="2"
     borderopacity="1.0"
     bordercolor="#666666"
     pagecolor="#ffffff"
     id="namedview11" /><metadata
     id="metadata3528"><rdf:RDF><cc:Work
         rdf:about=""><dc:format>image/svg+xml</dc:format><dc:type
           rdf:resource="http://purl.org/dc/dcmitype/StillImage" /><dc:title></dc:title></cc:Work></rdf:RDF></metadata><defs
     id="defs3526" /><g
     transform="matrix(-1,0,0,1,568.12466,0)"
     id="g7054"><g
       id="g5565"
       transform="matrix(-1,0,0,1,568.12466,0)"><path
         sodipodi:nodetypes="cccc"
         d="M 284.06233,42.768626 519.25791,454.45937 H 48.866745 Z"
         style="display:inline;fill:#ffffff;fill-opacity:1;stroke-width:1.41526;stroke-linecap:round"
         id="rect2419" /><path
         sodipodi:nodetypes="cccccccccccccc"
         d="M 284.06233,4.5425685e-4 C 277.94091,-0.04336226 271.21873,3.083666 267.92647,8.9396153 L 2.1975383,469.35001 C 0.66396013,472.48418 0.01976039,475.20891 0,478.32676 0,489.21753 8.9379258,497.228 18.874395,497.228 H 549.25027 c 9.93647,0 18.87439,-8.01047 18.87439,-18.90124 -0.0197,-3.11785 -0.66396,-5.84258 -2.19753,-8.97675 L 300.19819,8.9396153 C 296.90594,3.083666 290.18376,-0.04336226 284.06233,4.5425685e-4 Z m 0,90.77454274315 L 487.1272,442.24256 H 80.997471 Z"
         style="display:inline;fill:#c0111e;fill-opacity:1;fill-rule:nonzero;stroke:none;stroke-width:0.859147"
         id="path1287-2" /></g><g
       transform="translate(-1.088035)"
       id="g7060"><path
         id="path6985"
         style="opacity:1;fill:#000000;fill-opacity:1;stroke:#000000;stroke-width:0;stroke-linecap:butt;stroke-linejoin:miter;stroke-miterlimit:4;stroke-dasharray:none;stroke-opacity:1"
         d="m 238.05027,220.57504 -0.0485,46.85149 -29.45148,61.09816 v 0.19001 l -0.0971,0.20224 v 84.19846 l 0.008,-0.0166 -0.004,5.06558 h 36.64352 v -81.07745 l 29.33021,-60.8475 v -0.0971 l 0.0607,-0.12543 v -55.44233 z" /><path
         d="m 332.25046,220.57543 0.0485,46.85149 29.45148,61.09816 v 0.19001 l 0.0971,0.20224 v 84.19846 l -0.008,-0.0166 0.004,5.06558 h -36.64352 v -81.07745 l -29.33021,-60.8475 v -0.0971 l -0.0607,-0.12543 v -55.44233 z"
         style="opacity:1;fill:#000000;fill-opacity:1;stroke:#000000;stroke-width:0;stroke-linecap:butt;stroke-linejoin:miter;stroke-miterlimit:4;stroke-dasharray:none;stroke-opacity:1"
         id="path7056" /></g></g></svg>
