<?xml version="1.0" encoding="UTF-8" standalone="no"?>
<!-- Generator: Adobe Illustrator 13.0.0, SVG Export Plug-In . SVG Version: 6.00 Build 14948)  -->

<svg
   xmlns:dc="http://purl.org/dc/elements/1.1/"
   xmlns:cc="http://creativecommons.org/ns#"
   xmlns:rdf="http://www.w3.org/1999/02/22-rdf-syntax-ns#"
   xmlns:svg="http://www.w3.org/2000/svg"
   xmlns="http://www.w3.org/2000/svg"
   xmlns:sodipodi="http://sodipodi.sourceforge.net/DTD/sodipodi-0.dtd"
   xmlns:inkscape="http://www.inkscape.org/namespaces/inkscape"
   version="1.1"
   id="Layer_1"
   x="0px"
   y="0px"
   width="592.15802"
   height="592.15802"
   viewBox="0 0 592.15802 592.15802"
   enable-background="new 0 0 610 600"
   xml:space="preserve"
   sodipodi:docname="1-ב_Israely_road_sign.svg"
   inkscape:version="0.92.3 (2405546, 2018-03-11)"><metadata
   id="metadata8642"><rdf:RDF><cc:Work
       rdf:about=""><dc:format>image/svg+xml</dc:format><dc:type
         rdf:resource="http://purl.org/dc/dcmitype/StillImage" /></cc:Work></rdf:RDF></metadata><defs
   id="defs8640"><path
     d="M500-207.10678V207.10678L207.10678,500H-207.10678L-500,207.10678V-207.10678L-207.10678-500H207.10678Z"
     id="Oct" /></defs><sodipodi:namedview
   pagecolor="#ffffff"
   bordercolor="#666666"
   borderopacity="1"
   objecttolerance="10"
   gridtolerance="10"
   guidetolerance="10"
   inkscape:pageopacity="0"
   inkscape:pageshadow="2"
   inkscape:window-width="1600"
   inkscape:window-height="838"
   id="namedview8638"
   showgrid="false"
   inkscape:zoom="0.55625733"
   inkscape:cx="6.3500385"
   inkscape:cy="295.61502"
   inkscape:window-x="-8"
   inkscape:window-y="-8"
   inkscape:window-maximized="1"
   inkscape:current-layer="Layer_1"><sodipodi:guide
     position="-6.5189819,-4.3849792"
     orientation="0,610"
     id="guide8644"
     inkscape:locked="false" /><sodipodi:guide
     position="603.48102,-4.3849792"
     orientation="-600,0"
     id="guide8646"
     inkscape:locked="false" /><sodipodi:guide
     position="603.48102,595.61502"
     orientation="0,-610"
     id="guide8648"
     inkscape:locked="false" /><sodipodi:guide
     position="-6.5189819,595.61502"
     orientation="600,0"
     id="guide8650"
     inkscape:locked="false" /></sodipodi:namedview>
<circle
   cx="296.078"
   cy="296.07901"
   r="292.48499"
   id="circle8633"
   style="fill:#ffffff;stroke:#ffffff" />
<circle
   cx="296.07901"
   cy="296.07901"
   r="261.07901"
   id="circle8635"
   style="fill:none;stroke:#c0111e;stroke-width:70;stroke-opacity:1" />
<path
   style="fill:#000000;stroke-width:0.57248998"
   d="m 165.53272,423.91818 c -15.0502,-1.33591 -26.20541,-5.13277 -38.1784,-12.99466 -14.62459,-9.60302 -24.78107,-24.01666 -30.157583,-42.79837 -1.45952,-5.09852 -3.51411,-15.10221 -3.15864,-15.37925 0.21364,-0.1665 43.497933,-2.65689 45.728293,-2.63101 1.3775,0.016 1.53114,0.33594 2.7441,5.71444 3.99327,17.70698 16.31159,27.50692 34.57563,27.50692 20.52913,0 34.12726,-14.33582 36.54584,-38.52842 1.50587,-15.06292 -2.17778,-28.61158 -10.03841,-36.92177 -6.81346,-7.20315 -13.99834,-10.39873 -24.35333,-10.83152 -11.80911,-0.49357 -19.22244,2.04227 -26.68011,9.12633 -2.31186,2.19605 -4.91881,5.06388 -5.79321,6.37297 l -1.58984,2.38017 -21.46837,-1.36021 c -11.80761,-0.74811 -21.52117,-1.40435 -21.58571,-1.45831 -0.0645,-0.0539 3.86417,-30.61203 8.73047,-67.90685 4.8663,-37.29481 8.84781,-68.00619 8.84781,-68.2475 0,-0.24132 30.39922,-0.43875 67.55382,-0.43875 h 67.55382 v 21.46837 21.46837 h -51.16052 -51.16052 l -1.5924,10.1617 c -0.87582,5.58893 -2.67406,16.98864 -3.99609,25.33268 -1.32203,8.34404 -2.32458,15.26853 -2.22789,15.38775 0.0967,0.11923 1.4093,-0.56877 2.9169,-1.52889 3.82835,-2.43808 14.08674,-7.48882 17.81689,-8.77218 6.42389,-2.21014 12.54414,-2.99893 23.28103,-3.00048 7.32141,-0.001 11.85479,0.28485 15.65847,0.98756 31.04405,5.73524 52.28912,27.68179 58.26265,60.18639 1.48776,8.09553 1.47935,29.01652 -0.0149,37.21184 -3.91011,21.44443 -14.4159,39.95573 -29.25027,51.53924 -18.56037,14.49299 -40.71422,20.35851 -67.80947,17.95344 z"
   id="path8663"
   inkscape:connector-curvature="0" /><path
   style="fill:#000000;stroke-width:0.5610469"
   d="m 409.40104,423.16908 c -6.46148,-0.65893 -15.3045,-2.53391 -19.62653,-4.16142 -27.59586,-10.39155 -43.8553,-34.8076 -49.63657,-74.537 -2.24842,-15.45131 -2.55118,-20.88346 -2.5387,-45.55061 0.0128,-25.34419 0.41443,-31.4777 3.12265,-47.68899 5.67645,-33.97912 20.21879,-57.71611 42.33042,-69.09457 12.17993,-6.26769 28.41846,-8.96506 45.5555,-7.56721 16.9283,1.38082 27.32291,4.9971 38.67433,13.45477 24.90577,18.55668 36.6259,54.14009 36.64976,111.27215 0.0118,28.24164 -2.99927,53.02 -8.4766,69.75472 -2.67762,8.18089 -8.30759,19.8809 -12.20677,25.36768 -10.71722,15.08094 -25.7676,24.47453 -44.35159,27.6818 -7.49776,1.29398 -22.0989,1.82299 -29.4959,1.06868 z m 18.03606,-40.33497 c 11.23975,-2.13158 17.63596,-8.94982 21.74681,-23.18169 4.30943,-14.91945 6.39195,-41.42535 5.67525,-72.23383 -0.74781,-32.14537 -2.71733,-44.3795 -9.16305,-56.91832 -2.88964,-5.6212 -7.8249,-11.14666 -11.73215,-13.13518 -5.63388,-2.86725 -14.63393,-3.72683 -21.17702,-2.02256 -11.85726,3.08842 -19.70859,14.26457 -23.5483,33.52039 -2.05262,10.29366 -2.56425,17.20363 -2.93783,39.67776 -0.84162,50.63121 3.62792,77.4088 14.74504,88.33932 2.41724,2.37668 6.86932,4.64938 11.16043,5.6972 3.41606,0.83412 11.4707,0.97 15.23082,0.25691 z"
   id="path8704"
   inkscape:connector-curvature="0" /></svg>