<?xml version="1.0" encoding="UTF-8" standalone="no"?>
<svg
   viewBox="0 0 568.125 497.228"
   height="497.228"
   width="568.125"
   xml:space="preserve"
   version="1.1"
   id="svg3522"
   sodipodi:docname="Tram sign israel.svg"
   inkscape:version="1.1.2 (b8e25be833, 2022-02-05)"
   xmlns:inkscape="http://www.inkscape.org/namespaces/inkscape"
   xmlns:sodipodi="http://sodipodi.sourceforge.net/DTD/sodipodi-0.dtd"
   xmlns="http://www.w3.org/2000/svg"
   xmlns:svg="http://www.w3.org/2000/svg"
   xmlns:rdf="http://www.w3.org/1999/02/22-rdf-syntax-ns#"
   xmlns:cc="http://creativecommons.org/ns#"
   xmlns:dc="http://purl.org/dc/elements/1.1/"><sodipodi:namedview
     id="namedview11"
     pagecolor="#ffffff"
     bordercolor="#666666"
     borderopacity="1.0"
     inkscape:pageshadow="2"
     inkscape:pageopacity="0.0"
     inkscape:pagecheckerboard="true"
     showgrid="false"
     showguides="true"
     inkscape:guide-bbox="true"
     inkscape:snap-intersection-paths="true"
     inkscape:snap-smooth-nodes="true"
     inkscape:snap-bbox="true"
     inkscape:snap-bbox-edge-midpoints="true"
     inkscape:bbox-nodes="true"
     inkscape:zoom="0.70710678"
     inkscape:cx="320.31937"
     inkscape:cy="352.84628"
     inkscape:window-width="1920"
     inkscape:window-height="1001"
     inkscape:window-x="-9"
     inkscape:window-y="-9"
     inkscape:window-maximized="1"
     inkscape:current-layer="svg3522"
     width="568.125px"
     inkscape:snap-global="false" /><metadata
     id="metadata3528"><rdf:RDF><cc:Work
         rdf:about=""><dc:format>image/svg+xml</dc:format><dc:type
           rdf:resource="http://purl.org/dc/dcmitype/StillImage" /></cc:Work></rdf:RDF></metadata><defs
     id="defs3526" /><path
     id="rect2419"
     style="display:inline;fill:#ffffff;fill-opacity:1;stroke-width:1.41526;stroke-linecap:round"
     d="M 284.06233,42.768626 519.25791,454.45937 H 48.866745 Z"
     sodipodi:nodetypes="cccc" /><path
     id="path1287-2"
     style="display:inline;fill:#c0111e;fill-opacity:1;fill-rule:nonzero;stroke:none;stroke-width:0.859147"
     d="M 284.06233,4.5425685e-4 C 277.94091,-0.04336226 271.21873,3.083666 267.92647,8.9396153 L 2.1975383,469.35001 C 0.66396013,472.48418 0.01976039,475.20891 0,478.32676 0,489.21753 8.9379258,497.228 18.874395,497.228 H 549.25027 c 9.93647,0 18.87439,-8.01047 18.87439,-18.90124 -0.0197,-3.11785 -0.66396,-5.84258 -2.19753,-8.97675 L 300.19819,8.9396153 C 296.90594,3.083666 290.18376,-0.04336226 284.06233,4.5425685e-4 Z M 283.78714,91.251306 l 0.27519,0.476559 0.2752,-0.476559 L 487.1272,442.24256 H 80.997471 Z"
     sodipodi:nodetypes="cccccccccccccccc" /><path
     id="path876"
     style="display:inline;fill:#000000;fill-opacity:1;stroke:none;stroke-width:0.837734px;stroke-linecap:butt;stroke-linejoin:miter;stroke-opacity:1"
     d="m 207.92847,292.68856 -33.77769,19.83728 31.49519,18.49722 h -33.77278 l -6.03103,12.06206 v 57.19007 l -7.50688,2.50173 v 9.74031 h 19.97308 a 10.052816,10.052816 0 0 0 -0.13417,0.67083 10.052816,10.052816 0 0 0 10.0528,10.05281 10.052816,10.052816 0 0 0 10.05281,-10.05281 10.052816,10.052816 0 0 0 -0.13417,-0.67083 h 6.43353 a 10.052816,10.052816 0 0 0 -0.13416,0.67083 10.052816,10.052816 0 0 0 10.05281,10.05281 10.052816,10.052816 0 0 0 10.05281,-10.05281 10.052816,10.052816 0 0 0 -0.13418,-0.67083 H 343.1734 a 10.052816,10.052816 0 0 0 -0.13418,0.67083 10.052816,10.052816 0 0 0 10.05281,10.05281 10.052816,10.052816 0 0 0 10.0528,-10.05281 10.052816,10.052816 0 0 0 -0.13417,-0.67083 h 6.43353 a 10.052816,10.052816 0 0 0 -0.13415,0.67083 10.052816,10.052816 0 0 0 10.0528,10.05281 10.052816,10.052816 0 0 0 10.05281,-10.05281 10.052816,10.052816 0 0 0 -0.13418,-0.67083 h 20.50812 v -76.40068 h -41.80652 l -4.85132,-5.09349 H 210.21096 l 31.4952,-18.49722 z m 0,7.23692 23.59071,12.60036 -23.59071,12.59873 -23.59073,-12.59873 z m -34.58107,44.76966 h 17.42552 v 17.42388 H 173.3474 Z m 20.91062,0 h 15.54717 v 51.46991 h -15.54717 z m 19.03227,0 h 30.56093 v 17.42388 h -30.56093 z m 40.7479,0 h 80.69078 v 17.42388 h -80.69078 z m 86.0526,0 h 12.86706 v 51.73825 h -12.86706 z m 18.22889,0 h 12.86707 v 51.73825 h -12.86707 z m 18.2289,0 h 22.51737 v 17.42388 h -22.51737 z" /></svg>
