<?xml version="1.0" encoding="UTF-8" standalone="no"?>
<!-- Generator: Adobe Illustrator 13.0.0, SVG Export Plug-In . SVG Version: 6.00 Build 14948)  -->

<svg
   xmlns:dc="http://purl.org/dc/elements/1.1/"
   xmlns:cc="http://creativecommons.org/ns#"
   xmlns:rdf="http://www.w3.org/1999/02/22-rdf-syntax-ns#"
   xmlns:svg="http://www.w3.org/2000/svg"
   xmlns="http://www.w3.org/2000/svg"
   xmlns:sodipodi="http://sodipodi.sourceforge.net/DTD/sodipodi-0.dtd"
   xmlns:inkscape="http://www.inkscape.org/namespaces/inkscape"
   version="1.1"
   id="Layer_1"
   x="0px"
   y="0px"
   width="592.15802"
   height="592.15802"
   viewBox="0 0 592.15802 592.15802"
   enable-background="new 0 0 610 600"
   xml:space="preserve"
   inkscape:version="0.92.2 (5c3e80d, 2017-08-06)"
   sodipodi:docname="19-ב_Israely_road_sign.svg"><metadata
     id="metadata30"><rdf:RDF><cc:Work
         rdf:about=""><dc:format>image/svg+xml</dc:format><dc:type
           rdf:resource="http://purl.org/dc/dcmitype/StillImage" /></cc:Work></rdf:RDF></metadata><defs
     id="defs28"><path
       id="Oct"
       d="M 500,-207.10678 V 207.10678 L 207.10678,500 H -207.10678 L -500,207.10678 V -207.10678 L -207.10678,-500 h 414.21356 z"
       inkscape:connector-curvature="0" /></defs><sodipodi:namedview
     pagecolor="#ffffff"
     bordercolor="#666666"
     borderopacity="1"
     objecttolerance="10"
     gridtolerance="10"
     guidetolerance="10"
     inkscape:pageopacity="0"
     inkscape:pageshadow="2"
     inkscape:window-width="1280"
     inkscape:window-height="658"
     id="namedview26"
     showgrid="false"
     inkscape:zoom="0.47824442"
     inkscape:cx="20.175816"
     inkscape:cy="298.54292"
     inkscape:window-x="-8"
     inkscape:window-y="-8"
     inkscape:window-maximized="1"
     inkscape:current-layer="Layer_1" /><circle
     cx="296.07901"
     cy="296.07901"
     r="292.48499"
     id="circle3"
     style="fill:#ffffff;stroke:#ffffff" /><circle
     cx="296.07901"
     cy="296.07901"
     r="261.07901"
     id="circle5"
     style="fill:none;stroke:#c0111e;stroke-width:70;stroke-opacity:1" /><path
     inkscape:connector-curvature="0"
     id="path3827"
     style="font-style:normal;font-variant:normal;font-weight:normal;font-stretch:normal;font-size:10px;line-height:1000%;font-family:NextExitFOT-Regular;-inkscape-font-specification:NextExitFOT-Regular;text-align:end;letter-spacing:0px;word-spacing:0px;text-anchor:end;fill:#000000;fill-opacity:1;stroke:none"
     d="m 325.17287,185.76572 h 5.25909 v 52.52688 h 13.14781 v -52.52688 h 20.9723 v 39.3792 h -9.17147 v 13.14768 h 22.31915 v -65.67469 h -21.9343 l -12.18568,6.54186 v -6.54186 h -18.4069 z" /><path
     inkscape:connector-curvature="0"
     id="path3829"
     style="font-style:normal;font-variant:normal;font-weight:normal;font-stretch:normal;font-size:10px;line-height:1000%;font-family:NextExitFOT-Regular;-inkscape-font-specification:NextExitFOT-Regular;text-align:end;letter-spacing:0px;word-spacing:0px;text-anchor:end;fill:#000000;fill-opacity:1;stroke:none"
     d="m 271.29913,238.2926 h 28.9251 c 3.63431,0 6.73416,-1.28328 9.29954,-3.84801 2.56538,-2.56552 3.84814,-5.66536 3.84814,-9.29967 v -52.52701 h -42.07278 v 13.14781 h 28.9251 v 39.3792 h -28.9251 z" /><path
     inkscape:connector-curvature="0"
     id="path3831"
     style="font-style:normal;font-variant:normal;font-weight:normal;font-stretch:normal;font-size:10px;line-height:1000%;font-family:NextExitFOT-Regular;-inkscape-font-specification:NextExitFOT-Regular;text-align:end;letter-spacing:0px;word-spacing:0px;text-anchor:end;fill:#000000;fill-opacity:1;stroke:none"
     d="m 206.45811,185.76572 h 5.13091 l 3.39919,52.52688 h 23.02462 c 9.19262,0 14.38762,-4.38247 15.58487,-13.14768 l 7.88871,-52.52701 h -55.0283 z m 18.27872,0 h 21.67777 l -6.02881,39.3792 h -13.01948 z" /><path
     inkscape:connector-curvature="0"
     id="path3812"
     style="font-style:normal;font-variant:normal;font-weight:bold;font-stretch:normal;font-size:10px;line-height:1000%;font-family:'Helvetica 55 Roman';-inkscape-font-specification:'Helvetica 55 Roman, Bold';text-align:end;letter-spacing:0px;word-spacing:0px;writing-mode:lr-tb;text-anchor:end;fill:#000000;fill-opacity:1;stroke:none"
     d="m 173.17211,372.85369 c -0.69333,-5.54621 -2.95734,-9.78181 -6.79205,-12.7066 -3.76979,-2.88146 -8.33032,-4.34388 -13.6816,-4.38721 -7.3662,0.0865 -13.09665,2.48066 -17.19136,7.18202 -4.07307,4.70135 -6.13127,10.67013 -6.1746,17.90632 0.0433,7.01955 2.10153,12.83665 6.1746,17.45135 4.09471,4.74468 9.82516,7.16032 17.19136,7.24697 12.24082,-0.32479 19.20619,-6.80285 20.89613,-19.43371 h -10.13934 c -0.39002,3.18482 -1.47327,5.73051 -3.24978,7.63699 -1.81991,1.94988 -4.32225,2.94649 -7.50701,2.98982 -4.61472,-0.0865 -7.9295,-1.74403 -9.94434,-4.97217 -2.03655,-3.20645 -3.03315,-6.84618 -2.98981,-10.91925 -0.0433,-4.35474 0.95326,-8.12445 2.98981,-11.30926 2.01484,-3.24978 5.32962,-4.918 9.94434,-5.00472 2.64313,0.0466 4.95048,0.82336 6.92204,2.33989 1.90651,1.55994 3.05477,3.55314 3.44478,5.97956 z" /><path
     inkscape:connector-curvature="0"
     id="path3814"
     style="font-style:normal;font-variant:normal;font-weight:bold;font-stretch:normal;font-size:10px;line-height:1000%;font-family:'Helvetica 55 Roman';-inkscape-font-specification:'Helvetica 55 Roman, Bold';text-align:end;letter-spacing:0px;word-spacing:0px;writing-mode:lr-tb;text-anchor:end;fill:#000000;fill-opacity:1;stroke:none"
     d="m 220.97646,356.89725 h -10.43181 v 29.54058 c -4e-5,3.50981 -0.71498,6.08797 -2.14486,7.73449 -1.4516,1.71154 -4.01893,2.56732 -7.70199,2.56732 -2.03656,0 -3.70478,-0.3035 -5.00467,-0.90995 -1.3216,-0.62829 -2.33987,-1.40819 -3.0548,-2.33983 -0.62828,-1.01824 -1.07244,-2.12319 -1.33241,-3.3148 -0.26003,-1.21325 -0.39002,-2.45897 -0.38995,-3.73723 v -29.54058 h -10.46431 v 29.54058 c 0.17331,12.78247 6.92203,19.15204 20.24616,19.10871 13.30243,0 20.06198,-6.36957 20.27867,-19.10871 z" /><path
     inkscape:connector-curvature="0"
     id="path3816"
     style="font-style:normal;font-variant:normal;font-weight:bold;font-stretch:normal;font-size:10px;line-height:1000%;font-family:'Helvetica 55 Roman';-inkscape-font-specification:'Helvetica 55 Roman, Bold';text-align:end;letter-spacing:0px;word-spacing:0px;writing-mode:lr-tb;text-anchor:end;fill:#000000;fill-opacity:1;stroke:none"
     d="m 226.92357,388.64767 c 0.12998,5.80631 2.19902,10.06354 6.20709,12.77169 3.89973,2.75148 8.57942,4.12718 14.03908,4.12718 6.47787,-0.0466 11.39588,-1.50569 14.75403,-4.38721 3.3364,-2.83813 5.00462,-6.45623 5.00466,-10.85422 -0.0433,-2.70815 -0.5958,-4.92885 -1.65738,-6.66209 -1.10497,-1.73317 -2.45905,-3.08731 -4.06224,-4.06222 -1.60326,-1.01823 -3.16315,-1.74402 -4.67969,-2.17737 -1.53826,-0.45524 -2.77318,-0.76911 -3.70475,-0.94242 -5.76298,-1.42989 -9.60856,-2.58902 -11.53675,-3.47727 -0.97494,-0.47654 -1.6574,-1.00745 -2.04736,-1.59241 -0.39002,-0.56306 -0.58496,-1.26742 -0.58496,-2.11234 0.0433,-1.99321 0.8341,-3.41224 2.37235,-4.25723 1.42989,-0.75827 3.03311,-1.13744 4.80968,-1.13744 2.57814,-0.0466 4.74467,0.42263 6.49957,1.39741 1.7332,1.06162 2.68647,2.98981 2.85982,5.78461 h 10.13932 c -0.0867,-5.50295 -1.99323,-9.44597 -5.71962,-11.8292 -3.68312,-2.31813 -8.12449,-3.47726 -13.32412,-3.47726 -4.48472,0 -8.50362,1.18076 -12.0567,3.54222 -3.72643,2.38323 -5.63297,5.99047 -5.71963,10.82181 0,2.18822 0.4225,4.02975 1.26742,5.52465 0.80161,1.5166 1.87404,2.78396 3.21729,3.80226 1.3649,0.9749 2.8923,1.7982 4.5822,2.46981 1.68987,0.71494 3.39059,1.28911 5.10216,1.72239 3.68307,0.8016 6.92202,1.68992 9.71686,2.66482 1.38655,0.4985 2.48064,1.13744 3.28228,1.9174 0.75826,0.84493 1.1374,1.93903 1.13743,3.28226 -3e-5,1.19161 -0.29251,2.14489 -0.87744,2.85983 -0.62835,0.80159 -1.40827,1.41903 -2.33985,1.85237 -0.93163,0.45524 -1.92823,0.76912 -2.98981,0.94243 -1.06161,0.17305 -2.07988,0.26023 -3.05479,0.26023 -2.8815,0 -5.31883,-0.69324 -7.31202,-2.07986 -2.10154,-1.36492 -3.17397,-3.5964 -3.21729,-6.69456 z" /><path
     inkscape:connector-curvature="0"
     id="path3818"
     style="font-style:normal;font-variant:normal;font-weight:bold;font-stretch:normal;font-size:10px;line-height:1000%;font-family:'Helvetica 55 Roman';-inkscape-font-specification:'Helvetica 55 Roman, Bold';text-align:end;letter-spacing:0px;word-spacing:0px;writing-mode:lr-tb;text-anchor:end;fill:#000000;fill-opacity:1;stroke:none"
     d="m 283.59984,404.40917 h 10.43181 v -38.7375 h 14.26656 v -8.77442 h -38.93244 v 8.77442 h 14.23407 z" /><path
     inkscape:connector-curvature="0"
     id="path3820"
     style="font-style:normal;font-variant:normal;font-weight:bold;font-stretch:normal;font-size:10px;line-height:1000%;font-family:'Helvetica 55 Roman';-inkscape-font-specification:'Helvetica 55 Roman, Bold';text-align:end;letter-spacing:0px;word-spacing:0px;writing-mode:lr-tb;text-anchor:end;fill:#000000;fill-opacity:1;stroke:none"
     d="m 311.71049,380.84822 c 0.0433,7.01955 2.10152,12.83665 6.17459,17.45135 4.09472,4.74468 9.82516,7.16032 17.19137,7.24697 7.45281,-0.0865 13.19409,-2.50229 17.22386,-7.24697 4.02969,-4.6147 6.06622,-10.4318 6.1096,-17.45135 -0.0433,-7.23619 -2.07991,-13.20497 -6.1096,-17.90632 -4.02977,-4.70136 -9.77105,-7.09537 -17.22386,-7.18202 -7.36621,0.0865 -13.09665,2.48066 -17.19137,7.18202 -4.07307,4.70135 -6.13127,10.67013 -6.17459,17.90632 z m 10.43181,0 c -0.0433,-4.35474 0.95326,-8.12445 2.9898,-11.30926 2.01485,-3.24978 5.32963,-4.918 9.94435,-5.00472 4.70133,0.0865 8.0486,1.75494 10.04184,5.00472 1.9065,3.18481 2.85977,6.95452 2.85981,11.30926 -4e-5,4.07307 -0.95331,7.7128 -2.85981,10.91925 -1.99324,3.22814 -5.34051,4.88551 -10.04184,4.97217 -4.61472,-0.0865 -7.9295,-1.74403 -9.94435,-4.97217 -2.03654,-3.20645 -3.03315,-6.84618 -2.9898,-10.91925 z" /><path
     inkscape:connector-curvature="0"
     id="path3822"
     style="font-style:normal;font-variant:normal;font-weight:bold;font-stretch:normal;font-size:10px;line-height:1000%;font-family:'Helvetica 55 Roman';-inkscape-font-specification:'Helvetica 55 Roman, Bold';text-align:end;letter-spacing:0px;word-spacing:0px;writing-mode:lr-tb;text-anchor:end;fill:#000000;fill-opacity:1;stroke:none"
     d="m 365.49445,404.40917 h 9.78185 v -33.34283 h 0.12998 l 11.66674,33.34283 h 8.05947 l 11.63423,-33.66782 h 0.12998 v 33.66782 h 9.78185 v -47.51192 h -14.68903 l -10.5293,32.66037 h -0.12999 l -11.11427,-32.66037 h -14.72153 z" /><path
     inkscape:connector-curvature="0"
     id="path3824"
     style="font-style:normal;font-variant:normal;font-weight:bold;font-stretch:normal;font-size:10px;line-height:1000%;font-family:'Helvetica 55 Roman';-inkscape-font-specification:'Helvetica 55 Roman, Bold';text-align:end;letter-spacing:0px;word-spacing:0px;writing-mode:lr-tb;text-anchor:end;fill:#000000;fill-opacity:1;stroke:none"
     d="m 422.82067,388.64767 c 0.12998,5.80631 2.19902,10.06354 6.20709,12.77169 3.89973,2.75148 8.57942,4.12718 14.03907,4.12718 6.47788,-0.0466 11.39589,-1.50569 14.75403,-4.38721 3.33641,-2.83813 5.00463,-6.45623 5.00467,-10.85422 -0.0433,-2.70815 -0.5958,-4.92885 -1.65739,-6.66209 -1.10497,-1.73317 -2.45904,-3.08731 -4.06223,-4.06222 -1.60327,-1.01823 -3.16316,-1.74402 -4.67969,-2.17737 -1.53826,-0.45524 -2.77318,-0.76911 -3.70476,-0.94242 -5.76297,-1.42989 -9.60855,-2.58902 -11.53674,-3.47727 -0.97495,-0.47654 -1.65741,-1.00745 -2.04736,-1.59241 -0.39002,-0.56306 -0.58496,-1.26742 -0.58496,-2.11234 0.0433,-1.99321 0.8341,-3.41224 2.37234,-4.25723 1.4299,-0.75827 3.03312,-1.13744 4.80969,-1.13744 2.57814,-0.0466 4.74466,0.42263 6.49957,1.39741 1.73319,1.06162 2.68646,2.98981 2.85981,5.78461 h 10.13933 c -0.0867,-5.50295 -1.99324,-9.44597 -5.71962,-11.8292 -3.68312,-2.31813 -8.12449,-3.47726 -13.32412,-3.47726 -4.48473,0 -8.50362,1.18076 -12.0567,3.54222 -3.72643,2.38323 -5.63297,5.99047 -5.71963,10.82181 0,2.18822 0.4225,4.02975 1.26741,5.52465 0.80161,1.5166 1.87404,2.78396 3.2173,3.80226 1.3649,0.9749 2.89229,1.7982 4.58219,2.46981 1.68987,0.71494 3.3906,1.28911 5.10217,1.72239 3.68306,0.8016 6.92201,1.68992 9.71686,2.66482 1.38654,0.4985 2.48064,1.13744 3.28228,1.9174 0.75825,0.84493 1.1374,1.93903 1.13742,3.28226 -2e-5,1.19161 -0.29251,2.14489 -0.87744,2.85983 -0.62835,0.80159 -1.40827,1.41903 -2.33984,1.85237 -0.93163,0.45524 -1.92824,0.76912 -2.98981,0.94243 -1.06162,0.17305 -2.07988,0.26023 -3.05479,0.26023 -2.8815,0 -5.31884,-0.69324 -7.31202,-2.07986 -2.10154,-1.36492 -3.17397,-3.5964 -3.21729,-6.69456 z" /><path
     id="rect1093"
     style="fill:#000000;fill-opacity:1;stroke:none;stroke-width:0.59716535;stroke-linecap:square;stroke-linejoin:miter;stroke-miterlimit:4;stroke-dasharray:none;stroke-opacity:1;paint-order:markers stroke fill"
     d="m 127.57217,269.6549 c -14.59281,0 -26.3416,11.82768 -26.3416,26.52268 0,14.69497 11.74879,26.52602 26.3416,26.52602 h 338.30588 c 14.59281,0 26.3416,-11.83105 26.3416,-26.52602 0,-14.695 -11.74879,-26.52268 -26.3416,-26.52268 z"
     inkscape:connector-curvature="0"
     sodipodi:nodetypes="sssssss" /></svg>