<?xml version="1.0" encoding="UTF-8" standalone="no"?>
<svg
   xmlns:dc="http://purl.org/dc/elements/1.1/"
   xmlns:cc="http://creativecommons.org/ns#"
   xmlns:rdf="http://www.w3.org/1999/02/22-rdf-syntax-ns#"
   xmlns:svg="http://www.w3.org/2000/svg"
   xmlns="http://www.w3.org/2000/svg"
   xmlns:sodipodi="http://sodipodi.sourceforge.net/DTD/sodipodi-0.dtd"
   xmlns:inkscape="http://www.inkscape.org/namespaces/inkscape"
   inkscape:version="1.0 (4035a4fb49, 2020-05-01)"
   sodipodi:docname="902.svg"
   viewBox="0 0 400 399.99973"
   height="399.99973"
   width="400"
   id="svg1050"
   version="1.1">
  <metadata
     id="metadata1056">
    <rdf:RDF>
      <cc:Work
         rdf:about="">
        <dc:format>image/svg+xml</dc:format>
        <dc:type
           rdf:resource="http://purl.org/dc/dcmitype/StillImage" />
        <dc:title></dc:title>
      </cc:Work>
    </rdf:RDF>
  </metadata>
  <defs
     id="defs1054" />
  <sodipodi:namedview
     inkscape:current-layer="g1058"
     inkscape:window-maximized="1"
     inkscape:window-y="-9"
     inkscape:window-x="-9"
     inkscape:cy="267.26141"
     inkscape:cx="85.074605"
     inkscape:zoom="0.97816438"
     showgrid="false"
     id="namedview1052"
     inkscape:window-height="1001"
     inkscape:window-width="1920"
     inkscape:pageshadow="2"
     inkscape:pageopacity="0"
     guidetolerance="10"
     gridtolerance="10"
     objecttolerance="10"
     borderopacity="1"
     bordercolor="#666666"
     pagecolor="#ffffff" />
  <g
     transform="translate(-33.841797,-59.999992)"
     id="g1058"
     inkscape:label="Image"
     inkscape:groupmode="layer">
    <rect
       style="opacity:1;fill:#000000;stroke-width:1.15038"
       id="rect1064"
       width="399.9986"
       height="399.9986"
       x="33.843193"
       y="59.999992" />
    <rect
       y="68.695618"
       x="42.538815"
       height="382.60736"
       width="382.60736"
       id="rect1062"
       style="opacity:1;fill:#ff7200;fill-opacity:1;stroke-width:1.10036" />
    <path
       d="m 240.08895,117.89505 c -3.45132,-0.0247 -7.23925,1.73694 -9.09547,5.03857 L 81.172227,382.51472 c -0.864649,1.76708 -1.227623,3.30407 -1.238773,5.06194 0,6.14029 5.039149,10.65812 10.641417,10.65812 H 389.60635 c 5.60225,0 10.64142,-4.51783 10.64142,-10.65812 -0.0103,-1.75787 -0.37415,-3.29486 -1.23877,-5.06194 L 249.18774,122.93362 c -1.85621,-3.30163 -5.64749,-5.06327 -9.09879,-5.03857 z m -0.1536,51.44742 0.1536,0.26712 0.15692,-0.26712 114.3343,197.88962 H 125.60106 Z m 19.35623,64.95038 c -5.92432,0.0747 -9.79332,7.87006 -9.79332,7.87005 -0.19937,2.39201 -4.08693,1.49587 -4.08693,1.49587 l -4.58446,-3.68961 -13.03883,0.20034 -27.72377,15.6466 -2.39073,30.00097 c -0.2563,2.73297 2.54748,5.74129 3.35903,6.55114 l 2.28722,24.18109 -6.89838,38.73582 h -25.62689 c -1.71169,0 -3.08858,1.37691 -3.08858,3.08858 0,1.71166 1.37691,3.08858 3.08858,3.08858 h 141.32683 c 1.71165,0 3.08858,-1.37692 3.08858,-3.08858 0,-1.71167 -1.37693,-3.08858 -3.08858,-3.08858 h -0.83475 c 0,0 -7.3309,-1.2447 -13.60312,-14.63487 l -5.84659,-5.496 -4.37076,-5.07529 c 0,0 -8.87928,-8.66722 -19.3095,1.76299 0,0 -1.19393,0.90148 -3.01845,2.40742 l -22.91561,-27.90074 c 0,0 -1.79447,-2.69302 -0.10017,-5.68299 l 9.46942,-21.32624 c 9.06959,-6.97661 4.18712,-17.54315 4.18712,-17.54315 -2.5913,-6.3786 0.59772,-7.17704 2.59106,-7.47603 1.99333,0.39866 13.85435,-4.58385 8.07373,-16.34444 -2.59443,-2.72679 -5.00934,-3.70994 -7.15215,-3.68293 z m -36.23492,20.88549 c 0.73499,-0.0217 1.14936,0.31397 1.94665,1.65949 l -2.11359,4.16708 -3.38909,0.22038 c -0.14942,-1.49501 1.35089,-5.98152 3.55603,-6.04695 z m 11.67318,28.84903 c 0.43148,-0.007 0.31446,0.0124 0.93826,0.10351 0.29952,4.45752 -1.17868,4.77143 -1.17868,4.77143 0,0 -3.27862,0.97431 -2.01008,-3.85322 0.32095,-0.55445 0.1714,-0.98986 2.2505,-1.02172 z m -14.46125,24.11431 c 0.66444,0.0379 1.43754,0.40734 2.08689,1.15196 4.0365,4.93347 4.1646,9.47142 3.01845,12.51125 -0.84716,2.29229 -10.65988,16.18952 -10.56127,28.51512 0.24915,1.89366 -3.031,2.24253 -3.52933,-0.64775 -0.54815,-2.84049 5.51308,-22.3354 6.9084,-27.76719 0,0 3.6384,-4.93518 0.79134,-11.39938 -0.61997,-1.56853 0.17812,-2.42706 1.28552,-2.36401 z m 22.80209,12.72496 2.95835,0.18031 c 0.86932,0.20062 9.4927,7.75188 12.60142,18.93884 -4.67417,4.40984 -9.85887,10.02214 -12.53129,15.29933 H 234.4527 c -2.41106,-1.66483 -5.47489,-4.61721 -3.36572,-8.01028 z"
       style="display:inline;opacity:1;fill:#c5cfd0;fill-opacity:1;fill-rule:nonzero;stroke:none;stroke-width:0.484393"
       id="path1287-2" />
    <path
       d="M 411.73729,60.000005 33.841797,438.05243 v 21.9473 H 59.061319 L 433.84152,85.062594 V 60.000005 Z"
       style="opacity:1;fill:#000000;fill-opacity:1;stroke-width:0.854786"
       id="rect1577" />
  </g>
</svg>
