<?xml version="1.0" encoding="UTF-8" standalone="no"?>
<svg
   xmlns:dc="http://purl.org/dc/elements/1.1/"
   xmlns:cc="http://creativecommons.org/ns#"
   xmlns:rdf="http://www.w3.org/1999/02/22-rdf-syntax-ns#"
   xmlns:svg="http://www.w3.org/2000/svg"
   xmlns="http://www.w3.org/2000/svg"
   xmlns:sodipodi="http://sodipodi.sourceforge.net/DTD/sodipodi-0.dtd"
   xmlns:inkscape="http://www.inkscape.org/namespaces/inkscape"
   inkscape:version="1.0 (4035a4fb49, 2020-05-01)"
   sodipodi:docname="Israel_road_sign_223.svg"
   viewBox="0 0 400.50054 342.18601"
   height="342.186"
   width="400.50055"
   id="svg10224"
   version="1.1">
  <metadata
     id="metadata10230">
    <rdf:RDF>
      <cc:Work
         rdf:about="">
        <dc:format>image/svg+xml</dc:format>
        <dc:type
           rdf:resource="http://purl.org/dc/dcmitype/StillImage" />
      </cc:Work>
    </rdf:RDF>
  </metadata>
  <defs
     id="defs10228" />
  <sodipodi:namedview
     inkscape:document-rotation="0"
     inkscape:bbox-nodes="true"
     inkscape:snap-bbox-edge-midpoints="true"
     inkscape:snap-bbox="true"
     inkscape:snap-smooth-nodes="true"
     inkscape:snap-intersection-paths="true"
     inkscape:guide-bbox="true"
     inkscape:pagecheckerboard="0"
     inkscape:current-layer="svg10224"
     inkscape:window-maximized="1"
     inkscape:window-y="-9"
     inkscape:window-x="-9"
     inkscape:cy="142.97699"
     inkscape:cx="49.730727"
     inkscape:zoom="2"
     showguides="true"
     showgrid="false"
     id="namedview10226"
     inkscape:window-height="1001"
     inkscape:window-width="1920"
     inkscape:pageshadow="2"
     inkscape:pageopacity="0"
     guidetolerance="10"
     gridtolerance="10"
     objecttolerance="10"
     borderopacity="1"
     bordercolor="#666666"
     pagecolor="#ffffff" />
  <path
     sodipodi:nodetypes="ccccc"
     inkscape:connector-curvature="0"
     d="M 0.25,0.25 V 341.936 H 400.25056 V 0.25 Z"
     style="fill:#070fdb;fill-opacity:1;stroke:none;stroke-width:0.5;stroke-miterlimit:4;stroke-dasharray:none;stroke-opacity:1"
     id="rect10234" />
  <path
     d="M 8.7003795,9.6550249 V 334.7884 H 392.14372 V 9.6550249 Z M 21.5822,20.692376 H 380.49941 V 321.29371 H 21.5822 Z"
     style="fill:#ffffff;fill-opacity:1;stroke:none;stroke-width:21.1609;stroke-miterlimit:4;stroke-dasharray:none;stroke-opacity:1"
     id="path851" />
  <g
     style="stroke:#000000;stroke-width:6.25308;stroke-miterlimit:4;stroke-dasharray:none;stroke-opacity:1"
     id="g9621"
     inkscape:label="20-ב_Israely_road_sign"
     transform="matrix(-0.5643108,0,0,-0.5643108,-207.86991,289.18374)">
    <g
       style="stroke:#000000;stroke-width:6.25308;stroke-miterlimit:4;stroke-dasharray:none;stroke-opacity:1"
       id="g9623">
      <g
         id="g9629"
         style="fill:#006f6f;fill-opacity:0.341709;stroke:#000000;stroke-width:6.25308;stroke-miterlimit:4;stroke-dasharray:none;stroke-opacity:1" />
      <g
         id="g9625"
         style="fill:#c0111e;fill-opacity:0.291457;stroke:#000000;stroke-width:5.53839;stroke-miterlimit:4;stroke-dasharray:none;stroke-opacity:1"
         transform="matrix(1.129043,0,0,1.129043,-973.55782,-39.360054)">
        <g
           style="opacity:1"
           transform="matrix(-1.5695355,0,0,-1.5695355,535.63427,488.35321)"
           id="g19005" />
      </g>
      <path
         sodipodi:nodetypes="cccccssasccacaacaaaaacaascaaaaaaccaacaaaaacccccaccssssaccc"
         id="path84"
         d="m -888.5718,68.512343 c -1.1646,-10.087997 1.876,-17.773058 5.26265,-25.260447 v 0 l 1.40335,-30.523025 1.4034,-23.155418 c -3.01175,-9.520983 5.4465,-9.554724 10.52525,-9.823502 5.8393,-0.309024 12.0419,-0.267406 17.54225,0 1.56725,0.07632 1.81415,2.668283 2.10505,4.210089 0.2394,1.269322 0.4386,2.836797 -0.3508,3.859223 -2.95665,3.8293793 -10.87615,13.6827512 -10.87615,13.6827512 l 2.105,131.2139558 c 0,0 1.31445,3.38168 2.80675,3.50838 1.4032,0.11914 3.15765,-2.80672 3.15765,-2.80672 0,0 0.8616,-9.93197 2.105,-14.73526 1.72555,-6.66523 5.0507,-12.8128 7.36785,-19.296167 2.6136,-7.313136 7.3677,-22.102877 7.3677,-22.102877 0,0 -1.81825,-7.227778 -0.47315,-10.441878 0.60745,-1.451372 1.99115,-2.741367 3.50845,-3.157574 2.30035,-0.630955 4.8926,0.318635 7.0169,1.403382 3.03005,1.547213 6.7057,3.622949 7.48995,6.933471 0.4607,1.944564 -0.91655,4.006897 -2.10505,5.613449 -1.1407,1.541963 -4.56095,3.50838 -4.56095,3.50838 0,0 -0.5026,31.569774 -4.561,46.661654 -3.80525,14.15064 -9.4217,28.29559 -18.24395,39.9957 -3.79545,5.03369 -8.8831,9.20065 -14.3846,12.27937 -9.54565,5.3419 -9.85355,7.2875 -2.45595,23.8571 2.18505,5.92972 2.31505,12.83526 0.70175,18.94531 -1.19305,4.51864 -3.43865,9.39781 -7.3677,11.92854 -4.6585,3.00059 -11.0006,2.86252 -16.48965,2.10503 -4.15295,-0.57304 -8.72575,-1.83932 -11.57785,-4.91172 -3.78065,-4.07261 -4.8875,-10.25049 -5.3532,-15.78779 -0.3871,-4.60298 0.5921,-9.35065 2.19555,-13.68273 1.4759,-3.98772 4.52805,-7.71726 6.666,-10.87603 v -7.01678 c -6.5425,-2.01454 -13.477,-0.83237 -19.2964,-3.85925 -12.47535,-6.4889 -22.8729,-17.32116 -30.5235,-29.11966 -9.11645,-14.05907 -16.84055,-47.36334 -16.84055,-47.36334 0,0 -2.78145,-5.317589 -4.56085,-7.718454 -1.13375,-1.529461 -3.16915,-2.435834 -3.8594,-4.210064 -0.9327,-2.397814 -1.5239,-5.645481 0,-7.718474 2.10465,-2.863015 6.633,-3.471786 10.17455,-3.180832 2.08845,0.171596 4.4178,1.109126 5.6135,2.829982 3.02145,4.348352 1.7542,15.787772 1.7542,15.787772 l 28.4184,44.55661 1.50975,0.35084 v -8.77099 l -0.4572,-58.590174 c 0,0 -3.10565,-10.842476 -6.4004,-15.270332 -2.68985,-3.614988 -10.44015,-8.586769 -10.44015,-8.586769 h -43.5046 c -3.78855,-3.700318 -5.586,-10.080942 -5.4609,-16.2164 0.1533,-7.506525 -0.4127,-15.018184 6.8605,-16.060817 2.50435,-0.359021 3.78975,6.243847 6.3188,6.315118 22.526,0.634881 41.418,-0.901406 59.99445,0.877083 6.7089,0.642321 9.0269,10.092611 12.63035,15.787757 4.139,6.541424 10.17455,20.874981 10.17455,20.874981 l 0.3508,3.535784 z"
         style="opacity:1;fill:#ffffff;fill-opacity:1;stroke:none;stroke-width:2.74543px;stroke-linecap:butt;stroke-linejoin:miter;stroke-opacity:1" />
      <path
         style="opacity:1;fill:#ffffff;fill-opacity:1;stroke:none;stroke-width:2.74543px;stroke-linecap:butt;stroke-linejoin:miter;stroke-opacity:1"
         d="m -528.25788,7.2908616 c -7.80405,-0.6038288 -17.46388,0.5392301 -25.43587,1.0525158 -2.80393,0.1806485 -2.09199,5.4553316 -1.75419,8.2447156 0.48417,3.998223 5.26259,10.876017 5.26259,10.876017 l 1.7542,69.817061 c 0,0 -13.0622,67.489159 -14.91068,66.308649 -3.54855,-2.2662 -17.54197,-64.905299 -17.54197,-64.905299 l -1.22793,-6.490519 9.12182,-73.851717 c 0,0 -0.55947,-2.995125 -1.40337,-4.21006 -4.52365,-6.5127364 -11.07186,-12.2121914 -18.52184,-14.92829883 -5.27499,-1.92317367 -11.84303,-2.91051187 -16.84028,-0.35086607 -2.84389,1.45666875 -4.42802,4.8624836 -5.43801,7.8939041 -0.46244,1.3879788 -0.58484,2.9809314 -0.17543,4.3854938 2.16553,7.429463 13.24675,19.065716 13.24675,19.065716 0,0 -9.48787,32.559475 -15.24907,49.716458 -0.87483,2.605276 0,8.244716 0,8.244716 l 7.89393,76.482982 1.05252,18.06826 -1.40337,47.88956 -0.35083,42.80242 c 0,0 -0.75109,2.37942 -1.75418,2.45588 -3.17476,0.24215 -6.66597,-6.84137 -6.66597,-6.84137 l -11.75313,-32.27722 c 0,0 1.0794,-17.32398 0.52627,-25.96211 -0.50625,-7.90602 -3.50841,-23.50627 -3.50841,-23.50627 l -0.17544,-12.98105 c 0,0 4.39815,-2.65756 5.08717,-4.91176 0.82135,-2.68703 0.23117,-6.25647 -1.75419,-8.24472 -2.36626,-2.36971 -6.48042,-2.30086 -9.82353,-2.10503 -2.89815,0.16968 -6.60133,0.41352 -8.24471,2.80672 -1.68943,2.4602 0.35083,8.94638 0.35083,8.94638 -5.07347,25.839 -2.8067,54.1076 -2.8067,80.86852 l 20.52411,65.25614 c 0,0 3.68641,14.51642 7.1922,21.05034 1.36028,2.53523 2.95475,5.12337 5.26257,6.84137 2.76139,2.05562 6.30958,2.84425 9.64811,3.68382 9.43651,2.37312 28.95215,3.72671 28.95215,3.72671 0,0 3.06296,3.50717 2.8067,5.57057 -0.49581,3.99211 -5.51346,5.88469 -7.90177,9.12182 -3.14991,4.26938 -6.93849,8.41277 -8.42013,13.50731 -1.89428,6.51329 -2.94295,14.15579 -0.17544,20.34869 3.17791,7.11124 10.47529,12.16111 17.54197,15.4369 3.27112,1.51637 7.09512,1.58312 10.70062,1.57879 4.73018,-0.006 10.02881,0.41227 14.03357,-2.10503 8.80156,-5.53238 16.30472,-15.46466 17.54198,-25.78668 0.65403,-5.45649 -3.31666,-10.52886 -5.78886,-15.43695 -2.78867,-5.53641 -8.73672,-9.56618 -10.10495,-15.61235 -0.40029,-1.7688 0.70166,-5.39516 0.70166,-5.39516 0,0 18.53323,-1.98691 26.94525,-5.65629 9.65105,-4.20983 20.59605,-9.08275 25.7867,-18.24366 15.62182,-27.57056 24.22306,-64.4742 32.95164,-97.72439 2.24428,-8.54928 4.96161,-26.0485 4.96161,-26.0485 0,0 6.75097,-6.77808 8.18668,-11.16363 1.10629,-3.37936 1.66724,-7.52677 0,-10.6675 -1.59159,-2.99821 -5.17203,-4.76931 -8.43476,-5.70586 -4.45393,-1.27849 -10.1706,-2.26416 -13.89252,0.49615 -3.95888,2.93605 -3.14483,9.387 -4.79484,13.98742 -4.71667,13.15043 -8.57866,26.64405 -13.31509,39.84617 -5.79812,16.16144 -14.24376,35.21117 -18.35799,48.1277 -0.42738,1.34181 -3.74907,1.07989 -4.21737,-0.24817 -2.59577,-7.36175 -2.78027,-14.8264 -3.45011,-22.3273 -2.39862,-26.85955 -2.00766,-80.87442 -2.00766,-80.87442 l -2.97699,-9.42706 2.72891,-79.137825 -0.49616,-9.923233 -9.67517,-51.848922 c 3.13118,-4.15993 5.74196,-9.377125 5.45779,-13.396377 -0.35572,-2.735876 -2.72071,-5.9974467 -5.47139,-6.2102714 z"
         id="path1435"
         sodipodi:nodetypes="ssaccscccaaaaacscccccsccaccaaaacccssscaaaaaaaaaacasacaaaassssaccccccs" />
      <circle
         transform="scale(-1)"
         style="opacity:1;fill:#ffffff;fill-opacity:1;stroke:none;stroke-width:17.1673"
         id="path2260"
         cx="750.02997"
         cy="-8.3535099"
         r="30.334236" />
      <path
         id="path59192"
         style="font-size:579.36px;line-height:1.15;font-family:'Highway Gothic Expanded';-inkscape-font-specification:'Highway Gothic Expanded, Normal';text-align:center;text-anchor:middle;opacity:1;fill:#ffffff;fill-opacity:1;fill-rule:evenodd;stroke:none;stroke-width:56.9288;stroke-linecap:square;stroke-opacity:0.757085;paint-order:stroke markers fill"
         d="m -796.7739,439.6159 c 7.8516,0 13.481,-9.26398 18.22085,-15.52349 l 35.44424,-46.81173 c 0,0 6.90885,-7.05524 8.96018,-10.49373 2.05141,-3.4385 3.35134,-10.1345 3.35134,-10.1345 V 314.8758 c 0,-7.82728 -6.28462,-14.12815 -14.10252,-14.16683 v -29.65278 c 0,-5.34721 -4.30443,-9.65191 -9.65187,-9.65191 h -12.72992 c -5.34725,0 -9.65205,4.3047 -9.65205,9.65191 v 29.64739 H -958.1561 v -29.64739 c 0,-5.34721 -4.29955,-9.65191 -9.6464,-9.65191 h -12.7355 c -5.3472,0 -9.64675,4.3047 -9.64675,9.65191 v 29.7064 c -7.2744,0.61619 -12.95505,6.67384 -12.95505,14.11321 v 37.02576 c 0,0 0.081,7.46066 1.0509,11.00854 0.9657,3.54815 8.7994,11.42678 8.7994,11.42678 l 37.75565,51.55722 c 4.63895,6.33471 10.51945,13.7218 18.37105,13.7218 z m -1.31385,-8.83152 h -1.2011 -135.107 -1.1958 c -1.90475,0 -3.73775,-0.7351 -5.4802,-1.89818 -1.0137,-0.62421 -1.931,-1.38252 -2.72945,-2.25748 -3.53185,-3.38358 -6.57975,-8.12328 -8.8691,-11.54475 l -16.17795,-24.16727 c -3.92155,-5.86046 -4.01645,-11.5662 3.03505,-11.5662 h 31.41745 135.107 31.41745 c 7.0513,0 6.9566,5.70574 3.03495,11.5662 l -16.17785,24.16727 c -2.2888,3.42147 -5.33755,8.16117 -8.8691,11.54475 -0.7976,0.87496 -1.71195,1.63327 -2.72405,2.25748 -1.742,1.16308 -3.57525,1.89818 -5.4803,1.89818 z m 42.3725,-71.6278 c -7.0739,10e-4 -12.81205,-5.73103 -12.81045,-12.80485 6e-4,-7.07222 5.73805,-12.80668 12.81045,-12.80483 7.07056,5.3e-4 12.79893,5.73424 12.79947,12.80483 0.001,7.07215 -5.72735,12.80429 -12.79947,12.80485 z m -222.9727,0 c -7.0723,-5.6e-4 -12.8014,-5.7327 -12.7997,-12.80485 6e-4,-7.07059 5.729,-12.8043 12.7997,-12.80483 7.0708,5.7e-4 12.80445,5.73427 12.80495,12.80483 0,7.07212 -5.73275,12.80428 -12.80495,12.80485 z m 164.5725,-5.68389 h -106.1402 c -3.02965,-6.50038 -6.8905,-18.79441 -6.8905,-18.79441 h 0.022 c 0,-0.0292 -0.053,-0.0536 -0.053,-0.0804 0,-1.88065 1.513,-3.39426 3.39425,-3.39426 h 112.65 c 1.8807,0 3.39435,1.51308 3.39435,3.39426 0,0.003 -0.027,0.003 -0.027,0.0103 z m 64.91522,-33.0953 h -236.52832 v -9.60366 h 236.52832 z" />
    </g>
  </g>
</svg>
