<?xml version="1.0" encoding="UTF-8" standalone="no"?>
<svg
   inkscape:version="1.2.2 (732a01da63, 2022-12-09)"
   sodipodi:docname="Israel_road_sign_152b.svg"
   id="svg3522"
   version="1.1"
   xml:space="preserve"
   width="568.12463"
   height="497.228"
   viewBox="0 0 568.12463 497.228"
   xmlns:inkscape="http://www.inkscape.org/namespaces/inkscape"
   xmlns:sodipodi="http://sodipodi.sourceforge.net/DTD/sodipodi-0.dtd"
   xmlns="http://www.w3.org/2000/svg"
   xmlns:svg="http://www.w3.org/2000/svg"
   xmlns:rdf="http://www.w3.org/1999/02/22-rdf-syntax-ns#"
   xmlns:cc="http://creativecommons.org/ns#"
   xmlns:dc="http://purl.org/dc/elements/1.1/"><sodipodi:namedview
     inkscape:document-rotation="0"
     inkscape:object-paths="false"
     inkscape:snap-global="true"
     width="568.125px"
     inkscape:current-layer="svg3522"
     inkscape:window-maximized="1"
     inkscape:window-y="-9"
     inkscape:window-x="-9"
     inkscape:window-height="991"
     inkscape:window-width="1920"
     inkscape:cy="356.5"
     inkscape:cx="252.5"
     inkscape:zoom="2"
     inkscape:bbox-nodes="true"
     inkscape:snap-bbox-edge-midpoints="true"
     inkscape:snap-bbox="true"
     inkscape:snap-smooth-nodes="true"
     inkscape:snap-intersection-paths="true"
     inkscape:guide-bbox="true"
     showguides="true"
     showgrid="false"
     inkscape:pagecheckerboard="true"
     inkscape:pageopacity="0.0"
     inkscape:pageshadow="2"
     borderopacity="1.0"
     bordercolor="#666666"
     pagecolor="#ffffff"
     id="namedview11"
     inkscape:showpageshadow="2"
     inkscape:deskcolor="#d1d1d1" /><metadata
     id="metadata3528"><rdf:RDF><cc:Work
         rdf:about=""><dc:format>image/svg+xml</dc:format><dc:type
           rdf:resource="http://purl.org/dc/dcmitype/StillImage" /></cc:Work></rdf:RDF></metadata><defs
     id="defs3526" /><g
     transform="matrix(-1,0,0,1,568.12466,0)"
     id="g5565"><path
       id="rect2419"
       style="display:inline;fill:#ffffff;fill-opacity:1;stroke-width:1.41526;stroke-linecap:round"
       d="M 284.06233,42.768626 519.25791,454.45937 H 48.866745 Z"
       sodipodi:nodetypes="cccc" /><path
       id="path1287-2"
       style="display:inline;fill:#c0111e;fill-opacity:1;fill-rule:nonzero;stroke:none;stroke-width:0.859147"
       d="M 284.06233,4.5425685e-4 C 277.94091,-0.04336226 271.21873,3.083666 267.92647,8.9396153 L 2.1975383,469.35001 C 0.66396013,472.48418 0.01976039,475.20891 0,478.32676 0,489.21753 8.9379258,497.228 18.874395,497.228 H 549.25027 c 9.93647,0 18.87439,-8.01047 18.87439,-18.90124 -0.0197,-3.11785 -0.66396,-5.84258 -2.19753,-8.97675 L 300.19819,8.9396153 C 296.90594,3.083666 290.18376,-0.04336226 284.06233,4.5425685e-4 Z m 0,90.77454274315 L 487.1272,442.24256 H 80.997471 Z"
       sodipodi:nodetypes="cccccccccccccc" /></g><path
     id="path30984-6"
     style="opacity:1;fill:#000000;stroke-width:13.3355"
     d="m 182.05178,322.05241 c -14.79787,0 -22.38673,6.93911 -27.82865,11.54325 -0.35425,0.28695 -1.16866,0.73584 -2.17278,1.23851 l 7.01283,12.15155 c 0.73898,-0.49089 1.4565,-1.00387 2.12934,-1.56981 6.15802,-5.11583 8.73453,-8.92488 20.85926,-8.92488 11.1701,0 16.65826,3.69297 23.77087,8.24034 7.11264,4.49073 15.80039,9.77784 29.45271,9.77784 13.55699,0 21.91232,-5.28681 28.40436,-9.66367 6.49216,-4.377 11.26438,-7.78425 22.43456,-7.78425 6.57908,0 10.59183,1.15052 13.98767,2.97134 1.8612,1.09038 3.51353,2.39774 5.6385,3.76447 0.431,0.3227 0.83042,0.59809 1.28199,0.9345 5.42955,3.99496 12.71594,8.90605 24.49331,9.63118 0.94393,0.0738 1.90524,0.13362 2.90618,0.14725 0.76418,0.0525 1.62039,0.11664 2.57473,0 0.33321,0 0.76945,-0.0526 1.10281,-0.0526 0.48667,-0.0525 1.03116,-0.15256 1.5372,-0.21156 1.17052,-0.11888 2.31133,-0.27756 3.41683,-0.46674 0.60548,-0.10528 1.19542,-0.21687 1.80343,-0.34269 0.15478,-0.0314 0.31323,-0.0632 0.4667,-0.0946 1.27581,-0.27671 2.54269,-0.58028 3.76448,-0.97233 0.13139,-0.0421 0.25972,-0.0946 0.39101,-0.14085 6.36815,-1.97945 11.58679,-4.8924 16.43211,-7.59408 0.0223,-0.0111 0.0424,-0.0223 0.0531,-0.0223 0.0105,-0.009 0.0223,-0.0223 0.0424,-0.0223 1.03215,-0.57608 2.12346,-1.17807 3.12343,-1.71648 3.3892,-1.81904 6.96791,-3.46738 10.50022,-4.66078 v -0.37421 c 1.85766,-0.34898 4.0097,-0.57606 6.73592,-0.57606 10.71619,0 16.08448,2.71782 22.78216,6.9531 l 6.92585,-11.99945 c -0.13586,-0.084 -0.26419,-0.16954 -0.40155,-0.25556 -7.11251,-4.49071 -15.65382,-9.1368 -29.30603,-9.1368 -12.14596,0 -13.69928,1.95013 -21.87507,6.75212 -0.10516,0.0526 -0.22191,0.11162 -0.32591,0.16842 -7.00941,3.78642 -12.65441,7.42421 -20.0118,9.20195 -0.84407,0.17901 -1.68157,0.36896 -2.54761,0.51087 -0.30483,0.0526 -0.61282,0.0946 -0.92396,0.14087 -0.92611,0.1367 -1.85187,0.22299 -2.77584,0.31532 -1.12794,0.084 -2.25605,0.17371 -3.48203,0.17371 -1.12097,0 -2.11747,-0.0526 -3.1017,-0.11886 -0.48881,-0.0421 -0.98286,-0.0738 -1.47753,-0.11998 -0.50032,-0.0526 -0.96707,-0.12194 -1.43402,-0.19043 -0.43621,-0.0632 -0.87244,-0.10634 -1.30922,-0.18511 -1.64731,-0.31222 -3.07216,-0.7558 -4.38907,-1.27657 -0.27781,-0.11246 -0.56238,-0.19347 -0.83676,-0.32058 -0.33423,-0.14727 -0.64122,-0.31852 -0.96179,-0.47829 -0.48881,-0.24832 -0.98074,-0.49407 -1.46122,-0.76631 -2.02502,-1.17964 -3.88243,-2.59272 -5.98624,-4.16097 -1.86709,-1.39207 -3.97373,-2.88871 -6.36633,-4.29673 -0.0946,-0.0632 -0.19876,-0.13892 -0.28803,-0.1957 -0.34372,-0.21575 -0.58339,-0.31538 -0.90192,-0.50566 -0.0421,-0.0223 -0.0632,-0.0314 -0.0946,-0.0525 -0.0111,-0.009 -0.0223,-0.0223 -0.0421,-0.0223 -2.29345,-1.35601 -4.14101,-2.16391 -6.26857,-2.72137 -3.75932,-1.26129 -8.1425,-2.09676 -13.39555,-2.09676 -13.60457,0 -21.8647,5.34649 -28.40434,9.72332 -6.4921,4.37713 -11.2645,7.78428 -22.43459,7.78428 -11.16999,0 -16.66373,-3.63571 -23.77628,-8.12641 -7.11257,-4.4907 -15.79484,-9.89185 -29.44737,-9.89185 z m 0,35.39008 c -14.79787,0 -22.38673,6.93899 -27.82865,11.54325 -0.24192,0.19682 -0.76525,0.49614 -1.32543,0.80413 l 6.95312,12.04298 c 0.45723,-0.33111 0.91136,-0.66436 1.3417,-1.027 6.15802,-5.11596 8.73453,-8.92497 20.85926,-8.92497 11.1701,0 16.65826,3.69299 23.77087,8.24045 7.11264,4.49071 15.80039,9.77783 29.45271,9.77783 13.55699,0 21.91232,-5.28669 28.40436,-9.66368 6.49216,-4.37697 11.26438,-7.78424 22.43456,-7.78424 6.57908,0 10.59183,1.15051 13.98767,2.97135 1.8612,1.0904 3.51353,2.39772 5.6385,3.76446 0.431,0.3227 0.83042,0.59812 1.28199,0.93449 5.42955,3.995 12.71594,8.90609 24.49331,9.63118 0.94393,0.0737 1.90524,0.13362 2.90618,0.14615 0.76418,0.0632 1.62039,0.11665 2.57473,0 0.33321,0 0.76945,-0.0525 1.10281,-0.0525 0.48667,-0.0525 1.03116,-0.15255 1.5372,-0.21158 1.17052,-0.11776 2.31133,-0.27754 3.41683,-0.46672 0.60548,-0.10528 1.19542,-0.21686 1.80343,-0.34267 0.15478,-0.0314 0.31323,-0.0632 0.4667,-0.0946 1.27581,-0.27561 2.54269,-0.58027 3.76448,-0.97235 0.13139,-0.0421 0.25972,-0.0946 0.39101,-0.14087 6.36815,-1.97959 11.58679,-4.89249 16.43211,-7.5941 0.0223,-0.0111 0.0424,-0.0223 0.0531,-0.0223 0.0105,-0.009 0.0223,-0.0223 0.0424,-0.0223 1.03215,-0.57605 2.12346,-1.17805 3.12343,-1.71657 3.3892,-1.81895 6.96791,-3.46742 10.50022,-4.66072 v -0.37529 c 1.85766,-0.34896 4.0097,-0.57598 6.73592,-0.57598 10.2817,0 15.64086,2.50533 21.97277,6.44789 l 6.92586,-11.99957 c -7.03389,-4.41136 -15.49978,-8.88684 -28.89863,-8.88684 -12.14596,0 -13.69928,1.95005 -21.87507,6.75199 -0.10516,0.0526 -0.22191,0.11161 -0.32591,0.16842 -7.00939,3.78651 -12.6544,7.42422 -20.01178,9.20194 -0.84407,0.17899 -1.68157,0.36897 -2.54763,0.51088 -0.30481,0.0525 -0.61281,0.0946 -0.92397,0.14198 -0.9261,0.13669 -1.85185,0.22298 -2.77585,0.31537 -1.12791,0.084 -2.25601,0.17371 -3.48199,0.17371 -1.12099,0 -2.11747,-0.0525 -3.10171,-0.11998 -0.48881,-0.0421 -0.98282,-0.0735 -1.47752,-0.11998 -0.50034,-0.0525 -0.9671,-0.12221 -1.43402,-0.1904 -0.43623,-0.0632 -0.87245,-0.10529 -1.30922,-0.18513 -1.64731,-0.31218 -3.07217,-0.75578 -4.38907,-1.27658 -0.27783,-0.11162 -0.56239,-0.19347 -0.83675,-0.32058 -0.33428,-0.14725 -0.64123,-0.31849 -0.96181,-0.47829 -0.48881,-0.24832 -0.98074,-0.49509 -1.46124,-0.76631 -2.02499,-1.1796 -3.88242,-2.59272 -5.98622,-4.16097 -1.86709,-1.39194 -3.97376,-2.88871 -6.36632,-4.29675 -0.0946,-0.0632 -0.19875,-0.13891 -0.28803,-0.19571 -0.34373,-0.21573 -0.5834,-0.31532 -0.90192,-0.50559 -0.0421,-0.0224 -0.0632,-0.0314 -0.0946,-0.0526 -0.0112,-0.009 -0.0223,-0.0111 -0.0421,-0.0223 -2.29345,-1.356 -4.14099,-2.16404 -6.26857,-2.72146 -3.75934,-1.26131 -8.1425,-2.09679 -13.39554,-2.09679 -13.6046,0 -21.86471,5.34659 -28.40437,9.72346 -6.49207,4.377 -11.2645,7.78425 -22.43456,7.78425 -11.17002,0 -16.66374,-3.63568 -23.77627,-8.12639 -7.11258,-4.49076 -15.79484,-9.89188 -29.44741,-9.89188 z m 0,33.37475 c -14.79787,0 -22.38673,6.93901 -27.82865,11.54326 -0.15255,0.12417 -0.5529,0.33424 -0.83673,0.5056 l 6.92598,11.98863 c 0.29432,-0.2241 0.59706,-0.43622 0.87984,-0.67381 6.15798,-5.11593 8.73449,-8.92497 20.85925,-8.92497 11.17009,0 16.65826,3.69299 23.77082,8.24046 7.11267,4.49071 15.80045,9.7778 29.45274,9.7778 13.55699,0 21.9123,-5.28667 28.4044,-9.66364 6.49213,-4.37698 11.26435,-7.78428 22.43455,-7.78428 6.57909,0 10.59185,1.15053 13.98762,2.97137 1.86125,1.09039 3.51358,2.39773 5.63853,3.76449 0.43098,0.32268 0.83043,0.59808 1.28202,0.93448 5.42953,3.995 12.71592,8.90606 24.49327,9.63115 0.94393,0.0738 1.90522,0.13362 2.90621,0.14614 0.76416,0.0632 1.62035,0.11665 2.57472,0 0.33324,0 0.76946,-0.0526 1.1028,-0.0526 0.48671,-0.0525 1.03118,-0.15256 1.53722,-0.21157 1.1705,-0.11887 2.31133,-0.27783 3.41683,-0.46672 0.60547,-0.10528 1.19542,-0.21687 1.80342,-0.34266 0.15479,-0.0314 0.31324,-0.0632 0.46672,-0.0946 1.27579,-0.27671 2.54269,-0.58025 3.76445,-0.97233 0.1314,-0.0421 0.25973,-0.0946 0.39103,-0.14085 6.36814,-1.97958 11.58677,-4.89247 16.43208,-7.59411 0.0223,-0.0111 0.0414,-0.0223 0.052,-0.0223 0.0108,-0.009 0.0223,-0.0223 0.0424,-0.0223 1.03224,-0.57605 2.12346,-1.17804 3.12341,-1.71657 3.38921,-1.81896 6.96793,-3.46741 10.50033,-4.66069 v -0.37527 c 1.85756,-0.34898 4.00961,-0.57603 6.73582,-0.57603 10.01941,0 15.35893,2.37469 21.4838,6.14367 l 6.92597,-11.99406 c -6.9401,-4.31197 -15.31475,-8.58813 -28.40977,-8.58813 -12.14596,0 -13.69928,1.95005 -21.87505,6.75201 -0.10516,0.0526 -0.22192,0.11164 -0.32593,0.16842 -7.00938,3.78653 -12.65438,7.42422 -20.01177,9.20199 -0.84409,0.17871 -1.68156,0.36896 -2.54763,0.51084 -0.30481,0.0525 -0.61281,0.0946 -0.92398,0.14198 -0.92611,0.13668 -1.85187,0.22298 -2.77584,0.31535 -1.12791,0.084 -2.25602,0.1737 -3.48203,0.1737 -1.12097,0 -2.11747,-0.0526 -3.10167,-0.11996 -0.4888,-0.0421 -0.98284,-0.0738 -1.47752,-0.12 -0.50037,-0.0526 -0.96709,-0.12193 -1.43405,-0.19042 -0.43623,-0.0632 -0.87244,-0.10633 -1.30922,-0.18512 -1.64731,-0.31217 -3.07214,-0.75576 -4.38904,-1.2765 -0.27782,-0.11163 -0.56238,-0.19347 -0.83675,-0.32063 -0.33429,-0.14727 -0.64123,-0.31851 -0.96184,-0.47829 -0.48879,-0.24831 -0.98072,-0.49507 -1.46121,-0.76632 -2.025,-1.17959 -3.88241,-2.59272 -5.98622,-4.16094 -1.86709,-1.39198 -3.97375,-2.88875 -6.36633,-4.29677 -0.0946,-0.0632 -0.19877,-0.1389 -0.28805,-0.1957 -0.34372,-0.21575 -0.58337,-0.31535 -0.90189,-0.50561 -0.0421,-0.0223 -0.0632,-0.0314 -0.0946,-0.0526 -0.0111,-0.009 -0.0223,-0.0111 -0.0421,-0.0223 -2.29344,-1.35598 -4.141,-2.16406 -6.26861,-2.72146 -3.75928,-1.26134 -8.14248,-2.0968 -13.3955,-2.0968 -13.6046,0 -21.86471,5.34658 -28.40438,9.72346 -6.49207,4.37698 -11.26448,7.78427 -22.43457,7.78427 -11.16997,0 -16.66372,-3.63572 -23.77628,-8.12643 -7.11257,-4.49071 -15.79485,-9.89184 -29.44737,-9.89184 z"
     sodipodi:nodetypes="sccccscssscccccccccccscccccccscccsccccccsccccccccsccccccscssssccccscssscccccccccccscccccccsccsccccccsccccccccsccccccscssssccccscssscccccccccccscccccccsccsccccccsccccccccsccccccscsss" /></svg>
