<?xml version="1.0" encoding="UTF-8" standalone="no"?>
<svg
   viewBox="0 0 568.125 497.228"
   height="497.228"
   width="568.125"
   xml:space="preserve"
   version="1.1"
   id="svg3522"
   sodipodi:docname="Tram_sign_israel.svg"
   inkscape:version="1.1.2 (b8e25be833, 2022-02-05)"
   xmlns:inkscape="http://www.inkscape.org/namespaces/inkscape"
   xmlns:sodipodi="http://sodipodi.sourceforge.net/DTD/sodipodi-0.dtd"
   xmlns="http://www.w3.org/2000/svg"
   xmlns:svg="http://www.w3.org/2000/svg"
   xmlns:rdf="http://www.w3.org/1999/02/22-rdf-syntax-ns#"
   xmlns:cc="http://creativecommons.org/ns#"
   xmlns:dc="http://purl.org/dc/elements/1.1/"><sodipodi:namedview
     id="namedview11"
     pagecolor="#ffffff"
     bordercolor="#666666"
     borderopacity="1.0"
     inkscape:pageshadow="2"
     inkscape:pageopacity="0.0"
     inkscape:pagecheckerboard="true"
     showgrid="false"
     showguides="true"
     inkscape:guide-bbox="true"
     inkscape:snap-intersection-paths="false"
     inkscape:snap-smooth-nodes="false"
     inkscape:snap-bbox="true"
     inkscape:snap-bbox-edge-midpoints="false"
     inkscape:bbox-nodes="false"
     inkscape:zoom="1"
     inkscape:cx="252.5"
     inkscape:cy="295.5"
     inkscape:window-width="1920"
     inkscape:window-height="1001"
     inkscape:window-x="-9"
     inkscape:window-y="-9"
     inkscape:window-maximized="1"
     inkscape:current-layer="svg3522"
     width="568.125px"
     inkscape:snap-global="true" /><metadata
     id="metadata3528"><rdf:RDF><cc:Work
         rdf:about=""><dc:format>image/svg+xml</dc:format><dc:type
           rdf:resource="http://purl.org/dc/dcmitype/StillImage" /></cc:Work></rdf:RDF></metadata><defs
     id="defs3526" /><path
     id="rect2419"
     style="display:inline;fill:#ffffff;fill-opacity:1;stroke-width:1.41526;stroke-linecap:round"
     d="M 284.06233,42.768626 519.25791,454.45937 H 48.866745 Z"
     sodipodi:nodetypes="cccc" /><path
     id="path1287-2"
     style="display:inline;fill:#c0111e;fill-opacity:1;fill-rule:nonzero;stroke:none;stroke-width:0.859147"
     d="M 284.06233,4.5425685e-4 C 277.94091,-0.04336226 271.21873,3.083666 267.92647,8.9396153 L 2.1975383,469.35001 C 0.66396013,472.48418 0.01976039,475.20891 0,478.32676 0,489.21753 8.9379258,497.228 18.874395,497.228 H 549.25027 c 9.93647,0 18.87439,-8.01047 18.87439,-18.90124 -0.0197,-3.11785 -0.66396,-5.84258 -2.19753,-8.97675 L 300.19819,8.9396153 C 296.90594,3.083666 290.18376,-0.04336226 284.06233,4.5425685e-4 Z M 283.78714,91.251306 l 0.27519,0.476559 0.2752,-0.476559 L 487.1272,442.24256 H 80.997471 Z"
     sodipodi:nodetypes="cccccccccccccccc" /><path
     id="circle4136"
     style="display:inline;fill:#000000;fill-opacity:1;stroke-width:0.593561"
     d="m 340.3043,256.48921 c -7.02785,-9e-5 -12.72507,5.69713 -12.72498,12.72498 -9e-5,7.02784 5.69713,12.72507 12.72498,12.72496 7.02784,1.1e-4 12.72506,-5.69712 12.72497,-12.72496 10e-5,-7.02785 -5.69713,-12.72507 -12.72497,-12.72498 z m 1.96464,29.41992 c -1.67667,-0.0423 -3.37735,0.19336 -4.78133,0.89454 -12.20103,6.09348 -31.90112,16.94286 -36.61502,19.53749 -7.40445,4.07416 -2.4062,13.14402 3.84613,9.33904 4.6057,-2.80219 24.06563,-12.95784 24.06563,-12.95784 v 13.14451 c 0,0 -17.95576,7.96096 -20.73328,9.44254 -2.77685,1.48226 -5.924,3.70116 -7.03433,6.47801 -1.111,2.77682 -10.18284,27.95527 -12.95968,35.91454 -2.77685,7.95994 7.40498,9.81142 10.08386,3.8221 2.68027,-5.98999 13.05698,-27.33163 13.7988,-29.55297 0.7418,-2.22135 3.33151,-4.9977 6.10834,-5.55389 2.77753,-0.55484 23.95712,-2.08666 28.92352,-7.77361 4.9664,-5.68695 4.11228,-7.78099 4.11228,-7.78098 l 1.02683,-28.38122 c 0,0 -2.59921,-4.97727 -5.20827,-5.79971 -1.30452,-0.41122 -2.9568,-0.73029 -4.63348,-0.77255 z m -64.80031,20.10491 c -1.8016,-0.0474 -3.65764,2.49776 -2.81114,3.76666 1.04115,1.56239 7.12487,7.44461 7.12487,7.44461 l -7.53334,5.19718 -1.08289,-5.89094 h -94.3644 l 11.76745,49.91177 c 0,0 14.3364,-7.86432 26.55887,-1.83527 9.57372,4.72212 16.40661,19.19003 16.40661,19.19003 h 52.46164 l -10.37959,-54.23593 9.97298,-8.25413 c 0,0 5.2342,5.1174 7.73293,7.21544 3.71866,3.12206 6.02481,-2.67922 4.68708,-3.8683 -1.3391,-1.18912 -17.32979,-16.36196 -19.33603,-18.14766 -0.37619,-0.33481 -0.7893,-0.48254 -1.20504,-0.49346 z m 71.47978,30.03352 c -24.07708,4.1e-4 -43.59532,19.51864 -43.59574,43.59572 -5.9e-4,24.0778 19.51793,43.59716 43.59574,43.59759 24.07781,-4.3e-4 43.59634,-19.51979 43.59573,-43.59759 -4.3e-4,-24.07708 -19.51865,-43.59531 -43.59573,-43.59572 z M 203.81719,366.094 c -15.30439,0.0453 -27.68695,12.46499 -27.68628,27.76947 4.1e-4,15.33616 12.43329,27.7682 27.76945,27.7676 15.33545,-4.2e-4 27.76718,-12.43215 27.76761,-27.7676 6e-4,-15.33616 -12.43143,-27.76904 -27.76761,-27.76947 -0.0277,-3e-5 -0.0555,-3e-5 -0.0832,0 z"
     sodipodi:nodetypes="cccccssccccccccscsccssscccccccccccccsscccccscccsss" /></svg>
