<?xml version="1.0" encoding="UTF-8" standalone="no"?>
<!-- Generator: Adobe Illustrator 13.0.0, SVG Export Plug-In . SVG Version: 6.00 Build 14948)  -->

<svg
   version="1.1"
   id="Layer_1"
   x="0px"
   y="0px"
   width="592.1582"
   height="592.1582"
   viewBox="0 0 592.1582 592.1582"
   enable-background="new 0 0 610 600"
   xml:space="preserve"
   sodipodi:docname="Israel_road_sign_227.svg"
   inkscape:version="1.1.2 (b8e25be833, 2022-02-05)"
   xmlns:inkscape="http://www.inkscape.org/namespaces/inkscape"
   xmlns:sodipodi="http://sodipodi.sourceforge.net/DTD/sodipodi-0.dtd"
   xmlns="http://www.w3.org/2000/svg"
   xmlns:svg="http://www.w3.org/2000/svg"><defs
   id="defs41" /><sodipodi:namedview
   id="namedview39"
   pagecolor="#ffffff"
   bordercolor="#666666"
   borderopacity="1.0"
   inkscape:pageshadow="2"
   inkscape:pageopacity="0.0"
   inkscape:pagecheckerboard="0"
   showgrid="false"
   inkscape:zoom="1"
   inkscape:cx="219.5"
   inkscape:cy="240.5"
   inkscape:window-width="1920"
   inkscape:window-height="1001"
   inkscape:window-x="-9"
   inkscape:window-y="-9"
   inkscape:window-maximized="1"
   inkscape:current-layer="Layer_1"
   inkscape:object-paths="false"
   inkscape:snap-intersection-paths="true"
   inkscape:snap-smooth-nodes="true"
   inkscape:snap-bbox="true"
   inkscape:snap-bbox-edge-midpoints="true"
   inkscape:bbox-nodes="true"
   showguides="true"
   inkscape:guide-bbox="true"
   inkscape:snap-global="false" />
<circle
   fill="#0099BB"
   cx="296.07901"
   cy="296.07901"
   r="296.07901"
   id="circle2"
   style="fill:#070fdb;fill-opacity:1;stroke-width:1.01229" />
<g
   id="g34">
	<g
   id="g24">
		<g
   id="g6">
			<path
   fill="#ffffff"
   d="m 355.545,329.729 c 0.008,-50.328 40.785,-91.109 91.111,-91.119 v 0 10.549 10.548 c -19.371,0.006 -36.809,7.823 -49.512,20.508 v 0 c -12.686,12.703 -20.503,30.143 -20.505,49.51 v 0 c 0.002,19.363 7.817,36.805 20.505,49.506 v 0 c 12.703,12.688 30.141,20.504 49.512,20.508 v 0 c 19.365,-0.008 36.805,-7.82 49.504,-20.508 v 0 c 12.688,-12.701 20.507,-30.143 20.51,-49.506 v 0 c -0.008,-19.367 -7.822,-36.807 -20.51,-49.51 v 0 c -12.699,-12.686 -30.139,-20.506 -49.504,-20.508 v 0 -10.548 -10.549 c 50.324,0.01 91.106,40.791 91.113,91.119 v 0 c -0.007,50.322 -40.789,91.107 -91.113,91.113 v 0 c -50.326,-0.01 -91.103,-40.795 -91.111,-91.113 z"
   id="path4"
   style="display:none" />
		</g>
		<g
   id="g10">
			
		</g>
		<g
   id="g14">
			
		</g>
		<g
   id="g18">
			
		</g>
		<g
   id="g22">
			
		</g>
	</g>
	<g
   id="g30">
		
		
	</g>
	
</g>
<circle
   fill="none"
   stroke="#ffffff"
   stroke-width="7"
   cx="296.08002"
   cy="296.07901"
   r="284.66647"
   id="circle36" />
<path
   fill="#ffffff"
   d="m 381.87898,136.53243 c 0,0 18.90938,-16.91643 18.90938,-35.8285 0,-18.910723 -13.93712,-26.871715 -24.88282,-26.871715 -10.94704,0 -32.31226,8.960826 -32.08619,26.871715 0.23819,18.90938 13.17547,33.83691 13.17547,33.83691 l 0.54096,10.50566 c 0,0 -18.45723,2.43163 -32.38897,5.41902 -13.93308,2.98739 -28.85657,17.91492 -34.83135,37.82009 -5.97344,19.90518 -20.90501,74.64306 -28.86465,85.59009 -7.95966,10.94703 -7.95966,10.94838 -7.95966,10.94838 l -0.99713,10.94839 c 0,0 -22.89122,0.99579 -31.84801,0 -8.95679,-0.99581 -19.90382,-7.96368 -19.90382,-12.93864 0,-4.97495 5.999,-9.11154 7.77259,-10.88648 1.77225,-1.77224 4.61028,-9.21919 4.61028,-17.02139 0,-7.80355 -3.18791,-23.40796 -21.63302,-23.40796 -18.44512,0 -22.70013,12.05857 -22.70013,25.18155 0,13.12164 12.05721,17.73326 12.05721,22.69878 0,4.96554 0,8.15746 -2.48276,8.51138 -2.48276,0.3539 -30.49561,13.4742 -38.65576,46.45796 -8.16015,32.98105 -9.22323,61.7098 -9.22323,61.7098 0,0 -6.38387,4.61566 -6.73912,6.74315 -0.35391,2.12617 1.41834,8.15343 6.73912,9.92837 5.31944,1.7709 12.06125,1.7709 12.06125,-3.90245 0,-5.67604 -1.41834,-10.99413 -1.41834,-10.99413 0,0 5.6747,-11.3467 9.92971,-22.69744 4.25502,-11.35209 7.80221,-34.04953 7.80221,-34.04953 0,0 6.73777,-8.16015 6.73777,-1.42641 0,6.74316 4.25502,98.24613 4.25502,108.88501 0,10.63887 -1.41834,21.98827 -2.83668,27.66296 -1.41834,5.67335 -2.12885,8.86932 -2.12885,8.86932 0,0 -13.12568,6.02861 -12.41651,10.99414 0.70917,4.96418 4.2604,13.4769 16.31761,7.09304 12.05722,-6.38387 19.14891,-15.95833 19.14891,-15.95833 l 11.7033,-83.70345 10.99682,79.44306 14.53999,15.60979 c 0,0 5.6747,4.25367 10.64022,4.25367 4.96418,0 10.99279,-1.77225 10.99279,-6.38252 0,-4.61027 -15.60441,-15.96101 -15.60441,-15.96101 0,0 3.19194,-75.18804 3.19194,-99.30787 0,-24.11577 -1.41834,-61.00197 -1.41834,-61.00197 0,0 10.28093,-7.79817 19.14621,-9.56772 8.86663,-1.77495 11.34939,-4.96553 11.34939,-4.96553 0,0 8.50734,3.19058 12.41248,0 3.90379,-3.19193 7.09573,-10.28362 7.45098,-13.83081 0.35526,-3.5472 -0.70917,-6.38521 -0.70917,-6.38521 0,0 15.95832,-25.17617 20.56993,-36.52691 4.61028,-11.34939 8.15747,-26.24732 8.15747,-26.24732 0,0 0.70917,-3.54585 3.19058,-3.54585 2.48411,0 4.96418,7.80356 6.38387,9.22189 1.41968,1.41834 1.77359,3.54585 1.77359,3.54585 0,0 0.35392,86.18084 1.41834,94.6922 1.06443,8.51138 2.12751,65.60553 3.54584,95.40004 1.41969,29.79316 6.38387,75.89452 6.38387,75.89452 0,0 -10.63753,9.22458 -10.99413,13.8362 -0.35392,4.61026 6.73777,6.38251 14.18606,6.02725 7.44695,-0.35525 24.11982,-18.44108 24.11982,-18.44108 0,0 -0.35929,-26.5945 -0.35929,-37.23741 0,-10.64292 -2.83668,-24.11982 -2.83668,-43.98059 0,-19.86345 1.76955,-31.21419 3.54584,-45.75148 1.77763,-14.54401 8.1615,-29.084 8.1615,-29.084 0,0 9.92836,44.32912 11.34805,71.99208 1.41834,27.667 1.41834,81.22069 1.41834,81.22069 0,0 10.64021,9.9324 13.12164,12.05991 2.48411,2.12885 8.86798,8.51137 13.47824,8.51137 4.61028,0 14.19011,-1.4143 14.19011,-7.44695 0,-6.03264 -12.41786,-17.38069 -12.41786,-17.38069 0,0 2.48277,-26.95245 2.83667,-31.20746 0.35526,-4.25636 -0.35525,-49.29464 0,-74.83279 0.35526,-25.53816 3.19598,-99.65773 3.9038,-117.03439 0.70917,-17.37801 1.77225,-42.91347 1.77225,-42.91347 l 3.54719,-4.2577 c 0,0 15.60575,27.3104 17.73326,36.8862 2.12751,9.57579 5.67335,51.78009 5.31944,56.0378 -0.3566,4.25501 0.35391,8.51137 0.35391,8.51137 l 1.41968,2.48545 c 0,0 -0.70916,2.83668 -3.54584,5.6747 -2.83668,2.83667 -6.02996,13.47825 5.67335,13.47825 11.70196,0 9.92971,-4.25636 9.92971,-9.2219 0,-4.96552 -2.12751,-7.09303 -2.12751,-7.09303 l 3.54719,-7.09303 c 0,0 0,-44.6884 0,-56.74562 0,-12.05721 -10.99413,-61.71249 -16.66883,-76.25247 -5.6747,-14.53998 -12.41248,-32.27459 -16.31223,-35.46652 -3.9011,-3.19193 -16.31761,-6.38521 -28.73009,-8.1588 -12.41382,-1.77225 -17.02678,1.78032 -17.02678,-1.76552 0,-3.54585 -0.76299,-6.68396 -0.76299,-6.68396 z"
   id="path6"
   style="stroke-width:1.34567" /></svg>
