<?xml version="1.0" encoding="UTF-8" standalone="no"?>
<svg
   xmlns:dc="http://purl.org/dc/elements/1.1/"
   xmlns:cc="http://creativecommons.org/ns#"
   xmlns:rdf="http://www.w3.org/1999/02/22-rdf-syntax-ns#"
   xmlns:svg="http://www.w3.org/2000/svg"
   xmlns="http://www.w3.org/2000/svg"
   xmlns:sodipodi="http://sodipodi.sourceforge.net/DTD/sodipodi-0.dtd"
   xmlns:inkscape="http://www.inkscape.org/namespaces/inkscape"
   inkscape:version="1.0 (4035a4fb49, 2020-05-01)"
   sodipodi:docname="Israel_road_sign_419.svg"
   xml:space="preserve"
   enable-background="new 0 0 610 600"
   viewBox="0 0 590.12305 590.125"
   height="590.125"
   width="590.12305"
   y="0px"
   x="0px"
   id="Layer_1"
   version="1.1"><metadata
   id="metadata5602"><rdf:RDF><cc:Work
       rdf:about=""><dc:format>image/svg+xml</dc:format><dc:type
         rdf:resource="http://purl.org/dc/dcmitype/StillImage" /><dc:title /></cc:Work></rdf:RDF></metadata><defs
   id="defs5600" /><sodipodi:namedview
   inkscape:document-rotation="0"
   inkscape:current-layer="Layer_1"
   inkscape:window-maximized="1"
   inkscape:window-y="-9"
   inkscape:window-x="-9"
   inkscape:cy="354.2397"
   inkscape:cx="354.58867"
   inkscape:zoom="0.94398755"
   showgrid="false"
   id="namedview5598"
   inkscape:window-height="1001"
   inkscape:window-width="1920"
   inkscape:pageshadow="2"
   inkscape:pageopacity="0"
   guidetolerance="10"
   gridtolerance="10"
   objecttolerance="10"
   borderopacity="1"
   bordercolor="#666666"
   pagecolor="#ffffff" />
<g
   transform="translate(-8.3300781,-3.6601562)"
   style="opacity:1"
   id="g12212"><path
     id="path12214"
     d="M 595.95401,298.72299 C 595.95401,460.30053 464.96954,591.285 303.392,591.285 141.81446,591.285 10.829987,460.30053 10.829987,298.72299 10.829987,137.14545 141.81446,6.1609785 303.392,6.1609802 c 161.57754,0 292.56201,130.9844698 292.56201,292.5620098"
     style="color:#000000;font-style:normal;font-variant:normal;font-weight:normal;font-stretch:normal;font-size:medium;line-height:normal;font-family:sans-serif;font-variant-ligatures:normal;font-variant-position:normal;font-variant-caps:normal;font-variant-numeric:normal;font-variant-alternates:normal;font-variant-east-asian:normal;font-feature-settings:normal;font-variation-settings:normal;text-indent:0;text-align:start;text-decoration:none;text-decoration-line:none;text-decoration-style:solid;text-decoration-color:#000000;letter-spacing:normal;word-spacing:normal;text-transform:none;writing-mode:lr-tb;direction:ltr;text-orientation:mixed;dominant-baseline:auto;baseline-shift:baseline;text-anchor:start;white-space:normal;shape-padding:0;shape-margin:0;inline-size:0;clip-rule:nonzero;display:inline;overflow:visible;visibility:visible;isolation:auto;mix-blend-mode:normal;color-interpolation:sRGB;color-interpolation-filters:linearRGB;solid-color:#000000;solid-opacity:1;vector-effect:none;fill:#ffffff;fill-opacity:1;fill-rule:nonzero;stroke:none;stroke-width:5;stroke-linecap:butt;stroke-linejoin:miter;stroke-miterlimit:4;stroke-dasharray:none;stroke-dashoffset:0;stroke-opacity:1;color-rendering:auto;image-rendering:auto;shape-rendering:auto;text-rendering:auto;enable-background:accumulate;stop-color:#000000;stop-opacity:1" /><path
     id="path12216"
     d="M 303.39258,3.6601562 C 140.46394,3.6601546 8.3300782,135.79402 8.3300781,298.72266 c 0,162.92863 132.1338619,295.0625 295.0625019,295.0625 162.92863,0 295.06054,-132.13387 295.06054,-295.0625 0,-162.92864 -132.13191,-295.0625037 -295.06054,-295.0625038 z m 0,5 c 160.22643,1e-7 290.06054,129.8360638 290.06054,290.0625038 0,160.22643 -129.83411,290.0625 -290.06054,290.0625 -160.22644,0 -290.062502,-129.83607 -290.062502,-290.0625 0,-160.22644 129.836062,-290.0625054 290.062502,-290.0625038 z"
     style="color:#000000;font-style:normal;font-variant:normal;font-weight:normal;font-stretch:normal;font-size:medium;line-height:normal;font-family:sans-serif;font-variant-ligatures:normal;font-variant-position:normal;font-variant-caps:normal;font-variant-numeric:normal;font-variant-alternates:normal;font-variant-east-asian:normal;font-feature-settings:normal;font-variation-settings:normal;text-indent:0;text-align:start;text-decoration:none;text-decoration-line:none;text-decoration-style:solid;text-decoration-color:#000000;letter-spacing:normal;word-spacing:normal;text-transform:none;writing-mode:lr-tb;direction:ltr;text-orientation:mixed;dominant-baseline:auto;baseline-shift:baseline;text-anchor:start;white-space:normal;shape-padding:0;shape-margin:0;inline-size:0;clip-rule:nonzero;display:inline;overflow:visible;visibility:visible;isolation:auto;mix-blend-mode:normal;color-interpolation:sRGB;color-interpolation-filters:linearRGB;solid-color:#000000;solid-opacity:1;vector-effect:none;fill:#000000;fill-opacity:1;fill-rule:nonzero;stroke:none;stroke-width:5;stroke-linecap:butt;stroke-linejoin:miter;stroke-miterlimit:4;stroke-dasharray:none;stroke-dashoffset:0;stroke-opacity:1;color-rendering:auto;image-rendering:auto;shape-rendering:auto;text-rendering:auto;enable-background:accumulate;stop-color:#000000;stop-opacity:1" /></g>



<g
   transform="translate(-655.01061,-5.4665762)"
   style="font-size:142.694px;line-height:109.02%;font-family:'Heb Tamrurim';-inkscape-font-specification:'Heb Tamrurim';text-align:center;text-anchor:middle;fill:#707070;fill-opacity:1;stroke-width:1"
   id="text60100"
   aria-label="k"><path
     d="m 921.77753,273.98983 v 39.07495 l 43.99214,0.0716 v 41.79612 q -0.0716,2.86438 -1.0264,5.58555 -7.01774,15.41992 -23.46407,11.38592 l -0.0477,19.52554 q 3.485,0.66836 7.04161,0.66836 33.99067,-3.27017 37.09375,-37.26085 l -0.0716,-61.22618 -43.61023,0.0477 -0.0477,-19.62102 -19.85972,-0.0477 z M 794.53711,150.11133 c -0.0205,0 -0.0371,0.0146 -0.0371,0.0351 V 459.2832 c 0,0.0204 0.0166,0.0371 0.0371,0.0371 h 309.13479 c 0.021,0 0.037,-0.0166 0.037,-0.0371 V 150.14648 c 0,-0.0205 -0.016,-0.0351 -0.037,-0.0351 z M 948.5,188.77148 1076.0586,420.76367 H 822.45703 Z"
     style="fill:#707070;fill-opacity:1;stroke-width:1"
     id="path60102" /></g><path
   sodipodi:nodetypes="cccccccccccccc"
   inkscape:connector-curvature="0"
   d="m 425.40039,33.333985 -148.12761,227.142595 14.19395,0.61138 0.12698,23.1636 49.83605,0.76747 L 483.92578,72.216797 C 466.34073,55.889891 446.36129,43.753154 425.40039,33.333985 Z m -191.65527,299.815045 -3.61788,0.14823 -122.14287,186.7711 58.43782,37.84886 111.61909,-170.50905 1.88269,-54.10964 z"
   style="fill:#000000;fill-opacity:1"
   id="rect5765" /></svg>
