<?xml version="1.0" encoding="UTF-8" standalone="no"?>
<svg
   xmlns:dc="http://purl.org/dc/elements/1.1/"
   xmlns:cc="http://creativecommons.org/ns#"
   xmlns:rdf="http://www.w3.org/1999/02/22-rdf-syntax-ns#"
   xmlns:svg="http://www.w3.org/2000/svg"
   xmlns="http://www.w3.org/2000/svg"
   xmlns:sodipodi="http://sodipodi.sourceforge.net/DTD/sodipodi-0.dtd"
   xmlns:inkscape="http://www.inkscape.org/namespaces/inkscape"
   inkscape:version="1.0 (4035a4fb49, 2020-05-01)"
   sodipodi:docname="631.svg"
   viewBox="0 0 350 110.83334"
   height="110.83334"
   width="350"
   id="svg7377"
   version="1.1">
  <metadata
     id="metadata7383">
    <rdf:RDF>
      <cc:Work
         rdf:about="">
        <dc:format>image/svg+xml</dc:format>
        <dc:type
           rdf:resource="http://purl.org/dc/dcmitype/StillImage" />
        <dc:title></dc:title>
      </cc:Work>
    </rdf:RDF>
  </metadata>
  <defs
     id="defs7381" />
  <sodipodi:namedview
     inkscape:current-layer="g7385"
     inkscape:window-maximized="1"
     inkscape:window-y="-9"
     inkscape:window-x="-9"
     inkscape:cy="151.22491"
     inkscape:cx="-12.224726"
     inkscape:zoom="1.4133333"
     showgrid="false"
     id="namedview7379"
     inkscape:window-height="1001"
     inkscape:window-width="1920"
     inkscape:pageshadow="2"
     inkscape:pageopacity="0"
     guidetolerance="10"
     gridtolerance="10"
     objecttolerance="10"
     borderopacity="1"
     bordercolor="#666666"
     pagecolor="#ffffff" />
  <g
     transform="translate(-8.4905664,-110.99056)"
     id="g7385"
     inkscape:label="Image"
     inkscape:groupmode="layer">
    <path
       id="rect6791"
       style="opacity:1;fill:#000000;stroke:none;stroke-width:10.1822;paint-order:stroke fill markers"
       d="M 8.4905664,110.99056 H 358.49057 V 221.8239 H 8.4905664 Z"
       sodipodi:nodetypes="ccccc" />
    <path
       id="rect7356"
       style="opacity:1;fill:#ffffff;stroke:none;stroke-width:9.36766;paint-order:stroke fill markers"
       d="M 12.923899,115.4239 H 354.05723 V 217.39056 H 12.923899 Z"
       sodipodi:nodetypes="ccccc" />
    <g
       transform="matrix(1.1666667,0,0,1.1666667,3.9504716,-28.10143)"
       aria-label="2500"
       id="text7366"
       style="font-size:67.3786px;line-height:1.25;font-family:'Medina Lt BT';-inkscape-font-specification:'Medina Lt BT';opacity:1;fill:#000000;stroke-width:1.68447">
      <path
         d="m 83.093911,151.74811 6.661217,6.37944 q 3.392599,-3.57294 8.329339,-3.58421 3.155903,0.0789 4.824023,2.76142 2.1077,4.62115 -2.02879,7.55163 -15.554112,8.75764 -17.030625,26.54343 h 28.346805 v -9.27611 l -16.500885,0.0451 q 3.144635,-5.84969 9.005605,-8.99433 8.21663,-4.54225 8.12646,-13.94234 -1.9499,-13.37879 -15.463944,-13.95362 -8.442049,0.36068 -14.269205,6.46961 z"
         style="font-style:normal;font-variant:normal;font-weight:normal;font-stretch:normal;font-family:'Heb Tamrurim';-inkscape-font-specification:'Heb Tamrurim';fill:#000000;stroke-width:1.68447"
         id="path7368" />
      <path
         d="m 122.29694,145.28977 -1.38635,23.69184 9.0845,2.90795 q 1.35253,-1.4427 3.27989,-1.84846 5.57919,-0.59737 7.20223,4.77894 0.5861,5.56792 -4.77894,7.19096 -6.50343,1.49905 -12.74761,-0.83406 l -3.40387,8.54349 q 8.82527,3.24607 18.01121,1.27363 0.47338,-0.0902 0.9355,-0.21415 13.19845,-4.84657 10.88787,-18.72129 -4.85784,-13.19845 -18.72128,-10.88787 l 0.52974,-6.59359 16.42198,-0.0113 0.0113,-9.29865 -25.32614,0.0225 z"
         style="font-style:normal;font-variant:normal;font-weight:normal;font-stretch:normal;font-family:'Heb Tamrurim';-inkscape-font-specification:'Heb Tamrurim';fill:#000000;stroke-width:1.68447"
         id="path7370" />
      <path
         d="m 156.69148,160.42685 -0.0338,16.47834 q 0.10144,6.39071 4.67751,10.86534 4.40699,4.06886 10.41449,4.20412 14.04378,-1.18347 15.49775,-15.21598 l 0.0676,-16.18529 q -0.14653,-6.06385 -4.33937,-10.45958 -4.41827,-4.45208 -10.69627,-4.66623 -13.9987,1.03694 -15.58792,14.97928 z m 9.44517,0 q 0.85661,-5.35377 6.278,-5.51156 2.58108,0.21415 4.23793,2.20913 1.16093,1.47652 1.1722,3.34752 l -0.0113,16.46707 q -0.665,5.41012 -6.09767,5.75953 -2.44582,-0.10144 -4.14776,-1.85973 -1.45397,-1.57796 -1.47651,-3.71947 l 0.0451,-16.69249 z"
         style="font-style:normal;font-variant:normal;font-weight:normal;font-stretch:normal;font-family:'Heb Tamrurim';-inkscape-font-specification:'Heb Tamrurim';fill:#000000;stroke-width:1.68447"
         id="path7372" />
      <path
         d="m 194.06554,160.42685 -0.0338,16.47834 q 0.10144,6.39071 4.67751,10.86534 4.40699,4.06886 10.41449,4.20412 14.04378,-1.18347 15.49775,-15.21598 l 0.0676,-16.18529 q -0.14653,-6.06385 -4.33937,-10.45958 -4.41827,-4.45208 -10.69627,-4.66623 -13.9987,1.03694 -15.58793,14.97928 z m 9.44518,0 q 0.85661,-5.35377 6.278,-5.51156 2.58108,0.21415 4.23793,2.20913 1.16093,1.47652 1.1722,3.34752 l -0.0113,16.46707 q -0.665,5.41012 -6.09767,5.75953 -2.44582,-0.10144 -4.14776,-1.85973 -1.45397,-1.57796 -1.47651,-3.71947 l 0.0451,-16.69249 z"
         style="font-style:normal;font-variant:normal;font-weight:normal;font-stretch:normal;font-family:'Heb Tamrurim';-inkscape-font-specification:'Heb Tamrurim';fill:#000000;stroke-width:1.68447"
         id="path7374" />
    </g>
    <path
       id="path949-4"
       style="font-size:19.2882px;line-height:109.02%;font-family:'Heb Tamrurim';-inkscape-font-specification:'Heb Tamrurim';text-align:center;letter-spacing:1.09802px;text-anchor:middle;fill:#000000;fill-opacity:1;stroke-width:1.06955"
       d="m 60.65352,134.14084 c -0.02685,0.0288 -0.0508,0.0597 -0.07455,0.0908 -9.62e-4,-4.7e-4 -0.0011,-6e-5 -0.0032,-0.004 l -0.02588,0.0335 -0.0064,0.005 -19.581987,25.93116 -4.39e-4,10e-4 c -0.500849,0.59679 -0.463008,1.47724 0.08663,2.02941 0.375529,0.37739 0.922572,0.52811 1.438363,0.39653 l 14.266999,-2.7664 -1.740446,39.34124 6.767072,0.0144 6.773083,0.009 -1.608303,-39.34763 14.262721,2.86118 0.172294,0.004 c 0.470559,0.0731 0.947257,-0.0818 1.28485,-0.41806 0.547481,-0.54508 0.59037,-1.41778 0.09818,-2.01327 l -19.60114,-26.10652 c -0.0096,-0.0191 -0.02396,-0.0335 -0.03733,-0.0489 l -0.0053,-0.009 c -9.51e-4,-9.7e-4 -0.0032,-0.004 -0.0032,-0.004 -0.06984,-0.0756 -0.144464,-0.15069 -0.231269,-0.21382 -0.695186,-0.5198 -1.65562,-0.41995 -2.230342,0.20472 l -4.28e-4,3.8e-4 z"
       sodipodi:nodetypes="cccccccscccccccccccccccccc" />
    <path
       sodipodi:nodetypes="cccccccscccccccccccccccccc"
       d="m 308.78901,134.14084 c -0.0269,0.0288 -0.0508,0.0597 -0.0746,0.0908 -9.6e-4,-4.7e-4 -10e-4,-6e-5 -0.003,-0.004 l -0.0259,0.0335 -0.006,0.005 -19.58199,25.93116 -4.4e-4,10e-4 c -0.50084,0.59679 -0.463,1.47724 0.0866,2.02941 0.37553,0.37739 0.92257,0.52811 1.43836,0.39653 l 14.267,-2.7664 -1.74045,39.34124 6.76708,0.0144 6.77308,0.009 -1.6083,-39.34763 14.26272,2.86118 0.17229,0.004 c 0.47056,0.0731 0.94726,-0.0818 1.28485,-0.41806 0.54748,-0.54508 0.59037,-1.41778 0.0982,-2.01327 l -19.60112,-26.10651 c -0.01,-0.0191 -0.024,-0.0335 -0.0373,-0.0489 l -0.005,-0.009 c -9.5e-4,-9.7e-4 -0.003,-0.004 -0.003,-0.004 -0.0698,-0.0756 -0.14446,-0.15069 -0.23127,-0.21382 -0.69518,-0.5198 -1.65562,-0.41995 -2.23034,0.20472 l -4.3e-4,3.8e-4 z"
       style="font-size:19.2882px;line-height:109.02%;font-family:'Heb Tamrurim';-inkscape-font-specification:'Heb Tamrurim';text-align:center;letter-spacing:1.09802px;text-anchor:middle;fill:#000000;fill-opacity:1;stroke-width:1.06955"
       id="path7437" />
  </g>
</svg>
