<?xml version="1.0" encoding="UTF-8" standalone="no"?>
<!-- Generator: Adobe Illustrator 13.0.0, SVG Export Plug-In . SVG Version: 6.00 Build 14948)  -->

<svg
   version="1.1"
   id="Layer_1"
   x="0px"
   y="0px"
   width="592.1582"
   height="592.1582"
   viewBox="0 0 592.1582 592.1582"
   enable-background="new 0 0 610 600"
   xml:space="preserve"
   sodipodi:docname="Israel_road_sign_226.svg"
   inkscape:version="1.1.2 (b8e25be833, 2022-02-05)"
   xmlns:inkscape="http://www.inkscape.org/namespaces/inkscape"
   xmlns:sodipodi="http://sodipodi.sourceforge.net/DTD/sodipodi-0.dtd"
   xmlns="http://www.w3.org/2000/svg"
   xmlns:svg="http://www.w3.org/2000/svg"><defs
   id="defs41" /><sodipodi:namedview
   id="namedview39"
   pagecolor="#ffffff"
   bordercolor="#666666"
   borderopacity="1.0"
   inkscape:pageshadow="2"
   inkscape:pageopacity="0.0"
   inkscape:pagecheckerboard="0"
   showgrid="false"
   inkscape:zoom="0.70710678"
   inkscape:cx="378.30213"
   inkscape:cy="495.68185"
   inkscape:window-width="1920"
   inkscape:window-height="1001"
   inkscape:window-x="-9"
   inkscape:window-y="-9"
   inkscape:window-maximized="1"
   inkscape:current-layer="Layer_1"
   inkscape:object-paths="false"
   inkscape:snap-intersection-paths="true"
   inkscape:snap-smooth-nodes="true"
   inkscape:snap-bbox="true"
   inkscape:snap-bbox-edge-midpoints="true"
   inkscape:bbox-nodes="true"
   showguides="true"
   inkscape:guide-bbox="true"
   inkscape:snap-global="false" />
<circle
   fill="#0099BB"
   cx="296.07901"
   cy="296.07901"
   r="296.07901"
   id="circle2"
   style="fill:#070fdb;fill-opacity:1;stroke-width:1.01229" />
<g
   id="g34">
	<g
   id="g24">
		<g
   id="g6">
			<path
   fill="#ffffff"
   d="m 355.545,329.729 c 0.008,-50.328 40.785,-91.109 91.111,-91.119 v 0 10.549 10.548 c -19.371,0.006 -36.809,7.823 -49.512,20.508 v 0 c -12.686,12.703 -20.503,30.143 -20.505,49.51 v 0 c 0.002,19.363 7.817,36.805 20.505,49.506 v 0 c 12.703,12.688 30.141,20.504 49.512,20.508 v 0 c 19.365,-0.008 36.805,-7.82 49.504,-20.508 v 0 c 12.688,-12.701 20.507,-30.143 20.51,-49.506 v 0 c -0.008,-19.367 -7.822,-36.807 -20.51,-49.51 v 0 c -12.699,-12.686 -30.139,-20.506 -49.504,-20.508 v 0 -10.548 -10.549 c 50.324,0.01 91.106,40.791 91.113,91.119 v 0 c -0.007,50.322 -40.789,91.107 -91.113,91.113 v 0 c -50.326,-0.01 -91.103,-40.795 -91.111,-91.113 z"
   id="path4"
   style="display:none" />
		</g>
		<g
   id="g10">
			
		</g>
		<g
   id="g14">
			
		</g>
		<g
   id="g18">
			
		</g>
		<g
   id="g22">
			
		</g>
	</g>
	<g
   id="g30">
		
		
	</g>
	
</g>
<circle
   fill="none"
   stroke="#ffffff"
   stroke-width="7"
   cx="296.08002"
   cy="296.07901"
   r="284.66647"
   id="circle36" />
<path
   d="M 291.97221,24.139447 V 94.59071 H 304.4818 V 24.139447 Z m 0,94.346143 v 70.45126 h 12.50959 v -70.45126 z m 0,97.46286 v 70.45126 h 12.50959 v -70.45126 z m 0,94.34615 v 70.45126 H 304.4818 V 310.2946 Z m 0,94.34141 v 70.456 h 12.50959 v -70.456 z m 0,94.34615 v 70.45126 h 12.50959 v -70.45126 z"
   style="fill:#ffffff;stroke-width:2.42886"
   id="rect142" /><path
   style="fill:#ffffff;fill-opacity:1;stroke-width:4.5899"
   d="m 480.47187,192.19145 c 0,0 11.23883,-10.05236 11.23883,-21.29309 0,-11.23888 -8.28424,-15.97128 -14.78869,-15.97128 -6.50634,0 -19.20417,5.32565 -19.0689,15.97128 0.14136,11.23687 7.83012,20.1105 7.83012,20.1105 l 0.32311,6.24352 c 0,0 -10.9702,1.44544 -19.25056,3.22133 -8.28223,1.77394 -17.14996,10.64752 -20.70169,22.47572 -3.54988,11.83017 -12.42346,44.36204 -17.15396,50.86846 -4.73058,6.50639 -4.73058,6.50639 -4.73058,6.50639 l -0.59342,6.50634 c 0,0 -13.60593,0.59342 -18.92776,0 -5.32189,-0.59342 -11.83019,-4.7324 -11.83019,-7.68893 0,-2.95661 3.56724,-5.41464 4.6204,-6.46976 1.05315,-1.05311 2.74012,-5.4783 2.74012,-10.11794 0,-4.6378 -1.89378,-13.91136 -12.85816,-13.91136 -10.96058,0 -13.4882,7.16733 -13.4882,14.96641 0,7.79917 7.16534,10.53934 7.16534,13.49007 0,2.95075 0,4.84833 -1.47444,5.05901 -1.47437,0.21058 -18.12391,8.00784 -22.97425,27.61206 -4.84843,19.6003 -5.48032,36.67496 -5.48032,36.67496 0,0 -3.79522,2.74214 -4.00583,4.00779 -0.20888,1.26384 0.84447,4.84454 4.00583,5.90158 3.16138,1.05124 7.16728,1.05124 7.16728,-2.31888 0,-3.37403 -0.84439,-6.53542 -0.84439,-6.53542 0,0 3.37393,-6.74215 5.90153,-13.48813 2.52949,-6.74595 4.63582,-20.23607 4.63582,-20.23607 0,0 4.00386,-4.85027 4.00386,-0.84639 0,4.0059 2.52957,58.38938 2.52957,64.71215 0,6.32282 -0.8425,13.0669 -1.687,16.44088 -0.84446,3.37209 -1.26572,5.27155 -1.26572,5.27155 0,0 -7.80115,3.58265 -7.37785,6.53343 0.42319,2.95077 2.53139,8.00985 9.69867,4.21653 7.16525,-3.7933 11.37991,-9.48423 11.37991,-9.48423 l 6.9566,-49.74765 6.53534,47.21622 8.64173,9.27738 c 0,0 3.37203,2.52767 6.32281,2.52767 2.94884,0 6.53338,-1.05315 6.53338,-3.7933 0,-2.73825 -9.27357,-9.48614 -9.27357,-9.48614 0,0 1.8957,-44.68676 1.8957,-59.01936 0,-14.33257 -0.84255,-36.25563 -0.84255,-36.25563 0,0 6.11034,-4.63391 11.37801,-5.68711 5.26966,-1.05508 6.74607,-2.95068 6.74607,-2.95068 0,0 5.05502,1.8956 7.37583,0 2.32087,-1.89765 4.21655,-6.11221 4.42917,-8.22044 0.21034,-2.10828 -0.42092,-3.7953 -0.42092,-3.7953 0,0 9.48437,-14.96254 12.22447,-21.70854 2.74007,-6.74597 4.8483,-15.59826 4.8483,-15.59826 0,0 0.4209,-2.10827 1.89583,-2.10827 1.47623,0 2.95063,4.63774 3.79517,5.48029 0.84441,0.84245 1.05502,2.10825 1.05502,2.10825 0,0 0.20694,51.21824 0.84262,56.27717 0.63571,5.05905 1.26379,38.99003 2.10823,56.69663 0.84444,17.70848 3.79323,45.10598 3.79323,45.10598 0,0 -6.32282,5.48226 -6.53532,8.22243 -0.20694,2.74012 4.00393,3.79323 8.4311,3.58257 4.42704,-0.21058 14.33451,-10.96049 14.33451,-10.96049 0,0 -0.21301,-15.80514 -0.21301,-22.12988 0,-6.32468 -1.68694,-14.33447 -1.68694,-26.13757 0,-11.80503 1.05315,-18.55103 2.10835,-27.19078 1.05881,-8.6436 4.85216,-17.28532 4.85216,-17.28532 0,0 5.89957,26.34629 6.74211,42.78716 0.84442,16.4428 0.84442,48.27125 0.84442,48.27125 0,0 6.32287,5.90357 7.79923,7.16536 1.47437,1.26581 5.26966,5.05906 8.0117,5.05906 2.73823,0 8.43107,-0.84058 8.43107,-4.42711 0,-3.58654 -7.37986,-10.32867 -7.37986,-10.32867 0,0 1.47634,-16.01957 1.68702,-18.54714 0.21106,-2.53143 -0.21059,-29.29716 0,-44.4761 0.21106,-15.17709 1.89755,-59.22607 2.31881,-69.55469 0.42318,-10.32872 1.0532,-25.50571 1.0532,-25.50571 l 2.11015,-2.53146 c 0,0 9.27556,16.23212 10.53937,21.92297 1.26371,5.69092 3.37005,30.77345 3.16134,33.30491 -0.21107,2.52951 0.20888,5.05903 0.20888,5.05903 l 0.84454,1.47636 c 0,0 -0.4209,1.68701 -2.10639,3.37196 -1.68691,1.68702 -3.58259,8.01175 3.37207,8.01175 6.95471,0 5.89958,-2.53138 5.89958,-5.48024 0,-2.95267 -1.26181,-4.21646 -1.26181,-4.21646 l 2.1064,-4.21648 c 0,0 0,-26.55894 0,-33.72423 0,-7.16536 -6.5316,-36.6769 -9.90558,-45.3187 -3.37401,-8.6416 -7.37597,-19.18092 -9.6968,-21.07857 -2.31689,-1.8957 -9.69864,-3.79332 -17.07466,-4.8484 -7.37597,-1.0531 -10.11806,1.05904 -10.11806,-1.0473 0,-2.10636 -0.4567,-3.9769 -0.4567,-3.9769 z"
   id="path5465" /><path
   sodipodi:nodetypes="cccccccssscccssssccccccscssccsscsccsssscccsscccccccsssccsscccssssccccssscsscccccccccccccccccccccccsccccc"
   style="fill:#ffffff;fill-opacity:1;fill-rule:evenodd;stroke-width:5.1891"
   id="path38"
   inkscape:connector-curvature="0"
   d="m 192.78874,386.95585 h 5.05624 v -5.71744 h -7.75021 l -4.03277,-8.41135 c 4.37159,-2.69164 7.06323,-6.73847 8.06788,-11.44888 h 4.3903 c 2.01644,22.88608 21.20142,40.39107 44.09212,40.39107 24.57076,0 44.76746,-19.86023 44.76746,-44.42857 0,-24.57057 -20.1967,-44.42155 -44.76746,-44.42155 -7.07254,0 -10.44173,0.6752 -17.16857,3.70101 l -17.5051,-30.6269 3.36927,-9.43246 c 4.70801,-0.33127 12.11951,-4.70809 12.11951,-10.08909 0,-1.01392 -0.67537,-1.68461 -1.68937,-1.68461 h -38.36773 c -2.01877,0 -3.70571,1.68461 -3.70571,3.70108 0,1.68461 1.35057,3.36453 3.02813,3.70108 l 17.16869,3.70095 -4.04224,11.11244 h -81.13043 l 1.69869,-6.74085 h -0.0133 c 0.34539,-0.67051 0.34539,-1.67997 0.34539,-2.687 0,-3.36927 -1.69862,-6.73145 -4.7174,-8.74784 -0.67765,-0.33832 -1.01407,-1.01403 -1.01407,-1.68454 0,-1.34578 1.01407,-2.35532 2.0164,-2.35532 h 17.16862 v -11.10296 h -20.53477 c -6.72674,0 -12.11248,5.38564 -12.11248,11.77365 0,4.37613 2.35529,8.0772 5.72216,10.43242 1.35281,0.67059 2.01867,1.68459 2.01867,3.03045 0,0.33375 0,0.67063 -0.33875,1.00938 l -9.42777,36.01956 c -5.04688,-2.02351 -10.43249,-3.03045 -15.47927,-3.03045 -24.58009,0 -44.430954,20.18742 -44.430954,44.42155 0,24.56834 19.850864,44.42857 44.430954,44.42857 24.57997,0 44.44026,-19.86023 44.44026,-44.42857 0,-14.4676 -7.07492,-27.9352 -18.85795,-36.01253 l 1.35057,-5.71738 51.5035,36.34896 c -0.67527,2.68698 -1.01172,2.68698 -1.01172,5.38095 0,10.4395 8.41373,18.51219 18.50974,18.51219 2.02577,0 3.70567,-0.33128 5.72216,-0.67064 l 2.69169,6.05618 h -5.04696 v 5.71744 h 5.04696 8.41601 m -28.60271,-29.61517 c 0,6.72916 5.37398,11.78538 11.77365,11.78538 6.73375,0 12.11949,-5.05622 12.11949,-11.78538 0,-6.395 -5.38574,-11.77595 -12.11949,-11.77595 -6.39967,0 -11.77365,5.38095 -11.77365,11.77595 m -83.48554,4.37623 h -1.00474 c -2.35285,0 -4.39031,-1.68456 -4.39031,-4.37623 0,-1.34819 1.02337,-2.69397 2.03746,-3.701 6.38804,-4.03981 10.75959,-9.75714 12.43947,-17.16864 l 2.36459,-7.74081 c -4.71972,-2.01632 -7.07492,-2.35287 -12.12172,-2.35287 -17.168643,0 -31.304491,13.80411 -31.304491,30.96332 0,17.16638 14.135848,31.29981 31.304491,31.29981 17.17799,0 30.96807,-14.13343 30.96807,-31.29981 0,-8.0749 -3.36695,-16.15221 -9.08202,-21.87898 l -2.69174,9.09604 c -2.35518,9.08194 -9.43718,15.47461 -18.51906,17.15917 m 151.4708,-33.65729 c 3.36922,-1.00696 7.07496,-1.68226 10.44188,-1.68226 17.16861,0 31.29743,13.80411 31.29743,30.96332 0,17.16638 -14.12882,31.29981 -31.29743,31.29981 -15.48874,0 -28.62216,-11.77829 -30.63863,-27.26231 h 32.65495 c 2.01872,0 4.03519,-1.68461 4.03519,-4.0375 0,-0.67292 -0.32923,-1.34819 -0.6659,-2.01868 z m -20.19675,25.24599 h 21.87675 l -11.09842,-19.52612 c -6.07022,5.05612 -9.76663,11.78524 -10.77833,19.52612 m -17.84386,0 c -1.0047,-4.03983 -3.35746,-8.07728 -6.72681,-10.43253 l 15.48877,-43.08278 13.12404,22.2131 c -10.43245,7.73622 -16.49098,18.51449 -17.49566,31.30221 z M 167.87876,327.7232 h -8.41604 -5.05618 v 6.05629 h 7.7478 l 3.70567,8.08426 -1.01165,1.00933 -54.87284,-38.37465 1.6894,-6.39274 h 80.10698 l -14.81344,40.72992 h -0.66597 c -2.69165,0 -3.0304,0 -5.72204,1.00698 l -2.69169,-6.0631 h 5.04684 v -6.05629 z" /></svg>
