<?xml version="1.0" encoding="UTF-8" standalone="no"?>
<!-- Created with Inkscape (http://www.inkscape.org/) -->

<svg
   version="1.1"
   id="svg56391"
   width="276.94214"
   height="269.93994"
   viewBox="0 0 276.94214 269.93995"
   sodipodi:docname="612.svg"
   inkscape:version="1.2.2 (732a01da63, 2022-12-09)"
   xml:space="preserve"
   xmlns:inkscape="http://www.inkscape.org/namespaces/inkscape"
   xmlns:sodipodi="http://sodipodi.sourceforge.net/DTD/sodipodi-0.dtd"
   xmlns="http://www.w3.org/2000/svg"
   xmlns:svg="http://www.w3.org/2000/svg"><defs
     id="defs56395" /><sodipodi:namedview
     id="namedview56393"
     pagecolor="#ffffff"
     bordercolor="#000000"
     borderopacity="0.25"
     inkscape:showpageshadow="2"
     inkscape:pageopacity="0.0"
     inkscape:pagecheckerboard="0"
     inkscape:deskcolor="#d1d1d1"
     showgrid="false"
     inkscape:zoom="91.906337"
     inkscape:cx="101.81561"
     inkscape:cy="-1.4416851"
     inkscape:window-width="1920"
     inkscape:window-height="991"
     inkscape:window-x="-9"
     inkscape:window-y="-9"
     inkscape:window-maximized="1"
     inkscape:current-layer="g56397" /><g
     inkscape:groupmode="layer"
     inkscape:label="Image"
     id="g56397"
     transform="translate(-10.635756,-40.318408)"><path
       id="rect56575"
       style="opacity:1;fill:#070fdb;stroke:none;stroke-width:0.1;stroke-dasharray:none;stroke-opacity:1;paint-order:stroke fill markers"
       d="M 10.685756,40.368408 H 109.52767 V 102.10833 H 10.685756 Z" /><path
       id="rect56577"
       style="opacity:1;fill:#ffffff;stroke-width:0.784156"
       d="M 16.549522,53.956467 H 103.6639 V 97.491028 H 16.549522 Z" /><path
       id="rect56579"
       style="opacity:1;fill:#ffffff;stroke-width:0.902467"
       d="m 36.027344,41.984375 -6.691406,10.224609 c 0,0 2.984373,-1.861328 6.691406,-1.861328 3.707031,0 6.691406,1.861328 6.691406,1.861328 z" /><path
       id="rect56737"
       style="opacity:1;fill:#070fdb;stroke-width:0.994704"
       transform="scale(-1)"
       d="m -109.52792,-170.20833 h 98.841908 v 61.73992 h -98.841908 z" /><path
       id="rect56739"
       style="opacity:1;fill:#ffffff;stroke-width:0.784156"
       transform="scale(-1)"
       d="m -103.66415,-156.62027 h 87.114383 v 43.53456 h -87.114383 z" /><path
       id="path56741"
       style="opacity:1;fill:#ffffff;stroke-width:0.902467"
       d="m 84.186324,168.59236 6.691406,-10.2246 c 0,0 -2.984373,1.86132 -6.691406,1.86132 -3.707031,0 -6.691406,-1.86132 -6.691406,-1.86132 z" /><path
       id="rect56745"
       style="opacity:1;fill:#01553b;stroke-width:0.994704"
       d="m 188.68576,40.368408 h 98.84191 v 61.739922 h -98.84191 z" /><path
       id="rect56747"
       style="opacity:1;fill:#ffffff;stroke-width:0.784156"
       d="m 194.54953,53.956467 h 87.11438 v 43.534561 h -87.11438 z" /><path
       id="path56749"
       style="opacity:1;fill:#ffffff;stroke-width:0.902467"
       d="m 214.02734,41.984375 -6.6914,10.224609 c 0,0 2.98437,-1.861328 6.6914,-1.861328 3.70703,0 6.69141,1.861328 6.69141,1.861328 z" /><path
       id="rect56753"
       style="opacity:1;fill:#01553b;stroke-width:0.994704"
       transform="scale(-1)"
       d="m -287.52789,-170.20833 h 98.84191 v 61.73992 h -98.84191 z" /><path
       id="rect56755"
       style="opacity:1;fill:#ffffff;stroke-width:0.784156"
       transform="scale(-1)"
       d="m -281.66412,-156.62027 h 87.11438 v 43.53456 h -87.11438 z" /><path
       id="path56757"
       style="opacity:1;fill:#ffffff;stroke-width:0.902467"
       d="m 262.18632,168.59236 6.6914,-10.2246 c 0,0 -2.98437,1.86132 -6.6914,1.86132 -3.70704,0 -6.69141,-1.86132 -6.69141,-1.86132 z" /><path
       id="rect56761"
       style="opacity:1;fill:#ff0000;stroke-width:0.994704"
       d="m 10.685756,180.36841 h 98.841914 v 61.73992 H 10.685756 Z" /><path
       id="rect56763"
       style="opacity:1;fill:#ffffff;stroke-width:0.784156"
       d="M 16.549522,193.95647 H 103.6639 v 43.53456 H 16.549522 Z" /><path
       id="path56765"
       style="opacity:1;fill:#ffffff;stroke-width:0.902467"
       d="m 36.027344,181.98437 -6.691406,10.22461 c 0,0 2.984373,-1.86132 6.691406,-1.86132 3.707031,0 6.691406,1.86132 6.691406,1.86132 z" /><path
       id="rect56769"
       style="opacity:1;fill:#ff0000;stroke-width:0.994704"
       transform="scale(-1)"
       d="m -109.52792,-310.20834 h 98.841908 v 61.73992 h -98.841908 z" /><path
       id="rect56771"
       style="opacity:1;fill:#ffffff;stroke-width:0.784156"
       transform="scale(-1)"
       d="m -103.66415,-296.62027 h 87.114383 v 43.53456 h -87.114383 z" /><path
       id="path56773"
       style="opacity:1;fill:#ffffff;stroke-width:0.902467"
       d="m 84.186324,308.59236 6.691406,-10.2246 c 0,0 -2.984373,1.86132 -6.691406,1.86132 -3.707031,0 -6.691406,-1.86132 -6.691406,-1.86132 z" /><path
       id="rect56777"
       style="opacity:1;stroke-width:0.994704"
       d="m 188.68576,180.36841 h 98.84191 v 61.73992 h -98.84191 z" /><path
       id="rect56779"
       style="opacity:1;fill:#ffffff;stroke-width:0.784156"
       d="m 194.54953,193.95647 h 87.11438 v 43.53456 h -87.11438 z" /><path
       id="path56781"
       style="opacity:1;fill:#ffffff;stroke-width:0.902467"
       d="m 214.02734,181.98437 -6.6914,10.22461 c 0,0 2.98437,-1.86132 6.6914,-1.86132 3.70703,0 6.69141,1.86132 6.69141,1.86132 z" /><path
       id="rect56785"
       style="opacity:1;stroke:none;stroke-width:0.1;stroke-dasharray:none;stroke-opacity:1;paint-order:stroke fill markers"
       transform="scale(-1)"
       d="m -287.52789,-310.20834 h 98.84191 v 61.73992 h -98.84191 z" /><path
       id="rect56787"
       style="opacity:1;fill:#ffffff;stroke-width:0.784156"
       transform="scale(-1)"
       d="m -281.66412,-296.62027 h 87.11438 v 43.53456 h -87.11438 z" /><path
       id="path56789"
       style="opacity:1;fill:#ffffff;stroke-width:0.902467"
       d="m 262.18632,308.59236 6.6914,-10.2246 c 0,0 -2.98437,1.86132 -6.6914,1.86132 -3.70704,0 -6.69141,-1.86132 -6.69141,-1.86132 z" /><g
       aria-label="24"
       id="text56871"
       style="font-size:51.7594px;opacity:1;fill:#070fdb;stroke-width:4.31328"><path
         d="m 32.570727,94.150093 q 0,-3.881955 1.242226,-6.573444 1.293984,-2.691488 3.209082,-4.658346 1.915098,-1.966857 4.140752,-3.41612 2.225654,-1.501023 4.140752,-3.053805 1.915098,-1.552782 3.157324,-3.36436 1.293985,-1.863339 1.293985,-4.503068 0,-0.828151 -0.258797,-1.75982 -0.258797,-0.931669 -0.828151,-1.656301 -0.569353,-0.776391 -1.501022,-1.242225 -0.87991,-0.517594 -2.173895,-0.517594 -1.75982,0 -2.795008,0.776391 -0.983428,0.724631 -1.501022,1.811579 -0.517594,1.086947 -0.672873,2.329173 -0.103518,1.242225 -0.103518,2.225654 h -7.039279 q 0,-3.623158 0.983429,-6.159369 0.983429,-2.53621 2.58797,-4.088992 1.656301,-1.604542 3.830195,-2.277414 2.173895,-0.724631 4.554828,-0.724631 3.053804,0 5.382977,0.931669 2.329173,0.87991 3.881955,2.432692 1.552782,1.501022 2.329173,3.571398 0.776391,2.018617 0.776391,4.34779 0,2.846767 -0.82815,4.968902 -0.828151,2.070376 -2.173895,3.726677 -1.345745,1.656301 -3.053805,2.950286 -1.70806,1.293985 -3.467879,2.484451 -1.708061,1.190466 -3.312602,2.432692 -1.604541,1.190466 -2.795008,2.691488 h 15.631339 v 6.314647 z"
         style="font-weight:bold;font-family:Triumvirate;-inkscape-font-specification:'Triumvirate Bold'"
         id="path58100" /><path
         d="m 67.50829,80.58913 h 9.057895 V 65.371867 h -0.103519 z m 9.057895,5.693534 H 62.177072 V 79.864499 L 75.634516,58.125551 h 7.970947 V 80.58913 h 4.037233 v 5.693534 h -4.037233 v 7.867429 h -7.039278 z"
         style="font-weight:bold;font-family:Triumvirate;-inkscape-font-specification:'Triumvirate Bold'"
         id="path58102" /></g><g
       aria-label="24"
       id="text57079"
       style="font-size:51.7594px;opacity:1;fill:#070fdb;stroke-width:4.31328"><path
         d="m 32.570971,153.27934 q 0,-3.88195 1.242226,-6.57344 1.293985,-2.69149 3.209082,-4.65835 1.915098,-1.96685 4.140752,-3.41612 2.225655,-1.50102 4.140752,-3.0538 1.915098,-1.55278 3.157324,-3.36436 1.293985,-1.86334 1.293985,-4.50307 0,-0.82815 -0.258797,-1.75982 -0.258797,-0.93167 -0.828151,-1.6563 -0.569353,-0.77639 -1.501022,-1.24223 -0.87991,-0.51759 -2.173895,-0.51759 -1.75982,0 -2.795008,0.77639 -0.983428,0.72463 -1.501022,1.81158 -0.517594,1.08695 -0.672872,2.32917 -0.103519,1.24223 -0.103519,2.22566 h -7.039279 q 0,-3.62316 0.983429,-6.15937 0.983429,-2.53621 2.58797,-4.08899 1.656301,-1.60455 3.830196,-2.27742 2.173894,-0.72463 4.554827,-0.72463 3.053804,0 5.382977,0.93167 2.329173,0.87991 3.881955,2.43269 1.552782,1.50102 2.329173,3.5714 0.776391,2.01862 0.776391,4.34779 0,2.84677 -0.82815,4.9689 -0.828151,2.07038 -2.173895,3.72668 -1.345744,1.6563 -3.053805,2.95028 -1.70806,1.29399 -3.467879,2.48446 -1.70806,1.19046 -3.312602,2.43269 -1.604541,1.19046 -2.795007,2.69149 h 15.631338 v 6.31464 z"
         style="font-weight:bold;font-family:Triumvirate;-inkscape-font-specification:'Triumvirate Bold'"
         id="path58105" /><path
         d="m 67.508534,139.71838 h 9.057895 V 124.50112 H 76.46291 Z m 9.057895,5.69353 H 62.177316 v -6.41816 L 75.63476,117.2548 h 7.970947 v 22.46358 h 4.037233 v 5.69353 h -4.037233 v 7.86743 h -7.039278 z"
         style="font-weight:bold;font-family:Triumvirate;-inkscape-font-specification:'Triumvirate Bold'"
         id="path58107" /></g><g
       aria-label="34"
       id="text57083"
       style="font-size:51.7594px;opacity:1;fill:#ff0000;stroke-width:4.31328"><path
         d="m 33.140081,209.25383 q 0,-2.58797 0.724631,-4.76187 0.724632,-2.22565 2.173895,-3.77843 1.501023,-1.60454 3.674917,-2.48445 2.225655,-0.93167 5.2277,-0.93167 2.484451,0 4.606586,0.67287 2.122136,0.62111 3.674918,1.9151 1.552782,1.24222 2.432691,3.10556 0.87991,1.81158 0.87991,4.19251 0,1.55279 -0.414075,2.79501 -0.362316,1.19047 -0.983429,2.12214 -0.569353,0.87991 -1.345744,1.55278 -0.724632,0.62111 -1.397504,1.03519 0.828151,0.36231 1.70806,0.98343 0.93167,0.62111 1.708061,1.6563 0.776391,0.98342 1.242225,2.43269 0.517594,1.44926 0.517594,3.51964 0,2.32917 -0.87991,4.45131 -0.82815,2.12213 -2.432691,3.72667 -1.604542,1.60454 -3.933715,2.58797 -2.329173,0.93167 -5.279458,0.93167 -3.46788,0 -5.848813,-0.93167 -2.380932,-0.98343 -3.881955,-2.63973 -1.449263,-1.6563 -2.122135,-3.88195 -0.672872,-2.22566 -0.672872,-4.76187 h 7.039278 q 0,0.72463 0.155278,1.75982 0.207038,1.03519 0.724632,2.01862 0.569353,0.93167 1.604541,1.6563 1.086948,0.67287 2.795008,0.67287 2.795007,0 4.037233,-1.50102 1.242226,-1.50102 1.242226,-3.88196 0,-2.95028 -1.75982,-4.19251 -1.75982,-1.29398 -4.606586,-1.29398 h -1.708061 v -5.17594 h 1.552782 q 2.58797,0 4.244271,-1.19047 1.656301,-1.24222 1.656301,-4.03723 0,-1.6563 -1.190466,-2.89853 -1.138707,-1.29398 -3.312602,-1.29398 -1.811579,0 -2.846767,0.62111 -0.983428,0.62111 -1.501022,1.55278 -0.517594,0.87991 -0.672873,1.9151 -0.103518,0.98343 -0.103518,1.75982 z"
         style="font-weight:bold;font-family:Triumvirate;-inkscape-font-specification:'Triumvirate Bold'"
         id="path58110" /><path
         d="m 67.56005,220.58914 h 9.057895 v -15.21727 h -0.103519 z m 9.057895,5.69353 H 62.228832 v -6.41816 l 13.457443,-21.73895 h 7.970948 v 22.46358 h 4.037233 v 5.69353 h -4.037233 v 7.86743 h -7.039278 z"
         style="font-weight:bold;font-family:Triumvirate;-inkscape-font-specification:'Triumvirate Bold'"
         id="path58112" /></g><g
       aria-label="34"
       id="text57087"
       style="font-size:51.7594px;opacity:1;fill:#ff0000;stroke-width:4.31328"><path
         d="m 33.088565,268.38306 q 0,-2.58797 0.724632,-4.76187 0.724631,-2.22565 2.173894,-3.77843 1.501023,-1.60455 3.674918,-2.48446 2.225654,-0.93166 5.227699,-0.93166 2.484451,0 4.606587,0.67287 2.122135,0.62111 3.674917,1.91509 1.552782,1.24223 2.432692,3.10557 0.87991,1.81158 0.87991,4.19251 0,1.55278 -0.414076,2.79501 -0.362315,1.19046 -0.983428,2.12213 -0.569354,0.87991 -1.345745,1.55279 -0.724631,0.62111 -1.397503,1.03518 0.82815,0.36232 1.70806,0.98343 0.931669,0.62111 1.70806,1.6563 0.776391,0.98343 1.242226,2.43269 0.517594,1.44927 0.517594,3.51964 0,2.32918 -0.87991,4.45131 -0.828151,2.12214 -2.432692,3.72668 -1.604541,1.60454 -3.933714,2.58797 -2.329173,0.93167 -5.279459,0.93167 -3.46788,0 -5.848812,-0.93167 -2.380933,-0.98343 -3.881955,-2.63973 -1.449263,-1.6563 -2.122136,-3.88196 -0.672872,-2.22565 -0.672872,-4.76186 h 7.039279 q 0,0.72463 0.155278,1.75982 0.207037,1.03519 0.724631,2.01862 0.569354,0.93166 1.604542,1.6563 1.086947,0.67287 2.795007,0.67287 2.795008,0 4.037233,-1.50102 1.242226,-1.50103 1.242226,-3.88196 0,-2.95028 -1.75982,-4.19251 -1.759819,-1.29399 -4.606586,-1.29399 h -1.70806 v -5.17594 h 1.552782 q 2.58797,0 4.24427,-1.19046 1.656301,-1.24223 1.656301,-4.03723 0,-1.65631 -1.190466,-2.89853 -1.138707,-1.29399 -3.312601,-1.29399 -1.811579,0 -2.846767,0.62112 -0.983429,0.62111 -1.501023,1.55278 -0.517594,0.87991 -0.672872,1.9151 -0.103519,0.98343 -0.103519,1.75982 z"
         style="font-weight:bold;font-family:Triumvirate;-inkscape-font-specification:'Triumvirate Bold'"
         id="path58115" /><path
         d="m 67.508534,279.71836 h 9.057895 V 264.5011 H 76.46291 Z m 9.057895,5.69354 H 62.177316 v -6.41817 L 75.63476,257.25479 h 7.970947 v 22.46357 h 4.037233 v 5.69354 h -4.037233 v 7.86743 h -7.039278 z"
         style="font-weight:bold;font-family:Triumvirate;-inkscape-font-specification:'Triumvirate Bold'"
         id="path58117" /></g><g
       aria-label="44"
       id="text57348"
       style="font-size:51.7594px;opacity:1;fill:#01553b;stroke-width:4.31328"><path
         d="m 215.79866,80.58913 h 9.05789 V 65.371867 h -0.10352 z m 9.05789,5.693534 h -14.38911 v -6.418165 l 13.45744,-21.738948 h 7.97095 V 80.58913 h 4.03723 v 5.693534 h -4.03723 v 7.867429 h -7.03928 z"
         style="font-weight:bold;font-family:Triumvirate;-inkscape-font-specification:'Triumvirate Bold'"
         id="path58120" /><path
         d="m 245.50852,80.58913 h 9.05789 V 65.371867 h -0.10352 z m 9.05789,5.693534 H 240.1773 v -6.418165 l 13.45744,-21.738948 h 7.97095 V 80.58913 h 4.03724 v 5.693534 h -4.03724 v 7.867429 h -7.03928 z"
         style="font-weight:bold;font-family:Triumvirate;-inkscape-font-specification:'Triumvirate Bold'"
         id="path58122" /></g><g
       aria-label="44"
       id="text57352"
       style="font-size:51.7594px;opacity:1;fill:#01553b;stroke-width:4.31328"><path
         d="m 215.79866,139.71838 h 9.05789 v -15.21726 h -0.10352 z m 9.05789,5.69353 h -14.38911 v -6.41816 l 13.45744,-21.73895 h 7.97095 v 22.46358 h 4.03723 v 5.69353 h -4.03723 v 7.86743 h -7.03928 z"
         style="font-weight:bold;font-family:Triumvirate;-inkscape-font-specification:'Triumvirate Bold'"
         id="path58125" /><path
         d="m 245.50852,139.71838 h 9.05789 v -15.21726 h -0.10352 z m 9.05789,5.69353 H 240.1773 v -6.41816 l 13.45744,-21.73895 h 7.97095 v 22.46358 h 4.03724 v 5.69353 h -4.03724 v 7.86743 h -7.03928 z"
         style="font-weight:bold;font-family:Triumvirate;-inkscape-font-specification:'Triumvirate Bold'"
         id="path58127" /></g><g
       aria-label="54"
       id="text57356"
       style="font-size:51.7594px;opacity:1;stroke-width:4.31328"><path
         d="m 218.07607,212.1006 q 1.34574,-0.87991 2.795,-1.44927 1.44927,-0.62111 3.77844,-0.62111 2.48445,0 4.50307,0.82815 2.07037,0.82815 3.51964,2.38093 1.50102,1.55279 2.27741,3.72668 0.82815,2.17389 0.82815,4.86538 0,2.89853 -0.93167,5.33122 -0.87991,2.38093 -2.58797,4.14075 -1.6563,1.70806 -4.03723,2.69149 -2.38093,0.98343 -5.33122,0.98343 -3.36436,0 -5.64177,-1.03519 -2.22566,-1.03518 -3.67492,-2.58797 -1.3975,-1.60454 -2.12214,-3.46788 -0.67287,-1.86334 -0.87991,-3.5714 l 7.03928,-0.41407 q 0.10352,0.87991 0.41408,1.81158 0.31055,0.87991 0.93167,1.60454 0.62111,0.67287 1.55278,1.13871 0.98343,0.41407 2.48445,0.41407 1.03519,0 1.96686,-0.36231 0.98343,-0.41408 1.70806,-1.24223 0.77639,-0.82815 1.19046,-2.07038 0.46584,-1.24222 0.46584,-2.89852 0,-3.00205 -1.55278,-4.55483 -1.50103,-1.60454 -3.77844,-1.60454 -1.96686,0 -3.10556,0.82815 -1.13871,0.82815 -1.70806,1.86334 l -6.41817,-0.41408 2.63973,-20.28968 h 19.97913 v 6.31465 h -15.11375 z"
         style="font-weight:bold;font-family:Triumvirate;-inkscape-font-specification:'Triumvirate Bold'"
         id="path58130" /><path
         d="m 245.56028,220.58914 h 9.05789 v -15.21727 h -0.10352 z m 9.05789,5.69353 h -14.38911 v -6.41816 l 13.45744,-21.73895 h 7.97095 v 22.46358 h 4.03723 v 5.69353 h -4.03723 v 7.86743 h -7.03928 z"
         style="font-weight:bold;font-family:Triumvirate;-inkscape-font-specification:'Triumvirate Bold'"
         id="path58132" /></g><g
       aria-label="54"
       id="text57360"
       style="font-size:51.7594px;opacity:1;stroke-width:4.31328"><path
         d="m 218.07607,271.22982 q 1.34574,-0.87991 2.795,-1.44926 1.44927,-0.62111 3.77844,-0.62111 2.48445,0 4.50307,0.82815 2.07037,0.82815 3.51964,2.38093 1.50102,1.55278 2.27741,3.72668 0.82815,2.17389 0.82815,4.86538 0,2.89853 -0.93167,5.33122 -0.87991,2.38093 -2.58797,4.14075 -1.6563,1.70806 -4.03723,2.69149 -2.38093,0.98343 -5.33122,0.98343 -3.36436,0 -5.64177,-1.03519 -2.22566,-1.03519 -3.67492,-2.58797 -1.3975,-1.60454 -2.12214,-3.46788 -0.67287,-1.86334 -0.87991,-3.5714 l 7.03928,-0.41407 q 0.10352,0.87991 0.41408,1.81158 0.31055,0.87991 0.93167,1.60454 0.62111,0.67287 1.55278,1.1387 0.98343,0.41408 2.48445,0.41408 1.03519,0 1.96686,-0.36232 0.98343,-0.41407 1.70806,-1.24222 0.77639,-0.82815 1.19046,-2.07038 0.46584,-1.24222 0.46584,-2.89853 0,-3.00204 -1.55278,-4.55482 -1.50103,-1.60454 -3.77844,-1.60454 -1.96686,0 -3.10556,0.82815 -1.13871,0.82815 -1.70806,1.86334 l -6.41817,-0.41408 2.63973,-20.28968 h 19.97913 v 6.31464 h -15.11375 z"
         style="font-weight:bold;font-family:Triumvirate;-inkscape-font-specification:'Triumvirate Bold'"
         id="path58135" /><path
         d="m 245.56028,279.71836 h 9.05789 V 264.5011 h -0.10352 z m 9.05789,5.69354 h -14.38911 v -6.41817 l 13.45744,-21.73894 h 7.97095 v 22.46357 h 4.03723 v 5.69354 h -4.03723 v 7.86743 h -7.03928 z"
         style="font-weight:bold;font-family:Triumvirate;-inkscape-font-specification:'Triumvirate Bold'"
         id="path58137" /></g></g></svg>
