<?xml version="1.0" encoding="UTF-8" standalone="no"?>
<svg
   xmlns:dc="http://purl.org/dc/elements/1.1/"
   xmlns:cc="http://creativecommons.org/ns#"
   xmlns:rdf="http://www.w3.org/1999/02/22-rdf-syntax-ns#"
   xmlns:svg="http://www.w3.org/2000/svg"
   xmlns="http://www.w3.org/2000/svg"
   xmlns:sodipodi="http://sodipodi.sourceforge.net/DTD/sodipodi-0.dtd"
   xmlns:inkscape="http://www.inkscape.org/namespaces/inkscape"
   inkscape:version="1.0 (4035a4fb49, 2020-05-01)"
   sodipodi:docname="Israel_road_sign_226.svg"
   xml:space="preserve"
   enable-background="new 0 0 610 600"
   viewBox="0 0 377.95276 377.95276"
   height="377.95276"
   width="377.95276"
   y="0px"
   x="0px"
   id="Layer_1"
   version="1.1"><metadata
   id="metadata75"><rdf:RDF><cc:Work
       rdf:about=""><dc:format>image/svg+xml</dc:format><dc:type
         rdf:resource="http://purl.org/dc/dcmitype/StillImage" /></cc:Work></rdf:RDF></metadata><defs
   id="defs41" /><sodipodi:namedview
   inkscape:document-rotation="0"
   inkscape:snap-global="false"
   inkscape:guide-bbox="true"
   showguides="true"
   inkscape:bbox-nodes="true"
   inkscape:snap-bbox-edge-midpoints="true"
   inkscape:snap-bbox="true"
   inkscape:snap-smooth-nodes="true"
   inkscape:snap-intersection-paths="true"
   inkscape:object-paths="false"
   inkscape:current-layer="Layer_1"
   inkscape:window-maximized="1"
   inkscape:window-y="-9"
   inkscape:window-x="-9"
   inkscape:window-height="1001"
   inkscape:window-width="1920"
   inkscape:cy="204.97688"
   inkscape:cx="61.378738"
   inkscape:zoom="1.4142136"
   showgrid="false"
   inkscape:pagecheckerboard="0"
   inkscape:pageopacity="0.0"
   inkscape:pageshadow="2"
   borderopacity="1.0"
   bordercolor="#666666"
   pagecolor="#ffffff"
   id="namedview39" />

<g
   id="g34">
	<g
   id="g24">
		<g
   id="g6">
			<path
   style="display:none"
   id="path4"
   d="m 355.545,329.729 c 0.008,-50.328 40.785,-91.109 91.111,-91.119 v 0 10.549 10.548 c -19.371,0.006 -36.809,7.823 -49.512,20.508 v 0 c -12.686,12.703 -20.503,30.143 -20.505,49.51 v 0 c 0.002,19.363 7.817,36.805 20.505,49.506 v 0 c 12.703,12.688 30.141,20.504 49.512,20.508 v 0 c 19.365,-0.008 36.805,-7.82 49.504,-20.508 v 0 c 12.688,-12.701 20.507,-30.143 20.51,-49.506 v 0 c -0.008,-19.367 -7.822,-36.807 -20.51,-49.51 v 0 c -12.699,-12.686 -30.139,-20.506 -49.504,-20.508 v 0 -10.548 -10.549 c 50.324,0.01 91.106,40.791 91.113,91.119 v 0 c -0.007,50.322 -40.789,91.107 -91.113,91.113 v 0 c -50.326,-0.01 -91.103,-40.795 -91.111,-91.113 z"
   fill="#ffffff" />
		</g>
		<g
   id="g10">
			
		</g>
		<g
   id="g14">
			
		</g>
		<g
   id="g18">
			
		</g>
		<g
   id="g22">
			
		</g>
	</g>
	<g
   id="g30">
		
		
	</g>
	
</g>

<g
   transform="matrix(-1,0,0,1,377.95276,0)"
   id="g1017"><circle
     fill="#0099BB"
     cx="188.97638"
     cy="188.97638"
     r="188.97638"
     id="circle2"
     style="opacity:1;fill:#070fdb;fill-opacity:1;stroke-width:0.646108" /><circle
     fill="none"
     stroke="#ffffff"
     stroke-width="4.46784"
     cx="188.97702"
     cy="188.97638"
     r="181.69217"
     id="circle36"
     style="opacity:1" /><path
     d="m 231.39683,34.826109 -52.22616,85.763511 h 41.71523 l -3.9337,44.43715 c -11.60794,-7.47745 -25.43963,-11.82519 -40.33165,-11.82519 -41.2157,0 -74.3965,33.1808 -74.3965,74.3965 v 18.81239 H 64.22248 l 53.48313,85.76352 52.22616,-85.76352 h -40.83502 v -6.80633 c 0,-22.51806 18.12705,-40.64513 40.64511,-40.64513 22.39373,0 40.44038,17.9293 40.6391,40.27436 l -7.9367,89.63693 h 59.16513 L 243.16777,120.58962 h 41.71219 z"
     style="opacity:1;fill:#ffffff;fill-opacity:1;stroke-width:3.2103"
     id="rect107" /></g></svg>
