<?xml version="1.0" encoding="UTF-8" standalone="no"?>
<svg
   viewBox="0 0 568.125 497.228"
   height="497.228"
   width="568.125"
   xml:space="preserve"
   version="1.1"
   id="svg3522"
   sodipodi:docname="Roadwork_sign_israel.svg"
   inkscape:version="1.1.2 (b8e25be833, 2022-02-05)"
   xmlns:inkscape="http://www.inkscape.org/namespaces/inkscape"
   xmlns:sodipodi="http://sodipodi.sourceforge.net/DTD/sodipodi-0.dtd"
   xmlns="http://www.w3.org/2000/svg"
   xmlns:svg="http://www.w3.org/2000/svg"
   xmlns:rdf="http://www.w3.org/1999/02/22-rdf-syntax-ns#"
   xmlns:cc="http://creativecommons.org/ns#"
   xmlns:dc="http://purl.org/dc/elements/1.1/"><sodipodi:namedview
     id="namedview11"
     pagecolor="#ffffff"
     bordercolor="#666666"
     borderopacity="1.0"
     inkscape:pageshadow="2"
     inkscape:pageopacity="0.0"
     inkscape:pagecheckerboard="true"
     showgrid="false"
     showguides="true"
     inkscape:guide-bbox="true"
     inkscape:snap-intersection-paths="true"
     inkscape:snap-smooth-nodes="true"
     inkscape:snap-bbox="true"
     inkscape:snap-bbox-edge-midpoints="true"
     inkscape:bbox-nodes="true"
     inkscape:zoom="1"
     inkscape:cx="248.5"
     inkscape:cy="290.5"
     inkscape:window-width="1920"
     inkscape:window-height="1001"
     inkscape:window-x="-9"
     inkscape:window-y="-9"
     inkscape:window-maximized="1"
     inkscape:current-layer="svg3522"
     width="568.125px"
     inkscape:snap-global="true"
     inkscape:object-paths="false" /><metadata
     id="metadata3528"><rdf:RDF><cc:Work
         rdf:about=""><dc:format>image/svg+xml</dc:format><dc:type
           rdf:resource="http://purl.org/dc/dcmitype/StillImage" /></cc:Work></rdf:RDF></metadata><defs
     id="defs3526" /><path
     id="rect2419"
     style="display:inline;fill:#ffffff;fill-opacity:1;stroke-width:1.41526;stroke-linecap:round"
     d="M 284.06233,42.768626 519.25791,454.45937 H 48.866745 Z"
     sodipodi:nodetypes="cccc" /><path
     id="path1287-2"
     style="display:inline;fill:#c0111e;fill-opacity:1;fill-rule:nonzero;stroke:none;stroke-width:0.859147"
     d="M 284.06233,4.5425685e-4 C 277.94091,-0.04336226 271.21873,3.083666 267.92647,8.9396153 L 2.1975383,469.35001 C 0.66396013,472.48418 0.01976039,475.20891 0,478.32676 0,489.21753 8.9379258,497.228 18.874395,497.228 H 549.25027 c 9.93647,0 18.87439,-8.01047 18.87439,-18.90124 -0.0197,-3.11785 -0.66396,-5.84258 -2.19753,-8.97675 L 300.19819,8.9396153 C 296.90594,3.083666 290.18376,-0.04336226 284.06233,4.5425685e-4 Z m 0,90.77454274315 L 487.1272,442.24256 H 80.997471 Z"
     sodipodi:nodetypes="cccccccccccccc" /><path
     id="rect1078"
     style="fill:#000000;fill-opacity:1;stroke:none;stroke-width:4.954"
     d="m 166.56232,340.86916 -43.10557,95.89663 h 32.46222 l 40.12545,-95.89663 z m 49.04651,0 -16.95199,48.25309 c 3.66621,0.63919 7.80618,1.88099 9.521,2.3996 l 20.79322,-50.65269 z m 42.18636,0 -10.26596,24.28621 -5.17652,71.61042 h 32.4622 l 3.96706,-95.89663 z m 35.2489,0 3.96705,95.89663 h 32.45256 l -4.82822,-66.78222 -25.5537,-29.11441 z m 45.25358,0 37.22275,44.13122 -15.50062,-44.13122 z m 37.81297,0 40.1351,95.89663 h 32.45255 l -43.09591,-95.89663 z m 2.60278,53.22644 c -0.15062,0.28461 -0.30269,0.5836 -0.44488,0.83212 -0.43693,0.76249 -0.85638,1.32585 -0.87081,1.34493 l -0.0197,0.0192 -17.04872,23.56054 6.37632,16.91324 h 27.0051 z m -185.83298,11.4658 -10.96266,31.20439 h 29.48209 l 7.21812,-20.54167 z"
     sodipodi:nodetypes="ccccccccccccccccccccccccccccccccsccccccccccc" /><path
     style="color:#000000;font-style:normal;font-variant:normal;font-weight:normal;font-stretch:normal;font-size:medium;line-height:normal;font-family:sans-serif;font-variant-ligatures:normal;font-variant-position:normal;font-variant-caps:normal;font-variant-numeric:normal;font-variant-alternates:normal;font-variant-east-asian:normal;font-feature-settings:normal;font-variation-settings:normal;text-indent:0;text-align:start;text-decoration:none;text-decoration-line:none;text-decoration-style:solid;text-decoration-color:#000000;letter-spacing:normal;word-spacing:normal;text-transform:none;writing-mode:lr-tb;direction:ltr;text-orientation:mixed;dominant-baseline:auto;baseline-shift:baseline;text-anchor:start;white-space:normal;shape-padding:0;shape-margin:0;inline-size:0;clip-rule:nonzero;display:inline;overflow:visible;visibility:visible;isolation:auto;mix-blend-mode:normal;color-interpolation:sRGB;color-interpolation-filters:linearRGB;solid-color:#000000;solid-opacity:1;vector-effect:none;fill:#000000;fill-opacity:1;fill-rule:nonzero;stroke:none;stroke-width:4.45859;stroke-linecap:butt;stroke-linejoin:miter;stroke-miterlimit:4;stroke-dasharray:none;stroke-dashoffset:0;stroke-opacity:1;paint-order:stroke fill markers;color-rendering:auto;image-rendering:auto;shape-rendering:auto;text-rendering:auto;enable-background:accumulate;stop-color:#000000"
     d="m 331.68518,283.75317 v -38.95425 l -6.0471,-10.26593 c -0.38552,-1.1246 -1.51052,-1.91469 -2.57848,-1.67666 -0.90703,0.20214 -1.70052,1.09054 -1.7809,2.23919 l -1.26615,65.11123 -0.42248,21.93813 54.56415,64.68936 c 0,0 2.79025,3.0674 2.87949,4.98403 0.0529,1.14917 -1.44094,3.13576 -1.44094,3.13576 l -22.09005,30.52882 c 0,0 -1.10902,1.9686 -2.08139,2.36219 -0.88722,0.35883 -2.06834,0.3067 -2.86169,-0.22842 -1.04301,-0.70331 -1.97009,-2.14941 -1.68757,-3.37508 1.61047,-6.98528 5.64719,-22.25056 5.64719,-22.25056 l 0.70369,-2.81256 -58.1018,-66.20513 -0.56244,-26.15701 c -0.31026,-1.57961 -0.52811,-3.17673 -1.76123,-3.88206 -1.00208,-0.57273 -3.44208,0.36637 -3.44208,0.36637 l -27.84457,23.06315 -34.17289,80.86169 c 0,0 -1.72083,6.20786 -4.29958,7.48287 -0.99417,0.49179 -3.30054,-0.4345 -3.30054,-0.4345 l -33.3229,-13.79854 c 0,0 -3.53739,-2.41038 -3.71867,-4.29555 -0.17031,-1.76723 1.26614,-3.51163 2.65519,-4.61717 1.28992,-1.02626 3.77333,-1.40073 4.72999,-1.43965 2.35379,-0.0964 4.88236,0.65063 7.22756,0.98229 4.15183,0.58711 12.20521,3.04588 12.20521,3.04588 l 29.49597,-71.86552 16.03174,-30.37588 18.84431,-23.90693 0.6311,-32.48531 c 0,0 -0.69579,-1.24421 -1.31367,-1.33726 -0.65222,-0.0978 -1.74182,0.94108 -1.74182,0.94108 0,0 -8.1619,7.22679 -12.90523,9.81832 -15.36937,8.3969 -49.00003,18.65005 -49.00003,18.65005 0,0 -1.0496,2.08191 -3.04915,3.32681 -1.41032,0.87799 -2.8696,2.12079 -4.49274,1.76719 -2.30519,-0.50222 -4.31042,-2.51994 -5.34391,-4.64074 -1.604,-3.29114 -2.48594,-7.85381 -0.56244,-10.96908 1.53284,-2.48261 2.75051,-2.20551 5.63424,-2.64965 1.72413,-0.26563 5.20331,0.56257 5.20331,0.56257 l 41.34485,-16.0317 c 0,0 5.05821,-15.53879 8.7943,-22.76486 3.54281,-6.85184 7.2814,-13.88607 12.79233,-19.28323 3.62785,-3.55302 12.86706,-8.155 12.86706,-8.155 v -3.37664 l -6.27614,-0.006 c 0,0 -1.43091,-0.12008 -1.91031,-0.58198 -0.49377,-0.47555 -0.67334,-1.9438 -0.67334,-1.9438 l 1.23842,-3.7527 -1.31762,-4.26314 -2.73957,-1.54692 c 0,0 -0.91889,-0.90214 -0.90306,-1.47985 0.0792,-2.9511 5.02389,-7.29387 5.02389,-7.29387 l 0.16899,-1.52471 c 0,0 0.066,-4.40021 1.04301,-6.28062 1.06282,-2.03222 2.83172,-3.87818 4.93332,-4.79655 3.26911,-1.42848 7.15281,-1.04263 10.68783,-0.56258 3.51652,0.47769 7.21394,1.30628 10.09741,3.3751 2.9632,2.12608 5.64124,5.20285 6.60953,8.719 1.0166,3.69391 0.1901,7.88308 -1.27671,11.42316 -1.37122,3.31257 -6.71027,8.40553 -6.71027,8.40553 v 4.07825 c 0,0 11.70934,3.35354 16.34572,7.0585 6.20037,4.95476 14.02876,19.23912 14.02876,19.23912 l 14.6254,30.37586 0.14121,39.6574 -0.98493,8.15648 c 0,0 0.53867,2.32177 0.14122,3.3751 -0.55056,1.45768 -1.80943,2.7447 -3.2344,3.3751 -1.6296,0.72087 -3.58479,0.42474 -5.34391,0.14059 -1.29782,-0.20951 -2.60727,-0.62262 -3.70929,-1.33922 -1.11431,-0.72482 -2.47775,-1.58038 -2.75963,-2.87963 -0.20992,-0.97067 0.98492,-2.81259 0.98492,-2.81259 z"
     id="path1103"
     sodipodi:nodetypes="cccsccccsccsssccccscccsccsssscccccscscsssssccsscccsccccsccssssssccsccccaaaaacc" /></svg>
