<?xml version="1.0" encoding="UTF-8" standalone="no"?>
<svg
   xmlns:dc="http://purl.org/dc/elements/1.1/"
   xmlns:cc="http://creativecommons.org/ns#"
   xmlns:rdf="http://www.w3.org/1999/02/22-rdf-syntax-ns#"
   xmlns:svg="http://www.w3.org/2000/svg"
   xmlns="http://www.w3.org/2000/svg"
   xmlns:sodipodi="http://sodipodi.sourceforge.net/DTD/sodipodi-0.dtd"
   xmlns:inkscape="http://www.inkscape.org/namespaces/inkscape"
   inkscape:version="1.0 (4035a4fb49, 2020-05-01)"
   sodipodi:docname="914a.svg"
   viewBox="0 0 350 466.66666"
   height="466.66666"
   width="350"
   id="svg12097"
   version="1.1">
  <metadata
     id="metadata12103">
    <rdf:RDF>
      <cc:Work
         rdf:about="">
        <dc:format>image/svg+xml</dc:format>
        <dc:type
           rdf:resource="http://purl.org/dc/dcmitype/StillImage" />
        <dc:title></dc:title>
      </cc:Work>
    </rdf:RDF>
  </metadata>
  <defs
     id="defs12101" />
  <sodipodi:namedview
     inkscape:current-layer="g14904"
     inkscape:window-maximized="1"
     inkscape:window-y="-9"
     inkscape:window-x="-9"
     inkscape:cy="243.9556"
     inkscape:cx="138.86123"
     inkscape:zoom="1.3833333"
     showgrid="false"
     id="namedview12099"
     inkscape:window-height="1001"
     inkscape:window-width="1920"
     inkscape:pageshadow="2"
     inkscape:pageopacity="0"
     guidetolerance="10"
     gridtolerance="10"
     objecttolerance="10"
     borderopacity="1"
     bordercolor="#666666"
     pagecolor="#ffffff" />
  <g
     transform="translate(437.40964,-20.903059)"
     id="g12105"
     inkscape:label="Image"
     inkscape:groupmode="layer">
    <path
       id="path3323"
       style="opacity:1;fill:#ff7200;fill-opacity:1;stroke:none;stroke-width:20.9761;stroke-miterlimit:4;stroke-dasharray:none;stroke-opacity:1"
       d="M -87.40964,20.903059 V 487.56972 h -350 V 20.903059 Z"
       inkscape:connector-curvature="0"
       sodipodi:nodetypes="ccccc" />
    <path
       sodipodi:nodetypes="cccccccccc"
       id="path3325"
       style="opacity:1;fill:#000000;fill-opacity:1;stroke:none;stroke-width:18.5158;stroke-miterlimit:4;stroke-dasharray:none;stroke-opacity:1"
       d="M -95.639025,29.132448 V 479.33563 H -429.17669 V 29.132448 Z m -9.657645,9.657641 H -419.52413 V 469.68309 h 314.22746 z" />
    <g
       transform="translate(4.2336475,9.4902135)"
       id="g14904">
      <path
         sodipodi:nodetypes="cccccccc"
         d="m -167.5057,76.075071 -35.88277,69.064419 h 17.91588 v 268.27309 h 35.93381 V 145.13949 h 17.91592 z"
         style="opacity:1;fill:#000000;fill-opacity:1;fill-rule:evenodd;stroke-width:1.57975"
         id="rect179-9" />
      <path
         d="m -365.77573,76.076599 -35.88442,69.061301 h 17.91705 0.87375 c -0.30288,5.04336 -0.577,10.51733 -0.72634,16.52914 -0.51352,20.67496 -0.43625,44.71258 6.65553,64.49846 7.66206,21.37693 22.92528,35.74408 35.888,48.44755 12.96273,12.70344 23.6658,23.80364 28.12864,35.42776 4.68352,12.19896 7.48085,38.6675 8.01107,60.61517 0.53019,21.94769 -0.49261,41.8244 -0.49261,41.8244 h 34.92078 c 0,0 1.10701,-19.17128 0.53935,-42.66937 -0.56766,-23.49809 -2.09744,-50.87974 -10.32305,-72.30457 -8.09858,-21.09394 -23.42057,-35.25254 -36.30151,-47.87583 -12.88095,-12.62333 -23.27896,-23.65154 -27.44186,-35.26597 -3.50449,-9.77738 -5.08904,-32.81532 -4.6168,-51.82747 0.1611,-6.48455 0.47716,-12.21376 0.81261,-17.39927 h 0.007 17.91345 z"
         style="color:#000000;font-style:normal;font-variant:normal;font-weight:normal;font-stretch:normal;font-size:medium;line-height:normal;font-family:sans-serif;font-variant-ligatures:normal;font-variant-position:normal;font-variant-caps:normal;font-variant-numeric:normal;font-variant-alternates:normal;font-variant-east-asian:normal;font-feature-settings:normal;font-variation-settings:normal;text-indent:0;text-align:start;text-decoration:none;text-decoration-line:none;text-decoration-style:solid;text-decoration-color:#000000;letter-spacing:normal;word-spacing:normal;text-transform:none;writing-mode:lr-tb;direction:ltr;text-orientation:mixed;dominant-baseline:auto;baseline-shift:baseline;text-anchor:start;white-space:normal;shape-padding:0;shape-margin:0;inline-size:0;clip-rule:nonzero;display:inline;overflow:visible;visibility:visible;opacity:1;isolation:auto;mix-blend-mode:normal;color-interpolation:sRGB;color-interpolation-filters:linearRGB;solid-color:#000000;solid-opacity:1;vector-effect:none;fill:#000000;fill-opacity:1;fill-rule:nonzero;stroke:none;stroke-width:34.9783;stroke-linecap:butt;stroke-linejoin:miter;stroke-miterlimit:4;stroke-dasharray:none;stroke-dashoffset:0;stroke-opacity:1;color-rendering:auto;image-rendering:auto;shape-rendering:auto;text-rendering:auto;enable-background:accumulate;stop-color:#000000;stop-opacity:1"
         id="path14307" />
      <path
         id="path14312"
         style="color:#000000;font-style:normal;font-variant:normal;font-weight:normal;font-stretch:normal;font-size:medium;line-height:normal;font-family:sans-serif;font-variant-ligatures:normal;font-variant-position:normal;font-variant-caps:normal;font-variant-numeric:normal;font-variant-alternates:normal;font-variant-east-asian:normal;font-feature-settings:normal;font-variation-settings:normal;text-indent:0;text-align:start;text-decoration:none;text-decoration-line:none;text-decoration-style:solid;text-decoration-color:#000000;letter-spacing:normal;word-spacing:normal;text-transform:none;writing-mode:lr-tb;direction:ltr;text-orientation:mixed;dominant-baseline:auto;baseline-shift:baseline;text-anchor:start;white-space:normal;shape-padding:0;shape-margin:0;inline-size:0;clip-rule:nonzero;display:inline;overflow:visible;visibility:visible;opacity:1;isolation:auto;mix-blend-mode:normal;color-interpolation:sRGB;color-interpolation-filters:linearRGB;solid-color:#000000;solid-opacity:1;vector-effect:none;fill:#000000;fill-opacity:1;fill-rule:nonzero;stroke:none;stroke-width:34.9783;stroke-linecap:butt;stroke-linejoin:miter;stroke-miterlimit:4;stroke-dasharray:none;stroke-dashoffset:0;stroke-opacity:1;color-rendering:auto;image-rendering:auto;shape-rendering:auto;text-rendering:auto;enable-background:accumulate;stop-color:#000000;stop-opacity:1"
         d="m -290.33687,76.076599 -35.88442,69.061301 h 17.91706 0.87374 c -0.30288,5.04336 -0.57701,10.51733 -0.72634,16.52914 -0.51351,20.67496 -0.43625,44.71258 6.65553,64.49846 7.66205,21.37693 22.92529,35.74408 35.888,48.44755 12.96273,12.70344 23.6658,23.80364 28.12865,35.42776 4.68353,12.19896 7.48085,38.6675 8.01106,60.61517 0.5302,21.94769 -0.4926,41.8244 -0.4926,41.8244 h 34.92078 c 0,0 1.10701,-19.17128 0.53935,-42.66937 -0.56766,-23.49809 -2.09745,-50.87974 -10.32306,-72.30457 -8.09859,-21.09394 -23.42056,-35.25254 -36.3015,-47.87583 -12.88096,-12.62333 -23.27896,-23.65154 -27.44188,-35.26597 -3.50447,-9.77738 -5.08902,-32.81532 -4.61679,-51.82747 0.16109,-6.48455 0.47717,-12.21376 0.81261,-17.39927 h 0.007 17.91346 z" />
    </g>
  </g>
</svg>
