<?xml version="1.0" encoding="UTF-8" standalone="no"?>
<svg
   xmlns:dc="http://purl.org/dc/elements/1.1/"
   xmlns:cc="http://creativecommons.org/ns#"
   xmlns:rdf="http://www.w3.org/1999/02/22-rdf-syntax-ns#"
   xmlns:svg="http://www.w3.org/2000/svg"
   xmlns="http://www.w3.org/2000/svg"
   xmlns:sodipodi="http://sodipodi.sourceforge.net/DTD/sodipodi-0.dtd"
   xmlns:inkscape="http://www.inkscape.org/namespaces/inkscape"
   version="1.1"
   id="Layer_1"
   x="0px"
   y="0px"
   width="592.1582"
   height="592.1582"
   viewBox="0 0 592.1582 592.1582"
   enable-background="new 0 0 610 600"
   xml:space="preserve"
   sodipodi:docname="Israel_road_sign 417.svg"
   inkscape:version="1.0 (4035a4fb49, 2020-05-01)"><metadata
   id="metadata8642"><rdf:RDF><cc:Work
       rdf:about=""><dc:format>image/svg+xml</dc:format><dc:type
         rdf:resource="http://purl.org/dc/dcmitype/StillImage" /><dc:title></dc:title></cc:Work></rdf:RDF></metadata><defs
   id="defs8640"><path
     d="M 500,-207.10678 V 207.10678 L 207.10678,500 H -207.10678 L -500,207.10678 V -207.10678 L -207.10678,-500 h 414.21356 z"
     id="Oct" /><pattern
     y="0"
     x="0"
     height="6"
     width="6"
     patternUnits="userSpaceOnUse"
     id="EMFhbasepattern" /><pattern
     y="0"
     x="0"
     height="6"
     width="6"
     patternUnits="userSpaceOnUse"
     id="EMFhbasepattern-0" /><pattern
     y="0"
     x="0"
     height="6"
     width="6"
     patternUnits="userSpaceOnUse"
     id="EMFhbasepattern-8" /><pattern
     y="0"
     x="0"
     height="6"
     width="6"
     patternUnits="userSpaceOnUse"
     id="EMFhbasepattern-3" /><pattern
     y="0"
     x="0"
     height="6"
     width="6"
     patternUnits="userSpaceOnUse"
     id="EMFhbasepattern-1" /><pattern
     id="EMFhbasepattern-80"
     patternUnits="userSpaceOnUse"
     width="6"
     height="6"
     x="0"
     y="0" /><pattern
     id="EMFhbasepattern-4"
     patternUnits="userSpaceOnUse"
     width="6"
     height="6"
     x="0"
     y="0" /><pattern
     id="EMFhbasepattern-33"
     patternUnits="userSpaceOnUse"
     width="6"
     height="6"
     x="0"
     y="0" /></defs><sodipodi:namedview
   pagecolor="#ffffff"
   bordercolor="#666666"
   borderopacity="1"
   objecttolerance="10"
   gridtolerance="10"
   guidetolerance="10"
   inkscape:pageopacity="0"
   inkscape:pageshadow="2"
   inkscape:window-width="1920"
   inkscape:window-height="1001"
   id="namedview8638"
   showgrid="false"
   inkscape:zoom="0.5"
   inkscape:cx="-425.81268"
   inkscape:cy="183.44227"
   inkscape:window-x="-9"
   inkscape:window-y="-9"
   inkscape:window-maximized="1"
   inkscape:current-layer="Layer_1"
   inkscape:document-rotation="0"><sodipodi:guide
     position="-5.3896699,-7.8417958"
     orientation="0,610"
     id="guide8644"
     inkscape:locked="false" /><sodipodi:guide
     position="604.61033,-7.8417958"
     orientation="-1,0"
     id="guide8646"
     inkscape:locked="false"
     inkscape:label=""
     inkscape:color="rgb(117,80,123)" /><sodipodi:guide
     position="604.61033,592.1582"
     orientation="0,-610"
     id="guide8648"
     inkscape:locked="false" /><sodipodi:guide
     position="-11.440678,592.1582"
     orientation="600,0"
     id="guide8650"
     inkscape:locked="false" /><inkscape:grid
     type="xygrid"
     id="grid56807"
     originx="1.12931"
     originy="3.457" /></sodipodi:namedview>


<circle
   style="fill:#ffffff;stroke:#000000;stroke-opacity:0.815686;fill-opacity:1"
   id="circle8633"
   r="292.48499"
   cy="296.07901"
   cx="296.078" /><path
   id="path56784"
   d="M 296.07812,0 C 132.97277,0 0,132.97277 0,296.07812 0,459.18348 132.97277,592.1582 296.07812,592.1582 459.18348,592.1582 592.1582,459.18348 592.1582,296.07812 592.1582,132.97277 459.18348,0 296.07812,0 Z m 0,70 C 421.35268,70 522.1582,170.80357 522.1582,296.07812 522.1582,421.35268 421.35268,522.1582 296.07812,522.1582 170.80357,522.1582 70,421.35268 70,296.07812 70,170.80357 170.80357,70 296.07812,70 Z"
   style="color:#000000;font-style:normal;font-variant:normal;font-weight:normal;font-stretch:normal;font-size:medium;line-height:normal;font-family:sans-serif;font-variant-ligatures:normal;font-variant-position:normal;font-variant-caps:normal;font-variant-numeric:normal;font-variant-alternates:normal;font-variant-east-asian:normal;font-feature-settings:normal;font-variation-settings:normal;text-indent:0;text-align:start;text-decoration:none;text-decoration-line:none;text-decoration-style:solid;text-decoration-color:#000000;letter-spacing:normal;word-spacing:normal;text-transform:none;writing-mode:lr-tb;direction:ltr;text-orientation:mixed;dominant-baseline:auto;baseline-shift:baseline;text-anchor:start;white-space:normal;shape-padding:0;shape-margin:0;inline-size:0;clip-rule:nonzero;display:inline;overflow:visible;visibility:visible;opacity:1;isolation:auto;mix-blend-mode:normal;color-interpolation:sRGB;color-interpolation-filters:linearRGB;solid-color:#000000;solid-opacity:1;vector-effect:none;fill:#c0111e;fill-opacity:1;fill-rule:nonzero;stroke:none;stroke-width:70;stroke-linecap:butt;stroke-linejoin:miter;stroke-miterlimit:4;stroke-dasharray:none;stroke-dashoffset:0;stroke-opacity:1;color-rendering:auto;image-rendering:auto;shape-rendering:auto;text-rendering:auto;enable-background:accumulate;stop-color:#000000;stop-opacity:1" /><path
   d="m 514.054,252.89648 -83,43.75 83,44.95703 z m -355,43.75 -83,-43.75 v 88.70703 z"
   style="fill:#000000;fill-opacity:1;fill-rule:evenodd;stroke:none;stroke-width:2;stroke-linecap:square;stroke-miterlimit:4;stroke-dasharray:16, 16;stroke-dashoffset:0;stroke-opacity:1;paint-order:normal"
   id="rect10991" /><g
   transform="translate(-6)"
   style="font-size:239.337px;line-height:109.02%;font-family:'Medina Lt BT';-inkscape-font-specification:'Medina Lt BT, Normal';text-align:center;text-anchor:middle;stroke-width:1"
   id="text11026"
   aria-label="21"><path
     id="path11028"
     style="font-style:normal;font-variant:normal;font-weight:normal;font-stretch:normal;font-family:Triumvirate;-inkscape-font-specification:Triumvirate;stroke-width:1"
     d="m 180.696,381.08829 q 0,-17.95028 5.74409,-30.3958 5.98342,-12.44553 14.83889,-21.54033 8.85547,-9.09481 19.14696,-15.79625 10.29149,-6.94077 19.14696,-14.12088 8.85547,-7.18011 14.59956,-15.5569 5.98342,-8.61614 5.98342,-20.82232 0,-3.8294 -1.19668,-8.13746 -1.19669,-4.30807 -3.82939,-7.65879 -2.63271,-3.59005 -6.94078,-5.74408 -4.06873,-2.39337 -10.05215,-2.39337 -8.13746,0 -12.9242,3.59005 -4.5474,3.35072 -6.94077,8.3768 -2.39337,5.02607 -3.11138,10.77016 -0.47868,5.74409 -0.47868,10.29149 h -32.54983 q 0,-16.75359 4.5474,-28.4811 4.54741,-11.72751 11.96685,-18.90762 7.65879,-7.41945 17.71094,-10.53083 10.05216,-3.35072 21.06166,-3.35072 14.12088,0 24.89105,4.30807 10.77016,4.06872 17.95027,11.24883 7.18011,6.94078 10.77017,16.51426 3.59005,9.33414 3.59005,20.10431 0,13.16353 -3.82939,22.97635 -3.82939,9.57348 -10.05215,17.23226 -6.22277,7.65879 -14.12089,13.64221 -7.89812,5.98343 -16.03558,11.48818 -7.89812,5.50475 -15.31757,11.24884 -7.41944,5.50475 -12.92419,12.44552 h 72.27977 v 29.19912 z" /><path
     id="path11030"
     style="font-style:normal;font-variant:normal;font-weight:normal;font-stretch:normal;font-family:Triumvirate;-inkscape-font-specification:Triumvirate;stroke-width:1"
     d="m 379.78971,266.20652 h -38.77259 v -22.97635 q 6.4621,-0.23933 13.88154,-0.71801 7.41945,-0.71801 13.88155,-3.35072 6.70144,-2.87204 11.48818,-8.37679 5.02607,-5.74409 6.70143,-16.27492 h 26.32707 v 166.57856 h -33.50718 z" /><circle
     r="15.202796"
     cy="365.5"
     cx="315.25"
     id="path11033"
     style="fill:#000000;fill-opacity:1;fill-rule:evenodd;stroke:none;stroke-width:2;stroke-linecap:square;stroke-miterlimit:4;stroke-dasharray:16, 16;stroke-dashoffset:0;stroke-opacity:1;paint-order:normal" /></g></svg>
