<?xml version="1.0" encoding="UTF-8" standalone="no"?>
<svg
   xmlns:dc="http://purl.org/dc/elements/1.1/"
   xmlns:cc="http://creativecommons.org/ns#"
   xmlns:rdf="http://www.w3.org/1999/02/22-rdf-syntax-ns#"
   xmlns:svg="http://www.w3.org/2000/svg"
   xmlns="http://www.w3.org/2000/svg"
   xmlns:sodipodi="http://sodipodi.sourceforge.net/DTD/sodipodi-0.dtd"
   xmlns:inkscape="http://www.inkscape.org/namespaces/inkscape"
   inkscape:version="1.0 (4035a4fb49, 2020-05-01)"
   sodipodi:docname="Israel_road_sign_144.svg"
   viewBox="0 0 300.45367 263.01647"
   height="263.01648"
   width="300.45367"
   id="svg10"
   version="1.1">
  <metadata
     id="metadata16">
    <rdf:RDF>
      <cc:Work
         rdf:about="">
        <dc:format>image/svg+xml</dc:format>
        <dc:type
           rdf:resource="http://purl.org/dc/dcmitype/StillImage" />
        <dc:title></dc:title>
      </cc:Work>
    </rdf:RDF>
  </metadata>
  <defs
     id="defs14" />
  <sodipodi:namedview
     inkscape:current-layer="g18"
     inkscape:window-maximized="1"
     inkscape:window-y="-9"
     inkscape:window-x="-9"
     inkscape:cy="255.3867"
     inkscape:cx="363.68906"
     inkscape:zoom="1.3833334"
     showgrid="false"
     id="namedview12"
     inkscape:window-height="1001"
     inkscape:window-width="1920"
     inkscape:pageshadow="2"
     inkscape:pageopacity="0"
     guidetolerance="10"
     gridtolerance="10"
     objecttolerance="10"
     borderopacity="1"
     bordercolor="#666666"
     pagecolor="#ffffff"
     inkscape:document-rotation="0" />
  <g
     transform="translate(-104.60117,48.850154)"
     id="g18"
     inkscape:label="Image"
     inkscape:groupmode="layer">
    <g
       transform="matrix(-1,0,0,1,509.65602,0)"
       id="g5292">
      <path
         sodipodi:nodetypes="cccc"
         d="M 254.828,-26.039193 379.02374,191.35535 h -248.3915 z"
         style="display:inline;fill:#ffffff;fill-opacity:1;stroke-width:0.747333;stroke-linecap:round"
         id="path632" />
      <path
         sodipodi:nodetypes="cccccccccccccc"
         d="m 254.828,-48.623073 c -3.23244,-0.02323 -6.78211,1.628093 -8.52059,4.720373 L 105.98843,199.21842 c -0.80981,1.65498 -1.14999,3.09381 -1.16042,4.74018 0,5.75092 4.7197,9.98089 9.96668,9.98089 H 394.8613 c 5.24696,0 9.96671,-4.22997 9.96671,-9.98089 -0.0106,-1.64637 -0.35063,-3.0852 -1.16045,-4.74018 L 263.34858,-43.9027 c -1.73848,-3.09228 -5.28814,-4.743501 -8.52058,-4.720373 z m 0,47.9338065 L 362.05702,184.90422 H 147.59897 Z"
         style="display:inline;fill:#c0111e;fill-opacity:1;fill-rule:nonzero;stroke:none;stroke-width:0.453675;stroke-opacity:1"
         id="path634" />
      <path
         sodipodi:nodetypes="cccacccccacccacc"
         d="m 273.09783,47.5082 75.16561,128.62633 H 203.05057 c 0,0 3.52624,-7.55813 6.4338,-10.42558 1.83234,-1.80702 6.62585,-3.96275 6.62585,-3.96275 v -3.18943 l 13.6023,-10.57439 4.71639,-15.38015 11.30477,-14.95494 c 0,0 1.89428,-10.16953 2.1122,-15.31984 0.21513,-5.085251 -0.80064,-15.248379 -0.80064,-15.248379 h 4.65703 V 70.513935 c 0,0 5.40083,-10.664165 10.25294,-13.623901 1.93165,-1.17822 6.69018,-1.147016 6.69018,-1.147016 z"
         style="opacity:1;fill:#000000;fill-rule:evenodd;stroke-width:1.08313"
         id="rect22-6" />
      <path
         sodipodi:nodetypes="cccscscccccscac"
         id="path854"
         d="m 229.11798,86.241302 5.60577,-1.245732 5.19047,2.83748 c 0,0 1.17661,1.314935 0.62291,2.560656 l -0.55369,1.245733 c 0,0 -0.34596,7.612761 -0.41518,7.681962 l -0.0694,0.06921 -5.53665,5.467349 -7.61269,-2.07621 -10.17343,0.41524 -4.98295,-8.927701 c 0,0 0.13843,-6.436242 0.34606,-6.436242 h 0.13843 c 0,0 5.45487,-6.88426 9.34288,-6.989898 3.24268,-0.08806 8.09738,5.39815 8.09738,5.39815 z"
         style="opacity:1;fill:#000000;fill-opacity:1;stroke:none;stroke-width:1.08313px;stroke-linecap:butt;stroke-linejoin:miter;stroke-opacity:1" />
      <path
         sodipodi:nodetypes="ccacccccccc"
         id="path856"
         d="m 233.89839,79.333472 1.6638,-6.753266 c 0,0 2.06954,-2.179805 3.43646,-2.657986 1.76745,-0.618295 5.61692,-0.08242 5.61692,-0.08242 l 1.90846,1.565983 -1.27235,1.663843 0.14687,2.544712 0.48937,1.027665 0.24468,3.474516 -4.64903,2.936199 z"
         style="opacity:1;fill:#000000;fill-opacity:1;stroke:none;stroke-width:1.08313px;stroke-linecap:butt;stroke-linejoin:miter;stroke-opacity:1" />
      <path
         sodipodi:nodetypes="ccccccccc"
         id="path858"
         d="m 240.01549,61.177961 3.22979,-5.187305 2.88732,-0.636179 2.69146,1.810673 -0.29363,3.621312 -0.35938,2.478955 -1.94065,3.344519 -6.21491,-5.236231 z"
         style="opacity:1;fill:#000000;fill-opacity:1;stroke:none;stroke-width:1.08313px;stroke-linecap:butt;stroke-linejoin:miter;stroke-opacity:1" />
      <path
         sodipodi:nodetypes="cccccccc"
         id="path860"
         d="m 250.14798,60.45939 2.67773,-2.18183 1.55266,-0.623061 1.24788,0.538305 0.0976,2.275565 -2.42231,3.988354 -0.83196,-0.611721 z"
         style="opacity:1;fill:#000000;fill-opacity:1;stroke:none;stroke-width:1.08313px;stroke-linecap:butt;stroke-linejoin:miter;stroke-opacity:1" />
      <path
         sodipodi:nodetypes="ccccccccccc"
         id="path862"
         d="m 173.55946,171.17816 12.23409,-0.098 10.08104,-5.07992 -0.0109,-15.46366 -6.74683,-9.49405 -9.49377,-0.48937 -2.74043,5.08442 h -3.28709 l -7.23023,15.17415 7.18972,10.36629 z"
         style="opacity:1;fill:#000000;fill-opacity:1;stroke:none;stroke-width:1.08313px;stroke-linecap:butt;stroke-linejoin:miter;stroke-opacity:1" />
      <path
         id="path872"
         d="m 215.59843,122.78926 c -1.25219,-4.75524 -0.65172,-9.10774 0.24231,-13.39644 l 2.9851,-2.17709 8.12361,4.31977 3.18084,4.20689 0.53831,5.28516 c 0,0 -1.15841,2.04073 -2.11981,2.62399 -1.64591,0.99865 -5.6612,1.14415 -5.6612,1.14415 z"
         style="opacity:1;fill:#000000;fill-opacity:1;stroke:none;stroke-width:1.08313px;stroke-linecap:butt;stroke-linejoin:miter;stroke-opacity:1"
         sodipodi:nodetypes="ccccccacc" />
      <path
         sodipodi:nodetypes="cccccccaccc"
         id="path874"
         d="m 190.39361,114.37214 3.76812,2.00641 1.76182,0.97874 8.61285,-0.24469 0.19572,3.62132 -0.97871,3.47451 -3.47458,10.81502 c 0,0 -3.6924,1.89855 -5.48087,1.3213 -2.19843,-0.7096 -4.51644,-5.25656 -4.51644,-5.25656 l -0.36871,-5.58545 z"
         style="opacity:1;fill:#000000;fill-opacity:1;stroke:none;stroke-width:1.08313px;stroke-linecap:butt;stroke-linejoin:miter;stroke-opacity:1" />
      <path
         sodipodi:nodetypes="caccccccac"
         id="path876"
         d="m 206.05344,136.44262 c 0,0 3.58938,-0.86818 5.36952,-0.59575 1.44923,0.22179 4.02633,1.77024 4.02633,1.77024 l 4.79578,3.42557 0.19573,7.24262 -7.53623,3.22983 -5.87241,-0.88087 -4.60006,-4.20854 c 0,0 -0.0422,-3.6533 0.56073,-5.33773 0.62475,-1.74594 3.06061,-4.64537 3.06061,-4.64537 z"
         style="opacity:1;fill:#000000;fill-opacity:1;stroke:none;stroke-width:1.08313px;stroke-linecap:butt;stroke-linejoin:miter;stroke-opacity:1" />
      <path
         id="path878"
         d="m 208.65978,113.30122 4.91363,-1.16448 0.11146,4.90166 -2.25314,1.94098 -2.59139,-0.28002 -1.58886,-1.0567 -0.84006,-1.49025 z"
         style="opacity:1;fill:#000000;fill-opacity:1;stroke:none;stroke-width:1.08313px;stroke-linecap:butt;stroke-linejoin:miter;stroke-opacity:1"
         sodipodi:nodetypes="cccccccc" />
    </g>
  </g>
</svg>
