<?xml version="1.0" encoding="UTF-8" standalone="no"?>
<svg
   xmlns:dc="http://purl.org/dc/elements/1.1/"
   xmlns:cc="http://creativecommons.org/ns#"
   xmlns:rdf="http://www.w3.org/1999/02/22-rdf-syntax-ns#"
   xmlns:svg="http://www.w3.org/2000/svg"
   xmlns="http://www.w3.org/2000/svg"
   xmlns:sodipodi="http://sodipodi.sourceforge.net/DTD/sodipodi-0.dtd"
   xmlns:inkscape="http://www.inkscape.org/namespaces/inkscape"
   version="1.1"
   id="Layer_1"
   x="0px"
   y="0px"
   width="590.12402"
   height="590.12402"
   viewBox="0 0 590.12402 590.12402"
   enable-background="new 0 0 610 600"
   xml:space="preserve"
   sodipodi:docname="Israel_road_sign_441.svg"
   inkscape:version="1.0 (4035a4fb49, 2020-05-01)"><metadata
   id="metadata5602"><rdf:RDF><cc:Work
       rdf:about=""><dc:format>image/svg+xml</dc:format><dc:type
         rdf:resource="http://purl.org/dc/dcmitype/StillImage" /><dc:title></dc:title></cc:Work></rdf:RDF></metadata><defs
   id="defs5600"><pattern
     y="0"
     x="0"
     height="6"
     width="6"
     patternUnits="userSpaceOnUse"
     id="EMFhbasepattern" /><clipPath
     clipPathUnits="userSpaceOnUse"
     id="clipPath4721"><path
       d="m 339.85,392.12 h 67.827 v 67.1 H 339.85 Z"
       clip-rule="evenodd"
       id="path4719" /></clipPath><clipPath
     clipPathUnits="userSpaceOnUse"
     id="clipPath4731"><path
       d="M 0,0 H 94.773 V 93.289 H 0 Z"
       id="path4729" /></clipPath></defs><sodipodi:namedview
   pagecolor="#ffffff"
   bordercolor="#666666"
   borderopacity="1"
   objecttolerance="10"
   gridtolerance="10"
   guidetolerance="10"
   inkscape:pageopacity="0"
   inkscape:pageshadow="2"
   inkscape:window-width="1920"
   inkscape:window-height="1001"
   id="namedview5598"
   showgrid="true"
   inkscape:zoom="0.27812866"
   inkscape:cx="1049.6898"
   inkscape:cy="962.83213"
   inkscape:window-x="-9"
   inkscape:window-y="-9"
   inkscape:window-maximized="1"
   inkscape:current-layer="Layer_1"
   inkscape:document-rotation="0"><inkscape:grid
     type="xygrid"
     id="grid2801" /></sodipodi:namedview>
<circle
   fill="#ffffff"
   stroke="#000000"
   stroke-width="5"
   cx="295.06201"
   cy="295.06201"
   r="292.56201"
   id="circle5589" />



<line
   x1="456.16702"
   y1="50.41502"
   x2="137.37502"
   y2="539.26196"
   id="line5595"
   stroke-width="70"
   stroke="#000000"
   fill="none" /><path
   sodipodi:nodetypes="ccssccsscscccscscsccsssccccscccccccssssccsssscsccccssssccccsscsscccccssscsscssscscsccsscccscscssscc"
   d="m 102.75391,191.96289 c -0.40695,-0.0118 -0.8125,-0.0101 -1.2168,0.008 -4.9018,0.21688 -10.16934,3.20334 -12.73633,7.38477 -2.00829,3.27134 0.45268,9.04069 -0.63867,11.49414 -0.55278,1.24263 -4.98633,0.50195 -4.98633,0.50195 0,0 -1.80344,-2.98376 -4.83594,-4.05468 -3.94843,-1.39447 -9.62862,-0.81462 -12.51172,0.84374 -2.81231,1.61762 -6.88318,5.82718 -7.93164,10.04688 -1.2237,4.92497 0.82227,9.8125 0.82227,9.8125 0,0 -5.58363,-2.7529 -11.0918,-0.90039 -6.75446,2.27167 -13.68951,9.62842 -13.68945,14.84961 0,5.01459 5.42975,12.04124 11.94922,14.29297 5.62609,1.94323 12.47656,-0.54688 12.47656,-0.54688 0,0 3.30185,11.70813 8.19531,14.03125 6.38304,3.03028 20.94141,-3.28711 20.94141,-3.28711 0,0 10.28904,10.23657 16.7168,9.72657 7.16532,-0.56852 16.69922,-13.64454 16.69922,-13.64454 0,0 10.31863,7.40966 15.51171,5.60352 7.07926,-2.4621 12.26258,-11.63164 11.84571,-19.11523 -0.3028,-5.43038 -10.08203,-12.82618 -10.08203,-12.82618 0,0 5.43597,-3.04152 6.5625,-5.71289 1.89658,-4.49753 1.71555,-10.45162 -0.82227,-14.62109 -2.62694,-4.3159 -8.0299,-7.19959 -13.05664,-7.70899 -2.9857,-0.30255 -8.51172,2.93165 -8.51172,2.93165 0,0 -0.75924,-8.01428 -3.22851,-10.88086 -3.96187,-4.59945 -10.27674,-8.05097 -16.38086,-8.22852 z m 303.48828,22.34766 c -9.5418,0 -13.05777,8.6417 -17.22657,17.22461 l -22.36914,48.30078 c 0,0.0147 -9.9e-4,0.0286 -0.0254,0.043 -0.99672,1.15628 -3.68254,4.55212 -4.2539,5.4082 -1.29437,2.90908 -1.10155,6.32031 -1.10157,6.32031 l -0.0957,44.40235 c -0.0147,6.62201 5.1803,11.95726 11.65235,11.99023 v 26.99805 c 0,4.52392 3.87586,8.16797 8.40625,8.16797 h 11.00781 c 4.53014,0 7.76367,-3.64405 7.76367,-8.16797 V 348 h 132.67773 v 26.99805 c 0,4.52392 3.87782,8.16797 8.40821,8.16797 h 10.35937 c 4.53039,0 8.41211,-3.64405 8.41211,-8.16797 v -27.04493 c 5.82476,-0.52147 11.00194,-5.64949 11.00196,-11.94335 v -40.38282 c 0,0 -0.002,-6.31268 -0.6543,-9.31445 -0.72959,-1.69192 -2.86376,-4.26391 -4.79688,-6.43359 l -22.14258,-48.34375 c -3.97318,-8.67516 -7.68476,-17.22461 -17.22656,-17.22461 z m 1.77343,14.67968 h 115.78907 c 5.42822,0 7.75998,4.86371 9.79492,9.79493 L 548.25,274.29102 H 383.7793 l 14.43554,-35.50586 c 2.07059,-5.01778 4.37257,-9.79493 9.80078,-9.79493 z m -257.49609,43.31641 c -4.80918,0.16081 -10.07812,10.33398 -10.07812,10.33398 0,0 -3.15714,-4.8418 -5.60743,-6.13671 -2.43531,-1.28704 -5.69864,-2.37027 -8.17773,-1.16993 -5.02207,2.43168 -8.42383,14.4668 -8.42383,14.4668 0,0 -5.45725,-1.06033 -7.71289,0.17383 -2.30939,1.26368 -3.95499,3.9591 -4.40625,6.55273 -0.52823,3.03662 0.19345,6.68515 2.26367,8.96875 2.18311,2.40832 9.17383,3.29688 9.17383,3.29688 0,0 -1.77676,4.02652 -1.70312,6.1543 0.0983,2.84028 0.70679,6.163 2.83984,8.04101 2.81697,2.48014 7.35797,3.25768 11.00586,2.375 2.76894,-0.66999 6.6035,-5.41992 6.60352,-5.41992 0,0 1.63541,3.56537 3.04492,4.85742 2.60465,2.38769 5.93621,5.28932 9.43945,4.82813 4.29146,-0.56495 9.63477,-8.70313 9.63477,-8.70313 0,0 6.3628,3.19495 9.78515,3.10938 4.4006,-0.11008 9.68226,-1.13421 12.36914,-4.6211 2.00376,-2.60029 1.81398,-6.62358 0.98828,-9.80078 -0.74013,-2.84801 -5.04687,-7.24219 -5.04687,-7.24219 0,0 4.66754,-12.40266 1.0957,-16.67968 -2.9962,-3.58782 -13.93164,-1.58985 -13.93164,-1.58985 0,0 -7.27047,-11.99171 -13.15625,-11.79492 z m 44.33985,53.39844 c -3.1075,0.002 -8.08204,4.64453 -8.08204,4.64453 0,0 -3.1556,-2.15947 -4.94531,-2.09961 -2.68602,0.0898 -5.70873,1.40232 -7.19336,3.64258 -1.63565,2.46804 -1.90149,6.19437 -0.61133,8.85937 1.11591,2.30535 6.34375,4.3418 6.34375,4.3418 0,0 -0.0505,4.03534 0.44141,5.96875 0.69848,2.74118 1.03468,6.34581 3.49805,7.73633 3.77509,2.13097 12.91406,-1.53906 12.91406,-1.53906 0,0 9.22403,0.37866 11.58594,-2.81836 1.97789,-2.67732 -0.59961,-9.96875 -0.59961,-9.96875 0,0 3.3754,-1.10805 4.33008,-2.46875 1.81217,-2.58281 2.65063,-6.34762 1.62109,-9.33008 -0.79468,-2.302 -3.05951,-4.3147 -5.42578,-4.89063 -2.35533,-0.57331 -7.03125,1.84571 -7.03125,1.84571 0,0 -4.21669,-3.92544 -6.8457,-3.92383 z"
   style="fill:#707070;fill-opacity:1;fill-rule:evenodd;stroke-width:5;stroke-linecap:square;paint-order:markers stroke fill"
   id="rect3287" /></svg>
