<?xml version="1.0" encoding="UTF-8" standalone="no"?>
<svg
   xmlns:dc="http://purl.org/dc/elements/1.1/"
   xmlns:cc="http://creativecommons.org/ns#"
   xmlns:rdf="http://www.w3.org/1999/02/22-rdf-syntax-ns#"
   xmlns:svg="http://www.w3.org/2000/svg"
   xmlns="http://www.w3.org/2000/svg"
   xmlns:sodipodi="http://sodipodi.sourceforge.net/DTD/sodipodi-0.dtd"
   xmlns:inkscape="http://www.inkscape.org/namespaces/inkscape"
   inkscape:version="1.0 (4035a4fb49, 2020-05-01)"
   sodipodi:docname="Israel_road_sign 418.svg"
   xml:space="preserve"
   enable-background="new 0 0 610 600"
   viewBox="0 0 592.1582 592.1582"
   height="592.1582"
   width="592.1582"
   y="0px"
   x="0px"
   id="Layer_1"
   version="1.1"><metadata
   id="metadata8642"><rdf:RDF><cc:Work
       rdf:about=""><dc:format>image/svg+xml</dc:format><dc:type
         rdf:resource="http://purl.org/dc/dcmitype/StillImage" /><dc:title></dc:title></cc:Work></rdf:RDF></metadata><defs
   id="defs8640"><path
     id="Oct"
     d="M 500,-207.10678 V 207.10678 L 207.10678,500 H -207.10678 L -500,207.10678 V -207.10678 L -207.10678,-500 h 414.21356 z" /><pattern
     id="EMFhbasepattern"
     patternUnits="userSpaceOnUse"
     width="6"
     height="6"
     x="0"
     y="0" /><pattern
     id="EMFhbasepattern-0"
     patternUnits="userSpaceOnUse"
     width="6"
     height="6"
     x="0"
     y="0" /><pattern
     id="EMFhbasepattern-8"
     patternUnits="userSpaceOnUse"
     width="6"
     height="6"
     x="0"
     y="0" /><pattern
     id="EMFhbasepattern-3"
     patternUnits="userSpaceOnUse"
     width="6"
     height="6"
     x="0"
     y="0" /><pattern
     id="EMFhbasepattern-1"
     patternUnits="userSpaceOnUse"
     width="6"
     height="6"
     x="0"
     y="0" /><pattern
     id="EMFhbasepattern-5"
     patternUnits="userSpaceOnUse"
     width="6"
     height="6"
     x="0"
     y="0" /></defs><sodipodi:namedview
   inkscape:document-rotation="0"
   inkscape:current-layer="Layer_1"
   inkscape:window-maximized="1"
   inkscape:window-y="-9"
   inkscape:window-x="-9"
   inkscape:cy="350.31383"
   inkscape:cx="555.31265"
   inkscape:zoom="1"
   showgrid="false"
   id="namedview8638"
   inkscape:window-height="1001"
   inkscape:window-width="1920"
   inkscape:pageshadow="2"
   inkscape:pageopacity="0"
   guidetolerance="10"
   gridtolerance="10"
   objecttolerance="10"
   borderopacity="1"
   bordercolor="#666666"
   pagecolor="#ffffff"><sodipodi:guide
     inkscape:locked="false"
     id="guide8644"
     orientation="0,610"
     position="-5.3896699,-7.8417958" /><sodipodi:guide
     inkscape:color="rgb(117,80,123)"
     inkscape:label=""
     inkscape:locked="false"
     id="guide8646"
     orientation="-1,0"
     position="604.61033,-7.8417958" /><sodipodi:guide
     inkscape:locked="false"
     id="guide8648"
     orientation="0,-610"
     position="604.61033,592.1582" /><sodipodi:guide
     inkscape:locked="false"
     id="guide8650"
     orientation="600,0"
     position="-11.440678,592.1582" /><inkscape:grid
     originy="3.457"
     originx="1.12931"
     id="grid56807"
     type="xygrid" /></sodipodi:namedview>


<circle
   cx="296.078"
   cy="296.07901"
   r="292.48499"
   id="circle8633"
   style="fill:#ffffff;stroke:#000000;stroke-opacity:0.815686;fill-opacity:1" /><path
   style="color:#000000;font-style:normal;font-variant:normal;font-weight:normal;font-stretch:normal;font-size:medium;line-height:normal;font-family:sans-serif;font-variant-ligatures:normal;font-variant-position:normal;font-variant-caps:normal;font-variant-numeric:normal;font-variant-alternates:normal;font-variant-east-asian:normal;font-feature-settings:normal;font-variation-settings:normal;text-indent:0;text-align:start;text-decoration:none;text-decoration-line:none;text-decoration-style:solid;text-decoration-color:#000000;letter-spacing:normal;word-spacing:normal;text-transform:none;writing-mode:lr-tb;direction:ltr;text-orientation:mixed;dominant-baseline:auto;baseline-shift:baseline;text-anchor:start;white-space:normal;shape-padding:0;shape-margin:0;inline-size:0;clip-rule:nonzero;display:inline;overflow:visible;visibility:visible;opacity:1;isolation:auto;mix-blend-mode:normal;color-interpolation:sRGB;color-interpolation-filters:linearRGB;solid-color:#000000;solid-opacity:1;vector-effect:none;fill:#c0111e;fill-opacity:1;fill-rule:nonzero;stroke:none;stroke-width:70;stroke-linecap:butt;stroke-linejoin:miter;stroke-miterlimit:4;stroke-dasharray:none;stroke-dashoffset:0;stroke-opacity:1;color-rendering:auto;image-rendering:auto;shape-rendering:auto;text-rendering:auto;enable-background:accumulate;stop-color:#000000;stop-opacity:1"
   d="M 296.07812,0 C 132.97277,0 0,132.97277 0,296.07812 0,459.18348 132.97277,592.1582 296.07812,592.1582 459.18348,592.1582 592.1582,459.18348 592.1582,296.07812 592.1582,132.97277 459.18348,0 296.07812,0 Z m 0,70 C 421.35268,70 522.1582,170.80357 522.1582,296.07812 522.1582,421.35268 421.35268,522.1582 296.07812,522.1582 170.80357,522.1582 70,421.35268 70,296.07812 70,170.80357 170.80357,70 296.07812,70 Z"
   id="path56784" /><g
   transform="translate(-652.88746,-11.28633)"
   style="font-size:142.694px;line-height:109.02%;font-family:'Heb Tamrurim';-inkscape-font-specification:'Heb Tamrurim';text-align:center;text-anchor:middle;fill:#070fdb;fill-opacity:1;stroke-width:1"
   id="text60100"
   aria-label="k"><path
     d="m 921.77753,273.98983 v 39.07495 l 43.99214,0.0716 v 41.79612 q -0.0716,2.86438 -1.0264,5.58555 -7.01774,15.41992 -23.46407,11.38592 l -0.0477,19.52554 q 3.485,0.66836 7.04161,0.66836 33.99067,-3.27017 37.09375,-37.26085 l -0.0716,-61.22618 -43.61023,0.0477 -0.0477,-19.62102 -19.85972,-0.0477 z M 794.53711,150.11133 c -0.0205,0 -0.0371,0.0146 -0.0371,0.0351 V 459.2832 c 0,0.0204 0.0166,0.0371 0.0371,0.0371 h 309.13479 c 0.021,0 0.037,-0.0166 0.037,-0.0371 V 150.14648 c 0,-0.0205 -0.016,-0.0351 -0.037,-0.0351 z M 948.5,188.77148 1076.0586,420.76367 H 822.45703 Z"
     style="stroke-width:1"
     id="path60102" /></g></svg>
