<?xml version="1.0" encoding="UTF-8" standalone="no"?>
<!-- Generator: Adobe Illustrator 13.0.0, SVG Export Plug-In . SVG Version: 6.00 Build 14948)  -->

<svg
   version="1.1"
   id="Layer_1"
   x="0px"
   y="0px"
   width="592.1582"
   height="592.1582"
   viewBox="0 0 592.1582 592.1582"
   enable-background="new 0 0 610 600"
   xml:space="preserve"
   sodipodi:docname="Israel_road_sign_226.svg"
   inkscape:version="1.1.2 (b8e25be833, 2022-02-05)"
   xmlns:inkscape="http://www.inkscape.org/namespaces/inkscape"
   xmlns:sodipodi="http://sodipodi.sourceforge.net/DTD/sodipodi-0.dtd"
   xmlns="http://www.w3.org/2000/svg"
   xmlns:svg="http://www.w3.org/2000/svg"><defs
   id="defs41" /><sodipodi:namedview
   id="namedview39"
   pagecolor="#ffffff"
   bordercolor="#666666"
   borderopacity="1.0"
   inkscape:pageshadow="2"
   inkscape:pageopacity="0.0"
   inkscape:pagecheckerboard="0"
   showgrid="false"
   inkscape:zoom="1"
   inkscape:cx="219.5"
   inkscape:cy="240.5"
   inkscape:window-width="1920"
   inkscape:window-height="1001"
   inkscape:window-x="-9"
   inkscape:window-y="-9"
   inkscape:window-maximized="1"
   inkscape:current-layer="Layer_1"
   inkscape:object-paths="false"
   inkscape:snap-intersection-paths="true"
   inkscape:snap-smooth-nodes="true"
   inkscape:snap-bbox="true"
   inkscape:snap-bbox-edge-midpoints="true"
   inkscape:bbox-nodes="true"
   showguides="true"
   inkscape:guide-bbox="true"
   inkscape:snap-global="false" />
<circle
   fill="#0099BB"
   cx="296.07901"
   cy="296.07901"
   r="296.07901"
   id="circle2"
   style="fill:#070fdb;fill-opacity:1;stroke-width:1.01229" />
<g
   id="g34">
	<g
   id="g24">
		<g
   id="g6">
			<path
   fill="#ffffff"
   d="m 355.545,329.729 c 0.008,-50.328 40.785,-91.109 91.111,-91.119 v 0 10.549 10.548 c -19.371,0.006 -36.809,7.823 -49.512,20.508 v 0 c -12.686,12.703 -20.503,30.143 -20.505,49.51 v 0 c 0.002,19.363 7.817,36.805 20.505,49.506 v 0 c 12.703,12.688 30.141,20.504 49.512,20.508 v 0 c 19.365,-0.008 36.805,-7.82 49.504,-20.508 v 0 c 12.688,-12.701 20.507,-30.143 20.51,-49.506 v 0 c -0.008,-19.367 -7.822,-36.807 -20.51,-49.51 v 0 c -12.699,-12.686 -30.139,-20.506 -49.504,-20.508 v 0 -10.548 -10.549 c 50.324,0.01 91.106,40.791 91.113,91.119 v 0 c -0.007,50.322 -40.789,91.107 -91.113,91.113 v 0 c -50.326,-0.01 -91.103,-40.795 -91.111,-91.113 z"
   id="path4"
   style="display:none" />
		</g>
		<g
   id="g10">
			
		</g>
		<g
   id="g14">
			
		</g>
		<g
   id="g18">
			
		</g>
		<g
   id="g22">
			
		</g>
	</g>
	<g
   id="g30">
		
		
	</g>
	
</g>
<circle
   fill="none"
   stroke="#ffffff"
   stroke-width="7"
   cx="296.08002"
   cy="296.07901"
   r="284.66647"
   id="circle36" />
<path
   id="path5465"
   d="m 346.8493,80.59027 c 0,0 12.29689,-10.99872 12.29689,-23.29768 0,-12.296948 -9.06414,-17.474873 -16.18094,-17.474873 -7.11888,0 -21.01212,5.827018 -20.86412,17.474873 0.15465,12.29474 8.56727,22.00376 8.56727,22.00376 l 0.35354,6.83132 c 0,0 -12.003,1.58152 -21.06289,3.52458 -9.06194,1.94095 -18.76453,11.64992 -22.65063,24.59169 -3.88407,12.94388 -13.59303,48.53843 -18.7689,55.65738 -5.17591,7.11893 -5.17591,7.11893 -5.17591,7.11893 l -0.64929,7.11888 c 0,0 -14.88686,0.64929 -20.70969,0 -5.82291,-0.6493 -12.94394,-5.17792 -12.94394,-8.4128 0,-3.23495 3.90309,-5.9244 5.05538,-7.07884 1.1523,-1.15225 2.99808,-5.99406 2.99808,-11.07049 0,-5.07441 -2.07207,-15.22104 -14.06866,-15.22104 -11.99246,0 -14.75802,7.84209 -14.75802,16.37541 0,8.53342 7.83989,11.53155 7.83989,14.76007 0,3.22855 0,5.30478 -1.61324,5.5353 -1.61316,0.23052 -19.83017,8.76171 -25.13712,30.21155 -5.30488,21.44553 -5.99626,40.12769 -5.99626,40.12769 0,0 -4.15252,3.00028 -4.38295,4.3851 -0.22858,1.38281 0.92396,5.30062 4.38295,6.45717 3.459,1.15019 7.84204,1.15019 7.84204,-2.53719 0,-3.69169 -0.92388,-7.15068 -0.92388,-7.15068 0,0 3.69156,-7.3769 6.45712,-14.75797 2.76761,-7.38103 5.07225,-22.14117 5.07225,-22.14117 0,0 4.3808,-5.30688 4.3808,-0.92606 0,4.38304 2.7677,63.88637 2.7677,70.80438 0,6.91809 -0.92182,14.29706 -1.84583,17.98867 -0.92395,3.68956 -1.38486,5.76787 -1.38486,5.76787 0,0 -8.53558,3.9199 -8.07244,7.1485 0.46302,3.22857 2.76971,8.76391 10.61175,4.61349 7.83979,-4.15043 12.45125,-10.37713 12.45125,-10.37713 l 7.61152,-54.43107 7.15061,51.66134 9.45527,10.15079 c 0,0 3.68951,2.76562 6.91808,2.76562 3.22645,0 7.14846,-1.15229 7.14846,-4.15042 0,-2.99603 -10.14663,-10.3792 -10.14663,-10.3792 0,0 2.07417,-48.89373 2.07417,-64.57566 0,-15.68187 -0.92188,-39.66885 -0.92188,-39.66885 0,0 6.68559,-5.07017 12.44918,-6.22252 5.76578,-1.1544 7.38117,-3.22848 7.38117,-3.22848 0,0 5.53092,2.07408 8.07023,0 2.53937,-2.0763 4.61352,-6.68763 4.84613,-8.99433 0.23004,-2.30677 -0.46052,-4.1526 -0.46052,-4.1526 0,0 10.37724,-16.37118 13.37532,-23.75226 2.99803,-7.38107 5.30473,-17.06674 5.30473,-17.06674 0,0 0.46053,-2.30674 2.07429,-2.30674 1.61522,0 3.22843,5.07435 4.15248,5.9962 0.92391,0.92178 1.15435,2.30675 1.15435,2.30675 0,0 0.22641,56.0401 0.92195,61.5753 0.69554,5.53534 1.38274,42.66068 2.3067,62.03426 0.92395,19.37562 4.15033,49.35242 4.15033,49.35242 0,0 -6.91806,5.99838 -7.15056,8.99651 -0.22641,2.99808 4.38087,4.15033 9.22483,3.91986 4.84381,-0.23052 15.684,-11.99237 15.684,-11.99237 0,0 -0.23294,-17.29308 -0.23294,-24.21324 0,-6.92014 -1.84573,-15.68398 -1.84573,-28.59827 0,-12.91641 1.1523,-20.29749 2.30682,-29.75063 1.1585,-9.45733 5.30898,-18.91263 5.30898,-18.91263 0,0 6.45497,28.82664 7.37682,46.81531 0.92393,17.99079 0.92393,52.81569 0.92393,52.81569 0,0 6.91811,6.45934 8.53347,7.83993 1.61316,1.38497 5.76576,5.53534 8.76594,5.53534 2.99603,0 9.22481,-0.91972 9.22481,-4.84391 0,-3.92418 -8.07461,-11.30103 -8.07461,-11.30103 0,0 1.61531,-17.5277 1.84583,-20.29324 0.231,-2.76976 -0.23052,-32.0553 0,-48.66323 0.231,-16.60593 2.07618,-64.80185 2.53711,-76.10283 0.46302,-11.3011 1.15235,-27.90691 1.15235,-27.90691 l 2.3088,-2.76978 c 0,0 10.1488,17.76027 11.53159,23.98688 1.38267,6.22667 3.68732,33.67057 3.45895,36.44035 -0.231,2.76766 0.22858,5.53529 0.22858,5.53529 l 0.92405,1.61536 c 0,0 -0.46052,1.84584 -2.30469,3.68942 -1.84573,1.84583 -3.91988,8.76599 3.68951,8.76599 7.60947,0 6.455,-2.76969 6.455,-5.99616 0,-3.23065 -1.38059,-4.61341 -1.38059,-4.61341 l 2.30469,-4.61345 c 0,0 0,-29.05927 0,-36.89914 0,-7.83993 -7.1465,-40.12979 -10.83811,-49.58515 -3.69166,-9.45516 -8.07038,-20.9867 -10.6097,-23.063 -2.53501,-2.07418 -10.61172,-4.15042 -18.68213,-5.30483 -8.07038,-1.15224 -11.07061,1.15873 -11.07061,-1.14592 0,-2.30464 -0.49969,-4.3513 -0.49969,-4.3513 z"
   style="fill:#ffffff;fill-opacity:1;stroke-width:5.02199" /><path
   d="m 337.60543,501.85344 h 6.41566 v -7.25463 h -9.83394 l -5.11702,-10.67283 c 5.54694,-3.41533 8.96227,-8.55019 10.23702,-14.52704 h 5.57067 c 2.5586,29.03924 26.90165,51.25063 55.94676,51.25063 31.1769,0 56.80372,-25.19985 56.80372,-56.37365 0,-31.17666 -25.62682,-56.36479 -56.80372,-56.36479 -8.97403,0 -13.24909,0.85676 -21.78452,4.69608 l -22.21153,-38.86127 4.27513,-11.96849 c 5.97381,-0.42035 15.37797,-5.97391 15.37797,-12.80164 0,-1.28655 -0.85695,-2.13756 -2.14357,-2.13756 h -48.68331 c -2.56155,0 -4.70203,2.13756 -4.70203,4.69615 0,2.13756 1.71366,4.26914 3.84227,4.69616 l 21.78467,4.696 -5.12901,14.10015 H 238.50738 l 2.15541,-8.55321 h -0.0169 c 0.43825,-0.85079 0.43825,-2.13166 0.43825,-3.40943 0,-4.27513 -2.15532,-8.54128 -5.98572,-11.0998 -0.85985,-0.42929 -1.28672,-1.28665 -1.28672,-2.13746 0,-1.70759 1.28672,-2.98856 2.55852,-2.98856 h 21.7846 v -14.08811 h -26.05576 c -8.53531,0 -15.36906,6.83363 -15.36906,14.93912 0,5.55271 2.98853,10.24886 7.26062,13.2373 1.71653,0.85089 2.56142,2.13751 2.56142,3.8452 0,0.42351 0,0.85095 -0.42984,1.28077 l -11.96252,45.70382 c -6.40379,-2.56754 -13.23738,-3.84522 -19.64105,-3.84522 -31.18871,0 -56.3767,25.61505 -56.3767,56.36479 0,31.1738 25.18799,56.37365 56.3767,56.37365 31.18857,0 56.38852,-25.19985 56.38852,-56.37365 0,-18.35738 -8.97708,-35.44589 -23.92812,-45.6949 l 1.71368,-7.25456 65.35079,46.12177 c -0.8568,3.40941 -1.28372,3.40941 -1.28372,6.82769 0,13.24627 10.67586,23.48938 23.48629,23.48938 2.57042,0 4.70198,-0.42034 7.2606,-0.85095 l 3.4154,7.68446 h -6.40391 v 7.25463 h 6.40391 10.67873 m -36.29285,-37.57752 c 0,8.53837 6.81883,14.95398 14.9391,14.95398 8.54422,0 15.37795,-6.41561 15.37795,-14.95398 0,-8.11438 -6.83373,-14.94205 -15.37795,-14.94205 -8.12027,0 -14.9391,6.82767 -14.9391,14.94205 m -105.93156,5.55281 h -1.27487 c -2.98545,0 -5.5707,-2.13746 -5.5707,-5.55281 0,-1.71069 1.29851,-3.41828 2.58525,-4.69606 8.10554,-5.12596 13.65243,-12.38045 15.78397,-21.78462 l 3.00033,-9.82202 c -5.98867,-2.55843 -8.97709,-2.98546 -15.38078,-2.98546 -21.78462,0 -39.72103,17.5155 -39.72103,39.28816 0,21.78174 17.93641,39.7151 39.72103,39.7151 21.79648,0 39.29418,-17.93336 39.29418,-39.7151 0,-10.24594 -4.27219,-20.49491 -11.52382,-27.7614 l -3.41545,11.54162 c -2.98839,11.52372 -11.97446,19.63513 -23.49811,21.77259 m 192.1954,-42.70642 c 4.27508,-1.2777 8.97716,-2.13455 13.24929,-2.13455 21.78457,0 39.71208,17.5155 39.71208,39.28816 0,21.78174 -17.92751,39.7151 -39.71208,39.7151 -19.65306,0 -36.31756,-14.94502 -38.87615,-34.59208 h 41.43458 c 2.5615,0 5.1201,-2.13756 5.1201,-5.12302 0,-0.85383 -0.41774,-1.71069 -0.84492,-2.56143 z m -25.62686,32.03366 h 27.75854 l -14.08236,-24.77593 c -7.70226,6.41551 -12.39249,14.95383 -13.67618,24.77593 m -22.64138,0 c -1.27483,-5.12599 -4.26017,-10.24897 -8.5354,-13.23743 l 19.65311,-54.66606 16.65258,28.18532 c -13.23735,9.8162 -20.92477,23.49233 -22.19957,39.71817 z m -33.30544,-32.46052 h -10.67877 -6.41561 v 7.68459 h 9.83089 l 4.702,10.25778 -1.28365,1.28072 -69.62602,-48.69211 2.14362,-8.11151 h 101.64462 l -18.79621,51.68063 h -0.84501 c -3.41533,0 -3.84515,0 -7.26048,1.27773 l -3.41538,-7.69324 h 6.40375 v -7.68459 z"
   inkscape:connector-curvature="0"
   id="path38"
   style="fill:#ffffff;fill-opacity:1;fill-rule:evenodd;stroke-width:6.58424"
   sodipodi:nodetypes="cccccccssscccssssccccccscssccsscsccsssscccsscccccccsssccsscccssssccccssscsscccccccccccccccccccccccsccccc" /></svg>
