<?xml version="1.0" encoding="UTF-8" standalone="no"?>
<svg
   xmlns:dc="http://purl.org/dc/elements/1.1/"
   xmlns:cc="http://creativecommons.org/ns#"
   xmlns:rdf="http://www.w3.org/1999/02/22-rdf-syntax-ns#"
   xmlns:svg="http://www.w3.org/2000/svg"
   xmlns="http://www.w3.org/2000/svg"
   xmlns:sodipodi="http://sodipodi.sourceforge.net/DTD/sodipodi-0.dtd"
   xmlns:inkscape="http://www.inkscape.org/namespaces/inkscape"
   version="1.1"
   id="Layer_1"
   x="0px"
   y="0px"
   width="592.1582"
   height="592.1582"
   viewBox="0 0 592.1582 592.1582"
   enable-background="new 0 0 610 600"
   xml:space="preserve"
   sodipodi:docname="Israel_road_sign 414.svg"
   inkscape:version="1.0 (4035a4fb49, 2020-05-01)"><metadata
   id="metadata8642"><rdf:RDF><cc:Work
       rdf:about=""><dc:format>image/svg+xml</dc:format><dc:type
         rdf:resource="http://purl.org/dc/dcmitype/StillImage" /><dc:title></dc:title></cc:Work></rdf:RDF></metadata><defs
   id="defs8640"><path
     d="M 500,-207.10678 V 207.10678 L 207.10678,500 H -207.10678 L -500,207.10678 V -207.10678 L -207.10678,-500 h 414.21356 z"
     id="Oct" /><pattern
     y="0"
     x="0"
     height="6"
     width="6"
     patternUnits="userSpaceOnUse"
     id="EMFhbasepattern" /><pattern
     y="0"
     x="0"
     height="6"
     width="6"
     patternUnits="userSpaceOnUse"
     id="EMFhbasepattern-0" /><pattern
     y="0"
     x="0"
     height="6"
     width="6"
     patternUnits="userSpaceOnUse"
     id="EMFhbasepattern-8" /><pattern
     y="0"
     x="0"
     height="6"
     width="6"
     patternUnits="userSpaceOnUse"
     id="EMFhbasepattern-3" /><pattern
     y="0"
     x="0"
     height="6"
     width="6"
     patternUnits="userSpaceOnUse"
     id="EMFhbasepattern-1" /></defs><sodipodi:namedview
   pagecolor="#ffffff"
   bordercolor="#666666"
   borderopacity="1"
   objecttolerance="10"
   gridtolerance="10"
   guidetolerance="10"
   inkscape:pageopacity="0"
   inkscape:pageshadow="2"
   inkscape:window-width="1920"
   inkscape:window-height="1001"
   id="namedview8638"
   showgrid="false"
   inkscape:zoom="1.1125147"
   inkscape:cx="197.81463"
   inkscape:cy="259.20903"
   inkscape:window-x="-9"
   inkscape:window-y="-9"
   inkscape:window-maximized="1"
   inkscape:current-layer="Layer_1"
   inkscape:document-rotation="0"><sodipodi:guide
     position="-5.3896699,-7.8417958"
     orientation="0,610"
     id="guide8644"
     inkscape:locked="false" /><sodipodi:guide
     position="604.61033,-7.8417958"
     orientation="-1,0"
     id="guide8646"
     inkscape:locked="false"
     inkscape:label=""
     inkscape:color="rgb(117,80,123)" /><sodipodi:guide
     position="604.61033,592.1582"
     orientation="0,-610"
     id="guide8648"
     inkscape:locked="false" /><sodipodi:guide
     position="-11.440678,592.1582"
     orientation="600,0"
     id="guide8650"
     inkscape:locked="false" /><inkscape:grid
     type="xygrid"
     id="grid56807"
     originx="1.12931"
     originy="3.457" /></sodipodi:namedview>


<circle
   style="fill:#ffffff;stroke:#000000;stroke-opacity:0.815686;fill-opacity:1"
   id="circle8633"
   r="292.48499"
   cy="296.07901"
   cx="296.078" /><path
   id="path56784"
   d="M 296.07812,0 C 132.97277,0 0,132.97277 0,296.07812 0,459.18348 132.97277,592.1582 296.07812,592.1582 459.18348,592.1582 592.1582,459.18348 592.1582,296.07812 592.1582,132.97277 459.18348,0 296.07812,0 Z m 0,70 C 421.35268,70 522.1582,170.80357 522.1582,296.07812 522.1582,421.35268 421.35268,522.1582 296.07812,522.1582 170.80357,522.1582 70,421.35268 70,296.07812 70,170.80357 170.80357,70 296.07812,70 Z"
   style="color:#000000;font-style:normal;font-variant:normal;font-weight:normal;font-stretch:normal;font-size:medium;line-height:normal;font-family:sans-serif;font-variant-ligatures:normal;font-variant-position:normal;font-variant-caps:normal;font-variant-numeric:normal;font-variant-alternates:normal;font-variant-east-asian:normal;font-feature-settings:normal;font-variation-settings:normal;text-indent:0;text-align:start;text-decoration:none;text-decoration-line:none;text-decoration-style:solid;text-decoration-color:#000000;letter-spacing:normal;word-spacing:normal;text-transform:none;writing-mode:lr-tb;direction:ltr;text-orientation:mixed;dominant-baseline:auto;baseline-shift:baseline;text-anchor:start;white-space:normal;shape-padding:0;shape-margin:0;inline-size:0;clip-rule:nonzero;display:inline;overflow:visible;visibility:visible;opacity:1;isolation:auto;mix-blend-mode:normal;color-interpolation:sRGB;color-interpolation-filters:linearRGB;solid-color:#000000;solid-opacity:1;vector-effect:none;fill:#c0111e;fill-opacity:1;fill-rule:nonzero;stroke:none;stroke-width:70;stroke-linecap:butt;stroke-linejoin:miter;stroke-miterlimit:4;stroke-dasharray:none;stroke-dashoffset:0;stroke-opacity:1;color-rendering:auto;image-rendering:auto;shape-rendering:auto;text-rendering:auto;enable-background:accumulate;stop-color:#000000;stop-opacity:1" /><path
   id="path60069"
   style="color:#000000;font-style:normal;font-variant:normal;font-weight:normal;font-stretch:normal;font-size:medium;line-height:normal;font-family:sans-serif;font-variant-ligatures:normal;font-variant-position:normal;font-variant-caps:normal;font-variant-numeric:normal;font-variant-alternates:normal;font-variant-east-asian:normal;font-feature-settings:normal;font-variation-settings:normal;text-indent:0;text-align:start;text-decoration:none;text-decoration-line:none;text-decoration-style:solid;text-decoration-color:#000000;letter-spacing:normal;word-spacing:normal;text-transform:none;writing-mode:lr-tb;direction:ltr;text-orientation:mixed;dominant-baseline:auto;baseline-shift:baseline;text-anchor:start;white-space:normal;shape-padding:0;shape-margin:0;inline-size:0;clip-rule:nonzero;display:inline;overflow:visible;visibility:visible;opacity:1;isolation:auto;mix-blend-mode:normal;color-interpolation:sRGB;color-interpolation-filters:linearRGB;solid-color:#000000;solid-opacity:1;vector-effect:none;fill:#000000;fill-opacity:1;fill-rule:nonzero;stroke:none;stroke-width:0.999999;stroke-linecap:butt;stroke-linejoin:miter;stroke-miterlimit:4;stroke-dasharray:5.99999, 0.999999;stroke-dashoffset:0;stroke-opacity:1;color-rendering:auto;image-rendering:auto;shape-rendering:auto;text-rendering:auto;enable-background:accumulate;stop-color:#000000;stop-opacity:1"
   d="m 489.54645,186.2546 -15.96725,9.07398 2.05819,3.63447 15.97541,-9.06576 z m -389.42135,0.33496 -2.03368,3.65084 21.92129,12.21839 2.03369,-3.65899 z m 369.81145,10.80544 -21.81512,12.39814 2.06635,3.63448 21.81512,-12.39809 z m -344.23936,3.44664 -2.03369,3.65084 21.9213,12.21025 2.0337,-3.6508 z m 318.78976,11.00969 -21.81514,12.39808 2.06635,3.63448 21.81512,-12.38992 z m -293.21762,3.23425 -2.0337,3.65083 21.92131,12.21026 2.03369,-3.6508 z m 267.768,11.23018 -21.81513,12.38993 2.06635,3.63449 21.81512,-12.38993 z m -242.1959,3.01375 -2.0337,3.65084 21.91314,12.21844 2.04185,-3.65899 z m 216.74629,11.44253 -21.81508,12.39813 2.05814,3.63449 21.82329,-12.39813 z m -191.17417,2.8096 -2.03368,3.6508 21.9131,12.21029 2.04184,-3.65083 z m 165.7164,11.65488 -21.81508,12.38993 2.06636,3.63449 21.81507,-12.38993 z m -140.1443,2.58906 -2.03369,3.6508 21.91314,12.21029 2.03364,-3.65084 z m 114.69469,11.86723 -21.81507,12.38993 2.06634,3.63449 21.81513,-12.38994 z m -89.1226,2.3767 -2.04184,3.659 21.92129,12.21024 2.03369,-3.65898 z m 63.67304,12.07957 -20.79421,11.81821 -17.30669,-9.64568 -2.04185,3.65084 17.26584,9.62118 0.008,2.86673 0.008,12.5451 h 4.1817 l -0.008,-15.42818 20.75334,-11.79372 z m -22.8524,43.40151 0.008,25.09023 h 4.18171 l -0.008,-25.09023 z m 0.008,29.27194 0.0167,25.09024 h 4.18171 l -0.0167,-25.09024 z m 0.0167,29.27194 0.0167,25.09023 h 4.1817 l -0.0167,-25.09023 z m 0.0167,29.27194 0.0167,25.09023 h 4.18172 l -0.0167,-25.09023 z m 0.0167,29.27194 0.008,25.09024 h 4.1817 l -0.008,-25.09024 z m 0.0167,29.27195 0.008,25.09023 h 4.1817 l -0.008,-25.09023 z m 0.0167,29.27193 v 20.02649 l 4.18171,-0.008 v -20.01828 z" /><path
   id="path5465"
   d="m 324.25646,110.30256 c 0,0 7.41299,-6.63038 7.41299,-14.044619 0,-7.412997 -5.46415,-10.534434 -9.75441,-10.534434 -4.29151,0 -12.6668,3.512718 -12.57758,10.534434 0.0933,7.411689 5.16463,13.264609 5.16463,13.264609 l 0.21285,4.11815 c 0,0 -7.23581,0.95339 -12.69742,2.12473 -5.46282,1.17008 -11.3119,7.02296 -13.65456,14.82468 -2.34143,7.80302 -8.19431,29.26061 -11.31448,33.55214 -3.12023,4.29152 -3.12023,4.29152 -3.12023,4.29152 l -0.3914,4.2915 c 0,0 -8.97432,0.39142 -12.48454,0 -3.51021,-0.3914 -7.80301,-3.12142 -7.80301,-5.07151 0,-1.95015 2.35292,-3.57143 3.04755,-4.26735 0.69462,-0.69462 1.80737,-3.61342 1.80737,-6.67367 0,-3.05901 -1.24912,-9.17575 -8.48109,-9.17575 -7.22945,0 -8.89663,4.72746 -8.89663,9.87163 0,5.14424 4.72618,6.95162 4.72618,8.89787 0,1.94629 0,3.19791 -0.9725,3.33688 -0.9725,0.13882 -11.95433,5.28186 -15.15354,18.21253 -3.19792,12.92808 -3.61471,24.19029 -3.61471,24.19029 0,0 -2.5033,1.80867 -2.64221,2.64351 -0.13758,0.83357 0.557,3.19537 2.64221,3.89258 2.08521,0.69338 4.72742,0.69338 4.72742,-1.5295 0,-2.22546 -0.55696,-4.31067 -0.55696,-4.31067 0,0 2.22542,-4.44704 3.89258,-8.89659 1.66842,-4.44953 3.05771,-13.34744 3.05771,-13.34744 0,0 2.64091,-3.19917 2.64091,-0.55826 0,2.64225 1.66846,38.51283 1.66846,42.68325 0,4.17045 -0.55571,8.61874 -1.11272,10.84417 -0.55699,2.22417 -0.83487,3.47704 -0.83487,3.47704 0,0 -5.1455,2.36308 -4.86634,4.30937 0.27934,1.9463 1.66972,5.28318 6.39714,2.78116 4.72611,-2.50203 7.50603,-6.25569 7.50603,-6.25569 l 4.5885,-32.81284 4.31063,31.14316 5.69992,6.11926 c 0,0 2.22417,1.66717 4.17046,1.66717 1.945,0 4.30937,-0.69463 4.30937,-2.502 0,-1.80608 -6.11675,-6.25693 -6.11675,-6.25693 0,0 1.25037,-29.47475 1.25037,-38.92832 0,-9.45358 -0.5557,-23.91375 -0.5557,-23.91375 0,0 4.03024,-3.05645 7.50474,-3.75113 3.4758,-0.69591 4.44958,-1.94624 4.44958,-1.94624 0,0 3.33428,1.25033 4.86504,0 1.5308,-1.25166 2.78117,-4.03153 2.92139,-5.42208 0.13883,-1.39059 -0.27767,-2.5033 -0.27767,-2.5033 0,0 6.25571,-9.86911 8.06304,-14.31867 1.80736,-4.44957 3.19792,-10.28841 3.19792,-10.28841 0,0 0.27766,-1.39059 1.25042,-1.39059 0.97373,0 1.94624,3.05901 2.50324,3.61472 0.557,0.5557 0.69592,1.39058 0.69592,1.39058 0,0 0.13631,33.78284 0.55575,37.11966 0.4193,3.33688 0.83358,25.71727 1.39058,37.39633 0.55696,11.68026 2.50196,29.75128 2.50196,29.75128 0,0 -4.17046,3.616 -4.31063,5.42339 -0.13632,1.80733 2.64096,2.50195 5.56105,2.36303 2.92003,-0.13884 9.45483,-7.22942 9.45483,-7.22942 0,0 -0.1405,-10.42482 -0.1405,-14.59653 0,-4.17171 -1.11268,-9.45484 -1.11268,-17.24 0,-7.78646 0.69462,-12.23601 1.39059,-17.93467 0.69842,-5.7012 3.20047,-11.40117 3.20047,-11.40117 0,0 3.89129,17.37766 4.44699,28.22183 0.55696,10.84546 0.55696,31.83908 0.55696,31.83908 0,0 4.17046,3.89389 5.14425,4.72617 0.9725,0.83488 3.4758,3.33688 5.28442,3.33688 1.80609,0 5.561,-0.55446 5.561,-2.92009 0,-2.36562 -4.86763,-6.81262 -4.86763,-6.81262 0,0 0.97376,-10.5663 1.11272,-12.23346 0.13883,-1.6697 -0.13884,-19.324 0,-29.33583 0.13883,-10.01059 1.25162,-39.0647 1.52949,-45.87732 0.27934,-6.81268 0.69467,-16.82321 0.69467,-16.82321 l 1.39183,-1.66972 c 0,0 6.11801,10.7065 6.95158,14.46012 0.83355,3.75363 2.22288,20.29772 2.08522,21.96744 -0.13883,1.66845 0.13758,3.33686 0.13758,3.33686 l 0.557,0.9738 c 0,0 -0.27766,1.11271 -1.38933,2.22412 -1.11267,1.11271 -2.36303,5.28443 2.22417,5.28443 4.58724,0 3.89132,-1.66967 3.89132,-3.61472 0,-1.94753 -0.83231,-2.78112 -0.83231,-2.78112 l 1.38932,-2.78113 c 0,0 0,-17.51788 0,-22.24404 0,-4.72616 -4.30812,-24.19158 -6.53354,-29.89155 -2.22546,-5.69991 -4.86508,-12.6515 -6.39588,-13.90316 -1.5282,-1.25038 -6.39713,-2.50201 -11.2622,-3.19792 -4.86509,-0.69463 -6.67377,0.69851 -6.67377,-0.69082 0,-1.3893 -0.30107,-2.62311 -0.30107,-2.62311 z"
   style="fill:#000000;fill-opacity:1;stroke-width:0.999998" /><path
   d="m 215.94283,395.35294 h 3.68736 v -4.16958 h -5.652 l -2.941,-6.13419 c 3.18809,-1.96297 5.15103,-4.91421 5.88371,-8.34936 h 3.20172 c 1.47054,16.69019 15.46165,29.45614 32.15523,29.45614 17.91881,0 32.64774,-14.48355 32.64774,-32.40056 0,-17.91873 -14.72893,-32.39551 -32.64774,-32.39551 -5.15781,0 -7.61493,0.49244 -12.52061,2.69908 l -12.766,-22.33542 2.45713,-6.87882 c 3.43343,-0.2417 8.83841,-3.4335 8.83841,-7.3577 0,-0.73946 -0.49248,-1.22855 -1.23198,-1.22855 h -27.98058 c -1.47222,0 -2.70246,1.22855 -2.70246,2.69909 0,1.22853 0.98492,2.45366 2.20834,2.69908 l 12.52062,2.69904 -2.94785,8.10397 h -59.16629 l 1.23879,-4.91593 h -0.008 c 0.25215,-0.48896 0.25215,-1.22512 0.25215,-1.9595 0,-2.45713 -1.23875,-4.90907 -3.44029,-6.37958 -0.49415,-0.24712 -0.73953,-0.73952 -0.73953,-1.22853 0,-0.98144 0.73953,-1.71764 1.47053,-1.71764 h 12.52062 v -8.09711 h -14.97604 c -4.90563,0 -8.83326,3.92757 -8.83326,8.5862 0,3.19145 1.7176,5.89053 4.17297,7.60812 0.98658,0.48904 1.47221,1.22854 1.47221,2.21003 0,0.24379 0,0.48905 -0.24715,0.7361 l -6.87543,26.2681 c -3.68053,-1.47565 -7.60811,-2.21003 -11.28863,-2.21003 -17.92559,0 -32.40232,14.72215 -32.40232,32.39551 0,17.91701 14.47673,32.40056 32.40232,32.40056 17.92555,0 32.40913,-14.48355 32.40913,-32.40056 0,-10.55087 -5.15955,-20.37244 -13.75262,-26.26301 l 0.98492,-4.16952 37.56016,26.50833 c -0.49244,1.95955 -0.73783,1.95955 -0.73783,3.9242 0,7.61322 6.13596,13.50042 13.49868,13.50042 1.47735,0 2.70247,-0.2417 4.17302,-0.48909 l 1.96297,4.41664 h -3.68058 v 4.16958 h 3.68058 6.13757 m -20.85973,-21.59755 c 0,4.90735 3.91909,8.5947 8.58617,8.5947 4.91079,0 8.83841,-3.68735 8.83841,-8.5947 0,-4.66373 -3.92762,-8.58793 -8.83841,-8.58793 -4.66708,0 -8.58617,3.9242 -8.58617,8.58793 m -60.88379,3.19148 h -0.73277 c -1.71588,0 -3.20172,-1.22855 -3.20172,-3.19148 0,-0.98321 0.74631,-1.96465 1.48584,-2.69908 4.65864,-2.9461 7.84672,-7.11564 9.07183,-12.52062 l 1.72441,-5.64518 c -3.44195,-1.47048 -5.15955,-1.71588 -8.84007,-1.71588 -12.52062,0 -22.82952,10.06695 -22.82952,22.58076 0,12.51893 10.3089,22.8261 22.82952,22.8261 12.52746,0 22.58418,-10.30717 22.58418,-22.8261 0,-5.88884 -2.45542,-11.77941 -6.62328,-15.95581 l -1.96298,6.63352 c -1.71755,6.62321 -6.88226,11.28522 -13.50544,12.51377 m 110.46364,-24.54541 c 2.45709,-0.73439 5.15956,-1.22683 7.61498,-1.22683 12.5206,0 22.82437,10.06695 22.82437,22.58076 0,12.51893 -10.30377,22.8261 -22.82437,22.8261 -11.29551,0 -20.8734,-8.58962 -22.34395,-19.88168 h 23.8144 c 1.4722,0 2.94275,-1.22854 2.94275,-2.94442 0,-0.49077 -0.24046,-0.98321 -0.48563,-1.47221 z m -14.72897,18.41122 h 15.95413 l -8.09379,-14.23992 c -4.42682,3.68734 -7.12252,8.5947 -7.86034,14.23992 m -13.01305,0 c -0.73268,-2.94613 -2.44855,-5.89057 -4.90569,-7.60816 l 11.29555,-31.41911 9.57104,16.19941 c -7.60815,5.64181 -12.02646,13.50211 -12.75918,22.82786 z m -19.14218,-18.65655 h -6.13761 -3.68734 v 4.41663 h 5.65027 l 2.70248,5.89569 -0.73779,0.73607 -40.01734,-27.98565 1.23203,-4.66205 h 58.41993 l -10.80306,29.70328 h -0.48567 c -1.96293,0 -2.20998,0 -4.17292,0.73439 l -1.96298,-4.42173 h 3.68053 v -4.41663 z"
   inkscape:connector-curvature="0"
   id="path38"
   style="fill:#000000;fill-opacity:1;fill-rule:evenodd;stroke-width:1.25"
   sodipodi:nodetypes="cccccccssscccssssccccccscssccsscsccsssscccsscccccccsssccsscccssssccccssscsscccccccccccccccccccccccsccccc" /><path
   d="m 346.94426,291.77798 c -0.13926,0.002 -0.24964,0.0251 -0.327,0.0673 -1.24871,0.67777 3.52848,7.9225 3.52848,7.9225 0,0 -14.55385,14.52816 -17.87981,21.33154 -0.83262,1.70321 1.06006,4.03125 2.67938,5.01704 2.45504,1.4946 8.62152,0.11673 8.62152,0.11673 0,0 2.31482,-2.72012 3.83918,-3.57858 3.03925,-1.71157 10.0703,-2.84678 10.0703,-2.84678 l 26.17517,42.01331 -10.20754,39.8715 -0.97451,6.14315 v 0 h -25.70289 v 5.38984 h 134.73209 v -5.38984 h -9.42744 l -0.10452,-34.36 -6.62383,-12.17244 c 0,0 -0.70599,-3.93845 -0.36254,-5.86788 0.37593,-2.11094 2.58793,-5.88948 2.58793,-5.88948 0,0 0.14176,9.90717 2.07015,14.88809 1.92818,4.98091 9.49908,14.99764 9.49908,14.99764 0,0 -2.56185,-8.35389 -1.7595,-18.37429 0.70098,-8.75449 4.91672,-18.79986 3.26013,-25.40369 -0.98152,-3.91263 -1.44492,-6.174 -6.07413,-10.46729 -4.28327,-3.97248 -12.97441,-6.53114 -17.35775,-7.63432 -5.64447,-1.42052 -17.17569,3.14281 -17.17569,3.14281 l -46.33827,1.5075 c 0,0 -14.30052,-12.47599 -20.5842,-16.89004 -6.28373,-4.41404 -15.50163,-9.594 -15.50163,-9.594 0,0 -8.57069,-3.99456 -10.6623,-3.94012 z m 89.47939,66.35383 c 0.15138,0.008 0.29188,0.0293 0.41525,0.0744 1.12006,0.40562 2.20735,2.81052 2.20735,2.81052 l 8.54038,14.90448 -6.07673,31.91444 h -35.79761 l -3.85813,-44.66592 c 0,0 17.2344,-0.69746 22.55256,-1.41518 5.31818,-0.71774 9.35669,-2.89165 9.35669,-2.89165 0,0 1.59997,-0.77595 2.66041,-0.73092 z m 18.68407,5.44158 8.68712,13.45217 3.68036,30.80993 h -21.26075 c 1.86419,-6.27602 5.76769,-19.51451 7.80256,-27.14596 0.79908,-2.99674 0.0293,-9.30404 0.0293,-9.30404 0,0 -2.03921,-3.72248 -1.48596,-5.55899 0.327,-1.0855 2.54648,-2.25311 2.54648,-2.25311 z m -65.0154,3.42582 1.05793,0.96045 8.34794,39.87583 h -20.92162 z"
   style="fill:#000000;fill-opacity:1;fill-rule:evenodd;stroke:none;stroke-width:5.00002;stroke-linecap:square;paint-order:markers stroke fill"
   id="rect6083"
   sodipodi:nodetypes="cccsscsccccccccccccscscssssccsccsscccccscsccccsssccccccc" /></svg>
