<?xml version="1.0" encoding="UTF-8" standalone="no"?>
<svg
   xmlns:dc="http://purl.org/dc/elements/1.1/"
   xmlns:cc="http://creativecommons.org/ns#"
   xmlns:rdf="http://www.w3.org/1999/02/22-rdf-syntax-ns#"
   xmlns:svg="http://www.w3.org/2000/svg"
   xmlns="http://www.w3.org/2000/svg"
   xmlns:sodipodi="http://sodipodi.sourceforge.net/DTD/sodipodi-0.dtd"
   xmlns:inkscape="http://www.inkscape.org/namespaces/inkscape"
   sodipodi:docname="915a.svg"
   inkscape:version="1.0 (4035a4fb49, 2020-05-01)"
   id="svg6933"
   version="1.1"
   viewBox="0 0 86.254166 68.857941"
   height="68.857941mm"
   width="86.254166mm">
  <defs
     id="defs6927" />
  <sodipodi:namedview
     inkscape:window-maximized="0"
     inkscape:window-y="0"
     inkscape:window-x="224"
     inkscape:window-height="1030"
     inkscape:window-width="1424"
     showgrid="false"
     inkscape:document-rotation="0"
     inkscape:current-layer="layer1"
     inkscape:document-units="mm"
     inkscape:cy="130.12524"
     inkscape:cx="163"
     inkscape:zoom="3.1892352"
     inkscape:pageshadow="2"
     inkscape:pageopacity="0.0"
     borderopacity="1.0"
     bordercolor="#666666"
     pagecolor="#ffffff"
     id="base" />
  <metadata
     id="metadata6930">
    <rdf:RDF>
      <cc:Work
         rdf:about="">
        <dc:format>image/svg+xml</dc:format>
        <dc:type
           rdf:resource="http://purl.org/dc/dcmitype/StillImage" />
        <dc:title></dc:title>
      </cc:Work>
    </rdf:RDF>
  </metadata>
  <g
     transform="translate(-3.5382961,-180.49897)"
     id="layer1"
     inkscape:groupmode="layer"
     inkscape:label="Layer 1">
    <path
       style="color:#000000;font-style:normal;font-variant:normal;font-weight:normal;font-stretch:normal;font-size:medium;line-height:normal;font-family:sans-serif;font-variant-ligatures:normal;font-variant-position:normal;font-variant-caps:normal;font-variant-numeric:normal;font-variant-alternates:normal;font-variant-east-asian:normal;font-feature-settings:normal;font-variation-settings:normal;text-indent:0;text-align:start;text-decoration:none;text-decoration-line:none;text-decoration-style:solid;text-decoration-color:#000000;letter-spacing:normal;word-spacing:normal;text-transform:none;writing-mode:lr-tb;direction:ltr;text-orientation:mixed;dominant-baseline:auto;baseline-shift:baseline;text-anchor:start;white-space:normal;shape-padding:0;shape-margin:0;inline-size:0;clip-rule:nonzero;display:inline;overflow:visible;visibility:visible;opacity:1;isolation:auto;mix-blend-mode:normal;color-interpolation:sRGB;color-interpolation-filters:linearRGB;solid-color:#000000;solid-opacity:1;vector-effect:none;fill:#ff7200;fill-opacity:1;fill-rule:nonzero;stroke:none;stroke-width:0.113774;stroke-linecap:butt;stroke-linejoin:miter;stroke-miterlimit:4;stroke-dasharray:none;stroke-dashoffset:0;stroke-opacity:1;color-rendering:auto;image-rendering:auto;shape-rendering:auto;text-rendering:auto;enable-background:accumulate;stop-color:#000000;stop-opacity:1"
       d="m 3.5382961,180.49897 v 68.85794 H 89.792463 v -68.85794 z"
       id="path6721"
       sodipodi:nodetypes="ccccc" />
    <path
       style="color:#000000;font-style:normal;font-variant:normal;font-weight:normal;font-stretch:normal;font-size:medium;line-height:normal;font-family:sans-serif;font-variant-ligatures:normal;font-variant-position:normal;font-variant-caps:normal;font-variant-numeric:normal;font-variant-alternates:normal;font-variant-east-asian:normal;font-feature-settings:normal;font-variation-settings:normal;text-indent:0;text-align:start;text-decoration:none;text-decoration-line:none;text-decoration-style:solid;text-decoration-color:#000000;letter-spacing:normal;word-spacing:normal;text-transform:none;writing-mode:lr-tb;direction:ltr;text-orientation:mixed;dominant-baseline:auto;baseline-shift:baseline;text-anchor:start;white-space:normal;shape-padding:0;shape-margin:0;inline-size:0;clip-rule:nonzero;display:inline;overflow:visible;visibility:visible;opacity:1;isolation:auto;mix-blend-mode:normal;color-interpolation:sRGB;color-interpolation-filters:linearRGB;solid-color:#000000;solid-opacity:1;vector-effect:none;fill:#000000;fill-opacity:1;fill-rule:nonzero;stroke:none;stroke-width:1.10539;stroke-linecap:butt;stroke-linejoin:miter;stroke-miterlimit:4;stroke-dasharray:none;stroke-dashoffset:0;stroke-opacity:1;color-rendering:auto;image-rendering:auto;shape-rendering:auto;text-rendering:auto;enable-background:accumulate;stop-color:#000000;stop-opacity:1"
       d="m 7.0068668,181.42425 c -1.397563,0 -2.5428952,1.14532 -2.5428952,2.54291 v 61.92275 c 0,1.39754 1.1453322,2.54202 2.5428952,2.54202 l 79.3169962,-3.1e-4 c 1.397595,0 2.542925,-1.14442 2.542925,-2.542 v -61.92276 c 0,-1.3976 -1.145371,-2.54291 -2.542925,-2.54291 z m 0,1.10566 79.3169962,-2.7e-4 c 0.800167,0 1.437205,0.63704 1.437205,1.43722 v 61.92276 c 0,0.80017 -0.637038,1.43632 -1.437205,1.43632 l -79.3169962,2.9e-4 c -0.8001655,0 -1.4372121,-0.63618 -1.4372121,-1.43632 v -61.92275 c 0,-0.80018 0.6370466,-1.43725 1.4372121,-1.43725 z"
       id="path6723"
       sodipodi:nodetypes="ssssssssssssssssss" />
    <g
       style="font-style:normal;font-weight:normal;font-size:7.79876px;line-height:1.25;font-family:sans-serif;text-align:start;letter-spacing:0.74884px;word-spacing:0px;text-anchor:start;opacity:1;fill:#000000;fill-opacity:1;stroke:none;stroke-width:0.194969"
       id="text6727"
       aria-label="From Right">
      <path
         id="path7071"
         style="font-style:normal;font-variant:normal;font-weight:normal;font-stretch:normal;font-family:Triumvirate;-inkscape-font-specification:Triumvirate;text-align:start;text-anchor:start;fill:#000000;stroke-width:0.194969"
         d="m 22.778659,236.28144 h 3.96177 v 1.01384 h -2.807554 v 1.20101 h 2.464408 v 1.01383 h -2.464408 v 2.38643 h -1.154216 z" />
      <path
         id="path7073"
         style="font-style:normal;font-variant:normal;font-weight:normal;font-stretch:normal;font-family:Triumvirate;-inkscape-font-specification:Triumvirate;text-align:start;text-anchor:start;fill:#000000;stroke-width:0.194969"
         d="m 28.2951,237.82559 h 1.045034 v 0.6707 h 0.0156 q 0.04679,-0.078 0.132579,-0.21057 0.08579,-0.13258 0.218365,-0.25736 0.140378,-0.13258 0.31975,-0.22616 0.179371,-0.10139 0.405535,-0.10139 0.05459,0 0.116982,0.008 0.06239,0 0.116981,0.008 v 1.10742 q -0.06239,-0.008 -0.132579,-0.008 -0.06239,-0.008 -0.12478,-0.008 -0.327548,0 -0.530316,0.0936 -0.194969,0.0858 -0.304151,0.23396 -0.109183,0.14818 -0.148177,0.33535 -0.03899,0.18717 -0.03899,0.38214 v 2.04328 H 28.2951 Z" />
      <path
         id="path7075"
         style="font-style:normal;font-variant:normal;font-weight:normal;font-stretch:normal;font-family:Triumvirate;-inkscape-font-specification:Triumvirate;text-align:start;text-anchor:start;fill:#000000;stroke-width:0.194969"
         d="m 32.780642,239.86107 q 0,0.22616 0.05459,0.45233 0.05459,0.21836 0.163774,0.39773 0.116981,0.17158 0.296353,0.28076 0.18717,0.10918 0.444529,0.10918 0.257359,0 0.43673,-0.10918 0.187171,-0.10918 0.296353,-0.28076 0.116982,-0.17937 0.171573,-0.39773 0.05459,-0.22617 0.05459,-0.45233 0,-0.23396 -0.05459,-0.45233 -0.05459,-0.22616 -0.171573,-0.39774 -0.109182,-0.17937 -0.296353,-0.28075 -0.179371,-0.10918 -0.43673,-0.10918 -0.257359,0 -0.444529,0.10918 -0.179372,0.10138 -0.296353,0.28075 -0.109183,0.17158 -0.163774,0.39774 -0.05459,0.21837 -0.05459,0.45233 z m 0.959248,2.16026 q -0.467926,0 -0.850065,-0.14818 -0.382139,-0.14818 -0.662895,-0.42113 -0.272956,-0.28076 -0.421133,-0.6785 -0.148176,-0.40553 -0.148176,-0.91245 0,-0.50692 0.148176,-0.90466 0.148177,-0.40553 0.421133,-0.67849 0.280756,-0.28075 0.662895,-0.42893 0.382139,-0.14818 0.850065,-0.14818 0.467925,0 0.850065,0.14818 0.382139,0.14818 0.655095,0.42893 0.280756,0.27296 0.428932,0.67849 0.148177,0.39774 0.148177,0.90466 0,0.50692 -0.148177,0.91245 -0.148176,0.39774 -0.428932,0.6785 -0.272956,0.27295 -0.655095,0.42113 -0.38214,0.14818 -0.850065,0.14818 z" />
      <path
         id="path7077"
         style="font-style:normal;font-variant:normal;font-weight:normal;font-stretch:normal;font-family:Triumvirate;-inkscape-font-specification:Triumvirate;text-align:start;text-anchor:start;fill:#000000;stroke-width:0.194969"
         d="m 37.415824,237.82559 h 1.045034 v 0.60831 h 0.0156 q 0.101384,-0.21837 0.241762,-0.35875 0.148176,-0.14817 0.304151,-0.22616 0.163774,-0.0858 0.31975,-0.11698 0.155975,-0.0312 0.280755,-0.0312 0.421133,0 0.709687,0.19497 0.288554,0.18717 0.436731,0.53812 0.101383,-0.21837 0.257359,-0.35875 0.163774,-0.14817 0.335346,-0.22616 0.171573,-0.0858 0.335347,-0.11698 0.171573,-0.0312 0.296353,-0.0312 0.639498,0 0.974845,0.39774 0.343145,0.38994 0.343145,1.04503 v 2.75297 H 42.21986 v -2.48781 q 0,-0.24176 -0.05459,-0.38994 -0.04679,-0.15597 -0.132579,-0.24176 -0.08579,-0.0936 -0.194969,-0.12478 -0.109183,-0.0312 -0.226164,-0.0312 -0.116982,0 -0.241762,0.0468 -0.12478,0.0468 -0.226164,0.17157 -0.101384,0.11698 -0.171573,0.32755 -0.06239,0.21057 -0.06239,0.53032 v 2.19925 h -1.091826 v -2.48781 q 0,-0.24176 -0.05459,-0.38994 -0.04679,-0.15597 -0.132579,-0.24176 -0.08579,-0.0936 -0.194969,-0.12478 -0.109183,-0.0312 -0.226164,-0.0312 -0.116982,0 -0.241762,0.0468 -0.12478,0.0468 -0.226164,0.17157 -0.101384,0.11698 -0.171573,0.32755 -0.06239,0.21057 -0.06239,0.53032 v 2.19925 h -1.091826 z" />
      <path
         id="path7079"
         style="font-style:normal;font-variant:normal;font-weight:normal;font-stretch:normal;font-family:Triumvirate;-inkscape-font-specification:Triumvirate;text-align:start;text-anchor:start;fill:#000000;stroke-width:0.194969"
         d="m 49.641918,238.73025 h 1.466167 q 0.31195,0 0.522517,-0.16378 0.210566,-0.17157 0.210566,-0.56151 0,-0.37434 -0.210566,-0.53811 -0.210567,-0.17157 -0.522517,-0.17157 h -1.466167 z m -1.154217,-2.44881 h 2.986925 q 0.374341,0 0.662895,0.12478 0.296353,0.12478 0.491322,0.33535 0.202768,0.21056 0.304151,0.49912 0.109183,0.28075 0.109183,0.6005 0,0.56151 -0.218365,0.88126 -0.218365,0.31975 -0.600505,0.49132 0.257359,0.10918 0.389938,0.24956 0.132579,0.14038 0.194969,0.36654 0.06239,0.21837 0.07799,0.54592 0.0156,0.32755 0.0312,0.81107 0.0078,0.31195 0.07799,0.41333 0.07019,0.10139 0.148176,0.12478 v 0.17158 h -1.294594 q -0.07799,-0.14038 -0.101384,-0.38994 -0.0234,-0.24956 -0.03119,-0.52252 -0.0078,-0.27296 -0.0156,-0.51472 -0.0078,-0.24176 -0.06239,-0.36654 -0.101384,-0.22616 -0.280755,-0.31975 -0.171573,-0.10138 -0.467926,-0.10138 h -1.247801 v 2.21485 h -1.154217 z" />
      <path
         id="path7081"
         style="font-style:normal;font-variant:normal;font-weight:normal;font-stretch:normal;font-family:Triumvirate;-inkscape-font-specification:Triumvirate;text-align:start;text-anchor:start;fill:#000000;stroke-width:0.194969"
         d="m 54.681049,236.28144 h 1.091827 v 1.01384 h -1.091827 z m 0,1.54415 h 1.091827 v 4.07096 h -1.091827 z" />
      <path
         id="path7083"
         style="font-style:normal;font-variant:normal;font-weight:normal;font-stretch:normal;font-family:Triumvirate;-inkscape-font-specification:Triumvirate;text-align:start;text-anchor:start;fill:#000000;stroke-width:0.194969"
         d="m 58.489686,239.83767 q 0,0.56931 0.24956,0.85787 0.249561,0.28075 0.662895,0.28075 0.179371,0 0.335347,-0.0702 0.163774,-0.0702 0.280755,-0.21056 0.116981,-0.14818 0.179371,-0.37434 0.07019,-0.22617 0.07019,-0.53812 0,-0.29635 -0.07799,-0.50692 -0.07019,-0.21836 -0.194969,-0.35094 -0.116982,-0.14038 -0.280756,-0.20277 -0.163774,-0.0702 -0.343145,-0.0702 -0.374341,0 -0.6317,0.27296 -0.24956,0.27295 -0.24956,0.91245 z m 2.869944,1.61435 q 0,0.21836 -0.0156,0.45232 -0.0078,0.24177 -0.07019,0.47573 -0.05459,0.23396 -0.179371,0.44453 -0.116982,0.21056 -0.335347,0.37434 -0.218365,0.16377 -0.553712,0.25736 -0.327548,0.0936 -0.811071,0.0936 -0.530315,0 -0.896857,-0.11698 -0.366542,-0.11698 -0.592706,-0.30415 -0.226164,-0.17937 -0.335347,-0.40554 -0.101384,-0.22616 -0.109182,-0.43673 h 1.154216 q 0.0156,0.0546 0.04679,0.12478 0.03899,0.0702 0.116981,0.13258 0.07799,0.0624 0.218365,0.10139 0.148177,0.0468 0.38214,0.0468 0.327548,0 0.506919,-0.10918 0.18717,-0.10139 0.272957,-0.29636 0.08579,-0.19497 0.109182,-0.46792 0.0234,-0.27296 0.03119,-0.60831 l -0.0156,-0.0156 q -0.0234,0.0624 -0.09358,0.17937 -0.07019,0.11698 -0.202768,0.23396 -0.12478,0.11698 -0.327548,0.20277 -0.202768,0.0858 -0.499121,0.0858 -0.382139,0 -0.709687,-0.14038 -0.327548,-0.14038 -0.569309,-0.39774 -0.241762,-0.26516 -0.382139,-0.6395 -0.132579,-0.38214 -0.132579,-0.85006 0,-0.53032 0.132579,-0.93585 0.140377,-0.40554 0.37434,-0.6785 0.233963,-0.27295 0.553712,-0.41333 0.319749,-0.14038 0.69409,-0.14038 0.272956,0 0.467925,0.078 0.202768,0.0702 0.343146,0.17937 0.140377,0.10918 0.226164,0.23396 0.08579,0.12478 0.140377,0.22617 h 0.0156 v -0.59271 h 1.045034 z" />
      <path
         id="path7085"
         style="font-style:normal;font-variant:normal;font-weight:normal;font-stretch:normal;font-family:Triumvirate;-inkscape-font-specification:Triumvirate;text-align:start;text-anchor:start;fill:#000000;stroke-width:0.194969"
         d="m 63.117069,236.28144 h 1.091826 v 2.12126 h 0.0156 q 0.09359,-0.20277 0.241761,-0.33535 0.148177,-0.14037 0.311951,-0.21836 0.163774,-0.0858 0.335346,-0.11698 0.171573,-0.0312 0.311951,-0.0312 0.694089,0 1.052832,0.39774 0.366542,0.38994 0.366542,1.04503 v 2.75297 H 65.75305 v -2.48781 q 0,-0.24176 -0.06239,-0.38994 -0.06239,-0.15597 -0.163774,-0.24176 -0.09359,-0.0936 -0.226164,-0.12478 -0.132579,-0.0312 -0.272957,-0.0312 -0.148177,0 -0.296353,0.0546 -0.148176,0.0546 -0.265158,0.19497 -0.116981,0.13258 -0.18717,0.35874 -0.07019,0.22616 -0.07019,0.56151 v 2.10567 h -1.091826 z" />
      <path
         id="path7087"
         style="font-style:normal;font-variant:normal;font-weight:normal;font-stretch:normal;font-family:Triumvirate;-inkscape-font-specification:Triumvirate;text-align:start;text-anchor:start;fill:#000000;stroke-width:0.194969"
         d="m 70.552005,241.99013 q -0.109183,0.0156 -0.241762,0.0234 -0.132578,0.008 -0.218365,0.008 -0.397737,0 -0.655096,-0.0624 -0.24956,-0.0624 -0.389938,-0.20277 -0.140377,-0.14818 -0.194969,-0.37434 -0.04679,-0.23397 -0.04679,-0.56931 v -2.20705 h -0.530316 v -0.77988 h 0.530316 v -1.09182 h 1.091826 v 1.09182 h 0.655096 v 0.77988 h -0.655096 v 2.16805 q 0,0.14038 0.0156,0.21837 0.0234,0.078 0.08579,0.11698 0.07019,0.039 0.194969,0.0468 0.132579,0.008 0.358743,0.008 z" />
    </g>
    <g
       style="font-style:normal;font-weight:normal;font-size:7.79876px;line-height:1.25;font-family:sans-serif;letter-spacing:0px;word-spacing:0px;opacity:1;fill:#000000;fill-opacity:1;stroke:none;stroke-width:0.194969"
       id="text6733"
       aria-label="Trucks Merging
">
      <path
         id="path7090"
         style="font-style:normal;font-variant:normal;font-weight:normal;font-stretch:normal;font-family:Triumvirate;-inkscape-font-specification:Triumvirate;text-align:start;letter-spacing:0.729136px;text-anchor:start;fill:#000000;stroke-width:0.194969"
         d="m 15.224116,227.44213 h -1.684532 v -1.01384 h 4.523281 v 1.01384 h -1.684532 v 4.60127 h -1.154217 z" />
      <path
         id="path7092"
         style="font-style:normal;font-variant:normal;font-weight:normal;font-stretch:normal;font-family:Triumvirate;-inkscape-font-specification:Triumvirate;text-align:start;letter-spacing:0.729136px;text-anchor:start;fill:#000000;stroke-width:0.194969"
         d="m 18.75386,227.97244 h 1.045034 v 0.6707 h 0.0156 q 0.04679,-0.078 0.132578,-0.21057 0.08579,-0.13258 0.218366,-0.25736 0.140377,-0.13258 0.319749,-0.22616 0.179371,-0.10139 0.405535,-0.10139 0.05459,0 0.116982,0.008 0.06239,0 0.116981,0.008 v 1.10742 q -0.06239,-0.008 -0.132579,-0.008 -0.06239,-0.008 -0.12478,-0.008 -0.327548,0 -0.530316,0.0936 -0.194969,0.0858 -0.304151,0.23396 -0.109183,0.14818 -0.148177,0.33535 -0.03899,0.18717 -0.03899,0.38214 v 2.04328 H 18.75386 Z" />
      <path
         id="path7094"
         style="font-style:normal;font-variant:normal;font-weight:normal;font-stretch:normal;font-family:Triumvirate;-inkscape-font-specification:Triumvirate;text-align:start;letter-spacing:0.729136px;text-anchor:start;fill:#000000;stroke-width:0.194969"
         d="m 25.118941,231.43509 h -0.0156 q -0.109182,0.22617 -0.265157,0.36654 -0.155976,0.14038 -0.327548,0.22617 -0.171573,0.078 -0.343146,0.10918 -0.171573,0.0312 -0.31195,0.0312 -0.69409,0 -1.060632,-0.38994 -0.358743,-0.39774 -0.358743,-1.05283 v -2.75297 h 1.091827 v 2.48781 q 0,0.24176 0.06239,0.39773 0.06239,0.14818 0.155975,0.24177 0.101384,0.0858 0.233963,0.11698 0.132579,0.0312 0.272957,0.0312 0.148176,0 0.296352,-0.0546 0.148177,-0.0546 0.265158,-0.18717 0.116982,-0.14038 0.18717,-0.35874 0.07019,-0.22617 0.07019,-0.56931 v -2.10567 h 1.091827 v 4.07096 h -1.045034 z" />
      <path
         id="path7096"
         style="font-style:normal;font-variant:normal;font-weight:normal;font-stretch:normal;font-family:Triumvirate;-inkscape-font-specification:Triumvirate;text-align:start;letter-spacing:0.729136px;text-anchor:start;fill:#000000;stroke-width:0.194969"
         d="m 31.520335,230.51484 q -0.0312,0.28855 -0.155976,0.58491 -0.116981,0.28855 -0.343145,0.53031 -0.218365,0.23396 -0.545913,0.38994 -0.327548,0.14818 -0.779876,0.14818 -0.44453,0 -0.811071,-0.14038 -0.358743,-0.14038 -0.616102,-0.41334 -0.249561,-0.27295 -0.389938,-0.67069 -0.132579,-0.39774 -0.132579,-0.91245 0,-0.53812 0.140377,-0.94365 0.148177,-0.41334 0.405536,-0.68629 0.257359,-0.27296 0.616102,-0.41334 0.358743,-0.14038 0.787675,-0.14038 0.49912,0 0.842266,0.17158 0.343145,0.16377 0.553712,0.41333 0.218365,0.24176 0.31195,0.52252 0.101384,0.27295 0.116982,0.48352 h -1.091827 q -0.0234,-0.11698 -0.07019,-0.23396 -0.03899,-0.12478 -0.12478,-0.21837 -0.07799,-0.0936 -0.210566,-0.15597 -0.132579,-0.0624 -0.327548,-0.0624 -0.233963,0 -0.389938,0.10918 -0.155976,0.10918 -0.257359,0.28855 -0.09359,0.17158 -0.140378,0.40554 -0.03899,0.22616 -0.03899,0.46013 0,0.24176 0.0312,0.46012 0.03899,0.21837 0.132579,0.38994 0.09358,0.16377 0.24956,0.26516 0.163774,0.10138 0.413335,0.10138 0.194969,0 0.327548,-0.0702 0.132579,-0.0702 0.210566,-0.17157 0.08579,-0.10918 0.12478,-0.23396 0.04679,-0.13258 0.07019,-0.25736 z" />
      <path
         id="path7098"
         style="font-style:normal;font-variant:normal;font-weight:normal;font-stretch:normal;font-family:Triumvirate;-inkscape-font-specification:Triumvirate;text-align:start;letter-spacing:0.729136px;text-anchor:start;fill:#000000;stroke-width:0.194969"
         d="m 33.049939,226.42829 h 1.091827 v 3.07271 l 1.372582,-1.52856 h 1.310191 l -1.497362,1.57535 1.544155,2.49561 H 35.56114 l -0.998241,-1.76252 -0.421133,0.43673 v 1.32579 h -1.091827 z" />
      <path
         id="path7100"
         style="font-style:normal;font-variant:normal;font-weight:normal;font-stretch:normal;font-family:Triumvirate;-inkscape-font-specification:Triumvirate;text-align:start;letter-spacing:0.729136px;text-anchor:start;fill:#000000;stroke-width:0.194969"
         d="m 40.092416,229.20465 q -0.0156,-0.0936 -0.05459,-0.17937 -0.03119,-0.0936 -0.116982,-0.16378 -0.07799,-0.0702 -0.218365,-0.10918 -0.132579,-0.0468 -0.358743,-0.0468 -0.257359,0 -0.444529,0.0858 -0.179372,0.0858 -0.179372,0.24176 0,0.20277 0.18717,0.29636 0.187171,0.0936 0.467926,0.15597 0.288554,0.0624 0.616102,0.12478 0.327548,0.0546 0.608303,0.18717 0.288554,0.12478 0.475725,0.35095 0.18717,0.21836 0.18717,0.6083 0,0.34315 -0.132579,0.6083 -0.12478,0.25736 -0.358743,0.43673 -0.226164,0.17938 -0.553712,0.27296 -0.319749,0.0936 -0.709687,0.0936 -0.561511,0 -0.94365,-0.12478 -0.374341,-0.12478 -0.608303,-0.32755 -0.233963,-0.20277 -0.343146,-0.46013 -0.101384,-0.26516 -0.109182,-0.53811 h 1.123021 q 0.0078,0.0858 0.03119,0.18717 0.0312,0.10138 0.116981,0.19497 0.09359,0.0858 0.272957,0.14817 0.179372,0.0624 0.483523,0.0624 0.272957,0 0.467926,-0.0936 0.202768,-0.0936 0.202768,-0.28856 0,-0.19497 -0.187171,-0.29635 -0.18717,-0.10138 -0.475724,-0.16377 -0.280755,-0.0624 -0.608303,-0.12478 -0.327548,-0.0624 -0.616102,-0.18717 -0.280756,-0.12478 -0.467926,-0.33535 -0.18717,-0.21837 -0.18717,-0.60051 0,-0.28855 0.101384,-0.53811 0.101384,-0.24956 0.31195,-0.43673 0.218365,-0.18717 0.545913,-0.28855 0.335347,-0.10919 0.795474,-0.10919 0.569309,0 0.904656,0.15598 0.343145,0.14817 0.522517,0.36654 0.18717,0.21057 0.241761,0.44453 0.06239,0.22616 0.07019,0.38994 z" />
      <path
         id="path7102"
         style="font-style:normal;font-variant:normal;font-weight:normal;font-stretch:normal;font-family:Triumvirate;-inkscape-font-specification:Triumvirate;text-align:start;letter-spacing:0.729136px;text-anchor:start;fill:#000000;stroke-width:0.194969"
         d="m 46.098095,226.42829 h 1.723526 l 0.967047,4.14894 h 0.0156 l 0.967046,-4.14894 h 1.723526 v 5.61511 h -1.091826 v -4.35171 h -0.0156 l -1.013838,4.35171 h -1.154217 l -1.013839,-4.35171 h -0.0156 v 4.35171 h -1.091827 z" />
      <path
         id="path7104"
         style="font-style:normal;font-variant:normal;font-weight:normal;font-stretch:normal;font-family:Triumvirate;-inkscape-font-specification:Triumvirate;text-align:start;letter-spacing:0.729136px;text-anchor:start;fill:#000000;stroke-width:0.194969"
         d="m 55.82688,229.5166 q -0.0156,-0.14038 -0.06239,-0.28076 -0.04679,-0.14038 -0.140377,-0.24956 -0.09358,-0.10918 -0.241762,-0.17937 -0.140377,-0.0702 -0.350944,-0.0702 -0.202768,0 -0.350944,0.0624 -0.148177,0.0624 -0.24956,0.17157 -0.101384,0.10139 -0.155976,0.24177 -0.05459,0.14037 -0.07019,0.30415 z m 1.107423,1.31019 q -0.07019,0.21057 -0.202767,0.45233 -0.132579,0.23396 -0.358743,0.43673 -0.218366,0.19497 -0.545913,0.32755 -0.31975,0.12478 -0.764279,0.12478 -0.920254,0 -1.450569,-0.55372 -0.530316,-0.55371 -0.530316,-1.56755 0,-0.54591 0.140378,-0.95145 0.148176,-0.41333 0.405535,-0.68629 0.265158,-0.28075 0.623901,-0.42113 0.366542,-0.14038 0.811071,-0.14038 0.499121,0 0.857864,0.17937 0.358743,0.17158 0.584907,0.49913 0.226164,0.31974 0.335346,0.77207 0.109183,0.45233 0.109183,0.99824 h -2.776359 q 0.0078,0.20277 0.05459,0.38214 0.05459,0.17937 0.155975,0.31195 0.109183,0.13258 0.280755,0.21057 0.179372,0.078 0.44453,0.078 0.179371,0 0.296353,-0.039 0.12478,-0.0468 0.202767,-0.10918 0.08579,-0.0702 0.140378,-0.14818 0.05459,-0.0858 0.09359,-0.15597 z" />
      <path
         id="path7106"
         style="font-style:normal;font-variant:normal;font-weight:normal;font-stretch:normal;font-family:Triumvirate;-inkscape-font-specification:Triumvirate;text-align:start;letter-spacing:0.729136px;text-anchor:start;fill:#000000;stroke-width:0.194969"
         d="m 58.554203,227.97244 h 1.045034 v 0.6707 h 0.0156 q 0.04679,-0.078 0.132579,-0.21057 0.08579,-0.13258 0.218365,-0.25736 0.140378,-0.13258 0.319749,-0.22616 0.179372,-0.10139 0.405536,-0.10139 0.05459,0 0.116981,0.008 0.06239,0 0.116982,0.008 v 1.10742 q -0.06239,-0.008 -0.132579,-0.008 -0.06239,-0.008 -0.12478,-0.008 -0.327548,0 -0.530316,0.0936 -0.194969,0.0858 -0.304152,0.23396 -0.109182,0.14818 -0.148176,0.33535 -0.03899,0.18717 -0.03899,0.38214 v 2.04328 h -1.091826 z" />
      <path
         id="path7108"
         style="font-style:normal;font-variant:normal;font-weight:normal;font-stretch:normal;font-family:Triumvirate;-inkscape-font-specification:Triumvirate;text-align:start;letter-spacing:0.729136px;text-anchor:start;fill:#000000;stroke-width:0.194969"
         d="m 63.035639,229.98452 q 0,0.56931 0.24956,0.85787 0.24956,0.28075 0.662895,0.28075 0.179371,0 0.335346,-0.0702 0.163774,-0.0702 0.280756,-0.21056 0.116981,-0.14818 0.179371,-0.37434 0.07019,-0.22617 0.07019,-0.53812 0,-0.29635 -0.07799,-0.50692 -0.07019,-0.21836 -0.194969,-0.35094 -0.116981,-0.14038 -0.280755,-0.20277 -0.163774,-0.0702 -0.343145,-0.0702 -0.374341,0 -0.6317,0.27296 -0.24956,0.27296 -0.24956,0.91245 z m 2.869943,1.61435 q 0,0.21836 -0.0156,0.45232 -0.0078,0.24177 -0.07019,0.47573 -0.05459,0.23396 -0.179371,0.44453 -0.116982,0.21056 -0.335347,0.37434 -0.218365,0.16377 -0.553712,0.25736 -0.327548,0.0936 -0.811071,0.0936 -0.530316,0 -0.896857,-0.11698 -0.366542,-0.11698 -0.592706,-0.30415 -0.226164,-0.17937 -0.335347,-0.40554 -0.101384,-0.22616 -0.109182,-0.43673 h 1.154216 q 0.0156,0.0546 0.04679,0.12478 0.03899,0.0702 0.116981,0.13258 0.07799,0.0624 0.218365,0.10139 0.148177,0.0468 0.382139,0.0468 0.327548,0 0.50692,-0.10918 0.18717,-0.10139 0.272956,-0.29636 0.08579,-0.19497 0.109183,-0.46792 0.0234,-0.27296 0.03119,-0.6083 l -0.0156,-0.0156 q -0.0234,0.0624 -0.09359,0.17937 -0.07019,0.11698 -0.202767,0.23396 -0.12478,0.11698 -0.327548,0.20277 -0.202768,0.0858 -0.499121,0.0858 -0.382139,0 -0.709687,-0.14038 -0.327548,-0.14038 -0.569309,-0.39774 -0.241762,-0.26516 -0.38214,-0.6395 -0.132579,-0.38214 -0.132579,-0.85006 0,-0.53032 0.132579,-0.93585 0.140378,-0.40554 0.374341,-0.67849 0.233963,-0.27296 0.553712,-0.41334 0.319749,-0.14038 0.694089,-0.14038 0.272957,0 0.467926,0.078 0.202768,0.0702 0.343145,0.17937 0.140378,0.10918 0.226164,0.23397 0.08579,0.12478 0.140378,0.22616 h 0.0156 v -0.59271 h 1.045033 z" />
      <path
         id="path7110"
         style="font-style:normal;font-variant:normal;font-weight:normal;font-stretch:normal;font-family:Triumvirate;-inkscape-font-specification:Triumvirate;text-align:start;letter-spacing:0.729136px;text-anchor:start;fill:#000000;stroke-width:0.194969"
         d="m 67.63552,226.42829 h 1.091826 v 1.01384 H 67.63552 Z m 0,1.54415 h 1.091826 v 4.07096 H 67.63552 Z" />
      <path
         id="path7112"
         style="font-style:normal;font-variant:normal;font-weight:normal;font-stretch:normal;font-family:Triumvirate;-inkscape-font-specification:Triumvirate;text-align:start;letter-spacing:0.729136px;text-anchor:start;fill:#000000;stroke-width:0.194969"
         d="m 70.550991,227.97244 h 1.045034 v 0.60831 h 0.0156 q 0.109183,-0.21837 0.265158,-0.35875 0.155975,-0.14817 0.327548,-0.22616 0.171573,-0.0858 0.343145,-0.11698 0.171573,-0.0312 0.311951,-0.0312 0.694089,0 1.052832,0.39774 0.366542,0.38994 0.366542,1.04503 v 2.75297 h -1.091826 v -2.48781 q 0,-0.24176 -0.06239,-0.38994 -0.06239,-0.15597 -0.163774,-0.24176 -0.09359,-0.0936 -0.226164,-0.12478 -0.132579,-0.0312 -0.272957,-0.0312 -0.148177,0 -0.296353,0.0546 -0.148176,0.0546 -0.265158,0.19497 -0.116981,0.13258 -0.18717,0.35874 -0.07019,0.22616 -0.07019,0.56151 v 2.10567 h -1.091826 z" />
      <path
         id="path7114"
         style="font-style:normal;font-variant:normal;font-weight:normal;font-stretch:normal;font-family:Triumvirate;-inkscape-font-specification:Triumvirate;text-align:start;letter-spacing:0.729136px;text-anchor:start;fill:#000000;stroke-width:0.194969"
         d="m 76.921186,229.98452 q 0,0.56931 0.249561,0.85787 0.24956,0.28075 0.662894,0.28075 0.179372,0 0.335347,-0.0702 0.163774,-0.0702 0.280755,-0.21056 0.116982,-0.14818 0.179372,-0.37434 0.07019,-0.22617 0.07019,-0.53812 0,-0.29635 -0.07799,-0.50692 -0.07019,-0.21836 -0.194969,-0.35094 -0.116981,-0.14038 -0.280755,-0.20277 -0.163774,-0.0702 -0.343146,-0.0702 -0.37434,0 -0.631699,0.27296 -0.249561,0.27296 -0.249561,0.91245 z m 2.869944,1.61435 q 0,0.21836 -0.0156,0.45232 -0.0078,0.24177 -0.07019,0.47573 -0.05459,0.23396 -0.179372,0.44453 -0.116981,0.21056 -0.335346,0.37434 -0.218366,0.16377 -0.553712,0.25736 -0.327548,0.0936 -0.811071,0.0936 -0.530316,0 -0.896858,-0.11698 -0.366541,-0.11698 -0.592706,-0.30415 -0.226164,-0.17937 -0.335346,-0.40554 -0.101384,-0.22616 -0.109183,-0.43673 h 1.154217 q 0.0156,0.0546 0.04679,0.12478 0.03899,0.0702 0.116982,0.13258 0.07799,0.0624 0.218365,0.10139 0.148176,0.0468 0.382139,0.0468 0.327548,0 0.506919,-0.10918 0.187171,-0.10139 0.272957,-0.29636 0.08579,-0.19497 0.109183,-0.46792 0.0234,-0.27296 0.03119,-0.6083 l -0.0156,-0.0156 q -0.0234,0.0624 -0.09359,0.17937 -0.07019,0.11698 -0.202768,0.23396 -0.12478,0.11698 -0.327548,0.20277 -0.202767,0.0858 -0.49912,0.0858 -0.382139,0 -0.709687,-0.14038 -0.327548,-0.14038 -0.56931,-0.39774 -0.241761,-0.26516 -0.382139,-0.6395 -0.132579,-0.38214 -0.132579,-0.85006 0,-0.53032 0.132579,-0.93585 0.140378,-0.40554 0.37434,-0.67849 0.233963,-0.27296 0.553712,-0.41334 0.31975,-0.14038 0.69409,-0.14038 0.272957,0 0.467926,0.078 0.202767,0.0702 0.343145,0.17937 0.140378,0.10918 0.226164,0.23397 0.08579,0.12478 0.140378,0.22616 h 0.0156 v -0.59271 h 1.045034 z" />
    </g>
    <g
       style="font-style:normal;font-weight:normal;font-size:8.05914px;line-height:1.25;font-family:sans-serif;letter-spacing:0.689721px;word-spacing:0px;opacity:1;fill:#000000;fill-opacity:1;stroke:none;stroke-width:0.201478"
       id="text6737"
       aria-label=",uck,an ,uhtan ">
      <path
         id="path7117"
         style="font-style:normal;font-variant:normal;font-weight:normal;font-stretch:normal;font-family:'Heb Tamrurim';-inkscape-font-specification:'Heb Tamrurim';text-align:start;text-anchor:start;stroke-width:0.201478"
         d="m 10.735368,187.89545 v 1.11491 h 0.280412 l 0.004,3.30831 -0.395003,-0.003 -0.004,1.10951 1.507212,0.003 0.0027,-4.41783 h 1.251067 v 4.41244 l 1.106818,0.001 0.0013,-5.5233 -3.754551,-0.005 z" />
      <path
         id="path7119"
         style="font-style:normal;font-variant:normal;font-weight:normal;font-stretch:normal;font-family:'Heb Tamrurim';-inkscape-font-specification:'Heb Tamrurim';text-align:start;text-anchor:start;stroke-width:0.201478"
         d="m 15.989473,187.90489 -0.004,1.10547 0.843931,-0.001 v 4.41513 l 1.078507,-0.003 -0.004,-5.51656 h -1.914349 z" />
      <path
         id="path7121"
         style="font-style:normal;font-variant:normal;font-weight:normal;font-stretch:normal;font-family:'Heb Tamrurim';-inkscape-font-specification:'Heb Tamrurim';text-align:start;text-anchor:start;stroke-width:0.201478"
         d="m 19.555989,187.89949 0.0027,1.09873 2.173191,-0.003 -0.0027,3.31506 h -2.330922 l 0.0013,1.11086 h 3.873186 v -1.11221 h -0.444884 v -4.40975 h -3.271919 z" />
      <path
         id="path7123"
         style="font-style:normal;font-variant:normal;font-weight:normal;font-stretch:normal;font-family:'Heb Tamrurim';-inkscape-font-specification:'Heb Tamrurim';text-align:start;text-anchor:start;stroke-width:0.201478"
         d="m 24.762909,186.80077 v 2.20689 l 2.48461,0.004 v 2.36059 q -0.004,0.16177 -0.05797,0.31546 -0.396351,0.87089 -1.325215,0.64306 l -0.0027,1.10277 q 0.196827,0.0377 0.397699,0.0377 1.919742,-0.1847 2.094999,-2.10444 l -0.004,-3.45796 -2.46304,0.003 -0.0027,-1.10817 -1.121647,-0.003 z" />
      <path
         id="path7125"
         style="font-style:normal;font-variant:normal;font-weight:normal;font-stretch:normal;font-family:'Heb Tamrurim';-inkscape-font-specification:'Heb Tamrurim';text-align:start;text-anchor:start;stroke-width:0.201478"
         d="m 29.958823,187.89545 v 1.11491 h 0.280412 l 0.004,3.30831 -0.395003,-0.003 -0.004,1.10951 1.507213,0.003 0.0027,-4.41783 h 1.251068 v 4.41244 l 1.106817,0.001 0.0013,-5.5233 -3.754551,-0.005 z" />
      <path
         id="path7127"
         style="font-style:normal;font-variant:normal;font-weight:normal;font-stretch:normal;font-family:'Heb Tamrurim';-inkscape-font-specification:'Heb Tamrurim';text-align:start;text-anchor:start;stroke-width:0.201478"
         d="m 35.208885,187.90354 1.128387,5.51791 1.300949,0.001 q 1.802454,-0.17931 2.28913,-1.92379 l 0.83045,-3.59682 h -1.168832 l -0.784613,3.61165 q -0.299286,0.76304 -1.118951,0.80483 l -0.438143,0.004 -0.332989,-1.66225 h 1.063677 l 0.601268,-2.75963 -1.144565,0.001 -0.558128,2.60055 -0.521727,-2.60055 -1.145913,0.001 z" />
      <path
         id="path7129"
         style="font-style:normal;font-variant:normal;font-weight:normal;font-stretch:normal;font-family:'Heb Tamrurim';-inkscape-font-specification:'Heb Tamrurim';text-align:start;text-anchor:start;stroke-width:0.201478"
         d="m 42.25777,187.89949 v 1.123 l 0.431403,-0.003 0.004,4.40435 1.106817,-0.003 0.004,-4.39896 h 1.760662 v 3.27461 l -0.838539,-0.001 v 1.12973 l 1.948052,-0.001 -0.0027,-5.51521 -1.834809,0.003 -1.040759,0.54195 0.0013,-0.55409 H 42.25777 Z" />
      <path
         id="path7131"
         style="font-style:normal;font-variant:normal;font-weight:normal;font-stretch:normal;font-family:'Heb Tamrurim';-inkscape-font-specification:'Heb Tamrurim';text-align:start;text-anchor:start;stroke-width:0.201478"
         d="m 51.999829,187.89545 v 1.11491 h 0.280412 l 0.004,3.30831 -0.395004,-0.003 -0.004,1.10951 1.507213,0.003 0.0027,-4.41783 h 1.251068 v 4.41244 l 1.106817,0.001 0.0013,-5.5233 -3.754551,-0.005 z" />
      <path
         id="path7133"
         style="font-style:normal;font-variant:normal;font-weight:normal;font-stretch:normal;font-family:'Heb Tamrurim';-inkscape-font-specification:'Heb Tamrurim';text-align:start;text-anchor:start;stroke-width:0.201478"
         d="m 57.253933,187.90489 -0.004,1.10547 0.843931,-0.001 v 4.41513 l 1.078507,-0.003 -0.004,-5.51656 h -1.914349 z" />
      <path
         id="path7135"
         style="font-style:normal;font-variant:normal;font-weight:normal;font-stretch:normal;font-family:'Heb Tamrurim';-inkscape-font-specification:'Heb Tamrurim';text-align:start;text-anchor:start;stroke-width:0.201478"
         d="m 60.66946,187.89949 -0.0067,1.10817 0.837191,-0.003 -0.0013,1.67304 1.104121,0.004 0.0013,-2.78255 H 60.66946 Z" />
      <path
         id="path7137"
         style="font-style:normal;font-variant:normal;font-weight:normal;font-stretch:normal;font-family:'Heb Tamrurim';-inkscape-font-specification:'Heb Tamrurim';text-align:start;text-anchor:start;stroke-width:0.201478"
         d="m 64.107028,187.89949 1.151306,1.93323 -1.098728,0.81157 -0.0027,2.77985 1.10547,-0.007 v -2.19476 l 0.562171,-0.4341 1.551701,2.63291 1.279379,-0.001 -1.140521,-1.92918 1.060981,-0.82506 0.0027,-2.76502 -1.096032,-0.001 0.0013,2.20555 -0.540601,0.42197 -1.558442,-2.63021 -1.278031,0.003 z" />
      <path
         id="path7139"
         style="font-style:normal;font-variant:normal;font-weight:normal;font-stretch:normal;font-family:'Heb Tamrurim';-inkscape-font-specification:'Heb Tamrurim';text-align:start;text-anchor:start;stroke-width:0.201478"
         d="m 70.148525,187.90354 1.128387,5.51791 1.300949,0.001 q 1.802454,-0.17931 2.28913,-1.92379 l 0.83045,-3.59682 h -1.168832 l -0.784613,3.61165 q -0.299286,0.76304 -1.118951,0.80483 l -0.438143,0.004 -0.332989,-1.66225 h 1.063677 l 0.601268,-2.75963 -1.144565,0.001 -0.558128,2.60055 -0.521727,-2.60055 -1.145913,0.001 z" />
      <path
         id="path7141"
         style="font-style:normal;font-variant:normal;font-weight:normal;font-stretch:normal;font-family:'Heb Tamrurim';-inkscape-font-specification:'Heb Tamrurim';text-align:start;text-anchor:start;stroke-width:0.201478"
         d="m 77.197406,187.89949 v 1.123 l 0.431403,-0.003 0.004,4.40435 1.106818,-0.003 0.004,-4.39896 h 1.760662 v 3.27461 l -0.838539,-0.001 v 1.12973 l 1.948053,-0.001 -0.0027,-5.51521 -1.834809,0.003 -1.040759,0.54195 0.0013,-0.55409 h -1.539568 z" />
    </g>
    <g
       style="font-style:normal;font-weight:normal;font-size:8.05914px;line-height:1.25;font-family:sans-serif;letter-spacing:0.689721px;word-spacing:0px;opacity:1;fill:#000000;fill-opacity:1;stroke:none;stroke-width:0.201478"
       id="text6741"
       aria-label="ihnhn">
      <path
         id="path7144"
         style="font-style:normal;font-variant:normal;font-weight:normal;font-stretch:normal;font-family:'Heb Tamrurim';-inkscape-font-specification:'Heb Tamrurim';text-align:start;text-anchor:start;fill:#000000;stroke-width:0.201478"
         d="m 36.310602,198.86081 0.878983,-0.007 -0.004,5.52734 1.121646,0.001 0.0027,-6.63281 h -2.00063 l 0.0013,1.11086 z" />
      <path
         id="path7146"
         style="font-style:normal;font-variant:normal;font-weight:normal;font-stretch:normal;font-family:'Heb Tamrurim';-inkscape-font-specification:'Heb Tamrurim';text-align:start;text-anchor:start;fill:#000000;stroke-width:0.201478"
         d="m 39.807526,197.75264 -0.0067,1.10817 0.837191,-0.003 -0.0013,1.67304 1.104121,0.004 0.0013,-2.78255 h -1.934571 z" />
      <path
         id="path7148"
         style="font-style:normal;font-variant:normal;font-weight:normal;font-stretch:normal;font-family:'Heb Tamrurim';-inkscape-font-specification:'Heb Tamrurim';text-align:start;text-anchor:start;fill:#000000;stroke-width:0.201478"
         d="m 43.245096,197.75264 v 1.123 l 0.431402,-0.003 0.004,4.40435 1.106817,-0.003 0.004,-4.39896 h 1.760662 v 3.27461 l -0.838538,-0.001 v 1.12973 l 1.948052,-0.001 -0.0027,-5.51521 -1.83481,0.003 -1.040758,0.54195 0.0013,-0.55409 h -1.539568 z" />
      <path
         id="path7150"
         style="font-style:normal;font-variant:normal;font-weight:normal;font-stretch:normal;font-family:'Heb Tamrurim';-inkscape-font-specification:'Heb Tamrurim';text-align:start;text-anchor:start;fill:#000000;stroke-width:0.201478"
         d="m 49.167406,197.75264 -0.0067,1.10817 0.837191,-0.003 -0.0013,1.67304 1.104121,0.004 0.0013,-2.78255 h -1.934571 z" />
      <path
         id="path7152"
         style="font-style:normal;font-variant:normal;font-weight:normal;font-stretch:normal;font-family:'Heb Tamrurim';-inkscape-font-specification:'Heb Tamrurim';text-align:start;text-anchor:start;fill:#000000;stroke-width:0.201478"
         d="m 52.604975,197.75264 v 1.123 l 0.431403,-0.003 0.004,4.40435 1.106818,-0.003 0.004,-4.39896 h 1.760662 v 3.27461 l -0.838539,-0.001 v 1.12973 l 1.948052,-0.001 -0.0027,-5.51521 -1.834809,0.003 -1.040759,0.54195 0.0013,-0.55409 h -1.539568 z" />
    </g>
    <g
       transform="matrix(0.98531667,0,0,0.98531667,-249.86611,-466.61811)"
       id="g6851">
      <g
         id="g6797"
         transform="translate(-0.20867068)"
         style="opacity:1;fill:#000000">
        <g
           style="fill:#000000;fill-opacity:1"
           id="g6747"
           transform="matrix(0.35552132,0,0,0.35552132,189.67432,596.75438)">
          <g
             transform="translate(337.20001,257.63998)"
             id="g6745"
             style="fill:#000000">
            <path
               style="fill:#000000;stroke:none;stroke-width:1.04151"
               d="m 5.9455781,-9.0645009 0.699767,3.677845 c 0.065095,0.3702258 0.1830783,0.6265351 0.3580203,0.7648616 0.1708738,0.1423947 0.4597303,0.2115575 0.8625034,0.2115575 H 8.3866257 V -7.7551719e-5 H 7.6543114 C 7.0888018,-7.7551719e-5 6.568045,-0.25231966 6.0920409,-0.76493913 5.6119688,-1.2734904 5.3149739,-1.9244365 5.1969902,-2.7177772 H 4.9854327 L 4.1880238,-0.99277023 C 4.0008774,-0.57779267 3.8137299,-0.30927691 3.6184461,-0.17908771 3.4231623,-0.05703533 3.0692101,-7.7551719e-5 2.5606588,-7.7551719e-5 H -0.17282207 V -4.4102368 H 4.6111387 L 4.1880238,-6.4932641 Z m -2.7827943,-4.0033181 2.1969429,1.529723 -1.4483549,2.0993012 -2.1806692,-1.5622702 z"
               id="path6743"
               sodipodi:nodetypes="cccsccscccccscccccccccc" />
          </g>
        </g>
        <g
           style="fill:#000000;fill-opacity:1"
           id="g6753"
           transform="matrix(0.35552132,0,0,0.35552132,187.97427,596.75438)">
          <g
             transform="translate(350.70685,257.63998)"
             id="g6751"
             style="fill:#000000">
            <path
               style="fill:#000000;stroke:none;stroke-width:1.04151"
               d="m 18.480673,-6.6885479 -1.74128,3.1082672 c -0.142395,-0.020342 -0.358021,-0.032547 -0.650946,-0.032547 -0.740451,0 -1.554134,0.1464629 -2.441048,0.4393886 -0.890983,0.2929257 -2.196943,0.8787771 -3.9219498,1.7575543 -0.056957,0.032547 -0.1464629,0.089504 -0.2766521,0.1627365 C 7.8295694,-0.41505616 6.0679459,-7.7551719e-5 4.1598607,-7.7551719e-5 H -0.39629278 V -4.4102368 H 8.0004422 c 1.0740609,0 1.8470599,-0.052889 2.3271318,-0.1627365 0.476004,-0.1057793 0.895051,-0.2847894 1.253071,-0.5370305 C 10.950041,-5.313425 9.9939649,-5.7528135 8.7164828,-6.4281695 7.4471381,-7.0994573 6.4259663,-7.4371358 5.6570365,-7.4371358 c -0.4027731,0 -0.7282461,0.0773 -0.976419,0.2278311 -0.2522411,0.1545991 -0.4556622,0.4068412 -0.6183987,0.7648615 H 3.6391039 c 0.085436,-1.1472928 0.3987049,-2.0586173 0.9438717,-2.7339732 0.5533041,-0.6712879 1.2530711,-1.0089666 2.0993009,-1.0089666 0.6183987,0 1.7331443,0.4149778 3.3523725,1.2367977 0.71604,0.3702258 1.285618,0.6468778 1.708733,0.8299561 0.996761,0.4678678 2.005727,0.8258881 3.026899,1.074061 1.017103,0.252241 1.952838,0.3742939 2.799068,0.3742939 h 0.553304 c 0.138326,0 0.260378,-0.00407 0.35802,-0.016274 z"
               id="path6749"
               sodipodi:nodetypes="ccscccsccsccssccccscccssc" />
          </g>
        </g>
        <g
           style="fill:#000000;fill-opacity:1"
           id="g6759"
           transform="matrix(0.3702803,0,0,0.3702803,181.53647,592.95185)">
          <g
             transform="translate(373.422,257.63998)"
             id="g6757"
             style="fill:#000000">
            <path
               id="path6755"
               style="fill:#000000;stroke:none;stroke-width:0.355521"
               d="m 409.58984,683.25781 -0.81836,0.59375 v 3.32227 c 0,0.39302 0.0788,0.687 0.23438,0.88281 0.15832,0.1972 0.39569,0.29492 0.71094,0.29492 h 0.18164 0.002 1.2207 0.45313 l 0.46094,-0.44531 0.46679,0.44531 h 0.89453 l 0.4668,-0.44531 0.4668,0.44531 h 0.83789 c 0.1847,0 0.31029,-0.0174 0.37695,-0.0508 0.0694,-0.0361 0.1356,-0.12875 0.19531,-0.27734 l 0.33789,-0.82813 c 0.0181,-0.0361 0.0307,-0.0786 0.0391,-0.12304 0.007,-0.0444 0.0117,-0.0946 0.0117,-0.1543 v -1.40039 l -0.78321,0.36133 v 0.5664 c 0,0.16665 -0.0267,0.27674 -0.0781,0.32813 -0.0486,0.0486 -0.14294,0.0723 -0.2832,0.0723 h -0.78907 v -0.94531 l -0.65429,0.30664 v 0.27735 c 0,0.14443 -0.0267,0.24184 -0.0781,0.28906 -0.0486,0.0486 -0.14294,0.0723 -0.2832,0.0723 h -0.82227 v -0.73437 l -0.63867,0.30078 v 0.11133 c 0,0.12221 -0.0284,0.20864 -0.084,0.25586 -0.0528,0.0444 -0.14403,0.0664 -0.27735,0.0664 h -0.23633 -1.2207 -0.002 -0.3086 z m 3.98438,0.11524 -0.41797,0.63476 0.68359,0.45508 0.41211,-0.63477 z m -0.64453,1.00586 -0.42188,0.63281 0.68164,0.45703 0.42774,-0.62305 z m 1.36523,0 -0.41601,0.63281 0.67187,0.45703 0.42188,-0.62305 z"
               transform="matrix(2.8127708,0,0,2.8127708,-1148.8298,-1936.1733)" />
          </g>
        </g>
        <g
           style="fill:#000000;fill-opacity:1"
           id="g6765"
           transform="matrix(0.35552132,0,0,0.35552132,189.97432,596.75438)">
          <g
             transform="translate(327.48001,257.63998)"
             id="g6763"
             style="fill:#000000">
            <path
               style="fill:#000000;stroke:none;stroke-width:1.04151"
               d="M 7.823278,-14.923015 V -4.4102368 H 8.7346024 V -7.7551719e-5 H 8.197572 C 7.274042,-7.7551719e-5 6.5783443,-0.28486696 6.1145447,-0.86258103 5.6588825,-1.4362269 5.4310514,-2.2987304 5.4310514,-3.4500915 v -9.7316425 z m 0,0"
               id="path6761" />
          </g>
        </g>
        <g
           style="fill:#000000;fill-opacity:1"
           id="g6771"
           transform="matrix(0.35552132,0,0,0.35552132,187.07431,596.75438)">
          <g
             transform="translate(305.6293,257.63998)"
             id="g6769"
             style="fill:#000000">
            <path
               style="fill:#000000;stroke:none;stroke-width:1.04151"
               d="m 28.850516,-9.2597847 1.643639,4.5566222 c 0.03255,0.089505 0.05289,0.1708728 0.06509,0.2441047 0.02034,0.065095 0.03255,0.1220519 0.03255,0.1627365 0,0.097642 -0.01221,0.1912157 -0.03255,0.2766521 -0.02441,0.089504 -0.05696,0.1790101 -0.09764,0.276652 l -1.236797,3.02689903 c -0.109847,0.25224106 -0.244105,0.43532041 -0.406841,0.55330411 C 28.65523,-0.05296697 28.447741,-7.7551719e-5 28.199568,-7.7551719e-5 H 19.24906 c -1.216456,0 -2.164396,-0.362088468281 -2.84789,-1.090334548281 -0.675356,-0.724178 -1.008966,-1.7168707 -1.008966,-2.9780781 0,-0.7038351 0.122053,-1.3344393 0.374294,-1.8877434 0.260378,-0.5614415 0.650946,-1.0618555 1.171703,-1.4971759 h 0.813682 c -0.219693,0.2196938 -0.386499,0.4637985 -0.504483,0.7323143 -0.109847,0.2725839 -0.162736,0.549236 -0.162736,0.8299562 0,0.5329623 0.150531,0.9113244 0.455662,1.1391555 0.313267,0.2278311 0.834024,0.3417467 1.56227,0.3417467 h 9.031877 L 27.288246,-6.9652 Z m -5.012284,-2.6688783 1.985385,1.318165 -1.236797,1.8551965 -2.001659,-1.3344395 z m -3.580203,0 1.985385,1.318165 -1.253071,1.8551965 -1.985387,-1.3344395 z m 0,0"
               id="path6767" />
          </g>
        </g>
        <g
           style="fill:#000000;fill-opacity:1"
           id="g6777"
           transform="matrix(0.35552132,0,0,0.35552132,188.57431,596.75438)">
          <g
             transform="translate(217.08,257.63998)"
             id="g6775"
             style="fill:#000000">
            <path
               id="path6773"
               style="fill:#000000;stroke:none;stroke-width:0.355521"
               d="m 364.53906,684.82422 c -0.49995,0 -0.86291,0.11291 -1.08789,0.33789 -0.22637,0.22637 -0.34436,0.59749 -0.35547,1.11133 h 0.24414 c 0.0333,-0.18054 0.11022,-0.30639 0.23243,-0.37305 0.12498,-0.0667 0.34968,-0.0996 0.67187,-0.0996 0.19165,0 0.38678,0.01 0.58398,0.0234 0.19582,0.0111 0.39716,0.0314 0.60547,0.0606 -0.69299,0.3333 -1.22152,0.74214 -1.58398,1.22265 -0.35969,0.47773 -0.53711,1.00909 -0.53711,1.59375 0,0.38469 0.0659,0.73384 0.19922,1.04492 0.13332,0.31386 0.31721,0.55744 0.55469,0.73243 0.16248,0.11804 0.37029,0.20308 0.62304,0.25586 0.25137,0.0556 0.58954,0.082 1.01172,0.082 0.14721,0 0.31842,-0.008 0.51563,-0.0215 0.19998,-0.0153 0.4123,-0.0372 0.63867,-0.0664 l 0.86133,-1.14454 c -0.35969,0.0444 -0.6838,0.0743 -0.97266,0.0937 -0.28608,0.0222 -0.54403,0.0332 -0.77734,0.0332 -0.72216,0 -1.23632,-0.10814 -1.53907,-0.32617 -0.30413,-0.21943 -0.45507,-0.57818 -0.45507,-1.07813 0,-0.54023 0.19205,-1.00568 0.57812,-1.39453 0.38469,-0.38885 0.93041,-0.67185 1.63867,-0.84961 v 1.15039 c 0,0.4444 0.0803,0.74598 0.24414,0.9043 0.16249,0.15554 0.48942,0.23437 0.98243,0.23437 h 0.5 0.5332 0.29687 0.32032 c 0.24025,0 0.43512,-0.0521 0.58789,-0.15625 0.15137,-0.10693 0.2899,-0.28631 0.41211,-0.53906 h 0.0937 c 0.0583,0.10832 0.14927,0.20266 0.27148,0.2832 0.12499,0.0819 0.25874,0.13403 0.40039,0.15625 l 1.39453,0.2168 c 0.007,0 0.0162,0.003 0.0274,0.006 0.0667,0.008 0.11059,0.01 0.13281,0.01 0.12915,10e-6 0.22995,-0.0803 0.30078,-0.24414 0.007,-0.0139 0.0117,-0.0232 0.0117,-0.0273 l 0.37695,-0.82226 c 0.003,-0.0111 0.0121,-0.03 0.0274,-0.0606 0.0444,-0.1 0.0664,-0.17405 0.0664,-0.22266 0,-0.0806 -0.0594,-0.21091 -0.18164,-0.38867 -0.12221,-0.18054 -0.28917,-0.37849 -0.49609,-0.59375 -0.23748,-0.25136 -0.45432,-0.44172 -0.6543,-0.57227 -0.1972,-0.13332 -0.36559,-0.20117 -0.50586,-0.20117 -0.32636,0 -0.68793,0.27848 -1.08789,0.83399 -0.0708,0.0972 -0.126,0.16958 -0.16211,0.21679 -0.16387,0.2222 -0.33226,0.37792 -0.50586,0.4668 -0.17498,0.0889 -0.39829,0.13281 -0.67187,0.13281 h -0.15821 -0.29687 -0.5332 -0.73829 c -0.25275,0 -0.41637,-0.0299 -0.49414,-0.0937 -0.075,-0.0625 -0.11132,-0.19173 -0.11132,-0.38476 l 0.006,-0.34375 c 0.0333,0 0.0697,0.003 0.11133,0.006 h 0.14453 c 0.0403,0 0.0935,-0.002 0.16016,-0.006 0.0667,-0.007 0.11255,-0.0134 0.13477,-0.0176 l 0.51562,-0.98242 c -0.0667,0 -0.13564,0.003 -0.20508,0.006 h -0.21679 c -0.45968,0 -0.98821,-0.033 -1.58399,-0.0996 -0.593,-0.0694 -0.95934,-0.10547 -1.09961,-0.10547 z m 6.55469,1.16016 c 0.26247,0.0972 0.49985,0.22618 0.71094,0.38867 0.21109,0.16387 0.39975,0.3669 0.5664,0.61133 l -1.86718,-0.30469 c 0.0736,-0.19998 0.15526,-0.35457 0.24414,-0.46289 0.0917,-0.1111 0.20821,-0.18798 0.3457,-0.23242 z m -5.98242,1.8164 -0.42774,0.62695 0.6836,0.45704 0.42773,-0.62305 z"
               transform="matrix(2.8127708,0,0,2.8127708,-996.70697,-1936.1733)" />
          </g>
        </g>
        <g
           style="fill:#000000;fill-opacity:1"
           id="g6783"
           transform="matrix(0.35552132,0,0,0.35552132,188.47431,596.75438)">
          <g
             transform="translate(262.51031,257.63998)"
             id="g6781"
             style="fill:#000000">
            <path
               style="fill:#000000;stroke:none;stroke-width:1.00761"
               d="m 19.586285,-10.390971 0.771451,5.2427173 c 0.03936,0.3266861 0.133824,0.5589078 0.28339,0.6927314 0.145631,0.1259511 0.417214,0.1889267 0.818683,0.1889267 h 0.251902 V 0 h -0.07872 c -0.747835,0 -1.346103,-0.22041453 -1.794805,-0.6612436 -0.452637,-0.4408291 -0.751771,-1.0942012 -0.897402,-1.9679869 h -0.20467 l -0.755707,1.66885289 C 17.799354,-0.57071595 17.618298,-0.3148779 17.429372,-0.18892674 17.240445,-0.06297558 16.886208,0 16.374531,0 H 14.941836 C 14.005075,0 13.351703,-0.17711857 12.97385,-0.53529244 12.595997,-0.88953058 12.40707,-1.4877986 12.40707,-2.3300965 v -3.1802668 h 0.488061 c 0.05117,0.4723168 0.196799,0.7990029 0.440828,0.9761215 0.240095,0.1810543 0.680923,0.2676462 1.322487,0.2676462 h 4.030437 l -0.472317,-4.2665956 z m 0,0"
               id="path6779" />
          </g>
        </g>
        <g
           style="fill:#000000;fill-opacity:1"
           id="g6789"
           transform="matrix(0.35552132,0,0,0.35552132,189.17421,596.75438)">
          <g
             transform="translate(278.32077,257.63998)"
             id="g6787"
             style="fill:#000000">
            <path
               style="fill:#000000;stroke:none;stroke-width:1.00761"
               d="m 11.092115,-8.7693496 0.676987,3.5581203 c 0.06298,0.3581739 0.177119,0.6061395 0.346366,0.7399631 0.165311,0.1377593 0.444765,0.2046706 0.834426,0.2046706 h 0.503805 V 0 H 12.745224 C 12.198123,0 11.694318,-0.24403088 11.23381,-0.73996307 10.769365,-1.2319595 10.482038,-1.8617154 10.367895,-2.6292305 h -0.20467 L 9.3917737,-0.96037761 C 9.2107194,-0.55890878 9.0296641,-0.29913401 8.8407373,-0.17318285 8.6518106,-0.05510363 8.3093806,0 7.8173841,0 H 3.7694574 V -4.2665956 H 9.8011149 L 9.3917737,-6.2818142 Z m -2.6922067,-3.8729984 2.1254257,1.479926 -1.4012066,2.0309628 -2.1096819,-1.5114138 z"
               id="path6785"
               sodipodi:nodetypes="cccsccscccccscccccccccc" />
          </g>
        </g>
        <g
           style="fill:#000000;fill-opacity:1"
           id="g6795"
           transform="matrix(0.35822659,0,0,0.35822659,188.36178,596.0574)">
          <g
             transform="translate(291.6684,257.63998)"
             id="g6793"
             style="fill:#000000">
            <path
               style="fill:#000000;stroke:none"
               d="m 5.8125,-8.890625 1.546875,4.375 c 0.039063,0.085937 0.066406,0.164062 0.078125,0.234375 0.019531,0.074219 0.03125,0.125 0.03125,0.15625 0,0.09375 -0.011719,0.183594 -0.03125,0.265625 -0.011719,0.085937 -0.039062,0.167969 -0.078125,0.25 L 6.171875,-0.6875 C 6.066406,-0.457031 5.929688,-0.285156 5.765625,-0.171875 5.609375,-0.0546875 5.410156,0 5.171875,0 H 0 V -4.234375 H 5.109375 L 4.296875,-6.6875 Z m -0.546875,-4.140625 1.90625,1.28125 -1.1875,1.78125 -1.90625,-1.296875 z m -3.4375,0 1.90625,1.28125 -1.1875,1.78125 L 0.625,-11.265625 Z m 0,0"
               id="path6791" />
          </g>
        </g>
      </g>
      <g
         id="g6849"
         transform="translate(0.02314349)"
         style="opacity:1;fill:#000000">
        <g
           style="fill:#000000;fill-opacity:1"
           id="g6803"
           transform="matrix(0.37150797,0,0,0.37150797,186.91303,588.2856)">
          <g
             transform="translate(310.16989,296.28)"
             id="g6801"
             style="fill:#000000">
            <path
               style="fill:#000000;stroke:none"
               d="M 4.171875,-14.328125 V -3.875 L 2.515625,0 h -0.625 v -12.65625 z m 0,0"
               id="path6799" />
          </g>
        </g>
        <g
           style="fill:#000000;fill-opacity:1"
           id="g6809"
           transform="matrix(0.35348574,0,0,0.35348574,193.97921,593.36475)">
          <g
             transform="translate(321.94528,296.28)"
             id="g6807"
             style="fill:#000000">
            <path
               d="m 9.8329693,-10.30748 -1.5028895,2.1603996 2.2930212,1.5692005 1.469734,-2.1603983 z m 17.2224497,1.2487363 c -0.990733,0 -2.089929,0.8442207 -3.304151,2.5305971 -0.215001,0.2951179 -0.376592,0.514165 -0.486214,0.6575088 -0.497475,0.6745675 -1.009037,1.1446572 -1.536045,1.4144842 -0.531196,0.269827 -1.208309,0.4088708 -2.038838,0.4088708 h -1.071924 -0.02761 -0.392321 c -0.396282,0 -0.724726,-0.093384 -0.994553,-0.28731 -0.269828,-0.1897107 -0.48101,-0.4903734 -0.624354,-0.8950856 l -0.762492,-1.9891326 -1.718372,2.1051486 c 0.480614,0.7335798 0.854716,1.4641891 1.116113,2.1935538 0.269827,0.7335798 0.403326,1.4067328 0.403326,2.02225996 0,1.10459936 -0.446241,1.92466054 -1.331595,2.46431414 -0.889569,0.539654 -2.245324,0.8122251 -4.066643,0.8122251 -1.2732339,0 -2.2908139,-0.3581191 -3.0665453,-1.0663796 -0.7673011,-0.69985792 -1.1492684,-1.61986674 -1.1492684,-2.7792634 0,-0.3246242 0.023848,-0.6651188 0.08286,-1.0277077 0.054825,-0.3709909 0.1403451,-0.7611056 0.2541828,-1.1658461 H 5.7663272 C 5.3362957,-2.7835826 5.0238645,-1.992886 4.8215084,-1.2845971 4.6275826,-0.57633602 4.5397148,0.11837375 4.5397148,0.79291297 c 0,1.67375853 0.5021136,3.04812803 1.5139508,4.12743603 1.0118088,1.0792797 2.2941236,1.6189055 3.8456147,1.6189055 1.8634707,0 3.4663637,-0.7132961 4.8070407,-2.1383041 1.336461,-1.4292231 2.111146,-3.2632147 2.326147,-5.497704 h 0.237605 v 0.18235556 c 0,0.40471251 0.117516,0.7373709 0.353621,0.99455242 0.233617,0.24612025 0.555836,0.39260424 0.966942,0.43648154 v 0.005545 c 0.0038,3.9606e-4 0.0072,-3.9605e-4 0.01103,0 h 1.574717 c 0.729364,0 1.326447,-0.15898802 1.790228,-0.47518182 0.459537,-0.32462412 0.877715,-0.86818245 1.248706,-1.6355121 h 0.281794 c 0.177065,0.3288676 0.457783,0.61742248 0.828803,0.86195865 0.379449,0.24875152 0.785548,0.40219477 1.215579,0.46966567 l 4.232391,0.65750883 c 0.02111,0 0.04917,0.0136639 0.08289,0.0220942 0.202356,0.025291 0.335884,0.0331555 0.403355,0.0331555 0.392066,0 0.696661,-0.24844001 0.911663,-0.7459141 0.02108,-0.0421516 0.03316,-0.0702433 0.03316,-0.0828888 l 1.149266,-2.49744235 c 0.0084,-0.033721 0.03652,-0.089593 0.08289,-0.182327 0.134913,-0.3035483 0.204421,-0.5265276 0.204421,-0.6741149 0,-0.2445077 -0.187052,-0.6427699 -0.558042,-1.1823956 -0.37102,-0.5480843 -0.874718,-1.1533138 -1.50289,-1.8068055 -0.720934,-0.763086 -1.382036,-1.3386396 -1.989132,-1.7349498 -0.598667,-0.4047122 -1.110229,-0.6077755 -1.536046,-0.6077755 z m -0.72382,2.3980033 c 0.796835,0.295118 1.51958,0.6836202 2.160426,1.1768792 0.640818,0.4975023 1.21244,1.1145003 1.718372,1.8565105 l -5.663453,-0.9282411 c 0.223432,-0.607125 0.470571,-1.0690672 0.740369,-1.3979065 0.278258,-0.3372979 0.626928,-0.5723569 1.044286,-0.7072421 z"
               style="fill:#000000;stroke:none;stroke-width:1.07929"
               id="path6805" />
          </g>
        </g>
        <g
           id="g6847"
           style="fill:#000000">
          <g
             style="fill:#000000;fill-opacity:1"
             id="g6815"
             transform="matrix(0.37282438,0,0,0.37282438,185.10109,587.89968)">
            <g
               transform="translate(313.92001,296.28)"
               id="g6813"
               style="fill:#000000">
              <path
                 style="fill:#000000;stroke:none"
                 d="M 4.171875,-14.328125 V -3.875 L 2.515625,0 h -0.625 v -12.65625 z m 0,0"
                 id="path6811" />
            </g>
          </g>
          <g
             style="fill:#000000;fill-opacity:1"
             id="g6821"
             transform="matrix(0.37282438,0,0,0.37282438,186.40055,587.89968)">
            <g
               transform="translate(271.44,296.28)"
               id="g6819"
               style="fill:#000000">
              <path
                 sodipodi:nodetypes="cccccccccccccsccscccccsccccc"
                 style="fill:#000000;stroke:none"
                 d="m 5.046875,1.359375 1.90625,1.296875 -1.1875,1.75 L 3.84375,3.140625 Z m -3.453125,0 L 3.5,2.65625 2.3125,4.40625 0.40625,3.140625 Z m 3.71875,-10.0625 0.671875,3.53125 c 0.0625,0.355469 0.175781,0.601562 0.34375,0.734375 0.164063,0.136719 0.441406,0.203125 0.828125,0.203125 h 0.5 V 0 H 6.953125 c -0.542969,0 -1.042969,-0.242188 -1.5,-0.734375 -0.460937,-0.488281 -0.746094,-1.113281 -0.859375,-1.875 H 4.390625 L 3.625,-0.953125 C 3.445313,-0.554688 3.265625,-0.296875 3.078125,-0.171875 2.890625,-0.0546875 2.550781,0 2.0625,0 H -0.54128484 V -4.234375 H 4.03125 l -0.40625,-2 z"
                 id="path6817" />
            </g>
          </g>
          <g
             style="fill:#000000;fill-opacity:1"
             id="g6827"
             transform="matrix(0.37282438,0,0,0.37282438,184.20078,587.89968)">
            <g
               transform="translate(284.94684,296.28)"
               id="g6825"
               style="fill:#000000">
              <path
                 style="fill:#000000;stroke:none"
                 d="m 8.734375,-6.359375 c -0.148437,-0.195313 -0.3125,-0.34375 -0.5,-0.4375 -0.1875,-0.101563 -0.398437,-0.15625 -0.625,-0.15625 -0.4375,0 -0.84375,0.152344 -1.21875,0.453125 -0.375,0.304687 -0.695312,0.746094 -0.953125,1.328125 0.769531,0.355469 1.546875,0.664062 2.328125,0.921875 0.789063,0.25 1.585938,0.460937 2.390625,0.625 l 0.359375,-0.3125 z M 9.90625,-8.375 l 2.515625,3.515625 c 0.1875,0.261719 0.378906,0.433594 0.578125,0.515625 0.195313,0.074219 0.503906,0.109375 0.921875,0.109375 H 14.1875 V 0 c -0.742187,0 -1.328125,-0.109375 -1.765625,-0.328125 -0.429687,-0.226563 -0.75,-0.582031 -0.96875,-1.0625 h -0.375 l -1.1875,1.859375 c -1.9375,-0.6875 -3.292969,-1.25 -4.0625,-1.6875 C 5.054688,-1.65625 4.628906,-2.082031 4.546875,-2.5 H 4.203125 C 3.660156,-1.664063 3.097656,-1.039063 2.515625,-0.625 1.941406,-0.207031 1.332031,0 0.6875,0 H 0 v -4.234375 h 0.875 c 0.6875,0 1.25,-0.125 1.6875,-0.375 0.4375,-0.25 0.941406,-0.769531 1.515625,-1.5625 C 4.910156,-7.316406 5.675781,-8.113281 6.375,-8.5625 7.070313,-9.019531 7.828125,-9.25 8.640625,-9.25 c 0.226563,0 0.4375,0.070312 0.625,0.203125 C 9.460938,-8.910156 9.675781,-8.6875 9.90625,-8.375 Z m 0,0"
                 id="path6823" />
            </g>
          </g>
          <g
             style="fill:#000000;fill-opacity:1"
             id="g6833"
             transform="matrix(0.37282438,0,0,0.37282438,184.20078,587.89968)">
            <g
               transform="translate(299.13007,296.28)"
               id="g6831"
               style="fill:#000000">
              <path
                 style="fill:#000000;stroke:none"
                 d="m 5.046875,1.359375 1.90625,1.296875 -1.1875,1.75 L 3.84375,3.140625 Z m -3.453125,0 L 3.5,2.65625 2.3125,4.40625 0.40625,3.140625 Z m 3.71875,-10.0625 0.671875,3.53125 c 0.0625,0.355469 0.175781,0.601562 0.34375,0.734375 0.164063,0.136719 0.441406,0.203125 0.828125,0.203125 h 0.5 V 0 H 6.953125 c -0.542969,0 -1.042969,-0.242188 -1.5,-0.734375 -0.460937,-0.488281 -0.746094,-1.113281 -0.859375,-1.875 H 4.390625 L 3.625,-0.953125 C 3.445313,-0.554688 3.265625,-0.296875 3.078125,-0.171875 2.890625,-0.0546875 2.550781,0 2.0625,0 H 0 v -4.234375 h 4.03125 l -0.40625,-2 z m 0,0"
                 id="path6829" />
            </g>
          </g>
          <g
             style="fill:#000000;fill-opacity:1"
             id="g6839"
             transform="matrix(0.37282438,0,0,0.37282438,184.20078,587.89968)">
            <g
               transform="translate(306.78241,296.28)"
               id="g6837"
               style="fill:#000000">
              <path
                 style="fill:#000000;stroke:none"
                 d="M 4.546875,-14.453125 6.640625,-13 5.734375,-11.734375 V -3.875 L 4.53125,-0.859375 c -0.136719,0.34375 -0.277344,0.574219 -0.421875,0.6875 C 3.972656,-0.0546875 3.6875,0 3.25,0 H 0 v -4.234375 h 3.609375 v -7.875 l -0.453125,-0.375 z m 0,0"
                 id="path6835" />
            </g>
          </g>
          <g
             style="fill:#000000;fill-opacity:1"
             id="g6845"
             transform="matrix(0.37282438,0,0,0.37282438,188.30078,587.89968)">
            <g
               transform="translate(251.87999,296.28)"
               id="g6843"
               style="fill:#000000">
              <path
                 sodipodi:nodetypes="cccscccccscccsssccccscscscccccccc"
                 style="fill:#000000;stroke:none"
                 d="m 11.328125,-7.171875 0.703125,1.84375 c 0.132813,0.375 0.328125,0.652344 0.578125,0.828125 0.25,0.179687 0.554688,0.265625 0.921875,0.265625 h 0.390625 l 0.618712,2.6713622 0.51008,1.51977673 L 13.90625,0 C 13.519531,-0.0390625 13.21875,-0.175781 13,-0.40625 12.78125,-0.644531 12.671875,-0.953125 12.671875,-1.328125 V -1.5 h -0.21875 C 12.253906,0.570313 11.535156,2.269531 10.296875,3.59375 9.054688,4.914063 7.570313,5.578125 5.84375,5.578125 c -1.4375,0 -2.625,-0.5 -3.5625,-1.5 C 1.34375,3.078125 0.875,1.800781 0.875,0.25 c 0,-0.625 0.085938,-1.265625 0.265625,-1.921875 0.1875,-0.65625 0.476563,-1.390625 0.875,-2.203125 h 0.53125 C 2.441406,-3.5 2.363281,-3.140625 2.3125,-2.796875 2.257813,-2.460938 2.234375,-2.144531 2.234375,-1.84375 c 0,1.074219 0.351563,1.9296875 1.0625,2.578125 0.71875,0.65625 1.664063,0.984375 2.84375,0.984375 1.6875,0 2.941406,-0.25 3.765625,-0.75 0.820313,-0.5 1.234375,-1.257813 1.234375,-2.28125 0,-0.570313 -0.125,-1.195313 -0.375,-1.875 -0.242187,-0.675781 -0.585937,-1.351563 -1.03125,-2.03125 z M 5.78125,-10.03125 7.875,-8.578125 l -1.359375,2 -2.125,-1.453125 z"
                 id="path6841" />
            </g>
          </g>
        </g>
      </g>
    </g>
  </g>
</svg>
