<?xml version="1.0" encoding="UTF-8" standalone="no"?>
<svg
   viewBox="0 0 568.125 497.228"
   height="497.228"
   width="568.125"
   xml:space="preserve"
   version="1.1"
   id="svg3522"
   sodipodi:docname="Roadwork_sign_israel.svg"
   inkscape:version="1.1.2 (b8e25be833, 2022-02-05)"
   xmlns:inkscape="http://www.inkscape.org/namespaces/inkscape"
   xmlns:sodipodi="http://sodipodi.sourceforge.net/DTD/sodipodi-0.dtd"
   xmlns="http://www.w3.org/2000/svg"
   xmlns:svg="http://www.w3.org/2000/svg"
   xmlns:rdf="http://www.w3.org/1999/02/22-rdf-syntax-ns#"
   xmlns:cc="http://creativecommons.org/ns#"
   xmlns:dc="http://purl.org/dc/elements/1.1/"><sodipodi:namedview
     id="namedview11"
     pagecolor="#ffffff"
     bordercolor="#666666"
     borderopacity="1.0"
     inkscape:pageshadow="2"
     inkscape:pageopacity="0.0"
     inkscape:pagecheckerboard="true"
     showgrid="false"
     showguides="true"
     inkscape:guide-bbox="true"
     inkscape:snap-intersection-paths="true"
     inkscape:snap-smooth-nodes="true"
     inkscape:snap-bbox="true"
     inkscape:snap-bbox-edge-midpoints="true"
     inkscape:bbox-nodes="true"
     inkscape:zoom="1"
     inkscape:cx="374.5"
     inkscape:cy="322.5"
     inkscape:window-width="1920"
     inkscape:window-height="1001"
     inkscape:window-x="-9"
     inkscape:window-y="-9"
     inkscape:window-maximized="1"
     inkscape:current-layer="svg3522"
     width="568.125px"
     inkscape:snap-global="true"
     inkscape:object-paths="false" /><metadata
     id="metadata3528"><rdf:RDF><cc:Work
         rdf:about=""><dc:format>image/svg+xml</dc:format><dc:type
           rdf:resource="http://purl.org/dc/dcmitype/StillImage" /></cc:Work></rdf:RDF></metadata><defs
     id="defs3526" /><path
     id="rect2419"
     style="display:inline;fill:#ffffff;fill-opacity:1;stroke-width:1.41526;stroke-linecap:round"
     d="M 284.06233,42.768626 519.25791,454.45937 H 48.866745 Z"
     sodipodi:nodetypes="cccc" /><path
     id="path1287-2"
     style="display:inline;fill:#c0111e;fill-opacity:1;fill-rule:nonzero;stroke:none;stroke-width:0.859147"
     d="M 284.06233,4.5425685e-4 C 277.94091,-0.04336226 271.21873,3.083666 267.92647,8.9396153 L 2.1975383,469.35001 C 0.66396013,472.48418 0.01976039,475.20891 0,478.32676 0,489.21753 8.9379258,497.228 18.874395,497.228 H 549.25027 c 9.93647,0 18.87439,-8.01047 18.87439,-18.90124 -0.0197,-3.11785 -0.66396,-5.84258 -2.19753,-8.97675 L 300.19819,8.9396153 C 296.90594,3.083666 290.18376,-0.04336226 284.06233,4.5425685e-4 Z m 0,90.77454274315 L 487.1272,442.24256 H 80.997471 Z"
     sodipodi:nodetypes="cccccccccccccc" /><path
     d="m 369.49311,320.88181 c 4.90356,-11.77769 -3.49229,-20.98599 -12.40833,-30.11086 l -17.80983,-22.09457 c 0,0 -2.51411,-7.28813 -4.87857,-10.2366 -1.81013,-2.25717 -6.83417,-5.3474 -6.83417,-5.3474 l -6.8029,-2.83236 -21.12317,-8.79452 -9.28723,-3.86661 c -3.76759,-1.56867 -8.06662,0.20297 -9.63524,3.97057 l -0.3976,0.95491 -21.50371,-8.95289 c -2.34205,-0.97511 -5.01303,0.12265 -5.98815,2.46466 l -4.03854,9.7 c -0.97509,2.34204 0.12623,5.01455 2.46828,5.98963 l 21.50369,8.95292 -45.58814,109.49667 -21.50373,-8.95291 c -2.342,-0.97509 -5.01301,0.12264 -5.98812,2.46467 l -4.03854,9.69999 c -0.97507,2.34203 0.12762,5.01095 2.46975,5.98605 l 21.50371,8.95293 -0.37963,0.91184 c -1.56863,3.76764 0.20295,8.06665 3.97058,9.63527 l 9.28717,3.86664 21.12317,8.79447 6.80295,2.83237 c 0,0 5.78984,1.19908 8.68599,0.89949 3.67039,-0.37968 10.54478,-3.37288 10.54478,-3.37288 l 28.30822,-3.12111 c 12.68086,-1.39852 25.20736,-0.63067 30.11091,-12.40835 z m -6.56237,-7.0118 -34.9493,83.94348 c -1.7434,4.18746 -6.1702,4.24411 -10.70307,4.41062 l -26.65399,0.97918 c -4.53284,0.16645 -6.60756,-2.39109 -4.86415,-6.57854 l 47.03949,-112.98246 c 1.74337,-4.18747 5.15564,-4.63708 8.09551,-1.18292 l 17.62488,20.70757 c 2.93992,3.4542 6.154,6.51561 4.41063,10.70307 z m -40.12851,-45.61146 -9.1e-4,0.002 c -2.24114,5.38016 -8.41856,7.92578 -13.79953,5.6866 -5.38236,-2.23972 -7.92997,-8.41868 -5.69023,-13.80103 2.24035,-5.38379 8.42169,-7.93103 13.80466,-5.68872 5.38013,2.24114 7.9258,8.4186 5.68661,13.79955 z m -54.97454,132.04144 c -2.23974,5.38237 -8.4187,7.92998 -13.80104,5.69022 -5.38375,-2.24032 -7.93104,-8.42171 -5.68876,-13.80465 2.24176,-5.38155 8.42163,-7.92684 13.80319,-5.68513 5.38013,2.24117 7.92578,8.4186 5.68661,13.79956 z m 37.73837,-98.99931 -25.48968,61.22276 -16.03932,0.65564 c -4.22505,0.17281 -5.71742,-3.91188 -4.09176,-7.81584 l 25.36263,-60.91765 c 1.62535,-3.90383 5.61318,-6.28492 8.81074,-3.51777 z m -10.25216,-49.42344 -58.47948,140.45983 -10.92056,-4.54668 58.47948,-140.45984 z"
     style="fill:#000000;fill-opacity:1;stroke-width:1.99099"
     id="rect1514" /></svg>
