<?xml version="1.0" encoding="UTF-8" standalone="no"?>
<svg
   xmlns:dc="http://purl.org/dc/elements/1.1/"
   xmlns:cc="http://creativecommons.org/ns#"
   xmlns:rdf="http://www.w3.org/1999/02/22-rdf-syntax-ns#"
   xmlns:svg="http://www.w3.org/2000/svg"
   xmlns="http://www.w3.org/2000/svg"
   xmlns:sodipodi="http://sodipodi.sourceforge.net/DTD/sodipodi-0.dtd"
   xmlns:inkscape="http://www.inkscape.org/namespaces/inkscape"
   version="1.1"
   id="Layer_1"
   x="0px"
   y="0px"
   width="441.73511"
   height="49.583584"
   viewBox="0 0 441.73511 49.583584"
   enable-background="new 0 0 610 600"
   xml:space="preserve"
   sodipodi:docname="Israel_road_sign_404.svg"
   inkscape:version="1.0 (4035a4fb49, 2020-05-01)"><metadata
   id="metadata8642"><rdf:RDF><cc:Work
       rdf:about=""><dc:format>image/svg+xml</dc:format><dc:type
         rdf:resource="http://purl.org/dc/dcmitype/StillImage" /><dc:title></dc:title></cc:Work></rdf:RDF></metadata><defs
   id="defs8640"><path
     d="M 500,-207.10678 V 207.10678 L 207.10678,500 H -207.10678 L -500,207.10678 V -207.10678 L -207.10678,-500 h 414.21356 z"
     id="Oct" /><pattern
     y="0"
     x="0"
     height="6"
     width="6"
     patternUnits="userSpaceOnUse"
     id="EMFhbasepattern" /><pattern
     y="0"
     x="0"
     height="6"
     width="6"
     patternUnits="userSpaceOnUse"
     id="EMFhbasepattern-0" /><pattern
     id="EMFhbasepattern-1"
     patternUnits="userSpaceOnUse"
     width="6"
     height="6"
     x="0"
     y="0" /></defs><sodipodi:namedview
   pagecolor="#ffffff"
   bordercolor="#666666"
   borderopacity="1"
   objecttolerance="10"
   gridtolerance="10"
   guidetolerance="10"
   inkscape:pageopacity="0"
   inkscape:pageshadow="2"
   inkscape:window-width="1920"
   inkscape:window-height="1001"
   id="namedview8638"
   showgrid="false"
   inkscape:zoom="2.2250294"
   inkscape:cx="232.09259"
   inkscape:cy="80.97214"
   inkscape:window-x="-9"
   inkscape:window-y="-9"
   inkscape:window-maximized="1"
   inkscape:current-layer="Layer_1"
   inkscape:document-rotation="0"><sodipodi:guide
     position="-745.51898,-200.54303"
     orientation="0,610"
     id="guide8644"
     inkscape:locked="false" /><sodipodi:guide
     position="-135.51898,-200.54303"
     orientation="-600,0"
     id="guide8646"
     inkscape:locked="false" /><sodipodi:guide
     position="-135.51898,399.45697"
     orientation="0,-610"
     id="guide8648"
     inkscape:locked="false" /><sodipodi:guide
     position="-745.51898,399.45697"
     orientation="600,0"
     id="guide8650"
     inkscape:locked="false" /><inkscape:grid
     type="xygrid"
     id="grid56807"
     originx="-739"
     originy="-346.41639" /></sodipodi:namedview>


<g
   transform="matrix(2.3361364,0,0,2.3361364,-59.201894,104.06301)"
   style="opacity:1;stroke-width:0.428057"
   id="g7464"><path
     id="path7466"
     d="m 25.341797,-44.544922 v 0.5 0.5 3.125 0.5 0.5 6 0.5 0.5 6 0.5 0.5 2.09961 h 4.900391 0.5 0.5 6 0.5 0.5 6 0.5 0.5 6 0.5 0.5 6 0.5 0.5 6 0.5 0.5 6 0.5 0.5 6 0.5 0.5 6 0.5 0.5 6 0.5 0.5 6.000002 0.5 0.5 6 0.5 0.5 6 0.5 0.5 6 0.5 0.5 6 0.5 0.5 6 0.5 0.5 6 0.5 0.5 6 0.5 0.5 6 0.5 0.5 6 0.5 0.5 6 0.5 0.5 6 0.5 0.5 6 0.5 0.5 6 0.5 0.5 6 0.5 0.5 6 0.5 0.5 6 0.5 0.5 1.1875 v -5.810547 -0.5 -0.5 -6 -0.5 -0.5 -6 -0.5 h -0.0879 v -0.914063 h -0.5 -6 -0.5 -0.5 -6 -0.5 -0.5 -6 -0.5 -0.5 -6 -0.5 -0.5 -6 -0.5 -0.5 -6 -0.5 -0.5 -6 -0.5 -0.5 -6 -0.5 -0.5 -6 -0.5 -0.5 -6 -0.5 -0.5 -6 -0.5 -0.5 -6 -0.5 -0.5 -6 -0.5 -0.5 -6 -0.5 -0.5 -6 -0.5 -0.5 -6 -0.5 -0.5 -6.000003 -0.5 -0.5 -6 -0.5 -0.5 -6 -0.5 -0.5 -6 -0.5 -0.5 -6 -0.5 -0.5 -6 -0.5 -0.5 -6 -0.5 -0.5 -6 -0.5 -0.5 -6 -0.5 -0.5 -6 -0.5 -0.5 -5.5 -0.5 z m 1,1 h 5.5 0.5 0.5 6 0.5 0.5 6 0.5 0.5 6 0.5 0.5 6 0.5 0.5 6 0.5 0.5 6 0.5 0.5 6 0.5 0.5 6 0.5 0.5 6 0.5 0.5 6.000003 0.5 0.5 6 0.5 0.5 6 0.5 0.5 6 0.5 0.5 6 0.5 0.5 6 0.5 0.5 6 0.5 0.5 6 0.5 0.5 6 0.5 0.5 6 0.5 0.5 6 0.5 0.5 6 0.5 0.5 6 0.5 0.5 6 0.5 0.5 6 0.5 0.5 6 0.5 0.5 5.58789 v 0.414063 6 0.5 0.5 6 0.5 0.5 4.810547 h -0.1875 -0.5 -0.5 -6 -0.5 -0.5 -6 -0.5 -0.5 -6 -0.5 -0.5 -6 -0.5 -0.5 -6 -0.5 -0.5 -6 -0.5 -0.5 -6 -0.5 -0.5 -6 -0.5 -0.5 -6 -0.5 -0.5 -6 -0.5 -0.5 -6 -0.5 -0.5 -6 -0.5 -0.5 -6 -0.5 -0.5 -6 -0.5 -0.5 -6 -0.5 -0.5 -6 -0.5 -0.5 -6.000002 -0.5 -0.5 -6 -0.5 -0.5 -6 -0.5 -0.5 -6 -0.5 -0.5 -6 -0.5 -0.5 -6 -0.5 -0.5 -6 -0.5 -0.5 -6 -0.5 -0.5 -6 -0.5 -0.5 -6 -0.5 -0.5 -3.900391 v -1.09961 -0.5 -0.5 -6 -0.5 -0.5 -6 -0.5 -0.5 z"
     style="color:#000000;font-style:normal;font-variant:normal;font-weight:normal;font-stretch:normal;font-size:medium;line-height:normal;font-family:sans-serif;font-variant-ligatures:normal;font-variant-position:normal;font-variant-caps:normal;font-variant-numeric:normal;font-variant-alternates:normal;font-variant-east-asian:normal;font-feature-settings:normal;font-variation-settings:normal;text-indent:0;text-align:start;text-decoration:none;text-decoration-line:none;text-decoration-style:solid;text-decoration-color:#000000;letter-spacing:normal;word-spacing:normal;text-transform:none;writing-mode:lr-tb;direction:ltr;text-orientation:mixed;dominant-baseline:auto;baseline-shift:baseline;text-anchor:start;white-space:normal;shape-padding:0;shape-margin:0;inline-size:0;clip-rule:nonzero;display:inline;overflow:visible;visibility:visible;isolation:auto;mix-blend-mode:normal;color-interpolation:sRGB;color-interpolation-filters:linearRGB;solid-color:#000000;solid-opacity:1;vector-effect:none;fill:#000000;fill-opacity:1;fill-rule:evenodd;stroke:none;stroke-width:0.428057;stroke-linecap:square;stroke-linejoin:miter;stroke-miterlimit:4;stroke-dasharray:2.56834, 0.428057;stroke-dashoffset:0;stroke-opacity:1;paint-order:markers stroke fill;color-rendering:auto;image-rendering:auto;shape-rendering:auto;text-rendering:auto;enable-background:accumulate;stop-color:#000000;stop-opacity:1" /><path
     id="path7468"
     d="M 25.842356,-44.044361 H 213.92976 V -23.81991 H 25.842356 Z"
     style="color:#000000;font-style:normal;font-variant:normal;font-weight:normal;font-stretch:normal;font-size:medium;line-height:normal;font-family:sans-serif;font-variant-ligatures:normal;font-variant-position:normal;font-variant-caps:normal;font-variant-numeric:normal;font-variant-alternates:normal;font-variant-east-asian:normal;font-feature-settings:normal;font-variation-settings:normal;text-indent:0;text-align:start;text-decoration:none;text-decoration-line:none;text-decoration-style:solid;text-decoration-color:#000000;letter-spacing:normal;word-spacing:normal;text-transform:none;writing-mode:lr-tb;direction:ltr;text-orientation:mixed;dominant-baseline:auto;baseline-shift:baseline;text-anchor:start;white-space:normal;shape-padding:0;shape-margin:0;inline-size:0;clip-rule:nonzero;display:inline;overflow:visible;visibility:visible;isolation:auto;mix-blend-mode:normal;color-interpolation:sRGB;color-interpolation-filters:linearRGB;solid-color:#000000;solid-opacity:1;vector-effect:none;fill:#ffffff;fill-opacity:1;fill-rule:evenodd;stroke:none;stroke-width:0.428057;stroke-linecap:square;stroke-linejoin:miter;stroke-miterlimit:4;stroke-dasharray:2.56834, 0.428057;stroke-dashoffset:0;stroke-opacity:1;paint-order:markers stroke fill;color-rendering:auto;image-rendering:auto;shape-rendering:auto;text-rendering:auto;enable-background:accumulate;stop-color:#000000;stop-opacity:1" /></g><path
   d="M 1.1680678,1.1680687 V 48.415517 H 89.156454 V 1.1680687 Z m 175.6026422,0 V 48.415517 h 87.71915 V 1.1680687 Z m 175.69842,0 V 48.415517 h 88.0979 V 1.1680687 Z"
   style="fill:#c0111e;fill-opacity:1;fill-rule:evenodd;stroke:none;stroke-width:1;stroke-linecap:square;stroke-dasharray:6, 1;stroke-opacity:1;paint-order:markers stroke fill"
   id="rect7461" /></svg>
