<?xml version="1.0" encoding="UTF-8" standalone="no"?>
<svg
   xmlns:dc="http://purl.org/dc/elements/1.1/"
   xmlns:cc="http://creativecommons.org/ns#"
   xmlns:rdf="http://www.w3.org/1999/02/22-rdf-syntax-ns#"
   xmlns:svg="http://www.w3.org/2000/svg"
   xmlns="http://www.w3.org/2000/svg"
   xmlns:sodipodi="http://sodipodi.sourceforge.net/DTD/sodipodi-0.dtd"
   xmlns:inkscape="http://www.inkscape.org/namespaces/inkscape"
   version="1.1"
   id="svg10"
   width="300.45367"
   height="263.01648"
   viewBox="0 0 300.45367 263.01647"
   sodipodi:docname="125.svg.2022_06_03_00_46_07.1.svg"
   inkscape:version="1.0 (4035a4fb49, 2020-05-01)">
  <metadata
     id="metadata16">
    <rdf:RDF>
      <cc:Work
         rdf:about="">
        <dc:format>image/svg+xml</dc:format>
        <dc:type
           rdf:resource="http://purl.org/dc/dcmitype/StillImage" />
        <dc:title />
      </cc:Work>
    </rdf:RDF>
  </metadata>
  <defs
     id="defs14" />
  <sodipodi:namedview
     inkscape:document-rotation="0"
     pagecolor="#ffffff"
     bordercolor="#666666"
     borderopacity="1"
     objecttolerance="10"
     gridtolerance="10"
     guidetolerance="10"
     inkscape:pageopacity="0"
     inkscape:pageshadow="2"
     inkscape:window-width="1920"
     inkscape:window-height="1001"
     id="namedview12"
     showgrid="false"
     inkscape:zoom="1.9563288"
     inkscape:cx="258.5807"
     inkscape:cy="197.4146"
     inkscape:window-x="-9"
     inkscape:window-y="-9"
     inkscape:window-maximized="1"
     inkscape:current-layer="g726" />
  <g
     inkscape:groupmode="layer"
     inkscape:label="Image"
     id="g18"
     transform="translate(-104.60117,48.850154)">
    <g
       transform="matrix(-1,0,0,1,509.65602,0)"
       id="g726">
      <g
         id="g1661"
         transform="matrix(-1,0,0,1,509.65602,0)">
        <g
           transform="matrix(-1,0,0,1,509.65602,0)"
           id="g144">
          <g
             id="g918"
             transform="matrix(-1,0,0,1,509.65602,0)">
            <path
               sodipodi:nodetypes="cccc"
               d="M 254.828,-26.039193 379.02374,191.35535 h -248.3915 z"
               style="display:inline;fill:#ffffff;fill-opacity:1;stroke-width:0.747333;stroke-linecap:round"
               id="path632" />
            <path
               sodipodi:nodetypes="cccccccccccccc"
               d="m 254.828,-48.623073 c -3.23244,-0.02323 -6.78211,1.628093 -8.52059,4.720373 L 105.98843,199.21842 c -0.80981,1.65498 -1.14999,3.09381 -1.16042,4.74018 0,5.75092 4.7197,9.98089 9.96668,9.98089 H 394.8613 c 5.24696,0 9.96671,-4.22997 9.96671,-9.98089 -0.0106,-1.64637 -0.35063,-3.0852 -1.16045,-4.74018 L 263.34858,-43.9027 c -1.73848,-3.09228 -5.28814,-4.743501 -8.52058,-4.720373 z m 0,47.9338065 L 362.05702,184.90422 H 147.59897 Z"
               style="display:inline;fill:#c0111e;fill-opacity:1;fill-rule:nonzero;stroke:none;stroke-width:0.453675;stroke-opacity:1"
               id="path634" />
          </g>
        </g>
      </g>
      <path
         id="rect3631"
         style="opacity:1;fill:#000000;fill-opacity:1;stroke:none;stroke-width:3.4311;paint-order:stroke fill markers"
         d="m 312.15943,104.03339 v 26.41999 h -43.84486 l 3.4e-4,49.11792 h -26.41998 l -3.4e-4,-49.11792 h -43.84488 v -26.41999 z"
         sodipodi:nodetypes="ccccccccc" />
    </g>
  </g>
</svg>
