<?xml version="1.0" encoding="UTF-8" standalone="no"?>
<svg
   xmlns:dc="http://purl.org/dc/elements/1.1/"
   xmlns:cc="http://creativecommons.org/ns#"
   xmlns:rdf="http://www.w3.org/1999/02/22-rdf-syntax-ns#"
   xmlns:svg="http://www.w3.org/2000/svg"
   xmlns="http://www.w3.org/2000/svg"
   xmlns:sodipodi="http://sodipodi.sourceforge.net/DTD/sodipodi-0.dtd"
   xmlns:inkscape="http://www.inkscape.org/namespaces/inkscape"
   inkscape:version="1.0 (4035a4fb49, 2020-05-01)"
   sodipodi:docname="Israel_road_sign_410.svg"
   xml:space="preserve"
   enable-background="new 0 0 610 600"
   viewBox="0 0 592.15802 592.15802"
   height="592.15802"
   width="592.15802"
   y="0px"
   x="0px"
   id="Layer_1"
   version="1.1"><metadata
   id="metadata8642"><rdf:RDF><cc:Work
       rdf:about=""><dc:format>image/svg+xml</dc:format><dc:type
         rdf:resource="http://purl.org/dc/dcmitype/StillImage" /><dc:title></dc:title></cc:Work></rdf:RDF></metadata><defs
   id="defs8640"><path
     id="Oct"
     d="M500-207.10678V207.10678L207.10678,500H-207.10678L-500,207.10678V-207.10678L-207.10678-500H207.10678Z" /></defs><sodipodi:namedview
   inkscape:document-rotation="0"
   inkscape:current-layer="Layer_1"
   inkscape:window-maximized="1"
   inkscape:window-y="-9"
   inkscape:window-x="-9"
   inkscape:cy="118.00177"
   inkscape:cx="-13.02208"
   inkscape:zoom="0.47824442"
   showgrid="false"
   id="namedview8638"
   inkscape:window-height="1001"
   inkscape:window-width="1920"
   inkscape:pageshadow="2"
   inkscape:pageopacity="0"
   guidetolerance="10"
   gridtolerance="10"
   objecttolerance="10"
   borderopacity="1"
   bordercolor="#666666"
   pagecolor="#ffffff"><sodipodi:guide
     inkscape:locked="false"
     id="guide8644"
     orientation="0,610"
     position="-6.5189819,-4.3849792" /><sodipodi:guide
     inkscape:locked="false"
     id="guide8646"
     orientation="-600,0"
     position="603.48102,-4.3849792" /><sodipodi:guide
     inkscape:locked="false"
     id="guide8648"
     orientation="0,-610"
     position="603.48102,595.61502" /><sodipodi:guide
     inkscape:locked="false"
     id="guide8650"
     orientation="600,0"
     position="-6.5189819,595.61502" /></sodipodi:namedview>
<circle
   style="fill:#ffffff;stroke:#000000;stroke-opacity:0.81568629"
   id="circle8633"
   r="292.48499"
   cy="296.07901"
   cx="296.078" />
<circle
   style="fill:none;stroke:#c0111e;stroke-width:70;stroke-opacity:1"
   id="circle8635"
   r="261.07901"
   cy="296.07901"
   cx="296.07901" />
<path
   id="circle4136"
   style="fill:#000000;fill-opacity:1;stroke-width:1"
   d="m 391.39449,148.53487 c -11.84014,-1.6e-4 -21.43852,9.59822 -21.43834,21.43836 -1.6e-4,11.84014 9.5982,21.4385 21.43834,21.43833 11.84014,1.8e-4 21.43851,-9.59819 21.43836,-21.43833 1.7e-4,-11.84015 -9.59821,-21.43853 -21.43836,-21.43836 z m 3.30993,49.5651 c -2.82476,-0.0712 -5.68998,0.32575 -8.05533,1.50706 -20.55565,10.26596 -53.74527,28.54442 -61.68701,32.91572 -12.47462,6.86393 -4.05384,22.14432 6.47976,15.73391 7.75943,-4.72097 40.54448,-21.83068 40.54448,-21.83068 v 22.14517 c 0,0 -30.25091,13.4122 -34.93033,15.90828 -4.67827,2.49724 -9.98042,6.23552 -11.85104,10.9138 -1.87176,4.67825 -17.15552,47.09754 -21.83379,60.50688 -4.67828,13.41049 12.47551,16.52976 16.98875,6.43929 4.51557,-10.09163 21.99769,-46.04688 23.24746,-49.78927 1.24977,-3.7424 5.61276,-8.41985 10.29102,-9.35689 4.67943,-0.93476 40.36167,-3.51548 48.72879,-13.09656 8.36711,-9.58108 6.92814,-13.109 6.92814,-13.10898 l 1.72996,-47.81515 c 0,0 -4.37901,-8.38544 -8.77461,-9.77103 -2.1978,-0.69281 -4.98146,-1.23037 -7.80625,-1.30155 z m -109.17209,33.87165 c -3.03524,-0.0799 -6.16218,4.20811 -4.73604,6.34587 1.75406,2.63224 12.00359,12.54228 12.00359,12.54228 l -12.69175,8.75594 -1.8244,-9.92474 H 119.30366 l 19.82517,84.08865 c 0,0 24.15319,-13.24937 44.74495,-3.09197 16.12929,7.9556 27.64098,32.33034 27.64098,32.33034 h 88.38454 l -17.48697,-91.37376 16.80194,-13.90612 c 0,0 8.81829,8.62152 13.02802,12.15619 6.265,5.25987 10.15028,-4.51381 7.89655,-6.51713 -2.25604,-2.00334 -29.1963,-27.56573 -32.57631,-30.57418 -0.63377,-0.56408 -1.32976,-0.81296 -2.0302,-0.83137 z m 120.4253,50.59886 c -40.56377,7.1e-4 -73.44703,32.88397 -73.44775,73.44774 -0.001,40.56499 32.88275,73.45015 73.44775,73.45087 40.56499,-7.2e-4 73.44876,-32.88588 73.44775,-73.45087 -7.2e-4,-40.56377 -32.88399,-73.44703 -73.44775,-73.44774 z m -244.50926,50.62065 c -25.78402,0.0762 -46.64549,21.00033 -46.64437,46.78449 7.1e-4,25.83755 20.94695,46.78237 46.78449,46.78137 25.83634,-7.2e-4 46.78064,-20.94503 46.78137,-46.78137 0.001,-25.83755 -20.94382,-46.78378 -46.78137,-46.78449 -0.0467,-7e-5 -0.0934,-7e-5 -0.14014,0 z"
   sodipodi:nodetypes="cccccssccccccccscsccssscccccccccccccsscccccscccsss" /></svg>
