<?xml version="1.0" encoding="UTF-8" standalone="no"?>
<svg
   viewBox="0 0 568.125 497.228"
   height="497.228"
   width="568.125"
   xml:space="preserve"
   version="1.1"
   id="svg3522"
   sodipodi:docname="Tram_sign_israel.svg"
   inkscape:version="1.1.2 (b8e25be833, 2022-02-05)"
   xmlns:inkscape="http://www.inkscape.org/namespaces/inkscape"
   xmlns:sodipodi="http://sodipodi.sourceforge.net/DTD/sodipodi-0.dtd"
   xmlns="http://www.w3.org/2000/svg"
   xmlns:svg="http://www.w3.org/2000/svg"
   xmlns:rdf="http://www.w3.org/1999/02/22-rdf-syntax-ns#"
   xmlns:cc="http://creativecommons.org/ns#"
   xmlns:dc="http://purl.org/dc/elements/1.1/"><sodipodi:namedview
     id="namedview11"
     pagecolor="#ffffff"
     bordercolor="#666666"
     borderopacity="1.0"
     inkscape:pageshadow="2"
     inkscape:pageopacity="0.0"
     inkscape:pagecheckerboard="true"
     showgrid="false"
     showguides="true"
     inkscape:guide-bbox="true"
     inkscape:snap-intersection-paths="true"
     inkscape:snap-smooth-nodes="true"
     inkscape:snap-bbox="true"
     inkscape:snap-bbox-edge-midpoints="true"
     inkscape:bbox-nodes="true"
     inkscape:zoom="1"
     inkscape:cx="362.5"
     inkscape:cy="277.5"
     inkscape:window-width="1920"
     inkscape:window-height="1001"
     inkscape:window-x="-9"
     inkscape:window-y="-9"
     inkscape:window-maximized="1"
     inkscape:current-layer="svg3522"
     width="568.125px"
     inkscape:snap-global="false" /><metadata
     id="metadata3528"><rdf:RDF><cc:Work
         rdf:about=""><dc:format>image/svg+xml</dc:format><dc:type
           rdf:resource="http://purl.org/dc/dcmitype/StillImage" /></cc:Work></rdf:RDF></metadata><defs
     id="defs3526" /><path
     id="rect2419"
     style="display:inline;fill:#ffffff;fill-opacity:1;stroke-width:1.41526;stroke-linecap:round"
     d="M 284.06233,42.768626 519.25791,454.45937 H 48.866745 Z"
     sodipodi:nodetypes="cccc" /><path
     id="path1287-2"
     style="display:inline;fill:#c0111e;fill-opacity:1;fill-rule:nonzero;stroke:none;stroke-width:0.859147"
     d="M 284.06233,4.5425685e-4 C 277.94091,-0.04336226 271.21873,3.083666 267.92647,8.9396153 L 2.1975383,469.35001 C 0.66396013,472.48418 0.01976039,475.20891 0,478.32676 0,489.21753 8.9379258,497.228 18.874395,497.228 H 549.25027 c 9.93647,0 18.87439,-8.01047 18.87439,-18.90124 -0.0197,-3.11785 -0.66396,-5.84258 -2.19753,-8.97675 L 300.19819,8.9396153 C 296.90594,3.083666 290.18376,-0.04336226 284.06233,4.5425685e-4 Z M 283.78714,91.251306 l 0.27519,0.476559 0.2752,-0.476559 L 487.1272,442.24256 H 80.997471 Z"
     sodipodi:nodetypes="cccccccccccccccc" /><path
     id="path1578"
     style="fill:#000000;stroke-width:0.187643;fill-opacity:1"
     d="M 245.20117 235.59766 L 190.24023 290.55664 L 190.24023 368.28125 L 245.20117 423.24023 L 322.92383 423.24023 L 377.88477 368.28125 L 377.88477 290.55664 L 322.92383 235.59766 L 245.20117 235.59766 z M 246.82031 239.50781 L 321.30469 239.50781 L 373.97461 292.17578 L 373.97461 366.66211 L 321.30469 419.33203 L 246.82031 419.33203 L 194.15039 366.66211 L 194.15039 292.17578 L 246.82031 239.50781 z " /><path
     id="use15"
     style="fill:#000000;stroke-width:0.156369;fill-opacity:1"
     d="M 251.67773 251.23438 L 205.87695 297.03516 L 205.87695 361.80469 L 251.67773 407.60352 L 316.44727 407.60352 L 362.24609 361.80469 L 362.24609 297.03516 L 316.44727 251.23438 L 251.67773 251.23438 z M 283.97852 272.77344 C 287.88175 272.72766 288.68967 277.38099 288.29492 277.30469 L 288.38281 286.68359 C 289.14073 287.25956 289.13075 287.91825 289.88867 287.21875 C 290.57559 286.81534 290.14145 284.79723 290.56836 281.84961 C 291.08262 278.29898 298.55551 278.45912 298.33398 282.54688 L 298.63672 285.99609 C 298.8519 286.4297 300.31598 327.20457 301.36914 329.00977 C 304.02397 333.56023 306.55474 328.82345 306.27539 328.87305 C 306.27539 328.87305 306.64715 318.73749 311.11719 310.13477 C 315.58722 301.53201 321.48438 305.18555 321.48438 305.18555 L 319.71289 311.43164 C 319.71289 311.43164 317.7773 318.2167 319 330.11133 C 320.1947 341.7337 319.50505 353.77139 308.81836 361.65625 C 305.13785 364.37181 302.11997 366.88765 301.17969 369.74805 C 298.67103 377.37943 301.31321 383.9706 299.87891 386.14062 L 268.54102 385.98828 L 268.25586 375.25977 C 268.25295 375.24682 270.08868 363.19603 264.8457 357.71289 C 258.56466 351.14408 258.41297 343.09856 258.45117 342.94336 C 258.45117 342.94336 260.22164 295.78052 261.29297 290.05469 C 262.84183 287.75712 266.10205 287.03498 267.40625 290.92773 C 267.36205 291.47363 267.34 292.23686 267.4043 293.20898 C 267.54645 295.3549 268.82422 294.3457 268.82422 294.3457 C 268.82422 294.3457 268.90803 293.38776 268.92383 291.04883 C 268.93442 289.48408 268.74584 287.30085 269.10938 284.37305 C 270.07271 279.22943 275.29075 279.98387 276.66797 281.8457 C 277.77716 283.34513 277.51741 285.70663 277.91992 288.16016 C 278.9147 289.17001 279.52539 288.04492 279.52539 288.04492 C 279.56399 284.6032 279.2547 281.53177 279.3418 277.55664 C 279.51835 274.29152 280.96884 272.80874 283.97852 272.77344 z " /></svg>
