<?xml version="1.0" encoding="UTF-8" standalone="no"?>
<svg
   xmlns:dc="http://purl.org/dc/elements/1.1/"
   xmlns:cc="http://creativecommons.org/ns#"
   xmlns:rdf="http://www.w3.org/1999/02/22-rdf-syntax-ns#"
   xmlns:svg="http://www.w3.org/2000/svg"
   xmlns="http://www.w3.org/2000/svg"
   xmlns:sodipodi="http://sodipodi.sourceforge.net/DTD/sodipodi-0.dtd"
   xmlns:inkscape="http://www.inkscape.org/namespaces/inkscape"
   inkscape:version="1.0 (4035a4fb49, 2020-05-01)"
   sodipodi:docname="637.svg"
   viewBox="0 0 350 350.0011"
   height="350.0011"
   width="350"
   id="svg7353"
   version="1.1">
  <metadata
     id="metadata7359">
    <rdf:RDF>
      <cc:Work
         rdf:about="">
        <dc:format>image/svg+xml</dc:format>
        <dc:type
           rdf:resource="http://purl.org/dc/dcmitype/StillImage" />
        <dc:title></dc:title>
      </cc:Work>
    </rdf:RDF>
  </metadata>
  <defs
     id="defs7357" />
  <sodipodi:namedview
     inkscape:current-layer="g7361"
     inkscape:window-maximized="1"
     inkscape:window-y="-9"
     inkscape:window-x="-9"
     inkscape:cy="265.35063"
     inkscape:cx="1133.5689"
     inkscape:zoom="0.48908219"
     showgrid="false"
     id="namedview7355"
     inkscape:window-height="1001"
     inkscape:window-width="1920"
     inkscape:pageshadow="2"
     inkscape:pageopacity="0"
     guidetolerance="10"
     gridtolerance="10"
     objecttolerance="10"
     borderopacity="1"
     bordercolor="#666666"
     pagecolor="#ffffff" />
  <g
     transform="translate(-27.325301,-43.734)"
     id="g7361"
     inkscape:label="Image"
     inkscape:groupmode="layer">
    <path
       id="path3323"
       style="opacity:1;fill:#070fdb;fill-opacity:1;stroke:none;stroke-width:20.9762;stroke-miterlimit:4;stroke-dasharray:none;stroke-opacity:1"
       d="M 377.3253,43.734 V 393.7351 H 27.325301 V 43.734 Z"
       inkscape:connector-curvature="0"
       sodipodi:nodetypes="ccccc" />
    <path
       id="path3325"
       style="opacity:1;fill:#ffffff;fill-opacity:1;stroke:none;stroke-width:18.5158;stroke-miterlimit:4;stroke-dasharray:none;stroke-opacity:1"
       d="M 369.09413,51.963391 V 385.50103 H 35.556484 V 51.963391 Z m -9.65764,9.657639 H 45.209053 V 375.84848 H 359.43649 Z" />
    <path
       d="m 138.31826,109.11214 v 38.12181 h 25.95121 v -38.12181 z m 31.47423,0 v 7.85844 30.26337 l 25.9512,15.57126 43.08661,25.85412 v 8.25757 46.41174 8.25757 l -43.08661,25.85412 -25.9512,15.57126 v 30.26337 7.85845 h 25.9512 v -23.4297 l 43.08661,-25.85143 25.9512,-15.57126 v -22.95238 -7.31368 -31.78436 -7.3137 -22.95238 l -25.9512,-15.57125 -43.08661,-25.85143 v -23.4297 z m -31.47423,59.82557 v 19.77557 h 25.95121 v -19.77557 z m 0,41.47931 v 19.22003 h 25.95121 v -19.22003 z m 0,40.92109 v 19.96972 h 25.95121 v -19.96972 z m 0,41.67348 v 38.68545 h 25.95121 v -38.68545 z"
       style="opacity:1;fill:#ffffff;stroke-width:0.340523"
       id="rect7365" />
  </g>
</svg>
