<?xml version="1.0" encoding="UTF-8" standalone="no"?>
<svg
   viewBox="0 0 568.125 497.228"
   height="497.228"
   width="568.125"
   xml:space="preserve"
   version="1.1"
   id="svg3522"
   sodipodi:docname="Roadwork_sign_israel.svg"
   inkscape:version="1.1.2 (b8e25be833, 2022-02-05)"
   xmlns:inkscape="http://www.inkscape.org/namespaces/inkscape"
   xmlns:sodipodi="http://sodipodi.sourceforge.net/DTD/sodipodi-0.dtd"
   xmlns="http://www.w3.org/2000/svg"
   xmlns:svg="http://www.w3.org/2000/svg"
   xmlns:rdf="http://www.w3.org/1999/02/22-rdf-syntax-ns#"
   xmlns:cc="http://creativecommons.org/ns#"
   xmlns:dc="http://purl.org/dc/elements/1.1/"><sodipodi:namedview
     id="namedview11"
     pagecolor="#ffffff"
     bordercolor="#666666"
     borderopacity="1.0"
     inkscape:pageshadow="2"
     inkscape:pageopacity="0.0"
     inkscape:pagecheckerboard="true"
     showgrid="false"
     showguides="true"
     inkscape:guide-bbox="true"
     inkscape:snap-intersection-paths="true"
     inkscape:snap-smooth-nodes="true"
     inkscape:snap-bbox="true"
     inkscape:snap-bbox-edge-midpoints="true"
     inkscape:bbox-nodes="true"
     inkscape:zoom="1"
     inkscape:cx="334.5"
     inkscape:cy="251.5"
     inkscape:window-width="1920"
     inkscape:window-height="1001"
     inkscape:window-x="-9"
     inkscape:window-y="-9"
     inkscape:window-maximized="1"
     inkscape:current-layer="svg3522"
     width="568.125px"
     inkscape:snap-global="true"
     inkscape:object-paths="false" /><metadata
     id="metadata3528"><rdf:RDF><cc:Work
         rdf:about=""><dc:format>image/svg+xml</dc:format><dc:type
           rdf:resource="http://purl.org/dc/dcmitype/StillImage" /></cc:Work></rdf:RDF></metadata><defs
     id="defs3526" /><path
     id="rect2419"
     style="display:inline;fill:#ffffff;fill-opacity:1;stroke-width:1.41526;stroke-linecap:round"
     d="M 284.06233,42.768626 519.25791,454.45937 H 48.866745 Z"
     sodipodi:nodetypes="cccc" /><path
     id="path1287-2"
     style="display:inline;fill:#c0111e;fill-opacity:1;fill-rule:nonzero;stroke:none;stroke-width:0.859147"
     d="M 284.06233,4.5425685e-4 C 277.94091,-0.04336226 271.21873,3.083666 267.92647,8.9396153 L 2.1975383,469.35001 C 0.66396013,472.48418 0.01976039,475.20891 0,478.32676 0,489.21753 8.9379258,497.228 18.874395,497.228 H 549.25027 c 9.93647,0 18.87439,-8.01047 18.87439,-18.90124 -0.0197,-3.11785 -0.66396,-5.84258 -2.19753,-8.97675 L 300.19819,8.9396153 C 296.90594,3.083666 290.18376,-0.04336226 284.06233,4.5425685e-4 Z m 0,90.77454274315 L 487.1272,442.24256 H 80.997471 Z"
     sodipodi:nodetypes="cccccccccccccc" /><path
     d="m 242.69961,240.3708 c -14.14213,10.02047 -29.10465,17.7161 -41.4843,32.73031 v 42.69452 h -1.75443 c -2.59459,0 -4.6828,-2.0908 -4.6828,-4.68538 0,-0.0329 0.01,-0.0632 0.0104,-0.0959 h -6.87518 c -16.67321,0 -30.09478,13.42155 -30.09478,30.09478 0,16.67321 13.42157,30.09737 30.09478,30.09737 h 12.90554 47.00415 78.96738 c 5.42625,0 9.79578,-4.36952 9.79578,-9.79577 v -40.6032 c 0,-5.42625 -4.36953,-9.79318 -9.79578,-9.79318 H 253.7497 c 6.7e-4,0.0328 0.0106,0.0631 0.0106,0.0959 0,2.59458 -2.0882,4.68538 -4.68279,4.68538 h -41.62708 v -27.55772 c 11.76039,-1.96364 22.65443,-6.5233 33.13976,-12.31209 l 30.88518,7.09805 24.10848,0.98475 18.4772,-6.09773 4.65689,-30.56902 -15.4685,6.69636 c -20.97828,-0.97736 -40.83141,-7.02056 -60.54979,-13.66743 z m 102.45133,70.6358 v 5.76343 19.8196 38.82804 H 164.58741 v 19.66929 7.12136 h -4.4366 v 4.91604 h 3.77319 v 1.12988 c 0,6.31006 5.07947,11.38952 11.38953,11.38952 6.31005,0 11.38953,-5.07946 11.38953,-11.38952 v -6.04592 h 6.94255 c 2.18653,9.99387 11.03989,17.43544 21.70878,17.43544 12.32121,0 22.23999,-9.91881 22.24003,-22.24003 v -2.31677 h 8.46116 v 2.31677 c 0,12.32122 9.91882,22.24003 22.24003,22.24003 12.32122,0 22.24002,-9.91881 22.24002,-22.24003 v -2.31677 h 12.70599 v 2.31677 c 0,12.32122 9.91881,22.24003 22.24003,22.24003 10.84965,0 19.82831,-7.69347 21.82021,-17.94336 h 20.69809 a 12.549629,12.549629 0 0 0 -1.23095,5.42135 12.549629,12.549629 0 0 0 12.55052,12.54792 12.549629,12.549629 0 0 0 12.54791,-12.54792 12.549629,12.549629 0 0 0 -1.22835,-5.42135 h 10.29591 v -5.08707 h -10.00308 v -1.52637 -19.66929 -38.82804 h -23.05893 v -19.8196 h 23.05893 v -5.76343 h -23.05893 z"
     style="fill:#000000;stroke-width:1.32683"
     id="rect844" /><rect
     y="419.16382"
     x="145.94366"
     height="4.0764194"
     width="276.23734"
     id="rect904"
     style="fill:#000000;stroke-width:1.32683" /></svg>
