<?xml version="1.0" encoding="UTF-8" standalone="no"?>
<svg
   inkscape:version="1.2.2 (732a01da63, 2022-12-09)"
   sodipodi:docname="Israel_road_sign_628.svg"
   viewBox="0 0 400 400"
   height="400"
   width="400"
   id="svg13262"
   version="1.1"
   xmlns:inkscape="http://www.inkscape.org/namespaces/inkscape"
   xmlns:sodipodi="http://sodipodi.sourceforge.net/DTD/sodipodi-0.dtd"
   xmlns="http://www.w3.org/2000/svg"
   xmlns:svg="http://www.w3.org/2000/svg"
   xmlns:rdf="http://www.w3.org/1999/02/22-rdf-syntax-ns#"
   xmlns:cc="http://creativecommons.org/ns#"
   xmlns:dc="http://purl.org/dc/elements/1.1/">
  <metadata
     id="metadata13268">
    <rdf:RDF>
      <cc:Work
         rdf:about="">
        <dc:format>image/svg+xml</dc:format>
        <dc:type
           rdf:resource="http://purl.org/dc/dcmitype/StillImage" />
        <dc:title />
      </cc:Work>
    </rdf:RDF>
  </metadata>
  <defs
     id="defs13266" />
  <sodipodi:namedview
     inkscape:current-layer="g13270"
     inkscape:window-maximized="1"
     inkscape:window-y="-9"
     inkscape:window-x="-9"
     inkscape:cy="211.44578"
     inkscape:cx="182.89157"
     inkscape:zoom="1.3833333"
     showgrid="false"
     id="namedview13264"
     inkscape:window-height="991"
     inkscape:window-width="1920"
     inkscape:pageshadow="2"
     inkscape:pageopacity="0"
     guidetolerance="10"
     gridtolerance="10"
     objecttolerance="10"
     borderopacity="1"
     bordercolor="#666666"
     pagecolor="#ffffff"
     inkscape:showpageshadow="2"
     inkscape:pagecheckerboard="0"
     inkscape:deskcolor="#d1d1d1"
     showguides="false" />
  <g
     transform="translate(-31.638554,-56.987952)"
     id="g13270"
     inkscape:label="Image"
     inkscape:groupmode="layer">
    <path
       id="path3323"
       style="opacity:1;fill:#070fdb;fill-opacity:1;stroke:none;stroke-width:23.9726;stroke-miterlimit:4;stroke-dasharray:none;stroke-opacity:1"
       d="M 31.638554,56.987952 V 456.98796 H 431.63855 V 56.987952 Z"
       inkscape:connector-curvature="0"
       sodipodi:nodetypes="ccccc" />
    <path
       id="path2532"
       style="display:inline;opacity:1;fill:#ffffff;fill-opacity:1;stroke-width:1.37953;stroke-linecap:round;stroke-linejoin:round"
       d="M 41.046758,66.392249 V 447.57976 H 422.23036 V 66.392249 Z M 52.07996,77.429358 H 411.19714 V 436.54654 H 52.07996 Z" />
    <path
       fill-rule="nonzero"
       fill="#0b2822"
       fill-opacity="1"
       d="m 163.77435,198.7293 c 0,5.86037 -4.7603,10.65235 -10.65308,10.65235 -5.8923,0 -10.65191,-4.79198 -10.65191,-10.65235 0,-5.89275 4.75961,-10.68472 10.65191,-10.68472 5.89278,0 10.65308,4.79197 10.65308,10.68472 z m 0,0"
       id="path10889-0"
       style="opacity:1;stroke-width:8.28876;fill:#ffffff" />
    <path
       fill-rule="nonzero"
       fill="#0b2822"
       fill-opacity="1"
       d="m 141.14173,212.03661 c -7.34953,0 -12.36847,6.0223 -13.33964,13.30738 l -4.30623,33.15503 h -4.75961 c -1.68434,0 -3.01129,1.32752 -3.01129,2.97872 v 28.10412 c 0,1.6513 1.32695,2.97873 3.01129,2.97873 h 20.85139 c 0.0851,0 0.15655,0 0.22552,0 v 21.36948 c 0,7.99734 11.98025,7.99734 11.98025,0 v -49.95914 h 2.6548 v 49.95914 c 0,7.99734 12.01178,7.99734 12.01178,0 v -84.57125 h 2.65527 l 14.11725,30.6296 c 2.58991,5.63371 11.65552,5.76325 9.32474,0 L 178.44,225.34399 c -2.78438,-6.79937 -5.95722,-13.30738 -13.33918,-13.30738 z m -4.0149,17.32221 h 2.68702 v 29.1402 c -0.10131,0 -0.16569,0 -0.22552,0 h -6.76682 z m 0,0"
       id="path10891-7"
       style="opacity:1;stroke-width:8.28876;fill:#ffffff" />
    <path
       fill-rule="evenodd"
       fill="#00242d"
       fill-opacity="1"
       d="m 215.8699,215.69541 c -4.82427,0 -8.22401,5.63367 -11.13749,9.45427 l -21.629,28.55736 c 0,0 -4.20867,4.30632 -5.47234,6.41085 -1.26204,2.1046 -2.00629,6.18423 -2.00629,6.18423 v 25.5138 c 0,4.75959 3.81997,8.61251 8.61202,8.64495 v 18.06688 c 0,3.27019 2.58992,5.89275 5.89323,5.89275 h 7.73729 c 3.27066,0 5.89348,-2.62256 5.89348,-5.89275 v -18.06688 h 110.60261 v 18.06688 c 0,3.27019 2.59037,5.89275 5.86101,5.89275 h 7.77089 c 3.26973,0 5.89255,-2.62256 5.89255,-5.89275 v -18.09932 c 4.46825,-0.38884 7.89998,-4.07955 7.89998,-8.61251 v -22.59978 c 0,0 0,-4.56531 -0.77969,-6.73463 -0.54657,-2.16933 -5.37405,-6.96131 -5.37405,-6.96131 l -23.02109,-31.47133 c -2.84903,-3.85295 -6.41056,-8.35346 -11.23484,-8.35346 z m 0.87451,5.37464 h 83.98824 c 1.29519,0 2.26613,0.421 3.36776,1.16563 0.54726,0.38883 1.26205,0.8418 1.61876,1.35989 2.169,2.07216 4.01444,4.95387 5.4065,7.05835 l 9.87545,14.73205 c 2.39615,3.59389 2.4608,7.05835 -1.81276,7.05835 H 198.38558 c -4.30601,0 -4.27378,-3.46446 -1.81298,-7.05835 l 9.87545,-14.73205 c 1.45696,-2.10448 3.26972,-4.98619 5.44011,-7.05835 0.54679,-0.51809 1.10025,-0.97137 1.61874,-1.35989 1.10049,-0.71197 2.169,-1.16563 3.33462,-1.16563 z m -25.87013,43.71028 c 4.33824,0 7.83557,3.49683 7.83557,7.80312 0,4.33866 -3.49733,7.83544 -7.83557,7.83544 -4.30577,0 -7.8031,-3.49678 -7.8031,-7.83544 0,-4.30629 3.49733,-7.80312 7.8031,-7.80312 z m 136.08497,0 c 4.30579,0 7.8031,3.49683 7.8031,7.80312 0,4.33866 -3.49731,7.83544 -7.8031,7.83544 -4.33915,0 -7.83555,-3.49678 -7.83555,-7.83544 0,-4.30629 3.4964,-7.80312 7.83555,-7.80312 z m -100.43673,3.46443 h 64.75584 c 1.87764,3.98249 4.24134,11.4618 4.24134,11.4618 0,0.0338 0.0851,0.0661 0.0851,0.0661 0,1.13315 -0.87473,2.07219 -2.10456,2.07219 h -68.73852 c -1.10072,0 -2.07233,-0.93904 -2.07233,-2.07219 0,0 0.0851,0 0.0851,0 z m -39.59869,20.20387 H 331.23281 V 297.644 H 186.92383 Z m 0,0"
       id="path10893-9"
       style="opacity:1;stroke-width:8.28876;fill:#ffffff" />
    <path
       fill-rule="nonzero"
       fill="#00242d"
       fill-opacity="1"
       d="m 298.69299,239.13698 c 0,5.89282 -4.79205,10.65237 -10.65237,10.65237 -5.89301,0 -10.68459,-4.75955 -10.68459,-10.65237 0,-5.89282 4.79158,-10.6523 10.68459,-10.6523 5.86032,0 10.65237,4.75948 10.65237,10.6523 z m 0,0"
       id="path10895-4"
       style="opacity:1;stroke-width:8.28876;fill:#ffffff" />
  </g>
</svg>
