<?xml version="1.0" encoding="UTF-8" standalone="no"?>
<svg
   xmlns:dc="http://purl.org/dc/elements/1.1/"
   xmlns:cc="http://creativecommons.org/ns#"
   xmlns:rdf="http://www.w3.org/1999/02/22-rdf-syntax-ns#"
   xmlns:svg="http://www.w3.org/2000/svg"
   xmlns="http://www.w3.org/2000/svg"
   xmlns:sodipodi="http://sodipodi.sourceforge.net/DTD/sodipodi-0.dtd"
   xmlns:inkscape="http://www.inkscape.org/namespaces/inkscape"
   inkscape:version="1.0 (4035a4fb49, 2020-05-01)"
   sodipodi:docname="Israel_road_sign_214.svg"
   xml:space="preserve"
   enable-background="new 0 0 610 600"
   viewBox="0 0 592.15802 592.15802"
   height="592.15802"
   width="592.15802"
   y="0px"
   x="0px"
   id="Layer_1"
   version="1.1"><metadata
   id="metadata3619"><rdf:RDF><cc:Work
       rdf:about=""><dc:format>image/svg+xml</dc:format><dc:type
         rdf:resource="http://purl.org/dc/dcmitype/StillImage" /></cc:Work></rdf:RDF></metadata><defs
   id="defs41" /><sodipodi:namedview
   inkscape:document-rotation="0"
   inkscape:snap-bbox-midpoints="true"
   inkscape:snap-global="true"
   inkscape:guide-bbox="true"
   showguides="true"
   inkscape:bbox-nodes="true"
   inkscape:snap-bbox-edge-midpoints="true"
   inkscape:snap-bbox="true"
   inkscape:snap-smooth-nodes="true"
   inkscape:snap-intersection-paths="true"
   inkscape:object-paths="false"
   inkscape:current-layer="Layer_1"
   inkscape:window-maximized="1"
   inkscape:window-y="-9"
   inkscape:window-x="-9"
   inkscape:window-height="1001"
   inkscape:window-width="1920"
   inkscape:cy="263.55313"
   inkscape:cx="424.6916"
   inkscape:zoom="1"
   showgrid="false"
   inkscape:pagecheckerboard="0"
   inkscape:pageopacity="0.0"
   inkscape:pageshadow="2"
   borderopacity="1.0"
   bordercolor="#666666"
   pagecolor="#ffffff"
   id="namedview39" />
<circle
   style="fill:#070fdb;fill-opacity:1;stroke-width:1.01229"
   id="circle2"
   r="296.07901"
   cy="296.07901"
   cx="296.07901"
   fill="#0099BB" />
<g
   id="g34">
	<g
   id="g24">
		<g
   id="g6">
			<path
   style="display:none"
   id="path4"
   d="m 355.545,329.729 c 0.008,-50.328 40.785,-91.109 91.111,-91.119 v 0 10.549 10.548 c -19.371,0.006 -36.809,7.823 -49.512,20.508 v 0 c -12.686,12.703 -20.503,30.143 -20.505,49.51 v 0 c 0.002,19.363 7.817,36.805 20.505,49.506 v 0 c 12.703,12.688 30.141,20.504 49.512,20.508 v 0 c 19.365,-0.008 36.805,-7.82 49.504,-20.508 v 0 c 12.688,-12.701 20.507,-30.143 20.51,-49.506 v 0 c -0.008,-19.367 -7.822,-36.807 -20.51,-49.51 v 0 c -12.699,-12.686 -30.139,-20.506 -49.504,-20.508 v 0 -10.548 -10.549 c 50.324,0.01 91.106,40.791 91.113,91.119 v 0 c -0.007,50.322 -40.789,91.107 -91.113,91.113 v 0 c -50.326,-0.01 -91.103,-40.795 -91.111,-91.113 z"
   fill="#ffffff" />
		</g>
		<g
   id="g10">
			
		</g>
		<g
   id="g14">
			
		</g>
		<g
   id="g18">
			
		</g>
		<g
   id="g22">
			
		</g>
	</g>
	<g
   id="g30">
		
		
	</g>
	
</g>
<circle
   id="circle36"
   r="284.66647"
   cy="296.07901"
   cx="296.08002"
   stroke-width="7"
   stroke="#ffffff"
   fill="none" />
<path
   d="m 51.34825,402.60276 18.56195,-150.94704 30.49505,49.64934 130.26113,-134.28677 54.70246,53.06267 -130.26109,134.28671 50.65084,32.14525 z"
   style="opacity:1;fill:#ffffff;stroke-width:2.16367"
   id="path3654"
   sodipodi:nodetypes="cccccccc" /><path
   sodipodi:nodetypes="cccccccc"
   id="path3656"
   style="opacity:1;fill:#ffffff;stroke-width:2.16367"
   d="M 540.1738,402.60276 521.61188,251.65572 491.11684,301.30506 360.85568,167.01829 306.15322,220.08096 436.41429,354.36767 385.7635,386.51292 Z" /></svg>
