<?xml version="1.0" encoding="UTF-8" standalone="no"?>
<svg
   xmlns:dc="http://purl.org/dc/elements/1.1/"
   xmlns:cc="http://creativecommons.org/ns#"
   xmlns:rdf="http://www.w3.org/1999/02/22-rdf-syntax-ns#"
   xmlns:svg="http://www.w3.org/2000/svg"
   xmlns="http://www.w3.org/2000/svg"
   xmlns:sodipodi="http://sodipodi.sourceforge.net/DTD/sodipodi-0.dtd"
   xmlns:inkscape="http://www.inkscape.org/namespaces/inkscape"
   inkscape:version="1.0 (4035a4fb49, 2020-05-01)"
   sodipodi:docname="Israel_road_sign 422.svg"
   xml:space="preserve"
   enable-background="new 0 0 610 600"
   viewBox="0 0 592.1582 592.1582"
   height="592.1582"
   width="592.1582"
   y="0px"
   x="0px"
   id="Layer_1"
   version="1.1"><metadata
   id="metadata8642"><rdf:RDF><cc:Work
       rdf:about=""><dc:format>image/svg+xml</dc:format><dc:type
         rdf:resource="http://purl.org/dc/dcmitype/StillImage" /><dc:title></dc:title></cc:Work></rdf:RDF></metadata><defs
   id="defs8640"><path
     id="Oct"
     d="M 500,-207.10678 V 207.10678 L 207.10678,500 H -207.10678 L -500,207.10678 V -207.10678 L -207.10678,-500 h 414.21356 z" /><pattern
     id="EMFhbasepattern"
     patternUnits="userSpaceOnUse"
     width="6"
     height="6"
     x="0"
     y="0" /><pattern
     id="EMFhbasepattern-0"
     patternUnits="userSpaceOnUse"
     width="6"
     height="6"
     x="0"
     y="0" /><pattern
     id="EMFhbasepattern-8"
     patternUnits="userSpaceOnUse"
     width="6"
     height="6"
     x="0"
     y="0" /><pattern
     id="EMFhbasepattern-3"
     patternUnits="userSpaceOnUse"
     width="6"
     height="6"
     x="0"
     y="0" /></defs><sodipodi:namedview
   inkscape:document-rotation="0"
   inkscape:current-layer="Layer_1"
   inkscape:window-maximized="1"
   inkscape:window-y="-9"
   inkscape:window-x="-9"
   inkscape:cy="376.44947"
   inkscape:cx="467.38046"
   inkscape:zoom="3.1466667"
   showgrid="false"
   id="namedview8638"
   inkscape:window-height="1001"
   inkscape:window-width="1920"
   inkscape:pageshadow="2"
   inkscape:pageopacity="0"
   guidetolerance="10"
   gridtolerance="10"
   objecttolerance="10"
   borderopacity="1"
   bordercolor="#666666"
   pagecolor="#ffffff"><sodipodi:guide
     inkscape:locked="false"
     id="guide8644"
     orientation="0,610"
     position="-5.3896699,-7.8417958" /><sodipodi:guide
     inkscape:color="rgb(117,80,123)"
     inkscape:label=""
     inkscape:locked="false"
     id="guide8646"
     orientation="-1,0"
     position="604.61033,-7.8417958" /><sodipodi:guide
     inkscape:locked="false"
     id="guide8648"
     orientation="0,-610"
     position="604.61033,592.1582" /><sodipodi:guide
     inkscape:locked="false"
     id="guide8650"
     orientation="600,0"
     position="-11.440678,592.1582" /><inkscape:grid
     originy="3.457"
     originx="1.12931"
     id="grid56807"
     type="xygrid" /></sodipodi:namedview>


<circle
   cx="296.078"
   cy="296.07901"
   r="292.48499"
   id="circle8633"
   style="fill:#ffffff;stroke:#000000;stroke-opacity:0.815686;fill-opacity:1" /><path
   style="color:#000000;font-style:normal;font-variant:normal;font-weight:normal;font-stretch:normal;font-size:medium;line-height:normal;font-family:sans-serif;font-variant-ligatures:normal;font-variant-position:normal;font-variant-caps:normal;font-variant-numeric:normal;font-variant-alternates:normal;font-variant-east-asian:normal;font-feature-settings:normal;font-variation-settings:normal;text-indent:0;text-align:start;text-decoration:none;text-decoration-line:none;text-decoration-style:solid;text-decoration-color:#000000;letter-spacing:normal;word-spacing:normal;text-transform:none;writing-mode:lr-tb;direction:ltr;text-orientation:mixed;dominant-baseline:auto;baseline-shift:baseline;text-anchor:start;white-space:normal;shape-padding:0;shape-margin:0;inline-size:0;clip-rule:nonzero;display:inline;overflow:visible;visibility:visible;opacity:1;isolation:auto;mix-blend-mode:normal;color-interpolation:sRGB;color-interpolation-filters:linearRGB;solid-color:#000000;solid-opacity:1;vector-effect:none;fill:#c0111e;fill-opacity:1;fill-rule:nonzero;stroke:none;stroke-width:70;stroke-linecap:butt;stroke-linejoin:miter;stroke-miterlimit:4;stroke-dasharray:none;stroke-dashoffset:0;stroke-opacity:1;color-rendering:auto;image-rendering:auto;shape-rendering:auto;text-rendering:auto;enable-background:accumulate;stop-color:#000000;stop-opacity:1"
   d="M 296.07812,0 C 132.97277,0 0,132.97277 0,296.07812 0,459.18348 132.97277,592.1582 296.07812,592.1582 459.18348,592.1582 592.1582,459.18348 592.1582,296.07812 592.1582,132.97277 459.18348,0 296.07812,0 Z m 0,70 C 421.35268,70 522.1582,170.80357 522.1582,296.07812 522.1582,421.35268 421.35268,522.1582 296.07812,522.1582 170.80357,522.1582 70,421.35268 70,296.07812 70,170.80357 170.80357,70 296.07812,70 Z"
   id="path56784" /><path
   id="rect56173"
   style="fill:#c0111e;fill-opacity:1;fill-rule:evenodd;stroke:none;stroke-width:1.88975;stroke-linecap:square;stroke-miterlimit:10;paint-order:markers fill stroke"
   d="m 140.87727,171.6507 c -11.59137,0 -20.92398,9.33256 -20.92398,20.92397 V 331.58803 H 279.83305 V 192.57467 c 0,-11.59141 -9.33261,-20.92397 -20.92401,-20.92397 z m -22.19114,165.11282 v 7.26538 h 161.62414 v -7.26538 z m 147.20031,10.23568 v 41.89741 h -4.1305 v -41.88915 h -14.42382 v 23.09621 h -39.7087 a 8.1553197,8.1553197 0 0 0 -7.98944,-6.54135 8.1553197,8.1553197 0 0 0 -7.9977,6.54135 h -39.79919 v -23.09621 h -14.42382 v 41.88915 h -4.30332 v -41.88915 h -14.42382 v 41.88915 h -10.56484 c -0.0859,0 -0.15629,0.0767 -0.15629,0.15629 v 5.66913 c 0,0.0956 0.0703,0.1563 0.15629,0.1563 h 186.25076 c 0.0859,0 0.15629,-0.0767 0.15629,-0.1563 v -5.66913 c 0,-0.0956 -0.0703,-0.15629 -0.15629,-0.15629 H 280.31027 V 346.9992 Z m -114.04935,26.84002 h 39.92262 a 8.1553197,8.1553197 0 0 0 7.87427,6.03118 8.1553197,8.1553197 0 0 0 7.86605,-6.03118 h 39.83209 v 15.05739 h -95.49503 z" /><path
   id="path60007"
   style="opacity:1;fill:#000000;fill-opacity:1;fill-rule:evenodd;stroke:none;stroke-width:1.88976;stroke-linecap:square;stroke-miterlimit:10;paint-order:markers fill stroke"
   d="m 355.37502,277.55426 c -8.10631,0 -13.43349,7.48114 -17.87966,14.25923 l -15.07381,22.98104 c 0,0 -1.43335,1.92738 -2.22978,2.82221 -1.79654,2.01755 -5.73497,2.55299 -5.73497,5.72676 v 34.16296 c 0,3.17382 2.56115,5.72677 5.73497,5.72677 h 3.06905 v 11.06675 h -20.7183 c -0.0859,0 -0.1563,0.0767 -0.1563,0.15629 v 5.66913 c 0,0.0956 0.0703,0.1563 0.1563,0.1563 h 186.25076 c 0.086,0 0.15632,-0.0767 0.15632,-0.1563 v -5.66913 c 0,-0.0956 -0.0708,-0.15629 -0.15632,-0.15629 h -20.15056 v -11.06675 h 2.7399 c 3.17387,0 5.72619,-2.55295 5.7268,-5.72677 l 0.0101,-34.13005 c 6.1e-4,-3.17297 -4.09246,-3.78708 -5.8913,-5.90774 -1.33465,-1.5733 -3.61217,-5.02736 -3.61217,-5.02736 l -12.45727,-18.85053 c -4.20224,-6.93195 -10.45627,-16.03652 -18.56257,-16.03652 z m -5.94891,11.23957 h 92.61522 c 0.086,0 0.11666,0.0851 0.15632,0.16471 l 11.89776,26.02539 c 0.0334,0.0796 -0.0708,0.15629 -0.15632,0.15629 H 339.27265 c -0.0859,0 -0.19083,-0.0607 -0.15629,-0.15629 l 10.15346,-26.02539 c 0.0294,-0.0796 0.0703,-0.16471 0.15629,-0.16471 z m -21.22842,31.71098 c 2.78089,0 5.0191,2.23829 5.0191,5.01915 v 13.38705 c 0,2.78086 -2.23821,5.01915 -5.0191,5.01915 -2.7809,0 -5.01914,-2.23829 -5.01914,-5.01915 v -13.38705 c 0,-2.78086 2.23824,-5.01915 5.01914,-5.01915 z m 136.26515,0 c 2.78088,0 5.01915,2.23829 5.01915,5.01915 v 13.38705 c 0,2.78086 -2.23827,5.01915 -5.01915,5.01915 -2.78089,0 -5.01915,-2.23829 -5.01915,-5.01915 v -13.38705 c 0,-2.78086 2.23826,-5.01915 5.01915,-5.01915 z m -83.74537,14.33329 h 28.64196 v 8.84519 h -28.64196 z m -56.41988,13.83144 h 141.72856 v 9.70913 H 324.29759 Z m 14.77757,14.56369 h 113.75319 v 11.06675 H 339.07516 Z" /></svg>
