<?xml version="1.0" encoding="UTF-8" standalone="no"?>
<svg
   xmlns:dc="http://purl.org/dc/elements/1.1/"
   xmlns:cc="http://creativecommons.org/ns#"
   xmlns:rdf="http://www.w3.org/1999/02/22-rdf-syntax-ns#"
   xmlns:svg="http://www.w3.org/2000/svg"
   xmlns="http://www.w3.org/2000/svg"
   xmlns:sodipodi="http://sodipodi.sourceforge.net/DTD/sodipodi-0.dtd"
   xmlns:inkscape="http://www.inkscape.org/namespaces/inkscape"
   sodipodi:docname="141.svg"
   inkscape:version="1.0 (4035a4fb49, 2020-05-01)"
   id="svg27809"
   version="1.1"
   viewBox="0 0 132.49173 115.98297"
   height="115.98297mm"
   width="132.49173mm">
  <defs
     id="defs27803" />
  <sodipodi:namedview
     inkscape:window-maximized="0"
     inkscape:window-y="0"
     inkscape:window-x="128"
     inkscape:window-height="1030"
     inkscape:window-width="1424"
     showgrid="false"
     inkscape:document-rotation="0"
     inkscape:current-layer="layer1"
     inkscape:document-units="mm"
     inkscape:cy="219.18042"
     inkscape:cx="148.88541"
     inkscape:zoom="1.8966889"
     inkscape:pageshadow="2"
     inkscape:pageopacity="0.0"
     borderopacity="1.0"
     bordercolor="#666666"
     pagecolor="#ffffff"
     id="base" />
  <metadata
     id="metadata27806">
    <rdf:RDF>
      <cc:Work
         rdf:about="">
        <dc:format>image/svg+xml</dc:format>
        <dc:type
           rdf:resource="http://purl.org/dc/dcmitype/StillImage" />
        <dc:title></dc:title>
      </cc:Work>
    </rdf:RDF>
  </metadata>
  <g
     transform="translate(-203.68824,-63.388697)"
     id="layer1"
     inkscape:groupmode="layer"
     inkscape:label="Layer 1">
    <path
       sodipodi:nodetypes="cccc"
       d="m 269.9341,73.447698 54.76688,95.864982 H 215.16722 Z"
       style="display:inline;fill:#ffffff;fill-opacity:1;stroke-width:0.329553;stroke-linecap:round"
       id="path27756" />
    <path
       sodipodi:nodetypes="cccccccccccccc"
       d="m 269.9341,63.488833 c -1.42541,-0.01024 -2.99072,0.717968 -3.75734,2.081554 L 204.29998,172.78006 c -0.3571,0.72982 -0.50711,1.36428 -0.51171,2.09031 0,2.536 2.08126,4.40127 4.39503,4.40127 h 123.50161 c 2.31377,0 4.39503,-1.86527 4.39503,-4.40127 -0.004,-0.72603 -0.15462,-1.36049 -0.51171,-2.09031 L 273.69145,65.570387 c -0.76663,-1.363586 -2.33194,-2.091752 -3.75735,-2.081554 z m 0,21.137479 47.28503,81.841608 h -94.57005 z"
       style="display:inline;fill:#c0111e;fill-opacity:1;fill-rule:nonzero;stroke:none;stroke-width:0.200058;stroke-opacity:1"
       id="path27758" />
    <path
       style="opacity:1;fill:#000000;fill-opacity:1;stroke:none;stroke-width:0.456975px;stroke-linecap:butt;stroke-linejoin:miter;stroke-opacity:1"
       d="m 252.96855,139.00914 1.94213,0.85685 c 0,0 -0.90065,1.71236 -1.19956,2.62758 -0.20517,0.62834 -0.51285,1.29096 -0.39985,1.94212 0.1754,1.01029 0.80779,1.9759 1.59941,2.6276 1.31617,1.0836 3.1781,1.23991 4.7982,1.77078 1.76963,0.57977 3.70217,0.71289 5.36942,1.54228 1.27861,0.636 2.64162,1.37794 3.4273,2.57046 0.71141,1.07983 0.93043,2.47701 0.91394,3.77002 -0.0288,2.26763 -1.77076,6.56896 -1.77076,6.56896 l -6.34049,-0.28559 c 0,0 1.46651,-2.0984 1.77076,-3.31307 0.30536,-1.219 0.32025,-2.55476 0,-3.77 -0.31504,-1.19557 -0.7842,-2.34747 -1.82788,-3.22737 -2.00365,-1.68924 -5.08976,-1.97732 -7.59716,-3.05599 -1.04876,-0.45118 -2.33372,-0.61747 -3.11313,-1.42804 -0.66101,-0.68749 -0.99798,-1.79517 -1.11387,-2.74187 -0.0993,-0.81173 0.12325,-1.68069 0.5141,-2.39907 0.42466,-0.78056 1.4566,-2.17062 1.4566,-2.17062 z"
       id="path1010"
       sodipodi:nodetypes="ccsssssssccaasassscc" />
    <path
       style="opacity:1;fill:#000000;fill-opacity:1;stroke:none;stroke-width:0.456975px;stroke-linecap:butt;stroke-linejoin:miter;stroke-opacity:1"
       d="m 281.84347,144.52137 1.74221,0.8854 c 0,0 -1.44979,1.63432 -1.68509,2.65615 -0.22785,0.98971 -0.12992,2.12854 0.34273,3.02742 0.35804,0.68094 0.84919,1.2832 1.74221,1.51373 3.80136,0.9814 8.53445,1.32973 12.42392,3.08456 0.88585,0.3997 1.73152,0.95034 2.39911,1.65654 0.72795,0.76996 1.37658,1.69131 1.65652,2.71325 0.37477,1.36829 -0.0571,4.25555 -0.0571,4.25555 l -5.70644,-0.0571 c 0,0 0.3144,-2.27494 -0.0628,-3.31307 -0.45089,-1.24089 -1.38586,-2.35271 -2.48479,-3.08456 -2.41743,-1.60987 -5.59859,-1.55327 -8.3683,-2.42767 -1.15125,-0.36339 -2.43694,-0.48052 -3.42729,-1.17097 -0.80495,-0.5612 -1.52382,-1.36157 -1.85645,-2.28487 -0.34849,-0.96734 -0.35575,-2.10973 -0.0283,-3.08457 0.58539,-1.74384 3.37017,-4.36979 3.37017,-4.36979 z"
       id="path1014"
       sodipodi:nodetypes="ccaasaaaccaaaaaac" />
    <path
       sodipodi:nodetypes="scccccscssssccsssscscccccssssccccssssssssssssssscccccccccc"
       id="path3854"
       style="opacity:1;fill:#000000;fill-opacity:1;stroke:none;stroke-width:0.456975"
       d="m 265.13127,112.37189 c -2.28884,-0.45388 -4.19341,1.56622 -5.93717,3.11665 l -6.06736,5.46664 -0.72685,0.46278 c -0.25248,0.1607 -0.66178,0.29985 -0.72,0.59329 l -1.80189,9.08845 c -0.0582,0.29356 0.13115,0.57646 0.42466,0.6347 l 1.83941,0.36467 -0.91925,4.63658 c -0.13792,0.69559 0.31179,1.36661 1.0074,1.50451 l 2.26749,0.44953 c 0.69565,0.13792 1.36731,-0.31073 1.50522,-1.00634 l 0.91929,-4.63657 26.92196,5.33761 -0.91924,4.63657 c -0.13792,0.69562 0.31087,1.36643 1.00652,1.50436 l 2.26837,0.44971 c 0.6956,0.1379 1.36644,-0.31089 1.50435,-1.00653 l 0.91925,-4.63654 1.47346,0.29207 c 0.29351,0.0583 0.57734,-0.13087 0.63555,-0.42443 l 1.80184,-9.08843 c 0.0439,-0.22069 -0.121,-0.72229 -0.2963,-0.83995 -0.18978,-0.33478 -0.34967,-0.57598 -0.51647,-0.92247 l -3.41148,-7.08767 c -1.01237,-2.10227 -1.91914,-4.6742 -4.20793,-5.12803 z m -0.31892,1.87941 18.9918,3.76535 c 1.25023,0.2478 1.6127,1.44522 1.80952,2.70444 l 0.57469,3.67799 -26.4632,-5.24663 2.19798,-3.12832 c 0.73275,-1.04282 1.63898,-2.02078 2.88921,-1.77283 z m -9.60231,7.41263 c 0.69844,0.13845 1.14919,0.8122 1.01073,1.51065 l -0.61097,3.08168 c -0.13846,0.69838 -0.81222,1.14919 -1.51066,1.01079 -0.69843,-0.13856 -1.1492,-0.81224 -1.01073,-1.51074 l 0.61097,-3.08167 c 0.13847,-0.69836 0.81223,-1.1492 1.51066,-1.01071 z m 34.19372,6.77927 c 0.69843,0.13843 1.14923,0.81223 1.01072,1.51063 l -0.61097,3.08168 c -0.13846,0.6985 -0.81223,1.14929 -1.51065,1.01083 -0.6984,-0.13848 -1.1492,-0.81218 -1.01074,-1.51064 l 0.61097,-3.08167 c 0.13851,-0.6985 0.81223,-1.14924 1.51067,-1.01083 z m -21.17449,-1.09988 6.9732,1.3825 -0.58131,2.932 -6.97321,-1.38255 z m -15.73004,0.83398 36.92523,7.32084 -0.42422,2.13971 -36.92521,-7.32095 z" />
  </g>
</svg>
