<?xml version="1.0" encoding="UTF-8" standalone="no"?>
<svg
   xmlns:dc="http://purl.org/dc/elements/1.1/"
   xmlns:cc="http://creativecommons.org/ns#"
   xmlns:rdf="http://www.w3.org/1999/02/22-rdf-syntax-ns#"
   xmlns:svg="http://www.w3.org/2000/svg"
   xmlns="http://www.w3.org/2000/svg"
   xmlns:sodipodi="http://sodipodi.sourceforge.net/DTD/sodipodi-0.dtd"
   xmlns:inkscape="http://www.inkscape.org/namespaces/inkscape"
   version="1.1"
   id="Layer_1"
   x="0px"
   y="0px"
   width="592.15802"
   height="592.15802"
   viewBox="0 0 592.15802 592.15802"
   enable-background="new 0 0 610 600"
   xml:space="preserve"
   sodipodi:docname="Israel_road_sign_411.svg"
   inkscape:version="1.0 (4035a4fb49, 2020-05-01)"><metadata
   id="metadata8642"><rdf:RDF><cc:Work
       rdf:about=""><dc:format>image/svg+xml</dc:format><dc:type
         rdf:resource="http://purl.org/dc/dcmitype/StillImage" /><dc:title /></cc:Work></rdf:RDF></metadata><defs
   id="defs8640"><path
     d="M500-207.10678V207.10678L207.10678,500H-207.10678L-500,207.10678V-207.10678L-207.10678-500H207.10678Z"
     id="Oct" /><pattern
     y="0"
     x="0"
     height="6"
     width="6"
     patternUnits="userSpaceOnUse"
     id="EMFhbasepattern" /></defs><sodipodi:namedview
   pagecolor="#ffffff"
   bordercolor="#666666"
   borderopacity="1"
   objecttolerance="10"
   gridtolerance="10"
   guidetolerance="10"
   inkscape:pageopacity="0"
   inkscape:pageshadow="2"
   inkscape:window-width="1920"
   inkscape:window-height="1001"
   id="namedview8638"
   showgrid="false"
   inkscape:zoom="0.95648883"
   inkscape:cx="200.09532"
   inkscape:cy="484.67801"
   inkscape:window-x="-9"
   inkscape:window-y="-9"
   inkscape:window-maximized="1"
   inkscape:current-layer="Layer_1"
   inkscape:document-rotation="0"><sodipodi:guide
     position="-6.5189819,-4.3849792"
     orientation="0,610"
     id="guide8644"
     inkscape:locked="false" /><sodipodi:guide
     position="603.48102,-4.3849792"
     orientation="-600,0"
     id="guide8646"
     inkscape:locked="false" /><sodipodi:guide
     position="603.48102,595.61502"
     orientation="0,-610"
     id="guide8648"
     inkscape:locked="false" /><sodipodi:guide
     position="-6.5189819,595.61502"
     orientation="600,0"
     id="guide8650"
     inkscape:locked="false" /></sodipodi:namedview>
<circle
   cx="296.078"
   cy="296.07901"
   r="292.48499"
   id="circle8633"
   style="fill:#ffffff;stroke:#000000;stroke-opacity:0.81568629" />
<circle
   cx="296.07901"
   cy="296.07901"
   r="261.07901"
   id="circle8635"
   style="fill:none;stroke:#c0111e;stroke-width:70;stroke-opacity:1" />
<path
   sodipodi:nodetypes="cccsscsccccccccccccscscssssccsccsscccccscsccccsssccccccc"
   id="rect6083"
   style="fill:#000000;fill-opacity:1;fill-rule:evenodd;stroke:none;stroke-width:5;stroke-linecap:square;paint-order:markers stroke fill"
   d="m 154.98438,171.27148 c -0.31561,0.008 -0.56508,0.0573 -0.74024,0.15235 -2.82626,1.53409 7.98633,17.93164 7.98633,17.93164 0,0 -32.94089,32.88266 -40.46875,48.28125 -1.88455,3.85494 2.39928,9.12418 6.06445,11.35547 5.55666,3.3828 19.51367,0.26367 19.51367,0.26367 0,0 5.23937,-6.15667 8.68946,-8.09961 6.87908,-3.87398 22.79297,-6.44336 22.79297,-6.44336 l 59.24414,95.0918 -23.10352,90.24414 -2.20557,13.90429 v 0 h -58.17529 v 12.19922 h 304.94922 v -12.19922 h -21.33789 l -0.23633,-77.76953 -14.99219,-27.55078 c 0,0 -1.59797,-8.91421 -0.82031,-13.28125 0.85081,-4.77786 5.85742,-13.33008 5.85742,-13.33008 0,0 0.32127,22.42358 4.68555,33.69727 4.36429,11.27369 21.5,33.94531 21.5,33.94531 0,0 -5.79841,-18.90797 -3.98242,-41.58789 1.58656,-19.81466 11.12847,-42.55109 7.3789,-57.49805 -2.22153,-8.8557 -3.27043,-13.97412 -13.74804,-23.6914 -9.69469,-8.99118 -29.36599,-14.78241 -39.28711,-17.2793 -12.77552,-3.21525 -38.875,7.11328 -38.875,7.11328 l -104.88086,3.41211 c 0,0 -32.36744,-28.23785 -46.58985,-38.22851 -14.22238,-9.99066 -35.08593,-21.71485 -35.08593,-21.71485 0,0 -19.39869,-9.04122 -24.13281,-8.91797 z m 202.52539,150.1836 c 0.34288,0.0146 0.66055,0.067 0.93945,0.16797 2.53514,0.91777 4.99609,6.36133 4.99609,6.36133 l 19.33008,33.73437 -13.75391,72.23437 h -81.02343 l -8.73243,-101.0957 c 0,0 39.00797,-1.57863 51.04493,-3.20312 12.03696,-1.62449 21.17773,-6.54492 21.17773,-6.54492 0,-10e-6 3.62127,-1.75626 6.02149,-1.6543 z m 42.28906,12.3164 19.66211,30.44727 8.33008,69.73437 h -48.1211 c 4.21947,-14.20494 13.05447,-44.16862 17.66016,-61.4414 1.80858,-6.78274 0.0684,-21.05859 0.0684,-21.0586 0,10e-6 -4.61548,-8.42534 -3.36328,-12.58203 0.74012,-2.45684 5.76367,-5.09961 5.76367,-5.09961 z m -147.1543,7.75391 2.39453,2.17383 18.89453,90.2539 h -47.35351 z" /></svg>
