<?xml version="1.0" encoding="UTF-8" standalone="no"?>
<svg
   xmlns:dc="http://purl.org/dc/elements/1.1/"
   xmlns:cc="http://creativecommons.org/ns#"
   xmlns:rdf="http://www.w3.org/1999/02/22-rdf-syntax-ns#"
   xmlns:svg="http://www.w3.org/2000/svg"
   xmlns="http://www.w3.org/2000/svg"
   xmlns:sodipodi="http://sodipodi.sourceforge.net/DTD/sodipodi-0.dtd"
   xmlns:inkscape="http://www.inkscape.org/namespaces/inkscape"
   inkscape:version="1.0 (4035a4fb49, 2020-05-01)"
   sodipodi:docname="627.svg"
   viewBox="0 0 400 600.00006"
   height="600.00006"
   width="400"
   id="svg13634"
   version="1.1">
  <metadata
     id="metadata13640">
    <rdf:RDF>
      <cc:Work
         rdf:about="">
        <dc:format>image/svg+xml</dc:format>
        <dc:type
           rdf:resource="http://purl.org/dc/dcmitype/StillImage" />
        <dc:title></dc:title>
      </cc:Work>
    </rdf:RDF>
  </metadata>
  <defs
     id="defs13638" />
  <sodipodi:namedview
     inkscape:current-layer="g13912"
     inkscape:window-maximized="1"
     inkscape:window-y="-9"
     inkscape:window-x="-9"
     inkscape:cy="-186.35523"
     inkscape:cx="-297.79389"
     inkscape:zoom="0.34583333"
     showgrid="false"
     id="namedview13636"
     inkscape:window-height="1001"
     inkscape:window-width="1920"
     inkscape:pageshadow="2"
     inkscape:pageopacity="0"
     guidetolerance="10"
     gridtolerance="10"
     objecttolerance="10"
     borderopacity="1"
     bordercolor="#666666"
     pagecolor="#ffffff" />
  <g
     transform="translate(-71.545837,-55.162132)"
     id="g13642"
     inkscape:label="Image"
     inkscape:groupmode="layer">
    <rect
       style="opacity:1;fill:#070fdb;fill-opacity:1;stroke-width:1.99999"
       id="rect323"
       width="400"
       height="600.00006"
       x="71.545837"
       y="55.162132" />
    <g
       style="opacity:1;fill:#ffffff"
       transform="matrix(2.5389284,0,0,2.5389284,-119.85032,-91.761473)"
       id="g13912">
      <path
         sodipodi:nodetypes="ccccccccccccccccssssccccccc"
         d="m 115.651,92.537222 v 11.582498 h 4.5866 v 57.23885 h 11.58253 v -57.23885 h 41.35413 v 57.23885 h 11.58253 V 92.537222 Z m 21.8549,17.172568 v 28.40346 23.15034 h 9.9461 v -23.15034 h 9.86708 c 5.78179,0 10.43697,-4.65442 10.43697,-10.43623 v -7.53027 c 0,-5.78179 -4.65518,-10.43696 -10.43697,-10.43696 H 147.452 Z m 10.05413,9.92073 h 8.56201 v 8.56202 h -8.56201 z"
         style="opacity:1;fill:#ffffff;stroke-width:0.405611"
         id="rect259" />
      <path
         id="rect13661"
         style="opacity:1;fill:#ffffff;stroke-width:0.780049;stroke-linejoin:round"
         d="m 172.63281,189.88477 c -0.1588,0.001 -0.31899,0.0127 -0.48047,0.0332 l -46.19531,5.85156 c -2.58361,0.3272 -4.04882,3.60798 -5.34765,5.86524 l -9.7129,16.88085 c 0,0 -1.98192,2.61117 -2.51367,3.82813 -0.53174,1.21698 -0.67773,3.47266 -0.67773,3.47266 l 1.74219,13.74609 c 0.32618,2.57562 2.65433,4.39111 5.22851,4.07812 l 1.18555,9.3711 H 98.132812 v 6.50586 h 66.685548 45.36328 v -6.50586 -7.22852 h -14.42773 c 0.64273,-0.67233 0.99568,-1.61019 0.86914,-2.60937 l -1.23633,-9.77539 c 2.36801,-0.506 3.9858,-2.73758 3.67578,-5.18555 l -1.54297,-12.17969 c 0,0 -0.33941,-2.45496 -0.80664,-3.58203 -0.46555,-1.12734 -3.37109,-3.39062 -3.37109,-3.39062 l -14.57032,-15.39063 c -1.67849,-1.77303 -3.75663,-3.80761 -6.13867,-3.78515 z m -0.15625,2.98828 c 0.47164,0.0277 0.9438,0.1794 1.41016,0.41211 0.35974,0.16317 0.69333,0.37615 0.99219,0.63086 1.30311,0.9663 2.50447,2.39727 3.40039,3.42773 l 6.32812,7.28125 c 1.53463,1.76499 1.80276,3.63583 -0.51758,3.92969 l -10.33789,1.31054 -44.45507,5.62891 -10.3379,1.31055 c -2.32036,0.29387 -2.52668,-1.58784 -1.48046,-3.67969 l 4.3125,-8.62695 c 0.61083,-1.22129 1.41834,-2.90733 2.43945,-4.16797 0.22574,-0.32099 0.49529,-0.60962 0.80273,-0.85742 0.52483,-0.4553 1.09976,-0.77414 1.72657,-0.85352 l 0.39257,-0.0508 44.45704,-5.62891 0.39648,-0.0508 c 0.15671,-0.0199 0.31349,-0.0248 0.4707,-0.0156 z m 18.4043,21.19336 c 1.41783,0.1062 2.60714,1.191 2.79297,2.6582 l 0.93555,7.38477 c 0.21236,1.6768 -0.9697,3.19778 -2.64649,3.41015 -1.67682,0.21234 -3.1978,-0.9658 -3.41016,-2.64258 l -0.93359,-7.38476 c -0.21235,-1.6768 0.96577,-3.19779 2.64258,-3.41016 0.2096,-0.0265 0.41659,-0.0308 0.61914,-0.0156 z m -75.69922,9.58789 c 1.41727,0.10628 2.6052,1.191 2.79102,2.6582 l 0.93554,7.38477 c 0.21237,1.6768 -0.96774,3.19584 -2.64453,3.4082 -1.67681,0.21236 -3.19585,-0.96582 -3.4082,-2.64258 l -0.93555,-7.38281 c -0.21237,-1.67682 0.96576,-3.19779 2.64258,-3.41016 0.2096,-0.0265 0.41667,-0.0308 0.61914,-0.0156 z m 46.19922,1.5625 0.80273,6.33789 -16.1914,2.05078 -0.80274,-6.33789 z m 32.09961,4.87695 0.25195,1.99414 -77.83398,9.85742 -0.25196,-1.99414 z m -8.62891,4.6582 1.23438,9.75782 c 0.0594,0.46885 0.22186,0.89639 0.45312,1.27343 h -21.7207 v 7.22852 h -38.40039 c 0.0532,-0.30751 0.0785,-0.62472 0.0371,-0.95117 l -1.23633,-9.75586 z" />
    </g>
    <path
       d="m 80.950895,64.567153 3.81e-4,581.184677 H 462.13677 L 462.13639,64.567153 Z M 91.988181,75.604445 H 451.10487 l 3.8e-4,559.115865 H 91.988559 Z"
       style="opacity:1;fill:#ffffff;fill-opacity:1;stroke:none;stroke-width:21.1609;stroke-miterlimit:4;stroke-dasharray:none;stroke-opacity:1"
       id="path3325"
       sodipodi:nodetypes="cccccccccc" />
  </g>
</svg>
