<?xml version="1.0" encoding="UTF-8" standalone="no"?>
<svg
   xmlns:dc="http://purl.org/dc/elements/1.1/"
   xmlns:cc="http://creativecommons.org/ns#"
   xmlns:rdf="http://www.w3.org/1999/02/22-rdf-syntax-ns#"
   xmlns:svg="http://www.w3.org/2000/svg"
   xmlns="http://www.w3.org/2000/svg"
   xmlns:sodipodi="http://sodipodi.sourceforge.net/DTD/sodipodi-0.dtd"
   xmlns:inkscape="http://www.inkscape.org/namespaces/inkscape"
   inkscape:version="1.0 (4035a4fb49, 2020-05-01)"
   sodipodi:docname="616a.svg"
   viewBox="0 0 300 195.98216"
   height="195.98216"
   width="300"
   id="svg1140"
   version="1.1">
  <metadata
     id="metadata1146">
    <rdf:RDF>
      <cc:Work
         rdf:about="">
        <dc:format>image/svg+xml</dc:format>
        <dc:type
           rdf:resource="http://purl.org/dc/dcmitype/StillImage" />
        <dc:title></dc:title>
      </cc:Work>
    </rdf:RDF>
  </metadata>
  <defs
     id="defs1144" />
  <sodipodi:namedview
     inkscape:document-rotation="0"
     inkscape:current-layer="g1148"
     inkscape:window-maximized="1"
     inkscape:window-y="-9"
     inkscape:window-x="-9"
     inkscape:cy="187.63051"
     inkscape:cx="417.15901"
     inkscape:zoom="4"
     showgrid="false"
     id="namedview1142"
     inkscape:window-height="1001"
     inkscape:window-width="1920"
     inkscape:pageshadow="2"
     inkscape:pageopacity="0"
     guidetolerance="10"
     gridtolerance="10"
     objecttolerance="10"
     borderopacity="1"
     bordercolor="#666666"
     pagecolor="#ffffff" />
  <g
     transform="translate(181.16685,-77.44384)"
     id="g1148"
     inkscape:label="Image"
     inkscape:groupmode="layer">
    <text
       id="text1186"
       y="110.87349"
       x="161.20482"
       style="font-style:normal;font-weight:normal;font-size:40px;line-height:1.25;font-family:sans-serif;fill:#000000;fill-opacity:1;stroke:none"
       xml:space="preserve"><tspan
         y="110.87349"
         x="161.20482"
         id="tspan1184"
         sodipodi:role="line" /></text>
    <path
       sodipodi:nodetypes="ccccc"
       id="path2610-3"
       d="m -181.16685,77.44384 v 195.98215 l 300,2e-5 V 77.443861 Z"
       style="color:#000000;font-style:normal;font-variant:normal;font-weight:normal;font-stretch:normal;font-size:medium;line-height:normal;font-family:sans-serif;font-variant-ligatures:normal;font-variant-position:normal;font-variant-caps:normal;font-variant-numeric:normal;font-variant-alternates:normal;font-variant-east-asian:normal;font-feature-settings:normal;font-variation-settings:normal;text-indent:0;text-align:start;text-decoration:none;text-decoration-line:none;text-decoration-style:solid;text-decoration-color:#000000;letter-spacing:normal;word-spacing:normal;text-transform:none;writing-mode:lr-tb;direction:ltr;text-orientation:mixed;dominant-baseline:auto;baseline-shift:baseline;text-anchor:start;white-space:normal;shape-padding:0;shape-margin:0;inline-size:0;clip-rule:nonzero;display:inline;overflow:visible;visibility:visible;opacity:1;isolation:auto;mix-blend-mode:normal;color-interpolation:sRGB;color-interpolation-filters:linearRGB;solid-color:#000000;solid-opacity:1;vector-effect:none;fill:#01553b;fill-opacity:1;fill-rule:nonzero;stroke:none;stroke-width:0.373059;stroke-linecap:butt;stroke-linejoin:miter;stroke-miterlimit:4;stroke-dasharray:none;stroke-dashoffset:0;stroke-opacity:1;color-rendering:auto;image-rendering:auto;shape-rendering:auto;text-rendering:auto;enable-background:accumulate;stop-color:#000000;stop-opacity:1" />
    <path
       sodipodi:nodetypes="ssssssssssssssssss"
       id="path2502-0"
       d="m -169.79343,80.477836 c -4.5825,1.3e-5 -8.33808,3.755554 -8.33808,8.338182 V 262.05761 c 0,4.58275 3.75545,8.33539 8.33808,8.33537 l 277.25317,-8.1e-4 c 4.58251,-2e-5 8.33806,-3.75262 8.33806,-8.33523 V 88.815183 c 0,-4.582731 -3.75555,-8.338193 -8.33806,-8.33818 z m 0,3.625587 277.25317,-9.39e-4 c 2.62363,-9e-6 4.71257,2.088918 4.71257,4.712699 V 262.05678 c 0,2.62381 -2.08894,4.70964 -4.71257,4.70964 l -277.25317,8.1e-4 c -2.62368,0 -4.71247,-2.08598 -4.71247,-4.70977 V 88.816018 c 0,-2.623676 2.08879,-4.712586 4.71247,-4.712595 z"
       style="color:#000000;font-style:normal;font-variant:normal;font-weight:normal;font-stretch:normal;font-size:medium;line-height:normal;font-family:sans-serif;font-variant-ligatures:normal;font-variant-position:normal;font-variant-caps:normal;font-variant-numeric:normal;font-variant-alternates:normal;font-variant-east-asian:normal;font-feature-settings:normal;font-variation-settings:normal;text-indent:0;text-align:start;text-decoration:none;text-decoration-line:none;text-decoration-style:solid;text-decoration-color:#000000;letter-spacing:normal;word-spacing:normal;text-transform:none;writing-mode:lr-tb;direction:ltr;text-orientation:mixed;dominant-baseline:auto;baseline-shift:baseline;text-anchor:start;white-space:normal;shape-padding:0;shape-margin:0;inline-size:0;clip-rule:nonzero;display:inline;overflow:visible;visibility:visible;opacity:1;isolation:auto;mix-blend-mode:normal;color-interpolation:sRGB;color-interpolation-filters:linearRGB;solid-color:#000000;solid-opacity:1;vector-effect:none;fill:#ffffff;fill-opacity:1;fill-rule:nonzero;stroke:none;stroke-width:3.62457;stroke-linecap:butt;stroke-linejoin:miter;stroke-miterlimit:4;stroke-dasharray:none;stroke-dashoffset:0;stroke-opacity:1;color-rendering:auto;image-rendering:auto;shape-rendering:auto;text-rendering:auto;enable-background:accumulate;stop-color:#000000;stop-opacity:1" />
    <g
       transform="matrix(1.8841841,0,0,1.8841841,-311.4562,-65.809972)"
       style="font-style:normal;font-variant:normal;font-weight:normal;font-stretch:normal;font-size:17.7649px;line-height:1.25;font-family:'Heb Tamrurim';-inkscape-font-specification:'Heb Tamrurim';letter-spacing:0.75px;opacity:1;fill:#ffffff;fill-opacity:1;stroke:none;stroke-width:0.444121"
       id="text1178"
       aria-label="kmrv rv">
      <path
         id="path834"
         style="fill:#ffffff;stroke-width:0.444121"
         d="m 114.12096,85.224224 v 4.864694 l 5.47687,0.0089 v 5.203469 q -0.009,0.356606 -0.12778,0.695381 -0.87369,1.919727 -2.9212,1.417507 l -0.006,2.430861 q 0.43387,0.08321 0.87666,0.08321 4.23171,-0.407124 4.61804,-4.638844 l -0.009,-7.622443 -5.42932,0.0059 -0.006,-2.442748 -2.47247,-0.0059 z" />
      <path
         id="path836"
         style="fill:#ffffff;stroke-width:0.444121"
         d="m 124.55145,87.684802 0.006,0.01189 6.77253,9.705614 -6.59126,0.003 -0.009,2.433833 9.75316,-0.0059 0.003,-2.404116 -2.63591,-3.717613 0.56463,0.003 2.0802,-6.026634 -2.61214,0.0059 -1.42642,4.071247 -2.88553,-4.083134 -3.01926,0.003 z" />
      <path
         id="path838"
         style="fill:#ffffff;stroke-width:0.444121"
         d="m 137.04094,87.634283 -0.0119,2.430861 4.84092,-0.003 0.006,9.750191 2.46355,-0.0059 -0.003,-9.71453 q 0.003,-0.05646 0,-0.115896 -0.21991,-2.151521 -2.3744,-2.332795 l -4.92116,-0.0089 z" />
      <path
         id="path840"
         style="fill:#ffffff;stroke-width:0.444121"
         d="m 146.87563,87.643198 -0.003,2.436805 6.07121,0.003 -0.006,9.729389 2.45463,-0.003 -0.003,-12.16025 -8.51396,-0.0059 z m -0.006,5.479839 v 6.689326 l 2.43383,-0.0089 -0.003,-6.689326 -2.43086,0.0089 z" />
      <path
         id="path842"
         style="fill:#ffffff;stroke-width:0.444121"
         d="m 165.34844,87.634283 -0.0119,2.430861 4.84092,-0.003 0.006,9.750191 2.46355,-0.0059 -0.003,-9.71453 q 0.003,-0.05646 0,-0.115896 -0.21991,-2.151521 -2.3744,-2.332795 l -4.92116,-0.0089 z" />
      <path
         id="path844"
         style="fill:#ffffff;stroke-width:0.444121"
         d="m 175.18313,87.643198 -0.003,2.436805 6.07121,0.003 -0.006,9.729389 2.45463,-0.003 -0.003,-12.16025 -8.51396,-0.0059 z m -0.006,5.479839 v 6.689326 l 2.43383,-0.0089 -0.003,-6.689326 -2.43086,0.0089 z" />
    </g>
    <g
       transform="matrix(1.8841841,0,0,1.8841841,-311.4562,-65.809972)"
       style="font-style:normal;font-variant:normal;font-weight:normal;font-stretch:normal;font-size:13.8926px;line-height:1.25;font-family:Triumvirate;-inkscape-font-specification:Triumvirate;letter-spacing:1.02px;opacity:1;fill:#ffffff;fill-opacity:1;stroke:none;stroke-width:0.347313"
       id="text1182"
       aria-label="Mount Herzl">
      <path
         id="path163"
         style="font-style:normal;font-variant:normal;font-weight:normal;font-stretch:normal;font-family:Triumvirate;-inkscape-font-specification:Triumvirate;fill:#ffffff;stroke-width:0.347313"
         d="m 104.17476,126.80467 h 3.07026 l 1.72269,7.39086 h 0.0278 l 1.72268,-7.39086 h 3.07027 v 10.00267 h -1.94496 v -7.75207 h -0.0278 l -1.80604,7.75207 h -2.0561 l -1.80604,-7.75207 h -0.0278 v 7.75207 h -1.94496 z" />
      <path
         id="path165"
         style="font-style:normal;font-variant:normal;font-weight:normal;font-stretch:normal;font-family:Triumvirate;-inkscape-font-specification:Triumvirate;fill:#ffffff;stroke-width:0.347313"
         d="m 118.33694,133.18137 q 0,0.40289 0.0973,0.80577 0.0973,0.389 0.29174,0.70853 0.20839,0.30563 0.52792,0.50013 0.33343,0.1945 0.79188,0.1945 0.45846,0 0.77799,-0.1945 0.33342,-0.1945 0.52792,-0.50013 0.20839,-0.31953 0.30563,-0.70853 0.0973,-0.40288 0.0973,-0.80577 0,-0.41677 -0.0973,-0.80577 -0.0972,-0.40288 -0.30563,-0.70852 -0.1945,-0.31953 -0.52792,-0.50013 -0.31953,-0.1945 -0.77799,-0.1945 -0.45845,0 -0.79188,0.1945 -0.31953,0.1806 -0.52792,0.50013 -0.19449,0.30564 -0.29174,0.70852 -0.0973,0.389 -0.0973,0.80577 z m 1.70879,3.84825 q -0.83355,0 -1.51429,-0.26396 -0.68074,-0.26395 -1.18087,-0.7502 -0.48624,-0.50013 -0.7502,-1.20865 -0.26396,-0.72242 -0.26396,-1.62544 0,-0.90302 0.26396,-1.61154 0.26396,-0.72241 0.7502,-1.20865 0.50013,-0.50014 1.18087,-0.7641 0.68074,-0.26396 1.51429,-0.26396 0.83356,0 1.5143,0.26396 0.68073,0.26396 1.16697,0.7641 0.50014,0.48624 0.7641,1.20865 0.26396,0.70852 0.26396,1.61154 0,0.90302 -0.26396,1.62544 -0.26396,0.70852 -0.7641,1.20865 -0.48624,0.48625 -1.16697,0.7502 -0.68074,0.26396 -1.5143,0.26396 z" />
      <path
         id="path167"
         style="font-style:normal;font-variant:normal;font-weight:normal;font-stretch:normal;font-family:Triumvirate;-inkscape-font-specification:Triumvirate;fill:#ffffff;stroke-width:0.347313"
         d="m 130.96182,135.72372 h -0.0278 q -0.1945,0.40289 -0.47235,0.65295 -0.27785,0.25007 -0.58349,0.40289 -0.30564,0.13892 -0.61128,0.19449 -0.30563,0.0556 -0.5557,0.0556 -1.23644,0 -1.88939,-0.69463 -0.63906,-0.70852 -0.63906,-1.8755 v -4.90408 h 1.94496 v 4.43173 q 0,0.43068 0.11114,0.70853 0.11114,0.26396 0.27785,0.43067 0.18061,0.15282 0.41678,0.20839 0.23618,0.0556 0.48624,0.0556 0.26396,0 0.52792,-0.0973 0.26396,-0.0973 0.47235,-0.33342 0.20839,-0.25007 0.33342,-0.63906 0.12504,-0.40289 0.12504,-1.01416 v -3.751 h 1.94496 v 7.25193 h -1.86161 z" />
      <path
         id="path169"
         style="font-style:normal;font-variant:normal;font-weight:normal;font-stretch:normal;font-family:Triumvirate;-inkscape-font-specification:Triumvirate;fill:#ffffff;stroke-width:0.347313"
         d="m 135.83463,129.55541 h 1.86161 v 1.08362 h 0.0278 q 0.1945,-0.38899 0.47235,-0.63906 0.27786,-0.26396 0.58349,-0.40289 0.30564,-0.15282 0.61128,-0.20839 0.30563,-0.0556 0.5557,-0.0556 1.23644,0 1.8755,0.70853 0.65295,0.69463 0.65295,1.8616 v 4.90409 h -1.94496 v -4.43174 q 0,-0.43067 -0.11114,-0.69463 -0.11114,-0.27785 -0.29175,-0.43067 -0.16671,-0.16671 -0.40288,-0.22228 -0.23618,-0.0556 -0.48624,-0.0556 -0.26396,0 -0.52792,0.0973 -0.26396,0.0973 -0.47235,0.34731 -0.20839,0.23618 -0.33342,0.63906 -0.12503,0.40289 -0.12503,1.00027 v 3.751 h -1.94497 z" />
      <path
         id="path171"
         style="font-style:normal;font-variant:normal;font-weight:normal;font-stretch:normal;font-family:Triumvirate;-inkscape-font-specification:Triumvirate;fill:#ffffff;stroke-width:0.347313"
         d="m 148.73736,136.97405 q -0.19449,0.0278 -0.43067,0.0417 -0.23617,0.0139 -0.38899,0.0139 -0.70852,0 -1.16698,-0.11114 -0.44456,-0.11114 -0.69463,-0.3612 -0.25007,-0.26396 -0.34731,-0.66685 -0.0834,-0.41678 -0.0834,-1.01416 v -3.9316 h -0.9447 v -1.38926 h 0.9447 v -1.94497 h 1.94496 v 1.94497 h 1.16698 v 1.38926 h -1.16698 v 3.86214 q 0,0.25006 0.0278,0.38899 0.0417,0.13893 0.15282,0.20839 0.12503,0.0695 0.34731,0.0834 0.23618,0.0139 0.63906,0.0139 z" />
      <path
         id="path173"
         style="font-style:normal;font-variant:normal;font-weight:normal;font-stretch:normal;font-family:Triumvirate;-inkscape-font-specification:Triumvirate;fill:#ffffff;stroke-width:0.347313"
         d="m 156.93938,126.80467 h 2.0561 v 3.77879 h 3.86215 v -3.77879 h 2.0561 v 10.00267 h -2.0561 v -4.41784 h -3.86215 v 4.41784 h -2.0561 z" />
      <path
         id="path175"
         style="font-style:normal;font-variant:normal;font-weight:normal;font-stretch:normal;font-family:Triumvirate;-inkscape-font-specification:Triumvirate;fill:#ffffff;stroke-width:0.347313"
         d="m 172.38902,132.30614 q -0.0278,-0.25007 -0.11115,-0.50013 -0.0833,-0.25007 -0.25006,-0.44457 -0.16671,-0.19449 -0.43067,-0.31953 -0.25007,-0.12503 -0.62517,-0.12503 -0.36121,0 -0.62517,0.11114 -0.26396,0.11114 -0.44456,0.30564 -0.1806,0.1806 -0.27785,0.43067 -0.0973,0.25007 -0.12504,0.54181 z m 1.97274,2.33396 q -0.12503,0.3751 -0.3612,0.80577 -0.23618,0.41678 -0.63906,0.77798 -0.389,0.34732 -0.97248,0.58349 -0.5696,0.22228 -1.36148,0.22228 -1.63933,0 -2.58402,-0.98637 -0.9447,-0.98638 -0.9447,-2.79241 0,-0.97249 0.25007,-1.6949 0.26396,-0.73631 0.72241,-1.22255 0.47235,-0.50013 1.11141,-0.7502 0.65295,-0.25007 1.44483,-0.25007 0.88913,0 1.52819,0.31953 0.63906,0.30564 1.04194,0.88913 0.40289,0.5696 0.59738,1.37537 0.1945,0.80577 0.1945,1.77825 h -4.94577 q 0.0139,0.36121 0.0973,0.68074 0.0973,0.31953 0.27785,0.5557 0.1945,0.23618 0.50014,0.3751 0.31953,0.13893 0.79188,0.13893 0.31953,0 0.52792,-0.0695 0.22228,-0.0833 0.3612,-0.19449 0.15282,-0.12504 0.25007,-0.26396 0.0973,-0.15282 0.16671,-0.27785 z" />
      <path
         id="path177"
         style="font-style:normal;font-variant:normal;font-weight:normal;font-stretch:normal;font-family:Triumvirate;-inkscape-font-specification:Triumvirate;fill:#ffffff;stroke-width:0.347313"
         d="m 176.96856,129.55541 h 1.86161 v 1.19476 h 0.0278 q 0.0834,-0.13893 0.23618,-0.3751 0.15282,-0.23618 0.38899,-0.45846 0.25007,-0.23617 0.5696,-0.40288 0.31953,-0.18061 0.72241,-0.18061 0.0973,0 0.20839,0.0139 0.11114,0 0.20839,0.0139 v 1.97275 q -0.11114,-0.0139 -0.23617,-0.0139 -0.11115,-0.0139 -0.22229,-0.0139 -0.58349,0 -0.94469,0.16671 -0.34732,0.15282 -0.54181,0.41678 -0.1945,0.26396 -0.26396,0.59738 -0.0695,0.33343 -0.0695,0.68074 v 3.63986 h -1.94496 z" />
      <path
         id="path179"
         style="font-style:normal;font-variant:normal;font-weight:normal;font-stretch:normal;font-family:Triumvirate;-inkscape-font-specification:Triumvirate;fill:#ffffff;stroke-width:0.347313"
         d="m 182.70748,135.33473 3.90383,-4.19557 h -3.65376 v -1.58375 h 5.95993 v 1.58375 l -3.80658,4.08443 h 3.91772 v 1.58375 h -6.32114 z" />
      <path
         id="path181"
         style="font-style:normal;font-variant:normal;font-weight:normal;font-stretch:normal;font-family:Triumvirate;-inkscape-font-specification:Triumvirate;fill:#ffffff;stroke-width:0.347313"
         d="m 191.31285,126.80467 h 1.94496 v 10.00267 h -1.94496 z" />
    </g>
    <g
       style="opacity:1;fill:#ffffff"
       transform="matrix(1.1938659,0,0,1.1938659,-120.82095,50.421869)"
       id="surface4208814">
      <g
         style="fill:#ffffff;fill-opacity:1"
         id="g1230">
        <g
           style="fill:#ffffff"
           id="use1228"
           transform="translate(93.599998,88.080002)">
          <path
             transform="matrix(1.5782209,0,0,1.5782209,-253.27895,-185.43754)"
             d="m 168.27539,108.41992 -1.45508,1.0586 v 9.44531 c -0.53462,0.23761 -1.00528,0.4049 -1.40625,0.5039 -0.40344,0.099 -0.81074,0.14844 -1.22656,0.14844 -0.79946,0 -1.41126,-0.21204 -1.83203,-0.63281 -0.42324,-0.42324 -0.63477,-1.04455 -0.63477,-1.86133 0,-0.14355 0.0114,-0.29901 0.0312,-0.46484 0.0248,-0.17078 0.0627,-0.36136 0.11719,-0.57422 h -0.38476 c -0.19306,0.41582 -0.33421,0.8161 -0.42579,1.19726 -0.0941,0.38117 -0.13867,0.76714 -0.13867,1.15821 0,1.06924 0.27761,1.93524 0.83203,2.60351 0.55442,0.6658 1.27928,1 2.17774,1 1.18804,0 2.16956,-0.50864 2.94922,-1.52343 0.7846,-1.01727 1.17968,-2.32544 1.17968,-3.92188 v -0.25586 h 0.12696 c 0.0718,0.40344 0.19874,0.70004 0.37695,0.89063 0.17677,0.18633 0.41623,0.28284 0.71289,0.30078 v 0.006 h 4.58789 3.98047 0.0996 c 0.30939,0 0.52377,-0.0351 0.64258,-0.10938 0.1188,-0.0792 0.23185,-0.24168 0.3457,-0.49414 l 0.48633,-1.05078 h 0.12891 c 0.0718,0.48264 0.25286,0.88007 0.54492,1.18945 0.28958,0.31187 0.60518,0.46485 0.94922,0.46485 h 0.30273 0.14258 1.56055 c 1.16082,0 2.2317,-0.25185 3.21679,-0.76172 0.0792,-0.0446 0.13527,-0.0798 0.16992,-0.0996 1.04944,-0.53462 1.84272,-0.89211 2.38477,-1.07031 0.53957,-0.17821 1.03586,-0.26563 1.48633,-0.26563 0.1782,0 0.3079,0.007 0.39453,0.0195 l 1.06055,-1.89062 c -0.0594,0.007 -0.1346,0.01 -0.21875,0.01 h -0.33594 c -0.51482,0 -1.08435,-0.0751 -1.70313,-0.22851 -0.62125,-0.15098 -1.2354,-0.36966 -1.84179,-0.6543 -0.25741,-0.11138 -0.60345,-0.27867 -1.03907,-0.50391 -0.98508,-0.49997 -1.66284,-0.75195 -2.03906,-0.75195 -0.51482,0 -0.94073,0.20489 -1.27734,0.61328 -0.33167,0.41087 -0.52224,0.96609 -0.57422,1.66406 h 0.25781 c 0.099,-0.2178 0.22155,-0.37274 0.375,-0.46679 0.15098,-0.0916 0.34872,-0.13867 0.59375,-0.13867 0.46779,0 1.0891,0.20684 1.86133,0.61523 0.77718,0.41087 1.35855,0.67703 1.74219,0.80078 -0.21781,0.15346 -0.47214,0.26377 -0.76172,0.32813 -0.29206,0.0668 -0.76259,0.0976 -1.41602,0.0976 h -3.89648 -0.14258 -0.17383 c -0.24503,0 -0.42143,-0.0423 -0.52539,-0.1289 -0.10643,-0.0842 -0.17719,-0.23961 -0.2168,-0.46485 l -0.42578,-2.23828 -1.07031,1.56446 0.25781,1.26757 h -1.3457 -3.98047 -4.54883 -0.45507 c -0.25246,0 -0.4126,-0.0285 -0.48438,-0.0879 -0.0668,-0.0594 -0.0996,-0.24998 -0.0996,-0.57422 z m 10.79492,9.93946 -0.88086,1.26757 1.34766,0.91993 0.87109,-1.24805 z m 7.1543,0 -0.75195,1.1289 1.20703,0.80078 0.7539,-1.10742 z"
             style="fill:#ffffff;stroke:none;stroke-width:0.633625"
             id="path1307" />
        </g>
      </g>
      <g
         style="fill:#ffffff;fill-opacity:1"
         id="g1234">
        <g
           style="fill:#ffffff"
           id="use1232"
           transform="translate(107.54134,88.080002)" />
      </g>
      <g
         style="fill:#ffffff;fill-opacity:1"
         id="g1238">
        <g
           style="fill:#ffffff"
           id="use1236"
           transform="translate(113.23663,88.080002)" />
      </g>
      <g
         style="fill:#ffffff;fill-opacity:1"
         id="g1242">
        <g
           style="fill:#ffffff"
           id="use1240"
           transform="translate(119.09111,88.080002)" />
      </g>
      <g
         style="fill:#ffffff;fill-opacity:1"
         id="g1246">
        <g
           style="fill:#ffffff"
           id="use1244"
           transform="translate(126.5218,88.080002)" />
      </g>
      <g
         style="fill:#ffffff;fill-opacity:1"
         id="g1250">
        <g
           style="fill:#ffffff"
           id="use1248"
           transform="translate(143.75999,88.080002)">
          <path
             id="path1327"
             d=""
             style="fill:#ffffff;stroke:none" />
        </g>
      </g>
      <g
         transform="translate(-181.17937)"
         style="fill:#ffffff;fill-opacity:1"
         id="g1254">
        <g
           style="fill:#ffffff"
           id="use1252"
           transform="translate(148.31999,88.080002)">
          <path
             transform="matrix(1.5782209,0,0,1.5782209,-126.81957,-185.43754)"
             d="m 151.69336,110.78516 c -0.13366,0 -0.23916,0.0304 -0.31836,0.0898 -0.0792,0.0594 -0.14763,0.16308 -0.20703,0.30664 l -0.56445,1.3457 0.33593,0.10938 -0.64257,1.20703 c -0.0347,0.0792 -0.0603,0.1449 -0.0801,0.18945 -0.0149,0.047 -0.0195,0.0893 -0.0195,0.12891 0,0.0545 0.009,0.10623 0.0293,0.1582 0.0198,0.0544 0.0526,0.10857 0.0996,0.16797 l 0.27735,0.32617 h -2.10938 -0.20703 -3.39649 l -0.004,0.0527 v -0.0527 h -0.20703 c -0.26484,0 -0.46257,-0.0446 -0.59375,-0.13867 -0.13365,-0.099 -0.26764,-0.31807 -0.40625,-0.66211 l -0.58399,-1.43555 -1.01953,1.45508 c 0.35642,0.42324 0.62687,0.87998 0.8125,1.375 0.19058,0.49007 0.28711,0.97921 0.28711,1.4668 0,0.87123 -0.35514,1.60324 -1.06055,2.19727 -0.70787,0.59897 -1.57387,0.90039 -2.60351,0.90039 -0.10643,0 -0.22195,-0.005 -0.3457,-0.01 -0.11881,-0.007 -0.28572,-0.0169 -0.4961,-0.0293 V 120.25 c 0.46037,0.40097 0.90527,0.70472 1.33594,0.91016 0.42819,0.21038 0.83277,0.31836 1.20898,0.31836 0.81679,0 1.47569,-0.44218 1.97071,-1.31836 0.49996,-0.87866 0.75195,-2.06507 0.75195,-3.5625 h 0.16797 c 0,0.27721 0.0613,0.49159 0.1875,0.64257 0.13118,0.14604 0.32891,0.23307 0.59375,0.25782 v -0.0508 l 0.004,0.0508 h 3.39649 0.20703 1.51563 c 0.55442,0 0.99216,-0.0846 1.3164,-0.25782 0.32919,-0.1782 0.56452,-0.44436 0.70313,-0.80078 0.6856,0.30444 1.3164,0.54016 1.89062,0.71094 0.57422,0.16583 1.04475,0.24805 1.41602,0.24805 0.1188,0 0.21285,-0.0118 0.28711,-0.0391 0.0718,-0.0248 0.1307,-0.0695 0.17773,-0.12891 l 0.82227,-2.12891 c -0.38364,-0.73263 -0.76246,-1.34677 -1.13867,-1.84179 -0.37127,-0.49502 -0.77142,-0.90948 -1.20704,-1.2461 -0.44304,-0.35641 -0.92072,-0.6482 -1.43554,-0.88086 -0.50987,-0.23018 -0.89103,-0.34765 -1.14844,-0.34765 z m 0.57422,1.96093 0.67187,1.14844 -0.66211,0.51367 -0.9707,-0.56445 z m 1.65234,0.77149 c 0.53462,0.32424 0.92528,0.60185 1.17774,0.83203 0.24998,0.22523 0.37695,0.41581 0.37695,0.57422 v 0.0684 l -0.14844,0.36719 -1.89062,-0.64258 z"
             style="fill:#ffffff;stroke:none;stroke-width:0.633625"
             id="path1331" />
        </g>
      </g>
      <g
         transform="translate(-181.17937)"
         style="fill:#ffffff;fill-opacity:1"
         id="g1258">
        <g
           style="fill:#ffffff"
           id="use1256"
           transform="translate(158.13831,88.080002)" />
      </g>
      <g
         transform="translate(-89.642602)"
         style="fill:#ffffff;fill-opacity:1"
         id="g1262">
        <g
           style="fill:#ffffff"
           id="use1260"
           transform="translate(163.9928,88.080002)" />
      </g>
      <g
         style="fill:#ffffff;fill-opacity:1"
         id="g1266">
        <g
           style="fill:#ffffff"
           id="use1264"
           transform="translate(177.84,88.080002)">
          <path
             id="path1343"
             d=""
             style="fill:#ffffff;stroke:none" />
        </g>
      </g>
      <g
         transform="translate(-181.17937)"
         style="fill:#ffffff;fill-opacity:1"
         id="g1270">
        <g
           style="fill:#ffffff"
           id="use1268"
           transform="translate(182.39999,88.080002)">
          <path
             transform="matrix(1.5782209,0,0,1.5782209,-160.89957,-185.43754)"
             d="m 109.74219,108.41992 -1.45508,1.0586 v 9.44531 c -0.53462,0.23761 -1.00528,0.4049 -1.40625,0.5039 -0.40344,0.099 -0.8127,0.14844 -1.22852,0.14844 -0.79945,0 -1.41126,-0.21204 -1.83203,-0.63281 -0.42324,-0.42324 -0.63281,-1.04455 -0.63281,-1.86133 0,-0.14355 0.01,-0.29901 0.0293,-0.46484 0.0247,-0.17078 0.0647,-0.36136 0.11914,-0.57422 h -0.38672 c -0.19306,0.41582 -0.3342,0.8161 -0.42578,1.19726 -0.0941,0.38117 -0.13867,0.76714 -0.13867,1.15821 0,1.06924 0.27761,1.93524 0.83203,2.60351 0.55442,0.6658 1.27927,1 2.17773,1 1.18805,0 2.17152,-0.50864 2.95117,-1.52343 0.78461,-1.01727 1.17774,-2.32544 1.17774,-3.92188 v -0.25586 h 0.1289 c 0.0718,0.40344 0.19875,0.70004 0.37696,0.89063 0.15721,0.16571 0.371,0.25087 0.62304,0.2832 v 0.0234 h 0.11914 1.75196 l 0.82226,-0.79297 0.83203,0.79297 h 1.58399 l 0.82226,-0.79297 0.83204,0.79297 H 119 l 0.83008,-0.79297 0.82226,0.79297 h 0.66407 3.58593 9.2168 1.38281 c 0.15098,0 0.27795,-0.0351 0.37696,-0.10938 0.10395,-0.0718 0.18903,-0.18014 0.25586,-0.32617 l 0.7539,-1.85156 c 0.0248,-0.052 0.0414,-0.10375 0.0488,-0.15821 0.0124,-0.052 0.0195,-0.10856 0.0195,-0.16796 0,-0.0198 -0.007,-0.0526 -0.0195,-0.0996 -0.007,-0.0446 -0.0241,-0.094 -0.0488,-0.14844 l -0.98047,-2.77149 -0.96093,1.39454 0.51562,1.55468 h -1.34375 -9.2168 -3.58593 -0.26758 c -0.25246,0 -0.42639,-0.0589 -0.52539,-0.17773 -0.0941,-0.11881 -0.13867,-0.3821 -0.13867,-0.79297 v -0.41406 l -1.13868,0.54297 v 0.26757 c 0,0.21781 -0.0494,0.37093 -0.14843,0.45508 -0.0941,0.0792 -0.25654,0.11914 -0.49414,0.11914 h -1.42579 v -1.38476 l -1.14843,0.54297 v 0.26757 c 0,0.21781 -0.0471,0.37093 -0.13868,0.45508 -0.094,0.0792 -0.26329,0.11914 -0.50585,0.11914 h -1.46485 v -1.38476 l -1.13867,0.54297 v 0.26757 c 0,0.21781 -0.0494,0.37093 -0.14844,0.45508 -0.0941,0.0792 -0.25653,0.11914 -0.49414,0.11914 h -1.35742 -0.12891 -0.32617 c -0.25246,0 -0.41455,-0.0285 -0.48633,-0.0879 -0.0668,-0.0594 -0.0977,-0.24998 -0.0977,-0.57422 z m 23.64062,0.82031 -0.76172,1.11915 1.2168,0.82226 0.75391,-1.12891 z m 2.17774,0 -0.75196,1.11915 1.20899,0.82226 0.75195,-1.12891 z"
             style="fill:#ffffff;stroke:none;stroke-width:0.633625"
             id="path1347" />
        </g>
      </g>
      <g
         transform="translate(-181.17937)"
         style="fill:#ffffff;fill-opacity:1"
         id="g1274">
        <g
           style="fill:#ffffff"
           id="use1272"
           transform="translate(196.13553,88.080002)" />
      </g>
      <g
         transform="translate(-181.17937)"
         style="fill:#ffffff;fill-opacity:1"
         id="g1278">
        <g
           style="fill:#ffffff"
           id="use1276"
           transform="translate(212.9355,88.080002)" />
      </g>
      <g
         transform="translate(-181.17937)"
         style="fill:#ffffff;fill-opacity:1"
         id="g1282">
        <g
           style="fill:#ffffff"
           id="use1280"
           transform="translate(218.63078,88.080002)" />
      </g>
      <g
         transform="translate(-181.17937)"
         style="fill:#ffffff;fill-opacity:1"
         id="g1286">
        <g
           style="fill:#ffffff"
           id="use1284"
           transform="translate(224.32607,88.080002)" />
      </g>
      <g
         transform="translate(-181.17937)"
         style="fill:#ffffff;fill-opacity:1"
         id="g1290">
        <g
           style="fill:#ffffff"
           id="use1288"
           transform="translate(230.18054,88.080002)" />
      </g>
      <g
         style="fill:#ffffff;fill-opacity:1"
         id="g1294">
        <g
           style="fill:#ffffff"
           id="use1292"
           transform="translate(238.44,88.080002)">
          <path
             id="path1371"
             d=""
             style="fill:#ffffff;stroke:none" />
        </g>
      </g>
      <g
         style="fill:#ffffff;fill-opacity:1"
         id="g1298">
        <g
           style="fill:#ffffff"
           id="use1296"
           transform="translate(243.12001,88.080002)">
          <path
             id="path1375"
             d=""
             style="fill:#ffffff;stroke:none" />
        </g>
      </g>
    </g>
    <path
       id="rect19804"
       style="opacity:1;fill:#ffffff;stroke-width:64.5499"
       d="m -132.05836,204.57003 c -0.29283,-0.006 -0.58359,0.0501 -0.80862,0.18981 -0.52767,0.32768 -0.83125,1.11621 -0.7328,1.71321 l 1.76719,8.92749 h -5.82505 c -13.2969,0 -24.00164,10.70473 -24.00164,24.00163 -1.2e-4,4.61018 8e-5,14.79376 8e-5,14.79376 h 10.57965 v -15.99488 c 0,-6.76358 5.44494,-12.20868 12.20853,-12.20868 h 7.06312 l -1.79526,8.98709 c -0.0939,0.59314 0.12816,1.2937 0.60217,1.62258 0.5323,0.36938 1.22097,0.53294 1.94372,-0.004 l 18.7475,-14.59159 c 0.3295,-0.23889 0.59368,-0.8109 0.596,-1.28221 0.004,-0.46126 -0.32301,-1.09277 -0.57106,-1.26044 l -18.76855,-14.60356 c -0.24851,-0.17033 -0.6285,-0.28185 -1.00498,-0.28993 z" />
    <path
       d="m 78.97026,204.57003 c -0.29284,-0.006 -0.58359,0.0501 -0.80862,0.18981 -0.52766,0.32768 -0.83124,1.11621 -0.7328,1.71321 l 1.76718,8.92749 h -5.82505 c -13.29689,0 -24.00162,10.70473 -24.00162,24.00163 -1.3e-4,4.61018 7e-5,14.79376 7e-5,14.79376 h 10.57964 v -15.99488 c 0,-6.76358 5.44495,-12.20868 12.20853,-12.20868 h 7.06313 l -1.79527,8.98709 c -0.094,0.59314 0.12813,1.2937 0.60217,1.62258 0.53232,0.36938 1.22099,0.53294 1.94372,-0.004 l 18.7475,-14.59159 c 0.32951,-0.23889 0.59369,-0.8109 0.59601,-1.28221 0.004,-0.46126 -0.32301,-1.09277 -0.57106,-1.26044 L 79.97524,204.86024 c -0.2485,-0.17033 -0.6285,-0.28185 -1.00498,-0.28993 z"
       style="opacity:1;fill:#ffffff;stroke-width:64.5499"
       id="path797" />
  </g>
</svg>
