<?xml version="1.0" encoding="UTF-8" standalone="no"?>
<svg
   xmlns:dc="http://purl.org/dc/elements/1.1/"
   xmlns:cc="http://creativecommons.org/ns#"
   xmlns:rdf="http://www.w3.org/1999/02/22-rdf-syntax-ns#"
   xmlns:svg="http://www.w3.org/2000/svg"
   xmlns="http://www.w3.org/2000/svg"
   xmlns:sodipodi="http://sodipodi.sourceforge.net/DTD/sodipodi-0.dtd"
   xmlns:inkscape="http://www.inkscape.org/namespaces/inkscape"
   inkscape:version="1.0 (4035a4fb49, 2020-05-01)"
   sodipodi:docname="636.svg"
   viewBox="0 0 300.00001 300.00091"
   height="300.00092"
   width="300"
   id="svg4916"
   version="1.1">
  <metadata
     id="metadata4922">
    <rdf:RDF>
      <cc:Work
         rdf:about="">
        <dc:format>image/svg+xml</dc:format>
        <dc:type
           rdf:resource="http://purl.org/dc/dcmitype/StillImage" />
        <dc:title></dc:title>
      </cc:Work>
    </rdf:RDF>
  </metadata>
  <defs
     id="defs4920" />
  <sodipodi:namedview
     inkscape:current-layer="g4924"
     inkscape:window-maximized="1"
     inkscape:window-y="-9"
     inkscape:window-x="-9"
     inkscape:cy="146.38201"
     inkscape:cx="-1.1636337"
     inkscape:zoom="1.3833333"
     showgrid="false"
     id="namedview4918"
     inkscape:window-height="1001"
     inkscape:window-width="1920"
     inkscape:pageshadow="2"
     inkscape:pageopacity="0"
     guidetolerance="10"
     gridtolerance="10"
     objecttolerance="10"
     borderopacity="1"
     bordercolor="#666666"
     pagecolor="#ffffff" />
  <g
     transform="translate(-27.170567,-43.982127)"
     id="g4924"
     inkscape:label="Image"
     inkscape:groupmode="layer">
    <path
       id="path3323"
       style="opacity:1;fill:#070fdb;fill-opacity:1;stroke:none;stroke-width:17.9795;stroke-miterlimit:4;stroke-dasharray:none;stroke-opacity:1"
       d="M 27.170567,43.982127 V 343.98305 H 327.17057 V 43.982127 Z"
       inkscape:connector-curvature="0"
       sodipodi:nodetypes="ccccc" />
    <path
       id="path3325"
       style="opacity:1;fill:#ffffff;fill-opacity:1;stroke:none;stroke-width:15.8707;stroke-miterlimit:4;stroke-dasharray:none;stroke-opacity:1"
       d="M 34.224326,51.035886 V 336.9253 H 320.11374 V 51.035886 Z m 8.277982,8.277982 H 311.84011 V 328.65167 H 42.502308 Z" />
    <path
       d="m 252.86667,85.912007 -47.36865,88.149323 h 25.00886 v 141.90948 h 44.91607 V 174.06133 h 24.81006 z"
       style="opacity:1;fill:#ffffff;fill-opacity:1;stroke-width:17.777"
       id="rect4928" />
    <path
       id="path4938"
       style="opacity:1;fill:#ffffff;fill-opacity:1;stroke-width:11.4354"
       d="m 133.15853,316.39859 -30.47095,-56.70404 h 16.0875 v -91.28648 h 28.89328 v 91.28648 h 15.95963 z" />
    <path
       sodipodi:nodetypes="cccccccssscccssssccccccscssccsscsccsssscccsscccccccsssccsscccssssccccssscsscccccccccccccccccccccccsccccc"
       style="opacity:1;fill:#ffffff;fill-opacity:1;fill-rule:evenodd;stroke-width:2.37864"
       id="path38"
       inkscape:connector-curvature="0"
       d="m 147.50703,143.55995 h 2.31774 v -2.62083 h -3.55263 l -1.84859,-3.85568 c 2.0039,-1.23383 3.23774,-3.08887 3.69826,-5.24807 h 2.01246 c 0.92432,10.49077 9.71856,18.51491 20.21146,18.51491 11.26303,0 20.52104,-9.10376 20.52104,-20.36567 0,-11.26294 -9.25801,-20.36246 -20.52104,-20.36246 -3.24198,0 -4.78641,0.30951 -7.86993,1.69651 l -8.02419,-14.039106 1.54445,-4.323768 c 2.1581,-0.151851 5.55548,-2.158153 5.55548,-4.62475 0,-0.464787 -0.30959,-0.772222 -0.7744,-0.772222 H 143.1897 c -0.9254,0 -1.69866,0.772222 -1.69866,1.696544 0,0.772223 0.61907,1.542275 1.38806,1.696545 l 7.86999,1.696487 -1.85293,5.093857 h -37.18952 l 0.77868,-3.089954 h -0.006 c 0.15832,-0.307358 0.15832,-0.770091 0.15832,-1.2317 0,-1.544444 -0.77864,-3.085635 -2.16241,-4.009938 -0.31064,-0.155087 -0.46485,-0.464825 -0.46485,-0.772184 0,-0.616887 0.46485,-1.079657 0.9243,-1.079657 h 7.86994 v -5.0895 h -9.41295 c -3.08349,0 -5.55226,2.468728 -5.55226,5.396935 0,2.005997 1.07964,3.702541 2.62298,4.782141 0.62013,0.307396 0.92535,0.772203 0.92535,1.389128 0,0.152994 0,0.307417 -0.15527,0.462694 l -4.32141,16.511068 c -2.31345,-0.92756 -4.782159,-1.38913 -7.095571,-1.38913 -11.267295,0 -20.366771,9.25374 -20.366771,20.36246 0,11.26191 9.099476,20.36567 20.366771,20.36567 11.267261,0 20.371051,-9.10376 20.371051,-20.36567 0,-6.63182 -3.24308,-12.80526 -8.64433,-16.50784 l 0.61909,-2.62078 23.60877,16.66202 c -0.30953,1.2317 -0.46376,1.2317 -0.46376,2.4666 0,4.78538 3.85679,8.48583 8.48472,8.48583 0.92858,0 1.69864,-0.15186 2.62298,-0.30742 l 1.23385,2.7761 h -2.31349 v 2.62083 h 2.31349 3.85782 m -13.11159,-13.57534 c 0,3.08459 2.46339,5.4023 5.39694,5.4023 3.0867,0 5.55547,-2.31771 5.55547,-5.4023 0,-2.93142 -2.46877,-5.39799 -5.55547,-5.39799 -2.93355,0 -5.39694,2.46657 -5.39694,5.39799 m -38.269073,2.00602 h -0.460562 c -1.078534,0 -2.012485,-0.77218 -2.012485,-2.00602 0,-0.61801 0.469107,-1.2349 0.933951,-1.69651 2.928225,-1.85181 4.932109,-4.47258 5.702159,-7.86995 l 1.0839,-3.54833 c -2.163479,-0.92426 -3.243079,-1.07853 -5.556491,-1.07853 -7.869963,0 -14.349714,6.32769 -14.349714,14.19332 0,7.86891 6.479751,14.34757 14.349714,14.34757 7.874251,0 14.195501,-6.47866 14.195501,-14.34757 0,-3.70146 -1.54338,-7.40402 -4.16312,-10.02913 l -1.23387,4.16955 c -1.0796,4.16307 -4.32592,7.09342 -8.488983,7.8656 m 69.432943,-15.42821 c 1.54443,-0.46158 3.24311,-0.77113 4.78647,-0.77113 7.86995,0 14.34648,6.32769 14.34648,14.19332 0,7.86891 -6.47653,14.34757 -14.34648,14.34757 -7.09991,0 -13.12017,-5.39907 -14.04449,-12.49681 h 14.96876 c 0.92536,0 1.84969,-0.77222 1.84969,-1.85076 0,-0.30846 -0.15091,-0.61801 -0.30523,-0.92535 z m -9.25802,11.57254 h 10.02812 l -5.08742,-8.95061 c -2.78255,2.31769 -4.47694,5.40227 -4.9407,8.95061 m -8.17947,0 c -0.46054,-1.85181 -1.53904,-3.70255 -3.08352,-4.78217 l 7.09993,-19.74878 6.01595,10.18228 c -4.78216,3.54623 -7.55933,8.4869 -8.01987,14.34867 z m -12.032,-11.72675 h -3.85784 -2.31771 v 2.77614 h 3.55153 l 1.69865,3.70577 -0.46374,0.46267 -25.15325,-17.59063 0.77441,-2.93038 h 36.72037 l -6.79037,18.67026 h -0.30527 c -1.23382,0 -1.3891,0 -2.62293,0.4616 l -1.23385,-2.77929 h 2.31343 v -2.77614 z" />
  </g>
</svg>
