<?xml version="1.0" encoding="UTF-8" standalone="no"?>
<svg
   xmlns:dc="http://purl.org/dc/elements/1.1/"
   xmlns:cc="http://creativecommons.org/ns#"
   xmlns:rdf="http://www.w3.org/1999/02/22-rdf-syntax-ns#"
   xmlns:svg="http://www.w3.org/2000/svg"
   xmlns="http://www.w3.org/2000/svg"
   xmlns:sodipodi="http://sodipodi.sourceforge.net/DTD/sodipodi-0.dtd"
   xmlns:inkscape="http://www.inkscape.org/namespaces/inkscape"
   sodipodi:docname="602a.svg"
   inkscape:version="1.0 (4035a4fb49, 2020-05-01)"
   id="svg9583"
   version="1.1"
   viewBox="0 0 92.604181 66.145828"
   height="66.145828mm"
   width="92.604179mm">
  <defs
     id="defs9577">
    <clipPath
       id="clip1">
      <path
         d="m 100,521 h 138 v 91.60156 H 100 Z m 0,0"
         id="path5580" />
    </clipPath>
    <clipPath
       id="clip1-4">
      <path
         d="m 372,466 h 105 v 78.80078 H 372 Z m 0,0"
         id="path13716" />
    </clipPath>
  </defs>
  <sodipodi:namedview
     inkscape:guide-bbox="true"
     showguides="true"
     inkscape:window-maximized="1"
     inkscape:window-y="-9"
     inkscape:window-x="-9"
     inkscape:window-height="1001"
     inkscape:window-width="1920"
     showgrid="false"
     inkscape:document-rotation="0"
     inkscape:current-layer="layer1"
     inkscape:document-units="mm"
     inkscape:cy="164.62997"
     inkscape:cx="90.019481"
     inkscape:zoom="1.979899"
     inkscape:pageshadow="2"
     inkscape:pageopacity="0.0"
     borderopacity="1.0"
     bordercolor="#666666"
     pagecolor="#ffffff"
     id="base" />
  <metadata
     id="metadata9580">
    <rdf:RDF>
      <cc:Work
         rdf:about="">
        <dc:format>image/svg+xml</dc:format>
        <dc:type
           rdf:resource="http://purl.org/dc/dcmitype/StillImage" />
        <dc:title></dc:title>
      </cc:Work>
    </rdf:RDF>
  </metadata>
  <g
     transform="translate(22.522514,-163.03644)"
     id="layer1"
     inkscape:groupmode="layer"
     inkscape:label="Layer 1">
    <path
       style="color:#000000;font-style:normal;font-variant:normal;font-weight:normal;font-stretch:normal;font-size:medium;line-height:normal;font-family:sans-serif;font-variant-ligatures:normal;font-variant-position:normal;font-variant-caps:normal;font-variant-numeric:normal;font-variant-alternates:normal;font-variant-east-asian:normal;font-feature-settings:normal;font-variation-settings:normal;text-indent:0;text-align:start;text-decoration:none;text-decoration-line:none;text-decoration-style:solid;text-decoration-color:#000000;letter-spacing:normal;word-spacing:normal;text-transform:none;writing-mode:lr-tb;direction:ltr;text-orientation:mixed;dominant-baseline:auto;baseline-shift:baseline;text-anchor:start;white-space:normal;shape-padding:0;shape-margin:0;inline-size:0;clip-rule:nonzero;display:inline;overflow:visible;visibility:visible;opacity:1;isolation:auto;mix-blend-mode:normal;color-interpolation:sRGB;color-interpolation-filters:linearRGB;solid-color:#000000;solid-opacity:1;vector-effect:none;fill:#01553b;fill-opacity:1;fill-rule:nonzero;stroke:none;stroke-width:0.121248;stroke-linecap:butt;stroke-linejoin:miter;stroke-miterlimit:4;stroke-dasharray:none;stroke-dashoffset:0;stroke-opacity:1;color-rendering:auto;image-rendering:auto;shape-rendering:auto;text-rendering:auto;enable-background:accumulate;stop-color:#000000;stop-opacity:1"
       d="m -22.522514,163.03644 v 66.14582 l 92.60418,10e-6 v -66.14582 z"
       id="path2610-3"
       sodipodi:nodetypes="ccccc" />
    <path
       style="color:#000000;font-style:normal;font-variant:normal;font-weight:normal;font-stretch:normal;font-size:medium;line-height:normal;font-family:sans-serif;font-variant-ligatures:normal;font-variant-position:normal;font-variant-caps:normal;font-variant-numeric:normal;font-variant-alternates:normal;font-variant-east-asian:normal;font-feature-settings:normal;font-variation-settings:normal;text-indent:0;text-align:start;text-decoration:none;text-decoration-line:none;text-decoration-style:solid;text-decoration-color:#000000;letter-spacing:normal;word-spacing:normal;text-transform:none;writing-mode:lr-tb;direction:ltr;text-orientation:mixed;dominant-baseline:auto;baseline-shift:baseline;text-anchor:start;white-space:normal;shape-padding:0;shape-margin:0;inline-size:0;clip-rule:nonzero;display:inline;overflow:visible;visibility:visible;opacity:1;isolation:auto;mix-blend-mode:normal;color-interpolation:sRGB;color-interpolation-filters:linearRGB;solid-color:#000000;solid-opacity:1;vector-effect:none;fill:#ffffff;fill-opacity:1;fill-rule:nonzero;stroke:none;stroke-width:1.17802;stroke-linecap:butt;stroke-linejoin:miter;stroke-miterlimit:4;stroke-dasharray:none;stroke-dashoffset:0;stroke-opacity:1;color-rendering:auto;image-rendering:auto;shape-rendering:auto;text-rendering:auto;enable-background:accumulate;stop-color:#000000;stop-opacity:1"
       d="m -18.826034,164.02252 c -1.48936,0 -2.70996,1.2206 -2.70996,2.71 v 58.7549 c 0,1.48944 1.22056,2.70909 2.70996,2.70908 l 85.21122,-2.6e-4 c 1.48936,0 2.70996,-1.21964 2.70996,-2.70904 v -58.75495 c 0,-1.48944 -1.2206,-2.71 -2.70996,-2.71 z m 0,1.17836 85.21122,-3.1e-4 c 0.85271,0 1.53164,0.67892 1.53164,1.53168 v 58.7549 c 0,0.85276 -0.67893,1.53068 -1.53164,1.53068 l -85.21122,2.6e-4 c -0.85272,0 -1.5316,-0.67796 -1.5316,-1.53072 v -58.75485 c 0,-0.85272 0.67888,-1.53164 1.5316,-1.53164 z"
       id="path2502-0"
       sodipodi:nodetypes="ssssssssssssssssss" />
    <g
       id="g15204"
       style="fill:#ffffff;fill-opacity:1"
       transform="matrix(1.1637979,0,0,1.1638008,-355.81589,-350.57715)">
      <g
         transform="translate(295.44,452.76001)"
         id="use15202"
         style="fill:#ffffff">
        <path
           style="fill:#ffffff;stroke:none"
           d="m 0.375,-5.171875 v 1.03125 H 2.953125 V 0 H 4 v -5.171875 z m 0,2.328125 V 0 h 1.03125 v -2.84375 z m 0,0"
           id="path15335" />
      </g>
    </g>
    <g
       id="g15208"
       style="fill:#ffffff;fill-opacity:1"
       transform="matrix(1.1637979,0,0,1.1638008,-355.81589,-350.57715)">
      <g
         transform="translate(299.66425,452.76001)"
         id="use15206"
         style="fill:#ffffff">
        <path
           style="fill:#ffffff;stroke:none"
           d="M 0.390625,-5.171875 0.375,-4.140625 H 1.15625 V -2.5625 H 2.1875 l 0.015625,-2.609375 z m 0,0"
           id="path15339" />
      </g>
    </g>
    <g
       id="g15212"
       style="fill:#ffffff;fill-opacity:1"
       transform="matrix(1.1637979,0,0,1.1638008,-355.81589,-350.57715)">
      <g
         transform="translate(302.15353,452.76001)"
         id="use15210"
         style="fill:#ffffff">
        <path
           style="fill:#ffffff;stroke:none"
           d="m 0.375,-5.171875 v 1.03125 H 2.4375 V 0 h 1.046875 v -4.125 c 0,-0.019531 0,-0.039063 0,-0.0625 -0.0625,-0.601563 -0.402344,-0.929688 -1.015625,-0.984375 z m 0,0"
           id="path15343" />
      </g>
    </g>
    <g
       id="g15216"
       style="fill:#ffffff;fill-opacity:1"
       transform="matrix(1.1637979,0,0,1.1638008,-355.81589,-350.57715)">
      <g
         transform="translate(306.01224,452.76001)"
         id="use15214"
         style="fill:#ffffff">
        <path
           style="fill:#ffffff;stroke:none"
           d="m 0.53125,-5.171875 v 1.03125 H 2.5625 v 3.09375 H 0.375 V 0 H 4 V -1.046875 H 3.59375 v -4.125 z m 0,0"
           id="path15347" />
      </g>
    </g>
    <g
       id="g15220"
       style="fill:#ffffff;fill-opacity:1"
       transform="matrix(1.1637979,0,0,1.1638008,-355.81589,-350.57715)">
      <g
         transform="translate(310.46277,452.76001)"
         id="use15218"
         style="fill:#ffffff">
        <path
           style="fill:#ffffff;stroke:none"
           d="M 0.375,-5.171875 V 0 h 3.6875 c 0.601563,-0.09375 0.929688,-0.441406 0.984375,-1.046875 v -4.125 h -2.84375 l 0.015625,1.5625 H 3.25 V -4.125 l 0.765625,-0.015625 v 3.09375 h -2.59375 v -4.125 z m 0,0"
           id="path15351" />
      </g>
    </g>
    <g
       id="g15228"
       style="fill:#ffffff;fill-opacity:1"
       transform="matrix(1.1637979,0,0,1.1638008,-355.81589,-358.24826)">
      <g
         transform="translate(310.67999,468.48001)"
         id="use15226"
         style="fill:#ffffff">
        <path
           id="path15355"
           style="fill:#ffffff;stroke:none;stroke-width:4.39861"
           d="m 830.9082,587.29102 -2.0625,2.88671 0.61914,0.54883 v 10.6543 l -1.03125,0.96094 h -3.76171 -0.29297 -0.39453 c -0.60139,0 -1.03173,-0.0864 -1.30665,-0.27539 -0.24054,-0.22337 -0.37774,-0.58415 -0.41211,-1.09961 l -1.03124,-5.22266 -2.47461,3.64258 0.61914,2.95508 H 815.1582 813.40039 805 h -0.22656 -8.06055 -0.55078 c -0.60137,0 -1.06377,-0.10321 -1.37305,-0.34375 -0.27491,-0.22337 -0.58525,-0.72135 -0.89453,-1.51172 l -1.375,-3.36719 -2.4043,3.43555 c 0.82474,0.9622 1.45992,2.02809 1.92383,3.16211 0.44674,1.1512 0.6875,2.30152 0.6875,3.43554 0,2.01031 -0.82513,3.71137 -2.47461,5.08594 -1.64947,1.40894 -3.67768,2.13086 -6.04883,2.13086 -0.27491,0 -0.5493,-0.034 -0.82421,-0.0684 -0.27492,0 -0.66969,-0.034 -1.16797,-0.0684 v 0.75586 c 1.0481,0.9622 2.07805,1.66694 3.09179,2.13086 0.99657,0.49828 1.94208,0.75586 2.81836,0.75586 1.92439,0 3.45427,-1.0319 4.60547,-3.09375 1.13402,-2.02749 1.71875,-4.77531 1.71875,-8.24609 h 0.41211 c 0,0.60137 0.1372,1.08253 0.41211,1.44336 0.29277,0.35782 0.74502,0.55557 1.3457,0.60546 v 0.0117 h 8.15821 0.22656 8.40039 1.75781 1.26563 c 0.72165,0 1.2368,-0.0844 1.51172,-0.27343 0.27491,-0.17183 0.5493,-0.54979 0.82422,-1.09961 l 1.10156,-2.47461 h 0.34179 c 0.13747,1.09965 0.551,2.02639 1.23829,2.74804 0.68728,0.73883 1.40884,1.09961 2.19921,1.09961 h 0.73829 0.29297 15.92578 c 1.2371,0 2.16544,-0.13719 2.81836,-0.41211 0.63573,-0.30928 1.3049,-0.82443 1.99218,-1.51171 1.04811,-1.04811 1.87324,-2.21525 2.47461,-3.50391 0.58419,-1.32302 0.89453,-2.62931 0.89453,-3.91797 0,-1.59793 -0.51515,-2.83465 -1.51172,-3.71094 -1.01374,-0.8591 -2.44041,-1.30664 -4.26171,-1.30664 -1.56357,0 -3.21384,0.39478 -4.94922,1.16797 -1.70103,0.73883 -3.48849,1.85516 -5.36133,3.36719 v -7.49024 L 834,589.42188 Z m 10.51368,10.79101 c 1.09965,0 1.99435,0.27439 2.68164,0.82422 0.72164,0.51546 1.25361,1.28783 1.58007,2.33594 -0.73883,0.51546 -1.49438,0.89305 -2.26757,1.16797 -0.73883,0.24054 -1.65035,0.34375 -2.75,0.34375 h -9.55274 c 2.1993,-1.73539 4.07315,-2.9553 5.63672,-3.64258 1.54639,-0.68729 3.10831,-1.0293 4.67188,-1.0293 z m -22.31836,12.50781 -2.06055,2.95508 3.0918,2.13086 2.0625,-2.88672 z"
           transform="matrix(0.22734475,0,0,0.22734417,-187.41805,-138.36088)" />
      </g>
    </g>
    <g
       id="g15236"
       style="fill:#ffffff;fill-opacity:1"
       transform="matrix(1.1637979,0,0,1.1638008,-355.81589,-358.24826)">
      <g
         transform="translate(296.99667,468.48001)"
         id="use15234"
         style="fill:#ffffff">
        <path
           id="path15359"
           style="fill:#ffffff;stroke:none;stroke-width:4.39861"
           d="m 769.00195,587.49609 -3.4375,2.47461 v 13.7461 c 0,1.61511 0.30998,2.81783 0.96289,3.64258 0.68729,0.82474 1.66643,1.23632 2.95508,1.23632 h 0.7832 0.0742 7.55469 c 0.36082,0 0.65399,-0.0676 0.89453,-0.20508 0.22337,-0.17182 0.41137,-0.44621 0.54883,-0.82421 l 1.78711,-4.26172 c 0.0344,-0.13746 0.0684,-0.27466 0.0684,-0.41211 0.0344,-0.13746 0.0684,-0.24066 0.0684,-0.34375 0,-0.0344 -0.034,-0.10394 -0.0684,-0.20703 0,-0.13746 -0.034,-0.27466 -0.0684,-0.41211 l -2.26758,-6.46094 -2.26758,3.29883 1.23633,3.57422 h -7.48633 -0.0742 -1.26367 z m 3.94532,23.09375 -1.78711,2.61133 2.8164,1.92383 1.78711,-2.61133 z m 5.08593,0 -1.78711,2.61133 2.88672,1.92383 1.7168,-2.61133 z"
           transform="matrix(0.22734475,0,0,0.22734417,-173.73473,-138.36088)" />
      </g>
    </g>
    <g
       id="g15240"
       style="fill:#ffffff;fill-opacity:1"
       transform="matrix(1.1637979,0,0,1.1638008,-355.81589,-358.24826)">
      <g
         transform="translate(298.3779,468.48001)"
         id="use15238"
         style="fill:#ffffff" />
    </g>
    <g
       id="g15248"
       style="fill:#ffffff;fill-opacity:1"
       transform="matrix(1.1637979,0,0,1.1638008,-355.60414,-358.24826)">
      <g
         transform="translate(304.18622,468.48001)"
         id="use15246"
         style="fill:#ffffff" />
    </g>
    <g
       id="g15252"
       style="fill:#ffffff;fill-opacity:1"
       transform="matrix(1.1637979,0,0,1.1638008,-355.81589,-358.24826)">
      <g
         transform="translate(306.2229,468.48001)"
         id="use15250"
         style="fill:#ffffff" />
    </g>
    <g
       id="g15256"
       style="fill:#ffffff;fill-opacity:1"
       transform="matrix(1.1637979,0,0,1.1638008,-355.81589,-358.24826)">
      <g
         transform="translate(308.18414,468.48001)"
         id="use15254"
         style="fill:#ffffff" />
    </g>
    <path
       id="path15262"
       d="m -14.818644,197.56994 h -1.8957 v -1.14106 h 5.09163 v 1.14106 h -1.89568 v 5.17802 h -1.30025 z m 4.1006,-1.14106 h 1.2320104 v 1.14106 h -1.2320104 z m 0,1.73655 h 1.2320104 v 4.58253 h -1.2320104 z m 3.7141404,2.29126 c 0,0.441 0.0819,0.78196 0.25002,1.02739 0.16822,0.24552 0.4228,0.36823 0.76832,0.36823 0.17727,0 0.32731,-0.0364 0.45915,-0.10902 0.12726,-0.0727 0.23181,-0.1727 0.31824,-0.30008 0.0863,-0.12272 0.14548,-0.27274 0.1863,-0.44098 0.0364,-0.1681 0.0546,-0.35003 0.0546,-0.54548 0,-0.16823 -0.0176,-0.33643 -0.05,-0.50006 -0.0364,-0.16369 -0.0955,-0.30914 -0.1727,-0.43643 -0.0773,-0.12278 -0.1819,-0.22734 -0.31369,-0.30461 -0.12728,-0.0772 -0.28644,-0.11814 -0.48189,-0.11814 -0.18181,0 -0.33643,0.0363 -0.46371,0.10901 -0.13185,0.0727 -0.23639,0.17271 -0.31827,0.2955 -0.0818,0.12272 -0.1409,0.2682 -0.17724,0.43185 -0.041,0.16822 -0.0592,0.34099 -0.0592,0.52282 z m -1.22743,-4.02781 h 1.22743 v 2.33213 h 0.0176 c 0.041,-0.0909 0.1,-0.18187 0.17728,-0.26819 0.0727,-0.0909 0.1682,-0.16823 0.27731,-0.24097 0.11371,-0.0683 0.24094,-0.12279 0.38641,-0.16365 0.15004,-0.041 0.31366,-0.0637 0.5001,-0.0637 0.34099,0 0.63192,0.0682 0.87741,0.20002 0.24093,0.13185 0.44098,0.30462 0.60007,0.52282 0.15907,0.21363 0.27274,0.46372 0.35005,0.74103 0.0773,0.27723 0.1137,0.56369 0.1137,0.85464 0,0.3864 -0.0455,0.73643 -0.14544,1.05471 -0.0955,0.31366 -0.22735,0.58186 -0.40016,0.80003 -0.17267,0.22277 -0.38183,0.391 -0.62278,0.50921 -0.23637,0.12276 -0.50006,0.18181 -0.78644,0.18181 -0.22277,0 -0.41375,-0.0264 -0.57283,-0.0772 -0.15905,-0.0546 -0.29091,-0.11816 -0.40002,-0.20003 -0.10903,-0.0773 -0.19552,-0.16818 -0.25912,-0.26818 -0.0637,-0.1 -0.11371,-0.19095 -0.15004,-0.2773 h -0.0132 v 0.68192 h -1.17743 z m 8.14661997,3.47319 c -0.0132,-0.1045 -0.0364,-0.20918 -0.0728,-0.31371 -0.0313,-0.10445 -0.0863,-0.19999 -0.15449,-0.28185 -0.0728,-0.0818 -0.15916,-0.14997 -0.26829,-0.20004 -0.10903,-0.0546 -0.24094,-0.0817 -0.40004,-0.0817 -0.15451997,0 -0.28635997,0.0264 -0.39542997,0.0727 -0.10909,0.0454 -0.2046,0.10901 -0.2819,0.18638 -0.0773,0.0818 -0.13185,0.1727 -0.17278,0.27731 -0.0409,0.10458 -0.0682,0.2182 -0.0817,0.34093 z m 1.24556003,1.47748 c -0.0546,0.15909 -0.12726,0.32729 -0.22732003,0.50466 -0.0999,0.17726 -0.23183,0.34093 -0.40003,0.49094 -0.16821,0.15006 -0.3728,0.27278 -0.61371,0.36823 -0.24545,0.0955 -0.5319,0.14543 -0.86378,0.14543 -0.69096997,0 -1.23653997,-0.20913 -1.63657997,-0.62274 -0.39552,-0.41376 -0.59556,-1.00474 -0.59556,-1.76389 0,-0.40914 0.0546,-0.76834 0.16367,-1.07745 0.10902,-0.30455 0.2591,-0.56369 0.45464,-0.77283 0.19546,-0.2046 0.43184,-0.36367 0.70459,-0.46831 0.27283,-0.10446 0.57281,-0.15906 0.90923997,-0.15906 0.3728,0 0.69553,0.0682 0.9638,0.20002 0.26818,0.13185 0.49097,0.31822 0.65915,0.55919 0.16819,0.24545 0.29552,0.53644 0.37736003,0.8728 0.0818,0.341 0.12273,0.71379 0.12273,1.12745 h -3.12768 c 0.009,0.15003 0.0311,0.29548 0.0682,0.42735 0.0363,0.1364 0.0954,0.25455 0.17726,0.35005 0.0773,0.1 0.18185,0.18185 0.3137,0.24095 0.13182,0.0546 0.29546,0.0863 0.49548997,0.0863 0.13642,0 0.25008,-0.0176 0.34101,-0.05 0.0863,-0.0309 0.16363,-0.0727 0.22734,-0.12268 0.059,-0.0501 0.11365,-0.10469 0.15448,-0.16366 0.041,-0.0637 0.0727,-0.12279 0.10472,-0.17279 z m 1.00019,-3.21412 h 1.17742 v 0.75464 h 0.0176 c 0.0364,-0.0591 0.0818,-0.13633 0.15007,-0.23637 0.0636,-0.0999 0.14544,-0.19544 0.24999,-0.29548 0.1,-0.0955 0.21819,-0.18186 0.35461,-0.2546 0.13633,-0.0727 0.28637,-0.10904 0.4546,-0.10904 0.0409,0 0.0863,0.005 0.13184,0.005 0.05,0.005 0.0909,0.009 0.13183,0.0132 v 1.24558 c -0.0455,-0.005 -0.0955,-0.009 -0.14548,-0.0132 -0.0501,0 -0.0954,-0.005 -0.14096,-0.005 -0.25,0 -0.44552,0.0364 -0.59549,0.10468 -0.15003,0.0636 -0.26369,0.1545 -0.34555,0.26817 -0.0818,0.10906 -0.13635,0.23639 -0.16817,0.37735 -0.0264,0.13634 -0.0409,0.28183 -0.0409,0.42736 v 2.30033 h -1.23193 z m 3.30952,-1.73655 h 1.23195 v 1.14106 h -1.23195 z m 0,1.73655 h 1.23195 v 4.58253 h -1.23195 z m 5.1552596,2.31858 c -0.17275,0.0999 -0.35007,0.16814 -0.5455,0.20452 -0.1909996,0.0409 -0.3728196,0.0818 -0.5410396,0.12279 -0.16364,0.0454 -0.30456,0.10902 -0.41365,0.2 -0.1136,0.0863 -0.16822,0.22733 -0.16822,0.41823 0,0.13641 0.0591,0.25454 0.1727,0.35004 0.11822,0.0955 0.28189,0.14547 0.4956,0.14547 0.31365,0 0.5591096,-0.0955 0.7364596,-0.2773 0.17272,-0.18643 0.26365,-0.4546 0.26365,-0.80464 z m 0.19093,2.26395 c -0.0455,-0.0773 -0.0863,-0.17279 -0.11822,-0.30008 -0.0313,-0.12271 -0.05,-0.21363 -0.0546,-0.27731 -0.0592,0.0682 -0.13184,0.14546 -0.21363,0.23182 -0.0819,0.0864 -0.17736,0.16373 -0.29094,0.23191 -0.1182,0.0727 -0.2455196,0.13182 -0.3955596,0.18182 -0.15,0.05 -0.32272,0.0727 -0.52283,0.0727 -0.46817,0 -0.82735,-0.12273 -1.08191,-0.36364 -0.25001,-0.24553 -0.37728,-0.60015 -0.37728,-1.06835 0,-0.25456 0.0409,-0.46827 0.11813,-0.63651 0.0819,-0.16363 0.18641,-0.30453 0.31826,-0.40917 0.13183,-0.10902 0.28189,-0.19543 0.4455,-0.25456 0.16821,-0.0546 0.34096,-0.0999 0.51827,-0.13185 0.17728,-0.0364 0.35454,-0.0636 0.53191,-0.0863 0.17726,-0.022 0.3318596,-0.05 0.4727596,-0.0863 0.17277,-0.0409 0.29093,-0.0819 0.35915,-0.1228 0.0637,-0.0408 0.1,-0.12728 0.1,-0.26361 0,-0.16367 -0.0636,-0.28646 -0.19091,-0.3592 -0.12278,-0.0773 -0.30006,-0.11371 -0.5228296,-0.11371 -0.17279,0 -0.3137,0.0176 -0.41822,0.0546 -0.10905,0.0409 -0.19096,0.0864 -0.25008,0.14555 -0.0636,0.0591 -0.1046,0.12727 -0.12729,0.20001 -0.0264,0.0773 -0.0409,0.15452 -0.0546,0.23182 h -1.14108 c 0,-0.16367 0.022,-0.34092 0.0727,-0.5273 0.05,-0.18642 0.14549,-0.3592 0.28645,-0.5183 0.14091,-0.15908 0.34093,-0.29091 0.59548,-0.39555 0.25457,-0.10447 0.59101,-0.15907 1.01378,-0.15907 0.6819096,0 1.1774096,0.12731 1.4775196,0.38187 0.30003,0.25458 0.45007,0.62279 0.45007,1.10466 v 2.29128 c 0,0.22734 0.0264,0.39096 0.0727,0.50007 0.0455,0.1046 0.10905,0.17728 0.19091,0.2182 v 0.22735 z m 4.6188,-3.19594 c -0.0132,-0.0682 -0.031,-0.13642 -0.0591,-0.2046 -0.022,-0.0682 -0.0681,-0.12728 -0.13175,-0.18184 -0.0591,-0.05 -0.14099,-0.0954 -0.24553,-0.12728 -0.1,-0.0311 -0.23638,-0.0455 -0.40459,-0.0455 -0.19553,0 -0.35918,0.0319 -0.50008,0.0954 -0.13641,0.0637 -0.20459,0.15461 -0.20459,0.27276 0,0.15001 0.0727,0.2637 0.20913,0.33183 0.14093,0.0727 0.31826,0.1274 0.53189,0.17738 0.21365,0.0455 0.44555,0.0909 0.69096,0.13634 0.24552,0.0409 0.47287,0.11361 0.68651,0.20915 0.21371,0.0954 0.39097,0.22732 0.53189,0.39556 0.14096,0.1681 0.21367,0.39546 0.21367,0.69096 0,0.25457 -0.0501,0.48189 -0.14545,0.67734 -0.0954,0.19552 -0.23191,0.36373 -0.40457,0.49553 -0.1728,0.13638 -0.38195,0.23646 -0.6229,0.30918 -0.24541,0.0682 -0.50913,0.10454 -0.80462,0.10454 -0.42281,0 -0.77284,-0.0455 -1.0593,-0.14084 -0.28178,-0.0909 -0.51368,-0.21374 -0.68637,-0.36823 -0.17736,-0.15005 -0.30464,-0.32739 -0.38195,-0.52285 -0.0818,-0.19546 -0.12271,-0.39555 -0.12728,-0.60006 h 1.26385 c 0.005,0.0636 0.0176,0.1318 0.041,0.20907 0.0176,0.0773 0.0636,0.15004 0.13176,0.2182 0.0637,0.0637 0.16822,0.12281 0.30007,0.16822 0.13642,0.0456 0.31825,0.0727 0.54559,0.0727 0.20447,0 0.38183,-0.0364 0.53188,-0.10907 0.15002,-0.0682 0.22278,-0.17723 0.22278,-0.32272 0,-0.14548 -0.0683,-0.25915 -0.20917,-0.33187 -0.14092,-0.0773 -0.31826,-0.14096 -0.5319,-0.18639 -0.2137,-0.0455 -0.44551,-0.0954 -0.69103,-0.14088 -0.24545,-0.0456 -0.47276,-0.11829 -0.68639,-0.20918 -0.21374,-0.0954 -0.391,-0.22275 -0.53198,-0.38185 -0.14089,-0.16372 -0.21363,-0.3864 -0.21363,-0.67283 0,-0.21823 0.041,-0.41826 0.11825,-0.60466 0.0727,-0.18639 0.19088,-0.35003 0.35452,-0.49094 0.15917,-0.14097 0.36375,-0.25006 0.61375,-0.33185 0.25001,-0.0773 0.54549,-0.11824 0.89104,-0.11824 0.42735,0 0.76827,0.0591 1.02287,0.17277 0.25454,0.11354 0.45006,0.25 0.5864,0.41368 0.141,0.15917 0.23191,0.32728 0.27284,0.50007 0.0454,0.17278 0.0682,0.31824 0.0772,0.44097 z m 0,0"
       style="fill:#ffffff;fill-opacity:1;fill-rule:nonzero;stroke:none;stroke-width:1.16381" />
    <g
       style="fill:#ffffff;fill-opacity:1"
       id="g13998"
       transform="matrix(1.1657249,0,0,1.165728,-304.79379,-441.42982)">
      <g
         id="use13996"
         transform="translate(305.40848,539.03998)"
         style="fill:#ffffff" />
    </g>
    <g
       transform="translate(0.52916667)"
       id="g15758">
      <g
         transform="matrix(1.1657249,0,0,1.1657249,-304.79379,-433.13008)"
         id="g13958"
         style="fill:#ffffff;fill-opacity:1">
        <g
           style="fill:#ffffff"
           transform="translate(295.56,522.83997)"
           id="use13956">
          <path
             style="fill:#ffffff;stroke:none"
             d="m 0.375,-5.171875 v 1.03125 H 2.953125 V 0 H 4 v -5.171875 z m 0,2.328125 V 0 h 1.03125 v -2.84375 z m 0,0"
             id="path14264" />
        </g>
      </g>
      <g
         transform="matrix(1.1657249,0,0,1.1657249,-304.79379,-433.13008)"
         id="g13962"
         style="fill:#ffffff;fill-opacity:1">
        <g
           style="fill:#ffffff"
           transform="translate(299.78421,522.83997)"
           id="use13960">
          <path
             style="fill:#ffffff;stroke:none"
             d="m 0.375,-6.203125 v 2.0625 L 2.703125,-4.125 v 2.203125 c 0,0.105469 -0.015625,0.203125 -0.046875,0.296875 -0.25,0.542969 -0.667969,0.746094 -1.25,0.609375 v 1.03125 c 0.125,0.0195313 0.25,0.03125 0.375,0.03125 1.195313,-0.1132813 1.847656,-0.769531 1.953125,-1.96875 V -5.15625 H 1.4375 L 1.421875,-6.203125 Z m 0,0"
             id="path14268" />
        </g>
      </g>
      <g
         transform="matrix(1.1657249,0,0,1.1657249,-304.79379,-433.13008)"
         id="g13966"
         style="fill:#ffffff;fill-opacity:1">
        <g
           style="fill:#ffffff"
           transform="translate(303.90033,522.83997)"
           id="use13964">
          <path
             style="fill:#ffffff;stroke:none"
             d="M 0.375,-5.171875 V -4.125 H 1.171875 V 0 h 1 v -5.171875 z m 0,0"
             id="path14272" />
        </g>
      </g>
      <g
         transform="matrix(1.1657249,0,0,1.1657249,-304.79379,-433.13008)"
         id="g13970"
         style="fill:#ffffff;fill-opacity:1">
        <g
           style="fill:#ffffff"
           transform="translate(306.45432,522.83997)"
           id="use13968">
          <path
             style="fill:#ffffff;stroke:none"
             d="m 0.390625,-5.171875 v 2.9375 H 1.9375 V -3.28125 H 1.40625 l 0.015625,-0.859375 h 1.8125 v 3.09375 H 0.375 V 0 H 3.25 C 3.269531,0 3.289063,0 3.3125,0 3.914063,-0.09375 4.226563,-0.4375 4.25,-1.03125 v -4.140625 z m 0,0"
             id="path14276" />
        </g>
      </g>
      <g
         transform="matrix(1.1657249,0,0,1.1657249,-304.79379,-433.13008)"
         id="g13974"
         style="fill:#ffffff;fill-opacity:1">
        <g
           style="fill:#ffffff"
           transform="translate(311.08273,522.83997)"
           id="use13972">
          <path
             style="fill:#ffffff;stroke:none"
             d="m 0.375,-5.15625 0.828125,4.140625 H 0.375 L 0.390625,0 H 2.78125 c 0.5625,-0.0507813 0.898438,-0.351563 1.015625,-0.90625 l 0.46875,-4.25 H 3.21875 l -0.4375,4.140625 H 2.265625 L 1.46875,-5.15625 Z m 0,0"
             id="path14280" />
        </g>
      </g>
      <g
         transform="matrix(1.1657249,0,0,1.165728,-304.79379,-441.42982)"
         id="g13982"
         style="fill:#ffffff;fill-opacity:1">
        <g
           style="fill:#ffffff"
           transform="translate(310.79999,539.03998)"
           id="use13980">
          <path
             transform="matrix(0.22696893,0,0,0.22696833,-231.51037,-138.11072)"
             d="m 1003.4824,587.29883 -2.0644,2.96094 3.0976,2.13281 2.0645,-2.89063 z m 26.5781,5.7832 c -1.2047,0 -2.3232,0.4648 -3.373,1.37695 -1.067,0.92937 -1.912,2.20326 -2.5488,3.85547 l 1.5156,3.92383 h -5.0488 -0.5957 -8.2657 -2.0644 c 0.034,-0.27537 0.068,-0.5508 0.068,-0.82617 0.034,-0.27537 0.068,-0.5508 0.068,-0.82617 0,-1.87595 -0.3787,-3.40855 -1.1016,-4.61328 -0.74,-1.23916 -1.6336,-1.85938 -2.6836,-1.85938 -1.2391,0 -2.3766,0.75891 -3.375,2.27344 -1.0154,1.4801 -1.703,3.42487 -2.0644,5.85156 h -4.03321 -0.30468 -1.76172 c -0.41305,-2.09969 -1.10067,-3.80491 -2.06446,-5.0957 -0.92936,-1.32521 -1.92782,-1.9961 -3.02929,-1.9961 -1.34242,0 -2.46089,0.92959 -3.37305,2.75391 -0.92936,1.84153 -1.37695,4.09567 -1.37695,6.74609 0,1.23916 0.34478,2.20416 1.0332,2.89258 0.72284,0.654 1.78918,0.96289 3.16602,0.96289 h 3.71679 c -0.37863,1.87595 -1.37513,3.32247 -3.02734,4.33789 -1.61779,0.99822 -3.68453,1.51368 -6.19727,1.51368 H 982.72 c -0.327,0 -0.5857,-0.034 -0.75781,-0.0684 v 0.96289 c 1.1359,0.8261 2.23764,1.44632 3.30469,1.85937 1.10147,0.44748 2.06647,0.6875 2.89258,0.6875 1.68663,0 3.1312,-0.82435 4.33593,-2.47656 1.18753,-1.65221 1.92776,-3.92503 2.20313,-6.81641 h 1.55469 0.30468 5.75391 l 1.9961,-2.06445 1.9277,2.06445 h 5.5078 8.2657 0.5957 9.3164 c 1.1875,0 2.2032,-0.0335 3.0293,-0.13672 0.8605,-0.13768 1.6868,-0.30983 2.4785,-0.55078 l 3.9238,-6.19726 c -0.7917,0.18931 -1.5654,0.34473 -2.3398,0.48242 -0.7917,0.10327 -1.6534,0.13867 -2.6172,0.13867 h -2.6153 c -1.1014,-0.68842 -1.9784,-1.37798 -2.6152,-2.0664 -0.654,-0.68843 -1.1375,-1.44538 -1.4472,-2.27149 0.7228,-0.41305 1.3956,-0.70521 1.998,-0.89453 0.6368,-0.17211 1.3077,-0.27539 1.9961,-0.27539 0.6368,0 1.3077,0.0693 1.9961,0.20703 0.7228,0.10326 1.4798,0.25673 2.2715,0.48047 v -0.61914 c -0.8261,-1.18753 -1.7725,-2.09991 -2.8223,-2.75391 -1.0154,-0.63679 -2.0478,-0.96289 -3.0977,-0.96289 z m -24.6503,5.78125 c 0.4991,0.24095 0.9132,0.51638 1.2402,0.82617 0.3098,0.327 0.5498,0.7244 0.6875,1.17188 -0.241,0.327 -0.5331,0.58375 -0.8945,0.75586 -0.327,0.13768 -0.8086,0.27638 -1.4454,0.41406 -0.5507,-0.22374 -0.9648,-0.44851 -1.2402,-0.68945 -0.2409,-0.27537 -0.4131,-0.56753 -0.5508,-0.89453 0.3098,-0.44748 0.6379,-0.79226 0.9649,-1.03321 0.3614,-0.27537 0.7736,-0.44752 1.2383,-0.55078 z m -16.6309,1.3086 c 0.58516,-10e-6 1.10062,0.18936 1.51367,0.55078 0.44747,0.327 0.96489,0.93048 1.51562,1.79101 -0.46468,0.10326 -0.87881,0.17067 -1.24023,0.20508 -0.37863,0.0516 -0.74014,0.0703 -1.10156,0.0703 -0.41306,0 -0.80851,-0.0187 -1.16992,-0.0703 -0.37864,-0.0861 -0.74015,-0.20607 -1.10157,-0.34375 0.0861,-0.63679 0.24148,-1.11831 0.48242,-1.44531 0.27537,-0.36142 0.63688,-0.62013 1.10157,-0.75781 z"
             style="fill:#ffffff;stroke:none;stroke-width:4.4059"
             id="path14284" />
        </g>
      </g>
      <g
         transform="matrix(1.1657249,0,0,1.165728,-304.79379,-441.42982)"
         id="g13986"
         style="fill:#ffffff;fill-opacity:1">
        <g
           style="fill:#ffffff"
           transform="translate(295.92001,539.03998)"
           id="use13984">
          <path
             transform="matrix(0.22696893,0,0,0.22696833,-216.63039,-138.11072)"
             d="m 978.14648,587.16016 -2.0664,2.89257 0.61914,0.55079 v 11.63476 h -5.58984 -0.11133 -1.12696 c -0.74005,0 -1.27419,-0.15542 -1.58398,-0.48242 -0.327,-0.30979 -0.53309,-0.8946 -0.61914,-1.7207 l -1.30859,-8.53711 -1.78907,3.09765 0.0684,0.68946 c -1.65221,0.68842 -3.13267,1.58211 -4.40625,2.68359 -1.23915,1.10148 -2.30549,2.37584 -3.16601,3.78711 l -1.17188,3.16602 c -0.0516,0.0516 -0.0684,0.12097 -0.0684,0.20703 v 0.27539 c 0,0.327 0.0861,0.54981 0.27539,0.6875 0.22374,0.13768 0.56852,0.25965 1.03321,0.3457 l 5.16211,0.55078 2.7539,-4.75 -5.09375,-0.75781 c 0.44748,-0.91216 1.0677,-1.73846 1.85938,-2.47852 0.77447,-0.77447 1.75425,-1.53143 2.95898,-2.27148 l 0.89453,8.25976 c 0.0861,1.10148 0.44757,1.9804 1.10156,2.61719 0.63679,0.60237 1.51572,0.89453 2.61719,0.89453 h 1.60938 0.11133 5.10937 c 0.63679,0 1.04896,-0.0693 1.23828,-0.20703 0.22374,-0.1721 0.42983,-0.51493 0.61914,-1.03125 l 1.79102,-4.47461 V 591.1543 l 1.30859,-1.85938 z"
             style="fill:#ffffff;stroke:none;stroke-width:4.4059"
             id="path14288" />
        </g>
      </g>
      <path
         id="path14004"
         d="m 42.810746,200.33642 h 1.60285 l -0.79239,-2.42692 h -0.0163 z m 0.0819,-3.9251 h 1.45721 l 2.25396,6.33404 h -1.38879 l -0.45078,-1.33877 h -2.30429 l -0.42788,1.33877 h -1.39342 z m 4.76315,2.62287 h -0.63297 v -0.87887 h 0.63297 v -0.46903 c 0,-0.15026 0.0163,-0.30508 0.0502,-0.4599 0.0327,-0.1548 0.10011,-0.29595 0.20033,-0.42352 0.0956,-0.12307 0.23672,-0.22773 0.41442,-0.30508 0.18204,-0.0819 0.41438,-0.1185 0.71032,-0.1185 0.11396,0 0.22319,0 0.31879,0.004 0.0955,0 0.18204,0.004 0.25956,0.0122 v 1.00171 c -0.0412,-0.008 -0.0912,-0.0122 -0.15027,-0.0122 -0.0592,-0.004 -0.11392,-0.004 -0.17311,-0.004 -0.18219,0 -0.29595,0.0325 -0.33704,0.091 -0.041,0.0638 -0.059,0.1594 -0.059,0.29598 v 0.3871 h 0.7741 v 0.87889 h -0.7741 v 3.71118 h -1.23408 z m 5.70108,3.02357 h -0.0163 c -0.082,0.17306 -0.18214,0.30969 -0.30058,0.41443 -0.11381,0.1046 -0.24131,0.18654 -0.36884,0.25041 -0.12744,0.0637 -0.25503,0.10471 -0.38701,0.12751 -0.12754,0.0209 -0.24585,0.0367 -0.35059,0.0367 -0.52369,0 -0.91985,-0.15023 -1.19307,-0.44608 -0.2733,-0.29614 -0.40985,-0.68763 -0.40985,-1.18397 v -3.10105 h 1.23407 v 2.80492 c 0,0.18225 0.0205,0.32798 0.0683,0.4418 0.0502,0.11391 0.10922,0.2049 0.18213,0.27324 0.0729,0.0682 0.15939,0.1138 0.25956,0.13657 0.10012,0.0207 0.20034,0.0368 0.30509,0.0368 0.11391,0 0.22314,-0.0204 0.33699,-0.0639 0.10917,-0.0409 0.20948,-0.1091 0.29601,-0.21385 0.091,-0.1002 0.15937,-0.23685 0.21402,-0.40546 0.0502,-0.16375 0.0773,-0.37779 0.0773,-0.63735 v -2.37251 h 1.234 v 4.59006 h -1.17938 z m 2.40882,-5.64644 h 1.22941 v 6.33404 h -1.22941 z m 4.98616,4.06633 c -0.17293,0.10015 -0.35061,0.16838 -0.54635,0.20492 -0.19119,0.0368 -0.37346,0.0774 -0.542,0.12283 -0.16376,0.0456 -0.30504,0.10931 -0.41434,0.19599 -0.11376,0.091 -0.16836,0.23215 -0.16836,0.42331 0,0.13674 0.0592,0.25045 0.17745,0.34621 0.11393,0.10014 0.27788,0.1457 0.49191,0.1457 0.31421,0 0.56005,-0.091 0.73759,-0.27779 0.17761,-0.18214 0.2641,-0.45078 0.2641,-0.80142 z m 0.1914,2.26771 c -0.0457,-0.0775 -0.0867,-0.17758 -0.11848,-0.30061 -0.0326,-0.1229 -0.0501,-0.21393 -0.0547,-0.28224 -0.0592,0.0729 -0.13207,0.15026 -0.21403,0.23664 -0.0819,0.082 -0.17746,0.15944 -0.29143,0.2323 -0.11385,0.0684 -0.24579,0.12746 -0.39618,0.17753 -0.15031,0.0502 -0.32321,0.0773 -0.52354,0.0773 -0.46903,0 -0.82879,-0.12282 -1.0838,-0.36401 -0.25046,-0.24604 -0.378,-0.60113 -0.378,-1.0702 0,-0.25956 0.041,-0.46898 0.11847,-0.63755 0.0819,-0.16853 0.18659,-0.30506 0.31867,-0.41436 0.13205,-0.10928 0.2823,-0.19123 0.4463,-0.25042 0.16854,-0.0593 0.34143,-0.10469 0.51914,-0.13657 0.18206,-0.0325 0.3597,-0.0593 0.53263,-0.0821 0.17765,-0.0203 0.33705,-0.0547 0.47361,-0.0864 0.17308,-0.041 0.29155,-0.0819 0.3597,-0.12303 0.0638,-0.0409 0.10014,-0.13198 0.10014,-0.26393 0,-0.16396 -0.0636,-0.28698 -0.19118,-0.3643 -0.12302,-0.073 -0.30052,-0.11394 -0.52373,-0.11394 -0.17293,0 -0.3142,0.0204 -0.41893,0.0592 -0.10471,0.0369 -0.19121,0.0864 -0.25043,0.14569 -0.0638,0.0593 -0.10471,0.12282 -0.12738,0.20033 -0.0209,0.0773 -0.0412,0.15482 -0.0547,0.22759 h -1.143 c 0,-0.16379 0.0257,-0.33692 0.0728,-0.52358 0.0503,-0.19133 0.14582,-0.3643 0.28696,-0.51909 0.1411,-0.15941 0.34146,-0.29157 0.59642,-0.39633 0.25499,-0.10462 0.59207,-0.15918 1.01563,-0.15918 0.68288,0 1.17934,0.12739 1.47985,0.38237 0.30048,0.255 0.45076,0.62386 0.45076,1.10208 v 2.29496 c 0,0.2277 0.0278,0.39612 0.0729,0.50084 0.0455,0.10925 0.10922,0.18217 0.19118,0.22324 v 0.22767 z m 0,0"
         style="fill:#ffffff;fill-opacity:1;fill-rule:nonzero;stroke:none;stroke-width:1.16563" />
    </g>
    <path
       id="path15732"
       style="opacity:1;fill:#ffffff;stroke-width:0.0169642;stroke-linecap:square;stroke-miterlimit:10;stroke-dasharray:none"
       d="m -6.1246681,210.09795 0.4901205,5.34422 -4.8674484,-0.8834 c -0.244309,0.0547 -0.362882,0.12065 -0.441109,0.2753 -0.107713,0.21272 -0.131783,0.4916 0.05566,0.71255 l 6.6350723,7.36527 c 0.077029,0.10079 0.3715763,0.26507 0.5882641,0.26807 0.2130172,0.003 0.4749859,-0.15434 0.5723182,-0.26446 l 6.6329917,-7.36373 c 0.2033895,-0.25243 0.1603646,-0.53913 0.066496,-0.70075 -0.087854,-0.15105 -0.2725893,-0.27892 -0.4353919,-0.29216 l -4.8950647,0.88336 0.5054954,-5.34414 z" />
    <g
       transform="matrix(1.5419577,0,0,1.5419577,-269.89348,10.478589)"
       id="layer1-6">
      <rect
         ry="1.8629911"
         rx="1.8629911"
         y="127.54231"
         x="183.35452"
         height="10.349951"
         width="14.20013"
         id="rect7087"
         style="opacity:1;fill:#ffffff;fill-opacity:1;fill-rule:nonzero;stroke:none;stroke-width:0.0206999;stroke-linejoin:miter;stroke-miterlimit:4;stroke-dasharray:none;stroke-opacity:1" />
      <path
         id="rect7162"
         d="m 185.21753,128.1633 c -0.68807,0 -1.242,0.55393 -1.242,1.242 v 6.62397 c 0,0.68806 0.55393,1.24199 1.242,1.24199 h 10.47415 c 0.68806,0 1.24199,-0.55393 1.24199,-1.24199 v -6.62397 c 0,-0.68807 -0.55393,-1.242 -1.24199,-1.242 z m 5.23707,0.7659 5.07148,0.621 0.62099,3.16708 -0.62099,3.16709 -5.07148,0.62099 -5.11288,-0.62099 -0.57959,-3.16709 0.57959,-3.16708 z"
         style="opacity:1;fill:#ff0000;fill-opacity:1;fill-rule:nonzero;stroke:none;stroke-width:0.0103499;stroke-linejoin:miter;stroke-miterlimit:4;stroke-dasharray:none;stroke-opacity:1" />
      <g
         transform="translate(-12.133616)"
         id="text7197"
         style="font-style:normal;font-variant:normal;font-weight:bold;font-stretch:normal;font-size:76.0297px;line-height:125%;font-family:Helvetica;-inkscape-font-specification:'Helvetica Bold';text-align:center;letter-spacing:0px;word-spacing:0px;writing-mode:lr-tb;text-anchor:middle;fill:#ff0000;fill-opacity:1;stroke:none;stroke-width:0.264583px;stroke-linecap:butt;stroke-linejoin:miter;stroke-opacity:1"
         aria-label="65">
        <path
           id="path3866"
           style="font-style:normal;font-variant:normal;font-weight:bold;font-stretch:normal;font-family:Triumvirate;-inkscape-font-specification:'Triumvirate Bold';letter-spacing:3.56264px;fill:#ff0000;fill-opacity:1;stroke-width:0.0206999px"
           d="m 200.18787,133.44297 q 0,0.18439 0.0476,0.3212 0.0535,0.13681 0.13681,0.23199 0.0892,0.0892 0.19629,0.13681 0.11302,0.0476 0.23198,0.0476 0.26767,0 0.42233,-0.18439 0.1606,-0.1844 0.1606,-0.5294 0,-0.18439 -0.0476,-0.3212 -0.0476,-0.14276 -0.13086,-0.23198 -0.0773,-0.0952 -0.18439,-0.13681 -0.10113,-0.0476 -0.21414,-0.0476 -0.26767,0 -0.44612,0.17845 -0.1725,0.17844 -0.1725,0.53534 z m 1.14801,-1.78448 q -0.0119,-0.0595 -0.0416,-0.13086 -0.0298,-0.0714 -0.0833,-0.13086 -0.0535,-0.0595 -0.13681,-0.10112 -0.0833,-0.0416 -0.19629,-0.0416 -0.23793,0 -0.38069,0.12492 -0.13681,0.11896 -0.21414,0.29741 -0.0714,0.17845 -0.10112,0.38069 -0.0238,0.19629 -0.0416,0.35094 0.15465,-0.13681 0.34499,-0.24387 0.19035,-0.11302 0.49371,-0.11302 0.27362,0 0.5056,0.0892 0.23198,0.0892 0.39853,0.26173 0.16655,0.1725 0.26172,0.42232 0.0952,0.24388 0.0952,0.55914 0,0.35689 -0.10112,0.63646 -0.10112,0.27362 -0.29147,0.46991 -0.18439,0.19034 -0.44612,0.29146 -0.25577,0.10113 -0.56508,0.10113 -0.45801,0 -0.74948,-0.1725 -0.29146,-0.1725 -0.46396,-0.45207 -0.16655,-0.28552 -0.23198,-0.64241 -0.0595,-0.36284 -0.0595,-0.74353 0,-0.44017 0.0654,-0.85655 0.0714,-0.42233 0.24388,-0.74353 0.17845,-0.32715 0.46991,-0.52345 0.29742,-0.19629 0.74948,-0.19629 0.33905,0 0.57104,0.0952 0.23793,0.0952 0.38663,0.24983 0.15465,0.15465 0.22603,0.35689 0.0773,0.1963 0.10112,0.40448 z" />
        <path
           id="path3868"
           style="font-style:normal;font-variant:normal;font-weight:bold;font-stretch:normal;font-family:Triumvirate;-inkscape-font-specification:'Triumvirate Bold';letter-spacing:3.56264px;fill:#ff0000;fill-opacity:1;stroke-width:0.0206999px"
           d="m 203.8584,132.25332 q 0.15465,-0.10112 0.32121,-0.16655 0.16655,-0.0714 0.43422,-0.0714 0.28551,0 0.5175,0.0952 0.23792,0.0952 0.40448,0.27362 0.1725,0.17845 0.26172,0.42828 0.0952,0.24982 0.0952,0.55913 0,0.3331 -0.10707,0.61267 -0.10112,0.27362 -0.29741,0.47586 -0.19034,0.19629 -0.46396,0.30931 -0.27362,0.11302 -0.61267,0.11302 -0.38664,0 -0.64836,-0.11897 -0.25578,-0.11896 -0.42233,-0.29741 -0.1606,-0.1844 -0.24388,-0.39853 -0.0773,-0.21414 -0.10112,-0.41043 l 0.80896,-0.0476 q 0.0119,0.10112 0.0476,0.20819 0.0357,0.10112 0.10707,0.18439 0.0714,0.0773 0.17845,0.13087 0.11301,0.0476 0.28551,0.0476 0.11897,0 0.22604,-0.0416 0.11301,-0.0476 0.19629,-0.14276 0.0892,-0.0952 0.13681,-0.23793 0.0535,-0.14276 0.0535,-0.33311 0,-0.34499 -0.17845,-0.52344 -0.17249,-0.1844 -0.43422,-0.1844 -0.22603,0 -0.35689,0.0952 -0.13086,0.0952 -0.19629,0.21413 l -0.73759,-0.0476 0.30336,-2.33172 h 2.29603 v 0.72569 h -1.73689 z" />
      </g>
    </g>
    <path
       d="m 49.540354,210.09795 0.490121,5.34422 -4.867451,-0.8834 c -0.244309,0.0547 -0.362882,0.12065 -0.441109,0.2753 -0.107713,0.21272 -0.131783,0.4916 0.05566,0.71255 l 6.635076,7.36527 c 0.07703,0.10079 0.371576,0.26507 0.588264,0.26807 0.213018,0.003 0.474987,-0.15434 0.572319,-0.26446 l 6.632995,-7.36373 c 0.20339,-0.25243 0.160365,-0.53913 0.0665,-0.70075 -0.08785,-0.15105 -0.272589,-0.27892 -0.435392,-0.29216 l -4.895067,0.88336 0.505495,-5.34414 z"
       style="opacity:1;fill:#ffffff;stroke-width:0.0169642;stroke-linecap:square;stroke-miterlimit:10;stroke-dasharray:none"
       id="path17769" />
  </g>
</svg>
