<?xml version="1.0" encoding="UTF-8" standalone="no"?>
<svg
   xmlns:dc="http://purl.org/dc/elements/1.1/"
   xmlns:cc="http://creativecommons.org/ns#"
   xmlns:rdf="http://www.w3.org/1999/02/22-rdf-syntax-ns#"
   xmlns:svg="http://www.w3.org/2000/svg"
   xmlns="http://www.w3.org/2000/svg"
   xmlns:sodipodi="http://sodipodi.sourceforge.net/DTD/sodipodi-0.dtd"
   xmlns:inkscape="http://www.inkscape.org/namespaces/inkscape"
   sodipodi:docname="Israel_road_sign_608.svg.2021_02_20_23_39_19.0.svg"
   inkscape:version="1.0 (4035a4fb49, 2020-05-01)"
   id="svg7438"
   version="1.1"
   viewBox="0 0 92.239503 135.68028"
   height="135.68028mm"
   width="92.239502mm">
  <defs
     id="defs7432" />
  <sodipodi:namedview
     inkscape:document-rotation="0"
     inkscape:guide-bbox="true"
     showguides="false"
     inkscape:window-maximized="1"
     inkscape:window-y="-9"
     inkscape:window-x="-9"
     inkscape:window-height="1001"
     inkscape:window-width="1920"
     showgrid="false"
     inkscape:current-layer="layer1"
     inkscape:document-units="mm"
     inkscape:cy="298.78491"
     inkscape:cx="120.49641"
     inkscape:zoom="1.4"
     inkscape:pageshadow="2"
     inkscape:pageopacity="0.0"
     borderopacity="1.0"
     bordercolor="#666666"
     pagecolor="#ffffff"
     id="base">
    <sodipodi:guide
       inkscape:locked="false"
       id="guide8603"
       orientation="0,1"
       position="344.71112,-138.95015" />
  </sodipodi:namedview>
  <metadata
     id="metadata7435">
    <rdf:RDF>
      <cc:Work
         rdf:about="">
        <dc:format>image/svg+xml</dc:format>
        <dc:type
           rdf:resource="http://purl.org/dc/dcmitype/StillImage" />
        <dc:title />
      </cc:Work>
    </rdf:RDF>
  </metadata>
  <g
     transform="translate(58.016406,-118.56424)"
     id="layer1"
     inkscape:groupmode="layer"
     inkscape:label="Layer 1">
    <path
       id="path8406"
       style="fill:#ffff00;fill-opacity:1;stroke-width:0.126175"
       d="M -58.016406,118.56424 V 254.24453 H 34.223095 V 118.56424 Z"
       inkscape:connector-curvature="0"
       sodipodi:nodetypes="ccccc" />
    <g
       style="font-size:18.0582px;line-height:109.02%;font-family:'Highway Gothic Expanded';-inkscape-font-specification:'Highway Gothic Expanded, Normal';text-align:center;letter-spacing:2.46327px;text-anchor:middle;fill:#0000c8;fill-opacity:1;stroke-width:0.264583"
       id="text8463"
       aria-label="EXIT" />
    <g
       style="opacity:1"
       id="g967">
      <path
         id="path969"
         d="m -47.048828,121.15234 c -4.500754,0 -8.160156,3.6594 -8.160156,8.16016 v 114.00977 c 0,4.50075 3.659402,8.16015 8.160156,8.16015 h 70.394531 c 4.500754,0 8.160156,-3.6594 8.160156,-8.16015 V 129.3125 c 0,-4.50076 -3.659402,-8.16016 -8.160156,-8.16016 z m 0,2.32618 h 70.394531 c 3.251848,0 5.833985,2.58212 5.833985,5.83398 v 114.00977 c 0,3.25184 -2.582137,5.83398 -5.833985,5.83398 h -70.394531 c -3.251848,0 -5.832031,-2.58214 -5.832031,-5.83398 V 129.3125 c 0,-3.25186 2.580183,-5.83398 5.832031,-5.83398 z"
         style="color:#000000;font-style:normal;font-variant:normal;font-weight:normal;font-stretch:normal;font-size:medium;line-height:normal;font-family:sans-serif;font-variant-ligatures:normal;font-variant-position:normal;font-variant-caps:normal;font-variant-numeric:normal;font-variant-alternates:normal;font-variant-east-asian:normal;font-feature-settings:normal;font-variation-settings:normal;text-indent:0;text-align:start;text-decoration:none;text-decoration-line:none;text-decoration-style:solid;text-decoration-color:#000000;letter-spacing:normal;word-spacing:normal;text-transform:none;writing-mode:lr-tb;direction:ltr;text-orientation:mixed;dominant-baseline:auto;baseline-shift:baseline;text-anchor:start;white-space:normal;shape-padding:0;shape-margin:0;inline-size:0;clip-rule:nonzero;display:inline;overflow:visible;visibility:visible;isolation:auto;mix-blend-mode:normal;color-interpolation:sRGB;color-interpolation-filters:linearRGB;solid-color:#000000;solid-opacity:1;vector-effect:none;fill:#000000;fill-opacity:1;fill-rule:evenodd;stroke:none;stroke-width:0.5;stroke-linecap:square;stroke-linejoin:miter;stroke-miterlimit:10;stroke-dasharray:none;stroke-dashoffset:0;stroke-opacity:1;paint-order:markers fill stroke;color-rendering:auto;image-rendering:auto;shape-rendering:auto;text-rendering:auto;enable-background:accumulate;stop-color:#000000;stop-opacity:1" />
      <path
         id="path971"
         d="m -47.048828,120.90234 c -4.636265,0 -8.410156,3.77389 -8.410156,8.41016 v 114.00977 c 0,4.63626 3.773891,8.41015 8.410156,8.41015 h 70.394531 c 4.636265,0 8.410156,-3.77389 8.410156,-8.41015 V 129.3125 c 0,-4.63627 -3.773891,-8.41016 -8.410156,-8.41016 z m 0,0.5 h 70.394531 c 4.365243,0 7.910156,3.54491 7.910156,7.91016 v 114.00977 c 0,4.36523 -3.544913,7.91015 -7.910156,7.91015 h -70.394531 c -4.365243,0 -7.910156,-3.54492 -7.910156,-7.91015 V 129.3125 c 0,-4.36525 3.544913,-7.91016 7.910156,-7.91016 z m 0,1.82618 c -3.384189,0 -6.082031,2.69988 -6.082031,6.08398 v 114.00977 c 0,3.38408 2.697841,6.08398 6.082031,6.08398 h 70.394531 c 3.38419,0 6.083984,-2.6998 6.083985,-6.08398 V 129.3125 c 0,-3.3842 -2.699796,-6.08398 -6.083985,-6.08398 z m 0,0.5 h 70.394531 c 3.119507,0 5.583985,2.46446 5.583985,5.58398 v 114.00977 c 0,3.11949 -2.464479,5.58398 -5.583985,5.58398 h -70.394531 c -3.119506,0 -5.582031,-2.46439 -5.582031,-5.58398 V 129.3125 c 0,-3.11962 2.462524,-5.58398 5.582031,-5.58398 z"
         style="color:#000000;font-style:normal;font-variant:normal;font-weight:normal;font-stretch:normal;font-size:medium;line-height:normal;font-family:sans-serif;font-variant-ligatures:normal;font-variant-position:normal;font-variant-caps:normal;font-variant-numeric:normal;font-variant-alternates:normal;font-variant-east-asian:normal;font-feature-settings:normal;font-variation-settings:normal;text-indent:0;text-align:start;text-decoration:none;text-decoration-line:none;text-decoration-style:solid;text-decoration-color:#000000;letter-spacing:normal;word-spacing:normal;text-transform:none;writing-mode:lr-tb;direction:ltr;text-orientation:mixed;dominant-baseline:auto;baseline-shift:baseline;text-anchor:start;white-space:normal;shape-padding:0;shape-margin:0;inline-size:0;clip-rule:nonzero;display:inline;overflow:visible;visibility:visible;isolation:auto;mix-blend-mode:normal;color-interpolation:sRGB;color-interpolation-filters:linearRGB;solid-color:#000000;solid-opacity:1;vector-effect:none;fill:#000000;fill-opacity:1;fill-rule:evenodd;stroke:none;stroke-width:0.5;stroke-linecap:square;stroke-linejoin:miter;stroke-miterlimit:10;stroke-dasharray:none;stroke-dashoffset:0;stroke-opacity:1;paint-order:markers fill stroke;color-rendering:auto;image-rendering:auto;shape-rendering:auto;text-rendering:auto;enable-background:accumulate;stop-color:#000000;stop-opacity:1" />
    </g>
    <text
       id="text935"
       y="127.58507"
       x="76.965179"
       style="font-size:10.5833px;line-height:109.02%;font-family:'Heb Tamrurim';-inkscape-font-specification:'Heb Tamrurim';text-align:center;text-anchor:middle;stroke-width:0.264583"
       xml:space="preserve"><tspan
         style="stroke-width:0.264583"
         y="127.58507"
         x="76.965179"
         id="tspan933"
         sodipodi:role="line" /></text>
    <g
       inkscape:groupmode="layer"
       style="font-size:19.2882px;line-height:109.02%;font-family:'Heb Tamrurim';-inkscape-font-specification:'Heb Tamrurim';text-align:center;letter-spacing:1.09802px;text-anchor:middle;fill:#008080;stroke-width:0.264583"
       id="text939"
       aria-label="vthmh">
      <path
         transform="matrix(0.26458333,0,0,0.26458333,45.545909,116.90724)"
         d="m -259.76367,75.501953 -11.56055,0.02148 10.41602,17.488281 -9.93946,7.341806 -0.0254,25.14453 10,-0.0606 v -19.85352 l 5.08594,-3.92578 14.03516,23.81641 11.57422,-0.0117 -10.31836,-17.45117 9.59765,-7.4629 0.0254,-25.011716 -9.91406,-0.01172 0.0117,19.951171 -4.89063,3.816407 z m -62.46289,0.01172 -0.0117,9.998047 24.91406,0.01172 -0.0254,39.92578 10.07227,-0.0117 -0.0117,-49.900389 z m 104.65625,0.01367 -0.0606,10.021484 7.57422,-0.02344 -0.0137,15.134773 9.98828,0.0371 0.0117,-25.16993 z m 86.97656,0 -0.0606,10.021484 7.57227,-0.02344 -0.0117,15.134773 9.98633,0.0371 0.0137,-25.16993 z m -39.91211,0.142578 -12.38867,0.0098 v 0.0039 l 0.0254,0.04883 27.79297,39.828129 -27.04883,0.01 -0.0371,9.98828 40.02344,-0.0234 0.0117,-9.86524 -10.81836,-15.25586 2.31836,0.0117 8.53515,-24.730469 -10.71875,0.02148 -5.85351,16.707031 z M -312.27539,97.962891 -322.25195,98 v 27.45117 l 9.98828,-0.0391 z m 167.00586,57.392579 -2.00391,3.01172 -2.0039,3.00976 3.20117,2.15039 c 1.76016,1.18296 3.29488,2.09544 3.41015,2.0293 0.62967,-0.36132 3.84881,-5.77581 3.58008,-6.02148 -0.1731,-0.15799 -1.63366,-1.16436 -3.24804,-2.23438 z m -156.81836,11.37891 c -1.09507,-0.0113 -1.9783,0.0594 -3.03906,0.1875 -4.48221,0.54114 -7.30209,2.06558 -8.98828,4.85937 -1.45071,2.40367 -1.87914,3.79607 -2.17383,7.05859 l -0.22461,2.48438 h 1.31055 c 1.15559,0 1.34111,-0.13039 1.55273,-1.09375 0.27039,-1.23099 1.95369,-2.81341 3.43359,-3.22852 1.3754,-0.38596 13.91109,-0.26731 15.69141,0.14844 l 1.4668,0.34375 -2.20313,1.24609 c -8.48557,4.80212 -13.29274,9.49559 -16.40039,16.01172 -5.23458,10.97586 -1.86886,25.78732 6.8418,30.10547 2.355,1.16746 4.30751,1.67737 7.83593,2.05078 5.09736,0.53976 14.41297,0.26305 18.00586,-0.53515 0.53369,-0.11868 2.31825,-2.16863 5.03321,-5.78125 2.31348,-3.07835 4.15848,-5.64291 4.10156,-5.69922 -0.0568,-0.0567 -2.72078,0.14664 -5.91992,0.45312 -11.47778,1.09954 -20.25102,0.55685 -24.92578,-1.54101 -2.59604,-1.16508 -5.09507,-3.7937 -5.95899,-6.27149 -0.33464,-0.95981 -0.6995,-2.90404 -0.81054,-4.32031 -0.84993,-10.8319 7.82349,-20.55802 21.21484,-23.78906 0.91042,-0.21997 3.70903,-0.50305 6.21875,-0.62891 l 4.56445,-0.22851 2.50391,-4.78125 2.50586,-4.78321 -6.88477,-0.23437 c -3.78657,-0.12926 -10.85726,-0.68577 -15.71289,-1.23633 -4.80161,-0.54429 -7.21394,-0.77856 -9.03906,-0.79492 z m 144.3457,2.26953 c -0.73428,-0.0401 -1.39942,0.0341 -2.09179,0.1875 -1.06632,0.23848 -2.5639,0.88837 -3.33008,1.44336 -2.20653,1.59843 -4.04756,5.20897 -4.46875,8.76562 -0.17348,1.46408 -0.12095,1.65905 0.45898,1.65625 0.36132,-9.8e-4 0.90751,-0.43987 1.21289,-0.97656 1.15971,-2.03917 4.56697,-2.69441 8.33399,-1.60156 1.03854,0.30122 4.62461,1.84171 7.9707,3.42382 3.34617,1.582 6.47509,3.04188 6.95313,3.24219 0.85541,0.35906 0.84504,0.37494 -0.75196,1.09766 -2.79118,1.26289 -4.877,1.33343 -18.58984,1.42187 l -13.6836,0.0918 -1.76953,-0.17188 c -2.54233,-0.24415 -3.40422,-1.27301 -5.82422,-6.94921 l -2.02539,-4.75 -2.6914,3.80859 -2.69141,3.80664 1.20117,1.64844 c 2.58497,3.54682 4.31168,8.22754 4.64844,12.59765 0.37965,4.92866 -1.39558,9.22685 -5.26172,12.74219 -4.10947,3.73667 -9.18221,5.47035 -15.43554,5.27344 l -3.5254,-0.11133 0.008,0.86914 c 0.0174,1.58914 6.54241,5.80161 10.5957,6.83985 2.2447,0.57493 5.68076,0.32468 7.67773,-0.5586 5.37073,-2.37573 9.30724,-10.8149 9.7793,-20.96875 0.18633,-4.00581 0.26682,-4.43359 0.84766,-4.43359 0.49462,0 0.64258,0.26381 0.64258,1.14062 0,1.46053 0.82827,2.62942 2.29492,3.24219 0.63681,0.26608 1.34283,0.48352 1.3457,0.48437 h 6.01563 c 10.18779,-6e-5 14.15104,-0.87305 22.42382,-4.93945 10.52535,-5.17368 14.23991,-6.47784 19.49024,-6.84179 l 3.07226,-0.2129 2.72266,-4.86718 2.72266,-4.86719 -4.0586,-0.21875 c -7.09844,-0.38593 -12.43849,-2.03685 -23.01172,-7.10742 -6.16535,-2.9568 -9.00421,-4.08753 -11.20703,-4.20703 z m -79.83203,2.66797 c -4.10357,0.14852 -7.98241,4.71847 -9.85156,13.21289 -0.78451,3.56538 -0.82685,11.45696 -0.0684,12.83203 1.97012,3.57135 6.1136,4.65819 12.62695,3.31445 1.93572,-0.39934 3.74952,-0.81379 4.03125,-0.92187 0.67177,-0.25777 0.82976,0.59547 0.5293,2.86523 -0.76168,5.75403 -6.01486,10.80168 -13.26563,12.74609 -1.1408,0.30614 -4.05626,0.63977 -6.48046,0.74219 -4.31438,0.18217 -4.40821,0.2026 -4.40821,0.98047 0,0.48193 0.39223,1.07446 0.99805,1.50586 1.88026,1.33886 7.46982,3.84149 9.71875,4.34961 6.69749,1.51302 11.84996,-1.28533 15.19726,-8.24805 2.37621,-4.94264 3.47424,-10.82772 3.4629,-18.53516 -0.0113,-7.26673 -0.92186,-11.86775 -3.34961,-16.93164 -2.62212,-5.4692 -5.94897,-8.02776 -9.14063,-7.9121 z m -0.70312,11.45703 c 0.21101,-0.003 0.42284,0.017 0.63476,0.0566 2.07669,0.38955 6.3296,4.91168 5.24805,5.58007 -0.67545,0.41726 -7.26659,0.48253 -8.67188,0.0859 -1.48125,-0.41771 -1.59951,-0.90617 -0.74218,-3.04883 0.64749,-1.61824 2.05417,-2.65345 3.53125,-2.67382 z m -57.81446,13.71484 -2.10937,3.10742 c -1.16082,1.70888 -2.05005,3.15588 -1.97461,3.21485 0.0755,0.059 1.61495,1.12783 3.41992,2.375 l 3.28125,2.26757 2.13672,-3.20898 c 1.17455,-1.76485 2.01429,-3.31123 1.86719,-3.4375 -0.14706,-0.12624 -1.69623,-1.14941 -3.44336,-2.27344 z m -8.85156,58.45508 v 49.14062 h 36.99219 v -8.87304 h -26.89063 v -12.01172 h 23.47852 v -8.87305 h -23.47852 v -10.50976 h 25.66211 v -8.87305 z m 50.5625,0 15.01563,24.02539 -15.69727,25.11523 h 11.73828 l 9.69336,-17.19922 9.69141,17.19922 h 12.14843 l -16.10742,-25.11523 15.01563,-24.02539 h -11.74024 l -9.00781,16.24414 -8.60156,-16.24414 z m 58.04102,0 v 49.14062 h 10.09961 v -49.14062 z m 26.84179,0 v 8.87305 h 14.74219 v 40.26757 h 10.10156 v -40.26757 h 14.74219 v -8.87305 z m 8.69727,87.31836 c -0.0883,0.003 -0.17854,0.0162 -0.26758,0.0273 -8.7e-4,-0.002 -0.003,-0.003 -0.004,-0.008 l -0.0957,0.0117 -0.0215,0.002 -73.50586,10.42383 -0.004,0.002 c -1.77304,0.15912 -3.13087,1.64563 -3.13086,3.42578 2e-5,1.21603 0.64261,2.34223 1.68946,2.96094 l 27.56054,18.51758 -66.23242,60.89648 10.93555,10.92969 10.94726,10.9375 60.82031,-66.30469 18.48243,27.62305 0.27539,0.28125 c 0.64374,0.87727 1.6658,1.39438 2.7539,1.39453 1.76508,-7e-5 3.24122,-1.34404 3.4043,-3.10156 l 10.3457,-73.86914 c 0.008,-0.0465 0.0158,-0.0933 0.0195,-0.13867 l 0.004,-0.0215 c -1.5e-4,-0.003 -0.002,-0.008 -0.002,-0.008 0.008,-0.23547 0.008,-0.47686 -0.0293,-0.71875 -0.2878,-1.96228 -2.00368,-3.34895 -3.94141,-3.26367 h -0.002 z"
         style="fill:#000000;fill-opacity:1;stroke-width:0.999999"
         id="path949" />
    </g>
  </g>
</svg>
