<svg xmlns="http://www.w3.org/2000/svg" viewBox="0 0 571.471 569.972">
  <rect width="571.471" height="569.972" rx="110" fill="#2749d8"></rect>
  <polygon fill="#ffffff" points="45.563,474.779 286.74,57.047 527.917,474.779"></polygon>
  <path fill="#1c2337" d="M363.565,281.732c0,26.259-7.093,53.627-21.274,82.11c-19.811,39.854-57.495,64.119-113.056,72.792l28.484-59.253c15.473-2.231,30.124-7.286,43.956-15.16c11.956-6.813,17.935-20.27,17.935-40.362c0-10.341-3.217-15.512-9.651-15.512H247.13c-10.179,0-16.437-1.524-18.778-4.577c-1.407-1.876-2.107-7.332-2.107-16.371c0-4.104,0.176-10.206,0.528-18.305c0.352-8.096,0.527-13.904,0.527-17.426c0-7.042-0.997-12.088-2.989-15.138c-1.055-1.761-3.516-3.816-7.384-6.162l34.901-46.33c7.56,8.909,11.343,27.138,11.343,54.682l0.173,11.78c0.819,3.986,3.632,5.978,8.44,5.978h72.439c8.322,0,13.772,2.346,16.353,7.033C362.568,265.029,363.565,271.771,363.565,281.732z"></path>
</svg>