<svg xmlns="http://www.w3.org/2000/svg" style="display:none" aria-hidden="true">

  
  <symbol id="icon-flame" viewBox="0 0 16 16">
    <path d="M8 1.5c.4 2.2 3.1 3.4 3.9 5.8.9 2.7-.8 6-3.9 6s-4.8-3.3-3.9-6c.4-1.3 1.4-2.2 2.2-3.2.8-1 1.5-1.7 1.7-2.6z" fill="currentColor"></path>
    <circle cx="8" cy="10.6" r="2.1" fill="var(--surface)" opacity="0.85"></circle>
  </symbol>

  <symbol id="icon-flame-gold" viewBox="0 0 16 16">
    <path d="M8 1.5c.4 2.2 3.1 3.4 3.9 5.8.9 2.7-.8 6-3.9 6s-4.8-3.3-3.9-6c.4-1.3 1.4-2.2 2.2-3.2.8-1 1.5-1.7 1.7-2.6z" fill="currentColor"></path>
    <circle cx="8" cy="10.6" r="2.1" fill="var(--gold-soft)" opacity="0.85"></circle>
  </symbol>

  <symbol id="icon-star" viewBox="0 0 16 16">
    <path d="M8 1.2l2 4.2 4.6.6-3.4 3.2.9 4.6L8 11.6l-4.1 2.2.9-4.6L1.4 6l4.6-.6z" fill="currentColor"></path>
  </symbol>

  
  <symbol id="icon-home" viewBox="0 0 24 24">
    <g fill="none" stroke="currentColor" stroke-width="2" stroke-linecap="round" stroke-linejoin="round">
      <path d="M3 10.5 12 3l9 7.5"></path>
      <path d="M5 9.5V21h14V9.5"></path>
    </g>
  </symbol>

  <symbol id="icon-book" viewBox="0 0 24 24">
    <path d="M4 19.5A2.5 2.5 0 0 1 6.5 17H20V3H6.5A2.5 2.5 0 0 0 4 5.5z" fill="none" stroke="currentColor" stroke-width="2" stroke-linecap="round" stroke-linejoin="round"></path>
  </symbol>

  <symbol id="icon-cards" viewBox="0 0 24 24">
    <g fill="none" stroke="currentColor" stroke-width="2" stroke-linecap="round" stroke-linejoin="round">
      <rect x="8" y="8" width="12" height="12" rx="2"></rect>
      <path d="M16 8V6a2 2 0 0 0-2-2H6a2 2 0 0 0-2 2v8a2 2 0 0 0 2 2h2"></path>
    </g>
  </symbol>

  <symbol id="icon-more" viewBox="0 0 24 24">
    <circle cx="5" cy="12" r="1.6" fill="currentColor"></circle>
    <circle cx="12" cy="12" r="1.6" fill="currentColor"></circle>
    <circle cx="19" cy="12" r="1.6" fill="currentColor"></circle>
  </symbol>

  <symbol id="icon-timer" viewBox="0 0 24 24">
    <g fill="none" stroke="currentColor" stroke-width="2" stroke-linecap="round" stroke-linejoin="round">
      <circle cx="12" cy="14" r="8"></circle>
      <path d="M10 2h4"></path>
      <path d="M12 14l3-3"></path>
    </g>
  </symbol>

  <symbol id="icon-calendar" viewBox="0 0 24 24">
    <g fill="none" stroke="currentColor" stroke-width="2" stroke-linecap="round" stroke-linejoin="round">
      <rect x="3" y="4" width="18" height="17" rx="3"></rect>
      <path d="M8 2v4M16 2v4M3 9h18"></path>
    </g>
  </symbol>

  <symbol id="icon-video" viewBox="0 0 24 24">
    <rect x="2" y="5" width="20" height="14" rx="3" fill="none" stroke="currentColor" stroke-width="2" stroke-linecap="round" stroke-linejoin="round"></rect>
    <path d="m14 12-4-2.5v5z" fill="currentColor" stroke="none"></path>
  </symbol>

  <symbol id="icon-youtube" viewBox="0 0 24 24">
    <path d="M21.6 7.2a2.9 2.9 0 0 0-2-2C17.8 4.7 12 4.7 12 4.7s-5.8 0-7.6.5a2.9 2.9 0 0 0-2 2A30.2 30.2 0 0 0 2 12a30.2 30.2 0 0 0 .4 4.8 2.9 2.9 0 0 0 2 2c1.8.5 7.6.5 7.6.5s5.8 0 7.6-.5a2.9 2.9 0 0 0 2-2A30.2 30.2 0 0 0 22 12a30.2 30.2 0 0 0-.4-4.8Z" fill="currentColor"></path>
    <path d="m10 15.5 5-3.5-5-3.5v7Z" fill="var(--surface)"></path>
  </symbol>

  <symbol id="icon-link" viewBox="0 0 24 24">
    <g fill="none" stroke="currentColor" stroke-width="2" stroke-linecap="round" stroke-linejoin="round">
      <path d="M10 13a5 5 0 0 0 7.5.5l3-3a5 5 0 0 0-7-7l-1.7 1.7"></path>
      <path d="M14 11a5 5 0 0 0-7.5-.5l-3 3a5 5 0 0 0 7 7l1.7-1.7"></path>
    </g>
  </symbol>

  <symbol id="icon-moon" viewBox="0 0 24 24">
    <path d="M12 3a6 6 0 0 0 9 9 9 9 0 1 1-9-9Z" fill="none" stroke="currentColor" stroke-width="2" stroke-linecap="round" stroke-linejoin="round"></path>
  </symbol>

  <symbol id="icon-heart" viewBox="0 0 24 24">
    <path d="M20.84 4.61a5.5 5.5 0 0 0-7.78 0L12 5.67l-1.06-1.06a5.5 5.5 0 0 0-7.78 7.78l1.06 1.06L12 21.23l7.78-7.78 1.06-1.06a5.5 5.5 0 0 0 0-7.78z" fill="none" stroke="currentColor" stroke-width="2" stroke-linecap="round" stroke-linejoin="round"></path>
  </symbol>

  <symbol id="icon-globe" viewBox="0 0 24 24">
    <g fill="none" stroke="currentColor" stroke-width="2" stroke-linecap="round" stroke-linejoin="round">
      <circle cx="12" cy="12" r="10"></circle>
      <path d="M12 2a15.3 15.3 0 0 1 4 10 15.3 15.3 0 0 1-4 10 15.3 15.3 0 0 1-4-10 15.3 15.3 0 0 1 4-10z"></path>
    </g>
  </symbol>

  
  <symbol id="icon-chevron-left" viewBox="0 0 24 24">
    <path d="m15 18-6-6 6-6" fill="none" stroke="var(--text-faint)" stroke-width="2" stroke-linecap="round" stroke-linejoin="round"></path>
  </symbol>

  <symbol id="icon-external" viewBox="0 0 24 24">
    <g fill="none" stroke="var(--text-faint)" stroke-width="2" stroke-linecap="round" stroke-linejoin="round">
      <path d="M7 7h10v10"></path>
      <path d="M7 17 17 7"></path>
    </g>
  </symbol>

  
  <symbol id="icon-play" viewBox="0 0 24 24">
    <path d="M8 5v14l11-7z" fill="#fff"></path>
  </symbol>


  <symbol id="icon-diamond" viewBox="0 0 24 24">
    <g fill="none" stroke="currentColor" stroke-width="2" stroke-linecap="round" stroke-linejoin="round">
      <path d="M6 3h12l4 6-10 12L2 9z"></path>
      <path d="M2 9h20M9.5 3 8 9l4 12M14.5 3 16 9l-4 12"></path>
    </g>
  </symbol>

  <symbol id="icon-trophy" viewBox="0 0 24 24">
    <g fill="none" stroke="currentColor" stroke-width="2" stroke-linecap="round" stroke-linejoin="round">
      <path d="M6 3h12v6a6 6 0 0 1-12 0z"></path>
      <path d="M6 5H3a3 3 0 0 0 3 5M18 5h3a3 3 0 0 1-3 5"></path>
      <path d="M12 15v3M8 21h8M10 18h4"></path>
    </g>
  </symbol>

  <symbol id="icon-check" viewBox="0 0 24 24">
    <path d="M20 6 9 17l-5-5" fill="none" stroke="currentColor" stroke-width="2.5" stroke-linecap="round" stroke-linejoin="round"></path>
  </symbol>

</svg>
